<?xml version="1.0" encoding="UTF-8" standalone="no"?>
<!-- Created with Inkscape (http://www.inkscape.org/) -->

<svg
   version="1.1"
   id="svg2"
   xml:space="preserve"
   width="495"
   height="373"
   viewBox="0 0 495 373"
   xmlns="http://www.w3.org/2000/svg"
   xmlns:svg="http://www.w3.org/2000/svg"><defs
     id="defs6"><clipPath
       clipPathUnits="userSpaceOnUse"
       id="clipPath20"><path
         d="M 60,264 H 354.75 V 39.75 H 60 Z"
         clip-rule="evenodd"
         id="path18" /></clipPath><clipPath
       clipPathUnits="userSpaceOnUse"
       id="clipPath30"><path
         d="M 60,264 H 354.75 V 39.75 H 60 Z"
         clip-rule="evenodd"
         id="path28" /></clipPath><clipPath
       clipPathUnits="userSpaceOnUse"
       id="clipPath40"><path
         d="M 60,264 H 354.75 V 39.75 H 60 Z"
         clip-rule="evenodd"
         id="path38" /></clipPath><clipPath
       clipPathUnits="userSpaceOnUse"
       id="clipPath50"><path
         d="M 60,264 H 354.75 V 39.75 H 60 Z"
         clip-rule="evenodd"
         id="path48" /></clipPath><clipPath
       clipPathUnits="userSpaceOnUse"
       id="clipPath60"><path
         d="M 60,264 H 354.75 V 39.75 H 60 Z"
         clip-rule="evenodd"
         id="path58" /></clipPath></defs><g
     id="g8"
     transform="matrix(1.3333333,0,0,-1.3333333,0,373)"><g
       id="g10"><path
         d="M 0,279.75 H 371.25 V 0 H 0 Z"
         style="fill:#ffffff;fill-opacity:1;fill-rule:nonzero;stroke:none"
         id="path12" /></g><g
       id="g14"><g
         id="g16"
         clip-path="url(#clipPath20)"><path
           d="m 60,40.227 0.59,0.021 0.589,0.015 0.884,0.024 0.59,0.016 0.884,0.027 0.59,0.019 0.884,0.03 0.884,0.033 0.59,0.023 0.884,0.037 0.589,0.026 0.885,0.043 0.589,0.03 0.884,0.049 0.59,0.035 0.884,0.057 0.59,0.041 0.884,0.067 0.884,0.074 0.59,0.053 0.884,0.088 0.589,0.064 0.884,0.105 0.59,0.077 0.884,0.129 0.59,0.094 0.884,0.159 0.59,0.118 0.884,0.199 0.884,0.229 0.589,0.174 0.885,0.298 0.589,0.228 0.59,0.255 0.294,0.14 0.59,0.307 0.59,0.349 0.294,0.193 0.59,0.428 0.295,0.238 0.589,0.534 0.295,0.299 0.294,0.323 0.295,0.352 0.59,0.8 0.589,0.958 0.295,0.552 0.295,0.608 0.294,0.675 0.295,0.749 0.295,0.837 0.295,0.938 0.295,1.057 0.294,1.196 0.295,1.36 0.295,1.557 0.295,1.793 0.294,2.078 0.295,2.428 0.295,2.858 0.294,3.394 0.295,4.066 0.295,4.919 0.295,6.008 0.295,7.404 0.294,9.196 0.295,11.469 0.295,14.26 0.294,17.454 0.295,20.562 0.295,22.506 0.295,21.741 0.294,17.313 0.295,10.298 0.295,3.591 0.59,-0.93 0.294,0.896 0.295,2.032 0.295,0.875 0.294,-2.579 0.295,-6.816 0.295,-10.36 0.295,-12.661 0.295,-13.866 0.294,-14.324 0.295,-14.33 0.295,-14.061 0.294,-13.589 0.295,-12.911 0.295,-11.987 0.295,-10.801 0.294,-9.418 0.295,-7.979 0.295,-6.631 0.295,-5.46 0.295,-4.495 0.294,-3.716 0.295,-3.094 0.295,-2.599 0.294,-2.201 0.295,-1.88 0.295,-1.617 0.295,-1.401 0.295,-1.222 0.294,-1.072 0.295,-0.945 0.295,-0.837 0.294,-0.744 0.295,-0.665 0.295,-0.595 0.59,-1.017 0.294,-0.434 0.295,-0.391 0.295,-0.354 0.589,-0.608 0.295,-0.259 0.295,-0.233 0.589,-0.391 0.295,-0.16 0.59,-0.253 0.884,-0.203 0.884,0.05 0.59,0.229 0.589,0.464 0.295,0.356 0.295,0.469 0.294,0.614 0.295,0.8 0.295,1.037 0.294,1.335 0.295,1.686 0.295,2.046 0.295,2.299 0.295,2.222 0.294,1.574 0.59,-0.701 0.294,-2.047 0.295,-2.423 0.295,-2.325 0.295,-2.008 0.295,-1.644 0.294,-1.317 0.295,-1.048 0.295,-0.837 0.295,-0.673 0.294,-0.547 0.295,-0.449 0.589,-0.686 0.295,-0.266 0.59,-0.423 0.295,-0.17 0.294,-0.15 0.884,-0.355 0.59,-0.18 0.884,-0.213 0.59,-0.114 0.884,-0.141 0.589,-0.079 0.885,-0.099 0.884,-0.083 0.589,-0.046 0.885,-0.061 0.589,-0.034 0.885,-0.043 0.589,-0.024 0.884,-0.028 0.59,-0.013 0.884,-0.012 0.589,-0.002 0.885,0.007 0.589,0.015 0.885,0.039 0.884,0.069 0.589,0.07 0.59,0.099 0.295,0.063 0.589,0.167 0.884,0.405 0.295,0.2 0.295,0.248 0.589,0.701 0.295,0.496 0.59,1.421 0.294,0.969 0.295,1.121 0.295,1.155 0.294,0.946 0.295,0.427 0.295,-0.266 0.295,-0.851 0.295,-1.14 0.294,-1.154 0.295,-1.023 0.295,-0.846 0.294,-0.678 0.295,-0.537 0.295,-0.426 0.59,-0.612 0.294,-0.221 0.295,-0.181 0.884,-0.382 0.295,-0.09 0.295,-0.078 0.884,-0.176 0.59,-0.085 0.884,-0.096 0.589,-0.05 0.884,-0.059 0.885,-0.047 0.589,-0.025 0.884,-0.032 0.59,-0.019 0.884,-0.024 0.295,-0.007 0.295,-0.007 0.884,-0.018 0.59,-0.011 0.884,-0.015 0.589,-0.009 0.884,-0.012 0.885,-0.011 0.589,-0.006 0.884,-0.009 0.59,-0.006 0.884,-0.008 0.59,-0.004 0.884,-0.007 0.589,-0.004 0.885,-0.006 0.589,-0.004 0.884,-0.005 0.885,-0.004 0.589,-0.003 0.885,-0.004 0.589,-0.003 0.884,-0.003 0.59,-0.003 0.884,-0.003 0.589,-0.002 0.885,-0.002 0.589,-0.002 0.885,-0.002 0.884,-0.002 0.589,-0.001 0.885,-10e-4 0.589,-10e-4 0.884,-0.001 0.59,-10e-4 0.884,-10e-4 h 0.59 0.884 0.589 l 0.885,10e-4 0.884,10e-4 0.589,0.001 0.885,10e-4 0.589,0.002 0.884,0.003 0.59,0.003 0.884,0.005 0.59,0.004 0.884,0.009 0.589,0.007 0.885,0.015 0.884,0.021 0.589,0.021 0.884,0.047 0.59,0.049 0.884,0.125 0.59,0.147 0.884,0.374 0.295,0.154 0.295,0.13 0.884,-0.046 0.295,-0.139 0.294,-0.148 0.884,-0.343 0.59,-0.132 0.884,-0.112 0.295,-0.023 0.589,-0.035 0.59,-0.023 0.884,-0.022 0.59,-0.009 0.884,-0.008 0.589,-0.003 0.885,-10e-4 h 0.589 l 0.884,0.003 0.59,0.003 0.884,0.005 0.885,0.008 0.589,0.005 0.884,0.01 0.59,0.008 0.884,0.013 0.589,0.01 0.885,0.017 0.589,0.012 0.885,0.022 0.589,0.017 0.884,0.029 0.885,0.034 0.589,0.027 0.884,0.048 0.59,0.039 0.884,0.071 0.59,0.06 0.884,0.116 0.589,0.101 0.885,0.211 0.589,0.201 0.884,0.457 0.295,0.219 0.59,0.597 0.294,0.412 0.295,0.518 0.295,0.653 0.295,0.819 0.294,1.004 0.295,1.172 0.295,1.235 0.294,1.062 0.59,0.413 0.295,-0.798 0.295,-1.147 0.294,-1.198 0.295,-1.073 0.295,-0.889 0.294,-0.71 0.295,-0.557 0.295,-0.436 0.59,-0.607 0.589,-0.375 0.59,-0.233 0.294,-0.079 0.884,-0.139 0.59,-0.031 0.884,0.018 0.59,0.049 0.884,0.123 0.59,0.117 0.884,0.233 0.589,0.2 0.884,0.388 0.59,0.332 0.59,0.409 0.294,0.24 0.59,0.572 0.294,0.34 0.295,0.386 0.295,0.437 0.295,0.5 0.295,0.574 0.294,0.662 0.295,0.77 0.295,0.899 0.295,1.06 0.294,1.258 0.295,1.507 0.295,1.82 0.294,2.22 0.295,2.734 0.295,3.397 0.295,4.258 0.295,5.366 0.294,6.767 0.295,8.449 0.295,10.266 0.294,11.76 0.295,12.065 0.295,10.129 0.295,5.602 0.295,-0.422 0.294,-6.005 0.295,-9.756 0.295,-11.362 0.295,-11.242 0.294,-10.072 0.295,-8.482 0.295,-6.895 0.294,-5.514 0.295,-4.391 0.295,-3.507 0.295,-2.82 0.295,-2.288 0.294,-1.873 0.295,-1.549 0.295,-1.292 0.294,-1.087 0.295,-0.922 0.295,-0.789 0.295,-0.678 0.294,-0.588 0.295,-0.512 0.59,-0.844 0.295,-0.35 0.294,-0.311 0.295,-0.278 0.589,-0.473 0.295,-0.202 0.885,-0.5 0.589,-0.265 0.884,-0.32 0.295,-0.09 0.295,-0.084 0.884,-0.215 0.59,-0.119 0.884,-0.15 0.589,-0.083 0.885,-0.106 0.589,-0.058 0.884,-0.074 0.885,-0.058 0.589,-0.031 0.884,-0.035 0.59,-0.016 0.884,-0.011 h 0.59 l 0.884,0.016 0.589,0.023 0.884,0.058 0.59,0.059 0.884,0.135 0.295,0.062 0.295,0.073 0.884,0.311 0.884,0.542 0.59,0.596 0.589,0.93 0.295,0.651 0.295,0.814 0.294,1.001 0.295,1.188 0.295,1.337 0.295,1.38 0.295,1.217 0.294,0.741 0.59,-0.848 0.294,-1.346 0.295,-1.5 0.295,-1.398 0.295,-1.186 0.295,-0.961 0.294,-0.766 0.295,-0.606 0.295,-0.481 0.294,-0.385 0.59,-0.564 0.295,-0.208 0.589,-0.319 0.59,-0.227 0.295,-0.09 0.589,-0.144 0.589,-0.11 0.885,-0.121 0.589,-0.059 0.884,-0.067 0.59,-0.034 0.884,-0.036 0.59,-0.017 0.884,-0.015 0.884,-0.002 0.59,0.006 0.884,0.022 0.589,0.027 0.885,0.064 0.589,0.067 0.885,0.159 0.589,0.17 0.589,0.257 0.295,0.178 0.59,0.508 0.589,0.814 0.295,0.56 0.295,0.657 0.294,0.696 0.295,0.602 0.59,0.243 0.589,-1.12 0.295,-0.697 0.295,-0.629 0.295,-0.524 0.589,-0.756 0.295,-0.265 0.589,-0.379 0.885,-0.341 0.589,-0.142 0.884,-0.143 0.59,-0.066 0.589,-0.051 0.295,-0.021 0.884,-0.051 0.59,-0.027 0.884,-0.032 0.59,-0.017 0.884,-0.021 0.589,-0.012 0.885,-0.015 0.589,-0.009 0.884,-0.011 0.59,-0.007 0.884,-0.008 0.884,-0.008 0.59,-0.005 0.884,-0.006 0.589,-0.004 0.885,-0.005 0.589,-0.003 0.884,-0.005 0.59,-0.002 0.884,-0.004 0.59,-0.002 0.884,-0.004 0.884,-0.003 0.59,-0.002 0.884,-0.002 0.589,-0.002 0.885,-0.003 0.589,-0.001 0.884,-0.002 0.59,-0.002 0.884,-0.002 0.59,-10e-4 0.884,-0.002 0.884,-10e-4 0.59,-0.002 0.884,-10e-4 0.589,-10e-4 0.885,-0.002 0.589,-10e-4 0.885,-0.001 0.589,-10e-4 0.884,-10e-4 0.59,-0.001 0.884,-10e-4 0.884,-10e-4 0.59,-0.001 0.884,-10e-4 0.59,-10e-4 0.884,-0.001 h 0.589 0.295"
           style="fill:none;stroke:#000000;stroke-width:2;stroke-linecap:butt;stroke-linejoin:miter;stroke-miterlimit:10;stroke-dasharray:none;stroke-opacity:1"
           id="path22" /></g></g><g
       id="g24"><g
         id="g26"
         clip-path="url(#clipPath30)"><path
           d="m 60,40.126 0.59,0.011 0.589,0.011 0.884,0.018 0.59,0.013 0.884,0.021 0.59,0.014 0.884,0.023 0.884,0.025 0.59,0.018 0.884,0.029 0.589,0.02 0.885,0.033 0.589,0.023 0.884,0.038 0.59,0.027 0.884,0.044 0.59,0.032 0.884,0.052 0.884,0.058 0.59,0.042 0.884,0.068 0.589,0.05 0.884,0.083 0.59,0.062 0.884,0.101 0.59,0.075 0.884,0.127 0.59,0.094 0.884,0.16 0.884,0.186 0.589,0.141 0.885,0.243 0.589,0.186 0.59,0.211 0.294,0.116 0.59,0.255 0.59,0.292 0.294,0.162 0.59,0.361 0.589,0.42 0.295,0.236 0.589,0.535 0.59,0.636 0.295,0.364 0.295,0.4 0.589,0.928 0.295,0.541 0.294,0.602 0.295,0.673 0.295,0.756 0.295,0.852 0.295,0.966 0.294,1.1 0.295,1.26 0.295,1.451 0.295,1.684 0.294,1.966 0.295,2.314 0.295,2.745 0.294,3.284 0.295,3.967 0.295,4.836 0.295,5.953 0.295,7.395 0.294,9.253 0.295,11.621 0.295,14.543 0.294,17.904 0.295,21.194 0.295,23.269 0.295,22.446 0.294,17.536 0.295,9.305 0.295,0.319 0.295,-7.049 0.295,-11.946 0.294,-14.689 0.295,-15.941 0.295,-16.265 0.294,-16.007 0.295,-15.325 0.295,-14.27 0.295,-12.866 0.295,-11.204 0.294,-9.457 0.295,-7.808 0.295,-6.373 0.294,-5.192 0.295,-4.242 0.295,-3.492 0.295,-2.897 0.294,-2.425 0.295,-2.046 0.295,-1.742 0.295,-1.494 0.295,-1.29 0.294,-1.12 0.295,-0.98 0.295,-0.862 0.294,-0.761 0.295,-0.675 0.295,-0.602 0.295,-0.538 0.295,-0.483 0.589,-0.826 0.295,-0.355 0.294,-0.321 0.295,-0.292 0.59,-0.505 0.295,-0.218 0.589,-0.375 0.295,-0.16 0.589,-0.268 0.59,-0.197 0.884,-0.146 0.59,0.038 0.884,0.396 0.294,0.26 0.59,0.695 0.295,0.334 0.295,0.19 0.884,-0.796 0.295,-0.485 0.294,-0.45 0.295,-0.385 0.589,-0.575 0.295,-0.21 0.295,-0.172 0.884,-0.366 0.295,-0.088 0.295,-0.076 0.884,-0.179 0.59,-0.09 0.884,-0.105 0.884,-0.08 0.589,-0.043 0.885,-0.052 0.589,-0.028 0.884,-0.032 0.59,-0.016 0.884,-0.015 0.59,-0.005 0.884,-10e-4 0.589,0.005 0.59,0.009 0.295,0.006 0.884,0.025 0.589,0.023 0.885,0.044 0.589,0.038 0.885,0.069 0.589,0.056 0.884,0.103 0.59,0.083 0.884,0.152 0.589,0.122 0.295,0.07 0.59,0.157 0.589,0.187 0.885,0.35 0.294,0.141 0.59,0.327 0.589,0.403 0.885,0.804 0.589,0.727 0.589,0.956 0.295,0.594 0.295,0.695 0.295,0.819 0.294,0.974 0.295,1.169 0.295,1.414 0.295,1.719 0.295,2.095 0.294,2.535 0.295,3.002 0.295,3.402 0.294,3.607 0.295,3.571 0.295,3.497 0.295,3.781 0.295,4.687 0.294,6.169 0.295,7.92 0.295,9.376 0.294,9.665 0.295,7.844 0.295,3.704 0.295,-1.633 0.295,-6.382 0.294,-9.357 0.295,-10.384 0.295,-9.942 0.295,-8.702 0.294,-7.221 0.295,-5.826 0.295,-4.647 0.294,-3.704 0.295,-2.966 0.295,-2.394 0.295,-1.951 0.295,-1.604 0.294,-1.331 0.295,-1.116 0.295,-0.943 0.294,-0.802 0.295,-0.689 0.295,-0.595 0.295,-0.517 0.294,-0.453 0.295,-0.397 0.59,-0.664 0.589,-0.528 0.295,-0.224 0.589,-0.385 0.59,-0.318 0.884,-0.381 0.59,-0.206 0.294,-0.091 0.59,-0.163 0.59,-0.141 0.884,-0.179 0.589,-0.1 0.884,-0.13 0.295,-0.039 0.59,-0.07 0.589,-0.063 0.884,-0.083 0.59,-0.049 0.884,-0.065 0.59,-0.038 0.884,-0.052 0.589,-0.03 0.885,-0.042 0.589,-0.025 0.884,-0.034 0.885,-0.031 0.589,-0.018 0.885,-0.025 0.589,-0.016 0.884,-0.021 0.59,-0.013 0.884,-0.018 0.589,-0.011 0.885,-0.015 0.589,-0.009 0.295,-0.004 0.59,-0.009 0.884,-0.011 0.589,-0.007 0.885,-0.01 0.589,-0.006 0.884,-0.008 0.59,-0.005 0.884,-0.006 0.59,-0.004 0.884,-0.005 0.589,-0.003 0.885,-0.003 0.884,-0.002 0.589,-0.002 h 0.885 0.589 l 0.884,0.002 0.59,0.002 0.884,0.005 0.59,0.005 0.884,0.011 0.589,0.01 0.885,0.02 0.884,0.029 0.589,0.029 0.884,0.063 0.59,0.064 0.884,0.158 0.59,0.177 0.589,0.282 0.295,0.198 0.59,0.536 0.884,0.767 0.589,-0.19 0.59,-0.6 0.294,-0.286 0.59,-0.434 0.295,-0.154 0.589,-0.216 0.884,-0.188 0.59,-0.074 0.884,-0.071 0.59,-0.03 0.884,-0.031 0.295,-0.008 0.294,-0.006 0.885,-0.014 0.589,-0.006 0.884,-0.005 0.59,-10e-4 h 0.884 l 0.885,0.003 0.589,0.003 0.884,0.007 0.59,0.005 0.884,0.01 0.589,0.008 0.295,0.004 0.59,0.009 0.589,0.01 0.885,0.016 0.589,0.013 0.884,0.022 0.885,0.024 0.589,0.019 0.884,0.032 0.59,0.024 0.884,0.041 0.59,0.031 0.884,0.055 0.589,0.042 0.885,0.075 0.589,0.059 0.884,0.107 0.885,0.137 0.294,0.054 0.295,0.06 0.884,0.219 0.59,0.193 0.884,0.393 0.59,0.369 0.589,0.504 0.295,0.323 0.294,0.388 0.295,0.47 0.295,0.575 0.295,0.712 0.295,0.888 0.294,1.116 0.295,1.407 0.295,1.763 0.295,2.159 0.294,2.51 0.295,2.628 0.295,2.233 0.294,1.156 0.59,-2.081 0.295,-2.441 0.295,-2.535 0.294,-2.268 0.295,-1.875 0.295,-1.493 0.294,-1.167 0.295,-0.907 0.295,-0.704 0.295,-0.545 0.295,-0.422 0.884,-0.751 0.589,-0.214 0.884,-0.032 0.59,0.136 0.59,0.256 0.294,0.176 0.884,0.751 0.59,0.735 0.59,0.994 0.294,0.624 0.295,0.731 0.295,0.862 0.295,1.02 0.294,1.217 0.295,1.462 0.295,1.772 0.294,2.165 0.295,2.67 0.295,3.324 0.295,4.169 0.295,5.259 0.294,6.634 0.295,8.289 0.295,10.07 0.294,11.534 0.295,11.823 0.295,9.904 0.295,5.435 0.295,-0.501 0.294,-5.987 0.295,-9.651 0.295,-11.19 0.295,-11.032 0.294,-9.855 0.295,-8.281 0.295,-6.723 0.294,-5.374 0.295,-4.279 0.295,-3.417 0.295,-2.75 0.295,-2.232 0.294,-1.828 0.295,-1.513 0.295,-1.262 0.294,-1.062 0.295,-0.902 0.295,-0.772 0.295,-0.664 0.294,-0.575 0.295,-0.502 0.59,-0.828 0.295,-0.344 0.294,-0.305 0.295,-0.273 0.589,-0.465 0.295,-0.199 0.885,-0.492 0.589,-0.261 0.884,-0.316 0.295,-0.089 0.295,-0.082 0.884,-0.213 0.59,-0.118 0.884,-0.148 0.589,-0.083 0.885,-0.104 0.589,-0.058 0.884,-0.073 0.885,-0.056 0.589,-0.03 0.884,-0.034 0.59,-0.014 0.884,-0.01 0.59,0.002 0.884,0.019 0.589,0.026 0.884,0.062 0.59,0.064 0.884,0.144 0.59,0.141 0.884,0.325 0.59,0.337 0.294,0.224 0.59,0.613 0.589,0.952 0.295,0.67 0.295,0.849 0.294,1.069 0.295,1.319 0.295,1.551 0.295,1.657 0.295,1.472 0.294,0.869 0.59,-1.028 0.294,-1.526 0.295,-1.668 0.295,-1.536 0.295,-1.296 0.295,-1.049 0.294,-0.832 0.295,-0.659 0.295,-0.523 0.589,-0.757 0.295,-0.275 0.295,-0.227 0.589,-0.347 0.59,-0.247 0.589,-0.182 0.295,-0.073 0.589,-0.119 0.885,-0.132 0.589,-0.065 0.884,-0.074 0.59,-0.036 0.884,-0.041 0.59,-0.019 0.884,-0.018 0.884,-0.005 0.59,0.005 0.884,0.02 0.589,0.025 0.885,0.063 0.589,0.065 0.885,0.156 0.589,0.168 0.589,0.254 0.295,0.176 0.59,0.502 0.589,0.806 0.295,0.553 0.295,0.65 0.294,0.688 0.295,0.596 0.59,0.239 0.589,-1.109 0.295,-0.69 0.295,-0.622 0.295,-0.519 0.589,-0.748 0.295,-0.262 0.589,-0.376 0.885,-0.338 0.589,-0.141 0.884,-0.141 0.59,-0.066 0.884,-0.072 0.884,-0.051 0.59,-0.026 0.884,-0.032 0.59,-0.017 0.884,-0.021 0.589,-0.012 0.885,-0.015 0.589,-0.009 0.884,-0.012 0.59,-0.006 0.884,-0.009 0.884,-0.008 0.59,-0.005 0.884,-0.006 0.589,-0.004 0.885,-0.005 0.589,-0.003 0.884,-0.005 0.59,-0.003 0.884,-0.004 0.59,-0.002 0.884,-0.003 0.884,-0.004 0.59,-10e-4 0.884,-0.003 0.589,-0.002 0.885,-0.003 0.589,-10e-4 0.884,-0.002 0.59,-0.002 0.884,-0.002 0.59,-0.001 0.884,-0.002 0.884,-0.002 0.59,-10e-4 0.884,-0.002 0.589,-10e-4 0.885,-0.001 0.589,-10e-4 0.885,-0.002 0.589,-10e-4 0.884,-10e-4 0.59,-0.001 0.884,-10e-4 0.884,-10e-4 0.59,-0.001 0.884,-10e-4 0.59,-10e-4 0.884,-0.001 0.589,-10e-4 h 0.295"
           style="fill:none;stroke:#ff0000;stroke-width:2;stroke-linecap:butt;stroke-linejoin:miter;stroke-miterlimit:10;stroke-dasharray:none;stroke-opacity:1"
           id="path32" /></g></g><g
       id="g34"><g
         id="g36"
         clip-path="url(#clipPath40)"><path
           d="m 60,40.102 0.59,0.014 0.589,0.009 0.884,0.016 0.59,0.011 0.884,0.017 0.59,0.012 0.884,0.019 0.884,0.02 0.59,0.015 0.884,0.023 0.589,0.016 0.885,0.026 0.589,0.018 0.884,0.029 0.59,0.021 0.884,0.033 0.59,0.024 0.884,0.038 0.884,0.042 0.59,0.03 0.884,0.048 0.589,0.035 0.884,0.057 0.59,0.041 0.884,0.067 0.59,0.048 0.589,0.053 0.295,0.027 0.59,0.059 0.884,0.096 0.884,0.109 0.589,0.081 0.885,0.135 0.589,0.1 0.884,0.17 0.59,0.128 0.884,0.219 0.59,0.167 0.884,0.29 0.589,0.224 0.885,0.397 0.295,0.151 0.589,0.338 0.589,0.392 0.885,0.723 0.589,0.599 0.295,0.344 0.59,0.802 0.294,0.469 0.295,0.525 0.295,0.59 0.294,0.666 0.295,0.758 0.295,0.866 0.295,0.998 0.295,1.159 0.294,1.356 0.295,1.6 0.295,1.907 0.294,2.295 0.295,2.791 0.295,3.429 0.295,4.252 0.294,5.309 0.295,6.644 0.295,8.254 0.295,10.006 0.295,11.487 0.294,11.868 0.295,10.092 0.295,5.707 0.589,-5.861 0.295,-8.912 0.295,-9.805 0.295,-8.971 0.294,-7.279 0.295,-5.361 0.295,-3.526 0.294,-1.858 0.295,-0.328 0.295,1.139 0.295,2.641 0.294,4.277 0.295,6.162 0.295,8.408 0.295,11.105 0.295,14.246 0.294,17.571 0.295,20.325 0.295,21.127 0.294,18.494 0.295,12.18 0.295,3.948 0.295,-3.691 0.295,-9.26 0.294,-12.644 0.295,-14.381 0.295,-15.059 0.294,-15.089 0.295,-14.69 0.295,-13.948 0.295,-12.873 0.295,-11.492 0.294,-9.914 0.295,-8.31 0.295,-6.837 0.295,-5.578 0.294,-4.549 0.295,-3.727 0.295,-3.073 0.294,-2.553 0.295,-2.137 0.295,-1.801 0.295,-1.525 0.295,-1.297 0.294,-1.105 0.295,-0.943 0.295,-0.801 0.294,-0.676 0.59,-1.021 0.295,-0.356 0.295,-0.257 0.884,-0.108 0.589,0.639 0.295,0.624 0.295,0.892 0.294,1.22 0.295,1.602 0.295,1.995 0.295,2.276 0.295,2.217 0.294,1.563 0.295,0.295 0.295,-1.158 0.294,-2.215 0.295,-2.621 0.295,-2.523 0.295,-2.188 0.295,-1.803 0.294,-1.452 0.295,-1.164 0.295,-0.937 0.295,-0.761 0.294,-0.624 0.295,-0.518 0.295,-0.434 0.294,-0.369 0.295,-0.315 0.59,-0.512 0.295,-0.21 0.294,-0.186 0.884,-0.449 0.59,-0.233 0.884,-0.282 0.59,-0.155 0.589,-0.133 0.295,-0.06 0.589,-0.11 0.885,-0.141 0.884,-0.119 0.589,-0.069 0.885,-0.091 0.589,-0.053 0.885,-0.07 0.589,-0.041 0.884,-0.054 0.59,-0.031 0.884,-0.039 0.589,-0.022 0.885,-0.025 0.589,-0.011 0.885,-0.008 0.884,0.004 0.589,0.012 0.885,0.035 0.589,0.039 0.884,0.092 0.59,0.094 0.884,0.223 0.59,0.235 0.589,0.353 0.295,0.242 0.589,0.685 0.295,0.486 0.59,1.389 0.294,0.946 0.295,1.091 0.295,1.116 0.294,0.9 0.295,0.385 0.59,-1.133 0.295,-1.111 0.294,-1.116 0.295,-0.985 0.295,-0.812 0.589,-1.167 0.295,-0.409 0.295,-0.326 0.589,-0.475 0.295,-0.175 0.59,-0.267 0.589,-0.189 0.295,-0.075 0.589,-0.122 0.884,-0.132 0.885,-0.095 0.589,-0.048 0.884,-0.059 0.59,-0.031 0.884,-0.04 0.59,-0.022 0.884,-0.028 0.59,-0.017 0.884,-0.022 0.589,-0.012 0.884,-0.018 0.885,-0.015 0.589,-0.009 0.884,-0.012 0.59,-0.008 0.884,-0.01 0.59,-0.007 0.884,-0.009 0.589,-0.006 0.885,-0.007 0.589,-0.005 0.884,-0.007 0.885,-0.006 0.589,-0.004 0.885,-0.006 0.589,-0.003 0.884,-0.005 0.59,-0.004 0.884,-0.004 0.589,-0.003 0.885,-0.004 0.589,-0.002 0.885,-0.004 0.884,-0.003 0.589,-0.002 0.885,-0.003 0.589,-0.001 0.884,-0.003 0.59,-10e-4 0.884,-0.002 0.59,-10e-4 0.884,-0.002 h 0.589 l 0.885,-10e-4 0.884,-10e-4 h 0.589 l 0.885,10e-4 h 0.589 l 0.884,0.002 0.59,0.002 0.884,0.003 0.59,0.003 0.884,0.007 0.589,0.006 0.885,0.013 0.884,0.02 0.589,0.02 0.884,0.045 0.59,0.049 0.59,0.073 0.294,0.052 0.59,0.146 0.884,0.377 0.295,0.154 0.295,0.13 0.884,-0.058 0.295,-0.145 0.294,-0.151 0.884,-0.344 0.59,-0.133 0.59,-0.083 0.294,-0.03 0.884,-0.061 0.59,-0.025 0.884,-0.025 0.59,-0.011 0.884,-0.012 0.589,-0.006 0.885,-0.005 0.589,-0.002 0.884,-0.002 h 0.59 0.884 l 0.885,0.002 0.589,0.002 0.884,0.005 0.59,0.003 0.884,0.006 0.589,0.006 0.885,0.009 0.589,0.008 0.885,0.013 0.589,0.011 0.884,0.019 0.885,0.024 0.589,0.02 0.884,0.037 0.59,0.031 0.294,0.018 0.59,0.042 0.59,0.051 0.884,0.103 0.589,0.093 0.885,0.199 0.589,0.195 0.295,0.125 0.589,0.329 0.59,0.49 0.295,0.337 0.294,0.421 0.295,0.533 0.295,0.673 0.295,0.847 0.294,1.041 0.295,1.218 0.295,1.284 0.294,1.104 0.59,0.417 0.295,-0.849 0.295,-1.22 0.294,-1.276 0.295,-1.148 0.295,-0.955 0.294,-0.768 0.295,-0.607 0.295,-0.481 0.59,-0.686 0.294,-0.247 0.295,-0.201 0.884,-0.418 0.884,-0.251 0.59,-0.115 0.884,-0.123 0.59,-0.06 0.884,-0.068 0.59,-0.035 0.294,-0.014 0.59,-0.026 0.589,-0.021 0.884,-0.026 0.59,-0.013 0.884,-0.017 0.884,-0.012 0.59,-0.007 0.884,-0.007 0.59,-0.004 0.884,-0.004 0.589,-0.002 0.885,-0.002 h 0.589 l 0.884,0.001 0.59,10e-4 0.884,0.003 0.885,0.005 0.589,0.003 0.884,0.007 0.59,0.005 0.884,0.01 0.589,0.007 0.885,0.012 0.589,0.01 0.885,0.016 0.589,0.013 0.884,0.022 0.885,0.026 0.589,0.02 0.884,0.035 0.59,0.028 0.884,0.05 0.59,0.04 0.884,0.073 0.589,0.06 0.885,0.114 0.589,0.098 0.884,0.192 0.295,0.081 0.59,0.197 0.589,0.26 0.59,0.353 0.294,0.225 0.59,0.591 0.589,0.873 0.295,0.596 0.295,0.746 0.295,0.939 0.294,1.187 0.295,1.492 0.295,1.841 0.294,2.169 0.295,2.323 0.295,2.066 0.295,1.208 0.294,-0.113 0.295,-1.38 0.295,-2.128 0.295,-2.291 0.295,-2.09 0.294,-1.749 0.295,-1.405 0.295,-1.107 0.294,-0.867 0.295,-0.679 0.295,-0.532 0.59,-0.743 0.294,-0.25 0.59,-0.316 0.884,-0.085 0.589,0.152 0.885,0.059 0.295,-0.135 0.294,-0.179 0.884,-0.464 0.295,-0.095 0.295,-0.066 0.884,-0.071 0.59,0.034 0.884,0.156 0.884,0.294 0.59,0.296 0.295,0.187 0.589,0.48 0.295,0.307 0.294,0.365 0.295,0.437 0.59,1.169 0.295,0.786 0.294,0.974 0.295,1.215 0.295,1.53 0.294,1.935 0.295,2.444 0.295,3.052 0.295,3.688 0.295,4.163 0.294,4.106 0.295,3.087 0.295,1.026 0.295,-1.438 0.294,-3.33 0.295,-4.152 0.295,-4.087 0.294,-3.567 0.295,-2.929 0.295,-2.338 0.295,-1.846 0.295,-1.459 0.294,-1.157 0.295,-0.926 0.295,-0.745 0.294,-0.607 0.59,-0.904 0.295,-0.339 0.294,-0.282 0.295,-0.235 0.885,-0.495 0.589,-0.201 0.884,-0.162 0.59,-0.032 0.884,0.06 0.884,0.198 0.59,0.227 0.884,0.539 0.295,0.252 0.295,0.3 0.589,0.785 0.295,0.516 0.294,0.626 0.295,0.765 0.295,0.941 0.295,1.171 0.295,1.465 0.294,1.85 0.295,2.342 0.295,2.961 0.294,3.688 0.295,4.434 0.295,4.946 0.295,4.773 0.295,3.431 0.294,0.913 0.295,-1.957 0.295,-4.076 0.295,-4.946 0.294,-4.816 0.295,-4.187 0.295,-3.436 0.294,-2.745 0.295,-2.174 0.295,-1.723 0.295,-1.374 0.295,-1.105 0.294,-0.897 0.295,-0.736 0.295,-0.609 0.294,-0.509 0.295,-0.428 0.295,-0.365 0.59,-0.581 0.294,-0.233 0.295,-0.204 0.884,-0.477 0.59,-0.236 0.884,-0.273 0.884,-0.204 0.59,-0.109 0.884,-0.133 0.589,-0.073 0.885,-0.092 0.589,-0.051 0.884,-0.067 0.59,-0.038 0.884,-0.049 0.59,-0.029 0.884,-0.038 0.884,-0.032 0.59,-0.02 0.884,-0.026 0.589,-0.016 0.885,-0.021 0.589,-0.013 0.884,-0.017 0.59,-0.011 0.884,-0.014 0.59,-0.009 0.884,-0.012 0.884,-0.012 0.59,-0.007 0.884,-0.009 0.589,-0.006 0.885,-0.008 0.589,-0.006 0.885,-0.007 0.589,-0.004 0.884,-0.007 0.59,-0.004 0.884,-0.005 0.884,-0.006 0.59,-0.003 0.884,-0.005 0.59,-0.003 0.884,-0.004 0.589,-0.002 h 0.295"
           style="fill:none;stroke:#00ff00;stroke-width:2;stroke-linecap:butt;stroke-linejoin:miter;stroke-miterlimit:10;stroke-dasharray:none;stroke-opacity:1"
           id="path42" /></g></g><g
       id="g44"><g
         id="g46"
         clip-path="url(#clipPath50)"><path
           d="m 60,39.953 0.59,0.008 0.589,0.005 0.884,0.008 0.59,0.006 0.884,0.01 0.59,0.006 0.884,0.01 0.884,0.011 0.59,0.008 0.884,0.013 0.589,0.009 0.885,0.014 0.589,0.01 0.884,0.016 0.59,0.011 0.884,0.019 0.59,0.013 0.884,0.022 0.884,0.023 0.59,0.017 0.884,0.028 0.589,0.02 0.884,0.033 0.59,0.024 0.884,0.039 0.59,0.029 0.884,0.048 0.59,0.036 0.884,0.059 0.884,0.068 0.589,0.05 0.885,0.086 0.589,0.065 0.884,0.112 0.59,0.086 0.884,0.149 0.59,0.115 0.884,0.205 0.589,0.163 0.295,0.09 0.59,0.203 0.884,0.372 0.295,0.147 0.294,0.16 0.885,0.581 0.589,0.495 0.295,0.29 0.59,0.688 0.589,0.875 0.589,1.133 0.295,0.697 0.295,0.807 0.295,0.941 0.295,1.107 0.294,1.31 0.295,1.565 0.295,1.887 0.294,2.296 0.295,2.82 0.295,3.498 0.295,4.377 0.294,5.51 0.295,6.947 0.295,8.695 0.295,10.627 0.295,12.326 0.294,12.945 0.295,11.366 0.295,7.027 0.294,0.833 0.295,-5.247 0.295,-9.615 0.295,-11.775 0.295,-12.042 0.294,-11.052 0.295,-9.462 0.295,-7.766 0.294,-6.239 0.295,-4.972 0.295,-3.968 0.295,-3.183 0.294,-2.575 0.295,-2.102 0.295,-1.732 0.295,-1.44 0.295,-1.208 0.294,-1.02 0.295,-0.869 0.295,-0.745 0.294,-0.643 0.295,-0.557 0.295,-0.486 0.295,-0.426 0.295,-0.374 0.294,-0.33 0.59,-0.552 0.589,-0.435 0.59,-0.346 0.295,-0.144 0.589,-0.241 0.884,-0.26 0.295,-0.062 0.295,-0.051 0.884,-0.085 0.59,0.004 0.884,0.117 0.294,0.075 0.59,0.226 0.59,0.362 0.294,0.251 0.59,0.71 0.589,1.13 0.295,0.804 0.295,1.024 0.294,1.302 0.295,1.627 0.295,1.961 0.295,2.186 0.295,2.097 0.294,1.468 0.59,-0.692 0.294,-1.903 0.295,-2.23 0.295,-2.123 0.295,-1.822 0.295,-1.486 0.294,-1.183 0.295,-0.938 0.295,-0.743 0.295,-0.595 0.589,-0.869 0.589,-0.587 0.295,-0.223 0.59,-0.349 0.589,-0.256 0.884,-0.271 0.59,-0.13 0.884,-0.146 0.59,-0.073 0.884,-0.083 0.589,-0.041 0.885,-0.047 0.884,-0.032 0.589,-0.015 0.885,-0.012 0.589,-0.003 0.885,0.002 0.589,0.007 0.884,0.017 0.59,0.017 0.884,0.032 0.589,0.028 0.885,0.052 0.295,0.02 0.294,0.022 0.885,0.079 0.884,0.104 0.589,0.089 0.885,0.176 0.589,0.16 0.589,0.216 0.295,0.137 0.59,0.364 0.294,0.243 0.59,0.674 0.59,1.027 0.294,0.658 0.295,0.699 0.295,0.619 0.589,0.352 0.59,-0.93 0.295,-0.597 0.294,-0.531 0.59,-0.759 0.589,-0.415 0.59,-0.188 0.295,-0.036 0.589,0.014 0.59,0.1 0.294,0.078 0.59,0.204 0.884,0.431 0.295,0.178 0.295,0.197 0.589,0.458 0.295,0.265 0.589,0.616 0.59,0.752 0.294,0.44 0.295,0.489 0.295,0.545 0.295,0.612 0.589,1.465 0.295,0.881 0.295,1.004 0.294,1.151 0.295,1.326 0.295,1.539 0.295,1.796 0.295,2.112 0.294,2.505 0.295,2.996 0.295,3.614 0.294,4.404 0.295,5.415 0.295,6.72 0.295,8.405 0.295,10.559 0.294,13.238 0.295,16.366 0.295,19.546 0.295,21.797 0.294,21.561 0.295,17.51 0.295,9.998 0.294,1.296 0.295,-6.154 0.295,-11.268 0.295,-14.207 0.295,-15.584 0.294,-15.957 0.295,-15.669 0.295,-14.887 0.294,-13.68 0.295,-12.124 0.295,-10.377 0.295,-8.638 0.295,-7.069 0.294,-5.748 0.295,-4.676 0.295,-3.826 0.295,-3.155 0.294,-2.624 0.295,-2.202 0.295,-1.863 0.294,-1.589 0.295,-1.366 0.295,-1.183 0.295,-1.029 0.295,-0.903 0.294,-0.794 0.295,-0.704 0.589,-1.186 0.295,-0.502 0.59,-0.861 0.589,-0.707 0.59,-0.588 0.295,-0.258 0.589,-0.455 0.884,-0.561 0.295,-0.161 0.295,-0.15 0.884,-0.39 0.589,-0.221 0.885,-0.283 0.589,-0.162 0.885,-0.212 0.294,-0.063 0.59,-0.117 0.589,-0.105 0.885,-0.139 0.589,-0.082 0.884,-0.111 0.59,-0.065 0.884,-0.088 0.295,-0.027 0.295,-0.026 0.884,-0.072 0.589,-0.043 0.885,-0.059 0.884,-0.052 0.589,-0.031 0.885,-0.042 0.589,-0.026 0.884,-0.034 0.59,-0.021 0.884,-0.026 0.59,-0.016 0.884,-0.018 0.589,-0.01 0.885,-0.008 0.884,0.002 0.589,0.009 0.884,0.032 0.59,0.042 0.884,0.119 0.59,0.148 0.589,0.238 0.295,0.156 0.59,0.317 0.884,0.024 0.589,-0.292 0.59,-0.308 0.294,-0.125 0.59,-0.185 0.884,-0.162 0.884,-0.088 0.59,-0.038 0.884,-0.04 0.59,-0.018 0.884,-0.021 0.589,-0.01 0.885,-0.012 0.589,-0.006 0.884,-0.006 0.59,-0.003 0.884,-0.003 h 0.885 0.589 l 0.884,0.003 0.59,0.003 0.884,0.006 0.589,0.005 0.885,0.01 0.589,0.008 0.885,0.014 0.589,0.012 0.884,0.022 0.885,0.027 0.589,0.022 0.884,0.041 0.59,0.033 0.884,0.064 0.59,0.054 0.884,0.106 0.589,0.096 0.885,0.2 0.294,0.089 0.295,0.104 0.884,0.446 0.295,0.214 0.59,0.588 0.294,0.406 0.295,0.513 0.295,0.646 0.295,0.812 0.294,0.997 0.295,1.164 0.295,1.227 0.294,1.054 0.59,0.402 0.295,-0.801 0.295,-1.151 0.294,-1.202 0.295,-1.078 0.295,-0.896 0.294,-0.716 0.295,-0.565 0.295,-0.443 0.295,-0.349 0.295,-0.276 0.589,-0.396 0.295,-0.142 0.589,-0.207 0.884,-0.182 0.59,-0.066 0.884,-0.043 h 0.59 l 0.884,0.034 0.59,0.043 0.884,0.097 0.589,0.087 0.884,0.168 0.59,0.141 0.295,0.082 0.589,0.188 0.884,0.358 0.59,0.306 0.884,0.597 0.295,0.248 0.295,0.279 0.295,0.314 0.589,0.762 0.589,1 0.295,0.619 0.295,0.722 0.295,0.848 0.295,1.003 0.294,1.196 0.295,1.438 0.295,1.747 0.294,2.142 0.295,2.651 0.295,3.31 0.295,4.165 0.295,5.258 0.294,6.613 0.295,8.174 0.295,9.699 0.295,10.603 0.294,9.962 0.295,7.001 0.295,2.008 0.294,-3.462 0.295,-7.68 0.295,-9.851 0.295,-10.158 0.295,-9.267 0.294,-7.859 0.295,-6.399 0.295,-5.114 0.294,-4.064 0.295,-3.238 0.295,-2.597 0.295,-2.1 0.294,-1.715 0.295,-1.414 0.295,-1.176 0.295,-0.987 0.295,-0.836 0.294,-0.712 0.295,-0.612 0.295,-0.529 0.589,-0.863 0.59,-0.667 0.295,-0.277 0.294,-0.248 0.295,-0.221 0.884,-0.54 0.59,-0.281 0.884,-0.334 0.295,-0.094 0.295,-0.085 0.884,-0.219 0.589,-0.12 0.885,-0.148 0.589,-0.081 0.589,-0.07 0.295,-0.032 0.885,-0.079 0.589,-0.043 0.884,-0.05 0.59,-0.025 0.884,-0.024 0.59,-0.007 0.884,0.004 0.589,0.015 0.884,0.043 0.59,0.047 0.884,0.109 0.59,0.108 0.884,0.248 0.884,0.422 0.295,0.202 0.295,0.249 0.589,0.684 0.295,0.469 0.589,1.274 0.295,0.822 0.295,0.941 0.295,1.067 0.295,1.215 0.294,1.353 0.295,1.357 0.295,1.041 0.294,0.332 0.295,-0.564 0.295,-1.274 0.295,-1.585 0.295,-1.558 0.294,-1.361 0.295,-1.117 0.295,-0.894 0.294,-0.708 0.295,-0.561 0.295,-0.448 0.295,-0.361 0.589,-0.532 0.295,-0.199 0.295,-0.166 0.884,-0.361 0.295,-0.087 0.294,-0.076 0.885,-0.174 0.589,-0.084 0.884,-0.094 0.59,-0.046 0.884,-0.052 0.59,-0.024 0.884,-0.023 0.884,-0.01 0.59,0.003 0.884,0.017 0.589,0.023 0.885,0.059 0.589,0.062 0.885,0.146 0.589,0.155 0.589,0.231 0.295,0.159 0.59,0.447 0.295,0.317 0.589,0.906 0.295,0.622 0.294,0.726 0.295,0.761 0.295,0.646 0.295,0.328 0.589,-0.646 0.295,-0.735 0.295,-0.762 0.295,-0.681 0.589,-1.021 0.295,-0.361 0.294,-0.286 0.295,-0.227 0.59,-0.33 0.295,-0.121 0.589,-0.183 0.884,-0.181 0.59,-0.082 0.884,-0.089 0.59,-0.043 0.294,-0.019 0.59,-0.032 0.884,-0.038 0.59,-0.02 0.884,-0.025 0.589,-0.014 0.885,-0.017 0.589,-0.01 0.884,-0.013 0.59,-0.008 0.884,-0.01 0.884,-0.008 0.59,-0.005 0.884,-0.008 0.589,-0.004 0.885,-0.006 0.589,-0.003 0.884,-0.005 0.59,-0.003 0.884,-0.004 0.59,-0.003 0.884,-0.004 0.884,-0.003 0.59,-0.002 0.884,-0.003 0.589,-0.002 0.885,-0.003 0.589,-10e-4 0.884,-0.003 0.59,-0.001 0.884,-0.002 0.59,-0.002 0.884,-0.002 0.884,-0.002 0.59,-0.001 0.884,-0.002 0.589,-0.001 0.885,-10e-4 0.589,-10e-4 0.885,-0.002 0.589,-10e-4 0.884,-0.001 0.59,-10e-4 0.884,-10e-4 0.884,-0.002 h 0.59 l 0.884,-0.002 h 0.59 l 0.884,-10e-4 0.589,-10e-4 h 0.295"
           style="fill:none;stroke:#0000ff;stroke-width:2;stroke-linecap:butt;stroke-linejoin:miter;stroke-miterlimit:10;stroke-dasharray:none;stroke-opacity:1"
           id="path52" /></g></g><g
       id="g54"><g
         id="g56"
         clip-path="url(#clipPath60)"><path
           d="m 60,39.925 0.59,0.005 0.589,0.003 0.884,0.005 0.59,0.004 0.884,0.005 0.59,0.004 0.884,0.006 0.884,0.006 0.59,0.005 0.884,0.006 0.589,0.005 0.885,0.007 0.589,0.005 0.884,0.008 0.59,0.006 0.884,0.009 0.59,0.006 0.884,0.009 0.884,0.01 0.59,0.007 0.884,0.011 0.589,0.008 0.884,0.012 0.59,0.008 0.884,0.014 0.59,0.009 0.884,0.015 0.295,0.005 0.295,0.005 0.884,0.017 0.884,0.018 0.589,0.012 0.885,0.02 0.589,0.015 0.884,0.022 0.59,0.016 0.884,0.026 0.59,0.019 0.884,0.029 0.589,0.022 0.885,0.034 0.884,0.038 0.589,0.027 0.885,0.044 0.589,0.032 0.885,0.053 0.589,0.039 0.884,0.064 0.59,0.047 0.884,0.079 0.589,0.059 0.295,0.032 0.59,0.068 0.884,0.115 0.59,0.088 0.884,0.153 0.589,0.119 0.885,0.211 0.589,0.167 0.884,0.306 0.59,0.252 0.884,0.479 0.59,0.412 0.884,0.831 0.589,0.763 0.295,0.472 0.295,0.551 0.295,0.647 0.294,0.768 0.295,0.92 0.295,1.112 0.294,1.36 0.295,1.679 0.295,2.092 0.295,2.629 0.295,3.311 0.294,4.148 0.295,5.092 0.295,5.955 0.295,6.318 0.294,5.555 0.295,3.231 0.295,-0.235 0.294,-3.551 0.295,-5.576 0.295,-6.102 0.295,-5.631 0.295,-4.745 0.294,-3.814 0.295,-2.997 0.295,-2.334 0.294,-1.812 0.295,-1.406 0.295,-1.088 0.295,-0.838 0.295,-0.639 0.294,-0.477 0.295,-0.343 0.295,-0.23 0.589,-0.173 0.884,0.344 0.295,0.267 0.295,0.344 0.295,0.428 0.589,1.14 0.295,0.737 0.295,0.869 0.294,1.027 0.295,1.213 0.295,1.44 0.295,1.716 0.295,2.06 0.294,2.491 0.295,3.037 0.295,3.734 0.295,4.627 0.294,5.764 0.295,7.179 0.295,8.847 0.294,10.579 0.295,11.876 0.295,11.85 0.295,9.589 0.295,5.118 0.294,-0.027 0.295,-3.766 0.295,-4.977 0.294,-3.849 0.295,-1.177 0.295,2.329 0.295,6.233 0.294,10.217 0.295,13.736 0.295,15.772 0.295,14.98 0.295,10.7 0.294,3.976 0.295,-2.971 0.295,-8.418 0.294,-11.906 0.295,-13.767 0.295,-14.502 0.295,-14.486 0.295,-13.922 0.294,-12.905 0.295,-11.519 0.295,-9.915 0.294,-8.289 0.295,-6.805 0.295,-5.544 0.295,-4.52 0.295,-3.703 0.294,-3.058 0.295,-2.548 0.295,-2.141 0.295,-1.815 0.294,-1.551 0.295,-1.334 0.295,-1.157 0.294,-1.009 0.295,-0.885 0.295,-0.78 0.295,-0.691 0.589,-1.163 0.295,-0.492 0.589,-0.839 0.59,-0.684 0.295,-0.294 0.295,-0.266 0.294,-0.24 0.59,-0.416 0.295,-0.177 0.884,-0.427 0.589,-0.204 0.885,-0.188 0.589,-0.041 0.884,0.096 0.59,0.205 0.294,0.16 0.59,0.481 0.295,0.347 0.295,0.445 0.294,0.569 0.295,0.729 0.295,0.936 0.294,1.201 0.295,1.53 0.295,1.912 0.295,2.29 0.295,2.517 0.294,2.341 0.295,1.523 0.295,0.127 0.294,-1.336 0.295,-2.297 0.295,-2.596 0.295,-2.432 0.295,-2.074 0.294,-1.686 0.295,-1.345 0.295,-1.069 0.295,-0.851 0.294,-0.684 0.59,-1.01 0.589,-0.693 0.295,-0.267 0.59,-0.423 0.884,-0.449 0.589,-0.22 0.884,-0.251 0.885,-0.188 0.589,-0.102 0.884,-0.126 0.59,-0.071 0.884,-0.09 0.59,-0.052 0.884,-0.068 0.59,-0.041 0.884,-0.053 0.589,-0.032 0.884,-0.043 0.885,-0.039 0.589,-0.023 0.884,-0.032 0.59,-0.019 0.884,-0.027 0.59,-0.017 0.884,-0.023 0.589,-0.015 0.885,-0.02 0.589,-0.012 0.884,-0.018 0.885,-0.016 0.589,-0.01 0.885,-0.014 0.589,-0.009 0.295,-0.004 0.589,-0.009 0.59,-0.007 0.884,-0.012 0.589,-0.006 0.885,-0.01 0.589,-0.006 0.885,-0.009 0.884,-0.008 0.589,-0.005 0.885,-0.007 0.589,-0.005 0.884,-0.006 0.59,-0.004 0.884,-0.005 0.59,-0.003 0.884,-0.005 0.589,-0.002 0.885,-0.004 0.884,-0.002 0.589,-0.002 0.885,-10e-4 0.589,-0.001 h 0.884 l 0.59,0.001 0.884,0.003 0.59,0.003 0.884,0.006 0.589,0.006 0.885,0.014 0.884,0.022 0.589,0.021 0.884,0.05 0.59,0.052 0.884,0.135 0.59,0.157 0.884,0.417 0.59,0.373 0.884,0.103 0.589,-0.339 0.295,-0.183 0.589,-0.291 0.59,-0.188 0.884,-0.16 0.884,-0.085 0.59,-0.035 0.884,-0.034 0.59,-0.016 0.884,-0.016 0.589,-0.007 0.885,-0.007 0.589,-0.003 0.884,-0.003 0.59,-10e-4 0.884,10e-4 0.885,0.002 0.589,0.002 0.884,0.004 0.59,0.004 0.884,0.007 0.589,0.006 0.885,0.01 0.589,0.007 0.885,0.014 0.589,0.011 0.884,0.019 0.885,0.023 0.589,0.018 0.884,0.033 0.59,0.026 0.884,0.049 0.59,0.04 0.884,0.077 0.589,0.066 0.885,0.131 0.589,0.118 0.884,0.251 0.885,0.4 0.589,0.413 0.884,1.032 0.295,0.526 0.295,0.664 0.294,0.839 0.295,1.054 0.295,1.293 0.295,1.504 0.295,1.571 0.294,1.325 0.295,0.664 0.295,-0.263 0.294,-1.077 0.295,-1.504 0.295,-1.554 0.295,-1.388 0.295,-1.151 0.294,-0.923 0.295,-0.73 0.295,-0.576 0.589,-0.822 0.884,-0.729 0.59,-0.297 0.884,-0.29 0.295,-0.069 0.295,-0.059 0.884,-0.132 0.59,-0.061 0.884,-0.061 0.589,-0.026 0.884,-0.024 0.59,-0.006 0.884,0.001 0.884,0.014 0.59,0.015 0.884,0.033 0.59,0.028 0.884,0.052 0.589,0.043 0.885,0.078 0.589,0.062 0.884,0.112 0.59,0.089 0.884,0.163 0.885,0.205 0.589,0.168 0.589,0.201 0.295,0.115 0.59,0.265 0.589,0.324 0.295,0.189 0.589,0.449 0.295,0.267 0.59,0.643 0.589,0.84 0.59,1.12 0.295,0.705 0.294,0.832 0.295,0.988 0.295,1.185 0.294,1.434 0.295,1.752 0.295,2.162 0.295,2.691 0.295,3.379 0.294,4.264 0.295,5.379 0.295,6.708 0.294,8.113 0.295,9.197 0.295,9.217 0.295,7.32 0.295,3.313 0.294,-1.725 0.295,-6.054 0.295,-8.543 0.295,-9.142 0.294,-8.466 0.295,-7.218 0.295,-5.884 0.294,-4.698 0.295,-3.726 0.295,-2.963 0.295,-2.37 0.295,-1.912 0.294,-1.557 0.295,-1.28 0.295,-1.062 0.294,-0.889 0.295,-0.749 0.295,-0.637 0.295,-0.545 0.295,-0.469 0.294,-0.406 0.295,-0.353 0.295,-0.309 0.589,-0.51 0.59,-0.397 0.884,-0.443 0.59,-0.218 0.884,-0.24 0.589,-0.113 0.59,-0.078 0.294,-0.028 0.59,-0.031 0.884,0.014 0.59,0.057 0.884,0.178 0.884,0.342 0.59,0.374 0.884,0.939 0.295,0.459 0.294,0.548 0.295,0.629 0.295,0.689 0.295,0.726 0.295,0.777 0.294,0.906 0.295,1.149 0.295,1.508 0.294,1.946 0.295,2.385 0.295,2.66 0.295,2.49 0.295,1.618 0.294,0.116 0.295,-1.465 0.295,-2.503 0.294,-2.822 0.295,-2.641 0.295,-2.247 0.295,-1.824 0.295,-1.451 0.294,-1.149 0.295,-0.913 0.295,-0.73 0.295,-0.589 0.589,-0.875 0.589,-0.602 0.885,-0.598 0.295,-0.146 0.294,-0.127 0.884,-0.291 0.59,-0.14 0.59,-0.11 0.294,-0.046 0.59,-0.076 0.884,-0.083 0.884,-0.051 0.59,-0.018 0.884,-0.004 0.589,0.014 0.885,0.052 0.589,0.062 0.885,0.153 0.294,0.073 0.295,0.088 0.884,0.394 0.59,0.435 0.589,0.68 0.295,0.48 0.295,0.608 0.294,0.77 0.295,0.955 0.295,1.138 0.295,1.241 0.295,1.141 0.294,0.72 0.295,0.025 0.295,-0.683 0.295,-1.13 0.294,-1.252 0.295,-1.159 0.295,-0.981 0.294,-0.793 0.295,-0.631 0.59,-0.895 0.295,-0.317 0.294,-0.257 0.295,-0.209 0.884,-0.436 0.59,-0.189 0.884,-0.197 0.884,-0.132 0.59,-0.066 0.884,-0.076 0.59,-0.041 0.589,-0.033 0.295,-0.015 0.589,-0.026 0.885,-0.034 0.589,-0.018 0.884,-0.024 0.59,-0.014 0.884,-0.018 0.884,-0.015 0.59,-0.009 0.884,-0.013 0.589,-0.007 0.885,-0.01 0.589,-0.006 0.884,-0.008 0.59,-0.005 0.884,-0.007 0.59,-0.004 0.884,-0.006 0.884,-0.006 0.59,-0.003 0.884,-0.005 0.589,-0.003 0.885,-0.004 0.589,-0.003 0.884,-0.003 0.59,-0.003 0.884,-0.003 0.59,-0.002 0.884,-0.003 0.884,-0.003 0.59,-0.002 0.884,-0.002 0.589,-0.002 0.885,-0.002 0.589,-0.002 0.885,-0.002 0.589,-10e-4 0.884,-0.002 0.59,-0.002 0.884,-0.001 0.884,-0.002 0.59,-0.001 0.884,-0.002 0.59,-0.001 0.884,-10e-4 0.589,-10e-4 h 0.295"
           style="fill:none;stroke:#00ffff;stroke-width:2;stroke-linecap:butt;stroke-linejoin:miter;stroke-miterlimit:10;stroke-dasharray:none;stroke-opacity:1"
           id="path62" /></g></g><g
       id="g64"><path
         d="m 11.25,62.016 v 1.371 H 5.566 l 0.153,-0.211 4.347,2.238 v 1.09 L 5.719,68.672 5.59,68.543 h 5.66 v 1.371 H 3.609 v -1.371 l 5.59,-2.848 v 0.668 l -5.59,-2.941 v -1.406 h 7.641 m 0.105,12.726 c 0,1.688 -1.148,2.824 -2.859,2.824 -1.641,0 -2.707,-1.043 -2.707,-2.648 0,-1.699 1.149,-2.824 2.871,-2.824 1.629,0 2.695,1.031 2.695,2.648 m -1.183,0.129 c 0,-0.832 -0.633,-1.359 -1.629,-1.359 -0.961,0 -1.57,0.492 -1.57,1.277 0,0.82 0.656,1.359 1.652,1.359 0.949,0 1.547,-0.492 1.547,-1.277 m 1.16,6.551 c 0,0.34 -0.082,0.726 -0.199,1.019 l -0.938,-0.293 c 0.035,-0.117 0.059,-0.234 0.059,-0.339 0,-0.329 -0.211,-0.504 -0.586,-0.504 H 3.117 v -1.383 h 6.727 c 0.926,0 1.488,0.562 1.488,1.5 m -0.082,5.613 v 0.996 H 8.027 c -1.441,0 -2.238,-0.82 -2.238,-2.402 0,-0.762 0.188,-1.582 0.516,-2.215 l 0.972,0.34 c -0.211,0.551 -0.328,1.09 -0.328,1.582 0,0.855 0.328,1.312 0.973,1.312 h 2.297 l 1.031,0.387 m 0.105,-1.875 c 0,1.184 -0.667,2.028 -1.828,2.297 L 9.316,87 c 0.575,-0.188 0.938,-0.727 0.938,-1.371 0,-0.539 -0.27,-0.902 -0.68,-0.902 -0.515,0 -0.726,0.609 -0.726,2.168 H 8.074 c 0,-2.485 0.516,-3.586 1.699,-3.586 0.961,0 1.582,0.726 1.582,1.851 m -0.105,5.262 v 1.406 H 7.57 L 5.895,91.535 v -1.113 h 5.355 m -3.047,1.137 c -0.656,0.293 -1.043,0.879 -1.043,1.535 0,0.222 0.047,0.48 0.117,0.679 l -1.289,0.329 c -0.093,-0.235 -0.14,-0.516 -0.14,-0.797 0,-0.703 0.375,-1.36 1.019,-1.746 h 1.336 m 3.047,6.316 v 1.512 l -6.914,2.25 v -0.317 l 6.914,2.239 v 1.57 l -7.641,-2.637 v -1.828 l 7.641,-2.789 m -1.91,1.793 v 3.656 L 8.074,103.113 V 99.855 L 9.34,99.668 m 2.015,9.902 c 0,1.5 -1.136,2.508 -2.835,2.508 -1.641,0 -2.731,-0.949 -2.731,-2.355 0,-0.985 0.527,-1.7 1.418,-2.051 l 0.527,0.422 c -0.504,0.199 -0.761,0.644 -0.761,1.172 0,0.867 0.632,1.394 1.64,1.394 0.961,0 1.559,-0.48 1.559,-1.277 0,-0.563 -0.293,-1.02 -0.785,-1.254 l 0.715,-0.481 c 0.82,0.329 1.253,0.985 1.253,1.922 m -0.105,-2.648 v 0.89 l -0.973,0.469 h -7.16 v -1.359 h 8.133 m 0.105,9.258 c 0,1.465 -0.644,2.332 -1.71,2.332 -2.004,0 -1.336,-3.024 -2.239,-3.024 -0.316,0 -0.515,0.375 -0.515,1.032 0,0.445 0.082,0.972 0.222,1.464 l -1.043,0.293 c -0.187,-0.492 -0.281,-1.125 -0.281,-1.722 0,-1.535 0.621,-2.426 1.711,-2.426 1.992,0 1.242,2.988 2.215,2.988 0.34,0 0.551,-0.363 0.551,-0.961 0,-0.515 -0.141,-1.23 -0.364,-1.793 l 1.043,-0.316 c 0.258,0.621 0.41,1.394 0.41,2.133 m 0,6.562 c 0,1.688 -1.148,2.824 -2.859,2.824 -1.641,0 -2.707,-1.043 -2.707,-2.648 0,-1.699 1.149,-2.824 2.871,-2.824 1.629,0 2.695,1.031 2.695,2.648 m -1.183,0.129 c 0,-0.832 -0.633,-1.359 -1.629,-1.359 -0.961,0 -1.57,0.492 -1.57,1.277 0,0.82 0.656,1.359 1.652,1.359 0.949,0 1.547,-0.492 1.547,-1.277 m 1.078,5.051 v 1.406 H 7.57 l -1.675,-0.293 v -1.113 h 5.355 m -3.047,1.137 c -0.656,0.293 -1.043,0.879 -1.043,1.535 0,0.222 0.047,0.48 0.117,0.679 l -1.289,0.329 c -0.093,-0.235 -0.14,-0.516 -0.14,-0.797 0,-0.703 0.375,-1.36 1.019,-1.746 h 1.336 m 3.152,6.796 c 0,1.442 -1.183,2.473 -2.859,2.473 -1.594,0 -2.707,-0.961 -2.707,-2.332 0,-0.844 0.434,-1.558 1.16,-1.957 l 0.645,0.352 c -0.387,0.281 -0.621,0.726 -0.621,1.207 0,0.808 0.632,1.312 1.629,1.312 0.96,0 1.57,-0.469 1.57,-1.242 0,-0.586 -0.352,-1.09 -0.902,-1.277 l 0.82,-0.399 c 0.808,0.305 1.265,0.985 1.265,1.863 m 2.286,-2.683 v 1.359 H 6.879 l -0.984,-0.41 v -0.949 h 7.746 m -2.309,9.621 c 0,0.363 -0.07,0.762 -0.187,1.102 l -1.008,-0.282 c 0.07,-0.152 0.105,-0.351 0.105,-0.515 0,-0.504 -0.293,-0.821 -0.762,-0.821 H 4.348 v -1.394 h 5.226 c 1.078,0 1.758,0.715 1.758,1.91 M 7.02,140.145 v 3.468 H 5.895 v -3.468 H 7.02 m 4.23,5.027 v 1.406 H 5.895 v -1.406 h 5.355 m -6.34,0.703 c 0,0.527 -0.34,0.867 -0.855,0.867 -0.539,0 -0.879,-0.34 -0.879,-0.867 0,-0.516 0.34,-0.855 0.879,-0.855 0.515,0 0.855,0.339 0.855,0.855 m 6.445,5.367 c 0,1.688 -1.148,2.824 -2.859,2.824 -1.641,0 -2.707,-1.043 -2.707,-2.648 0,-1.699 1.149,-2.824 2.871,-2.824 1.629,0 2.695,1.031 2.695,2.648 m -1.183,0.129 c 0,-0.832 -0.633,-1.359 -1.629,-1.359 -0.961,0 -1.57,0.492 -1.57,1.277 0,0.82 0.656,1.359 1.652,1.359 0.949,0 1.547,-0.492 1.547,-1.277 m 1.078,8.578 v 1.406 H 7.957 c -1.336,0 -2.145,-0.75 -2.145,-1.957 0,-0.773 0.34,-1.488 0.938,-1.98 l 0.855,0.199 c -0.375,0.363 -0.574,0.809 -0.574,1.301 0,0.68 0.387,1.031 1.114,1.031 h 3.105 m 0,-3.527 v 1.406 H 6.844 L 5.895,157.43 v -1.008 h 5.355 m 2.086,11.883 -0.598,0.996 c -1.254,-0.821 -2.812,-1.242 -4.617,-1.242 -1.605,0 -3.082,0.398 -4.559,1.23 L 3,168.27 c 1.582,-1.043 3.375,-1.571 5.191,-1.571 1.993,0 3.704,0.539 5.145,1.606 m -2.086,3.211 v 4.711 H 9.996 v -3.282 H 3.609 v -1.429 h 7.641 m 0.105,7.347 c 0,0.575 -0.398,0.949 -0.937,0.949 -0.563,0 -0.961,-0.374 -0.961,-0.949 0,-0.562 0.398,-0.937 0.961,-0.937 0.539,0 0.937,0.375 0.937,0.937 m -0.105,10.805 v 1.406 H 7.957 c -1.336,0 -2.145,-0.738 -2.145,-1.945 0,-0.762 0.34,-1.477 0.938,-1.969 l 0.855,0.211 c -0.375,0.352 -0.574,0.785 -0.574,1.277 0,0.68 0.387,1.02 1.114,1.02 h 3.105 m 0,-6.996 v 1.406 H 6.844 L 5.895,183.68 v -1.008 h 5.355 m 0,3.504 v 1.394 H 7.957 c -1.336,0 -2.145,-0.738 -2.145,-1.933 0,-0.774 0.34,-1.477 0.938,-1.969 l 0.855,0.199 c -0.375,0.352 -0.574,0.797 -0.574,1.278 0,0.679 0.387,1.031 1.114,1.031 h 3.105 m 0.105,10.066 c 0,1.688 -1.148,2.824 -2.859,2.824 -1.641,0 -2.707,-1.043 -2.707,-2.648 0,-1.699 1.149,-2.824 2.871,-2.824 1.629,0 2.695,1.031 2.695,2.648 m -1.183,0.129 c 0,-0.832 -0.633,-1.359 -1.629,-1.359 -0.961,0 -1.57,0.492 -1.57,1.277 0,0.82 0.656,1.359 1.652,1.359 0.949,0 1.547,-0.492 1.547,-1.277 m 1.16,6.551 c 0,0.34 -0.082,0.726 -0.199,1.019 l -0.938,-0.293 c 0.035,-0.117 0.059,-0.234 0.059,-0.339 0,-0.329 -0.211,-0.504 -0.586,-0.504 H 3.117 v -1.383 h 6.727 c 0.926,0 1.488,0.562 1.488,1.5"
         style="fill:#000000;fill-opacity:1;fill-rule:nonzero;stroke:none"
         id="path66" /></g><g
       id="g68"><path
         d="m 5.32,204.773 v 2.075 H 4.582 v -2.075 H 5.32 m 1.442,4.149 v 0.89 H 1.898 v -0.527 l 0.938,-1.851 0.633,0.339 -0.645,1.43 -0.281,-0.281 h 4.219"
         style="fill:#000000;fill-opacity:1;fill-rule:nonzero;stroke:none"
         id="path70" /></g><g
       id="g72"><path
         d="m 11.355,211.863 c 0,0.575 -0.398,0.949 -0.937,0.949 -0.563,0 -0.961,-0.374 -0.961,-0.949 0,-0.562 0.398,-0.937 0.961,-0.937 0.539,0 0.937,0.375 0.937,0.937 m 0,6.153 c 0,0.656 -0.14,1.265 -0.41,1.769 l -0.972,-0.316 c 0.164,-0.375 0.257,-0.785 0.257,-1.137 0,-0.996 -0.621,-1.559 -1.687,-1.559 -1.008,0 -1.57,0.504 -1.57,1.465 0,0.387 0.093,0.844 0.246,1.231 l -1.102,0.293 c -0.211,-0.457 -0.328,-1.02 -0.328,-1.571 0,-1.722 1.149,-2.847 2.906,-2.847 1.676,0 2.66,0.996 2.66,2.672 m -0.105,10.652 v 1.406 H 7.957 c -1.336,0 -2.145,-0.738 -2.145,-1.945 0,-0.762 0.34,-1.477 0.938,-1.969 l 0.855,0.211 c -0.375,0.352 -0.574,0.785 -0.574,1.277 0,0.68 0.387,1.02 1.114,1.02 h 3.105 m 0,-6.996 v 1.406 H 6.844 L 5.895,222.68 v -1.008 h 5.355 m 0,3.504 v 1.394 H 7.957 c -1.336,0 -2.145,-0.738 -2.145,-1.933 0,-0.774 0.34,-1.477 0.938,-1.969 l 0.855,0.199 c -0.375,0.352 -0.574,0.797 -0.574,1.278 0,0.679 0.387,1.031 1.114,1.031 h 3.105"
         style="fill:#000000;fill-opacity:1;fill-rule:nonzero;stroke:none"
         id="path74" /></g><g
       id="g76"><path
         d="m 5.32,232.523 v 2.075 H 4.582 v -2.075 H 5.32 m 1.442,4.149 v 0.89 H 1.898 v -0.527 l 0.938,-1.851 0.633,0.339 -0.645,1.43 -0.281,-0.281 h 4.219"
         style="fill:#000000;fill-opacity:1;fill-rule:nonzero;stroke:none"
         id="path78" /></g><g
       id="g80"><path
         d="m 13.336,239.484 c -1.441,1.067 -3.152,1.606 -5.145,1.606 -1.816,0 -3.609,-0.528 -5.191,-1.57 l 0.562,-1.02 c 1.477,0.832 2.954,1.23 4.559,1.23 1.805,0 3.363,-0.421 4.617,-1.242 z"
         style="fill:#000000;fill-opacity:1;fill-rule:nonzero;stroke:none"
         id="path82" /></g><g
       id="g84"><path
         d="m 52.863,35.895 c 1.699,0 2.754,1.488 2.754,3.984 0,2.391 -1.019,3.867 -2.683,3.867 -1.723,0 -2.801,-1.5 -2.801,-3.984 0,-2.403 1.043,-3.867 2.73,-3.867 m 0.059,0.773 c -1.149,0 -1.863,1.207 -1.863,3.211 0,1.922 0.703,3.094 1.804,3.094 1.125,0 1.828,-1.219 1.828,-3.211 0,-1.922 -0.668,-3.094 -1.769,-3.094"
         style="fill:#000000;fill-opacity:1;fill-rule:nonzero;stroke:none"
         id="path86" /></g><g
       id="g88"><path
         d="m 24.949,92.191 h 0.879 v 7.7 h -0.527 l -2.719,-1.407 0.328,-0.632 2.332,1.113 -0.293,0.281 v -7.055 m 5.414,-0.046 c 1.699,0 2.754,1.488 2.754,3.984 0,2.391 -1.019,3.867 -2.683,3.867 -1.723,0 -2.801,-1.5 -2.801,-3.984 0,-2.403 1.043,-3.867 2.73,-3.867 m 0.059,0.773 c -1.149,0 -1.863,1.207 -1.863,3.211 0,1.922 0.703,3.094 1.804,3.094 1.125,0 1.828,-1.219 1.828,-3.211 0,-1.922 -0.668,-3.094 -1.769,-3.094 m 3.855,-2.578 h 0.797 c 0.387,0.949 0.598,2.133 0.598,3.222 h -0.949 c 0,-1.113 -0.164,-2.308 -0.446,-3.222 m 5.086,1.805 c 1.699,0 2.754,1.488 2.754,3.984 0,2.391 -1.019,3.867 -2.683,3.867 -1.723,0 -2.801,-1.5 -2.801,-3.984 0,-2.403 1.043,-3.867 2.73,-3.867 m 0.059,0.773 c -1.149,0 -1.863,1.207 -1.863,3.211 0,1.922 0.703,3.094 1.804,3.094 1.125,0 1.828,-1.219 1.828,-3.211 0,-1.922 -0.668,-3.094 -1.769,-3.094 m 6.691,-0.773 c 1.699,0 2.754,1.488 2.754,3.984 0,2.391 -1.019,3.867 -2.683,3.867 -1.723,0 -2.801,-1.5 -2.801,-3.984 0,-2.403 1.043,-3.867 2.73,-3.867 m 0.059,0.773 c -1.149,0 -1.863,1.207 -1.863,3.211 0,1.922 0.703,3.094 1.804,3.094 1.125,0 1.828,-1.219 1.828,-3.211 0,-1.922 -0.668,-3.094 -1.769,-3.094 m 6.691,-0.773 c 1.699,0 2.754,1.488 2.754,3.984 0,2.391 -1.019,3.867 -2.683,3.867 -1.723,0 -2.801,-1.5 -2.801,-3.984 0,-2.403 1.043,-3.867 2.73,-3.867 m 0.059,0.773 c -1.149,0 -1.863,1.207 -1.863,3.211 0,1.922 0.703,3.094 1.804,3.094 1.125,0 1.828,-1.219 1.828,-3.211 0,-1.922 -0.668,-3.094 -1.769,-3.094"
         style="fill:#000000;fill-opacity:1;fill-rule:nonzero;stroke:none"
         id="path90" /></g><g
       id="g92"><path
         d="m 21.504,147.75 h 4.851 v 0.797 h -3.914 l 0.118,-0.27 c 2.613,2.461 3.492,3.739 3.492,5.063 0,1.348 -0.914,2.156 -2.321,2.156 -0.914,0 -1.781,-0.328 -2.343,-0.867 l 0.246,-0.633 c 0.586,0.469 1.312,0.703 1.91,0.703 0.984,0 1.582,-0.586 1.582,-1.5 0,-1.113 -0.891,-2.261 -3.621,-4.84 v -0.609 m 8.859,-0.105 c 1.699,0 2.754,1.488 2.754,3.984 0,2.391 -1.019,3.867 -2.683,3.867 -1.723,0 -2.801,-1.5 -2.801,-3.984 0,-2.403 1.043,-3.867 2.73,-3.867 m 0.059,0.773 c -1.149,0 -1.863,1.207 -1.863,3.211 0,1.922 0.703,3.094 1.804,3.094 1.125,0 1.828,-1.219 1.828,-3.211 0,-1.922 -0.668,-3.094 -1.769,-3.094 m 3.855,-2.578 h 0.797 c 0.387,0.949 0.598,2.133 0.598,3.222 h -0.949 c 0,-1.113 -0.164,-2.308 -0.446,-3.222 m 5.086,1.805 c 1.699,0 2.754,1.488 2.754,3.984 0,2.391 -1.019,3.867 -2.683,3.867 -1.723,0 -2.801,-1.5 -2.801,-3.984 0,-2.403 1.043,-3.867 2.73,-3.867 m 0.059,0.773 c -1.149,0 -1.863,1.207 -1.863,3.211 0,1.922 0.703,3.094 1.804,3.094 1.125,0 1.828,-1.219 1.828,-3.211 0,-1.922 -0.668,-3.094 -1.769,-3.094 m 6.691,-0.773 c 1.699,0 2.754,1.488 2.754,3.984 0,2.391 -1.019,3.867 -2.683,3.867 -1.723,0 -2.801,-1.5 -2.801,-3.984 0,-2.403 1.043,-3.867 2.73,-3.867 m 0.059,0.773 c -1.149,0 -1.863,1.207 -1.863,3.211 0,1.922 0.703,3.094 1.804,3.094 1.125,0 1.828,-1.219 1.828,-3.211 0,-1.922 -0.668,-3.094 -1.769,-3.094 m 6.691,-0.773 c 1.699,0 2.754,1.488 2.754,3.984 0,2.391 -1.019,3.867 -2.683,3.867 -1.723,0 -2.801,-1.5 -2.801,-3.984 0,-2.403 1.043,-3.867 2.73,-3.867 m 0.059,0.773 c -1.149,0 -1.863,1.207 -1.863,3.211 0,1.922 0.703,3.094 1.804,3.094 1.125,0 1.828,-1.219 1.828,-3.211 0,-1.922 -0.668,-3.094 -1.769,-3.094"
         style="fill:#000000;fill-opacity:1;fill-rule:nonzero;stroke:none"
         id="path94" /></g><g
       id="g96"><path
         d="m 23.836,203.883 c 1.676,0 2.836,0.879 2.836,2.203 0,1.113 -0.856,1.898 -2.156,1.934 l -0.164,-0.129 c 1.136,0.023 1.921,0.797 1.921,1.851 0,1.219 -0.984,1.992 -2.402,1.992 -0.785,0 -1.676,-0.246 -2.32,-0.621 l 0.211,-0.679 c 0.679,0.339 1.394,0.515 1.957,0.515 0.984,0 1.699,-0.504 1.699,-1.289 0,-0.844 -0.82,-1.394 -1.945,-1.394 h -0.586 v -0.786 h 0.785 c 1.277,0 2.086,-0.55 2.086,-1.453 0,-0.855 -0.75,-1.336 -1.887,-1.336 -0.668,0 -1.559,0.164 -2.273,0.516 l -0.2,-0.738 c 0.739,-0.375 1.641,-0.586 2.438,-0.586 m 6.527,0.012 c 1.699,0 2.754,1.488 2.754,3.984 0,2.391 -1.019,3.867 -2.683,3.867 -1.723,0 -2.801,-1.5 -2.801,-3.984 0,-2.403 1.043,-3.867 2.73,-3.867 m 0.059,0.773 c -1.149,0 -1.863,1.207 -1.863,3.211 0,1.922 0.703,3.094 1.804,3.094 1.125,0 1.828,-1.219 1.828,-3.211 0,-1.922 -0.668,-3.094 -1.769,-3.094 m 3.855,-2.578 h 0.797 c 0.387,0.949 0.598,2.133 0.598,3.222 h -0.949 c 0,-1.113 -0.164,-2.308 -0.446,-3.222 m 5.086,1.805 c 1.699,0 2.754,1.488 2.754,3.984 0,2.391 -1.019,3.867 -2.683,3.867 -1.723,0 -2.801,-1.5 -2.801,-3.984 0,-2.403 1.043,-3.867 2.73,-3.867 m 0.059,0.773 c -1.149,0 -1.863,1.207 -1.863,3.211 0,1.922 0.703,3.094 1.804,3.094 1.125,0 1.828,-1.219 1.828,-3.211 0,-1.922 -0.668,-3.094 -1.769,-3.094 m 6.691,-0.773 c 1.699,0 2.754,1.488 2.754,3.984 0,2.391 -1.019,3.867 -2.683,3.867 -1.723,0 -2.801,-1.5 -2.801,-3.984 0,-2.403 1.043,-3.867 2.73,-3.867 m 0.059,0.773 c -1.149,0 -1.863,1.207 -1.863,3.211 0,1.922 0.703,3.094 1.804,3.094 1.125,0 1.828,-1.219 1.828,-3.211 0,-1.922 -0.668,-3.094 -1.769,-3.094 m 6.691,-0.773 c 1.699,0 2.754,1.488 2.754,3.984 0,2.391 -1.019,3.867 -2.683,3.867 -1.723,0 -2.801,-1.5 -2.801,-3.984 0,-2.403 1.043,-3.867 2.73,-3.867 m 0.059,0.773 c -1.149,0 -1.863,1.207 -1.863,3.211 0,1.922 0.703,3.094 1.804,3.094 1.125,0 1.828,-1.219 1.828,-3.211 0,-1.922 -0.668,-3.094 -1.769,-3.094"
         style="fill:#000000;fill-opacity:1;fill-rule:nonzero;stroke:none"
         id="path98" /></g><g
       id="g100"><path
         d="m 24.316,260.145 h 0.868 v 7.746 H 24.34 l -3.832,-5.368 v -0.468 h 6.047 v 0.75 h -5.18 l 0.07,-0.188 3.047,4.36 -0.164,0.023 -0.012,-6.855 m 6.047,0 c 1.699,0 2.754,1.488 2.754,3.984 0,2.391 -1.019,3.867 -2.683,3.867 -1.723,0 -2.801,-1.5 -2.801,-3.984 0,-2.403 1.043,-3.867 2.73,-3.867 m 0.059,0.773 c -1.149,0 -1.863,1.207 -1.863,3.211 0,1.922 0.703,3.094 1.804,3.094 1.125,0 1.828,-1.219 1.828,-3.211 0,-1.922 -0.668,-3.094 -1.769,-3.094 m 3.855,-2.578 h 0.797 c 0.387,0.949 0.598,2.133 0.598,3.222 h -0.949 c 0,-1.113 -0.164,-2.308 -0.446,-3.222 m 5.086,1.805 c 1.699,0 2.754,1.488 2.754,3.984 0,2.391 -1.019,3.867 -2.683,3.867 -1.723,0 -2.801,-1.5 -2.801,-3.984 0,-2.403 1.043,-3.867 2.73,-3.867 m 0.059,0.773 c -1.149,0 -1.863,1.207 -1.863,3.211 0,1.922 0.703,3.094 1.804,3.094 1.125,0 1.828,-1.219 1.828,-3.211 0,-1.922 -0.668,-3.094 -1.769,-3.094 m 6.691,-0.773 c 1.699,0 2.754,1.488 2.754,3.984 0,2.391 -1.019,3.867 -2.683,3.867 -1.723,0 -2.801,-1.5 -2.801,-3.984 0,-2.403 1.043,-3.867 2.73,-3.867 m 0.059,0.773 c -1.149,0 -1.863,1.207 -1.863,3.211 0,1.922 0.703,3.094 1.804,3.094 1.125,0 1.828,-1.219 1.828,-3.211 0,-1.922 -0.668,-3.094 -1.769,-3.094 m 6.691,-0.773 c 1.699,0 2.754,1.488 2.754,3.984 0,2.391 -1.019,3.867 -2.683,3.867 -1.723,0 -2.801,-1.5 -2.801,-3.984 0,-2.403 1.043,-3.867 2.73,-3.867 m 0.059,0.773 c -1.149,0 -1.863,1.207 -1.863,3.211 0,1.922 0.703,3.094 1.804,3.094 1.125,0 1.828,-1.219 1.828,-3.211 0,-1.922 -0.668,-3.094 -1.769,-3.094"
         style="fill:#000000;fill-opacity:1;fill-rule:nonzero;stroke:none"
         id="path102" /></g><g
       id="g104"><path
         d="m 60,95.812 h 0.75"
         style="fill:none;stroke:#000000;stroke-width:1;stroke-linecap:square;stroke-linejoin:bevel;stroke-miterlimit:10;stroke-dasharray:none;stroke-opacity:1"
         id="path106" /></g><g
       id="g108"><path
         d="m 60,151.875 h 0.75"
         style="fill:none;stroke:#000000;stroke-width:1;stroke-linecap:square;stroke-linejoin:bevel;stroke-miterlimit:10;stroke-dasharray:none;stroke-opacity:1"
         id="path110" /></g><g
       id="g112"><path
         d="m 60,207.938 h 0.75"
         style="fill:none;stroke:#000000;stroke-width:1;stroke-linecap:square;stroke-linejoin:bevel;stroke-miterlimit:10;stroke-dasharray:none;stroke-opacity:1"
         id="path114" /></g><g
       id="g116"><path
         d="M 60,264 V 39.75"
         style="fill:none;stroke:#000000;stroke-width:1;stroke-linecap:square;stroke-linejoin:bevel;stroke-miterlimit:10;stroke-dasharray:none;stroke-opacity:1"
         id="path118" /></g><g
       id="g120"><path
         d="m 60,95.812 h 6.75"
         style="fill:none;stroke:#000000;stroke-width:1;stroke-linecap:square;stroke-linejoin:bevel;stroke-miterlimit:10;stroke-dasharray:none;stroke-opacity:1"
         id="path122" /></g><g
       id="g124"><path
         d="m 60,151.875 h 6.75"
         style="fill:none;stroke:#000000;stroke-width:1;stroke-linecap:square;stroke-linejoin:bevel;stroke-miterlimit:10;stroke-dasharray:none;stroke-opacity:1"
         id="path126" /></g><g
       id="g128"><path
         d="m 60,207.938 h 6.75"
         style="fill:none;stroke:#000000;stroke-width:1;stroke-linecap:square;stroke-linejoin:bevel;stroke-miterlimit:10;stroke-dasharray:none;stroke-opacity:1"
         id="path130" /></g><g
       id="g132"><path
         d="m 60,50.962 h 3.75"
         style="fill:none;stroke:#000000;stroke-width:1;stroke-linecap:square;stroke-linejoin:bevel;stroke-miterlimit:10;stroke-dasharray:none;stroke-opacity:1"
         id="path134" /></g><g
       id="g136"><path
         d="m 60,62.175 h 3.75"
         style="fill:none;stroke:#000000;stroke-width:1;stroke-linecap:square;stroke-linejoin:bevel;stroke-miterlimit:10;stroke-dasharray:none;stroke-opacity:1"
         id="path138" /></g><g
       id="g140"><path
         d="m 60,73.387 h 3.75"
         style="fill:none;stroke:#000000;stroke-width:1;stroke-linecap:square;stroke-linejoin:bevel;stroke-miterlimit:10;stroke-dasharray:none;stroke-opacity:1"
         id="path142" /></g><g
       id="g144"><path
         d="m 60,84.6 h 3.75"
         style="fill:none;stroke:#000000;stroke-width:1;stroke-linecap:square;stroke-linejoin:bevel;stroke-miterlimit:10;stroke-dasharray:none;stroke-opacity:1"
         id="path146" /></g><g
       id="g148"><path
         d="m 60,107.025 h 3.75"
         style="fill:none;stroke:#000000;stroke-width:1;stroke-linecap:square;stroke-linejoin:bevel;stroke-miterlimit:10;stroke-dasharray:none;stroke-opacity:1"
         id="path150" /></g><g
       id="g152"><path
         d="m 60,118.237 h 3.75"
         style="fill:none;stroke:#000000;stroke-width:1;stroke-linecap:square;stroke-linejoin:bevel;stroke-miterlimit:10;stroke-dasharray:none;stroke-opacity:1"
         id="path154" /></g><g
       id="g156"><path
         d="m 60,129.45 h 3.75"
         style="fill:none;stroke:#000000;stroke-width:1;stroke-linecap:square;stroke-linejoin:bevel;stroke-miterlimit:10;stroke-dasharray:none;stroke-opacity:1"
         id="path158" /></g><g
       id="g160"><path
         d="m 60,140.662 h 3.75"
         style="fill:none;stroke:#000000;stroke-width:1;stroke-linecap:square;stroke-linejoin:bevel;stroke-miterlimit:10;stroke-dasharray:none;stroke-opacity:1"
         id="path162" /></g><g
       id="g164"><path
         d="m 60,163.087 h 3.75"
         style="fill:none;stroke:#000000;stroke-width:1;stroke-linecap:square;stroke-linejoin:bevel;stroke-miterlimit:10;stroke-dasharray:none;stroke-opacity:1"
         id="path166" /></g><g
       id="g168"><path
         d="m 60,174.3 h 3.75"
         style="fill:none;stroke:#000000;stroke-width:1;stroke-linecap:square;stroke-linejoin:bevel;stroke-miterlimit:10;stroke-dasharray:none;stroke-opacity:1"
         id="path170" /></g><g
       id="g172"><path
         d="m 60,185.512 h 3.75"
         style="fill:none;stroke:#000000;stroke-width:1;stroke-linecap:square;stroke-linejoin:bevel;stroke-miterlimit:10;stroke-dasharray:none;stroke-opacity:1"
         id="path174" /></g><g
       id="g176"><path
         d="m 60,196.725 h 3.75"
         style="fill:none;stroke:#000000;stroke-width:1;stroke-linecap:square;stroke-linejoin:bevel;stroke-miterlimit:10;stroke-dasharray:none;stroke-opacity:1"
         id="path178" /></g><g
       id="g180"><path
         d="m 60,219.15 h 3.75"
         style="fill:none;stroke:#000000;stroke-width:1;stroke-linecap:square;stroke-linejoin:bevel;stroke-miterlimit:10;stroke-dasharray:none;stroke-opacity:1"
         id="path182" /></g><g
       id="g184"><path
         d="m 60,230.362 h 3.75"
         style="fill:none;stroke:#000000;stroke-width:1;stroke-linecap:square;stroke-linejoin:bevel;stroke-miterlimit:10;stroke-dasharray:none;stroke-opacity:1"
         id="path186" /></g><g
       id="g188"><path
         d="m 60,241.575 h 3.75"
         style="fill:none;stroke:#000000;stroke-width:1;stroke-linecap:square;stroke-linejoin:bevel;stroke-miterlimit:10;stroke-dasharray:none;stroke-opacity:1"
         id="path190" /></g><g
       id="g192"><path
         d="m 60,252.787 h 3.75"
         style="fill:none;stroke:#000000;stroke-width:1;stroke-linecap:square;stroke-linejoin:bevel;stroke-miterlimit:10;stroke-dasharray:none;stroke-opacity:1"
         id="path194" /></g><g
       id="g196"><path
         d="M 354.75,95.812 H 354"
         style="fill:none;stroke:#000000;stroke-width:1;stroke-linecap:square;stroke-linejoin:bevel;stroke-miterlimit:10;stroke-dasharray:none;stroke-opacity:1"
         id="path198" /></g><g
       id="g200"><path
         d="M 354.75,151.875 H 354"
         style="fill:none;stroke:#000000;stroke-width:1;stroke-linecap:square;stroke-linejoin:bevel;stroke-miterlimit:10;stroke-dasharray:none;stroke-opacity:1"
         id="path202" /></g><g
       id="g204"><path
         d="M 354.75,207.938 H 354"
         style="fill:none;stroke:#000000;stroke-width:1;stroke-linecap:square;stroke-linejoin:bevel;stroke-miterlimit:10;stroke-dasharray:none;stroke-opacity:1"
         id="path206" /></g><g
       id="g208"><path
         d="M 354.75,264 V 39.75"
         style="fill:none;stroke:#000000;stroke-width:1;stroke-linecap:square;stroke-linejoin:bevel;stroke-miterlimit:10;stroke-dasharray:none;stroke-opacity:1"
         id="path210" /></g><g
       id="g212"><path
         d="M 354.75,95.812 H 348"
         style="fill:none;stroke:#000000;stroke-width:1;stroke-linecap:square;stroke-linejoin:bevel;stroke-miterlimit:10;stroke-dasharray:none;stroke-opacity:1"
         id="path214" /></g><g
       id="g216"><path
         d="M 354.75,151.875 H 348"
         style="fill:none;stroke:#000000;stroke-width:1;stroke-linecap:square;stroke-linejoin:bevel;stroke-miterlimit:10;stroke-dasharray:none;stroke-opacity:1"
         id="path218" /></g><g
       id="g220"><path
         d="M 354.75,207.938 H 348"
         style="fill:none;stroke:#000000;stroke-width:1;stroke-linecap:square;stroke-linejoin:bevel;stroke-miterlimit:10;stroke-dasharray:none;stroke-opacity:1"
         id="path222" /></g><g
       id="g224"><path
         d="M 354.75,50.962 H 351"
         style="fill:none;stroke:#000000;stroke-width:1;stroke-linecap:square;stroke-linejoin:bevel;stroke-miterlimit:10;stroke-dasharray:none;stroke-opacity:1"
         id="path226" /></g><g
       id="g228"><path
         d="M 354.75,62.175 H 351"
         style="fill:none;stroke:#000000;stroke-width:1;stroke-linecap:square;stroke-linejoin:bevel;stroke-miterlimit:10;stroke-dasharray:none;stroke-opacity:1"
         id="path230" /></g><g
       id="g232"><path
         d="M 354.75,73.387 H 351"
         style="fill:none;stroke:#000000;stroke-width:1;stroke-linecap:square;stroke-linejoin:bevel;stroke-miterlimit:10;stroke-dasharray:none;stroke-opacity:1"
         id="path234" /></g><g
       id="g236"><path
         d="M 354.75,84.6 H 351"
         style="fill:none;stroke:#000000;stroke-width:1;stroke-linecap:square;stroke-linejoin:bevel;stroke-miterlimit:10;stroke-dasharray:none;stroke-opacity:1"
         id="path238" /></g><g
       id="g240"><path
         d="M 354.75,107.025 H 351"
         style="fill:none;stroke:#000000;stroke-width:1;stroke-linecap:square;stroke-linejoin:bevel;stroke-miterlimit:10;stroke-dasharray:none;stroke-opacity:1"
         id="path242" /></g><g
       id="g244"><path
         d="M 354.75,118.237 H 351"
         style="fill:none;stroke:#000000;stroke-width:1;stroke-linecap:square;stroke-linejoin:bevel;stroke-miterlimit:10;stroke-dasharray:none;stroke-opacity:1"
         id="path246" /></g><g
       id="g248"><path
         d="M 354.75,129.45 H 351"
         style="fill:none;stroke:#000000;stroke-width:1;stroke-linecap:square;stroke-linejoin:bevel;stroke-miterlimit:10;stroke-dasharray:none;stroke-opacity:1"
         id="path250" /></g><g
       id="g252"><path
         d="M 354.75,140.662 H 351"
         style="fill:none;stroke:#000000;stroke-width:1;stroke-linecap:square;stroke-linejoin:bevel;stroke-miterlimit:10;stroke-dasharray:none;stroke-opacity:1"
         id="path254" /></g><g
       id="g256"><path
         d="M 354.75,163.087 H 351"
         style="fill:none;stroke:#000000;stroke-width:1;stroke-linecap:square;stroke-linejoin:bevel;stroke-miterlimit:10;stroke-dasharray:none;stroke-opacity:1"
         id="path258" /></g><g
       id="g260"><path
         d="M 354.75,174.3 H 351"
         style="fill:none;stroke:#000000;stroke-width:1;stroke-linecap:square;stroke-linejoin:bevel;stroke-miterlimit:10;stroke-dasharray:none;stroke-opacity:1"
         id="path262" /></g><g
       id="g264"><path
         d="M 354.75,185.512 H 351"
         style="fill:none;stroke:#000000;stroke-width:1;stroke-linecap:square;stroke-linejoin:bevel;stroke-miterlimit:10;stroke-dasharray:none;stroke-opacity:1"
         id="path266" /></g><g
       id="g268"><path
         d="M 354.75,196.725 H 351"
         style="fill:none;stroke:#000000;stroke-width:1;stroke-linecap:square;stroke-linejoin:bevel;stroke-miterlimit:10;stroke-dasharray:none;stroke-opacity:1"
         id="path270" /></g><g
       id="g272"><path
         d="M 354.75,219.15 H 351"
         style="fill:none;stroke:#000000;stroke-width:1;stroke-linecap:square;stroke-linejoin:bevel;stroke-miterlimit:10;stroke-dasharray:none;stroke-opacity:1"
         id="path274" /></g><g
       id="g276"><path
         d="M 354.75,230.362 H 351"
         style="fill:none;stroke:#000000;stroke-width:1;stroke-linecap:square;stroke-linejoin:bevel;stroke-miterlimit:10;stroke-dasharray:none;stroke-opacity:1"
         id="path278" /></g><g
       id="g280"><path
         d="M 354.75,241.575 H 351"
         style="fill:none;stroke:#000000;stroke-width:1;stroke-linecap:square;stroke-linejoin:bevel;stroke-miterlimit:10;stroke-dasharray:none;stroke-opacity:1"
         id="path282" /></g><g
       id="g284"><path
         d="M 354.75,252.787 H 351"
         style="fill:none;stroke:#000000;stroke-width:1;stroke-linecap:square;stroke-linejoin:bevel;stroke-miterlimit:10;stroke-dasharray:none;stroke-opacity:1"
         id="path286" /></g><g
       id="g288"><path
         d="m 159.422,3 h 1.512 l 1.992,6.902 h -0.68 L 164.391,3 h 1.476 l 2.227,7.641 h -1.43 l -1.805,-6.95 0.621,0.129 -2.027,6.774 h -1.558 l -1.922,-6.797 h 0.504 l -1.688,6.844 h -1.617 L 159.422,3 m 13.863,0 h 0.996 v 3.223 c 0,1.441 -0.82,2.238 -2.402,2.238 -0.762,0 -1.582,-0.188 -2.215,-0.516 l 0.34,-0.972 c 0.551,0.211 1.09,0.328 1.582,0.328 0.855,0 1.312,-0.328 1.312,-0.973 V 4.031 L 173.285,3 M 171.41,2.895 c 1.184,0 2.028,0.667 2.297,1.828 l -0.457,0.211 c -0.188,-0.575 -0.727,-0.938 -1.371,-0.938 -0.539,0 -0.902,0.27 -0.902,0.68 0,0.515 0.609,0.726 2.168,0.726 v 0.774 c -2.485,0 -3.586,-0.516 -3.586,-1.699 0,-0.961 0.726,-1.582 1.851,-1.582 M 177.996,3 h 1.395 l 2.074,5.355 h -1.406 l -1.524,-4.57 h 0.363 l -1.441,4.57 H 175.91 L 177.996,3 m 8.039,-0.105 c 0.633,0 1.313,0.128 1.887,0.375 l -0.305,0.96 c -0.433,-0.175 -0.902,-0.269 -1.359,-0.269 -1.149,0 -1.77,0.644 -1.77,1.887 0,0.996 0.41,1.535 1.16,1.535 0.704,0 1.102,-0.445 1.102,-1.231 h -2.449 V 5.285 h 3.715 c 0.035,0.223 0.058,0.551 0.058,0.809 0,1.453 -0.89,2.367 -2.32,2.367 -1.594,0 -2.66,-1.137 -2.66,-2.801 0,-1.722 1.113,-2.765 2.941,-2.765 M 194.449,3 h 1.406 v 3.293 c 0,1.336 -0.75,2.145 -1.957,2.145 -0.773,0 -1.488,-0.34 -1.98,-0.938 l 0.199,-0.855 c 0.363,0.375 0.809,0.574 1.301,0.574 0.68,0 1.031,-0.387 1.031,-1.114 V 3 m -3.527,0 h 1.406 v 4.406 l -0.398,0.949 h -1.008 V 3 m 9.269,-0.094 c 0.739,0 1.442,0.34 1.934,0.949 l -0.211,0.856 c -0.328,-0.363 -0.762,-0.574 -1.207,-0.574 -0.762,0 -0.984,0.574 -0.984,1.113 v 3.105 h -1.407 V 4.934 c 0,-1.231 0.762,-2.028 1.875,-2.028 M 202.113,3 h 1.008 v 5.355 h -1.406 V 3.938 L 202.113,3 m 10.055,0 h 1.406 v 3.293 c 0,1.336 -0.738,2.145 -1.945,2.145 -0.762,0 -1.477,-0.34 -1.969,-0.938 l 0.211,-0.855 c 0.352,0.375 0.785,0.574 1.277,0.574 0.68,0 1.02,-0.387 1.02,-1.114 V 3 m -6.996,0 h 1.406 v 4.406 l -0.398,0.949 h -1.008 V 3 m 3.504,0 h 1.394 v 3.293 c 0,1.336 -0.738,2.145 -1.933,2.145 -0.774,0 -1.477,-0.34 -1.969,-0.938 l 0.199,-0.855 c 0.352,0.375 0.797,0.574 1.278,0.574 0.679,0 1.031,-0.387 1.031,-1.114 V 3 M 219.07,2.895 c 1.5,0 2.508,1.136 2.508,2.835 0,1.641 -0.949,2.731 -2.355,2.731 -0.985,0 -1.7,-0.527 -2.051,-1.418 l 0.422,-0.527 c 0.199,0.504 0.644,0.761 1.172,0.761 0.867,0 1.394,-0.632 1.394,-1.64 0,-0.961 -0.48,-1.559 -1.277,-1.559 -0.563,0 -1.02,0.293 -1.254,0.785 l -0.481,-0.715 c 0.329,-0.82 0.985,-1.253 1.922,-1.253 M 216.422,3 h 0.89 l 0.469,0.973 v 7.16 h -1.359 V 3 m 10.113,-0.105 c 0.633,0 1.313,0.128 1.887,0.375 l -0.305,0.96 c -0.433,-0.175 -0.902,-0.269 -1.359,-0.269 -1.149,0 -1.77,0.644 -1.77,1.887 0,0.996 0.41,1.535 1.16,1.535 0.704,0 1.102,-0.445 1.102,-1.231 h -2.449 V 5.285 h 3.715 c 0.035,0.223 0.058,0.551 0.058,0.809 0,1.453 -0.89,2.367 -2.32,2.367 -1.594,0 -2.66,-1.137 -2.66,-2.801 0,-1.722 1.113,-2.765 2.941,-2.765 M 231.422,3 h 1.406 v 3.68 l -0.293,1.675 h -1.113 V 3 m 1.137,3.047 c 0.293,0.656 0.879,1.043 1.535,1.043 0.222,0 0.48,-0.047 0.679,-0.117 l 0.329,1.289 c -0.235,0.093 -0.516,0.14 -0.797,0.14 -0.703,0 -1.36,-0.375 -1.746,-1.019 V 6.047 m 8.496,-5.133 0.996,0.598 c -0.821,1.254 -1.242,2.812 -1.242,4.617 0,1.605 0.398,3.082 1.23,4.559 l -1.019,0.562 c -1.043,-1.582 -1.571,-3.375 -1.571,-5.191 0,-1.993 0.539,-3.704 1.606,-5.145 m 5.461,1.981 c 0.656,0 1.265,0.14 1.769,0.41 l -0.316,0.972 c -0.375,-0.164 -0.785,-0.257 -1.137,-0.257 -0.996,0 -1.559,0.621 -1.559,1.687 0,1.008 0.504,1.57 1.465,1.57 0.387,0 0.844,-0.093 1.231,-0.246 l 0.293,1.102 c -0.457,0.211 -1.02,0.328 -1.571,0.328 -1.722,0 -2.847,-1.149 -2.847,-2.906 0,-1.676 0.996,-2.66 2.672,-2.66 M 257.168,3 h 1.406 v 3.293 c 0,1.336 -0.738,2.145 -1.945,2.145 -0.762,0 -1.477,-0.34 -1.969,-0.938 l 0.211,-0.855 c 0.352,0.375 0.785,0.574 1.277,0.574 0.68,0 1.02,-0.387 1.02,-1.114 V 3 m -6.996,0 h 1.406 v 4.406 l -0.398,0.949 h -1.008 V 3 m 3.504,0 h 1.394 v 3.293 c 0,1.336 -0.738,2.145 -1.933,2.145 -0.774,0 -1.477,-0.34 -1.969,-0.938 l 0.199,-0.855 c 0.352,0.375 0.797,0.574 1.278,0.574 0.679,0 1.031,-0.387 1.031,-1.114 V 3"
         style="fill:#000000;fill-opacity:1;fill-rule:nonzero;stroke:none"
         id="path290" /></g><g
       id="g292"><path
         d="m 261.023,8.93 h 2.075 v 0.738 h -2.075 V 8.93 m 4.149,-1.442 h 0.89 v 4.864 h -0.527 l -1.851,-0.938 0.339,-0.633 1.43,0.645 -0.281,0.281 V 7.488"
         style="fill:#000000;fill-opacity:1;fill-rule:nonzero;stroke:none"
         id="path294" /></g><g
       id="g296"><path
         d="m 267.984,0.914 c 1.067,1.441 1.606,3.152 1.606,5.145 0,1.816 -0.528,3.609 -1.57,5.191 L 267,10.688 c 0.832,-1.477 1.23,-2.954 1.23,-4.559 0,-1.805 -0.421,-3.363 -1.242,-4.617 z"
         style="fill:#000000;fill-opacity:1;fill-rule:nonzero;stroke:none"
         id="path298" /></g><g
       id="g300"><path
         d="m 91.254,24 h 4.851 v 0.797 h -3.914 l 0.118,-0.27 c 2.613,2.461 3.492,3.739 3.492,5.063 0,1.348 -0.914,2.156 -2.321,2.156 -0.914,0 -1.781,-0.328 -2.343,-0.867 l 0.246,-0.633 c 0.586,0.469 1.312,0.703 1.91,0.703 0.984,0 1.582,-0.586 1.582,-1.5 0,-1.113 -0.891,-2.261 -3.621,-4.84 V 24 m 6.023,-1.91 h 0.797 c 0.387,0.949 0.598,2.133 0.598,3.222 h -0.949 c 0,-1.113 -0.164,-2.308 -0.446,-3.222 m 4.805,9.656 c -1.477,0 -2.52,-1.031 -2.52,-2.519 0,-1.372 0.903,-2.286 2.227,-2.286 1.137,0 2.039,0.668 2.309,1.735 l -0.188,0.469 c -0.246,-0.915 -0.961,-1.442 -1.875,-1.442 -0.984,0 -1.605,0.633 -1.605,1.641 0,0.961 0.586,1.617 1.547,1.617 1.253,0 1.921,-1.055 1.921,-3.047 0,-2.144 -0.785,-3.223 -2.402,-3.223 -0.527,0 -1.09,0.129 -1.57,0.375 l -0.27,-0.714 c 0.61,-0.317 1.184,-0.457 1.793,-0.457 2.121,0 3.34,1.546 3.34,4.148 0,2.344 -0.984,3.703 -2.707,3.703 m 6.352,-7.851 c 1.699,0 2.847,0.96 2.847,2.46 0,1.43 -1.043,2.333 -2.754,2.333 -0.422,0 -0.843,-0.047 -1.23,-0.141 l 0.223,-0.281 0.128,2.589 h 3.27 v 0.786 h -4.102 l -0.187,-3.914 c 0.492,0.117 1.137,0.187 1.617,0.187 1.301,0 2.098,-0.598 2.098,-1.641 0,-0.984 -0.727,-1.582 -1.852,-1.582 -0.656,0 -1.383,0.188 -1.957,0.493 l -0.269,-0.727 c 0.679,-0.363 1.394,-0.562 2.168,-0.562 m 6.679,0 c 1.699,0 2.754,1.488 2.754,3.984 0,2.391 -1.019,3.867 -2.683,3.867 -1.723,0 -2.801,-1.5 -2.801,-3.984 0,-2.403 1.043,-3.867 2.73,-3.867 m 0.059,0.773 c -1.149,0 -1.863,1.207 -1.863,3.211 0,1.922 0.703,3.094 1.804,3.094 1.125,0 1.828,-1.219 1.828,-3.211 0,-1.922 -0.668,-3.094 -1.769,-3.094"
         style="fill:#000000;fill-opacity:1;fill-rule:nonzero;stroke:none"
         id="path302" /></g><g
       id="g304"><path
         d="m 166.336,23.883 c 1.676,0 2.836,0.879 2.836,2.203 0,1.113 -0.856,1.898 -2.156,1.934 l -0.164,-0.129 c 1.136,0.023 1.921,0.797 1.921,1.851 0,1.219 -0.984,1.992 -2.402,1.992 -0.785,0 -1.676,-0.246 -2.32,-0.621 l 0.211,-0.679 c 0.679,0.339 1.394,0.515 1.957,0.515 0.984,0 1.699,-0.504 1.699,-1.289 0,-0.844 -0.82,-1.394 -1.945,-1.394 h -0.586 V 27.48 h 0.785 c 1.277,0 2.086,-0.55 2.086,-1.453 0,-0.855 -0.75,-1.336 -1.887,-1.336 -0.668,0 -1.559,0.164 -2.273,0.516 l -0.2,-0.738 c 0.739,-0.375 1.641,-0.586 2.438,-0.586 m 3.691,-1.793 h 0.797 c 0.387,0.949 0.598,2.133 0.598,3.222 h -0.949 c 0,-1.113 -0.164,-2.308 -0.446,-3.222 m 5.086,1.805 c 1.699,0 2.754,1.488 2.754,3.984 0,2.391 -1.019,3.867 -2.683,3.867 -1.723,0 -2.801,-1.5 -2.801,-3.984 0,-2.403 1.043,-3.867 2.73,-3.867 m 0.059,0.773 c -1.149,0 -1.863,1.207 -1.863,3.211 0,1.922 0.703,3.094 1.804,3.094 1.125,0 1.828,-1.219 1.828,-3.211 0,-1.922 -0.668,-3.094 -1.769,-3.094 m 6.691,-0.773 c 1.699,0 2.754,1.488 2.754,3.984 0,2.391 -1.019,3.867 -2.683,3.867 -1.723,0 -2.801,-1.5 -2.801,-3.984 0,-2.403 1.043,-3.867 2.73,-3.867 m 0.059,0.773 c -1.149,0 -1.863,1.207 -1.863,3.211 0,1.922 0.703,3.094 1.804,3.094 1.125,0 1.828,-1.219 1.828,-3.211 0,-1.922 -0.668,-3.094 -1.769,-3.094 m 6.691,-0.773 c 1.699,0 2.754,1.488 2.754,3.984 0,2.391 -1.019,3.867 -2.683,3.867 -1.723,0 -2.801,-1.5 -2.801,-3.984 0,-2.403 1.043,-3.867 2.73,-3.867 m 0.059,0.773 c -1.149,0 -1.863,1.207 -1.863,3.211 0,1.922 0.703,3.094 1.804,3.094 1.125,0 1.828,-1.219 1.828,-3.211 0,-1.922 -0.668,-3.094 -1.769,-3.094"
         style="fill:#000000;fill-opacity:1;fill-rule:nonzero;stroke:none"
         id="path306" /></g><g
       id="g308"><path
         d="m 240.586,23.883 c 1.676,0 2.836,0.879 2.836,2.203 0,1.113 -0.856,1.898 -2.156,1.934 l -0.164,-0.129 c 1.136,0.023 1.921,0.797 1.921,1.851 0,1.219 -0.984,1.992 -2.402,1.992 -0.785,0 -1.676,-0.246 -2.32,-0.621 l 0.211,-0.679 c 0.679,0.339 1.394,0.515 1.957,0.515 0.984,0 1.699,-0.504 1.699,-1.289 0,-0.844 -0.82,-1.394 -1.945,-1.394 h -0.586 V 27.48 h 0.785 c 1.277,0 2.086,-0.55 2.086,-1.453 0,-0.855 -0.75,-1.336 -1.887,-1.336 -0.668,0 -1.559,0.164 -2.273,0.516 l -0.2,-0.738 c 0.739,-0.375 1.641,-0.586 2.438,-0.586 m 3.691,-1.793 h 0.797 c 0.387,0.949 0.598,2.133 0.598,3.222 h -0.949 c 0,-1.113 -0.164,-2.308 -0.446,-3.222 m 5.086,1.805 c 1.699,0 2.754,1.488 2.754,3.984 0,2.391 -1.019,3.867 -2.683,3.867 -1.723,0 -2.801,-1.5 -2.801,-3.984 0,-2.403 1.043,-3.867 2.73,-3.867 m 0.059,0.773 c -1.149,0 -1.863,1.207 -1.863,3.211 0,1.922 0.703,3.094 1.804,3.094 1.125,0 1.828,-1.219 1.828,-3.211 0,-1.922 -0.668,-3.094 -1.769,-3.094 m 6.012,-0.773 c 1.699,0 2.847,0.96 2.847,2.46 0,1.43 -1.043,2.333 -2.754,2.333 -0.422,0 -0.843,-0.047 -1.23,-0.141 l 0.223,-0.281 0.128,2.589 h 3.27 v 0.786 h -4.102 l -0.187,-3.914 c 0.492,0.117 1.137,0.187 1.617,0.187 1.301,0 2.098,-0.598 2.098,-1.641 0,-0.984 -0.727,-1.582 -1.852,-1.582 -0.656,0 -1.383,0.188 -1.957,0.493 l -0.269,-0.727 c 0.679,-0.363 1.394,-0.562 2.168,-0.562 m 6.679,0 c 1.699,0 2.754,1.488 2.754,3.984 0,2.391 -1.019,3.867 -2.683,3.867 -1.723,0 -2.801,-1.5 -2.801,-3.984 0,-2.403 1.043,-3.867 2.73,-3.867 m 0.059,0.773 c -1.149,0 -1.863,1.207 -1.863,3.211 0,1.922 0.703,3.094 1.804,3.094 1.125,0 1.828,-1.219 1.828,-3.211 0,-1.922 -0.668,-3.094 -1.769,-3.094"
         style="fill:#000000;fill-opacity:1;fill-rule:nonzero;stroke:none"
         id="path310" /></g><g
       id="g312"><path
         d="m 315.586,23.883 c 1.676,0 2.836,0.879 2.836,2.203 0,1.113 -0.856,1.898 -2.156,1.934 l -0.164,-0.129 c 1.136,0.023 1.921,0.797 1.921,1.851 0,1.219 -0.984,1.992 -2.402,1.992 -0.785,0 -1.676,-0.246 -2.32,-0.621 l 0.211,-0.679 c 0.679,0.339 1.394,0.515 1.957,0.515 0.984,0 1.699,-0.504 1.699,-1.289 0,-0.844 -0.82,-1.394 -1.945,-1.394 h -0.586 V 27.48 h 0.785 c 1.277,0 2.086,-0.55 2.086,-1.453 0,-0.855 -0.75,-1.336 -1.887,-1.336 -0.668,0 -1.559,0.164 -2.273,0.516 l -0.2,-0.738 c 0.739,-0.375 1.641,-0.586 2.438,-0.586 m 3.691,-1.793 h 0.797 c 0.387,0.949 0.598,2.133 0.598,3.222 h -0.949 c 0,-1.113 -0.164,-2.308 -0.446,-3.222 m 4.172,1.851 h 0.879 v 7.7 h -0.527 l -2.719,-1.407 0.328,-0.632 2.332,1.113 -0.293,0.281 v -7.055 m 5.414,-0.046 c 1.699,0 2.754,1.488 2.754,3.984 0,2.391 -1.019,3.867 -2.683,3.867 -1.723,0 -2.801,-1.5 -2.801,-3.984 0,-2.403 1.043,-3.867 2.73,-3.867 m 0.059,0.773 c -1.149,0 -1.863,1.207 -1.863,3.211 0,1.922 0.703,3.094 1.804,3.094 1.125,0 1.828,-1.219 1.828,-3.211 0,-1.922 -0.668,-3.094 -1.769,-3.094 m 6.691,-0.773 c 1.699,0 2.754,1.488 2.754,3.984 0,2.391 -1.019,3.867 -2.683,3.867 -1.723,0 -2.801,-1.5 -2.801,-3.984 0,-2.403 1.043,-3.867 2.73,-3.867 m 0.059,0.773 c -1.149,0 -1.863,1.207 -1.863,3.211 0,1.922 0.703,3.094 1.804,3.094 1.125,0 1.828,-1.219 1.828,-3.211 0,-1.922 -0.668,-3.094 -1.769,-3.094"
         style="fill:#000000;fill-opacity:1;fill-rule:nonzero;stroke:none"
         id="path314" /></g><g
       id="g316"><path
         d="M 104.212,39.75 V 40.5"
         style="fill:none;stroke:#000000;stroke-width:1;stroke-linecap:square;stroke-linejoin:bevel;stroke-miterlimit:10;stroke-dasharray:none;stroke-opacity:1"
         id="path318" /></g><g
       id="g320"><path
         d="M 177.9,39.75 V 40.5"
         style="fill:none;stroke:#000000;stroke-width:1;stroke-linecap:square;stroke-linejoin:bevel;stroke-miterlimit:10;stroke-dasharray:none;stroke-opacity:1"
         id="path322" /></g><g
       id="g324"><path
         d="M 251.588,39.75 V 40.5"
         style="fill:none;stroke:#000000;stroke-width:1;stroke-linecap:square;stroke-linejoin:bevel;stroke-miterlimit:10;stroke-dasharray:none;stroke-opacity:1"
         id="path326" /></g><g
       id="g328"><path
         d="M 325.275,39.75 V 40.5"
         style="fill:none;stroke:#000000;stroke-width:1;stroke-linecap:square;stroke-linejoin:bevel;stroke-miterlimit:10;stroke-dasharray:none;stroke-opacity:1"
         id="path330" /></g><g
       id="g332"><path
         d="M 60,39.75 H 354.75"
         style="fill:none;stroke:#000000;stroke-width:1;stroke-linecap:square;stroke-linejoin:bevel;stroke-miterlimit:10;stroke-dasharray:none;stroke-opacity:1"
         id="path334" /></g><g
       id="g336"><path
         d="M 104.212,39.75 V 46.5"
         style="fill:none;stroke:#000000;stroke-width:1;stroke-linecap:square;stroke-linejoin:bevel;stroke-miterlimit:10;stroke-dasharray:none;stroke-opacity:1"
         id="path338" /></g><g
       id="g340"><path
         d="M 177.9,39.75 V 46.5"
         style="fill:none;stroke:#000000;stroke-width:1;stroke-linecap:square;stroke-linejoin:bevel;stroke-miterlimit:10;stroke-dasharray:none;stroke-opacity:1"
         id="path342" /></g><g
       id="g344"><path
         d="M 251.588,39.75 V 46.5"
         style="fill:none;stroke:#000000;stroke-width:1;stroke-linecap:square;stroke-linejoin:bevel;stroke-miterlimit:10;stroke-dasharray:none;stroke-opacity:1"
         id="path346" /></g><g
       id="g348"><path
         d="M 325.275,39.75 V 46.5"
         style="fill:none;stroke:#000000;stroke-width:1;stroke-linecap:square;stroke-linejoin:bevel;stroke-miterlimit:10;stroke-dasharray:none;stroke-opacity:1"
         id="path350" /></g><g
       id="g352"><path
         d="M 74.737,39.75 V 43.5"
         style="fill:none;stroke:#000000;stroke-width:1;stroke-linecap:square;stroke-linejoin:bevel;stroke-miterlimit:10;stroke-dasharray:none;stroke-opacity:1"
         id="path354" /></g><g
       id="g356"><path
         d="M 89.475,39.75 V 43.5"
         style="fill:none;stroke:#000000;stroke-width:1;stroke-linecap:square;stroke-linejoin:bevel;stroke-miterlimit:10;stroke-dasharray:none;stroke-opacity:1"
         id="path358" /></g><g
       id="g360"><path
         d="M 118.95,39.75 V 43.5"
         style="fill:none;stroke:#000000;stroke-width:1;stroke-linecap:square;stroke-linejoin:bevel;stroke-miterlimit:10;stroke-dasharray:none;stroke-opacity:1"
         id="path362" /></g><g
       id="g364"><path
         d="M 133.687,39.75 V 43.5"
         style="fill:none;stroke:#000000;stroke-width:1;stroke-linecap:square;stroke-linejoin:bevel;stroke-miterlimit:10;stroke-dasharray:none;stroke-opacity:1"
         id="path366" /></g><g
       id="g368"><path
         d="M 148.425,39.75 V 43.5"
         style="fill:none;stroke:#000000;stroke-width:1;stroke-linecap:square;stroke-linejoin:bevel;stroke-miterlimit:10;stroke-dasharray:none;stroke-opacity:1"
         id="path370" /></g><g
       id="g372"><path
         d="M 163.162,39.75 V 43.5"
         style="fill:none;stroke:#000000;stroke-width:1;stroke-linecap:square;stroke-linejoin:bevel;stroke-miterlimit:10;stroke-dasharray:none;stroke-opacity:1"
         id="path374" /></g><g
       id="g376"><path
         d="M 192.637,39.75 V 43.5"
         style="fill:none;stroke:#000000;stroke-width:1;stroke-linecap:square;stroke-linejoin:bevel;stroke-miterlimit:10;stroke-dasharray:none;stroke-opacity:1"
         id="path378" /></g><g
       id="g380"><path
         d="M 207.375,39.75 V 43.5"
         style="fill:none;stroke:#000000;stroke-width:1;stroke-linecap:square;stroke-linejoin:bevel;stroke-miterlimit:10;stroke-dasharray:none;stroke-opacity:1"
         id="path382" /></g><g
       id="g384"><path
         d="M 222.112,39.75 V 43.5"
         style="fill:none;stroke:#000000;stroke-width:1;stroke-linecap:square;stroke-linejoin:bevel;stroke-miterlimit:10;stroke-dasharray:none;stroke-opacity:1"
         id="path386" /></g><g
       id="g388"><path
         d="M 236.85,39.75 V 43.5"
         style="fill:none;stroke:#000000;stroke-width:1;stroke-linecap:square;stroke-linejoin:bevel;stroke-miterlimit:10;stroke-dasharray:none;stroke-opacity:1"
         id="path390" /></g><g
       id="g392"><path
         d="M 266.325,39.75 V 43.5"
         style="fill:none;stroke:#000000;stroke-width:1;stroke-linecap:square;stroke-linejoin:bevel;stroke-miterlimit:10;stroke-dasharray:none;stroke-opacity:1"
         id="path394" /></g><g
       id="g396"><path
         d="M 281.062,39.75 V 43.5"
         style="fill:none;stroke:#000000;stroke-width:1;stroke-linecap:square;stroke-linejoin:bevel;stroke-miterlimit:10;stroke-dasharray:none;stroke-opacity:1"
         id="path398" /></g><g
       id="g400"><path
         d="M 295.8,39.75 V 43.5"
         style="fill:none;stroke:#000000;stroke-width:1;stroke-linecap:square;stroke-linejoin:bevel;stroke-miterlimit:10;stroke-dasharray:none;stroke-opacity:1"
         id="path402" /></g><g
       id="g404"><path
         d="M 310.537,39.75 V 43.5"
         style="fill:none;stroke:#000000;stroke-width:1;stroke-linecap:square;stroke-linejoin:bevel;stroke-miterlimit:10;stroke-dasharray:none;stroke-opacity:1"
         id="path406" /></g><g
       id="g408"><path
         d="M 340.012,39.75 V 43.5"
         style="fill:none;stroke:#000000;stroke-width:1;stroke-linecap:square;stroke-linejoin:bevel;stroke-miterlimit:10;stroke-dasharray:none;stroke-opacity:1"
         id="path410" /></g><g
       id="g412"><path
         d="m 104.212,264 v -0.75"
         style="fill:none;stroke:#000000;stroke-width:1;stroke-linecap:square;stroke-linejoin:bevel;stroke-miterlimit:10;stroke-dasharray:none;stroke-opacity:1"
         id="path414" /></g><g
       id="g416"><path
         d="m 177.9,264 v -0.75"
         style="fill:none;stroke:#000000;stroke-width:1;stroke-linecap:square;stroke-linejoin:bevel;stroke-miterlimit:10;stroke-dasharray:none;stroke-opacity:1"
         id="path418" /></g><g
       id="g420"><path
         d="m 251.588,264 v -0.75"
         style="fill:none;stroke:#000000;stroke-width:1;stroke-linecap:square;stroke-linejoin:bevel;stroke-miterlimit:10;stroke-dasharray:none;stroke-opacity:1"
         id="path422" /></g><g
       id="g424"><path
         d="m 325.275,264 v -0.75"
         style="fill:none;stroke:#000000;stroke-width:1;stroke-linecap:square;stroke-linejoin:bevel;stroke-miterlimit:10;stroke-dasharray:none;stroke-opacity:1"
         id="path426" /></g><g
       id="g428"><path
         d="M 60,264 H 354.75"
         style="fill:none;stroke:#000000;stroke-width:1;stroke-linecap:square;stroke-linejoin:bevel;stroke-miterlimit:10;stroke-dasharray:none;stroke-opacity:1"
         id="path430" /></g><g
       id="g432"><path
         d="m 104.212,264 v -6.75"
         style="fill:none;stroke:#000000;stroke-width:1;stroke-linecap:square;stroke-linejoin:bevel;stroke-miterlimit:10;stroke-dasharray:none;stroke-opacity:1"
         id="path434" /></g><g
       id="g436"><path
         d="m 177.9,264 v -6.75"
         style="fill:none;stroke:#000000;stroke-width:1;stroke-linecap:square;stroke-linejoin:bevel;stroke-miterlimit:10;stroke-dasharray:none;stroke-opacity:1"
         id="path438" /></g><g
       id="g440"><path
         d="m 251.588,264 v -6.75"
         style="fill:none;stroke:#000000;stroke-width:1;stroke-linecap:square;stroke-linejoin:bevel;stroke-miterlimit:10;stroke-dasharray:none;stroke-opacity:1"
         id="path442" /></g><g
       id="g444"><path
         d="m 325.275,264 v -6.75"
         style="fill:none;stroke:#000000;stroke-width:1;stroke-linecap:square;stroke-linejoin:bevel;stroke-miterlimit:10;stroke-dasharray:none;stroke-opacity:1"
         id="path446" /></g><g
       id="g448"><path
         d="m 74.737,264 v -3.75"
         style="fill:none;stroke:#000000;stroke-width:1;stroke-linecap:square;stroke-linejoin:bevel;stroke-miterlimit:10;stroke-dasharray:none;stroke-opacity:1"
         id="path450" /></g><g
       id="g452"><path
         d="m 89.475,264 v -3.75"
         style="fill:none;stroke:#000000;stroke-width:1;stroke-linecap:square;stroke-linejoin:bevel;stroke-miterlimit:10;stroke-dasharray:none;stroke-opacity:1"
         id="path454" /></g><g
       id="g456"><path
         d="m 118.95,264 v -3.75"
         style="fill:none;stroke:#000000;stroke-width:1;stroke-linecap:square;stroke-linejoin:bevel;stroke-miterlimit:10;stroke-dasharray:none;stroke-opacity:1"
         id="path458" /></g><g
       id="g460"><path
         d="m 133.687,264 v -3.75"
         style="fill:none;stroke:#000000;stroke-width:1;stroke-linecap:square;stroke-linejoin:bevel;stroke-miterlimit:10;stroke-dasharray:none;stroke-opacity:1"
         id="path462" /></g><g
       id="g464"><path
         d="m 148.425,264 v -3.75"
         style="fill:none;stroke:#000000;stroke-width:1;stroke-linecap:square;stroke-linejoin:bevel;stroke-miterlimit:10;stroke-dasharray:none;stroke-opacity:1"
         id="path466" /></g><g
       id="g468"><path
         d="m 163.162,264 v -3.75"
         style="fill:none;stroke:#000000;stroke-width:1;stroke-linecap:square;stroke-linejoin:bevel;stroke-miterlimit:10;stroke-dasharray:none;stroke-opacity:1"
         id="path470" /></g><g
       id="g472"><path
         d="m 192.637,264 v -3.75"
         style="fill:none;stroke:#000000;stroke-width:1;stroke-linecap:square;stroke-linejoin:bevel;stroke-miterlimit:10;stroke-dasharray:none;stroke-opacity:1"
         id="path474" /></g><g
       id="g476"><path
         d="m 207.375,264 v -3.75"
         style="fill:none;stroke:#000000;stroke-width:1;stroke-linecap:square;stroke-linejoin:bevel;stroke-miterlimit:10;stroke-dasharray:none;stroke-opacity:1"
         id="path478" /></g><g
       id="g480"><path
         d="m 222.112,264 v -3.75"
         style="fill:none;stroke:#000000;stroke-width:1;stroke-linecap:square;stroke-linejoin:bevel;stroke-miterlimit:10;stroke-dasharray:none;stroke-opacity:1"
         id="path482" /></g><g
       id="g484"><path
         d="m 236.85,264 v -3.75"
         style="fill:none;stroke:#000000;stroke-width:1;stroke-linecap:square;stroke-linejoin:bevel;stroke-miterlimit:10;stroke-dasharray:none;stroke-opacity:1"
         id="path486" /></g><g
       id="g488"><path
         d="m 266.325,264 v -3.75"
         style="fill:none;stroke:#000000;stroke-width:1;stroke-linecap:square;stroke-linejoin:bevel;stroke-miterlimit:10;stroke-dasharray:none;stroke-opacity:1"
         id="path490" /></g><g
       id="g492"><path
         d="m 281.062,264 v -3.75"
         style="fill:none;stroke:#000000;stroke-width:1;stroke-linecap:square;stroke-linejoin:bevel;stroke-miterlimit:10;stroke-dasharray:none;stroke-opacity:1"
         id="path494" /></g><g
       id="g496"><path
         d="m 295.8,264 v -3.75"
         style="fill:none;stroke:#000000;stroke-width:1;stroke-linecap:square;stroke-linejoin:bevel;stroke-miterlimit:10;stroke-dasharray:none;stroke-opacity:1"
         id="path498" /></g><g
       id="g500"><path
         d="m 310.537,264 v -3.75"
         style="fill:none;stroke:#000000;stroke-width:1;stroke-linecap:square;stroke-linejoin:bevel;stroke-miterlimit:10;stroke-dasharray:none;stroke-opacity:1"
         id="path502" /></g><g
       id="g504"><path
         d="m 340.012,264 v -3.75"
         style="fill:none;stroke:#000000;stroke-width:1;stroke-linecap:square;stroke-linejoin:bevel;stroke-miterlimit:10;stroke-dasharray:none;stroke-opacity:1"
         id="path506" /></g><g
       id="g508"><path
         d="M 223.5,250.5 H 312 V 186 h -88.5 z"
         style="fill:#ffffff;fill-opacity:0.8;fill-rule:nonzero;stroke:none"
         id="path510" /></g><g
       id="g512"><path
         d="M 223.5,250.5 H 312 V 186 h -88.5 z"
         style="fill:none;stroke:#000000;stroke-width:1;stroke-linecap:butt;stroke-linejoin:miter;stroke-miterlimit:10;stroke-dasharray:none;stroke-opacity:1"
         id="path514" /></g><g
       id="g516"><path
         d="m 231.75,240.75 h 24"
         style="fill:none;stroke:#000000;stroke-width:2;stroke-linecap:butt;stroke-linejoin:miter;stroke-miterlimit:10;stroke-dasharray:none;stroke-opacity:1"
         id="path518" /></g><g
       id="g520"><path
         d="m 259.559,237 h 0.785 l 2.039,5.719 h -0.082 L 264.234,237 h 0.832 l -2.191,6.246 h -0.973 L 259.559,237 m 1.183,1.852 h 3.117 v 0.644 h -3.117 v -0.644 m 5.59,-1.852 h 0.738 v 5.59 h 1.114 c 0.902,0 1.511,-0.586 1.511,-1.465 0,-0.855 -0.504,-1.301 -1.429,-1.301 h -1.465 v -0.644 h 1.336 c 1.394,0 2.332,0.82 2.332,2.074 0,1.195 -0.891,1.992 -2.203,1.992 h -1.934 V 237"
         style="fill:#000000;fill-opacity:1;fill-rule:nonzero;stroke:none"
         id="path522" /></g><g
       id="g524"><path
         d="m 231.75,229.5 h 24"
         style="fill:none;stroke:#ff0000;stroke-width:2;stroke-linecap:butt;stroke-linejoin:miter;stroke-miterlimit:10;stroke-dasharray:none;stroke-opacity:1"
         id="path526" /></g><g
       id="g528"><path
         d="m 260.332,225.75 h 0.738 v 5.59 h 1.114 c 0.902,0 1.511,-0.586 1.511,-1.465 0,-0.855 -0.504,-1.301 -1.429,-1.301 h -1.465 v -0.644 h 1.336 c 1.394,0 2.332,0.82 2.332,2.074 0,1.195 -0.891,1.992 -2.203,1.992 h -1.934 v -6.246 m 6.141,-0.059 c 0.234,0 0.515,0.059 0.691,0.153 L 267,226.348 c -0.105,-0.047 -0.211,-0.071 -0.316,-0.071 -0.305,0 -0.469,0.2 -0.469,0.539 v 5.579 H 265.5 v -5.672 c 0,-0.621 0.387,-1.032 0.973,-1.032 m 3.949,0.059 h 0.504 v 2.812 c 0,1.043 -0.61,1.618 -1.735,1.618 -0.574,0 -1.183,-0.153 -1.652,-0.422 l 0.176,-0.528 c 0.457,0.2 0.902,0.293 1.324,0.293 0.773,0 1.172,-0.316 1.172,-0.961 v -2.308 l 0.211,-0.504 m -1.535,-0.094 c 1.031,0 1.816,0.656 1.945,1.617 l -0.258,0.118 c -0.14,-0.657 -0.726,-1.102 -1.476,-1.102 -0.575,0 -0.961,0.293 -0.961,0.715 0,0.551 0.644,0.773 2.179,0.773 v 0.504 c -2.015,0 -2.894,-0.41 -2.894,-1.347 0,-0.774 0.574,-1.278 1.465,-1.278 m 5.59,0.047 c 0.304,0 0.597,0.07 0.808,0.164 l -0.164,0.516 c -0.141,-0.059 -0.34,-0.094 -0.492,-0.094 -0.445,0 -0.738,0.293 -0.738,0.715 v 4.348 h -0.727 v -4.442 c 0,-0.715 0.527,-1.207 1.313,-1.207 m -1.899,3.785 h 2.496 v 0.598 h -2.496 v -0.598 m 5.367,-3.832 c 0.493,0 1.043,0.117 1.43,0.328 l -0.164,0.516 c -0.34,-0.152 -0.762,-0.258 -1.137,-0.258 -1.019,0 -1.617,0.68 -1.617,1.805 0,0.973 0.434,1.512 1.231,1.512 0.738,0 1.171,-0.469 1.171,-1.301 h -2.531 v -0.539 h 3.164 c 0.024,0.14 0.035,0.445 0.035,0.621 0,1.09 -0.715,1.84 -1.781,1.84 -1.207,0 -2.027,-0.95 -2.027,-2.285 0,-1.383 0.855,-2.239 2.226,-2.239 m 6.633,-1.511 0.516,0.304 c -0.75,1.313 -1.055,2.414 -1.055,3.996 0,1.336 0.305,2.391 1.055,3.727 l -0.539,0.316 c -0.914,-1.5 -1.243,-2.672 -1.243,-4.113 0,-1.676 0.352,-2.836 1.266,-4.23 m 3.914,1.511 c 1.395,0 2.262,1.231 2.262,3.258 0,1.969 -0.844,3.164 -2.203,3.164 -1.406,0 -2.274,-1.23 -2.274,-3.246 0,-1.98 0.844,-3.176 2.215,-3.176 m 0.059,0.645 c -0.938,0 -1.524,0.972 -1.524,2.613 0,1.582 0.563,2.531 1.477,2.531 0.914,0 1.488,-0.996 1.488,-2.613 0,-1.582 -0.551,-2.531 -1.441,-2.531 m 5.203,-0.598 h 0.715 v 6.293 h -0.434 l -2.226,-1.16 0.269,-0.504 1.91,0.902 -0.234,0.223 v -5.754 m 4.488,-0.047 c 1.395,0 2.262,1.231 2.262,3.258 0,1.969 -0.844,3.164 -2.203,3.164 -1.406,0 -2.274,-1.23 -2.274,-3.246 0,-1.98 0.844,-3.176 2.215,-3.176 m 0.059,0.645 c -0.938,0 -1.524,0.972 -1.524,2.613 0,1.582 0.563,2.531 1.477,2.531 0.914,0 1.488,-0.996 1.488,-2.613 0,-1.582 -0.551,-2.531 -1.441,-2.531 m 4.078,-2.156 c 0.926,1.394 1.266,2.554 1.266,4.23 0,1.441 -0.329,2.613 -1.231,4.113 l -0.551,-0.316 c 0.75,-1.336 1.055,-2.391 1.055,-3.727 0,-1.582 -0.305,-2.683 -1.055,-3.996 l 0.516,-0.304"
         style="fill:#000000;fill-opacity:1;fill-rule:nonzero;stroke:none"
         id="path530" /></g><g
       id="g532"><path
         d="m 231.75,218.25 h 24"
         style="fill:none;stroke:#00ff00;stroke-width:2;stroke-linecap:butt;stroke-linejoin:miter;stroke-miterlimit:10;stroke-dasharray:none;stroke-opacity:1"
         id="path534" /></g><g
       id="g536"><path
         d="m 260.332,214.5 h 0.738 v 5.59 h 1.114 c 0.902,0 1.511,-0.586 1.511,-1.465 0,-0.855 -0.504,-1.301 -1.429,-1.301 h -1.465 v -0.644 h 1.336 c 1.394,0 2.332,0.82 2.332,2.074 0,1.195 -0.891,1.992 -2.203,1.992 h -1.934 V 214.5 m 6.141,-0.059 c 0.234,0 0.515,0.059 0.691,0.153 L 267,215.098 c -0.105,-0.047 -0.211,-0.071 -0.316,-0.071 -0.305,0 -0.469,0.2 -0.469,0.539 v 5.579 H 265.5 v -5.672 c 0,-0.621 0.387,-1.032 0.973,-1.032 m 3.949,0.059 h 0.504 v 2.812 c 0,1.043 -0.61,1.618 -1.735,1.618 -0.574,0 -1.183,-0.153 -1.652,-0.422 l 0.176,-0.528 c 0.457,0.2 0.902,0.293 1.324,0.293 0.773,0 1.172,-0.316 1.172,-0.961 v -2.308 l 0.211,-0.504 m -1.535,-0.094 c 1.031,0 1.816,0.656 1.945,1.617 l -0.258,0.118 c -0.14,-0.657 -0.726,-1.102 -1.476,-1.102 -0.575,0 -0.961,0.293 -0.961,0.715 0,0.551 0.644,0.773 2.179,0.773 v 0.504 c -2.015,0 -2.894,-0.41 -2.894,-1.347 0,-0.774 0.574,-1.278 1.465,-1.278 m 5.59,0.047 c 0.304,0 0.597,0.07 0.808,0.164 l -0.164,0.516 c -0.141,-0.059 -0.34,-0.094 -0.492,-0.094 -0.445,0 -0.738,0.293 -0.738,0.715 v 4.348 h -0.727 v -4.442 c 0,-0.715 0.527,-1.207 1.313,-1.207 m -1.899,3.785 h 2.496 v 0.598 h -2.496 v -0.598 m 5.367,-3.832 c 0.493,0 1.043,0.117 1.43,0.328 l -0.164,0.516 c -0.34,-0.152 -0.762,-0.258 -1.137,-0.258 -1.019,0 -1.617,0.68 -1.617,1.805 0,0.973 0.434,1.512 1.231,1.512 0.738,0 1.171,-0.469 1.171,-1.301 h -2.531 v -0.539 h 3.164 c 0.024,0.14 0.035,0.445 0.035,0.621 0,1.09 -0.715,1.84 -1.781,1.84 -1.207,0 -2.027,-0.95 -2.027,-2.285 0,-1.383 0.855,-2.239 2.226,-2.239 m 6.633,-1.511 0.516,0.304 c -0.75,1.313 -1.055,2.414 -1.055,3.996 0,1.336 0.305,2.391 1.055,3.727 l -0.539,0.316 c -0.914,-1.5 -1.243,-2.672 -1.243,-4.113 0,-1.676 0.352,-2.836 1.266,-4.23 m 3.914,1.511 c 1.395,0 2.262,1.231 2.262,3.258 0,1.969 -0.844,3.164 -2.203,3.164 -1.406,0 -2.274,-1.23 -2.274,-3.246 0,-1.98 0.844,-3.176 2.215,-3.176 m 0.059,0.645 c -0.938,0 -1.524,0.972 -1.524,2.613 0,1.582 0.563,2.531 1.477,2.531 0.914,0 1.488,-0.996 1.488,-2.613 0,-1.582 -0.551,-2.531 -1.441,-2.531 m 5.941,-0.645 c 1.395,0 2.262,1.231 2.262,3.258 0,1.969 -0.844,3.164 -2.203,3.164 -1.406,0 -2.274,-1.23 -2.274,-3.246 0,-1.98 0.844,-3.176 2.215,-3.176 m 0.059,0.645 c -0.938,0 -1.524,0.972 -1.524,2.613 0,1.582 0.563,2.531 1.477,2.531 0.914,0 1.488,-0.996 1.488,-2.613 0,-1.582 -0.551,-2.531 -1.441,-2.531 m 5.203,-0.598 h 0.715 v 6.293 h -0.434 l -2.226,-1.16 0.269,-0.504 1.91,0.902 -0.234,0.223 v -5.754 m 2.625,-1.558 c 0.926,1.394 1.266,2.554 1.266,4.23 0,1.441 -0.329,2.613 -1.231,4.113 l -0.551,-0.316 c 0.75,-1.336 1.055,-2.391 1.055,-3.727 0,-1.582 -0.305,-2.683 -1.055,-3.996 l 0.516,-0.304"
         style="fill:#000000;fill-opacity:1;fill-rule:nonzero;stroke:none"
         id="path538" /></g><g
       id="g540"><path
         d="m 231.75,207 h 24"
         style="fill:none;stroke:#0000ff;stroke-width:2;stroke-linecap:butt;stroke-linejoin:miter;stroke-miterlimit:10;stroke-dasharray:none;stroke-opacity:1"
         id="path542" /></g><g
       id="g544"><path
         d="m 260.332,203.25 h 0.738 v 5.59 h 1.114 c 0.902,0 1.511,-0.586 1.511,-1.465 0,-0.855 -0.504,-1.301 -1.429,-1.301 h -1.465 v -0.644 h 1.336 c 1.394,0 2.332,0.82 2.332,2.074 0,1.195 -0.891,1.992 -2.203,1.992 h -1.934 v -6.246 m 6.141,-0.059 c 0.234,0 0.515,0.059 0.691,0.153 L 267,203.848 c -0.105,-0.047 -0.211,-0.071 -0.316,-0.071 -0.305,0 -0.469,0.2 -0.469,0.539 v 5.579 H 265.5 v -5.672 c 0,-0.621 0.387,-1.032 0.973,-1.032 m 3.949,0.059 h 0.504 v 2.812 c 0,1.043 -0.61,1.618 -1.735,1.618 -0.574,0 -1.183,-0.153 -1.652,-0.422 l 0.176,-0.528 c 0.457,0.2 0.902,0.293 1.324,0.293 0.773,0 1.172,-0.316 1.172,-0.961 v -2.308 l 0.211,-0.504 m -1.535,-0.094 c 1.031,0 1.816,0.656 1.945,1.617 l -0.258,0.118 c -0.14,-0.657 -0.726,-1.102 -1.476,-1.102 -0.575,0 -0.961,0.293 -0.961,0.715 0,0.551 0.644,0.773 2.179,0.773 v 0.504 c -2.015,0 -2.894,-0.41 -2.894,-1.347 0,-0.774 0.574,-1.278 1.465,-1.278 m 5.59,0.047 c 0.304,0 0.597,0.07 0.808,0.164 l -0.164,0.516 c -0.141,-0.059 -0.34,-0.094 -0.492,-0.094 -0.445,0 -0.738,0.293 -0.738,0.715 v 4.348 h -0.727 v -4.442 c 0,-0.715 0.527,-1.207 1.313,-1.207 m -1.899,3.785 h 2.496 v 0.598 h -2.496 v -0.598 m 5.367,-3.832 c 0.493,0 1.043,0.117 1.43,0.328 L 279.211,204 c -0.34,-0.152 -0.762,-0.258 -1.137,-0.258 -1.019,0 -1.617,0.68 -1.617,1.805 0,0.973 0.434,1.512 1.231,1.512 0.738,0 1.171,-0.469 1.171,-1.301 h -2.531 v -0.539 h 3.164 c 0.024,0.14 0.035,0.445 0.035,0.621 0,1.09 -0.715,1.84 -1.781,1.84 -1.207,0 -2.027,-0.95 -2.027,-2.285 0,-1.383 0.855,-2.239 2.226,-2.239 m 6.633,-1.511 0.516,0.304 c -0.75,1.313 -1.055,2.414 -1.055,3.996 0,1.336 0.305,2.391 1.055,3.727 l -0.539,0.316 c -0.914,-1.5 -1.243,-2.672 -1.243,-4.113 0,-1.676 0.352,-2.836 1.266,-4.23 m 3.176,1.558 h 0.715 v 6.293 h -0.434 l -2.226,-1.16 0.269,-0.504 1.91,0.902 -0.234,0.223 v -5.754 m 4.488,-0.047 c 1.395,0 2.262,1.231 2.262,3.258 0,1.969 -0.844,3.164 -2.203,3.164 -1.406,0 -2.274,-1.23 -2.274,-3.246 0,-1.98 0.844,-3.176 2.215,-3.176 m 0.059,0.645 c -0.938,0 -1.524,0.972 -1.524,2.613 0,1.582 0.563,2.531 1.477,2.531 0.914,0 1.488,-0.996 1.488,-2.613 0,-1.582 -0.551,-2.531 -1.441,-2.531 m 5.941,-0.645 c 1.395,0 2.262,1.231 2.262,3.258 0,1.969 -0.844,3.164 -2.203,3.164 -1.406,0 -2.274,-1.23 -2.274,-3.246 0,-1.98 0.844,-3.176 2.215,-3.176 m 0.059,0.645 c -0.938,0 -1.524,0.972 -1.524,2.613 0,1.582 0.563,2.531 1.477,2.531 0.914,0 1.488,-0.996 1.488,-2.613 0,-1.582 -0.551,-2.531 -1.441,-2.531 m 4.078,-2.156 c 0.926,1.394 1.266,2.554 1.266,4.23 0,1.441 -0.329,2.613 -1.231,4.113 l -0.551,-0.316 c 0.75,-1.336 1.055,-2.391 1.055,-3.727 0,-1.582 -0.305,-2.683 -1.055,-3.996 l 0.516,-0.304"
         style="fill:#000000;fill-opacity:1;fill-rule:nonzero;stroke:none"
         id="path546" /></g><g
       id="g548"><path
         d="m 231.75,195.75 h 24"
         style="fill:none;stroke:#00ffff;stroke-width:2;stroke-linecap:butt;stroke-linejoin:miter;stroke-miterlimit:10;stroke-dasharray:none;stroke-opacity:1"
         id="path550" /></g><g
       id="g552"><path
         d="m 261.867,191.906 c 1.395,0 2.297,0.715 2.297,1.817 0,2.203 -3.492,1.324 -3.492,2.941 0,0.656 0.527,1.008 1.476,1.008 0.54,0 1.114,-0.106 1.559,-0.293 l 0.223,0.586 c -0.528,0.234 -1.125,0.363 -1.723,0.363 -1.395,0 -2.297,-0.691 -2.297,-1.781 0,-2.145 3.481,-1.348 3.481,-2.942 0,-0.621 -0.539,-1.031 -1.477,-1.031 -0.574,0 -1.277,0.153 -1.887,0.41 l -0.222,-0.586 c 0.691,-0.316 1.394,-0.492 2.062,-0.492 m 5.531,0 c 1.207,0 2.016,0.938 2.016,2.344 0,1.301 -0.738,2.18 -1.863,2.18 -0.61,0 -1.196,-0.27 -1.571,-0.739 l 0.165,-0.457 c 0.316,0.352 0.761,0.563 1.218,0.563 0.809,0 1.336,-0.645 1.336,-1.641 0,-0.972 -0.48,-1.617 -1.254,-1.617 -0.656,0 -1.195,0.422 -1.347,1.066 l -0.293,-0.503 c 0.199,-0.75 0.82,-1.196 1.593,-1.196 m -1.898,-1.863 h 0.715 v 5.789 l -0.211,0.504 H 265.5 v -6.293 m 8.203,1.957 h 0.727 v 2.848 c 0,0.961 -0.645,1.582 -1.618,1.582 -0.621,0 -1.242,-0.27 -1.71,-0.809 l 0.175,-0.457 c 0.364,0.422 0.832,0.633 1.336,0.633 0.703,0 1.09,-0.399 1.09,-1.102 V 192 m -2.953,0 h 0.715 v 6.645 H 270.75 V 192 m 7.195,-0.094 c 0.493,0 1.043,0.117 1.43,0.328 l -0.164,0.516 c -0.34,-0.152 -0.762,-0.258 -1.137,-0.258 -1.019,0 -1.617,0.68 -1.617,1.805 0,0.973 0.434,1.512 1.231,1.512 0.738,0 1.171,-0.469 1.171,-1.301 h -2.531 v -0.539 h 3.164 c 0.024,0.14 0.035,0.445 0.035,0.621 0,1.09 -0.715,1.84 -1.781,1.84 -1.207,0 -2.027,-0.95 -2.027,-2.285 0,-1.383 0.855,-2.239 2.226,-2.239 M 281.25,192 h 0.715 v 3.328 l -0.129,1.008 H 281.25 V 192 m 0.551,2.812 c 0.258,0.551 0.773,0.879 1.371,0.879 0.176,0 0.328,-0.023 0.48,-0.07 l 0.176,0.656 c -0.187,0.071 -0.375,0.106 -0.574,0.106 -0.586,0 -1.125,-0.317 -1.453,-0.844 v -0.727 m 5.144,-2.906 c 0.493,0 1.043,0.117 1.43,0.328 l -0.164,0.516 c -0.34,-0.152 -0.762,-0.258 -1.137,-0.258 -1.019,0 -1.617,0.68 -1.617,1.805 0,0.973 0.434,1.512 1.231,1.512 0.738,0 1.171,-0.469 1.171,-1.301 h -2.531 v -0.539 h 3.164 c 0.024,0.14 0.035,0.445 0.035,0.621 0,1.09 -0.715,1.84 -1.781,1.84 -1.207,0 -2.027,-0.95 -2.027,-2.285 0,-1.383 0.855,-2.239 2.226,-2.239"
         style="fill:#000000;fill-opacity:1;fill-rule:nonzero;stroke:none"
         id="path554" /></g></g></svg>
