<?xml version="1.0" encoding="UTF-8" standalone="no"?>
<svg width="134.144mm" height="101.071mm"
 viewBox="0 0 506 381"
 xmlns="http://www.w3.org/2000/svg" xmlns:xlink="http://www.w3.org/1999/xlink"  version="1.2" baseProfile="tiny">
<title>Calcite_AP_Plate211_Sphere</title>
<desc>Generated with QtiPlot</desc>
<defs>
</defs>
<g fill="none" stroke="black" stroke-width="1" fill-rule="evenodd" stroke-linecap="square" stroke-linejoin="bevel" >

<g fill="#ffffff" fill-opacity="1" stroke="none" transform="matrix(1,0,0,1,0,0)"
font-family="Noto Sans [MONO]" font-size="13.3333" font-weight="400" font-style="normal" 
>
<path vector-effect="non-scaling-stroke" fill-rule="evenodd" d="M0,0 L507,0 L507,382 L0,382 L0,0"/>
</g>

<g fill="none" stroke="#000000" stroke-opacity="1" stroke-width="1" stroke-linecap="square" stroke-linejoin="bevel" transform="matrix(1,0,0,1,0,0)"
font-family="Noto Sans [MONO]" font-size="13.3333" font-weight="400" font-style="normal" 
>
</g>

<g fill="#ffffff" fill-opacity="0" stroke="none" transform="matrix(1,0,0,1,0,0)"
font-family="Noto Sans [MONO]" font-size="13.3333" font-weight="400" font-style="normal" 
>
<path vector-effect="non-scaling-stroke" fill-rule="evenodd" d="M5,5 L502,5 L502,372 L5,372 L5,5"/>
</g>

<g fill="none" stroke="none" transform="matrix(1,0,0,1,0,0)"
font-family="Noto Sans [MONO]" font-size="13.3333" font-weight="400" font-style="normal" 
>
<path vector-effect="non-scaling-stroke" fill-rule="evenodd" d="M5,5 L502,5 L502,372 L5,372 L5,5"/>
</g>

<g fill="none" stroke="#000000" stroke-opacity="1" stroke-width="1" stroke-linecap="square" stroke-linejoin="bevel" transform="matrix(1,0,0,1,0,0)"
font-family="Noto Sans [MONO]" font-size="13.3333" font-weight="400" font-style="normal" 
>
</g>

<g fill="#ffffff" fill-opacity="0" stroke="none" transform="matrix(1,0,0,1,0,0)"
font-family="Noto Sans [MONO]" font-size="13.3333" font-weight="400" font-style="normal" 
>
<path vector-effect="non-scaling-stroke" fill-rule="evenodd" d="M80,15 L482,15 L482,314 L80,314 L80,15"/>
</g>

<g fill="none" stroke="#000000" stroke-opacity="1" stroke-width="1" stroke-linecap="square" stroke-linejoin="bevel" transform="matrix(1,0,0,1,0,0)"
font-family="Noto Sans [MONO]" font-size="13.3333" font-weight="400" font-style="normal" 
>
</g>

<g fill="none" stroke="#000000" stroke-opacity="1" stroke-width="1" stroke-linecap="square" stroke-linejoin="bevel" transform="matrix(1,0,0,1,0,0)"
font-family="Noto Sans [MONO]" font-size="13.3333" font-weight="400" font-style="normal" 
>
</g>

<g fill="none" stroke="#000000" stroke-opacity="1" stroke-width="1" stroke-linecap="square" stroke-linejoin="bevel" transform="matrix(1,0,0,1,0,0)"
font-family="Noto Sans [MONO]" font-size="13.3333" font-weight="400" font-style="normal" 
>
</g>

<g fill="#ffffff" fill-opacity="0" stroke="none" transform="matrix(1,0,0,1,0,0)"
font-family="Noto Sans [MONO]" font-size="13.3333" font-weight="400" font-style="normal" 
>
<path vector-effect="non-scaling-stroke" fill-rule="evenodd" d="M80,15 L482,15 L482,314 L80,314 L80,15"/>
</g>

<g fill="none" stroke="#000000" stroke-opacity="1" stroke-width="1" stroke-linecap="square" stroke-linejoin="bevel" transform="matrix(1,0,0,1,0,0)"
font-family="Noto Sans [MONO]" font-size="13.3333" font-weight="400" font-style="normal" 
>
</g>

<g fill="none" stroke="#000000" stroke-opacity="1" stroke-width="1" stroke-linecap="square" stroke-linejoin="bevel" transform="matrix(1,0,0,1,0,0)"
font-family="Noto Sans [MONO]" font-size="13.3333" font-weight="400" font-style="normal" 
>
</g>

<g fill="none" stroke="#000000" stroke-opacity="1" stroke-width="1" stroke-linecap="square" stroke-linejoin="bevel" transform="matrix(1,0,0,1,0,0)"
font-family="Noto Sans [MONO]" font-size="13.3333" font-weight="400" font-style="normal" 
>
</g>

<g fill="none" stroke="#000000" stroke-opacity="1" stroke-width="2" stroke-linecap="butt" stroke-linejoin="miter" stroke-miterlimit="2" transform="matrix(1,0,0,1,0,0)"
font-family="Noto Sans [MONO]" font-size="13.3333" font-weight="400" font-style="normal" 
>
<polyline fill="none" vector-effect="non-scaling-stroke" points="80,312.914 80.5296,312.914 81.5488,312.913 82.568,312.913 83.5088,312.913 84.528,312.912 85.5472,312.911 86.5664,312.91 87.5072,312.909 88.5264,312.908 89.5456,312.907 90.5648,312.905 91.5056,312.904 92.5248,312.901 93.544,312.899 94.5632,312.897 95.504,312.894 96.5232,312.891 97.5424,312.887 98.5616,312.884 99.5024,312.88 100.522,312.875 101.541,312.869 102.56,312.863 103.501,312.857 104.52,312.849 105.539,312.84 106.558,312.83 107.578,312.818 108.518,312.806 109.538,312.791 110.557,312.772 111.576,312.751 112.517,312.727 113.536,312.697 114.555,312.659 115.574,312.612 116.515,312.558 117.378,312.496 117.534,312.483 118.554,312.383 119.573,312.247 120.514,312.073 121.533,311.797 122.317,311.484 122.552,311.365 123.571,310.636 123.728,310.48 124.512,309.409 124.982,308.402 125.296,307.48 125.531,306.6 125.61,306.261 125.845,305.073 126.002,304.108 126.158,302.968 126.237,302.321 126.394,300.841 126.472,299.995 126.55,299.067 126.629,298.05 126.707,296.932 126.786,295.705 126.864,294.357 126.942,292.877 127.021,291.254 127.099,289.479 127.178,287.543 127.256,285.442 127.334,283.176 127.413,280.754 127.491,278.196 127.57,275.535 127.648,272.82 127.726,270.119 127.805,267.519 127.883,265.12 127.962,263.033 128.04,261.364 128.118,260.206 128.432,261.472 128.51,263.145 128.589,265.21 128.667,267.564 128.746,270.108 128.824,272.749 128.902,275.407 128.981,278.019 129.059,280.538 129.138,282.931 129.216,285.177 129.294,287.267 129.373,289.197 129.451,290.972 129.53,292.597 129.608,294.082 129.686,295.436 129.765,296.67 129.843,297.795 129.922,298.819 130,299.754 130.078,300.608 130.235,302.101 130.314,302.754 130.47,303.905 130.549,304.413 130.627,304.88 130.784,305.711 131.019,306.741 131.254,307.57 131.568,308.442 131.646,308.627 132.117,309.53 132.509,310.08 132.901,310.504 133.528,311.005 134.547,311.53 135.566,311.855 136.507,312.053 137.526,312.202 138.546,312.307 139.565,312.381 140.506,312.431 141.525,312.47 142.544,312.497 142.701,312.5 143.563,312.515 144.504,312.524 145.523,312.527 146.542,312.524 147.562,312.516 148.502,312.503 148.738,312.499 149.522,312.483 150.541,312.457 151.56,312.423 152.501,312.386 153.52,312.336 154.539,312.275 155.558,312.201 156.578,312.11 157.518,312.007 158.538,311.87 159.557,311.697 160.498,311.496 160.576,311.477 161.517,311.214 162.536,310.839 163.32,310.461 163.555,310.327 164.574,309.602 164.731,309.464 165.515,308.629 165.672,308.427 166.299,307.456 166.534,307.011 166.848,306.329 167.24,305.299 167.554,304.295 167.789,303.407 168.024,302.378 168.259,301.176 168.416,300.259 168.573,299.232 168.73,298.079 168.808,297.448 168.965,296.064 169.043,295.302 169.122,294.49 169.278,292.692 169.357,291.697 169.435,290.629 169.514,289.481 169.592,288.246 169.67,286.915 169.749,285.479 169.827,283.927 169.906,282.247 169.984,280.425 170.062,278.447 170.141,276.296 170.219,273.953 170.298,271.397 170.376,268.606 170.454,265.555 170.533,262.215 170.611,258.556 170.69,254.547 170.768,250.153 170.846,245.34 170.925,240.074 171.003,234.325 171.082,228.068 171.16,221.289 171.238,213.99 171.317,206.194 171.395,197.957 171.474,189.372 171.552,180.574 171.63,171.745 171.709,163.109 171.787,154.921 171.866,147.445 171.944,140.931 172.022,135.587 172.101,131.562 172.179,128.928 172.258,127.684 172.414,129.062 172.493,131.428 172.571,134.707 172.65,138.747 172.728,143.4 172.806,148.537 172.885,154.045 172.963,159.828 173.042,165.805 173.12,171.91 173.198,178.09 173.277,184.297 173.355,190.495 173.434,196.651 173.512,202.735 173.59,208.721 173.669,214.583 173.747,220.295 173.826,225.834 173.904,231.176 173.982,236.299 174.061,241.184 174.139,245.816 174.218,250.182 174.296,254.276 174.374,258.098 174.453,261.652 174.531,264.945 174.61,267.988 174.688,270.796 174.766,273.383 174.845,275.766 174.923,277.96 175.002,279.981 175.08,281.844 175.158,283.562 175.237,285.148 175.315,286.614 175.394,287.971 175.472,289.229 175.55,290.397 175.629,291.482 175.707,292.492 175.786,293.433 175.864,294.311 175.942,295.132 176.021,295.901 176.099,296.621 176.256,297.931 176.334,298.528 176.491,299.62 176.57,300.12 176.648,300.593 176.883,301.863 177.04,302.604 177.275,303.584 177.51,304.43 177.589,304.687 177.902,305.605 178.294,306.552 178.53,307.035 178.843,307.597 179.47,308.505 179.549,308.602 180.49,309.554 180.568,309.619 181.509,310.27 181.979,310.526 182.528,310.781 183.547,311.159 184.566,311.446 184.802,311.502 185.507,311.654 186.526,311.834 187.546,311.979 188.565,312.098 189.506,312.19 190.525,312.274 191.544,312.345 192.563,312.405 193.504,312.454 194.523,312.499 194.602,312.503 195.542,312.539 196.562,312.574 197.502,312.603 198.522,312.631 199.541,312.656 200.56,312.678 201.501,312.696 202.52,312.714 203.539,312.731 204.558,312.746 205.578,312.759 206.518,312.771 207.538,312.782 208.557,312.793 209.576,312.803 210.517,312.811 211.536,312.819 212.555,312.827 213.574,312.834 214.515,312.841 215.534,312.847 216.554,312.853 217.573,312.858 218.514,312.863 219.533,312.868 220.552,312.873 221.571,312.877 222.512,312.881 223.531,312.885 224.55,312.888 225.57,312.892 226.51,312.895 227.53,312.898 228.549,312.901 229.568,312.904 230.509,312.906 231.528,312.909 232.547,312.911 233.566,312.913 234.507,312.915 235.526,312.917 236.546,312.919 237.565,312.921 238.506,312.923 239.525,312.925 240.544,312.926 241.563,312.928 242.504,312.93 243.523,312.931 244.542,312.932 245.562,312.934 246.502,312.935 247.522,312.936 248.541,312.938 249.56,312.939 250.501,312.94 251.52,312.941 252.539,312.942 253.558,312.943 254.578,312.944 255.518,312.945 256.538,312.946 257.557,312.947 258.576,312.947 259.517,312.948 260.536,312.949 261.555,312.95 262.574,312.951 263.515,312.951 264.534,312.952 265.554,312.953 266.573,312.953 267.514,312.954 268.533,312.954 269.552,312.955 270.571,312.956 271.512,312.956 272.531,312.957 273.55,312.957 274.57,312.958 275.51,312.958 276.53,312.959 281,312.959 285,312.589 285.588,312.581 286.568,312.568 287.548,312.554 288.528,312.539 289.508,312.523 290.684,312.504 291.076,312.497 291.664,312.486 292.644,312.468 293.624,312.449 294.604,312.428 295.584,312.407 296.564,312.384 297.544,312.36 298.524,312.334 299.504,312.307 300.68,312.272 301.66,312.241 302.64,312.208 303.62,312.172 304.6,312.135 305.58,312.094 306.56,312.051 307.54,312.004 308.52,311.954 309.5,311.9 310.676,311.83 311.656,311.766 312.636,311.697 313.616,311.621 314.596,311.539 315.184,311.487 315.576,311.45 316.556,311.352 317.536,311.245 318.516,311.126 319.692,310.968 320.672,310.82 321.652,310.656 322.632,310.472 323.612,310.266 324.592,310.034 325.572,309.771 326.552,309.472 327.532,309.13 328.512,308.736 329.1,308.469 329.688,308.178 330.668,307.626 331.06,307.379 331.648,306.975 332.432,306.365 332.628,306.198 333.412,305.465 333.608,305.263 334.392,304.371 334.588,304.124 335.176,303.316 335.568,302.716 335.764,302.395 336.352,301.338 336.548,300.951 336.94,300.118 337.332,299.196 337.528,298.698 337.724,298.174 338.116,297.036 338.312,296.418 338.508,295.765 338.704,295.073 338.9,294.339 339.292,292.733 339.488,291.854 339.684,290.917 339.88,289.919 340.076,288.854 340.272,287.715 340.468,286.497 340.664,285.192 340.86,283.792 341.056,282.288 341.252,280.669 341.448,278.925 341.644,277.043 341.84,275.01 342.036,272.809 342.232,270.423 342.428,267.833 342.624,265.016 342.82,261.948 343.016,258.603 343.212,254.949 343.408,250.953 343.604,246.578 343.8,241.784 343.996,236.527 344.192,230.759 344.388,224.433 344.584,217.498 344.78,209.907 344.976,201.616 345.172,192.594 345.368,182.824 345.564,172.315 345.76,161.112 345.956,149.307 346.152,137.054 346.348,124.571 346.544,112.149 346.74,100.146 346.936,88.9631 347.132,79.0182 347.328,70.7036 347.524,64.3453 347.72,60.1681 347.916,58.2774 348.112,58.6581 348.308,61.1893 348.504,65.6707 348.7,71.8512 348.896,79.4553 349.092,88.2046 349.288,97.8317 349.484,108.089 349.68,118.752 349.876,129.621 350.072,140.519 350.268,151.295 350.464,161.817 350.66,171.978 350.856,181.692 351.052,190.898 351.248,199.552 351.444,207.634 351.64,215.139 351.836,222.075 352.032,228.463 352.228,234.331 352.424,239.711 352.62,244.638 352.816,249.148 353.012,253.277 353.208,257.057 353.404,260.521 353.6,263.698 353.796,266.616 353.992,269.298 354.188,271.767 354.384,274.044 354.58,276.145 354.776,278.088 354.972,279.888 355.168,281.557 355.364,283.106 355.56,284.548 355.756,285.89 355.952,287.142 356.148,288.311 356.344,289.405 356.54,290.429 356.736,291.388 356.932,292.29 357.128,293.136 357.324,293.933 357.52,294.683 357.912,296.059 358.108,296.69 358.5,297.851 358.892,298.894 359.284,299.834 359.676,300.684 360.264,301.813 360.656,302.482 360.852,302.794 361.44,303.652 361.636,303.914 362.224,304.638 362.616,305.074 363.204,305.666 363.596,306.025 364.184,306.516 364.576,306.815 365.556,307.478 365.752,307.598 366.536,308.04 367.516,308.519 368.692,309.009 369.672,309.357 370.26,309.545 370.652,309.662 371.632,309.93 372.612,310.167 373.592,310.377 374.376,310.529 374.572,310.565 375.552,310.733 376.532,310.884 377.512,311.02 378.688,311.167 379.668,311.277 380.648,311.377 381.628,311.469 382.02,311.504 382.608,311.553 383.588,311.631 384.568,311.702 385.548,311.768 386.528,311.828 387.508,311.885 388.684,311.947 389.664,311.995 390.644,312.04 391.624,312.082 392.604,312.121 393.584,312.157 394.564,312.192 395.544,312.224 396.524,312.254 397.504,312.283 398.68,312.315 399.66,312.34 400.64,312.363 401.62,312.386 402.6,312.407 403.58,312.427 404.56,312.446 405.54,312.464 406.52,312.482 407.5,312.498 407.696,312.501 408.676,312.517 409.656,312.532 410.636,312.546 411.616,312.559 412.596,312.572 413.576,312.584 414.556,312.596 415.536,312.607 416.516,312.618 417.692,312.63 418.672,312.64 419.652,312.649 420.632,312.658 421.612,312.667 422.592,312.675 423.572,312.683 424.552,312.691 425.532,312.698 426.512,312.706 427.688,312.714 428.668,312.72 429.648,312.727 430.628,312.733 431.608,312.739 432.588,312.744 433.568,312.75 434.548,312.755 435.528,312.76 436.508,312.765 437.684,312.771 438.664,312.776 439.644,312.78 440.624,312.785 441.604,312.789 442.584,312.793 443.564,312.797 444.544,312.801 445.524,312.805 446.504,312.808 447.68,312.813 448.66,312.816 449.64,312.819 450.62,312.822 451.6,312.826 452.58,312.829 453.56,312.832 454.54,312.834 455.52,312.837 456.5,312.84 457.676,312.843 458.656,312.846 459.636,312.848 460.616,312.851 461.596,312.853 462.576,312.855 463.556,312.858 464.536,312.86 465.516,312.862 466.692,312.865 467.672,312.867 468.652,312.869 469.632,312.87 470.612,312.872 471.592,312.874 472.572,312.876 473.552,312.878 474.532,312.88 475.512,312.881 476.688,312.883 477.668,312.885 478.648,312.886 479.628,312.888 480.608,312.889 481.588,312.891 482,312.891 " />
</g>

<g fill="none" stroke="#000000" stroke-opacity="1" stroke-width="1" stroke-linecap="square" stroke-linejoin="bevel" transform="matrix(1,0,0,1,0,0)"
font-family="Noto Sans [MONO]" font-size="13.3333" font-weight="400" font-style="normal" 
>
</g>

<g fill="none" stroke="#000000" stroke-opacity="1" stroke-width="1" stroke-linecap="square" stroke-linejoin="bevel" transform="matrix(1,0,0,1,0,0)"
font-family="Noto Sans [MONO]" font-size="13.3333" font-weight="400" font-style="normal" 
>
</g>

<g fill="none" stroke="#000000" stroke-opacity="1" stroke-width="1" stroke-linecap="square" stroke-linejoin="bevel" transform="matrix(1,0,0,1,0,0)"
font-family="Noto Sans [MONO]" font-size="13.3333" font-weight="400" font-style="normal" 
>
</g>

<g fill="none" stroke="#ff0000" stroke-opacity="1" stroke-width="2" stroke-linecap="butt" stroke-linejoin="miter" stroke-miterlimit="2" transform="matrix(1,0,0,1,0,0)"
font-family="Noto Sans [MONO]" font-size="13.3333" font-weight="400" font-style="normal" 
>
<polyline fill="none" vector-effect="non-scaling-stroke" points="80,312.916 80.5296,312.917 81.5488,312.917 82.568,312.917 83.5088,312.917 84.528,312.917 85.5472,312.917 86.5664,312.917 87.5072,312.916 88.5264,312.915 89.5456,312.915 90.5648,312.913 91.5056,312.912 92.5248,312.911 93.544,312.909 94.5632,312.907 95.504,312.905 96.5232,312.903 97.5424,312.9 98.5616,312.896 99.5024,312.893 100.522,312.889 101.541,312.884 102.56,312.879 103.501,312.873 104.52,312.867 105.539,312.859 106.558,312.85 107.578,312.84 108.518,312.829 109.538,312.815 110.557,312.799 111.576,312.78 112.517,312.76 113.536,312.733 114.555,312.701 115.574,312.661 116.515,312.615 117.534,312.552 118.24,312.498 118.554,312.471 119.573,312.362 120.514,312.225 121.533,312.016 122.552,311.699 123.022,311.496 123.571,311.187 124.434,310.455 124.512,310.366 125.139,309.441 125.531,308.581 125.61,308.371 125.923,307.36 126.158,306.368 126.394,305.097 126.55,304.048 126.629,303.448 126.786,302.075 126.864,301.29 126.942,300.431 127.021,299.492 127.099,298.47 127.178,297.359 127.256,296.16 127.334,294.874 127.413,293.508 127.491,292.076 127.57,290.599 127.648,289.11 127.726,287.649 127.805,286.267 127.883,285.023 127.962,283.975 128.04,283.177 128.197,282.473 128.275,282.586 128.432,283.619 128.51,284.438 128.589,285.378 128.667,286.379 128.746,287.389 128.824,288.362 128.902,289.264 128.981,290.07 129.059,290.762 129.216,291.761 129.53,292.085 129.686,291.372 129.843,290.051 129.922,289.158 130,288.111 130.078,286.912 130.157,285.572 130.235,284.104 130.314,282.535 130.392,280.901 130.47,279.25 130.549,277.647 130.627,276.165 130.706,274.885 130.784,273.889 130.862,273.247 131.098,273.836 131.176,274.855 131.254,276.211 131.333,277.833 131.411,279.642 131.49,281.563 131.568,283.53 131.646,285.486 131.725,287.389 131.803,289.21 131.882,290.927 131.96,292.532 132.038,294.019 132.117,295.389 132.195,296.647 132.274,297.798 132.352,298.85 132.43,299.811 132.509,300.687 132.666,302.218 132.744,302.886 132.901,304.059 132.979,304.573 133.214,305.882 133.371,306.596 133.528,307.208 133.685,307.736 133.998,308.596 134.469,309.534 134.547,309.66 135.253,310.535 135.566,310.813 136.507,311.407 136.742,311.516 137.526,311.804 138.546,312.062 139.565,312.24 140.506,312.359 141.525,312.455 142.152,312.502 142.544,312.528 143.563,312.585 144.504,312.627 145.523,312.664 146.542,312.693 147.562,312.718 148.502,312.736 149.522,312.753 150.541,312.767 151.56,312.778 152.501,312.787 153.52,312.795 154.539,312.802 155.558,312.807 156.578,312.811 157.518,312.814 158.538,312.817 159.557,312.818 160.576,312.819 161.517,312.819 162.536,312.818 163.555,312.816 164.574,312.814 165.515,312.811 166.534,312.808 167.554,312.803 168.573,312.798 169.514,312.793 170.533,312.786 171.552,312.778 172.571,312.769 173.512,312.759 174.531,312.748 175.55,312.735 176.57,312.72 177.51,312.705 178.53,312.687 179.549,312.666 180.568,312.643 181.509,312.618 182.528,312.588 183.547,312.554 184.566,312.514 184.958,312.497 185.507,312.471 186.526,312.418 187.546,312.356 188.565,312.282 189.506,312.201 190.525,312.096 191.544,311.968 192.563,311.81 193.504,311.629 194.131,311.484 194.523,311.381 195.542,311.058 196.562,310.626 196.875,310.464 197.502,310.086 198.286,309.481 198.522,309.263 199.227,308.471 199.541,308.036 199.933,307.398 200.403,306.459 200.56,306.093 200.795,305.484 201.187,304.276 201.422,303.408 201.501,303.09 201.658,302.406 201.893,301.239 202.05,300.353 202.206,299.365 202.363,298.258 202.52,297.014 202.598,296.333 202.755,294.838 202.834,294.015 202.912,293.137 202.99,292.199 203.069,291.194 203.147,290.118 203.226,288.962 203.304,287.72 203.382,286.383 203.461,284.942 203.539,283.386 203.618,281.704 203.696,279.882 203.774,277.906 203.853,275.76 203.931,273.425 204.01,270.881 204.088,268.106 204.166,265.074 204.245,261.758 204.323,258.127 204.402,254.15 204.48,249.79 204.558,245.012 204.637,239.778 204.715,234.052 204.794,227.802 204.872,221.003 204.95,213.641 205.029,205.722 205.107,197.275 205.186,188.365 205.264,179.098 205.342,169.628 205.421,160.158 205.499,150.939 205.578,142.247 205.656,134.371 205.734,127.579 205.813,122.091 205.891,118.059 205.97,115.554 206.048,114.564 206.205,116.768 206.283,119.675 206.362,123.562 206.44,128.259 206.518,133.608 206.597,139.469 206.675,145.717 206.754,152.25 206.832,158.978 206.91,165.829 206.989,172.741 207.067,179.662 207.146,186.546 207.224,193.354 207.302,200.048 207.381,206.593 207.459,212.958 207.538,219.112 207.616,225.026 207.694,230.676 207.773,236.039 207.851,241.102 207.93,245.855 208.008,250.295 208.086,254.424 208.165,258.25 208.243,261.786 208.322,265.048 208.4,268.051 208.478,270.815 208.557,273.358 208.635,275.697 208.714,277.851 208.792,279.835 208.87,281.665 208.949,283.354 209.027,284.916 209.106,286.362 209.184,287.702 209.262,288.945 209.341,290.101 209.419,291.178 209.498,292.181 209.576,293.117 209.654,293.992 209.733,294.812 209.811,295.579 209.968,296.977 210.046,297.613 210.203,298.778 210.36,299.816 210.517,300.743 210.674,301.577 210.909,302.675 211.144,303.622 211.458,304.694 211.536,304.933 211.771,305.591 212.163,306.521 212.555,307.285 212.712,307.552 213.418,308.551 213.574,308.735 214.358,309.502 214.515,309.631 215.534,310.313 215.926,310.521 216.554,310.806 217.573,311.172 218.514,311.434 218.827,311.508 219.533,311.657 220.552,311.835 221.571,311.979 222.512,312.089 223.531,312.188 224.55,312.272 225.57,312.343 226.51,312.399 227.53,312.452 228.549,312.498 228.627,312.501 229.568,312.538 230.509,312.571 231.528,312.602 232.547,312.63 233.566,312.655 234.507,312.676 235.526,312.696 236.546,312.714 237.565,312.731 238.506,312.745 239.525,312.759 240.544,312.771 241.563,312.783 242.504,312.793 243.523,312.803 244.542,312.812 245.562,312.82 246.502,312.827 247.522,312.835 248.541,312.841 249.56,312.848 250.501,312.853 251.52,312.859 252.539,312.864 253.558,312.869 254.578,312.873 255.518,312.877 256.538,312.882 257.557,312.885 258.576,312.889 259.517,312.892 260.536,312.895 261.555,312.899 262.574,312.901 263.515,312.904 264.534,312.907 265.554,312.909 266.573,312.912 267.514,312.914 268.533,312.916 269.552,312.918 270.571,312.92 271.512,312.922 272.531,312.923 273.55,312.925 274.57,312.927 275.51,312.928 276.53,312.93 281,312.931 285,312.678 285.588,312.673 286.568,312.663 287.548,312.654 288.528,312.643 289.508,312.633 290.684,312.619 291.664,312.607 292.644,312.595 293.624,312.582 294.604,312.568 295.584,312.553 296.564,312.538 297.544,312.522 298.524,312.505 298.916,312.498 299.504,312.487 300.68,312.464 301.66,312.444 302.64,312.422 303.62,312.399 304.6,312.375 305.58,312.349 306.56,312.321 307.54,312.291 308.52,312.26 309.5,312.226 310.676,312.181 311.656,312.141 312.636,312.098 313.616,312.052 314.596,312.001 315.576,311.947 316.556,311.887 317.536,311.822 318.516,311.751 319.692,311.656 320.672,311.568 321.456,311.491 321.652,311.47 322.632,311.362 323.612,311.241 324.592,311.106 325.572,310.953 326.552,310.78 327.532,310.582 327.924,310.496 328.512,310.356 329.688,310.038 330.668,309.723 331.452,309.433 331.648,309.354 332.628,308.915 333.608,308.387 334.588,307.744 334.98,307.448 335.568,306.952 336.156,306.384 336.548,305.958 336.94,305.489 337.528,304.689 337.724,304.393 338.312,303.402 338.508,303.033 338.9,302.227 339.292,301.318 339.684,300.288 340.076,299.116 340.272,298.468 340.664,297.03 340.86,296.23 341.056,295.371 341.252,294.444 341.448,293.445 341.644,292.365 341.84,291.196 342.036,289.93 342.232,288.555 342.428,287.059 342.624,285.431 342.82,283.655 343.016,281.715 343.212,279.593 343.408,277.269 343.604,274.721 343.8,271.925 343.996,268.856 344.192,265.486 344.388,261.787 344.584,257.732 344.78,253.294 344.976,248.452 345.172,243.191 345.368,237.511 345.564,231.426 345.76,224.979 345.956,218.244 346.152,211.336 346.348,204.414 346.544,197.686 346.74,191.398 346.936,185.823 347.132,181.233 347.328,177.874 347.524,175.934 347.916,176.628 348.112,179.19 348.308,183.037 348.504,187.951 348.7,193.686 348.896,199.987 349.092,206.616 349.288,213.362 349.484,220.05 349.68,226.546 349.876,232.754 350.072,238.608 350.268,244.074 350.464,249.137 350.66,253.799 350.856,258.073 351.052,261.979 351.248,265.542 351.444,268.787 351.64,271.741 351.836,274.43 352.032,276.878 352.228,279.109 352.424,281.143 352.62,283 352.816,284.697 353.012,286.249 353.208,287.671 353.404,288.975 353.6,290.172 353.796,291.273 353.992,292.286 354.188,293.22 354.384,294.081 354.58,294.877 354.776,295.612 355.168,296.921 355.364,297.504 355.56,298.045 355.756,298.546 356.344,299.842 356.54,300.214 356.736,300.558 357.52,301.699 358.304,302.526 358.5,302.692 359.676,303.388 360.068,303.519 360.656,303.63 361.636,303.592 362.028,303.499 362.616,303.272 363.596,302.642 363.792,302.474 364.576,301.64 364.772,301.386 365.36,300.499 365.556,300.156 365.948,299.391 366.536,298.013 366.732,297.482 367.124,296.295 367.516,294.915 367.712,294.142 367.908,293.307 368.104,292.404 368.3,291.427 368.496,290.367 368.692,289.217 368.888,287.968 369.084,286.609 369.28,285.128 369.476,283.514 369.672,281.75 369.868,279.822 370.064,277.711 370.26,275.398 370.456,272.859 370.652,270.072 370.848,267.009 371.044,263.642 371.24,259.942 371.436,255.878 371.632,251.421 371.828,246.543 372.024,241.224 372.22,235.45 372.416,229.224 372.612,222.57 372.808,215.54 373.004,208.224 373.2,200.756 373.396,193.32 373.592,186.145 373.788,179.503 373.984,173.682 374.18,168.965 374.376,165.599 374.572,163.759 374.964,164.92 375.16,167.812 375.356,172.037 375.552,177.367 375.748,183.551 375.944,190.331 376.14,197.465 376.336,204.736 376.532,211.965 376.728,219.007 376.924,225.759 377.12,232.147 377.316,238.129 377.512,243.686 377.708,248.816 377.904,253.53 378.1,257.848 378.296,261.794 378.492,265.394 378.688,268.679 378.884,271.673 379.08,274.406 379.276,276.9 379.472,279.179 379.668,281.264 379.864,283.174 380.06,284.926 380.256,286.535 380.452,288.016 380.648,289.38 380.844,290.64 381.04,291.804 381.236,292.881 381.432,293.88 381.628,294.808 381.824,295.671 382.216,297.223 382.412,297.923 382.608,298.577 383,299.764 383.392,300.81 383.588,301.287 383.784,301.736 384.176,302.559 384.568,303.294 384.764,303.632 385.352,304.545 385.548,304.819 386.136,305.565 386.528,306.005 387.116,306.594 387.508,306.945 388.292,307.563 388.684,307.836 389.664,308.432 389.86,308.538 390.644,308.927 391.624,309.343 392.212,309.561 392.604,309.696 393.584,309.998 394.564,310.259 395.544,310.485 395.74,310.527 396.524,310.684 397.504,310.859 398.68,311.042 399.66,311.177 400.64,311.298 401.62,311.406 402.6,311.504 403.58,311.593 404.56,311.673 405.54,311.747 406.52,311.814 407.5,311.876 408.676,311.944 409.656,311.995 410.636,312.043 411.616,312.087 412.596,312.128 413.576,312.166 414.556,312.202 415.536,312.235 416.516,312.266 417.692,312.301 418.672,312.328 419.652,312.353 420.632,312.377 421.612,312.4 422.592,312.421 423.572,312.441 424.552,312.46 425.532,312.478 426.512,312.495 426.904,312.502 427.688,312.515 428.668,312.53 429.648,312.544 430.628,312.558 431.608,312.571 432.588,312.584 433.568,312.596 434.548,312.607 435.528,312.618 436.508,312.629 437.684,312.641 438.664,312.65 439.644,312.659 440.624,312.668 441.604,312.676 442.584,312.684 443.564,312.692 444.544,312.699 445.524,312.707 446.504,312.714 447.68,312.721 448.66,312.728 449.64,312.734 450.62,312.74 451.6,312.746 452.58,312.751 453.56,312.756 454.54,312.762 455.52,312.767 456.5,312.771 457.676,312.777 458.656,312.781 459.636,312.786 460.616,312.79 461.596,312.794 462.576,312.798 463.556,312.802 464.536,312.805 465.516,312.809 466.692,312.813 467.672,312.817 468.652,312.82 469.632,312.823 470.612,312.826 471.592,312.829 472.572,312.832 473.552,312.835 474.532,312.838 475.512,312.84 476.688,312.843 477.668,312.846 478.648,312.848 479.628,312.851 480.608,312.853 481.588,312.856 482,312.856 " />
</g>

<g fill="none" stroke="#000000" stroke-opacity="1" stroke-width="1" stroke-linecap="square" stroke-linejoin="bevel" transform="matrix(1,0,0,1,0,0)"
font-family="Noto Sans [MONO]" font-size="13.3333" font-weight="400" font-style="normal" 
>
</g>

<g fill="none" stroke="#000000" stroke-opacity="1" stroke-width="1" stroke-linecap="square" stroke-linejoin="bevel" transform="matrix(1,0,0,1,0,0)"
font-family="Noto Sans [MONO]" font-size="13.3333" font-weight="400" font-style="normal" 
>
</g>

<g fill="none" stroke="#000000" stroke-opacity="1" stroke-width="1" stroke-linecap="square" stroke-linejoin="bevel" transform="matrix(1,0,0,1,0,0)"
font-family="Noto Sans [MONO]" font-size="13.3333" font-weight="400" font-style="normal" 
>
</g>

<g fill="none" stroke="#00ff00" stroke-opacity="1" stroke-width="2" stroke-linecap="butt" stroke-linejoin="miter" stroke-miterlimit="2" transform="matrix(1,0,0,1,0,0)"
font-family="Noto Sans [MONO]" font-size="13.3333" font-weight="400" font-style="normal" 
>
<polyline fill="none" vector-effect="non-scaling-stroke" points="80,312.91 80.5296,312.911 81.5488,312.911 82.568,312.912 83.5088,312.912 84.528,312.912 85.5472,312.912 86.5664,312.912 87.5072,312.911 88.5264,312.911 89.5456,312.91 90.5648,312.909 91.5056,312.908 92.5248,312.907 93.544,312.906 94.5632,312.904 95.504,312.902 96.5232,312.9 97.5424,312.897 98.5616,312.895 99.5024,312.892 100.522,312.888 101.541,312.884 102.56,312.88 103.501,312.875 104.52,312.869 105.539,312.863 106.558,312.855 107.578,312.847 108.518,312.838 109.538,312.827 110.557,312.815 111.576,312.8 112.517,312.784 113.536,312.764 114.555,312.741 115.574,312.712 116.515,312.681 117.534,312.639 118.554,312.587 119.573,312.52 119.886,312.496 120.514,312.442 121.533,312.331 122.552,312.179 123.571,311.965 124.512,311.678 124.982,311.486 125.531,311.203 126.472,310.486 126.55,310.407 127.256,309.498 127.57,308.934 127.805,308.418 128.197,307.316 128.432,306.458 128.51,306.13 128.667,305.399 128.902,304.074 129.059,303 129.138,302.394 129.294,301.017 129.373,300.234 129.451,299.379 129.53,298.443 129.608,297.419 129.686,296.296 129.765,295.063 129.843,293.71 129.922,292.224 130,290.591 130.078,288.8 130.157,286.838 130.235,284.695 130.314,282.362 130.392,279.837 130.47,277.123 130.549,274.236 130.627,271.203 130.706,268.07 130.784,264.903 130.862,261.788 130.941,258.831 131.019,256.15 131.098,253.871 131.176,252.109 131.254,250.958 131.333,250.479 131.411,250.692 131.49,251.575 131.568,253.071 131.646,255.092 131.725,257.533 131.803,260.284 131.882,263.235 131.96,266.286 132.038,269.354 132.117,272.368 132.195,275.275 132.274,278.04 132.352,280.64 132.43,283.061 132.509,285.3 132.587,287.361 132.666,289.25 132.744,290.977 132.822,292.553 132.901,293.991 132.979,295.301 133.058,296.496 133.136,297.587 133.214,298.582 133.371,300.325 133.45,301.088 133.528,301.788 133.685,303.025 133.763,303.571 133.92,304.542 134.155,305.747 134.39,306.716 134.547,307.26 134.626,307.506 135.018,308.529 135.566,309.541 136.429,310.549 136.507,310.618 137.526,311.291 137.997,311.506 138.546,311.706 139.565,311.978 140.506,312.154 141.525,312.292 142.544,312.393 143.563,312.47 144.112,312.503 144.504,312.525 145.523,312.572 146.542,312.608 147.562,312.638 148.502,312.659 149.522,312.678 150.541,312.693 151.56,312.704 152.501,312.712 153.52,312.718 154.539,312.722 155.558,312.724 156.578,312.724 157.518,312.723 158.538,312.72 159.557,312.715 160.576,312.708 161.517,312.7 162.536,312.69 163.555,312.677 164.574,312.663 165.515,312.647 166.534,312.627 167.554,312.605 168.573,312.578 169.514,312.55 170.533,312.515 170.925,312.5 171.552,312.474 172.571,312.426 173.512,312.374 174.531,312.308 175.55,312.229 176.57,312.135 177.51,312.03 178.53,311.891 179.549,311.719 180.568,311.501 180.646,311.482 181.509,311.244 182.528,310.882 183.39,310.479 183.547,310.393 184.566,309.711 184.88,309.446 185.507,308.81 185.821,308.426 186.448,307.482 186.526,307.344 186.997,306.394 187.389,305.408 187.546,304.952 187.702,304.453 188.016,303.307 188.251,302.292 188.486,301.11 188.565,300.672 188.643,300.211 188.8,299.208 188.957,298.085 189.035,297.472 189.192,296.129 189.27,295.393 189.427,293.773 189.506,292.88 189.584,291.924 189.662,290.902 189.741,289.805 189.819,288.628 189.898,287.362 189.976,285.999 190.054,284.529 190.133,282.941 190.211,281.224 190.29,279.364 190.368,277.345 190.446,275.152 190.525,272.764 190.603,270.162 190.682,267.323 190.76,264.22 190.838,260.825 190.917,257.107 190.995,253.034 191.074,248.57 191.152,243.678 191.23,238.323 191.309,232.469 191.387,226.086 191.466,219.154 191.544,211.663 191.622,203.627 191.701,195.087 191.779,186.119 191.858,176.845 191.936,167.433 192.014,158.1 192.093,149.103 192.171,140.722 192.25,133.234 192.328,126.89 192.406,121.882 192.485,118.33 192.563,116.275 192.798,118.444 192.877,121.502 192.955,125.457 193.034,130.146 193.112,135.422 193.19,141.154 193.269,147.23 193.347,153.554 193.426,160.05 193.504,166.651 193.582,173.303 193.661,179.963 193.739,186.591 193.818,193.154 193.896,199.62 193.974,205.96 194.053,212.147 194.131,218.153 194.21,223.953 194.288,229.522 194.366,234.838 194.445,239.883 194.523,244.644 194.602,249.113 194.68,253.287 194.758,257.17 194.837,260.771 194.915,264.099 194.994,267.17 195.072,270 195.15,272.606 195.229,275.005 195.307,277.214 195.386,279.25 195.464,281.126 195.542,282.858 195.621,284.459 195.699,285.939 195.778,287.311 195.856,288.584 195.934,289.766 196.013,290.866 196.091,291.89 196.17,292.846 196.248,293.739 196.326,294.574 196.483,296.09 196.562,296.779 196.718,298.037 196.797,298.612 196.954,299.666 197.11,300.608 197.346,301.844 197.502,302.567 197.738,303.526 198.051,304.611 198.365,305.519 198.522,305.918 198.835,306.625 199.306,307.501 199.541,307.872 200.011,308.509 200.56,309.111 201.03,309.535 201.501,309.892 202.52,310.496 202.598,310.535 203.539,310.938 204.558,311.27 205.499,311.509 205.578,311.527 206.518,311.715 207.538,311.88 208.557,312.015 209.576,312.126 210.517,312.212 211.536,312.291 212.555,312.358 213.574,312.416 214.515,312.462 215.456,312.503 215.534,312.506 216.554,312.545 217.573,312.579 218.514,312.607 219.533,312.634 220.552,312.658 221.571,312.68 222.512,312.698 223.531,312.716 224.55,312.732 225.57,312.746 226.51,312.759 227.53,312.771 228.549,312.783 229.568,312.793 230.509,312.802 231.528,312.811 232.547,312.819 233.566,312.827 234.507,312.834 235.526,312.84 236.546,312.847 237.565,312.853 238.506,312.858 239.525,312.863 240.544,312.868 241.563,312.872 242.504,312.876 243.523,312.88 244.542,312.884 245.562,312.888 246.502,312.891 247.522,312.894 248.541,312.897 249.56,312.9 250.501,312.903 251.52,312.906 252.539,312.908 253.558,312.911 254.578,312.913 255.518,312.915 256.538,312.917 257.557,312.919 258.576,312.921 259.517,312.923 260.536,312.924 261.555,312.926 262.574,312.928 263.515,312.929 264.534,312.93 265.554,312.932 266.573,312.933 267.514,312.934 268.533,312.936 269.552,312.937 270.571,312.938 271.512,312.939 272.531,312.94 273.55,312.941 274.57,312.942 275.51,312.943 276.53,312.944 281,312.945 285,312.721 285.588,312.717 286.568,312.709 287.548,312.702 288.528,312.694 289.508,312.686 290.684,312.676 291.664,312.668 292.644,312.658 293.624,312.649 294.604,312.639 295.584,312.629 296.564,312.618 297.544,312.606 298.524,312.595 299.504,312.582 300.68,312.567 301.66,312.553 302.64,312.539 303.62,312.524 304.6,312.508 305.188,312.498 305.58,312.491 306.56,312.474 307.54,312.455 308.52,312.436 309.5,312.415 310.676,312.389 311.656,312.366 312.636,312.342 313.616,312.316 314.596,312.288 315.576,312.259 316.556,312.228 317.536,312.195 318.516,312.16 319.692,312.115 320.672,312.074 321.652,312.03 322.632,311.984 323.612,311.934 324.592,311.88 325.572,311.822 326.552,311.759 327.532,311.691 328.512,311.618 329.688,311.521 330.08,311.487 330.668,311.433 331.648,311.336 332.628,311.23 333.608,311.114 334.588,310.986 335.568,310.845 336.548,310.688 337.528,310.513 337.724,310.476 338.508,310.318 339.684,310.053 340.664,309.8 341.644,309.514 341.84,309.452 342.624,309.188 343.604,308.814 344.388,308.474 344.584,308.383 345.564,307.882 346.348,307.421 346.544,307.296 347.524,306.603 347.72,306.45 348.504,305.778 348.896,305.403 349.68,304.561 349.876,304.328 350.66,303.298 351.248,302.401 351.64,301.733 351.836,301.375 352.424,300.196 352.62,299.763 352.816,299.308 353.208,298.327 353.6,297.238 353.992,296.025 354.188,295.367 354.58,293.933 354.776,293.151 354.972,292.32 355.168,291.438 355.56,289.501 355.756,288.436 355.952,287.299 356.148,286.083 356.344,284.783 356.54,283.389 356.736,281.893 356.932,280.286 357.128,278.557 357.324,276.693 357.52,274.681 357.716,272.506 357.912,270.152 358.108,267.599 358.304,264.827 358.5,261.812 358.696,258.527 358.892,254.945 359.088,251.031 359.284,246.75 359.48,242.063 359.676,236.926 359.872,231.293 360.068,225.113 360.264,218.336 360.46,210.91 360.656,202.785 360.852,193.918 361.048,184.279 361.244,173.856 361.44,162.666 361.636,150.765 361.832,138.263 362.028,125.335 362.224,112.225 362.42,99.2535 362.616,86.8033 362.812,75.2987 363.008,65.1701 363.204,56.8113 363.4,50.5374 363.596,46.5533 363.792,44.9381 363.988,45.6496 364.184,48.5429 364.38,53.3986 364.576,59.9529 364.772,67.9237 364.968,77.0306 365.164,87.008 365.36,97.6122 365.556,108.624 365.752,119.848 365.948,131.114 366.144,142.271 366.34,153.191 366.536,163.764 366.732,173.902 366.928,183.538 367.124,192.624 367.32,201.132 367.516,209.052 367.712,216.388 367.908,223.156 368.104,229.383 368.3,235.098 368.496,240.337 368.692,245.135 368.888,249.53 369.084,253.555 369.28,257.244 369.476,260.627 369.672,263.734 369.868,266.59 370.064,269.219 370.26,271.642 370.456,273.879 370.652,275.947 370.848,277.862 371.044,279.637 371.24,281.285 371.436,282.817 371.632,284.245 371.828,285.575 372.024,286.818 372.22,287.98 372.416,289.067 372.612,290.087 372.808,291.044 373.004,291.943 373.2,292.789 373.396,293.585 373.592,294.336 373.788,295.045 373.984,295.715 374.376,296.947 374.572,297.515 374.964,298.565 375.356,299.512 375.552,299.952 375.944,300.769 376.336,301.511 376.532,301.858 376.924,302.506 377.512,303.376 377.708,303.643 378.492,304.605 378.688,304.823 379.472,305.613 379.668,305.793 380.648,306.6 381.628,307.279 382.02,307.52 382.608,307.855 383.588,308.348 383.98,308.526 384.568,308.773 385.548,309.143 386.528,309.466 386.724,309.525 387.508,309.749 388.684,310.047 389.664,310.264 390.644,310.459 391.036,310.53 391.624,310.633 392.604,310.789 393.584,310.931 394.564,311.059 395.544,311.176 396.524,311.282 397.504,311.379 398.68,311.485 398.876,311.502 399.66,311.566 400.64,311.64 401.62,311.708 402.6,311.772 403.58,311.831 404.56,311.885 405.54,311.936 406.52,311.983 407.5,312.028 408.676,312.077 409.656,312.115 410.636,312.151 411.616,312.185 412.596,312.216 413.576,312.246 414.556,312.274 415.536,312.301 416.516,312.326 417.692,312.354 418.672,312.377 419.652,312.398 420.632,312.418 421.612,312.437 422.592,312.455 423.572,312.472 424.552,312.488 425.336,312.501 425.532,312.504 426.512,312.519 427.688,312.536 428.668,312.549 429.648,312.562 430.628,312.575 431.608,312.586 432.588,312.598 433.568,312.608 434.548,312.619 435.528,312.629 436.508,312.638 437.684,312.649 438.664,312.658 439.644,312.666 440.624,312.675 441.604,312.682 442.584,312.69 443.564,312.697 444.544,312.704 445.524,312.711 446.504,312.717 447.68,312.725 448.66,312.731 449.64,312.737 450.62,312.742 451.6,312.748 452.58,312.753 453.56,312.758 454.54,312.763 455.52,312.768 456.5,312.772 457.676,312.778 458.656,312.782 459.636,312.786 460.616,312.79 461.596,312.794 462.576,312.798 463.556,312.802 464.536,312.805 465.516,312.809 466.692,312.813 467.672,312.816 468.652,312.819 469.632,312.822 470.612,312.826 471.592,312.828 472.572,312.831 473.552,312.834 474.532,312.837 475.512,312.84 476.688,312.843 477.668,312.845 478.648,312.848 479.628,312.85 480.608,312.852 481.588,312.855 482,312.855 " />
</g>

<g fill="none" stroke="#000000" stroke-opacity="1" stroke-width="1" stroke-linecap="square" stroke-linejoin="bevel" transform="matrix(1,0,0,1,0,0)"
font-family="Noto Sans [MONO]" font-size="13.3333" font-weight="400" font-style="normal" 
>
</g>

<g fill="none" stroke="#000000" stroke-opacity="1" stroke-width="1" stroke-linecap="square" stroke-linejoin="bevel" transform="matrix(1,0,0,1,0,0)"
font-family="Noto Sans [MONO]" font-size="13.3333" font-weight="400" font-style="normal" 
>
</g>

<g fill="none" stroke="#000000" stroke-opacity="1" stroke-width="1" stroke-linecap="square" stroke-linejoin="bevel" transform="matrix(1,0,0,1,0,0)"
font-family="Noto Sans [MONO]" font-size="13.3333" font-weight="400" font-style="normal" 
>
</g>

<g fill="none" stroke="#000000" stroke-opacity="1" stroke-width="1" stroke-linecap="square" stroke-linejoin="miter" stroke-miterlimit="2" transform="matrix(1,0,0,1,0,0)"
font-family="Noto Sans [MONO]" font-size="13.3333" font-weight="400" font-style="normal" 
>
<path vector-effect="none" fill-rule="evenodd" d="M80,15 L482,15 L482,314 L80,314 L80,15"/>
</g>

<g fill="none" stroke="#000000" stroke-opacity="1" stroke-width="1" stroke-linecap="square" stroke-linejoin="bevel" transform="matrix(1,0,0,1,0,0)"
font-family="Noto Sans [MONO]" font-size="13.3333" font-weight="400" font-style="normal" 
>
</g>

<g fill="none" stroke="#212121" stroke-opacity="1" stroke-width="1" stroke-linecap="square" stroke-linejoin="bevel" transform="matrix(0,-1,1,0,5,324)"
font-family="Noto Sans UI" font-size="16" font-weight="400" font-style="italic" 
>
</g>

<g fill="none" stroke="#000000" stroke-opacity="1" stroke-width="1" stroke-linecap="square" stroke-linejoin="bevel" transform="matrix(0,-1,1,0,5,324)"
font-family="Noto Sans UI" font-size="18.6667" font-weight="700" font-style="normal" 
>
<text fill="#000000" fill-opacity="1" stroke="none" xml:space="preserve" x="23" y="20" font-family="Noto Sans UI" font-size="18.6667" font-weight="700" font-style="normal" 
 >Molar absorption (L/mol/cm)</text>
</g>

<g fill="none" stroke="#212121" stroke-opacity="1" stroke-width="1" stroke-linecap="square" stroke-linejoin="bevel" transform="matrix(0,-1,1,0,5,324)"
font-family="Noto Sans UI" font-size="16" font-weight="400" font-style="italic" 
>
</g>

<g fill="none" stroke="#000000" stroke-opacity="1" stroke-width="1" stroke-linecap="square" stroke-linejoin="bevel" transform="matrix(1,0,0,1,0,0)"
font-family="Noto Sans [MONO]" font-size="13.3333" font-weight="400" font-style="normal" 
>
</g>

<g fill="none" stroke="#000000" stroke-opacity="1" stroke-width="1" stroke-linecap="square" stroke-linejoin="bevel" transform="matrix(1,0,0,1,0,0)"
font-family="Noto Sans UI" font-size="16" font-weight="400" font-style="italic" 
>
</g>

<g fill="none" stroke="#000000" stroke-opacity="1" stroke-width="1" stroke-linecap="square" stroke-linejoin="bevel" transform="matrix(1,0,0,1,0,0)"
font-family="Noto Sans UI" font-size="16" font-weight="400" font-style="italic" 
>
</g>

<g fill="none" stroke="#212121" stroke-opacity="1" stroke-width="1" stroke-linecap="square" stroke-linejoin="bevel" transform="matrix(1,0,0,1,0,0)"
font-family="Noto Sans UI" font-size="16" font-weight="400" font-style="italic" 
>
</g>

<g fill="none" stroke="#212121" stroke-opacity="1" stroke-width="1" stroke-linecap="square" stroke-linejoin="bevel" transform="matrix(1,0,0,1,65,301)"
font-family="Noto Sans UI" font-size="16" font-weight="400" font-style="italic" 
>
<text fill="#212121" fill-opacity="1" stroke="none" xml:space="preserve" x="0" y="18" font-family="Noto Sans UI" font-size="16" font-weight="400" font-style="italic" 
 >0</text>
</g>

<g fill="none" stroke="#212121" stroke-opacity="1" stroke-width="1" stroke-linecap="square" stroke-linejoin="bevel" transform="matrix(1,0,0,1,65,301)"
font-family="Noto Sans UI" font-size="16" font-weight="400" font-style="italic" 
>
</g>

<g fill="none" stroke="#212121" stroke-opacity="1" stroke-width="1" stroke-linecap="square" stroke-linejoin="bevel" transform="matrix(1,0,0,1,0,0)"
font-family="Noto Sans UI" font-size="16" font-weight="400" font-style="italic" 
>
</g>

<g fill="none" stroke="#212121" stroke-opacity="1" stroke-width="1" stroke-linecap="square" stroke-linejoin="bevel" transform="matrix(1,0,0,1,34,252)"
font-family="Noto Sans UI" font-size="16" font-weight="400" font-style="italic" 
>
<text fill="#212121" fill-opacity="1" stroke="none" xml:space="preserve" x="0" y="18" font-family="Noto Sans UI" font-size="16" font-weight="400" font-style="italic" 
 >1,000</text>
</g>

<g fill="none" stroke="#212121" stroke-opacity="1" stroke-width="1" stroke-linecap="square" stroke-linejoin="bevel" transform="matrix(1,0,0,1,34,252)"
font-family="Noto Sans UI" font-size="16" font-weight="400" font-style="italic" 
>
</g>

<g fill="none" stroke="#212121" stroke-opacity="1" stroke-width="1" stroke-linecap="square" stroke-linejoin="bevel" transform="matrix(1,0,0,1,0,0)"
font-family="Noto Sans UI" font-size="16" font-weight="400" font-style="italic" 
>
</g>

<g fill="none" stroke="#212121" stroke-opacity="1" stroke-width="1" stroke-linecap="square" stroke-linejoin="bevel" transform="matrix(1,0,0,1,34,202)"
font-family="Noto Sans UI" font-size="16" font-weight="400" font-style="italic" 
>
<text fill="#212121" fill-opacity="1" stroke="none" xml:space="preserve" x="0" y="18" font-family="Noto Sans UI" font-size="16" font-weight="400" font-style="italic" 
 >2,000</text>
</g>

<g fill="none" stroke="#212121" stroke-opacity="1" stroke-width="1" stroke-linecap="square" stroke-linejoin="bevel" transform="matrix(1,0,0,1,34,202)"
font-family="Noto Sans UI" font-size="16" font-weight="400" font-style="italic" 
>
</g>

<g fill="none" stroke="#212121" stroke-opacity="1" stroke-width="1" stroke-linecap="square" stroke-linejoin="bevel" transform="matrix(1,0,0,1,0,0)"
font-family="Noto Sans UI" font-size="16" font-weight="400" font-style="italic" 
>
</g>

<g fill="none" stroke="#212121" stroke-opacity="1" stroke-width="1" stroke-linecap="square" stroke-linejoin="bevel" transform="matrix(1,0,0,1,34,153)"
font-family="Noto Sans UI" font-size="16" font-weight="400" font-style="italic" 
>
<text fill="#212121" fill-opacity="1" stroke="none" xml:space="preserve" x="0" y="18" font-family="Noto Sans UI" font-size="16" font-weight="400" font-style="italic" 
 >3,000</text>
</g>

<g fill="none" stroke="#212121" stroke-opacity="1" stroke-width="1" stroke-linecap="square" stroke-linejoin="bevel" transform="matrix(1,0,0,1,34,153)"
font-family="Noto Sans UI" font-size="16" font-weight="400" font-style="italic" 
>
</g>

<g fill="none" stroke="#212121" stroke-opacity="1" stroke-width="1" stroke-linecap="square" stroke-linejoin="bevel" transform="matrix(1,0,0,1,0,0)"
font-family="Noto Sans UI" font-size="16" font-weight="400" font-style="italic" 
>
</g>

<g fill="none" stroke="#212121" stroke-opacity="1" stroke-width="1" stroke-linecap="square" stroke-linejoin="bevel" transform="matrix(1,0,0,1,34,103)"
font-family="Noto Sans UI" font-size="16" font-weight="400" font-style="italic" 
>
<text fill="#212121" fill-opacity="1" stroke="none" xml:space="preserve" x="0" y="18" font-family="Noto Sans UI" font-size="16" font-weight="400" font-style="italic" 
 >4,000</text>
</g>

<g fill="none" stroke="#212121" stroke-opacity="1" stroke-width="1" stroke-linecap="square" stroke-linejoin="bevel" transform="matrix(1,0,0,1,34,103)"
font-family="Noto Sans UI" font-size="16" font-weight="400" font-style="italic" 
>
</g>

<g fill="none" stroke="#212121" stroke-opacity="1" stroke-width="1" stroke-linecap="square" stroke-linejoin="bevel" transform="matrix(1,0,0,1,0,0)"
font-family="Noto Sans UI" font-size="16" font-weight="400" font-style="italic" 
>
</g>

<g fill="none" stroke="#212121" stroke-opacity="1" stroke-width="1" stroke-linecap="square" stroke-linejoin="bevel" transform="matrix(1,0,0,1,34,54)"
font-family="Noto Sans UI" font-size="16" font-weight="400" font-style="italic" 
>
<text fill="#212121" fill-opacity="1" stroke="none" xml:space="preserve" x="0" y="18" font-family="Noto Sans UI" font-size="16" font-weight="400" font-style="italic" 
 >5,000</text>
</g>

<g fill="none" stroke="#212121" stroke-opacity="1" stroke-width="1" stroke-linecap="square" stroke-linejoin="bevel" transform="matrix(1,0,0,1,34,54)"
font-family="Noto Sans UI" font-size="16" font-weight="400" font-style="italic" 
>
</g>

<g fill="none" stroke="#212121" stroke-opacity="1" stroke-width="1" stroke-linecap="square" stroke-linejoin="bevel" transform="matrix(1,0,0,1,0,0)"
font-family="Noto Sans UI" font-size="16" font-weight="400" font-style="italic" 
>
</g>

<g fill="none" stroke="#212121" stroke-opacity="1" stroke-width="1" stroke-linecap="square" stroke-linejoin="bevel" transform="matrix(1,0,0,1,34,4)"
font-family="Noto Sans UI" font-size="16" font-weight="400" font-style="italic" 
>
<text fill="#212121" fill-opacity="1" stroke="none" xml:space="preserve" x="0" y="18" font-family="Noto Sans UI" font-size="16" font-weight="400" font-style="italic" 
 >6,000</text>
</g>

<g fill="none" stroke="#212121" stroke-opacity="1" stroke-width="1" stroke-linecap="square" stroke-linejoin="bevel" transform="matrix(1,0,0,1,34,4)"
font-family="Noto Sans UI" font-size="16" font-weight="400" font-style="italic" 
>
</g>

<g fill="none" stroke="#212121" stroke-opacity="1" stroke-width="1" stroke-linecap="square" stroke-linejoin="bevel" transform="matrix(1,0,0,1,0,0)"
font-family="Noto Sans UI" font-size="16" font-weight="400" font-style="italic" 
>
</g>

<g fill="none" stroke="#000000" stroke-opacity="1" stroke-width="1" stroke-linecap="square" stroke-linejoin="bevel" transform="matrix(1,0,0,1,0,0)"
font-family="Noto Sans UI" font-size="16" font-weight="400" font-style="italic" 
>
<polyline fill="none" vector-effect="non-scaling-stroke" points="80,264 81,264 " />
<polyline fill="none" vector-effect="non-scaling-stroke" points="80,214 81,214 " />
<polyline fill="none" vector-effect="non-scaling-stroke" points="80,165 81,165 " />
<polyline fill="none" vector-effect="non-scaling-stroke" points="80,115 81,115 " />
<polyline fill="none" vector-effect="non-scaling-stroke" points="80,66 81,66 " />
</g>

<g fill="none" stroke="#000000" stroke-opacity="1" stroke-width="1" stroke-linecap="square" stroke-linejoin="bevel" transform="matrix(1,0,0,1,0,0)"
font-family="Noto Sans UI" font-size="16" font-weight="400" font-style="italic" 
>
<polyline fill="none" vector-effect="non-scaling-stroke" points="80,16 80,313 " />
</g>

<g fill="none" stroke="#000000" stroke-opacity="1" stroke-width="1" stroke-linecap="square" stroke-linejoin="bevel" transform="matrix(1,0,0,1,0,0)"
font-family="Noto Sans UI" font-size="16" font-weight="400" font-style="italic" 
>
<polyline fill="none" vector-effect="non-scaling-stroke" points="80,264 89,264 " />
<polyline fill="none" vector-effect="non-scaling-stroke" points="80,214 89,214 " />
<polyline fill="none" vector-effect="non-scaling-stroke" points="80,165 89,165 " />
<polyline fill="none" vector-effect="non-scaling-stroke" points="80,115 89,115 " />
<polyline fill="none" vector-effect="non-scaling-stroke" points="80,66 89,66 " />
<polyline fill="none" vector-effect="non-scaling-stroke" points="80,305 85,305 " />
<polyline fill="none" vector-effect="non-scaling-stroke" points="80,297 85,297 " />
<polyline fill="none" vector-effect="non-scaling-stroke" points="80,280 85,280 " />
<polyline fill="none" vector-effect="non-scaling-stroke" points="80,272 85,272 " />
<polyline fill="none" vector-effect="non-scaling-stroke" points="80,255 85,255 " />
<polyline fill="none" vector-effect="non-scaling-stroke" points="80,247 85,247 " />
<polyline fill="none" vector-effect="non-scaling-stroke" points="80,231 85,231 " />
<polyline fill="none" vector-effect="non-scaling-stroke" points="80,222 85,222 " />
<polyline fill="none" vector-effect="non-scaling-stroke" points="80,206 85,206 " />
<polyline fill="none" vector-effect="non-scaling-stroke" points="80,198 85,198 " />
<polyline fill="none" vector-effect="non-scaling-stroke" points="80,181 85,181 " />
<polyline fill="none" vector-effect="non-scaling-stroke" points="80,173 85,173 " />
<polyline fill="none" vector-effect="non-scaling-stroke" points="80,156 85,156 " />
<polyline fill="none" vector-effect="non-scaling-stroke" points="80,148 85,148 " />
<polyline fill="none" vector-effect="non-scaling-stroke" points="80,132 85,132 " />
<polyline fill="none" vector-effect="non-scaling-stroke" points="80,123 85,123 " />
<polyline fill="none" vector-effect="non-scaling-stroke" points="80,107 85,107 " />
<polyline fill="none" vector-effect="non-scaling-stroke" points="80,99 85,99 " />
<polyline fill="none" vector-effect="non-scaling-stroke" points="80,82 85,82 " />
<polyline fill="none" vector-effect="non-scaling-stroke" points="80,74 85,74 " />
<polyline fill="none" vector-effect="non-scaling-stroke" points="80,57 85,57 " />
<polyline fill="none" vector-effect="non-scaling-stroke" points="80,49 85,49 " />
<polyline fill="none" vector-effect="non-scaling-stroke" points="80,33 85,33 " />
<polyline fill="none" vector-effect="non-scaling-stroke" points="80,24 85,24 " />
<polyline fill="none" vector-effect="non-scaling-stroke" points="80,288 85,288 " />
<polyline fill="none" vector-effect="non-scaling-stroke" points="80,239 85,239 " />
<polyline fill="none" vector-effect="non-scaling-stroke" points="80,189 85,189 " />
<polyline fill="none" vector-effect="non-scaling-stroke" points="80,140 85,140 " />
<polyline fill="none" vector-effect="non-scaling-stroke" points="80,90 85,90 " />
<polyline fill="none" vector-effect="non-scaling-stroke" points="80,41 85,41 " />
</g>

<g fill="none" stroke="#000000" stroke-opacity="1" stroke-width="1" stroke-linecap="square" stroke-linejoin="bevel" transform="matrix(1,0,0,1,0,0)"
font-family="Noto Sans UI" font-size="16" font-weight="400" font-style="italic" 
>
</g>

<g fill="none" stroke="#000000" stroke-opacity="1" stroke-width="1" stroke-linecap="square" stroke-linejoin="bevel" transform="matrix(1,0,0,1,0,0)"
font-family="Noto Sans [MONO]" font-size="13.3333" font-weight="400" font-style="normal" 
>
</g>

<g fill="none" stroke="#212121" stroke-opacity="1" stroke-width="1" stroke-linecap="square" stroke-linejoin="bevel" transform="matrix(1,0,0,1,81,345)"
font-family="Noto Sans UI" font-size="16" font-weight="400" font-style="italic" 
>
</g>

<g fill="none" stroke="#000000" stroke-opacity="1" stroke-width="1" stroke-linecap="square" stroke-linejoin="bevel" transform="matrix(1,0,0,1,81,345)"
font-family="Noto Sans UI" font-size="18.6667" font-weight="700" font-style="normal" 
>
</g>

<g fill="none" stroke="#000000" stroke-opacity="1" stroke-width="1" stroke-linecap="square" stroke-linejoin="bevel" transform="matrix(1,0,0,1,81,346)"
font-family="Noto Sans UI" font-size="18.6667" font-weight="700" font-style="normal" 
>
<text fill="#000000" fill-opacity="1" stroke="none" xml:space="preserve" x="119" y="20" font-family="Noto Sans UI" font-size="18.6667" font-weight="700" font-style="normal" 
 >Wavenumber (cm</text>
<text fill="#000000" fill-opacity="1" stroke="none" xml:space="preserve" x="285" y="12" font-family="Noto Sans UI" font-size="12" font-weight="700" font-style="normal" 
 >-1</text>
<text fill="#000000" fill-opacity="1" stroke="none" xml:space="preserve" x="296" y="20" font-family="Noto Sans UI" font-size="18.6667" font-weight="700" font-style="normal" 
 >)</text>
</g>

<g fill="none" stroke="#000000" stroke-opacity="1" stroke-width="1" stroke-linecap="square" stroke-linejoin="bevel" transform="matrix(1,0,0,1,81,345)"
font-family="Noto Sans UI" font-size="18.6667" font-weight="700" font-style="normal" 
>
</g>

<g fill="none" stroke="#212121" stroke-opacity="1" stroke-width="1" stroke-linecap="square" stroke-linejoin="bevel" transform="matrix(1,0,0,1,81,345)"
font-family="Noto Sans UI" font-size="16" font-weight="400" font-style="italic" 
>
</g>

<g fill="none" stroke="#000000" stroke-opacity="1" stroke-width="1" stroke-linecap="square" stroke-linejoin="bevel" transform="matrix(1,0,0,1,0,0)"
font-family="Noto Sans [MONO]" font-size="13.3333" font-weight="400" font-style="normal" 
>
</g>

<g fill="none" stroke="#000000" stroke-opacity="1" stroke-width="1" stroke-linecap="square" stroke-linejoin="bevel" transform="matrix(1,0,0,1,0,0)"
font-family="Noto Sans UI" font-size="16" font-weight="400" font-style="italic" 
>
</g>

<g fill="none" stroke="#000000" stroke-opacity="1" stroke-width="1" stroke-linecap="square" stroke-linejoin="bevel" transform="matrix(1,0,0,1,0,0)"
font-family="Noto Sans UI" font-size="16" font-weight="400" font-style="italic" 
>
<polyline fill="none" vector-effect="none" points="286,305 268,323 " />
<polyline fill="none" vector-effect="none" points="294,305 276,323 " />
</g>

<g fill="none" stroke="#000000" stroke-opacity="1" stroke-width="1" stroke-linecap="square" stroke-linejoin="bevel" transform="matrix(1,0,0,1,0,0)"
font-family="Noto Sans UI" font-size="16" font-weight="400" font-style="italic" 
>
</g>

<g fill="none" stroke="#000000" stroke-opacity="1" stroke-width="1" stroke-linecap="square" stroke-linejoin="bevel" transform="matrix(1,0,0,1,0,0)"
font-family="Noto Sans UI" font-size="16" font-weight="400" font-style="italic" 
>
</g>

<g fill="none" stroke="#212121" stroke-opacity="1" stroke-width="1" stroke-linecap="square" stroke-linejoin="bevel" transform="matrix(1,0,0,1,0,0)"
font-family="Noto Sans UI" font-size="16" font-weight="400" font-style="italic" 
>
</g>

<g fill="none" stroke="#212121" stroke-opacity="1" stroke-width="1" stroke-linecap="square" stroke-linejoin="bevel" transform="matrix(1,0,0,1,106,320)"
font-family="Noto Sans UI" font-size="16" font-weight="400" font-style="italic" 
>
<text fill="#212121" fill-opacity="1" stroke="none" xml:space="preserve" x="0" y="18" font-family="Noto Sans UI" font-size="16" font-weight="400" font-style="italic" 
 >600</text>
</g>

<g fill="none" stroke="#212121" stroke-opacity="1" stroke-width="1" stroke-linecap="square" stroke-linejoin="bevel" transform="matrix(1,0,0,1,106,320)"
font-family="Noto Sans UI" font-size="16" font-weight="400" font-style="italic" 
>
</g>

<g fill="none" stroke="#212121" stroke-opacity="1" stroke-width="1" stroke-linecap="square" stroke-linejoin="bevel" transform="matrix(1,0,0,1,0,0)"
font-family="Noto Sans UI" font-size="16" font-weight="400" font-style="italic" 
>
</g>

<g fill="none" stroke="#212121" stroke-opacity="1" stroke-width="1" stroke-linecap="square" stroke-linejoin="bevel" transform="matrix(1,0,0,1,185,320)"
font-family="Noto Sans UI" font-size="16" font-weight="400" font-style="italic" 
>
<text fill="#212121" fill-opacity="1" stroke="none" xml:space="preserve" x="0" y="18" font-family="Noto Sans UI" font-size="16" font-weight="400" font-style="italic" 
 >800</text>
</g>

<g fill="none" stroke="#212121" stroke-opacity="1" stroke-width="1" stroke-linecap="square" stroke-linejoin="bevel" transform="matrix(1,0,0,1,185,320)"
font-family="Noto Sans UI" font-size="16" font-weight="400" font-style="italic" 
>
</g>

<g fill="none" stroke="#212121" stroke-opacity="1" stroke-width="1" stroke-linecap="square" stroke-linejoin="bevel" transform="matrix(1,0,0,1,0,0)"
font-family="Noto Sans UI" font-size="16" font-weight="400" font-style="italic" 
>
</g>

<g fill="none" stroke="#212121" stroke-opacity="1" stroke-width="1" stroke-linecap="square" stroke-linejoin="bevel" transform="matrix(1,0,0,1,363,320)"
font-family="Noto Sans UI" font-size="16" font-weight="400" font-style="italic" 
>
<text fill="#212121" fill-opacity="1" stroke="none" xml:space="preserve" x="0" y="18" font-family="Noto Sans UI" font-size="16" font-weight="400" font-style="italic" 
 >1,500</text>
</g>

<g fill="none" stroke="#212121" stroke-opacity="1" stroke-width="1" stroke-linecap="square" stroke-linejoin="bevel" transform="matrix(1,0,0,1,363,320)"
font-family="Noto Sans UI" font-size="16" font-weight="400" font-style="italic" 
>
</g>

<g fill="none" stroke="#212121" stroke-opacity="1" stroke-width="1" stroke-linecap="square" stroke-linejoin="bevel" transform="matrix(1,0,0,1,0,0)"
font-family="Noto Sans UI" font-size="16" font-weight="400" font-style="italic" 
>
</g>

<g fill="none" stroke="#212121" stroke-opacity="1" stroke-width="1" stroke-linecap="square" stroke-linejoin="bevel" transform="matrix(1,0,0,1,461,320)"
font-family="Noto Sans UI" font-size="16" font-weight="400" font-style="italic" 
>
<text fill="#212121" fill-opacity="1" stroke="none" xml:space="preserve" x="0" y="18" font-family="Noto Sans UI" font-size="16" font-weight="400" font-style="italic" 
 >1,600</text>
</g>

<g fill="none" stroke="#212121" stroke-opacity="1" stroke-width="1" stroke-linecap="square" stroke-linejoin="bevel" transform="matrix(1,0,0,1,461,320)"
font-family="Noto Sans UI" font-size="16" font-weight="400" font-style="italic" 
>
</g>

<g fill="none" stroke="#212121" stroke-opacity="1" stroke-width="1" stroke-linecap="square" stroke-linejoin="bevel" transform="matrix(1,0,0,1,0,0)"
font-family="Noto Sans UI" font-size="16" font-weight="400" font-style="italic" 
>
</g>

<g fill="none" stroke="#000000" stroke-opacity="1" stroke-width="1" stroke-linecap="square" stroke-linejoin="bevel" transform="matrix(1,0,0,1,0,0)"
font-family="Noto Sans UI" font-size="16" font-weight="400" font-style="italic" 
>
<polyline fill="none" vector-effect="non-scaling-stroke" points="120,314 120,313 " />
<polyline fill="none" vector-effect="non-scaling-stroke" points="199,314 199,313 " />
<polyline fill="none" vector-effect="non-scaling-stroke" points="383,314 383,313 " />
</g>

<g fill="none" stroke="#000000" stroke-opacity="1" stroke-width="1" stroke-linecap="square" stroke-linejoin="bevel" transform="matrix(1,0,0,1,0,0)"
font-family="Noto Sans UI" font-size="16" font-weight="400" font-style="italic" 
>
<polyline fill="none" vector-effect="non-scaling-stroke" points="81,314 276,314 " />
<polyline fill="none" vector-effect="non-scaling-stroke" points="286,314 481,314 " />
</g>

<g fill="none" stroke="#000000" stroke-opacity="1" stroke-width="1" stroke-linecap="square" stroke-linejoin="bevel" transform="matrix(1,0,0,1,0,0)"
font-family="Noto Sans UI" font-size="16" font-weight="400" font-style="italic" 
>
<polyline fill="none" vector-effect="non-scaling-stroke" points="120,314 120,305 " />
<polyline fill="none" vector-effect="non-scaling-stroke" points="199,314 199,305 " />
<polyline fill="none" vector-effect="non-scaling-stroke" points="383,314 383,305 " />
<polyline fill="none" vector-effect="non-scaling-stroke" points="89,314 89,309 " />
<polyline fill="none" vector-effect="non-scaling-stroke" points="105,314 105,309 " />
<polyline fill="none" vector-effect="non-scaling-stroke" points="136,314 136,309 " />
<polyline fill="none" vector-effect="non-scaling-stroke" points="152,314 152,309 " />
<polyline fill="none" vector-effect="non-scaling-stroke" points="167,314 167,309 " />
<polyline fill="none" vector-effect="non-scaling-stroke" points="183,314 183,309 " />
<polyline fill="none" vector-effect="non-scaling-stroke" points="214,314 214,309 " />
<polyline fill="none" vector-effect="non-scaling-stroke" points="230,314 230,309 " />
<polyline fill="none" vector-effect="non-scaling-stroke" points="246,314 246,309 " />
<polyline fill="none" vector-effect="non-scaling-stroke" points="261,314 261,309 " />
<polyline fill="none" vector-effect="non-scaling-stroke" points="305,314 305,309 " />
<polyline fill="none" vector-effect="non-scaling-stroke" points="324,314 324,309 " />
<polyline fill="none" vector-effect="non-scaling-stroke" points="344,314 344,309 " />
<polyline fill="none" vector-effect="non-scaling-stroke" points="363,314 363,309 " />
<polyline fill="none" vector-effect="non-scaling-stroke" points="403,314 403,309 " />
<polyline fill="none" vector-effect="non-scaling-stroke" points="422,314 422,309 " />
<polyline fill="none" vector-effect="non-scaling-stroke" points="442,314 442,309 " />
<polyline fill="none" vector-effect="non-scaling-stroke" points="461,314 461,309 " />
</g>

<g fill="none" stroke="#000000" stroke-opacity="1" stroke-width="1" stroke-linecap="square" stroke-linejoin="bevel" transform="matrix(1,0,0,1,0,0)"
font-family="Noto Sans UI" font-size="16" font-weight="400" font-style="italic" 
>
</g>

<g fill="none" stroke="#000000" stroke-opacity="1" stroke-width="1" stroke-linecap="square" stroke-linejoin="bevel" transform="matrix(1,0,0,1,0,0)"
font-family="Noto Sans [MONO]" font-size="13.3333" font-weight="400" font-style="normal" 
>
</g>

<g fill="none" stroke="#000000" stroke-opacity="1" stroke-width="1" stroke-linecap="square" stroke-linejoin="bevel" transform="matrix(1,0,0,1,0,0)"
font-family="Noto Sans [MONO]" font-size="13.3333" font-weight="400" font-style="normal" 
>
</g>

<g fill="none" stroke="#000000" stroke-opacity="1" stroke-width="1" stroke-linecap="square" stroke-linejoin="bevel" transform="matrix(1,0,0,1,122,21)"
font-family="Noto Sans [MONO]" font-size="13.3333" font-weight="400" font-style="normal" 
>
</g>

<g fill="none" stroke="#000000" stroke-opacity="1" stroke-width="1" stroke-linecap="square" stroke-linejoin="bevel" transform="matrix(1,0,0,1,122,21)"
font-family="Noto Sans [MONO]" font-size="13.3333" font-weight="400" font-style="normal" 
>
</g>

<g fill="none" stroke="#000000" stroke-opacity="1" stroke-width="2" stroke-linecap="butt" stroke-linejoin="miter" stroke-miterlimit="2" transform="matrix(1,0,0,1,122,21)"
font-family="Noto Sans [MONO]" font-size="13.3333" font-weight="400" font-style="normal" 
>
<polyline fill="none" vector-effect="non-scaling-stroke" points="11,16 43,16 " />
</g>

<g fill="none" stroke="#000000" stroke-opacity="1" stroke-width="1" stroke-linecap="square" stroke-linejoin="bevel" transform="matrix(1,0,0,1,122,21)"
font-family="Noto Sans [MONO]" font-size="13.3333" font-weight="400" font-style="normal" 
>
</g>

<g fill="none" stroke="#000000" stroke-opacity="1" stroke-width="1" stroke-linecap="square" stroke-linejoin="bevel" transform="matrix(1,0,0,1,122,21)"
font-family="Noto Sans UI" font-size="14.6667" font-weight="400" font-style="italic" 
>
<text fill="#000000" fill-opacity="1" stroke="none" xml:space="preserve" x="53" y="22" font-family="Noto Sans UI" font-size="14.6667" font-weight="400" font-style="italic" 
 >AP</text>
</g>

<g fill="none" stroke="#000000" stroke-opacity="1" stroke-width="1" stroke-linecap="square" stroke-linejoin="bevel" transform="matrix(1,0,0,1,122,21)"
font-family="Noto Sans [MONO]" font-size="13.3333" font-weight="400" font-style="normal" 
>
</g>

<g fill="none" stroke="#000000" stroke-opacity="1" stroke-width="1" stroke-linecap="square" stroke-linejoin="bevel" transform="matrix(1,0,0,1,122,21)"
font-family="Noto Sans [MONO]" font-size="13.3333" font-weight="400" font-style="normal" 
>
</g>

<g fill="none" stroke="#ff0000" stroke-opacity="1" stroke-width="2" stroke-linecap="butt" stroke-linejoin="miter" stroke-miterlimit="2" transform="matrix(1,0,0,1,122,21)"
font-family="Noto Sans [MONO]" font-size="13.3333" font-weight="400" font-style="normal" 
>
<polyline fill="none" vector-effect="non-scaling-stroke" points="11,37 43,37 " />
</g>

<g fill="none" stroke="#000000" stroke-opacity="1" stroke-width="1" stroke-linecap="square" stroke-linejoin="bevel" transform="matrix(1,0,0,1,122,21)"
font-family="Noto Sans [MONO]" font-size="13.3333" font-weight="400" font-style="normal" 
>
</g>

<g fill="none" stroke="#000000" stroke-opacity="1" stroke-width="1" stroke-linecap="square" stroke-linejoin="bevel" transform="matrix(1,0,0,1,122,21)"
font-family="Noto Sans UI" font-size="14.6667" font-weight="400" font-style="italic" 
>
<text fill="#000000" fill-opacity="1" stroke="none" xml:space="preserve" x="53" y="43" font-family="Noto Sans UI" font-size="14.6667" font-weight="400" font-style="italic" 
 >Plate (211)</text>
</g>

<g fill="none" stroke="#000000" stroke-opacity="1" stroke-width="1" stroke-linecap="square" stroke-linejoin="bevel" transform="matrix(1,0,0,1,122,21)"
font-family="Noto Sans [MONO]" font-size="13.3333" font-weight="400" font-style="normal" 
>
</g>

<g fill="none" stroke="#000000" stroke-opacity="1" stroke-width="1" stroke-linecap="square" stroke-linejoin="bevel" transform="matrix(1,0,0,1,122,21)"
font-family="Noto Sans [MONO]" font-size="13.3333" font-weight="400" font-style="normal" 
>
</g>

<g fill="none" stroke="#00ff00" stroke-opacity="1" stroke-width="2" stroke-linecap="butt" stroke-linejoin="miter" stroke-miterlimit="2" transform="matrix(1,0,0,1,122,21)"
font-family="Noto Sans [MONO]" font-size="13.3333" font-weight="400" font-style="normal" 
>
<polyline fill="none" vector-effect="non-scaling-stroke" points="11,58 43,58 " />
</g>

<g fill="none" stroke="#000000" stroke-opacity="1" stroke-width="1" stroke-linecap="square" stroke-linejoin="bevel" transform="matrix(1,0,0,1,122,21)"
font-family="Noto Sans [MONO]" font-size="13.3333" font-weight="400" font-style="normal" 
>
</g>

<g fill="none" stroke="#000000" stroke-opacity="1" stroke-width="1" stroke-linecap="square" stroke-linejoin="bevel" transform="matrix(1,0,0,1,122,21)"
font-family="Noto Sans UI" font-size="14.6667" font-weight="400" font-style="italic" 
>
<text fill="#000000" fill-opacity="1" stroke="none" xml:space="preserve" x="53" y="64" font-family="Noto Sans UI" font-size="14.6667" font-weight="400" font-style="italic" 
 >Sphere</text>
</g>

<g fill="none" stroke="#000000" stroke-opacity="1" stroke-width="1" stroke-linecap="square" stroke-linejoin="bevel" transform="matrix(1,0,0,1,122,21)"
font-family="Noto Sans [MONO]" font-size="13.3333" font-weight="400" font-style="normal" 
>
</g>

<g fill="none" stroke="#000000" stroke-opacity="1" stroke-width="1" stroke-linecap="square" stroke-linejoin="bevel" transform="matrix(1,0,0,1,0,0)"
font-family="Noto Sans [MONO]" font-size="13.3333" font-weight="400" font-style="normal" 
>
</g>

<g fill="none" stroke="#000000" stroke-opacity="1" stroke-width="1" stroke-linecap="square" stroke-linejoin="bevel" transform="matrix(1,0,0,1,0,0)"
font-family="Noto Sans [MONO]" font-size="13.3333" font-weight="400" font-style="normal" 
>
</g>
</g>
</svg>
