<?xml version="1.0" encoding="UTF-8" standalone="no"?>
<!-- Created with Inkscape (http://www.inkscape.org/) -->

<svg
   version="1.1"
   id="svg2"
   xml:space="preserve"
   width="475"
   height="354"
   viewBox="0 0 475 354"
   xmlns="http://www.w3.org/2000/svg"
   xmlns:svg="http://www.w3.org/2000/svg"><defs
     id="defs6"><clipPath
       clipPathUnits="userSpaceOnUse"
       id="clipPath20"><path
         d="M 52.5,258.75 H 345.75 V 38.25 H 52.5 Z"
         clip-rule="evenodd"
         id="path18" /></clipPath><clipPath
       clipPathUnits="userSpaceOnUse"
       id="clipPath30"><path
         d="M 52.5,258.75 H 345.75 V 38.25 H 52.5 Z"
         clip-rule="evenodd"
         id="path28" /></clipPath><clipPath
       clipPathUnits="userSpaceOnUse"
       id="clipPath40"><path
         d="M 52.5,258.75 H 345.75 V 38.25 H 52.5 Z"
         clip-rule="evenodd"
         id="path38" /></clipPath></defs><g
     id="g8"
     transform="matrix(1.3333333,0,0,-1.3333333,0,354)"><g
       id="g10"><path
         d="M 0,265.5 H 356.25 V 0 H 0 Z"
         style="fill:#ffffff;fill-opacity:1;fill-rule:nonzero;stroke:none"
         id="path12" /></g><g
       id="g14"><g
         id="g16"
         clip-path="url(#clipPath20)"><path
           d="m 52.5,38.847 0.586,0.005 0.587,0.005 1.173,0.011 0.586,0.005 0.587,0.006 1.173,0.011 0.587,0.006 0.586,0.005 0.586,0.006 1.174,0.012 0.586,0.006 0.586,0.007 0.587,0.006 1.173,0.013 0.587,0.006 0.586,0.007 1.173,0.013 0.587,0.007 0.586,0.007 0.586,0.007 1.173,0.015 0.587,0.007 0.587,0.008 1.172,0.015 0.587,0.008 0.587,0.008 0.586,0.008 1.173,0.016 0.586,0.009 0.587,0.008 1.173,0.018 0.586,0.009 0.587,0.009 0.587,0.009 1.172,0.019 0.587,0.01 0.586,0.009 0.587,0.01 1.173,0.021 0.586,0.01 0.587,0.011 1.173,0.022 0.587,0.011 0.586,0.011 0.586,0.012 1.174,0.023 0.586,0.013 0.586,0.012 1.174,0.025 0.586,0.013 0.587,0.014 0.586,0.013 1.173,0.028 0.587,0.014 0.586,0.014 0.586,0.015 1.174,0.03 0.586,0.016 0.587,0.016 1.172,0.032 0.587,0.017 0.587,0.017 0.586,0.017 1.173,0.036 0.587,0.019 0.586,0.019 1.173,0.038 0.586,0.02 0.587,0.021 0.587,0.021 1.172,0.043 0.587,0.022 0.587,0.022 0.586,0.023 1.173,0.048 0.586,0.025 0.587,0.025 1.173,0.052 0.586,0.027 0.587,0.028 0.587,0.028 1.173,0.058 0.586,0.031 0.586,0.03 1.174,0.065 0.586,0.033 0.586,0.034 0.587,0.035 1.173,0.073 0.587,0.037 0.586,0.039 1.173,0.08 0.587,0.042 0.586,0.043 0.586,0.044 1.174,0.092 0.586,0.048 0.586,0.05 0.587,0.05 1.173,0.106 0.587,0.055 0.586,0.057 1.173,0.119 0.587,0.063 0.586,0.064 0.587,0.066 1.172,0.14 0.587,0.073 0.587,0.075 1.172,0.159 0.587,0.083 0.587,0.087 0.586,0.089 1.173,0.189 0.586,0.1 0.587,0.103 0.587,0.107 1.172,0.227 0.587,0.121 0.587,0.125 1.172,0.266 0.587,0.141 0.586,0.148 0.587,0.154 1.173,0.328 0.586,0.175 0.587,0.184 1.173,0.394 0.587,0.211 0.586,0.222 0.586,0.233 1.174,0.502 0.586,0.272 0.586,0.286 0.587,0.302 1.173,0.656 0.586,0.358 0.587,0.378 1.173,0.829 0.587,0.454 0.586,0.483 0.586,0.516 1.174,1.14 0.586,0.63 0.586,0.676 0.587,0.727 0.586,0.781 0.587,0.842 0.587,0.908 0.586,0.981 0.586,1.063 0.587,1.152 0.587,1.251 0.586,1.361 0.587,1.483 0.586,1.617 0.586,1.765 0.587,1.931 0.587,2.112 0.586,2.313 0.586,2.531 0.587,2.77 0.587,3.027 0.586,3.301 0.587,3.588 0.586,3.881 0.586,4.172 0.587,4.446 0.587,4.687 0.586,4.87 0.586,4.973 0.587,4.968 0.587,4.834 0.586,4.551 0.586,4.119 0.587,3.547 0.586,2.859 0.587,2.093 0.587,1.29 0.586,0.493 0.586,-0.262 0.587,-0.95 0.587,-1.555 0.586,-2.069 0.587,-2.495 0.586,-2.835 0.586,-3.101 0.587,-3.3 0.587,-3.439 0.586,-3.528 0.586,-3.573 0.587,-3.578 0.587,-3.55 0.586,-3.489 0.586,-3.399 0.587,-3.283 0.586,-3.141 0.587,-2.979 0.587,-2.8 0.586,-2.607 0.586,-2.405 0.587,-2.197 0.587,-1.989 0.586,-1.784 0.587,-1.582 0.586,-1.388 0.586,-1.201 0.587,-1.022 0.587,-0.851 0.586,-0.686 0.586,-0.528 0.587,-0.375 0.587,-0.226 0.586,-0.079 1.173,0.278 0.586,0.36 0.587,0.511 0.587,0.666 0.586,0.829 0.586,1 0.587,1.18 0.587,1.374 0.586,1.579 0.587,1.801 0.586,2.039 0.586,2.294 0.587,2.568 0.587,2.859 0.586,3.166 0.586,3.486 0.587,3.809 0.587,4.13 0.586,4.433 0.587,4.698 0.586,4.908 0.586,5.035 0.587,5.055 0.587,4.949 0.586,4.701 0.586,4.311 0.587,3.793 0.587,3.172 0.586,2.483 0.587,1.768 0.586,1.064 1.173,0.206 0.587,-0.718 0.586,-1.159 0.586,-1.521 0.587,-1.811 0.587,-2.038 0.586,-2.21 0.586,-2.335 0.587,-2.425 0.586,-2.483 0.587,-2.519 0.587,-2.535 0.586,-2.538 0.586,-2.529 0.587,-2.513 0.587,-2.491 0.586,-2.465 0.586,-2.436 0.587,-2.406 0.586,-2.375 0.587,-2.344 0.587,-2.313 0.586,-2.284 0.586,-2.255 0.587,-2.228 0.587,-2.201 0.586,-2.176 0.587,-2.153 0.586,-2.129 0.586,-2.107 0.587,-2.086 0.587,-2.064 0.586,-2.043 0.586,-2.021 0.587,-1.997 0.587,-1.972 0.586,-1.943 0.586,-1.911 0.587,-1.874 0.586,-1.831 0.587,-1.783 0.587,-1.727 0.586,-1.666 0.586,-1.598 0.587,-1.524 0.587,-1.447 0.586,-1.366 0.587,-1.285 0.586,-1.203 0.586,-1.124 0.587,-1.047 0.587,-0.975 0.586,-0.905 0.586,-0.841 0.587,-0.782 0.587,-0.726 0.586,-0.676 0.587,-0.629 0.586,-0.587 0.586,-0.547 0.587,-0.512 0.587,-0.478 0.586,-0.449 0.586,-0.421 0.587,-0.395 0.587,-0.372 0.586,-0.351 0.586,-0.331 1.173,-0.608 0.587,-0.28 0.587,-0.265 0.586,-0.252 1.173,-0.466 0.587,-0.217 0.586,-0.206 1.173,-0.385 0.586,-0.18 0.587,-0.172 0.587,-0.164 1.172,-0.308 0.587,-0.145 0.587,-0.139 1.173,-0.261 0.586,-0.123 0.586,-0.119 0.587,-0.114 1.173,-0.216 0.586,-0.103 0.587,-0.098 0.587,-0.096 1.173,-0.181 0.586,-0.086 0.586,-0.083 1.174,-0.158 0.586,-0.076 0.586,-0.073 0.587,-0.071 1.173,-0.135 0.587,-0.065 0.586,-0.062 1.173,-0.12 0.587,-0.058 0.586,-0.056 0.587,-0.054 1.173,-0.104 0.586,-0.051 0.587,-0.048 1.172,-0.094 0.587,-0.045 0.587,-0.044 0.586,-0.042 0.586,-0.042 0.587,-0.041 0.587,-0.039 0.586,-0.039 0.587,-0.038 1.172,-0.073 0.587,-0.035 0.587,-0.034 1.172,-0.066 0.587,-0.032 0.587,-0.032 0.586,-0.03 1.173,-0.059 0.586,-0.029 0.587,-0.028 1.173,-0.054 0.586,-0.026 0.587,-0.026 0.587,-0.025 1.172,-0.049 0.587,-0.024 0.586,-0.023 0.587,-0.023 1.173,-0.044 0.586,-0.021 0.587,-0.021 1.173,-0.041 0.587,-0.02 0.586,-0.02 0.586,-0.019 1.174,-0.037 0.586,-0.018 0.586,-0.018 1.174,-0.034 0.586,-0.017 0.587,-0.016 0.586,-0.017 1.173,-0.031 0.587,-0.016 0.586,-0.015 0.586,-0.015 1.174,-0.029 0.586,-0.014 0.586,-0.014 1.173,-0.027 0.587,-0.013 0.587,-0.013 0.586,-0.013 1.173,-0.025 0.587,-0.012 0.586,-0.012 1.173,-0.024 0.586,-0.011 0.587,-0.011 0.587,-0.011 1.172,-0.022 0.587,-0.011 0.587,-0.01 1.173,-0.021 0.586,-0.01 0.586,-0.01 0.587,-0.009 1.173,-0.019 0.586,-0.01 0.587,-0.009 0.587,-0.009 1.172,-0.018 0.587,-0.008 0.586,-0.009 1.174,-0.016 h 0.586"
           style="fill:none;stroke:#000000;stroke-width:2;stroke-linecap:butt;stroke-linejoin:miter;stroke-miterlimit:10;stroke-dasharray:none;stroke-opacity:1"
           id="path22" /></g></g><g
       id="g24"><g
         id="g26"
         clip-path="url(#clipPath30)"><path
           d="m 52.5,38.813 0.586,0.005 0.587,0.005 1.173,0.01 0.586,0.005 0.587,0.005 1.173,0.01 0.587,0.005 0.586,0.005 0.586,0.006 1.174,0.011 0.586,0.005 0.586,0.006 0.587,0.006 1.173,0.012 0.587,0.006 0.586,0.006 1.173,0.012 0.587,0.006 0.586,0.007 0.586,0.006 1.173,0.013 0.587,0.007 0.587,0.007 1.172,0.014 0.587,0.007 0.587,0.007 0.586,0.007 1.173,0.015 0.586,0.008 0.587,0.008 1.173,0.016 0.586,0.008 0.587,0.008 0.587,0.008 1.172,0.017 0.587,0.009 0.586,0.009 0.587,0.009 1.173,0.018 0.586,0.01 0.587,0.01 1.173,0.019 0.587,0.01 0.586,0.01 0.586,0.011 1.174,0.021 0.586,0.011 0.586,0.011 1.174,0.023 0.586,0.011 0.587,0.012 0.586,0.012 1.173,0.025 0.587,0.012 0.586,0.013 0.586,0.013 1.174,0.027 0.586,0.014 0.587,0.014 1.172,0.029 0.587,0.015 0.587,0.015 0.586,0.015 1.173,0.032 0.587,0.016 0.586,0.017 1.173,0.034 0.586,0.017 0.587,0.018 0.587,0.018 1.172,0.038 0.587,0.019 0.587,0.02 0.586,0.02 1.173,0.042 0.586,0.021 0.587,0.022 1.173,0.045 0.586,0.024 0.587,0.024 0.587,0.024 1.173,0.05 0.586,0.026 0.586,0.027 1.174,0.055 0.586,0.029 0.586,0.029 0.587,0.03 1.173,0.061 0.587,0.033 0.586,0.032 1.173,0.069 0.587,0.035 0.586,0.036 0.586,0.038 1.174,0.077 0.586,0.04 0.586,0.041 0.587,0.043 1.173,0.088 0.587,0.046 0.586,0.047 1.173,0.099 0.587,0.052 0.586,0.053 0.587,0.054 1.172,0.114 0.587,0.06 0.587,0.061 1.172,0.129 0.587,0.068 0.587,0.07 0.586,0.072 1.173,0.151 0.586,0.08 0.587,0.082 0.587,0.085 1.172,0.18 0.587,0.095 0.587,0.098 1.172,0.208 0.587,0.11 0.586,0.114 0.587,0.119 0.587,0.124 0.586,0.128 0.586,0.134 0.587,0.14 1.173,0.298 0.587,0.158 0.586,0.166 0.586,0.174 1.174,0.371 0.586,0.199 0.586,0.209 0.587,0.22 0.587,0.23 0.586,0.243 0.586,0.255 0.587,0.268 1.173,0.583 0.587,0.317 0.586,0.334 0.586,0.354 1.174,0.775 0.586,0.424 0.586,0.451 0.587,0.48 0.586,0.513 0.587,0.548 0.587,0.586 0.586,0.628 0.586,0.674 0.587,0.724 0.587,0.779 0.586,0.84 0.587,0.907 0.586,0.981 0.586,1.063 0.587,1.152 0.587,1.253 0.586,1.364 0.586,1.486 0.587,1.623 0.587,1.774 0.586,1.941 0.587,2.125 0.586,2.329 0.586,2.553 0.587,2.796 0.587,3.06 0.586,3.341 0.586,3.638 0.587,3.942 0.587,4.246 0.586,4.535 0.586,4.789 0.587,4.987 0.586,5.097 0.587,5.091 0.587,4.937 0.586,4.614 0.586,4.106 0.587,3.422 0.587,2.585 0.586,1.635 0.587,0.626 0.586,-0.382 0.586,-1.339 0.587,-2.199 0.587,-2.933 0.586,-3.524 0.586,-3.964 0.587,-4.261 0.587,-4.424 0.586,-4.469 0.586,-4.414 0.587,-4.278 0.586,-4.081 0.587,-3.84 0.587,-3.572 0.586,-3.289 0.586,-3.003 0.587,-2.72 0.587,-2.447 0.586,-2.188 0.587,-1.942 0.586,-1.713 0.586,-1.498 0.587,-1.298 0.587,-1.112 0.586,-0.937 0.586,-0.774 0.587,-0.618 0.587,-0.471 0.586,-0.331 1.173,-0.253 0.586,0.071 0.587,0.202 0.587,0.334 1.172,1.074 0.587,0.749 0.587,0.899 0.586,1.057 0.587,1.225 0.586,1.405 0.586,1.599 0.587,1.809 0.587,2.035 0.586,2.284 0.586,2.553 0.587,2.847 0.587,3.166 0.586,3.513 0.587,3.886 0.586,4.284 0.586,4.703 0.587,5.136 0.587,5.571 0.586,5.994 0.586,6.38 0.587,6.7 0.587,6.921 0.586,7.005 0.587,6.917 0.586,6.625 0.586,6.118 0.587,5.398 0.587,4.491 0.586,3.444 0.586,2.313 0.587,1.162 0.587,0.046 0.586,-0.989 0.586,-1.916 0.587,-2.716 0.586,-3.388 0.587,-3.938 0.587,-4.374 0.586,-4.712 0.586,-4.964 0.587,-5.143 0.587,-5.261 0.586,-5.327 0.586,-5.35 0.587,-5.333 0.586,-5.283 0.587,-5.201 0.587,-5.09 0.586,-4.951 0.586,-4.788 0.587,-4.599 0.587,-4.392 0.586,-4.168 0.587,-3.931 0.586,-3.689 0.586,-3.443 0.587,-3.202 0.587,-2.966 0.586,-2.742 0.586,-2.528 0.587,-2.329 0.587,-2.145 0.586,-1.974 0.586,-1.817 0.587,-1.675 0.586,-1.544 0.587,-1.425 0.587,-1.318 0.586,-1.219 0.586,-1.129 0.587,-1.049 0.587,-0.974 0.586,-0.907 0.587,-0.845 0.586,-0.789 0.586,-0.737 0.587,-0.69 0.587,-0.647 0.586,-0.607 0.586,-0.57 0.587,-0.537 0.587,-0.505 0.586,-0.477 0.587,-0.45 0.586,-0.425 1.173,-0.784 0.587,-0.361 0.586,-0.343 1.173,-0.635 0.587,-0.295 0.586,-0.28 0.586,-0.268 0.587,-0.255 0.586,-0.243 0.587,-0.233 0.587,-0.222 0.586,-0.213 1.173,-0.399 0.587,-0.187 0.586,-0.18 1.173,-0.337 0.586,-0.159 0.587,-0.153 0.587,-0.147 1.172,-0.278 0.587,-0.131 0.587,-0.127 1.173,-0.239 0.586,-0.114 0.586,-0.11 0.587,-0.106 1.173,-0.202 0.586,-0.095 0.587,-0.093 0.587,-0.09 1.173,-0.171 0.586,-0.082 0.586,-0.079 1.174,-0.152 0.586,-0.072 0.586,-0.07 0.587,-0.068 1.173,-0.131 0.587,-0.062 0.586,-0.061 1.173,-0.117 0.587,-0.056 0.586,-0.054 0.587,-0.053 1.173,-0.102 0.586,-0.049 0.587,-0.048 1.172,-0.092 0.587,-0.044 0.587,-0.044 0.586,-0.042 1.173,-0.081 0.587,-0.039 0.586,-0.038 0.587,-0.038 1.172,-0.072 0.587,-0.035 0.587,-0.034 1.172,-0.066 0.587,-0.032 0.587,-0.031 0.586,-0.03 1.173,-0.059 0.586,-0.029 0.587,-0.028 1.173,-0.054 0.586,-0.027 0.587,-0.025 0.587,-0.026 1.172,-0.048 0.587,-0.024 0.586,-0.024 0.587,-0.022 1.173,-0.045 0.586,-0.021 0.587,-0.021 1.173,-0.041 0.587,-0.02 0.586,-0.02 0.586,-0.019 1.174,-0.038 0.586,-0.018 0.586,-0.018 1.174,-0.035 0.586,-0.016 0.587,-0.017 0.586,-0.017 1.173,-0.031 0.587,-0.016 0.586,-0.015 0.586,-0.015 1.174,-0.03 0.586,-0.014 0.586,-0.014 1.173,-0.027 0.587,-0.014 0.587,-0.013 0.586,-0.013 1.173,-0.025 0.587,-0.012 0.586,-0.013 1.173,-0.023 0.586,-0.012 0.587,-0.011 0.587,-0.012 1.172,-0.022 0.587,-0.01 0.587,-0.011 1.173,-0.021 0.586,-0.01 0.586,-0.01 0.587,-0.01 1.173,-0.019 0.586,-0.009 0.587,-0.01 0.587,-0.009 1.172,-0.018 0.587,-0.009 0.586,-0.008 1.174,-0.017 h 0.586"
           style="fill:none;stroke:#ff0000;stroke-width:2;stroke-linecap:butt;stroke-linejoin:miter;stroke-miterlimit:10;stroke-dasharray:none;stroke-opacity:1"
           id="path32" /></g></g><g
       id="g34"><g
         id="g36"
         clip-path="url(#clipPath40)"><path
           d="m 52.5,38.794 0.586,0.004 0.587,0.005 1.173,0.009 0.586,0.005 0.587,0.005 1.173,0.01 0.587,0.005 0.586,0.005 0.586,0.005 1.174,0.01 0.586,0.005 0.586,0.006 0.587,0.005 1.173,0.011 0.587,0.006 0.586,0.006 1.173,0.012 0.587,0.006 0.586,0.006 0.586,0.006 1.173,0.012 0.587,0.007 0.587,0.006 1.172,0.013 0.587,0.007 0.587,0.007 0.586,0.007 1.173,0.014 0.586,0.007 0.587,0.008 1.173,0.015 0.586,0.007 0.587,0.008 0.587,0.008 1.172,0.016 0.587,0.008 0.586,0.009 0.587,0.008 1.173,0.017 0.586,0.009 0.587,0.009 1.173,0.019 0.587,0.009 0.586,0.01 0.586,0.01 1.174,0.02 0.586,0.01 0.586,0.01 1.174,0.021 0.586,0.011 0.587,0.011 0.586,0.012 1.173,0.023 0.587,0.012 0.586,0.012 0.586,0.012 1.174,0.025 0.586,0.013 0.587,0.013 1.172,0.027 0.587,0.014 0.587,0.014 0.586,0.014 1.173,0.03 0.587,0.015 0.586,0.016 1.173,0.031 0.586,0.017 0.587,0.016 0.587,0.017 1.172,0.035 0.587,0.018 0.587,0.018 0.586,0.019 1.173,0.039 0.586,0.02 0.587,0.02 1.173,0.042 0.586,0.021 0.587,0.022 0.587,0.023 1.173,0.046 0.586,0.024 0.586,0.025 1.174,0.05 0.586,0.027 0.586,0.026 0.587,0.028 1.173,0.057 0.587,0.029 0.586,0.03 1.173,0.063 0.587,0.032 0.586,0.033 0.586,0.034 1.174,0.071 0.586,0.036 0.586,0.038 0.587,0.038 1.173,0.081 0.587,0.041 0.586,0.043 1.173,0.09 0.587,0.046 0.586,0.048 0.587,0.049 1.172,0.103 0.587,0.054 0.587,0.055 1.172,0.116 0.587,0.06 0.587,0.063 0.586,0.064 1.173,0.135 0.586,0.071 0.587,0.074 0.587,0.075 1.172,0.16 0.587,0.084 0.587,0.087 1.172,0.183 0.587,0.097 0.586,0.1 0.587,0.104 1.173,0.221 0.586,0.117 0.587,0.122 0.587,0.127 0.586,0.132 0.587,0.138 0.586,0.143 0.586,0.15 0.587,0.156 0.587,0.164 0.586,0.171 0.586,0.179 0.587,0.187 1.173,0.403 0.586,0.217 0.587,0.227 1.173,0.492 0.587,0.266 0.586,0.28 0.586,0.296 0.587,0.312 0.587,0.332 0.586,0.35 0.586,0.372 0.587,0.395 0.586,0.42 0.587,0.447 0.587,0.477 0.586,0.509 0.586,0.543 0.587,0.583 0.587,0.623 0.586,0.67 0.587,0.72 0.586,0.776 0.586,0.836 0.587,0.904 0.587,0.978 0.586,1.06 0.586,1.151 0.587,1.251 0.587,1.363 0.586,1.487 0.587,1.624 0.586,1.777 0.586,1.946 0.587,2.133 0.587,2.339 0.586,2.566 0.586,2.814 0.587,3.082 0.587,3.37 0.586,3.673 0.586,3.986 0.587,4.298 0.586,4.595 0.587,4.857 0.587,5.056 0.586,5.16 0.586,5.132 0.587,4.932 0.587,4.528 0.586,3.901 0.587,3.056 0.586,2.019 0.586,0.855 1.174,-1.889 0.586,-2.58 0.586,-3.446 0.587,-4.093 0.587,-4.518 0.586,-4.736 0.586,-4.78 0.587,-4.687 0.586,-4.494 0.587,-4.235 0.587,-3.935 0.586,-3.617 0.586,-3.296 0.587,-2.982 0.587,-2.681 0.586,-2.397 0.587,-2.132 0.586,-1.885 0.586,-1.657 0.587,-1.448 0.587,-1.252 0.586,-1.072 0.586,-0.905 0.587,-0.748 0.587,-0.601 0.586,-0.462 1.173,-0.529 0.586,-0.076 0.587,0.046 0.587,0.166 1.172,0.698 0.587,0.535 0.587,0.665 0.586,0.798 0.587,0.939 0.586,1.089 0.586,1.247 0.587,1.418 0.587,1.601 0.586,1.801 0.586,2.018 0.587,2.255 0.587,2.515 0.586,2.8 0.587,3.114 0.586,3.459 0.586,3.837 0.587,4.251 0.587,4.703 0.586,5.19 0.586,5.714 0.587,6.265 0.587,6.836 0.586,7.41 0.587,7.96 0.586,8.456 0.586,8.847 0.587,9.081 0.587,9.09 0.586,8.809 0.586,8.176 0.587,7.152 0.587,5.736 0.586,3.967 0.586,1.936 1.173,-2.602 0.587,-4.359 0.587,-6.061 0.586,-7.406 0.586,-8.364 0.587,-8.946 0.587,-9.192 0.586,-9.165 0.586,-8.925 0.587,-8.537 0.586,-8.053 0.587,-7.517 0.587,-6.96 0.586,-6.407 0.586,-5.874 0.587,-5.369 0.587,-4.898 0.586,-4.465 0.587,-4.069 0.586,-3.709 0.586,-3.381 0.587,-3.086 0.587,-2.82 0.586,-2.58 0.586,-2.363 0.587,-2.169 0.587,-1.992 0.586,-1.834 0.586,-1.69 0.587,-1.56 0.586,-1.443 0.587,-1.336 0.587,-1.239 0.586,-1.152 0.586,-1.071 0.587,-0.998 0.587,-0.931 0.586,-0.869 0.587,-0.814 0.586,-0.762 0.586,-0.715 0.587,-0.671 0.587,-0.632 0.586,-0.594 0.586,-0.56 0.587,-0.528 0.587,-0.498 0.586,-0.472 0.587,-0.446 0.586,-0.423 0.586,-0.4 0.587,-0.381 0.587,-0.361 0.586,-0.343 0.586,-0.326 0.587,-0.311 0.587,-0.297 0.586,-0.282 0.586,-0.27 0.587,-0.257 0.586,-0.247 0.587,-0.235 0.587,-0.225 0.586,-0.216 1.173,-0.405 0.587,-0.19 0.586,-0.182 1.173,-0.344 0.586,-0.162 0.587,-0.156 0.587,-0.15 1.172,-0.283 0.587,-0.135 0.587,-0.129 1.173,-0.245 0.586,-0.116 0.586,-0.113 0.587,-0.108 0.587,-0.105 0.586,-0.102 0.586,-0.098 0.587,-0.095 0.587,-0.092 1.173,-0.176 0.586,-0.084 0.586,-0.081 1.174,-0.155 0.586,-0.074 0.586,-0.072 0.587,-0.07 1.173,-0.134 0.587,-0.065 0.586,-0.062 1.173,-0.12 0.587,-0.057 0.586,-0.056 0.587,-0.055 1.173,-0.104 0.586,-0.051 0.587,-0.049 1.172,-0.094 0.587,-0.046 0.587,-0.044 0.586,-0.043 1.173,-0.084 0.587,-0.04 0.586,-0.039 0.587,-0.039 1.172,-0.074 0.587,-0.036 0.587,-0.035 1.172,-0.067 0.587,-0.033 0.587,-0.032 0.586,-0.031 1.173,-0.061 0.586,-0.029 0.587,-0.029 1.173,-0.055 0.586,-0.027 0.587,-0.027 0.587,-0.026 1.172,-0.05 0.587,-0.024 0.586,-0.024 0.587,-0.024 1.173,-0.045 0.586,-0.022 0.587,-0.022 1.173,-0.042 0.587,-0.02 0.586,-0.02 0.586,-0.02 1.174,-0.038 0.586,-0.019 0.586,-0.018 1.174,-0.036 0.586,-0.017 0.587,-0.017 0.586,-0.017 1.173,-0.033 0.587,-0.016 0.586,-0.015 0.586,-0.016 1.174,-0.03 0.586,-0.014 0.586,-0.015 1.173,-0.028 0.587,-0.013 0.587,-0.014 0.586,-0.013 1.173,-0.026 0.587,-0.013 0.586,-0.012 1.173,-0.024 0.586,-0.012 0.587,-0.012 0.587,-0.011 1.172,-0.023 0.587,-0.011 0.587,-0.011 1.173,-0.021 0.586,-0.01 0.586,-0.01 0.587,-0.01 1.173,-0.02 0.586,-0.01 0.587,-0.009 0.587,-0.01 1.172,-0.018 0.587,-0.009 0.586,-0.009 1.174,-0.017 h 0.586"
           style="fill:none;stroke:#00ff00;stroke-width:2;stroke-linecap:butt;stroke-linejoin:miter;stroke-miterlimit:10;stroke-dasharray:none;stroke-opacity:1"
           id="path42" /></g></g><g
       id="g44"><path
         d="m 11.25,58.641 v 1.371 H 5.566 l 0.153,-0.211 4.347,2.238 v 1.09 L 5.719,65.297 5.59,65.168 h 5.66 v 1.371 H 3.609 v -1.371 l 5.59,-2.848 v 0.668 l -5.59,-2.941 v -1.406 h 7.641 m 0.105,12.726 c 0,1.688 -1.148,2.824 -2.859,2.824 -1.641,0 -2.707,-1.043 -2.707,-2.648 0,-1.699 1.149,-2.824 2.871,-2.824 1.629,0 2.695,1.031 2.695,2.648 m -1.183,0.129 c 0,-0.832 -0.633,-1.359 -1.629,-1.359 -0.961,0 -1.57,0.492 -1.57,1.277 0,0.82 0.656,1.359 1.652,1.359 0.949,0 1.547,-0.492 1.547,-1.277 m 1.16,6.551 c 0,0.34 -0.082,0.726 -0.199,1.019 l -0.938,-0.293 c 0.035,-0.117 0.059,-0.234 0.059,-0.339 0,-0.329 -0.211,-0.504 -0.586,-0.504 H 3.117 v -1.383 h 6.727 c 0.926,0 1.488,0.562 1.488,1.5 M 11.25,83.66 v 0.996 H 8.027 c -1.441,0 -2.238,-0.82 -2.238,-2.402 0,-0.762 0.188,-1.582 0.516,-2.215 l 0.972,0.34 c -0.211,0.551 -0.328,1.09 -0.328,1.582 0,0.855 0.328,1.312 0.973,1.312 h 2.297 l 1.031,0.387 m 0.105,-1.875 c 0,1.184 -0.667,2.027 -1.828,2.297 L 9.316,83.625 c 0.575,-0.187 0.938,-0.727 0.938,-1.371 0,-0.539 -0.27,-0.902 -0.68,-0.902 -0.515,0 -0.726,0.609 -0.726,2.168 H 8.074 c 0,-2.485 0.516,-3.586 1.699,-3.586 0.961,0 1.582,0.726 1.582,1.851 m -0.105,5.262 v 1.406 H 7.57 L 5.895,88.16 v -1.113 h 5.355 m -3.047,1.137 c -0.656,0.293 -1.043,0.878 -1.043,1.535 0,0.222 0.047,0.48 0.117,0.679 l -1.289,0.329 c -0.093,-0.235 -0.14,-0.516 -0.14,-0.797 0,-0.703 0.375,-1.36 1.019,-1.746 H 8.203 M 11.25,94.5 v 1.512 l -6.914,2.25 v -0.317 l 6.914,2.239 v 1.57 L 3.609,99.117 V 97.289 L 11.25,94.5 m -1.91,1.793 v 3.656 L 8.074,99.738 V 96.48 L 9.34,96.293 m 2.015,9.902 c 0,1.5 -1.136,2.508 -2.835,2.508 -1.641,0 -2.731,-0.949 -2.731,-2.355 0,-0.985 0.527,-1.7 1.418,-2.051 l 0.527,0.422 c -0.504,0.199 -0.761,0.644 -0.761,1.172 0,0.867 0.632,1.394 1.64,1.394 0.961,0 1.559,-0.48 1.559,-1.277 0,-0.563 -0.293,-1.02 -0.785,-1.254 l 0.715,-0.481 c 0.82,0.329 1.253,0.985 1.253,1.922 m -0.105,-2.648 v 0.891 l -0.973,0.468 h -7.16 v -1.359 h 8.133 m 0.105,9.258 c 0,1.465 -0.644,2.332 -1.71,2.332 -2.004,0 -1.336,-3.024 -2.239,-3.024 -0.316,0 -0.515,0.375 -0.515,1.032 0,0.445 0.082,0.972 0.222,1.464 l -1.043,0.293 c -0.187,-0.492 -0.281,-1.125 -0.281,-1.722 0,-1.535 0.621,-2.426 1.711,-2.426 1.992,0 1.242,2.988 2.215,2.988 0.34,0 0.551,-0.363 0.551,-0.961 0,-0.515 -0.141,-1.23 -0.364,-1.793 l 1.043,-0.316 c 0.258,0.621 0.41,1.394 0.41,2.133 m 0,6.562 c 0,1.688 -1.148,2.824 -2.859,2.824 -1.641,0 -2.707,-1.043 -2.707,-2.648 0,-1.699 1.149,-2.824 2.871,-2.824 1.629,0 2.695,1.031 2.695,2.648 m -1.183,0.129 c 0,-0.832 -0.633,-1.359 -1.629,-1.359 -0.961,0 -1.57,0.492 -1.57,1.277 0,0.82 0.656,1.359 1.652,1.359 0.949,0 1.547,-0.492 1.547,-1.277 m 1.078,5.051 v 1.406 H 7.57 L 5.895,125.66 v -1.113 h 5.355 m -3.047,1.137 c -0.656,0.293 -1.043,0.878 -1.043,1.535 0,0.222 0.047,0.48 0.117,0.679 l -1.289,0.329 c -0.093,-0.235 -0.14,-0.516 -0.14,-0.797 0,-0.703 0.375,-1.36 1.019,-1.746 h 1.336 m 3.152,6.796 c 0,1.442 -1.183,2.473 -2.859,2.473 -1.594,0 -2.707,-0.961 -2.707,-2.332 0,-0.844 0.434,-1.559 1.16,-1.957 l 0.645,0.352 c -0.387,0.281 -0.621,0.726 -0.621,1.207 0,0.808 0.632,1.312 1.629,1.312 0.96,0 1.57,-0.469 1.57,-1.242 0,-0.586 -0.352,-1.09 -0.902,-1.277 l 0.82,-0.399 c 0.808,0.305 1.265,0.985 1.265,1.863 m 2.286,-2.683 v 1.359 H 6.879 l -0.984,-0.41 v -0.949 h 7.746 m -2.309,9.621 c 0,0.363 -0.07,0.762 -0.187,1.102 l -1.008,-0.282 c 0.07,-0.152 0.105,-0.351 0.105,-0.515 0,-0.504 -0.293,-0.821 -0.762,-0.821 H 4.348 v -1.394 h 5.226 c 1.078,0 1.758,0.715 1.758,1.91 M 7.02,136.77 v 3.468 H 5.895 V 136.77 H 7.02 m 4.23,5.027 v 1.406 H 5.895 v -1.406 H 11.25 M 4.91,142.5 c 0,0.527 -0.34,0.867 -0.855,0.867 -0.539,0 -0.879,-0.34 -0.879,-0.867 0,-0.516 0.34,-0.855 0.879,-0.855 0.515,0 0.855,0.339 0.855,0.855 m 6.445,5.367 c 0,1.688 -1.148,2.824 -2.859,2.824 -1.641,0 -2.707,-1.043 -2.707,-2.648 0,-1.699 1.149,-2.824 2.871,-2.824 1.629,0 2.695,1.031 2.695,2.648 m -1.183,0.129 c 0,-0.832 -0.633,-1.359 -1.629,-1.359 -0.961,0 -1.57,0.492 -1.57,1.277 0,0.82 0.656,1.359 1.652,1.359 0.949,0 1.547,-0.492 1.547,-1.277 m 1.078,8.578 v 1.406 H 7.957 c -1.336,0 -2.145,-0.75 -2.145,-1.957 0,-0.773 0.34,-1.488 0.938,-1.98 l 0.855,0.199 c -0.375,0.363 -0.574,0.809 -0.574,1.301 0,0.68 0.387,1.031 1.114,1.031 h 3.105 m 0,-3.527 v 1.406 H 6.844 l -0.949,-0.398 v -1.008 h 5.355 m 2.086,11.883 -0.598,0.996 c -1.254,-0.821 -2.812,-1.242 -4.617,-1.242 -1.605,0 -3.082,0.398 -4.559,1.23 L 3,164.895 c 1.582,-1.043 3.375,-1.571 5.191,-1.571 1.993,0 3.704,0.539 5.145,1.606 m -2.086,3.211 v 4.711 H 9.996 V 169.57 H 3.609 v -1.429 h 7.641 m 0.105,7.347 c 0,0.574 -0.398,0.95 -0.937,0.95 -0.563,0 -0.961,-0.376 -0.961,-0.95 0,-0.562 0.398,-0.937 0.961,-0.937 0.539,0 0.937,0.375 0.937,0.937 m -0.105,10.805 v 1.406 H 7.957 c -1.336,0 -2.145,-0.738 -2.145,-1.945 0,-0.762 0.34,-1.477 0.938,-1.969 l 0.855,0.211 c -0.375,0.352 -0.574,0.785 -0.574,1.277 0,0.68 0.387,1.02 1.114,1.02 h 3.105 m 0,-6.996 v 1.406 H 6.844 l -0.949,-0.398 v -1.008 h 5.355 m 0,3.504 v 1.394 H 7.957 c -1.336,0 -2.145,-0.738 -2.145,-1.933 0,-0.774 0.34,-1.477 0.938,-1.969 l 0.855,0.199 c -0.375,0.352 -0.574,0.797 -0.574,1.278 0,0.679 0.387,1.031 1.114,1.031 h 3.105 m 0.105,10.066 c 0,1.688 -1.148,2.824 -2.859,2.824 -1.641,0 -2.707,-1.043 -2.707,-2.648 0,-1.699 1.149,-2.824 2.871,-2.824 1.629,0 2.695,1.031 2.695,2.648 m -1.183,0.129 c 0,-0.832 -0.633,-1.359 -1.629,-1.359 -0.961,0 -1.57,0.492 -1.57,1.277 0,0.82 0.656,1.359 1.652,1.359 0.949,0 1.547,-0.492 1.547,-1.277 m 1.16,6.551 c 0,0.34 -0.082,0.726 -0.199,1.019 l -0.938,-0.293 c 0.035,-0.117 0.059,-0.234 0.059,-0.339 0,-0.329 -0.211,-0.504 -0.586,-0.504 H 3.117 v -1.383 h 6.727 c 0.926,0 1.488,0.562 1.488,1.5"
         style="fill:#000000;fill-opacity:1;fill-rule:nonzero;stroke:none"
         id="path46" /></g><g
       id="g48"><path
         d="m 5.32,201.398 v 2.075 H 4.582 v -2.075 H 5.32 m 1.442,4.149 v 0.891 H 1.898 v -0.528 l 0.938,-1.851 0.633,0.339 -0.645,1.43 -0.281,-0.281 h 4.219"
         style="fill:#000000;fill-opacity:1;fill-rule:nonzero;stroke:none"
         id="path50" /></g><g
       id="g52"><path
         d="m 11.355,208.488 c 0,0.574 -0.398,0.95 -0.937,0.95 -0.563,0 -0.961,-0.376 -0.961,-0.95 0,-0.562 0.398,-0.937 0.961,-0.937 0.539,0 0.937,0.375 0.937,0.937 m 0,6.153 c 0,0.656 -0.14,1.265 -0.41,1.769 l -0.972,-0.316 c 0.164,-0.375 0.257,-0.785 0.257,-1.137 0,-0.996 -0.621,-1.559 -1.687,-1.559 -1.008,0 -1.57,0.504 -1.57,1.465 0,0.387 0.093,0.844 0.246,1.231 l -1.102,0.293 c -0.211,-0.457 -0.328,-1.02 -0.328,-1.571 0,-1.722 1.149,-2.847 2.906,-2.847 1.676,0 2.66,0.996 2.66,2.672 m -0.105,10.652 v 1.406 H 7.957 c -1.336,0 -2.145,-0.738 -2.145,-1.945 0,-0.762 0.34,-1.477 0.938,-1.969 l 0.855,0.211 c -0.375,0.352 -0.574,0.785 -0.574,1.277 0,0.68 0.387,1.02 1.114,1.02 h 3.105 m 0,-6.996 v 1.406 H 6.844 l -0.949,-0.398 v -1.008 h 5.355 m 0,3.504 v 1.394 H 7.957 c -1.336,0 -2.145,-0.738 -2.145,-1.933 0,-0.774 0.34,-1.477 0.938,-1.969 l 0.855,0.199 c -0.375,0.352 -0.574,0.797 -0.574,1.278 0,0.679 0.387,1.031 1.114,1.031 h 3.105"
         style="fill:#000000;fill-opacity:1;fill-rule:nonzero;stroke:none"
         id="path54" /></g><g
       id="g56"><path
         d="m 5.32,229.148 v 2.075 H 4.582 v -2.075 H 5.32 m 1.442,4.149 v 0.891 H 1.898 v -0.528 l 0.938,-1.851 0.633,0.339 -0.645,1.43 -0.281,-0.281 h 4.219"
         style="fill:#000000;fill-opacity:1;fill-rule:nonzero;stroke:none"
         id="path58" /></g><g
       id="g60"><path
         d="m 13.336,236.109 c -1.441,1.067 -3.152,1.606 -5.145,1.606 -1.816,0 -3.609,-0.527 -5.191,-1.57 l 0.562,-1.02 c 1.477,0.832 2.954,1.23 4.559,1.23 1.805,0 3.363,-0.421 4.617,-1.242 z"
         style="fill:#000000;fill-opacity:1;fill-rule:nonzero;stroke:none"
         id="path62" /></g><g
       id="g64"><path
         d="m 45.363,34.395 c 1.699,0 2.754,1.488 2.754,3.984 0,2.391 -1.019,3.867 -2.683,3.867 -1.723,0 -2.801,-1.5 -2.801,-3.984 0,-2.403 1.043,-3.867 2.73,-3.867 m 0.059,0.773 c -1.149,0 -1.863,1.207 -1.863,3.211 0,1.922 0.703,3.094 1.804,3.094 1.125,0 1.828,-1.219 1.828,-3.211 0,-1.922 -0.668,-3.094 -1.769,-3.094"
         style="fill:#000000;fill-opacity:1;fill-rule:nonzero;stroke:none"
         id="path66" /></g><g
       id="g68"><path
         d="m 31.934,78.645 c 1.699,0 2.847,0.96 2.847,2.46 0,1.43 -1.043,2.333 -2.754,2.333 -0.422,0 -0.843,-0.047 -1.23,-0.141 l 0.223,-0.281 0.128,2.589 h 3.27 v 0.786 h -4.102 l -0.187,-3.914 c 0.492,0.117 1.137,0.187 1.617,0.187 1.301,0 2.098,-0.598 2.098,-1.641 0,-0.984 -0.727,-1.582 -1.852,-1.582 -0.656,0 -1.383,0.188 -1.957,0.493 l -0.269,-0.727 c 0.679,-0.363 1.394,-0.562 2.168,-0.562 m 6.679,0 c 1.699,0 2.754,1.488 2.754,3.984 0,2.391 -1.019,3.867 -2.683,3.867 -1.723,0 -2.801,-1.5 -2.801,-3.984 0,-2.403 1.043,-3.867 2.73,-3.867 m 0.059,0.773 c -1.149,0 -1.863,1.207 -1.863,3.211 0,1.922 0.703,3.094 1.804,3.094 1.125,0 1.828,-1.219 1.828,-3.211 0,-1.922 -0.668,-3.094 -1.769,-3.094 m 6.691,-0.773 c 1.699,0 2.754,1.488 2.754,3.984 0,2.391 -1.019,3.867 -2.683,3.867 -1.723,0 -2.801,-1.5 -2.801,-3.984 0,-2.403 1.043,-3.867 2.73,-3.867 m 0.059,0.773 c -1.149,0 -1.863,1.207 -1.863,3.211 0,1.922 0.703,3.094 1.804,3.094 1.125,0 1.828,-1.219 1.828,-3.211 0,-1.922 -0.668,-3.094 -1.769,-3.094"
         style="fill:#000000;fill-opacity:1;fill-rule:nonzero;stroke:none"
         id="path70" /></g><g
       id="g72"><path
         d="m 24.199,122.941 h 0.879 v 7.7 h -0.527 l -2.719,-1.407 0.328,-0.632 2.332,1.113 -0.293,0.281 v -7.055 m 2.578,-1.851 h 0.797 c 0.387,0.949 0.598,2.133 0.598,3.222 h -0.949 c 0,-1.113 -0.164,-2.308 -0.446,-3.222 m 5.086,1.805 c 1.699,0 2.754,1.488 2.754,3.984 0,2.391 -1.019,3.867 -2.683,3.867 -1.723,0 -2.801,-1.5 -2.801,-3.984 0,-2.403 1.043,-3.867 2.73,-3.867 m 0.059,0.773 c -1.149,0 -1.863,1.207 -1.863,3.211 0,1.922 0.703,3.094 1.804,3.094 1.125,0 1.828,-1.219 1.828,-3.211 0,-1.922 -0.668,-3.094 -1.769,-3.094 m 6.691,-0.773 c 1.699,0 2.754,1.488 2.754,3.984 0,2.391 -1.019,3.867 -2.683,3.867 -1.723,0 -2.801,-1.5 -2.801,-3.984 0,-2.403 1.043,-3.867 2.73,-3.867 m 0.059,0.773 c -1.149,0 -1.863,1.207 -1.863,3.211 0,1.922 0.703,3.094 1.804,3.094 1.125,0 1.828,-1.219 1.828,-3.211 0,-1.922 -0.668,-3.094 -1.769,-3.094 m 6.691,-0.773 c 1.699,0 2.754,1.488 2.754,3.984 0,2.391 -1.019,3.867 -2.683,3.867 -1.723,0 -2.801,-1.5 -2.801,-3.984 0,-2.403 1.043,-3.867 2.73,-3.867 m 0.059,0.773 c -1.149,0 -1.863,1.207 -1.863,3.211 0,1.922 0.703,3.094 1.804,3.094 1.125,0 1.828,-1.219 1.828,-3.211 0,-1.922 -0.668,-3.094 -1.769,-3.094"
         style="fill:#000000;fill-opacity:1;fill-rule:nonzero;stroke:none"
         id="path74" /></g><g
       id="g76"><path
         d="m 24.949,166.441 h 0.879 v 7.7 h -0.527 l -2.719,-1.407 0.328,-0.632 2.332,1.113 -0.293,0.281 v -7.055 m 2.578,-1.851 h 0.797 c 0.387,0.949 0.598,2.133 0.598,3.222 h -0.949 c 0,-1.113 -0.164,-2.308 -0.446,-3.222 m 4.407,1.805 c 1.699,0 2.847,0.96 2.847,2.46 0,1.43 -1.043,2.333 -2.754,2.333 -0.422,0 -0.843,-0.047 -1.23,-0.141 l 0.223,-0.281 0.128,2.589 h 3.27 v 0.786 h -4.102 l -0.187,-3.914 c 0.492,0.117 1.137,0.187 1.617,0.187 1.301,0 2.098,-0.598 2.098,-1.641 0,-0.984 -0.727,-1.582 -1.852,-1.582 -0.656,0 -1.383,0.188 -1.957,0.493 l -0.269,-0.727 c 0.679,-0.363 1.394,-0.562 2.168,-0.562 m 6.679,0 c 1.699,0 2.754,1.488 2.754,3.984 0,2.391 -1.019,3.867 -2.683,3.867 -1.723,0 -2.801,-1.5 -2.801,-3.984 0,-2.403 1.043,-3.867 2.73,-3.867 m 0.059,0.773 c -1.149,0 -1.863,1.207 -1.863,3.211 0,1.922 0.703,3.094 1.804,3.094 1.125,0 1.828,-1.219 1.828,-3.211 0,-1.922 -0.668,-3.094 -1.769,-3.094 m 6.691,-0.773 c 1.699,0 2.754,1.488 2.754,3.984 0,2.391 -1.019,3.867 -2.683,3.867 -1.723,0 -2.801,-1.5 -2.801,-3.984 0,-2.403 1.043,-3.867 2.73,-3.867 m 0.059,0.773 c -1.149,0 -1.863,1.207 -1.863,3.211 0,1.922 0.703,3.094 1.804,3.094 1.125,0 1.828,-1.219 1.828,-3.211 0,-1.922 -0.668,-3.094 -1.769,-3.094"
         style="fill:#000000;fill-opacity:1;fill-rule:nonzero;stroke:none"
         id="path78" /></g><g
       id="g80"><path
         d="m 20.754,210.75 h 4.851 v 0.797 h -3.914 l 0.118,-0.27 c 2.613,2.461 3.492,3.739 3.492,5.063 0,1.348 -0.914,2.156 -2.321,2.156 -0.914,0 -1.781,-0.328 -2.343,-0.867 l 0.246,-0.633 c 0.586,0.469 1.312,0.703 1.91,0.703 0.984,0 1.582,-0.586 1.582,-1.5 0,-1.113 -0.891,-2.261 -3.621,-4.84 v -0.609 m 6.023,-1.91 h 0.797 c 0.387,0.949 0.598,2.133 0.598,3.222 h -0.949 c 0,-1.113 -0.164,-2.308 -0.446,-3.222 m 5.086,1.805 c 1.699,0 2.754,1.488 2.754,3.984 0,2.391 -1.019,3.867 -2.683,3.867 -1.723,0 -2.801,-1.5 -2.801,-3.984 0,-2.403 1.043,-3.867 2.73,-3.867 m 0.059,0.773 c -1.149,0 -1.863,1.207 -1.863,3.211 0,1.922 0.703,3.094 1.804,3.094 1.125,0 1.828,-1.219 1.828,-3.211 0,-1.922 -0.668,-3.094 -1.769,-3.094 m 6.691,-0.773 c 1.699,0 2.754,1.488 2.754,3.984 0,2.391 -1.019,3.867 -2.683,3.867 -1.723,0 -2.801,-1.5 -2.801,-3.984 0,-2.403 1.043,-3.867 2.73,-3.867 m 0.059,0.773 c -1.149,0 -1.863,1.207 -1.863,3.211 0,1.922 0.703,3.094 1.804,3.094 1.125,0 1.828,-1.219 1.828,-3.211 0,-1.922 -0.668,-3.094 -1.769,-3.094 m 6.691,-0.773 c 1.699,0 2.754,1.488 2.754,3.984 0,2.391 -1.019,3.867 -2.683,3.867 -1.723,0 -2.801,-1.5 -2.801,-3.984 0,-2.403 1.043,-3.867 2.73,-3.867 m 0.059,0.773 c -1.149,0 -1.863,1.207 -1.863,3.211 0,1.922 0.703,3.094 1.804,3.094 1.125,0 1.828,-1.219 1.828,-3.211 0,-1.922 -0.668,-3.094 -1.769,-3.094"
         style="fill:#000000;fill-opacity:1;fill-rule:nonzero;stroke:none"
         id="path82" /></g><g
       id="g84"><path
         d="m 21.504,255 h 4.851 v 0.797 h -3.914 l 0.118,-0.27 c 2.613,2.461 3.492,3.739 3.492,5.063 0,1.348 -0.914,2.156 -2.321,2.156 -0.914,0 -1.781,-0.328 -2.343,-0.867 l 0.246,-0.633 c 0.586,0.469 1.312,0.703 1.91,0.703 0.984,0 1.582,-0.586 1.582,-1.5 0,-1.113 -0.891,-2.261 -3.621,-4.84 V 255 m 6.023,-1.91 h 0.797 c 0.387,0.949 0.598,2.133 0.598,3.222 h -0.949 c 0,-1.113 -0.164,-2.308 -0.446,-3.222 m 4.407,1.805 c 1.699,0 2.847,0.96 2.847,2.46 0,1.43 -1.043,2.333 -2.754,2.333 -0.422,0 -0.843,-0.047 -1.23,-0.141 l 0.223,-0.281 0.128,2.589 h 3.27 v 0.786 h -4.102 l -0.187,-3.914 c 0.492,0.117 1.137,0.187 1.617,0.187 1.301,0 2.098,-0.598 2.098,-1.641 0,-0.984 -0.727,-1.582 -1.852,-1.582 -0.656,0 -1.383,0.188 -1.957,0.493 l -0.269,-0.727 c 0.679,-0.363 1.394,-0.562 2.168,-0.562 m 6.679,0 c 1.699,0 2.754,1.488 2.754,3.984 0,2.391 -1.019,3.867 -2.683,3.867 -1.723,0 -2.801,-1.5 -2.801,-3.984 0,-2.403 1.043,-3.867 2.73,-3.867 m 0.059,0.773 c -1.149,0 -1.863,1.207 -1.863,3.211 0,1.922 0.703,3.094 1.804,3.094 1.125,0 1.828,-1.219 1.828,-3.211 0,-1.922 -0.668,-3.094 -1.769,-3.094 m 6.691,-0.773 c 1.699,0 2.754,1.488 2.754,3.984 0,2.391 -1.019,3.867 -2.683,3.867 -1.723,0 -2.801,-1.5 -2.801,-3.984 0,-2.403 1.043,-3.867 2.73,-3.867 m 0.059,0.773 c -1.149,0 -1.863,1.207 -1.863,3.211 0,1.922 0.703,3.094 1.804,3.094 1.125,0 1.828,-1.219 1.828,-3.211 0,-1.922 -0.668,-3.094 -1.769,-3.094"
         style="fill:#000000;fill-opacity:1;fill-rule:nonzero;stroke:none"
         id="path86" /></g><g
       id="g88"><path
         d="m 52.5,82.35 h 0.75"
         style="fill:none;stroke:#000000;stroke-width:1;stroke-linecap:square;stroke-linejoin:bevel;stroke-miterlimit:10;stroke-dasharray:none;stroke-opacity:1"
         id="path90" /></g><g
       id="g92"><path
         d="m 52.5,126.45 h 0.75"
         style="fill:none;stroke:#000000;stroke-width:1;stroke-linecap:square;stroke-linejoin:bevel;stroke-miterlimit:10;stroke-dasharray:none;stroke-opacity:1"
         id="path94" /></g><g
       id="g96"><path
         d="m 52.5,170.55 h 0.75"
         style="fill:none;stroke:#000000;stroke-width:1;stroke-linecap:square;stroke-linejoin:bevel;stroke-miterlimit:10;stroke-dasharray:none;stroke-opacity:1"
         id="path98" /></g><g
       id="g100"><path
         d="m 52.5,214.65 h 0.75"
         style="fill:none;stroke:#000000;stroke-width:1;stroke-linecap:square;stroke-linejoin:bevel;stroke-miterlimit:10;stroke-dasharray:none;stroke-opacity:1"
         id="path102" /></g><g
       id="g104"><path
         d="M 52.5,258.75 V 38.25"
         style="fill:none;stroke:#000000;stroke-width:1;stroke-linecap:square;stroke-linejoin:bevel;stroke-miterlimit:10;stroke-dasharray:none;stroke-opacity:1"
         id="path106" /></g><g
       id="g108"><path
         d="m 52.5,82.35 h 6.75"
         style="fill:none;stroke:#000000;stroke-width:1;stroke-linecap:square;stroke-linejoin:bevel;stroke-miterlimit:10;stroke-dasharray:none;stroke-opacity:1"
         id="path110" /></g><g
       id="g112"><path
         d="m 52.5,126.45 h 6.75"
         style="fill:none;stroke:#000000;stroke-width:1;stroke-linecap:square;stroke-linejoin:bevel;stroke-miterlimit:10;stroke-dasharray:none;stroke-opacity:1"
         id="path114" /></g><g
       id="g116"><path
         d="m 52.5,170.55 h 6.75"
         style="fill:none;stroke:#000000;stroke-width:1;stroke-linecap:square;stroke-linejoin:bevel;stroke-miterlimit:10;stroke-dasharray:none;stroke-opacity:1"
         id="path118" /></g><g
       id="g120"><path
         d="m 52.5,214.65 h 6.75"
         style="fill:none;stroke:#000000;stroke-width:1;stroke-linecap:square;stroke-linejoin:bevel;stroke-miterlimit:10;stroke-dasharray:none;stroke-opacity:1"
         id="path122" /></g><g
       id="g124"><path
         d="m 52.5,47.07 h 3.75"
         style="fill:none;stroke:#000000;stroke-width:1;stroke-linecap:square;stroke-linejoin:bevel;stroke-miterlimit:10;stroke-dasharray:none;stroke-opacity:1"
         id="path126" /></g><g
       id="g128"><path
         d="m 52.5,55.89 h 3.75"
         style="fill:none;stroke:#000000;stroke-width:1;stroke-linecap:square;stroke-linejoin:bevel;stroke-miterlimit:10;stroke-dasharray:none;stroke-opacity:1"
         id="path130" /></g><g
       id="g132"><path
         d="m 52.5,64.71 h 3.75"
         style="fill:none;stroke:#000000;stroke-width:1;stroke-linecap:square;stroke-linejoin:bevel;stroke-miterlimit:10;stroke-dasharray:none;stroke-opacity:1"
         id="path134" /></g><g
       id="g136"><path
         d="m 52.5,73.53 h 3.75"
         style="fill:none;stroke:#000000;stroke-width:1;stroke-linecap:square;stroke-linejoin:bevel;stroke-miterlimit:10;stroke-dasharray:none;stroke-opacity:1"
         id="path138" /></g><g
       id="g140"><path
         d="m 52.5,91.17 h 3.75"
         style="fill:none;stroke:#000000;stroke-width:1;stroke-linecap:square;stroke-linejoin:bevel;stroke-miterlimit:10;stroke-dasharray:none;stroke-opacity:1"
         id="path142" /></g><g
       id="g144"><path
         d="m 52.5,99.99 h 3.75"
         style="fill:none;stroke:#000000;stroke-width:1;stroke-linecap:square;stroke-linejoin:bevel;stroke-miterlimit:10;stroke-dasharray:none;stroke-opacity:1"
         id="path146" /></g><g
       id="g148"><path
         d="m 52.5,108.81 h 3.75"
         style="fill:none;stroke:#000000;stroke-width:1;stroke-linecap:square;stroke-linejoin:bevel;stroke-miterlimit:10;stroke-dasharray:none;stroke-opacity:1"
         id="path150" /></g><g
       id="g152"><path
         d="m 52.5,117.63 h 3.75"
         style="fill:none;stroke:#000000;stroke-width:1;stroke-linecap:square;stroke-linejoin:bevel;stroke-miterlimit:10;stroke-dasharray:none;stroke-opacity:1"
         id="path154" /></g><g
       id="g156"><path
         d="m 52.5,135.27 h 3.75"
         style="fill:none;stroke:#000000;stroke-width:1;stroke-linecap:square;stroke-linejoin:bevel;stroke-miterlimit:10;stroke-dasharray:none;stroke-opacity:1"
         id="path158" /></g><g
       id="g160"><path
         d="m 52.5,144.09 h 3.75"
         style="fill:none;stroke:#000000;stroke-width:1;stroke-linecap:square;stroke-linejoin:bevel;stroke-miterlimit:10;stroke-dasharray:none;stroke-opacity:1"
         id="path162" /></g><g
       id="g164"><path
         d="m 52.5,152.91 h 3.75"
         style="fill:none;stroke:#000000;stroke-width:1;stroke-linecap:square;stroke-linejoin:bevel;stroke-miterlimit:10;stroke-dasharray:none;stroke-opacity:1"
         id="path166" /></g><g
       id="g168"><path
         d="m 52.5,161.73 h 3.75"
         style="fill:none;stroke:#000000;stroke-width:1;stroke-linecap:square;stroke-linejoin:bevel;stroke-miterlimit:10;stroke-dasharray:none;stroke-opacity:1"
         id="path170" /></g><g
       id="g172"><path
         d="m 52.5,179.37 h 3.75"
         style="fill:none;stroke:#000000;stroke-width:1;stroke-linecap:square;stroke-linejoin:bevel;stroke-miterlimit:10;stroke-dasharray:none;stroke-opacity:1"
         id="path174" /></g><g
       id="g176"><path
         d="m 52.5,188.19 h 3.75"
         style="fill:none;stroke:#000000;stroke-width:1;stroke-linecap:square;stroke-linejoin:bevel;stroke-miterlimit:10;stroke-dasharray:none;stroke-opacity:1"
         id="path178" /></g><g
       id="g180"><path
         d="m 52.5,197.01 h 3.75"
         style="fill:none;stroke:#000000;stroke-width:1;stroke-linecap:square;stroke-linejoin:bevel;stroke-miterlimit:10;stroke-dasharray:none;stroke-opacity:1"
         id="path182" /></g><g
       id="g184"><path
         d="m 52.5,205.83 h 3.75"
         style="fill:none;stroke:#000000;stroke-width:1;stroke-linecap:square;stroke-linejoin:bevel;stroke-miterlimit:10;stroke-dasharray:none;stroke-opacity:1"
         id="path186" /></g><g
       id="g188"><path
         d="m 52.5,223.47 h 3.75"
         style="fill:none;stroke:#000000;stroke-width:1;stroke-linecap:square;stroke-linejoin:bevel;stroke-miterlimit:10;stroke-dasharray:none;stroke-opacity:1"
         id="path190" /></g><g
       id="g192"><path
         d="m 52.5,232.29 h 3.75"
         style="fill:none;stroke:#000000;stroke-width:1;stroke-linecap:square;stroke-linejoin:bevel;stroke-miterlimit:10;stroke-dasharray:none;stroke-opacity:1"
         id="path194" /></g><g
       id="g196"><path
         d="m 52.5,241.11 h 3.75"
         style="fill:none;stroke:#000000;stroke-width:1;stroke-linecap:square;stroke-linejoin:bevel;stroke-miterlimit:10;stroke-dasharray:none;stroke-opacity:1"
         id="path198" /></g><g
       id="g200"><path
         d="m 52.5,249.93 h 3.75"
         style="fill:none;stroke:#000000;stroke-width:1;stroke-linecap:square;stroke-linejoin:bevel;stroke-miterlimit:10;stroke-dasharray:none;stroke-opacity:1"
         id="path202" /></g><g
       id="g204"><path
         d="M 345.75,82.35 H 345"
         style="fill:none;stroke:#000000;stroke-width:1;stroke-linecap:square;stroke-linejoin:bevel;stroke-miterlimit:10;stroke-dasharray:none;stroke-opacity:1"
         id="path206" /></g><g
       id="g208"><path
         d="M 345.75,126.45 H 345"
         style="fill:none;stroke:#000000;stroke-width:1;stroke-linecap:square;stroke-linejoin:bevel;stroke-miterlimit:10;stroke-dasharray:none;stroke-opacity:1"
         id="path210" /></g><g
       id="g212"><path
         d="M 345.75,170.55 H 345"
         style="fill:none;stroke:#000000;stroke-width:1;stroke-linecap:square;stroke-linejoin:bevel;stroke-miterlimit:10;stroke-dasharray:none;stroke-opacity:1"
         id="path214" /></g><g
       id="g216"><path
         d="M 345.75,214.65 H 345"
         style="fill:none;stroke:#000000;stroke-width:1;stroke-linecap:square;stroke-linejoin:bevel;stroke-miterlimit:10;stroke-dasharray:none;stroke-opacity:1"
         id="path218" /></g><g
       id="g220"><path
         d="M 345.75,258.75 V 38.25"
         style="fill:none;stroke:#000000;stroke-width:1;stroke-linecap:square;stroke-linejoin:bevel;stroke-miterlimit:10;stroke-dasharray:none;stroke-opacity:1"
         id="path222" /></g><g
       id="g224"><path
         d="M 345.75,82.35 H 339"
         style="fill:none;stroke:#000000;stroke-width:1;stroke-linecap:square;stroke-linejoin:bevel;stroke-miterlimit:10;stroke-dasharray:none;stroke-opacity:1"
         id="path226" /></g><g
       id="g228"><path
         d="M 345.75,126.45 H 339"
         style="fill:none;stroke:#000000;stroke-width:1;stroke-linecap:square;stroke-linejoin:bevel;stroke-miterlimit:10;stroke-dasharray:none;stroke-opacity:1"
         id="path230" /></g><g
       id="g232"><path
         d="M 345.75,170.55 H 339"
         style="fill:none;stroke:#000000;stroke-width:1;stroke-linecap:square;stroke-linejoin:bevel;stroke-miterlimit:10;stroke-dasharray:none;stroke-opacity:1"
         id="path234" /></g><g
       id="g236"><path
         d="M 345.75,214.65 H 339"
         style="fill:none;stroke:#000000;stroke-width:1;stroke-linecap:square;stroke-linejoin:bevel;stroke-miterlimit:10;stroke-dasharray:none;stroke-opacity:1"
         id="path238" /></g><g
       id="g240"><path
         d="M 345.75,47.07 H 342"
         style="fill:none;stroke:#000000;stroke-width:1;stroke-linecap:square;stroke-linejoin:bevel;stroke-miterlimit:10;stroke-dasharray:none;stroke-opacity:1"
         id="path242" /></g><g
       id="g244"><path
         d="M 345.75,55.89 H 342"
         style="fill:none;stroke:#000000;stroke-width:1;stroke-linecap:square;stroke-linejoin:bevel;stroke-miterlimit:10;stroke-dasharray:none;stroke-opacity:1"
         id="path246" /></g><g
       id="g248"><path
         d="M 345.75,64.71 H 342"
         style="fill:none;stroke:#000000;stroke-width:1;stroke-linecap:square;stroke-linejoin:bevel;stroke-miterlimit:10;stroke-dasharray:none;stroke-opacity:1"
         id="path250" /></g><g
       id="g252"><path
         d="M 345.75,73.53 H 342"
         style="fill:none;stroke:#000000;stroke-width:1;stroke-linecap:square;stroke-linejoin:bevel;stroke-miterlimit:10;stroke-dasharray:none;stroke-opacity:1"
         id="path254" /></g><g
       id="g256"><path
         d="M 345.75,91.17 H 342"
         style="fill:none;stroke:#000000;stroke-width:1;stroke-linecap:square;stroke-linejoin:bevel;stroke-miterlimit:10;stroke-dasharray:none;stroke-opacity:1"
         id="path258" /></g><g
       id="g260"><path
         d="M 345.75,99.99 H 342"
         style="fill:none;stroke:#000000;stroke-width:1;stroke-linecap:square;stroke-linejoin:bevel;stroke-miterlimit:10;stroke-dasharray:none;stroke-opacity:1"
         id="path262" /></g><g
       id="g264"><path
         d="M 345.75,108.81 H 342"
         style="fill:none;stroke:#000000;stroke-width:1;stroke-linecap:square;stroke-linejoin:bevel;stroke-miterlimit:10;stroke-dasharray:none;stroke-opacity:1"
         id="path266" /></g><g
       id="g268"><path
         d="M 345.75,117.63 H 342"
         style="fill:none;stroke:#000000;stroke-width:1;stroke-linecap:square;stroke-linejoin:bevel;stroke-miterlimit:10;stroke-dasharray:none;stroke-opacity:1"
         id="path270" /></g><g
       id="g272"><path
         d="M 345.75,135.27 H 342"
         style="fill:none;stroke:#000000;stroke-width:1;stroke-linecap:square;stroke-linejoin:bevel;stroke-miterlimit:10;stroke-dasharray:none;stroke-opacity:1"
         id="path274" /></g><g
       id="g276"><path
         d="M 345.75,144.09 H 342"
         style="fill:none;stroke:#000000;stroke-width:1;stroke-linecap:square;stroke-linejoin:bevel;stroke-miterlimit:10;stroke-dasharray:none;stroke-opacity:1"
         id="path278" /></g><g
       id="g280"><path
         d="M 345.75,152.91 H 342"
         style="fill:none;stroke:#000000;stroke-width:1;stroke-linecap:square;stroke-linejoin:bevel;stroke-miterlimit:10;stroke-dasharray:none;stroke-opacity:1"
         id="path282" /></g><g
       id="g284"><path
         d="M 345.75,161.73 H 342"
         style="fill:none;stroke:#000000;stroke-width:1;stroke-linecap:square;stroke-linejoin:bevel;stroke-miterlimit:10;stroke-dasharray:none;stroke-opacity:1"
         id="path286" /></g><g
       id="g288"><path
         d="M 345.75,179.37 H 342"
         style="fill:none;stroke:#000000;stroke-width:1;stroke-linecap:square;stroke-linejoin:bevel;stroke-miterlimit:10;stroke-dasharray:none;stroke-opacity:1"
         id="path290" /></g><g
       id="g292"><path
         d="M 345.75,188.19 H 342"
         style="fill:none;stroke:#000000;stroke-width:1;stroke-linecap:square;stroke-linejoin:bevel;stroke-miterlimit:10;stroke-dasharray:none;stroke-opacity:1"
         id="path294" /></g><g
       id="g296"><path
         d="M 345.75,197.01 H 342"
         style="fill:none;stroke:#000000;stroke-width:1;stroke-linecap:square;stroke-linejoin:bevel;stroke-miterlimit:10;stroke-dasharray:none;stroke-opacity:1"
         id="path298" /></g><g
       id="g300"><path
         d="M 345.75,205.83 H 342"
         style="fill:none;stroke:#000000;stroke-width:1;stroke-linecap:square;stroke-linejoin:bevel;stroke-miterlimit:10;stroke-dasharray:none;stroke-opacity:1"
         id="path302" /></g><g
       id="g304"><path
         d="M 345.75,223.47 H 342"
         style="fill:none;stroke:#000000;stroke-width:1;stroke-linecap:square;stroke-linejoin:bevel;stroke-miterlimit:10;stroke-dasharray:none;stroke-opacity:1"
         id="path306" /></g><g
       id="g308"><path
         d="M 345.75,232.29 H 342"
         style="fill:none;stroke:#000000;stroke-width:1;stroke-linecap:square;stroke-linejoin:bevel;stroke-miterlimit:10;stroke-dasharray:none;stroke-opacity:1"
         id="path310" /></g><g
       id="g312"><path
         d="M 345.75,241.11 H 342"
         style="fill:none;stroke:#000000;stroke-width:1;stroke-linecap:square;stroke-linejoin:bevel;stroke-miterlimit:10;stroke-dasharray:none;stroke-opacity:1"
         id="path314" /></g><g
       id="g316"><path
         d="M 345.75,249.93 H 342"
         style="fill:none;stroke:#000000;stroke-width:1;stroke-linecap:square;stroke-linejoin:bevel;stroke-miterlimit:10;stroke-dasharray:none;stroke-opacity:1"
         id="path318" /></g><g
       id="g320"><path
         d="m 144.797,3 h 1.512 l 1.992,6.902 h -0.68 L 149.766,3 h 1.476 l 2.227,7.641 h -1.43 l -1.805,-6.95 0.621,0.129 -2.027,6.774 h -1.558 l -1.922,-6.797 h 0.504 l -1.688,6.844 h -1.617 L 144.797,3 m 13.863,0 h 0.996 v 3.223 c 0,1.441 -0.82,2.238 -2.402,2.238 -0.762,0 -1.582,-0.188 -2.215,-0.516 l 0.34,-0.972 c 0.551,0.211 1.09,0.328 1.582,0.328 0.855,0 1.312,-0.328 1.312,-0.973 V 4.031 L 158.66,3 m -1.875,-0.105 c 1.184,0 2.027,0.667 2.297,1.828 l -0.457,0.211 c -0.187,-0.575 -0.727,-0.938 -1.371,-0.938 -0.539,0 -0.902,0.27 -0.902,0.68 0,0.515 0.609,0.726 2.168,0.726 v 0.774 c -2.485,0 -3.586,-0.516 -3.586,-1.699 0,-0.961 0.726,-1.582 1.851,-1.582 M 163.371,3 h 1.395 l 2.074,5.355 h -1.406 l -1.524,-4.57 h 0.363 l -1.441,4.57 h -1.547 L 163.371,3 m 8.039,-0.105 c 0.633,0 1.313,0.128 1.887,0.375 l -0.305,0.96 c -0.433,-0.175 -0.902,-0.269 -1.359,-0.269 -1.149,0 -1.77,0.644 -1.77,1.887 0,0.996 0.41,1.535 1.16,1.535 0.704,0 1.102,-0.445 1.102,-1.231 h -2.449 V 5.285 h 3.715 c 0.035,0.223 0.058,0.551 0.058,0.809 0,1.453 -0.89,2.367 -2.32,2.367 -1.594,0 -2.66,-1.137 -2.66,-2.801 0,-1.722 1.113,-2.765 2.941,-2.765 M 179.824,3 h 1.406 v 3.293 c 0,1.336 -0.75,2.145 -1.957,2.145 -0.773,0 -1.488,-0.34 -1.98,-0.938 l 0.199,-0.855 c 0.363,0.375 0.809,0.574 1.301,0.574 0.68,0 1.031,-0.387 1.031,-1.114 V 3 m -3.527,0 h 1.406 v 4.406 l -0.398,0.949 h -1.008 V 3 m 9.269,-0.094 c 0.739,0 1.442,0.34 1.934,0.949 l -0.211,0.856 c -0.328,-0.363 -0.762,-0.574 -1.207,-0.574 -0.762,0 -0.984,0.574 -0.984,1.113 v 3.105 h -1.407 V 4.934 c 0,-1.231 0.762,-2.028 1.875,-2.028 M 187.488,3 h 1.008 V 8.355 H 187.09 V 3.938 L 187.488,3 m 10.055,0 h 1.406 v 3.293 c 0,1.336 -0.738,2.145 -1.945,2.145 -0.762,0 -1.477,-0.34 -1.969,-0.938 l 0.211,-0.855 c 0.352,0.375 0.785,0.574 1.277,0.574 0.68,0 1.02,-0.387 1.02,-1.114 V 3 m -6.996,0 h 1.406 v 4.406 l -0.398,0.949 h -1.008 V 3 m 3.504,0 h 1.394 v 3.293 c 0,1.336 -0.738,2.145 -1.933,2.145 -0.774,0 -1.477,-0.34 -1.969,-0.938 l 0.199,-0.855 c 0.352,0.375 0.797,0.574 1.278,0.574 0.679,0 1.031,-0.387 1.031,-1.114 V 3 m 10.394,-0.105 c 1.5,0 2.508,1.136 2.508,2.835 0,1.641 -0.949,2.731 -2.355,2.731 -0.985,0 -1.7,-0.527 -2.051,-1.418 l 0.422,-0.527 c 0.199,0.504 0.644,0.761 1.172,0.761 0.867,0 1.394,-0.632 1.394,-1.64 0,-0.961 -0.48,-1.559 -1.277,-1.559 -0.563,0 -1.02,0.293 -1.254,0.785 l -0.481,-0.715 c 0.329,-0.82 0.985,-1.253 1.922,-1.253 M 201.797,3 h 0.891 l 0.468,0.973 v 7.16 h -1.359 V 3 M 211.91,2.895 c 0.633,0 1.313,0.128 1.887,0.375 l -0.305,0.96 c -0.433,-0.175 -0.902,-0.269 -1.359,-0.269 -1.149,0 -1.77,0.644 -1.77,1.887 0,0.996 0.41,1.535 1.16,1.535 0.704,0 1.102,-0.445 1.102,-1.231 h -2.449 V 5.285 h 3.715 c 0.035,0.223 0.058,0.551 0.058,0.809 0,1.453 -0.89,2.367 -2.32,2.367 -1.594,0 -2.66,-1.137 -2.66,-2.801 0,-1.722 1.113,-2.765 2.941,-2.765 M 216.797,3 h 1.406 v 3.68 l -0.293,1.675 h -1.113 V 3 m 1.137,3.047 c 0.293,0.656 0.878,1.043 1.535,1.043 0.222,0 0.48,-0.047 0.679,-0.117 l 0.329,1.289 c -0.235,0.093 -0.516,0.14 -0.797,0.14 -0.703,0 -1.36,-0.375 -1.746,-1.019 V 6.047 m 8.496,-5.133 0.996,0.598 c -0.821,1.254 -1.242,2.812 -1.242,4.617 0,1.605 0.398,3.082 1.23,4.559 l -1.019,0.562 c -1.043,-1.582 -1.571,-3.375 -1.571,-5.191 0,-1.993 0.539,-3.704 1.606,-5.145 m 5.461,1.981 c 0.656,0 1.265,0.14 1.769,0.41 l -0.316,0.972 c -0.375,-0.164 -0.785,-0.257 -1.137,-0.257 -0.996,0 -1.559,0.621 -1.559,1.687 0,1.008 0.504,1.57 1.465,1.57 0.387,0 0.844,-0.093 1.231,-0.246 l 0.293,1.102 c -0.457,0.211 -1.02,0.328 -1.571,0.328 -1.722,0 -2.847,-1.149 -2.847,-2.906 0,-1.676 0.996,-2.66 2.672,-2.66 M 242.543,3 h 1.406 v 3.293 c 0,1.336 -0.738,2.145 -1.945,2.145 -0.762,0 -1.477,-0.34 -1.969,-0.938 l 0.211,-0.855 c 0.352,0.375 0.785,0.574 1.277,0.574 0.68,0 1.02,-0.387 1.02,-1.114 V 3 m -6.996,0 h 1.406 v 4.406 l -0.398,0.949 h -1.008 V 3 m 3.504,0 h 1.394 v 3.293 c 0,1.336 -0.738,2.145 -1.933,2.145 -0.774,0 -1.477,-0.34 -1.969,-0.938 l 0.199,-0.855 c 0.352,0.375 0.797,0.574 1.278,0.574 0.679,0 1.031,-0.387 1.031,-1.114 V 3"
         style="fill:#000000;fill-opacity:1;fill-rule:nonzero;stroke:none"
         id="path322" /></g><g
       id="g324"><path
         d="m 246.398,8.93 h 2.075 v 0.738 h -2.075 V 8.93 m 4.149,-1.442 h 0.891 v 4.864 h -0.528 l -1.851,-0.938 0.339,-0.633 1.43,0.645 -0.281,0.281 V 7.488"
         style="fill:#000000;fill-opacity:1;fill-rule:nonzero;stroke:none"
         id="path326" /></g><g
       id="g328"><path
         d="m 253.359,0.914 c 1.067,1.441 1.606,3.152 1.606,5.145 0,1.816 -0.527,3.609 -1.57,5.191 l -1.02,-0.562 c 0.832,-1.477 1.23,-2.954 1.23,-4.559 0,-1.805 -0.421,-3.363 -1.242,-4.617 z"
         style="fill:#000000;fill-opacity:1;fill-rule:nonzero;stroke:none"
         id="path330" /></g><g
       id="g332"><path
         d="m 46.816,22.395 h 0.868 v 7.746 H 46.84 l -3.832,-5.368 v -0.468 h 6.047 v 0.75 h -5.18 l 0.07,-0.188 3.047,4.36 -0.164,0.023 -0.012,-6.855 m 6.047,0 c 1.699,0 2.754,1.488 2.754,3.984 0,2.391 -1.019,3.867 -2.683,3.867 -1.723,0 -2.801,-1.5 -2.801,-3.984 0,-2.403 1.043,-3.867 2.73,-3.867 m 0.059,0.773 c -1.149,0 -1.863,1.207 -1.863,3.211 0,1.922 0.703,3.094 1.804,3.094 1.125,0 1.828,-1.219 1.828,-3.211 0,-1.922 -0.668,-3.094 -1.769,-3.094 m 6.691,-0.773 c 1.699,0 2.754,1.488 2.754,3.984 0,2.391 -1.019,3.867 -2.683,3.867 -1.723,0 -2.801,-1.5 -2.801,-3.984 0,-2.403 1.043,-3.867 2.73,-3.867 m 0.059,0.773 c -1.149,0 -1.863,1.207 -1.863,3.211 0,1.922 0.703,3.094 1.804,3.094 1.125,0 1.828,-1.219 1.828,-3.211 0,-1.922 -0.668,-3.094 -1.769,-3.094"
         style="fill:#000000;fill-opacity:1;fill-rule:nonzero;stroke:none"
         id="path334" /></g><g
       id="g336"><path
         d="m 105.316,22.395 h 0.868 v 7.746 h -0.844 l -3.832,-5.368 v -0.468 h 6.047 v 0.75 h -5.18 l 0.07,-0.188 3.047,4.36 -0.164,0.023 -0.012,-6.855 m 3.188,0.105 h 4.851 v 0.797 h -3.914 l 0.118,-0.27 c 2.613,2.461 3.492,3.739 3.492,5.063 0,1.348 -0.914,2.156 -2.321,2.156 -0.914,0 -1.781,-0.328 -2.343,-0.867 l 0.246,-0.633 c 0.586,0.469 1.312,0.703 1.91,0.703 0.984,0 1.582,-0.586 1.582,-1.5 0,-1.113 -0.891,-2.261 -3.621,-4.84 V 22.5 m 8.859,-0.105 c 1.699,0 2.754,1.488 2.754,3.984 0,2.391 -1.019,3.867 -2.683,3.867 -1.723,0 -2.801,-1.5 -2.801,-3.984 0,-2.403 1.043,-3.867 2.73,-3.867 m 0.059,0.773 c -1.149,0 -1.863,1.207 -1.863,3.211 0,1.922 0.703,3.094 1.804,3.094 1.125,0 1.828,-1.219 1.828,-3.211 0,-1.922 -0.668,-3.094 -1.769,-3.094"
         style="fill:#000000;fill-opacity:1;fill-rule:nonzero;stroke:none"
         id="path338" /></g><g
       id="g340"><path
         d="m 163.816,22.395 h 0.868 v 7.746 h -0.844 l -3.832,-5.368 v -0.468 h 6.047 v 0.75 h -5.18 l 0.07,-0.188 3.047,4.36 -0.164,0.023 -0.012,-6.855 m 6.75,0 h 0.868 v 7.746 h -0.844 l -3.832,-5.368 v -0.468 h 6.047 v 0.75 h -5.18 l 0.07,-0.188 3.047,4.36 -0.164,0.023 -0.012,-6.855 m 6.047,0 c 1.699,0 2.754,1.488 2.754,3.984 0,2.391 -1.019,3.867 -2.683,3.867 -1.723,0 -2.801,-1.5 -2.801,-3.984 0,-2.403 1.043,-3.867 2.73,-3.867 m 0.059,0.773 c -1.149,0 -1.863,1.207 -1.863,3.211 0,1.922 0.703,3.094 1.804,3.094 1.125,0 1.828,-1.219 1.828,-3.211 0,-1.922 -0.668,-3.094 -1.769,-3.094"
         style="fill:#000000;fill-opacity:1;fill-rule:nonzero;stroke:none"
         id="path342" /></g><g
       id="g344"><path
         d="m 223.066,22.395 h 0.868 v 7.746 h -0.844 l -3.832,-5.368 v -0.468 h 6.047 v 0.75 h -5.18 l 0.07,-0.188 3.047,4.36 -0.164,0.023 -0.012,-6.855 m 6.024,0 c 1.476,0 2.519,1.031 2.519,2.519 0,1.371 -0.902,2.285 -2.226,2.285 -1.149,0 -2.051,-0.668 -2.309,-1.734 l 0.188,-0.469 c 0.234,0.914 0.949,1.442 1.863,1.442 0.996,0 1.617,-0.633 1.617,-1.641 0,-0.961 -0.586,-1.617 -1.547,-1.617 -1.254,0 -1.922,1.054 -1.922,3.047 0,2.144 0.774,3.222 2.391,3.222 0.539,0 1.09,-0.129 1.582,-0.375 l 0.258,0.715 c -0.598,0.316 -1.172,0.457 -1.793,0.457 -2.109,0 -3.328,-1.547 -3.328,-4.148 0,-2.344 0.984,-3.703 2.707,-3.703 m 6.773,0 c 1.699,0 2.754,1.488 2.754,3.984 0,2.391 -1.019,3.867 -2.683,3.867 -1.723,0 -2.801,-1.5 -2.801,-3.984 0,-2.403 1.043,-3.867 2.73,-3.867 m 0.059,0.773 c -1.149,0 -1.863,1.207 -1.863,3.211 0,1.922 0.703,3.094 1.804,3.094 1.125,0 1.828,-1.219 1.828,-3.211 0,-1.922 -0.668,-3.094 -1.769,-3.094"
         style="fill:#000000;fill-opacity:1;fill-rule:nonzero;stroke:none"
         id="path346" /></g><g
       id="g348"><path
         d="m 281.566,22.395 h 0.868 v 7.746 h -0.844 l -3.832,-5.368 v -0.468 h 6.047 v 0.75 h -5.18 l 0.07,-0.188 3.047,4.36 -0.164,0.023 -0.012,-6.855 m 5.883,0 c 1.606,0 2.672,0.82 2.672,2.027 0,2.449 -4.148,1.98 -4.148,3.914 0,0.691 0.539,1.148 1.382,1.148 0.903,0 1.547,-0.504 1.547,-1.23 0,-0.703 -0.609,-1.301 -1.511,-1.488 l 0.679,-0.352 c 1.055,0.316 1.711,1.102 1.711,1.992 0,1.102 -0.961,1.84 -2.32,1.84 -1.418,0 -2.379,-0.808 -2.379,-1.992 0,-2.508 4.102,-1.922 4.102,-3.867 0,-0.739 -0.586,-1.207 -1.582,-1.207 -1.09,0 -1.864,0.539 -1.864,1.359 0,0.785 0.668,1.418 1.7,1.559 l -0.586,0.375 c -1.231,-0.164 -2.051,-1.02 -2.051,-2.063 0,-1.207 1.078,-2.015 2.648,-2.015 m 6.914,0 c 1.699,0 2.754,1.488 2.754,3.984 0,2.391 -1.019,3.867 -2.683,3.867 -1.723,0 -2.801,-1.5 -2.801,-3.984 0,-2.403 1.043,-3.867 2.73,-3.867 m 0.059,0.773 c -1.149,0 -1.863,1.207 -1.863,3.211 0,1.922 0.703,3.094 1.804,3.094 1.125,0 1.828,-1.219 1.828,-3.211 0,-1.922 -0.668,-3.094 -1.769,-3.094"
         style="fill:#000000;fill-opacity:1;fill-rule:nonzero;stroke:none"
         id="path350" /></g><g
       id="g352"><path
         d="m 338.684,22.395 c 1.699,0 2.847,0.96 2.847,2.46 0,1.43 -1.043,2.333 -2.754,2.333 -0.422,0 -0.843,-0.047 -1.23,-0.141 l 0.223,-0.281 0.128,2.589 h 3.27 v 0.786 h -4.102 l -0.187,-3.914 c 0.492,0.117 1.137,0.187 1.617,0.187 1.301,0 2.098,-0.598 2.098,-1.641 0,-0.984 -0.727,-1.582 -1.852,-1.582 -0.656,0 -1.383,0.188 -1.957,0.493 l -0.269,-0.727 c 0.679,-0.363 1.394,-0.562 2.168,-0.562 m 6.679,0 c 1.699,0 2.754,1.488 2.754,3.984 0,2.391 -1.019,3.867 -2.683,3.867 -1.723,0 -2.801,-1.5 -2.801,-3.984 0,-2.403 1.043,-3.867 2.73,-3.867 m 0.059,0.773 c -1.149,0 -1.863,1.207 -1.863,3.211 0,1.922 0.703,3.094 1.804,3.094 1.125,0 1.828,-1.219 1.828,-3.211 0,-1.922 -0.668,-3.094 -1.769,-3.094 m 6.691,-0.773 c 1.699,0 2.754,1.488 2.754,3.984 0,2.391 -1.019,3.867 -2.683,3.867 -1.723,0 -2.801,-1.5 -2.801,-3.984 0,-2.403 1.043,-3.867 2.73,-3.867 m 0.059,0.773 c -1.149,0 -1.863,1.207 -1.863,3.211 0,1.922 0.703,3.094 1.804,3.094 1.125,0 1.828,-1.219 1.828,-3.211 0,-1.922 -0.668,-3.094 -1.769,-3.094"
         style="fill:#000000;fill-opacity:1;fill-rule:nonzero;stroke:none"
         id="path354" /></g><g
       id="g356"><path
         d="M 111.15,38.25 V 39"
         style="fill:none;stroke:#000000;stroke-width:1;stroke-linecap:square;stroke-linejoin:bevel;stroke-miterlimit:10;stroke-dasharray:none;stroke-opacity:1"
         id="path358" /></g><g
       id="g360"><path
         d="M 169.8,38.25 V 39"
         style="fill:none;stroke:#000000;stroke-width:1;stroke-linecap:square;stroke-linejoin:bevel;stroke-miterlimit:10;stroke-dasharray:none;stroke-opacity:1"
         id="path362" /></g><g
       id="g364"><path
         d="M 228.45,38.25 V 39"
         style="fill:none;stroke:#000000;stroke-width:1;stroke-linecap:square;stroke-linejoin:bevel;stroke-miterlimit:10;stroke-dasharray:none;stroke-opacity:1"
         id="path366" /></g><g
       id="g368"><path
         d="M 287.1,38.25 V 39"
         style="fill:none;stroke:#000000;stroke-width:1;stroke-linecap:square;stroke-linejoin:bevel;stroke-miterlimit:10;stroke-dasharray:none;stroke-opacity:1"
         id="path370" /></g><g
       id="g372"><path
         d="M 52.5,38.25 H 345.75"
         style="fill:none;stroke:#000000;stroke-width:1;stroke-linecap:square;stroke-linejoin:bevel;stroke-miterlimit:10;stroke-dasharray:none;stroke-opacity:1"
         id="path374" /></g><g
       id="g376"><path
         d="M 111.15,38.25 V 45"
         style="fill:none;stroke:#000000;stroke-width:1;stroke-linecap:square;stroke-linejoin:bevel;stroke-miterlimit:10;stroke-dasharray:none;stroke-opacity:1"
         id="path378" /></g><g
       id="g380"><path
         d="M 169.8,38.25 V 45"
         style="fill:none;stroke:#000000;stroke-width:1;stroke-linecap:square;stroke-linejoin:bevel;stroke-miterlimit:10;stroke-dasharray:none;stroke-opacity:1"
         id="path382" /></g><g
       id="g384"><path
         d="M 228.45,38.25 V 45"
         style="fill:none;stroke:#000000;stroke-width:1;stroke-linecap:square;stroke-linejoin:bevel;stroke-miterlimit:10;stroke-dasharray:none;stroke-opacity:1"
         id="path386" /></g><g
       id="g388"><path
         d="M 287.1,38.25 V 45"
         style="fill:none;stroke:#000000;stroke-width:1;stroke-linecap:square;stroke-linejoin:bevel;stroke-miterlimit:10;stroke-dasharray:none;stroke-opacity:1"
         id="path390" /></g><g
       id="g392"><path
         d="M 64.23,38.25 V 42"
         style="fill:none;stroke:#000000;stroke-width:1;stroke-linecap:square;stroke-linejoin:bevel;stroke-miterlimit:10;stroke-dasharray:none;stroke-opacity:1"
         id="path394" /></g><g
       id="g396"><path
         d="M 75.96,38.25 V 42"
         style="fill:none;stroke:#000000;stroke-width:1;stroke-linecap:square;stroke-linejoin:bevel;stroke-miterlimit:10;stroke-dasharray:none;stroke-opacity:1"
         id="path398" /></g><g
       id="g400"><path
         d="M 87.69,38.25 V 42"
         style="fill:none;stroke:#000000;stroke-width:1;stroke-linecap:square;stroke-linejoin:bevel;stroke-miterlimit:10;stroke-dasharray:none;stroke-opacity:1"
         id="path402" /></g><g
       id="g404"><path
         d="M 99.42,38.25 V 42"
         style="fill:none;stroke:#000000;stroke-width:1;stroke-linecap:square;stroke-linejoin:bevel;stroke-miterlimit:10;stroke-dasharray:none;stroke-opacity:1"
         id="path406" /></g><g
       id="g408"><path
         d="M 122.88,38.25 V 42"
         style="fill:none;stroke:#000000;stroke-width:1;stroke-linecap:square;stroke-linejoin:bevel;stroke-miterlimit:10;stroke-dasharray:none;stroke-opacity:1"
         id="path410" /></g><g
       id="g412"><path
         d="M 134.61,38.25 V 42"
         style="fill:none;stroke:#000000;stroke-width:1;stroke-linecap:square;stroke-linejoin:bevel;stroke-miterlimit:10;stroke-dasharray:none;stroke-opacity:1"
         id="path414" /></g><g
       id="g416"><path
         d="M 146.34,38.25 V 42"
         style="fill:none;stroke:#000000;stroke-width:1;stroke-linecap:square;stroke-linejoin:bevel;stroke-miterlimit:10;stroke-dasharray:none;stroke-opacity:1"
         id="path418" /></g><g
       id="g420"><path
         d="M 158.07,38.25 V 42"
         style="fill:none;stroke:#000000;stroke-width:1;stroke-linecap:square;stroke-linejoin:bevel;stroke-miterlimit:10;stroke-dasharray:none;stroke-opacity:1"
         id="path422" /></g><g
       id="g424"><path
         d="M 181.53,38.25 V 42"
         style="fill:none;stroke:#000000;stroke-width:1;stroke-linecap:square;stroke-linejoin:bevel;stroke-miterlimit:10;stroke-dasharray:none;stroke-opacity:1"
         id="path426" /></g><g
       id="g428"><path
         d="M 193.26,38.25 V 42"
         style="fill:none;stroke:#000000;stroke-width:1;stroke-linecap:square;stroke-linejoin:bevel;stroke-miterlimit:10;stroke-dasharray:none;stroke-opacity:1"
         id="path430" /></g><g
       id="g432"><path
         d="M 204.99,38.25 V 42"
         style="fill:none;stroke:#000000;stroke-width:1;stroke-linecap:square;stroke-linejoin:bevel;stroke-miterlimit:10;stroke-dasharray:none;stroke-opacity:1"
         id="path434" /></g><g
       id="g436"><path
         d="M 216.72,38.25 V 42"
         style="fill:none;stroke:#000000;stroke-width:1;stroke-linecap:square;stroke-linejoin:bevel;stroke-miterlimit:10;stroke-dasharray:none;stroke-opacity:1"
         id="path438" /></g><g
       id="g440"><path
         d="M 240.18,38.25 V 42"
         style="fill:none;stroke:#000000;stroke-width:1;stroke-linecap:square;stroke-linejoin:bevel;stroke-miterlimit:10;stroke-dasharray:none;stroke-opacity:1"
         id="path442" /></g><g
       id="g444"><path
         d="M 251.91,38.25 V 42"
         style="fill:none;stroke:#000000;stroke-width:1;stroke-linecap:square;stroke-linejoin:bevel;stroke-miterlimit:10;stroke-dasharray:none;stroke-opacity:1"
         id="path446" /></g><g
       id="g448"><path
         d="M 263.64,38.25 V 42"
         style="fill:none;stroke:#000000;stroke-width:1;stroke-linecap:square;stroke-linejoin:bevel;stroke-miterlimit:10;stroke-dasharray:none;stroke-opacity:1"
         id="path450" /></g><g
       id="g452"><path
         d="M 275.37,38.25 V 42"
         style="fill:none;stroke:#000000;stroke-width:1;stroke-linecap:square;stroke-linejoin:bevel;stroke-miterlimit:10;stroke-dasharray:none;stroke-opacity:1"
         id="path454" /></g><g
       id="g456"><path
         d="M 298.83,38.25 V 42"
         style="fill:none;stroke:#000000;stroke-width:1;stroke-linecap:square;stroke-linejoin:bevel;stroke-miterlimit:10;stroke-dasharray:none;stroke-opacity:1"
         id="path458" /></g><g
       id="g460"><path
         d="M 310.56,38.25 V 42"
         style="fill:none;stroke:#000000;stroke-width:1;stroke-linecap:square;stroke-linejoin:bevel;stroke-miterlimit:10;stroke-dasharray:none;stroke-opacity:1"
         id="path462" /></g><g
       id="g464"><path
         d="M 322.29,38.25 V 42"
         style="fill:none;stroke:#000000;stroke-width:1;stroke-linecap:square;stroke-linejoin:bevel;stroke-miterlimit:10;stroke-dasharray:none;stroke-opacity:1"
         id="path466" /></g><g
       id="g468"><path
         d="M 334.02,38.25 V 42"
         style="fill:none;stroke:#000000;stroke-width:1;stroke-linecap:square;stroke-linejoin:bevel;stroke-miterlimit:10;stroke-dasharray:none;stroke-opacity:1"
         id="path470" /></g><g
       id="g472"><path
         d="M 111.15,258.75 V 258"
         style="fill:none;stroke:#000000;stroke-width:1;stroke-linecap:square;stroke-linejoin:bevel;stroke-miterlimit:10;stroke-dasharray:none;stroke-opacity:1"
         id="path474" /></g><g
       id="g476"><path
         d="M 169.8,258.75 V 258"
         style="fill:none;stroke:#000000;stroke-width:1;stroke-linecap:square;stroke-linejoin:bevel;stroke-miterlimit:10;stroke-dasharray:none;stroke-opacity:1"
         id="path478" /></g><g
       id="g480"><path
         d="M 228.45,258.75 V 258"
         style="fill:none;stroke:#000000;stroke-width:1;stroke-linecap:square;stroke-linejoin:bevel;stroke-miterlimit:10;stroke-dasharray:none;stroke-opacity:1"
         id="path482" /></g><g
       id="g484"><path
         d="M 287.1,258.75 V 258"
         style="fill:none;stroke:#000000;stroke-width:1;stroke-linecap:square;stroke-linejoin:bevel;stroke-miterlimit:10;stroke-dasharray:none;stroke-opacity:1"
         id="path486" /></g><g
       id="g488"><path
         d="M 52.5,258.75 H 345.75"
         style="fill:none;stroke:#000000;stroke-width:1;stroke-linecap:square;stroke-linejoin:bevel;stroke-miterlimit:10;stroke-dasharray:none;stroke-opacity:1"
         id="path490" /></g><g
       id="g492"><path
         d="M 111.15,258.75 V 252"
         style="fill:none;stroke:#000000;stroke-width:1;stroke-linecap:square;stroke-linejoin:bevel;stroke-miterlimit:10;stroke-dasharray:none;stroke-opacity:1"
         id="path494" /></g><g
       id="g496"><path
         d="M 169.8,258.75 V 252"
         style="fill:none;stroke:#000000;stroke-width:1;stroke-linecap:square;stroke-linejoin:bevel;stroke-miterlimit:10;stroke-dasharray:none;stroke-opacity:1"
         id="path498" /></g><g
       id="g500"><path
         d="M 228.45,258.75 V 252"
         style="fill:none;stroke:#000000;stroke-width:1;stroke-linecap:square;stroke-linejoin:bevel;stroke-miterlimit:10;stroke-dasharray:none;stroke-opacity:1"
         id="path502" /></g><g
       id="g504"><path
         d="M 287.1,258.75 V 252"
         style="fill:none;stroke:#000000;stroke-width:1;stroke-linecap:square;stroke-linejoin:bevel;stroke-miterlimit:10;stroke-dasharray:none;stroke-opacity:1"
         id="path506" /></g><g
       id="g508"><path
         d="M 64.23,258.75 V 255"
         style="fill:none;stroke:#000000;stroke-width:1;stroke-linecap:square;stroke-linejoin:bevel;stroke-miterlimit:10;stroke-dasharray:none;stroke-opacity:1"
         id="path510" /></g><g
       id="g512"><path
         d="M 75.96,258.75 V 255"
         style="fill:none;stroke:#000000;stroke-width:1;stroke-linecap:square;stroke-linejoin:bevel;stroke-miterlimit:10;stroke-dasharray:none;stroke-opacity:1"
         id="path514" /></g><g
       id="g516"><path
         d="M 87.69,258.75 V 255"
         style="fill:none;stroke:#000000;stroke-width:1;stroke-linecap:square;stroke-linejoin:bevel;stroke-miterlimit:10;stroke-dasharray:none;stroke-opacity:1"
         id="path518" /></g><g
       id="g520"><path
         d="M 99.42,258.75 V 255"
         style="fill:none;stroke:#000000;stroke-width:1;stroke-linecap:square;stroke-linejoin:bevel;stroke-miterlimit:10;stroke-dasharray:none;stroke-opacity:1"
         id="path522" /></g><g
       id="g524"><path
         d="M 122.88,258.75 V 255"
         style="fill:none;stroke:#000000;stroke-width:1;stroke-linecap:square;stroke-linejoin:bevel;stroke-miterlimit:10;stroke-dasharray:none;stroke-opacity:1"
         id="path526" /></g><g
       id="g528"><path
         d="M 134.61,258.75 V 255"
         style="fill:none;stroke:#000000;stroke-width:1;stroke-linecap:square;stroke-linejoin:bevel;stroke-miterlimit:10;stroke-dasharray:none;stroke-opacity:1"
         id="path530" /></g><g
       id="g532"><path
         d="M 146.34,258.75 V 255"
         style="fill:none;stroke:#000000;stroke-width:1;stroke-linecap:square;stroke-linejoin:bevel;stroke-miterlimit:10;stroke-dasharray:none;stroke-opacity:1"
         id="path534" /></g><g
       id="g536"><path
         d="M 158.07,258.75 V 255"
         style="fill:none;stroke:#000000;stroke-width:1;stroke-linecap:square;stroke-linejoin:bevel;stroke-miterlimit:10;stroke-dasharray:none;stroke-opacity:1"
         id="path538" /></g><g
       id="g540"><path
         d="M 181.53,258.75 V 255"
         style="fill:none;stroke:#000000;stroke-width:1;stroke-linecap:square;stroke-linejoin:bevel;stroke-miterlimit:10;stroke-dasharray:none;stroke-opacity:1"
         id="path542" /></g><g
       id="g544"><path
         d="M 193.26,258.75 V 255"
         style="fill:none;stroke:#000000;stroke-width:1;stroke-linecap:square;stroke-linejoin:bevel;stroke-miterlimit:10;stroke-dasharray:none;stroke-opacity:1"
         id="path546" /></g><g
       id="g548"><path
         d="M 204.99,258.75 V 255"
         style="fill:none;stroke:#000000;stroke-width:1;stroke-linecap:square;stroke-linejoin:bevel;stroke-miterlimit:10;stroke-dasharray:none;stroke-opacity:1"
         id="path550" /></g><g
       id="g552"><path
         d="M 216.72,258.75 V 255"
         style="fill:none;stroke:#000000;stroke-width:1;stroke-linecap:square;stroke-linejoin:bevel;stroke-miterlimit:10;stroke-dasharray:none;stroke-opacity:1"
         id="path554" /></g><g
       id="g556"><path
         d="M 240.18,258.75 V 255"
         style="fill:none;stroke:#000000;stroke-width:1;stroke-linecap:square;stroke-linejoin:bevel;stroke-miterlimit:10;stroke-dasharray:none;stroke-opacity:1"
         id="path558" /></g><g
       id="g560"><path
         d="M 251.91,258.75 V 255"
         style="fill:none;stroke:#000000;stroke-width:1;stroke-linecap:square;stroke-linejoin:bevel;stroke-miterlimit:10;stroke-dasharray:none;stroke-opacity:1"
         id="path562" /></g><g
       id="g564"><path
         d="M 263.64,258.75 V 255"
         style="fill:none;stroke:#000000;stroke-width:1;stroke-linecap:square;stroke-linejoin:bevel;stroke-miterlimit:10;stroke-dasharray:none;stroke-opacity:1"
         id="path566" /></g><g
       id="g568"><path
         d="M 275.37,258.75 V 255"
         style="fill:none;stroke:#000000;stroke-width:1;stroke-linecap:square;stroke-linejoin:bevel;stroke-miterlimit:10;stroke-dasharray:none;stroke-opacity:1"
         id="path570" /></g><g
       id="g572"><path
         d="M 298.83,258.75 V 255"
         style="fill:none;stroke:#000000;stroke-width:1;stroke-linecap:square;stroke-linejoin:bevel;stroke-miterlimit:10;stroke-dasharray:none;stroke-opacity:1"
         id="path574" /></g><g
       id="g576"><path
         d="M 310.56,258.75 V 255"
         style="fill:none;stroke:#000000;stroke-width:1;stroke-linecap:square;stroke-linejoin:bevel;stroke-miterlimit:10;stroke-dasharray:none;stroke-opacity:1"
         id="path578" /></g><g
       id="g580"><path
         d="M 322.29,258.75 V 255"
         style="fill:none;stroke:#000000;stroke-width:1;stroke-linecap:square;stroke-linejoin:bevel;stroke-miterlimit:10;stroke-dasharray:none;stroke-opacity:1"
         id="path582" /></g><g
       id="g584"><path
         d="M 334.02,258.75 V 255"
         style="fill:none;stroke:#000000;stroke-width:1;stroke-linecap:square;stroke-linejoin:bevel;stroke-miterlimit:10;stroke-dasharray:none;stroke-opacity:1"
         id="path586" /></g><g
       id="g588"><path
         d="m 60,251.25 h 123.75 v -42 H 60 Z"
         style="fill:#ffffff;fill-opacity:0.8;fill-rule:nonzero;stroke:none"
         id="path590" /></g><g
       id="g592"><path
         d="m 60,251.25 h 123.75 v -42 H 60 Z"
         style="fill:none;stroke:#000000;stroke-width:1;stroke-linecap:square;stroke-linejoin:miter;stroke-miterlimit:10;stroke-dasharray:none;stroke-opacity:1"
         id="path594" /></g><g
       id="g596"><path
         d="m 68.25,241.5 h 24"
         style="fill:none;stroke:#000000;stroke-width:2;stroke-linecap:butt;stroke-linejoin:miter;stroke-miterlimit:10;stroke-dasharray:none;stroke-opacity:1"
         id="path598" /></g><g
       id="g600"><path
         d="m 96.832,237.75 h 0.703 v 5.203 h -0.152 l 2.179,-4.23 h 0.586 l 2.145,4.23 h -0.105 v -5.203 h 0.714 v 6.246 h -0.738 l -2.508,-4.91 h 0.446 l -2.508,4.91 h -0.762 v -6.246 m 10.289,-0.082 c 0.856,0 1.641,0.258 2.274,0.75 v 2.637 h -2.52 v -0.645 h 1.77 v -2.027 l 0.175,0.375 c -0.492,-0.281 -1.043,-0.434 -1.593,-0.434 -1.5,0 -2.473,1.031 -2.473,2.637 0,1.559 0.891,2.461 2.402,2.461 0.574,0 1.231,-0.129 1.782,-0.34 l 0.21,0.574 c -0.55,0.27 -1.207,0.422 -1.886,0.422 -1.969,0 -3.282,-1.289 -3.282,-3.246 0,-1.91 1.243,-3.164 3.141,-3.164 m 7.195,0.082 h 0.704 l 1.687,4.336 h -0.715 l -1.5,-4.195 h 0.387 l -1.465,4.195 h -0.809 l 1.711,-4.336 m 3.575,0 h 0.714 v 5.285 c 0,0.551 0.27,0.844 0.762,0.844 0.235,0 0.539,-0.047 0.762,-0.152 l 0.152,0.539 c -0.281,0.129 -0.551,0.222 -0.867,0.222 -0.914,0 -1.523,-0.621 -1.523,-1.547 v -5.191 m -0.645,3.738 h 2.719 v 0.598 h -2.719 v -0.598 m 3.246,-0.047 h 4.231 v 0.668 h -4.231 v -0.668 m 0,-2.179 h 4.231 v 0.668 h -4.231 v -0.668 m 6.762,-1.559 h 0.715 v 6.293 h -0.434 l -2.226,-1.16 0.269,-0.504 1.91,0.902 -0.234,0.223 v -5.754 m 4.488,-0.047 c 1.395,0 2.262,1.231 2.262,3.258 0,1.969 -0.844,3.164 -2.203,3.164 -1.406,0 -2.274,-1.23 -2.274,-3.246 0,-1.98 0.844,-3.176 2.215,-3.176 m 0.059,0.645 c -0.938,0 -1.524,0.972 -1.524,2.613 0,1.582 0.563,2.531 1.477,2.531 0.914,0 1.488,-0.996 1.488,-2.613 0,-1.582 -0.551,-2.531 -1.441,-2.531 m 5.566,-0.551 h 0.692 l 3.433,6.246 h -0.75 l -3.375,-6.246 m -0.187,2.355 c 0.902,0 1.5,0.786 1.5,2.004 0,1.196 -0.575,1.969 -1.477,1.969 -0.926,0 -1.523,-0.773 -1.523,-2.004 0,-1.207 0.586,-1.969 1.5,-1.969 m 0.011,0.598 c -0.48,0 -0.796,0.551 -0.796,1.406 0,0.844 0.304,1.383 0.785,1.383 0.48,0 0.797,-0.551 0.797,-1.43 0,-0.832 -0.305,-1.359 -0.786,-1.359 m 4.5,-3.012 c 0.914,0 1.5,0.786 1.5,2.016 0,1.195 -0.574,1.969 -1.476,1.969 -0.926,0 -1.512,-0.785 -1.512,-2.016 0,-1.195 0.586,-1.969 1.488,-1.969 m 0.024,0.598 c -0.492,0 -0.809,0.551 -0.809,1.418 0,0.844 0.305,1.371 0.785,1.371 0.493,0 0.797,-0.551 0.797,-1.418 0,-0.844 -0.304,-1.371 -0.773,-1.371 m 2.719,-2.109 h 0.644 c 0.317,0.785 0.492,1.746 0.492,2.636 h -0.773 c 0,-0.902 -0.141,-1.886 -0.363,-2.636 m 6.808,1.476 c 1.395,0 2.262,1.231 2.262,3.258 0,1.969 -0.844,3.164 -2.203,3.164 -1.406,0 -2.274,-1.23 -2.274,-3.246 0,-1.98 0.844,-3.176 2.215,-3.176 m 0.059,0.645 c -0.938,0 -1.524,0.972 -1.524,2.613 0,1.582 0.563,2.531 1.477,2.531 0.914,0 1.488,-0.996 1.488,-2.613 0,-1.582 -0.551,-2.531 -1.441,-2.531 m 4.347,-0.645 c 0.34,0 0.575,0.246 0.575,0.574 0,0.34 -0.235,0.586 -0.575,0.586 -0.339,0 -0.574,-0.246 -0.574,-0.586 0,-0.328 0.235,-0.574 0.574,-0.574 m 3.106,0.047 h 0.715 v 6.293 h -0.434 l -2.226,-1.16 0.269,-0.504 1.91,0.902 -0.234,0.223 v -5.754 m 10.57,0.047 h 0.727 v 2.848 c 0,0.961 -0.633,1.582 -1.594,1.582 -0.621,0 -1.242,-0.27 -1.687,-0.75 l 0.175,-0.457 c 0.352,0.363 0.821,0.574 1.313,0.574 0.691,0 1.066,-0.399 1.066,-1.102 v -2.695 m -5.824,0 h 0.715 v 3.832 l -0.211,0.504 H 163.5 v -4.336 m 2.906,0 h 0.727 v 2.848 c 0,0.961 -0.633,1.582 -1.582,1.582 -0.633,0 -1.242,-0.27 -1.699,-0.75 l 0.175,-0.457 c 0.352,0.363 0.821,0.574 1.313,0.574 0.691,0 1.066,-0.399 1.066,-1.102 v -2.695 m 6.832,-0.094 c 0.61,0 1.231,0.27 1.676,0.75 l -0.176,0.457 c -0.34,-0.363 -0.82,-0.574 -1.277,-0.574 -0.68,0 -1.066,0.399 -1.066,1.102 v 2.695 h -0.715 v -2.848 c 0,-0.961 0.632,-1.582 1.558,-1.582 m 1.535,0.094 h 0.504 v 4.336 h -0.726 v -3.832 l 0.222,-0.504"
         style="fill:#000000;fill-opacity:1;fill-rule:nonzero;stroke:none"
         id="path602" /></g><g
       id="g604"><path
         d="m 68.25,230.25 h 24"
         style="fill:none;stroke:#ff0000;stroke-width:2;stroke-linecap:butt;stroke-linejoin:miter;stroke-miterlimit:10;stroke-dasharray:none;stroke-opacity:1"
         id="path606" /></g><g
       id="g608"><path
         d="m 96.832,226.5 h 0.703 v 5.203 h -0.152 l 2.179,-4.23 h 0.586 l 2.145,4.23 h -0.105 V 226.5 h 0.714 v 6.246 h -0.738 l -2.508,-4.91 h 0.446 l -2.508,4.91 H 96.832 V 226.5 m 10.289,-0.082 c 0.856,0 1.641,0.258 2.274,0.75 v 2.637 h -2.52 v -0.645 h 1.77 v -2.027 l 0.175,0.375 c -0.492,-0.281 -1.043,-0.434 -1.593,-0.434 -1.5,0 -2.473,1.031 -2.473,2.637 0,1.559 0.891,2.461 2.402,2.461 0.574,0 1.231,-0.129 1.782,-0.34 l 0.21,0.574 c -0.55,0.27 -1.207,0.422 -1.886,0.422 -1.969,0 -3.282,-1.289 -3.282,-3.246 0,-1.91 1.243,-3.164 3.141,-3.164 m 7.195,0.082 h 0.704 l 1.687,4.336 h -0.715 l -1.5,-4.195 h 0.387 l -1.465,4.195 h -0.809 l 1.711,-4.336 m 3.575,0 h 0.714 v 5.285 c 0,0.551 0.27,0.844 0.762,0.844 0.235,0 0.539,-0.047 0.762,-0.152 l 0.152,0.539 c -0.281,0.129 -0.551,0.222 -0.867,0.222 -0.914,0 -1.523,-0.621 -1.523,-1.547 V 226.5 m -0.645,3.738 h 2.719 v 0.598 h -2.719 v -0.598 m 3.246,-0.047 h 4.231 v 0.668 h -4.231 v -0.668 m 0,-2.179 h 4.231 v 0.668 h -4.231 v -0.668 m 6.949,-1.606 c 1.383,0 2.321,0.797 2.321,2.016 0,1.172 -0.844,1.91 -2.25,1.91 -0.34,0 -0.68,-0.047 -0.996,-0.117 l 0.187,-0.235 0.094,2.122 h 2.672 v 0.644 h -3.352 l -0.152,-3.199 c 0.41,0.094 0.926,0.152 1.324,0.152 1.066,0 1.711,-0.492 1.711,-1.336 0,-0.808 -0.598,-1.301 -1.512,-1.301 -0.539,0 -1.136,0.153 -1.605,0.411 l -0.211,-0.598 c 0.562,-0.293 1.148,-0.469 1.769,-0.469 m 5.426,0.094 h 0.692 l 3.433,6.246 h -0.75 l -3.375,-6.246 m -0.187,2.355 c 0.902,0 1.5,0.786 1.5,2.004 0,1.196 -0.575,1.969 -1.477,1.969 -0.926,0 -1.523,-0.773 -1.523,-2.004 0,-1.207 0.586,-1.969 1.5,-1.969 m 0.011,0.598 c -0.48,0 -0.796,0.551 -0.796,1.406 0,0.844 0.304,1.383 0.785,1.383 0.48,0 0.797,-0.551 0.797,-1.43 0,-0.832 -0.305,-1.359 -0.786,-1.359 m 4.5,-3.012 c 0.914,0 1.5,0.786 1.5,2.016 0,1.195 -0.574,1.969 -1.476,1.969 -0.926,0 -1.512,-0.785 -1.512,-2.016 0,-1.195 0.586,-1.969 1.488,-1.969 m 0.024,0.598 c -0.492,0 -0.809,0.551 -0.809,1.418 0,0.844 0.305,1.371 0.785,1.371 0.493,0 0.797,-0.551 0.797,-1.418 0,-0.844 -0.304,-1.371 -0.773,-1.371 m 2.719,-2.109 h 0.644 c 0.317,0.785 0.492,1.746 0.492,2.636 h -0.773 c 0,-0.902 -0.141,-1.886 -0.363,-2.636 m 6.808,1.476 c 1.395,0 2.262,1.231 2.262,3.258 0,1.969 -0.844,3.164 -2.203,3.164 -1.406,0 -2.274,-1.23 -2.274,-3.246 0,-1.98 0.844,-3.176 2.215,-3.176 m 0.059,0.645 c -0.938,0 -1.524,0.972 -1.524,2.613 0,1.582 0.563,2.531 1.477,2.531 0.914,0 1.488,-0.996 1.488,-2.613 0,-1.582 -0.551,-2.531 -1.441,-2.531 m 4.347,-0.645 c 0.34,0 0.575,0.246 0.575,0.574 0,0.34 -0.235,0.586 -0.575,0.586 -0.339,0 -0.574,-0.246 -0.574,-0.586 0,-0.328 0.235,-0.574 0.574,-0.574 m 3.106,0.047 h 0.715 v 6.293 h -0.434 l -2.226,-1.16 0.269,-0.504 1.91,0.902 -0.234,0.223 v -5.754 m 10.57,0.047 h 0.727 v 2.848 c 0,0.961 -0.633,1.582 -1.594,1.582 -0.621,0 -1.242,-0.27 -1.687,-0.75 l 0.175,-0.457 c 0.352,0.363 0.821,0.574 1.313,0.574 0.691,0 1.066,-0.399 1.066,-1.102 V 226.5 m -5.824,0 h 0.715 v 3.832 l -0.211,0.504 H 159 V 226.5 m 2.906,0 h 0.727 v 2.848 c 0,0.961 -0.633,1.582 -1.582,1.582 -0.633,0 -1.242,-0.27 -1.699,-0.75 l 0.175,-0.457 c 0.352,0.363 0.821,0.574 1.313,0.574 0.691,0 1.066,-0.399 1.066,-1.102 V 226.5 m 6.832,-0.094 c 0.61,0 1.231,0.27 1.676,0.75 l -0.176,0.457 c -0.34,-0.363 -0.82,-0.574 -1.277,-0.574 -0.68,0 -1.066,0.399 -1.066,1.102 v 2.695 h -0.715 v -2.848 c 0,-0.961 0.632,-1.582 1.558,-1.582 m 1.535,0.094 h 0.504 v 4.336 h -0.726 v -3.832 l 0.222,-0.504"
         style="fill:#000000;fill-opacity:1;fill-rule:nonzero;stroke:none"
         id="path610" /></g><g
       id="g612"><path
         d="m 68.25,219 h 24"
         style="fill:none;stroke:#00ff00;stroke-width:2;stroke-linecap:butt;stroke-linejoin:miter;stroke-miterlimit:10;stroke-dasharray:none;stroke-opacity:1"
         id="path614" /></g><g
       id="g616"><path
         d="m 96.832,215.25 h 0.703 v 5.203 h -0.152 l 2.179,-4.23 h 0.586 l 2.145,4.23 h -0.105 v -5.203 h 0.714 v 6.246 h -0.738 l -2.508,-4.91 h 0.446 l -2.508,4.91 h -0.762 v -6.246 m 10.289,-0.082 c 0.856,0 1.641,0.258 2.274,0.75 v 2.637 h -2.52 v -0.645 h 1.77 v -2.027 l 0.175,0.375 c -0.492,-0.281 -1.043,-0.434 -1.593,-0.434 -1.5,0 -2.473,1.031 -2.473,2.637 0,1.559 0.891,2.461 2.402,2.461 0.574,0 1.231,-0.129 1.782,-0.34 l 0.21,0.574 c -0.55,0.27 -1.207,0.422 -1.886,0.422 -1.969,0 -3.282,-1.289 -3.282,-3.246 0,-1.91 1.243,-3.164 3.141,-3.164 m 7.195,0.082 h 0.704 l 1.687,4.336 h -0.715 l -1.5,-4.195 h 0.387 l -1.465,4.195 h -0.809 l 1.711,-4.336 m 3.575,0 h 0.714 v 5.285 c 0,0.551 0.27,0.844 0.762,0.844 0.235,0 0.539,-0.047 0.762,-0.152 l 0.152,0.539 c -0.281,0.129 -0.551,0.222 -0.867,0.222 -0.914,0 -1.523,-0.621 -1.523,-1.547 v -5.191 m -0.645,3.738 h 2.719 v 0.598 h -2.719 v -0.598 m 3.246,-0.047 h 4.231 v 0.668 h -4.231 v -0.668 m 0,-2.179 h 4.231 v 0.668 h -4.231 v -0.668 m 6.762,-1.559 h 0.715 v 6.293 h -0.434 l -2.226,-1.16 0.269,-0.504 1.91,0.902 -0.234,0.223 v -5.754 m 4.113,0.047 h 0.692 l 3.433,6.246 h -0.75 l -3.375,-6.246 m -0.187,2.355 c 0.902,0 1.5,0.786 1.5,2.004 0,1.196 -0.575,1.969 -1.477,1.969 -0.926,0 -1.523,-0.773 -1.523,-2.004 0,-1.207 0.586,-1.969 1.5,-1.969 m 0.011,0.598 c -0.48,0 -0.796,0.551 -0.796,1.406 0,0.844 0.304,1.383 0.785,1.383 0.48,0 0.797,-0.551 0.797,-1.43 0,-0.832 -0.305,-1.359 -0.786,-1.359 m 4.5,-3.012 c 0.914,0 1.5,0.786 1.5,2.016 0,1.195 -0.574,1.969 -1.476,1.969 -0.926,0 -1.512,-0.785 -1.512,-2.016 0,-1.195 0.586,-1.969 1.488,-1.969 m 0.024,0.598 c -0.492,0 -0.809,0.551 -0.809,1.418 0,0.844 0.305,1.371 0.785,1.371 0.493,0 0.797,-0.551 0.797,-1.418 0,-0.844 -0.304,-1.371 -0.773,-1.371 m 2.719,-2.109 h 0.644 c 0.317,0.785 0.492,1.746 0.492,2.636 h -0.773 c 0,-0.902 -0.141,-1.886 -0.363,-2.636 m 6.808,1.476 c 1.395,0 2.262,1.231 2.262,3.258 0,1.969 -0.844,3.164 -2.203,3.164 -1.406,0 -2.274,-1.23 -2.274,-3.246 0,-1.98 0.844,-3.176 2.215,-3.176 m 0.059,0.645 c -0.938,0 -1.524,0.972 -1.524,2.613 0,1.582 0.563,2.531 1.477,2.531 0.914,0 1.488,-0.996 1.488,-2.613 0,-1.582 -0.551,-2.531 -1.441,-2.531 m 4.347,-0.645 c 0.34,0 0.575,0.246 0.575,0.574 0,0.34 -0.235,0.586 -0.575,0.586 -0.339,0 -0.574,-0.246 -0.574,-0.586 0,-0.328 0.235,-0.574 0.574,-0.574 m 3.106,0.047 h 0.715 v 6.293 h -0.434 l -2.226,-1.16 0.269,-0.504 1.91,0.902 -0.234,0.223 v -5.754 m 10.57,0.047 h 0.727 v 2.848 c 0,0.961 -0.633,1.582 -1.594,1.582 -0.621,0 -1.242,-0.27 -1.687,-0.75 l 0.175,-0.457 c 0.352,0.363 0.821,0.574 1.313,0.574 0.691,0 1.066,-0.399 1.066,-1.102 v -2.695 m -5.824,0 h 0.715 v 3.832 l -0.211,0.504 H 157.5 v -4.336 m 2.906,0 h 0.727 v 2.848 c 0,0.961 -0.633,1.582 -1.582,1.582 -0.633,0 -1.242,-0.27 -1.699,-0.75 l 0.175,-0.457 c 0.352,0.363 0.821,0.574 1.313,0.574 0.691,0 1.066,-0.399 1.066,-1.102 v -2.695 m 6.832,-0.094 c 0.61,0 1.231,0.27 1.676,0.75 l -0.176,0.457 c -0.34,-0.363 -0.82,-0.574 -1.277,-0.574 -0.68,0 -1.066,0.399 -1.066,1.102 v 2.695 h -0.715 v -2.848 c 0,-0.961 0.632,-1.582 1.558,-1.582 m 1.535,0.094 h 0.504 v 4.336 h -0.726 v -3.832 l 0.222,-0.504"
         style="fill:#000000;fill-opacity:1;fill-rule:nonzero;stroke:none"
         id="path618" /></g></g></svg>
