<?xml version="1.0" encoding="UTF-8" standalone="no"?>
<svg width="134.144mm" height="101.071mm"
 viewBox="0 0 506 381"
 xmlns="http://www.w3.org/2000/svg" xmlns:xlink="http://www.w3.org/1999/xlink"  version="1.2" baseProfile="tiny">
<title>Aspartic_thz_c</title>
<desc>Generated with QtiPlot</desc>
<defs>
</defs>
<g fill="none" stroke="black" stroke-width="1" fill-rule="evenodd" stroke-linecap="square" stroke-linejoin="bevel" >

<g fill="#ffffff" fill-opacity="1" stroke="none" transform="matrix(1,0,0,1,0,0)"
font-family="Noto Sans [MONO]" font-size="13.3333" font-weight="400" font-style="normal" 
>
<path vector-effect="non-scaling-stroke" fill-rule="evenodd" d="M0,0 L507,0 L507,382 L0,382 L0,0"/>
</g>

<g fill="none" stroke="#000000" stroke-opacity="1" stroke-width="1" stroke-linecap="square" stroke-linejoin="bevel" transform="matrix(1,0,0,1,0,0)"
font-family="Noto Sans [MONO]" font-size="13.3333" font-weight="400" font-style="normal" 
>
</g>

<g fill="#ffffff" fill-opacity="0" stroke="none" transform="matrix(1,0,0,1,0,0)"
font-family="Noto Sans [MONO]" font-size="13.3333" font-weight="400" font-style="normal" 
>
<path vector-effect="non-scaling-stroke" fill-rule="evenodd" d="M5,5 L502,5 L502,372 L5,372 L5,5"/>
</g>

<g fill="none" stroke="none" transform="matrix(1,0,0,1,0,0)"
font-family="Noto Sans [MONO]" font-size="13.3333" font-weight="400" font-style="normal" 
>
<path vector-effect="non-scaling-stroke" fill-rule="evenodd" d="M5,5 L502,5 L502,372 L5,372 L5,5"/>
</g>

<g fill="none" stroke="#000000" stroke-opacity="1" stroke-width="1" stroke-linecap="square" stroke-linejoin="bevel" transform="matrix(1,0,0,1,0,0)"
font-family="Noto Sans [MONO]" font-size="13.3333" font-weight="400" font-style="normal" 
>
</g>

<g fill="#ffffff" fill-opacity="0" stroke="none" transform="matrix(1,0,0,1,0,0)"
font-family="Noto Sans [MONO]" font-size="13.3333" font-weight="400" font-style="normal" 
>
<path vector-effect="non-scaling-stroke" fill-rule="evenodd" d="M89,15 L482,15 L482,314 L89,314 L89,15"/>
</g>

<g fill="none" stroke="#000000" stroke-opacity="1" stroke-width="1" stroke-linecap="square" stroke-linejoin="bevel" transform="matrix(1,0,0,1,0,0)"
font-family="Noto Sans [MONO]" font-size="13.3333" font-weight="400" font-style="normal" 
>
</g>

<g fill="#ffffff" fill-opacity="0" stroke="none" transform="matrix(1,0,0,1,0,0)"
font-family="Noto Sans [MONO]" font-size="13.3333" font-weight="400" font-style="normal" 
>
<path vector-effect="non-scaling-stroke" fill-rule="evenodd" d="M89,15 L482,15 L482,314 L89,314 L89,15"/>
</g>

<g fill="none" stroke="#000000" stroke-opacity="1" stroke-width="1" stroke-linecap="square" stroke-linejoin="bevel" transform="matrix(1,0,0,1,0,0)"
font-family="Noto Sans [MONO]" font-size="13.3333" font-weight="400" font-style="normal" 
>
</g>

<g fill="none" stroke="#000000" stroke-opacity="1" stroke-width="1" stroke-linecap="square" stroke-linejoin="bevel" transform="matrix(1,0,0,1,0,0)"
font-family="Noto Sans [MONO]" font-size="13.3333" font-weight="400" font-style="normal" 
>
</g>

<g fill="none" stroke="#000000" stroke-opacity="1" stroke-width="1" stroke-linecap="square" stroke-linejoin="bevel" transform="matrix(1,0,0,1,0,0)"
font-family="Noto Sans [MONO]" font-size="13.3333" font-weight="400" font-style="normal" 
>
</g>

<g fill="none" stroke="#000000" stroke-opacity="1" stroke-width="4" stroke-linecap="butt" stroke-linejoin="miter" stroke-miterlimit="2" transform="matrix(1,0,0,1,0,0)"
font-family="Noto Sans [MONO]" font-size="13.3333" font-weight="400" font-style="normal" 
>
<polyline fill="none" vector-effect="non-scaling-stroke" points="90,312.781 90.782,312.778 91.564,312.774 92.737,312.768 93.519,312.764 94.692,312.758 95.865,312.752 96.647,312.747 97.82,312.74 98.602,312.736 99.775,312.728 100.557,312.723 101.73,312.715 102.512,312.71 103.685,312.701 104.858,312.693 105.64,312.686 106.813,312.677 107.595,312.67 108.768,312.66 109.55,312.653 110.723,312.642 111.505,312.634 112.678,312.622 113.851,312.609 114.633,312.6 115.806,312.586 116.588,312.577 117.761,312.561 118.543,312.551 119.716,312.534 120.889,312.517 121.671,312.504 122.062,312.498 122.844,312.485 123.626,312.471 124.799,312.45 125.581,312.435 126.754,312.411 127.536,312.395 128.709,312.368 129.882,312.34 130.664,312.321 131.837,312.289 132.619,312.267 133.792,312.232 134.574,312.207 135.747,312.167 136.529,312.138 137.702,312.093 138.875,312.044 139.657,312.009 140.83,311.953 141.612,311.913 142.785,311.848 143.567,311.801 144.74,311.726 145.522,311.671 146.695,311.583 147.868,311.485 148.65,311.415 149.823,311.299 150.605,311.214 151.778,311.074 152.56,310.972 153.733,310.802 154.515,310.676 155.688,310.466 156.861,310.227 157.643,310.047 158.816,309.743 159.598,309.512 159.989,309.388 160.771,309.118 161.553,308.816 162.335,308.478 162.726,308.292 163.508,307.886 164.29,307.423 164.681,307.168 165.854,306.285 166.636,305.579 167.027,305.183 167.809,304.288 168.591,303.228 169.373,301.959 169.764,301.229 170.155,300.423 170.546,299.529 170.937,298.536 171.328,297.428 171.719,296.185 172.11,294.785 172.501,293.201 172.892,291.399 173.283,289.337 173.674,286.962 174.065,284.208 174.456,280.991 174.847,277.205 175.238,272.708 175.629,267.321 176.02,260.804 176.411,252.844 176.802,243.034 177.193,230.849 177.584,215.653 177.975,196.759 178.366,173.635 178.757,146.394 179.148,116.585 179.539,87.7982 179.93,64.8854 180.321,51.2661 180.712,46.5264 181.494,47.764 181.885,46.5737 182.276,43.8813 182.667,42.7267 183.058,46.1514 183.449,55.1868 183.84,68.9129 184.231,85.6848 184.622,104.051 185.013,123.022 185.404,142 185.795,160.622 186.186,178.618 186.577,195.716 186.968,211.589 187.359,225.891 187.75,238.361 188.141,248.925 188.532,257.704 188.923,264.933 189.314,270.883 189.705,275.803 190.096,279.901 190.487,283.342 190.878,286.256 191.269,288.745 191.66,290.886 192.051,292.741 192.442,294.359 192.833,295.778 193.224,297.029 193.615,298.138 194.006,299.123 194.397,300.004 194.788,300.792 195.179,301.5 195.57,302.138 195.961,302.712 196.743,303.7 197.525,304.504 198.698,305.43 199.089,305.673 199.871,306.068 200.653,306.342 201.826,306.509 202.217,306.489 202.608,306.422 203.781,305.859 204.563,305.033 204.954,304.411 205.736,302.538 206.127,301.163 206.518,299.395 206.909,297.161 207.3,294.45 207.691,291.406 208.082,288.464 208.473,286.381 208.864,285.925 209.255,287.314 209.646,290.026 210.037,293.235 210.428,296.315 210.819,298.973 211.21,301.15 211.601,302.894 211.992,304.281 212.383,305.389 212.774,306.281 213.165,307.005 213.556,307.6 214.338,308.508 214.729,308.86 215.511,309.42 215.902,309.646 216.684,310.019 217.857,310.44 218.248,310.553 218.639,310.655 219.812,310.913 220.594,311.053 221.767,311.227 222.549,311.324 223.722,311.447 224.504,311.517 225.677,311.608 226.85,311.682 227.632,311.725 228.805,311.778 229.587,311.807 230.76,311.84 231.542,311.855 232.715,311.866 233.888,311.862 234.67,311.848 235.843,311.807 236.625,311.761 237.798,311.652 238.58,311.542 238.971,311.471 239.753,311.286 240.535,311.02 241.708,310.365 242.881,309.107 243.272,308.45 243.663,307.616 244.054,306.568 244.445,305.284 244.836,303.8 245.227,302.27 245.618,301.017 246.009,300.452 246.4,300.805 246.791,301.933 247.182,303.442 247.573,304.972 247.964,306.326 248.355,307.446 248.746,308.344 249.137,309.055 249.528,309.619 250.701,310.722 251.874,311.328 252.656,311.587 253.829,311.856 254.611,311.983 255.784,312.126 256.566,312.198 257.739,312.284 258.521,312.33 259.694,312.387 260.867,312.432 261.649,312.458 262.822,312.492 263.213,312.502 263.604,312.511 264.777,312.537 265.559,312.552 266.732,312.573 267.514,312.585 268.687,312.601 269.86,312.616 270.642,312.625 271.815,312.638 272.597,312.645 273.77,312.656 274.552,312.662 275.725,312.672 276.507,312.677 277.68,312.685 278.853,312.692 279.635,312.697 280.808,312.703 281.59,312.707 282.763,312.713 283.545,312.716 284.718,312.721 285.5,312.724 286.673,312.728 287.846,312.732 288.628,312.734 289.801,312.737 290.583,312.739 291.756,312.742 292.538,312.744 293.711,312.746 294.884,312.747 295.666,312.748 296.839,312.75 297.621,312.75 298.794,312.751 299.576,312.751 300.749,312.751 301.531,312.75 302.704,312.749 303.877,312.748 304.659,312.746 305.832,312.743 306.614,312.74 307.787,312.735 308.569,312.731 309.742,312.723 310.524,312.716 311.697,312.702 312.87,312.683 313.652,312.665 314.825,312.627 315.607,312.589 316.78,312.499 317.562,312.401 318.735,312.139 319.517,311.837 320.299,311.44 320.69,311.267 321.863,311.328 322.254,311.513 322.645,311.709 323.818,312.163 324.6,312.338 325.773,312.486 326.164,312.517 326.555,312.542 327.728,312.594 328.51,312.615 329.683,312.635 330.856,312.646 331.638,312.649 332.811,312.651 333.593,312.65 334.766,312.647 335.548,312.643 336.721,312.635 337.503,312.629 338.676,312.618 339.849,312.605 340.631,312.595 341.804,312.577 342.586,312.564 343.759,312.542 344.541,312.525 345.714,312.496 346.887,312.463 347.669,312.436 348.842,312.391 349.624,312.355 350.797,312.291 351.579,312.24 352.752,312.145 353.534,312.066 354.707,311.913 355.88,311.697 356.662,311.499 357.835,311.066 358.617,310.627 359.008,310.338 359.79,309.546 360.181,309 360.572,308.314 360.963,307.449 361.354,306.365 361.745,305.034 362.136,303.481 362.527,301.846 362.918,300.441 363.7,299.896 364.091,300.954 364.482,302.473 364.873,304.059 365.264,305.48 365.655,306.658 366.046,307.598 366.828,308.912 367.61,309.716 368.783,310.385 369.174,310.521 369.565,310.626 370.738,310.809 371.52,310.851 372.693,310.826 373.866,310.716 374.648,310.598 375.43,310.444 375.821,310.352 376.603,310.135 377.776,309.716 378.558,309.357 379.731,308.66 380.122,308.375 380.513,308.056 381.295,307.299 381.686,306.848 382.077,306.338 382.859,305.096 383.25,304.336 383.641,303.458 384.032,302.439 384.423,301.247 384.814,299.843 385.205,298.176 385.596,296.18 385.987,293.769 386.378,290.828 386.769,287.206 387.16,282.705 387.551,277.064 387.942,269.954 388.333,260.99 388.724,249.795 389.115,236.196 389.506,220.617 389.897,204.641 390.288,191.232 390.679,183.824 391.461,192.358 391.852,205.284 392.243,220.333 392.634,235.221 393.025,248.558 393.416,259.788 393.807,268.918 394.198,276.218 394.589,282.031 394.98,286.674 395.371,290.408 395.762,293.437 396.153,295.918 396.544,297.968 396.935,299.679 397.326,301.118 397.717,302.339 398.108,303.383 398.499,304.281 398.89,305.06 399.281,305.738 399.672,306.332 400.063,306.856 400.845,307.731 401.627,308.429 402.018,308.725 402.8,309.235 403.582,309.655 404.755,310.158 405.537,310.429 405.928,310.549 406.71,310.762 407.883,311.026 408.665,311.173 409.838,311.358 410.62,311.461 411.011,311.507 411.793,311.591 412.575,311.664 413.748,311.754 414.53,311.803 415.703,311.861 416.876,311.901 417.658,311.918 418.831,311.927 419.613,311.922 420.786,311.891 421.568,311.854 422.741,311.762 423.523,311.669 424.696,311.458 425.869,311.112 426.651,310.755 427.433,310.233 427.824,309.88 428.215,309.442 428.606,308.896 428.997,308.211 429.388,307.348 429.779,306.27 430.17,304.945 430.561,303.371 430.952,301.601 431.343,299.773 431.734,298.161 432.125,297.18 432.516,297.213 432.907,298.304 433.298,300.087 433.689,302.074 434.08,303.924 434.471,305.495 434.862,306.768 435.253,307.782 435.644,308.584 436.426,309.731 436.817,310.143 437.599,310.754 438.772,311.339 439.554,311.596 440.727,311.865 441.509,311.993 442.682,312.134 443.855,312.234 444.637,312.284 445.81,312.339 446.592,312.365 447.765,312.39 448.547,312.397 449.72,312.395 450.502,312.382 451.675,312.344 452.848,312.273 453.63,312.199 454.803,312.024 455.585,311.839 456.758,311.375 457.54,310.842 457.931,310.466 458.713,309.388 459.495,307.777 459.886,306.855 460.277,306.057 460.668,305.627 461.841,307.219 462.232,308.143 462.623,308.975 463.014,309.669 463.796,310.671 464.578,311.3 464.969,311.524 465.751,311.853 466.533,312.077 467.706,312.298 468.879,312.439 469.661,312.507 470.834,312.583 471.616,312.622 472.789,312.667 473.571,312.692 474.744,312.722 475.526,312.739 476.699,312.761 477.872,312.778 478.654,312.789 479.827,312.802 480.609,312.81 481.782,312.821 482,312.821 " />
</g>

<g fill="none" stroke="#000000" stroke-opacity="1" stroke-width="1" stroke-linecap="square" stroke-linejoin="bevel" transform="matrix(1,0,0,1,0,0)"
font-family="Noto Sans [MONO]" font-size="13.3333" font-weight="400" font-style="normal" 
>
</g>

<g fill="none" stroke="#000000" stroke-opacity="1" stroke-width="1" stroke-linecap="square" stroke-linejoin="bevel" transform="matrix(1,0,0,1,0,0)"
font-family="Noto Sans [MONO]" font-size="13.3333" font-weight="400" font-style="normal" 
>
</g>

<g fill="none" stroke="#000000" stroke-opacity="1" stroke-width="1" stroke-linecap="square" stroke-linejoin="bevel" transform="matrix(1,0,0,1,0,0)"
font-family="Noto Sans [MONO]" font-size="13.3333" font-weight="400" font-style="normal" 
>
</g>

<g fill="none" stroke="#ff0000" stroke-opacity="1" stroke-width="2" stroke-linecap="butt" stroke-linejoin="miter" stroke-miterlimit="2" transform="matrix(1,0,0,1,0,0)"
font-family="Noto Sans [MONO]" font-size="13.3333" font-weight="400" font-style="normal" 
>
<polyline fill="none" vector-effect="non-scaling-stroke" points="90,312.825 90.782,312.822 91.564,312.819 92.737,312.815 93.519,312.812 94.692,312.807 95.865,312.802 96.647,312.799 97.82,312.793 98.602,312.79 99.775,312.784 100.557,312.78 101.73,312.774 102.512,312.77 103.685,312.763 104.858,312.757 105.64,312.752 106.813,312.745 107.595,312.74 108.768,312.732 109.55,312.726 110.723,312.718 111.505,312.712 112.678,312.703 113.851,312.693 114.633,312.686 115.806,312.675 116.588,312.668 117.761,312.656 118.543,312.648 119.716,312.636 120.889,312.622 121.671,312.613 122.844,312.598 123.626,312.588 124.799,312.571 125.581,312.56 126.754,312.542 127.536,312.529 128.709,312.509 129.491,312.495 129.882,312.488 130.664,312.473 131.837,312.448 132.619,312.431 133.792,312.404 134.574,312.385 135.747,312.355 136.529,312.333 137.702,312.298 138.875,312.26 139.657,312.233 140.83,312.19 141.612,312.159 142.785,312.109 143.567,312.073 144.74,312.014 145.522,311.972 146.695,311.903 147.868,311.827 148.65,311.772 149.823,311.681 150.605,311.614 151.778,311.504 152.169,311.464 152.56,311.423 153.733,311.289 154.515,311.189 155.688,311.022 156.861,310.829 157.643,310.685 158.816,310.439 159.598,310.252 160.771,309.93 161.553,309.683 162.335,309.403 162.726,309.25 163.508,308.912 164.681,308.311 165.854,307.565 166.245,307.276 166.636,306.964 167.418,306.255 167.809,305.853 168.2,305.413 168.591,304.931 168.982,304.401 169.764,303.172 170.155,302.455 170.546,301.658 170.937,300.766 171.328,299.764 171.719,298.635 172.11,297.356 172.501,295.899 172.892,294.23 173.283,292.307 173.674,290.076 174.065,287.471 174.456,284.406 174.847,280.77 175.238,276.418 175.629,271.163 176.02,264.755 176.411,256.867 176.802,247.069 177.193,234.809 177.584,219.411 177.975,200.141 178.366,176.42 178.757,148.343 179.148,117.522 179.539,87.8021 179.93,64.5951 180.321,52.2954 180.712,51.8944 181.103,61.2464 181.494,77.0785 181.885,96.5371 182.276,117.651 182.667,139.193 183.058,160.391 183.449,180.687 183.84,199.583 184.231,216.618 184.622,231.453 185.013,243.973 185.404,254.309 185.795,262.748 186.186,269.62 186.577,275.237 186.968,279.859 187.359,283.695 187.75,286.905 188.141,289.615 188.532,291.921 188.923,293.899 189.314,295.606 189.705,297.091 190.096,298.388 190.487,299.529 190.878,300.536 191.66,302.227 192.051,302.939 192.442,303.579 192.833,304.154 193.224,304.674 193.615,305.143 194.006,305.569 194.788,306.305 195.179,306.623 195.57,306.912 196.743,307.621 197.525,307.975 198.698,308.33 199.871,308.426 200.653,308.276 201.826,307.51 202.217,307.076 202.608,306.589 202.999,306.146 203.781,305.965 204.563,306.951 204.954,307.594 205.736,308.699 206.518,309.46 206.909,309.738 207.691,310.156 208.864,310.567 209.646,310.757 210.819,310.967 211.601,311.075 212.774,311.202 213.556,311.27 214.729,311.352 215.511,311.395 216.684,311.448 217.857,311.485 218.639,311.503 219.812,311.52 220.594,311.524 221.767,311.521 222.549,311.512 223.331,311.497 223.722,311.487 224.504,311.464 225.677,311.416 226.85,311.351 227.632,311.297 228.805,311.198 229.587,311.117 230.76,310.97 231.542,310.851 232.715,310.634 233.497,310.457 233.888,310.358 234.67,310.131 235.843,309.707 236.625,309.351 237.798,308.666 238.189,308.385 238.58,308.07 239.362,307.32 239.753,306.869 240.144,306.356 240.535,305.768 240.926,305.09 241.317,304.303 241.708,303.383 242.099,302.298 242.49,301.007 242.881,299.459 243.272,297.587 243.663,295.309 244.054,292.534 244.445,289.176 244.836,285.2 245.227,280.693 245.618,275.916 246.009,271.187 246.4,266.555 246.791,261.546 247.182,255.337 247.573,247.165 247.964,236.674 248.355,224.254 248.746,211.454 249.137,201.07 249.528,196.17 249.919,198.339 250.31,206.797 250.701,219.193 251.092,232.945 251.483,246.111 251.874,257.634 252.265,267.196 252.656,274.91 253.047,281.064 253.438,285.968 253.829,289.896 254.22,293.066 254.611,295.649 255.002,297.773 255.393,299.537 255.784,301.014 256.175,302.262 256.566,303.325 256.957,304.237 257.348,305.025 257.739,305.71 258.521,306.836 259.303,307.715 259.694,308.083 260.476,308.71 260.867,308.978 261.649,309.441 262.04,309.641 262.822,309.992 263.604,310.288 264.386,310.54 264.777,310.652 265.559,310.852 266.732,311.105 267.514,311.247 268.687,311.43 269.469,311.535 269.86,311.583 270.642,311.671 271.815,311.787 272.597,311.855 273.77,311.945 274.552,311.998 275.725,312.069 276.507,312.112 277.68,312.169 278.853,312.22 279.635,312.251 280.808,312.293 281.59,312.318 282.763,312.353 283.545,312.374 284.718,312.403 285.5,312.42 286.673,312.445 287.846,312.467 288.628,312.481 289.801,312.499 290.192,312.505 290.583,312.511 291.756,312.526 292.538,312.536 293.711,312.549 294.884,312.561 295.666,312.569 296.839,312.578 297.621,312.584 298.794,312.592 299.576,312.596 300.749,312.602 301.531,312.605 302.704,312.609 303.877,312.611 304.659,312.612 305.832,312.612 306.614,312.61 307.787,312.606 308.569,312.602 309.742,312.593 310.524,312.584 311.697,312.566 312.87,312.54 313.652,312.515 314.434,312.483 314.825,312.462 315.607,312.411 316.78,312.294 317.562,312.169 318.735,311.851 319.517,311.477 320.69,310.505 321.081,310.09 321.863,309.49 322.645,309.741 323.427,310.535 323.818,310.914 324.6,311.489 324.991,311.692 325.773,311.979 326.555,312.162 327.728,312.326 328.51,312.394 329.683,312.46 330.856,312.501 331.638,312.519 332.811,312.538 333.593,312.545 334.766,312.552 335.548,312.554 336.721,312.553 337.503,312.551 338.676,312.545 339.849,312.537 340.631,312.529 341.804,312.517 342.586,312.507 343.368,312.495 343.759,312.489 344.541,312.476 345.714,312.454 346.887,312.428 347.669,312.408 348.842,312.376 349.624,312.351 350.797,312.309 351.579,312.277 352.752,312.223 353.534,312.181 354.707,312.109 355.88,312.022 356.662,311.954 357.835,311.832 358.617,311.734 359.79,311.553 360.181,311.481 360.572,311.402 361.745,311.111 362.527,310.856 363.7,310.335 364.873,309.54 365.264,309.179 365.655,308.75 366.046,308.237 366.828,306.852 367.219,305.909 367.61,304.733 368.001,303.254 368.392,301.39 368.783,299.054 369.174,296.194 369.565,292.869 369.956,289.389 370.347,286.433 370.738,284.905 371.52,287.666 371.911,290.899 372.302,294.257 372.693,297.259 373.084,299.742 373.475,301.719 373.866,303.264 374.257,304.465 374.648,305.396 375.039,306.118 375.43,306.676 375.821,307.105 376.603,307.671 377.776,308.013 378.558,307.997 379.731,307.667 380.122,307.477 380.513,307.244 381.686,306.249 382.468,305.275 382.859,304.667 383.25,303.959 383.641,303.132 384.032,302.163 384.423,301.022 384.814,299.67 385.205,298.058 385.596,296.121 385.987,293.774 386.378,290.906 386.769,287.368 387.16,282.965 387.551,277.441 387.942,270.473 388.333,261.683 388.724,250.702 389.115,237.362 389.506,222.083 389.897,206.426 390.288,193.315 390.679,186.129 391.07,186.804 391.461,194.743 391.852,207.53 392.243,222.352 392.634,236.962 393.025,250.01 393.416,260.975 393.807,269.876 394.198,276.991 394.589,282.655 394.98,287.181 395.371,290.821 395.762,293.776 396.153,296.197 396.544,298.199 396.935,299.871 397.326,301.278 397.717,302.472 398.108,303.493 398.499,304.372 398.89,305.134 399.281,305.799 399.672,306.382 400.063,306.895 400.845,307.755 401.627,308.44 402.018,308.732 402.8,309.233 403.582,309.647 404.755,310.143 405.537,310.41 405.928,310.529 406.71,310.739 407.883,311.001 408.665,311.146 409.838,311.328 410.62,311.43 411.402,311.519 411.793,311.559 412.575,311.631 413.748,311.72 414.53,311.768 415.703,311.824 416.876,311.862 417.658,311.877 418.831,311.884 419.613,311.875 420.786,311.84 421.568,311.799 422.741,311.7 423.523,311.601 424.305,311.464 424.696,311.378 425.869,311.015 426.651,310.644 427.042,310.4 427.824,309.741 428.215,309.292 428.606,308.733 428.997,308.031 429.388,307.143 429.779,306.019 430.17,304.602 430.561,302.856 430.952,300.802 431.343,298.608 431.734,296.658 432.125,295.507 432.516,295.587 432.907,296.87 433.298,298.891 433.689,301.099 434.08,303.134 434.471,304.851 434.862,306.239 435.253,307.342 435.644,308.214 436.035,308.907 436.817,309.909 437.599,310.574 438.772,311.21 439.554,311.489 439.945,311.601 440.727,311.782 441.509,311.922 442.682,312.076 443.855,312.185 444.637,312.24 445.81,312.301 446.592,312.33 447.765,312.359 448.547,312.369 449.72,312.37 450.502,312.36 451.675,312.324 452.848,312.256 453.63,312.183 454.803,312.012 455.585,311.83 456.758,311.371 457.54,310.845 457.931,310.473 458.713,309.406 459.495,307.812 459.886,306.901 460.277,306.111 460.668,305.686 461.841,307.264 462.232,308.178 462.623,309.001 463.014,309.689 463.796,310.68 464.578,311.303 464.969,311.525 465.751,311.851 466.533,312.073 467.706,312.293 468.879,312.433 469.661,312.5 470.052,312.528 470.834,312.575 471.616,312.614 472.789,312.66 473.571,312.685 474.744,312.715 475.526,312.732 476.699,312.753 477.872,312.771 478.654,312.781 479.827,312.795 480.609,312.803 481.782,312.814 482,312.814 " />
</g>

<g fill="none" stroke="#000000" stroke-opacity="1" stroke-width="1" stroke-linecap="square" stroke-linejoin="bevel" transform="matrix(1,0,0,1,0,0)"
font-family="Noto Sans [MONO]" font-size="13.3333" font-weight="400" font-style="normal" 
>
</g>

<g fill="none" stroke="#000000" stroke-opacity="1" stroke-width="1" stroke-linecap="square" stroke-linejoin="bevel" transform="matrix(1,0,0,1,0,0)"
font-family="Noto Sans [MONO]" font-size="13.3333" font-weight="400" font-style="normal" 
>
</g>

<g fill="none" stroke="#000000" stroke-opacity="1" stroke-width="1" stroke-linecap="square" stroke-linejoin="bevel" transform="matrix(1,0,0,1,0,0)"
font-family="Noto Sans [MONO]" font-size="13.3333" font-weight="400" font-style="normal" 
>
</g>

<g fill="none" stroke="#008000" stroke-opacity="1" stroke-width="2" stroke-linecap="butt" stroke-linejoin="miter" stroke-miterlimit="2" transform="matrix(1,0,0,1,0,0)"
font-family="Noto Sans [MONO]" font-size="13.3333" font-weight="400" font-style="normal" 
>
<polyline fill="none" vector-effect="non-scaling-stroke" points="90,312.824 90.782,312.821 91.564,312.818 92.737,312.814 93.519,312.811 94.692,312.806 95.865,312.801 96.647,312.798 97.82,312.793 98.602,312.79 99.775,312.784 100.557,312.78 101.73,312.775 102.512,312.771 103.685,312.764 104.858,312.758 105.64,312.754 106.813,312.747 107.595,312.742 108.768,312.734 109.55,312.729 110.723,312.721 111.505,312.716 112.678,312.707 113.851,312.698 114.633,312.692 115.806,312.682 116.588,312.675 117.761,312.665 118.543,312.657 119.716,312.646 120.889,312.634 121.671,312.625 122.844,312.612 123.626,312.603 124.799,312.589 125.581,312.579 126.754,312.563 127.536,312.552 128.709,312.534 129.882,312.516 130.664,312.503 131.055,312.496 131.837,312.482 132.619,312.468 133.792,312.445 134.574,312.429 135.747,312.404 136.529,312.386 137.702,312.358 138.875,312.328 139.657,312.306 140.83,312.272 141.612,312.248 142.785,312.209 143.567,312.182 144.74,312.137 145.522,312.106 146.695,312.055 147.868,312 148.65,311.96 149.823,311.896 150.605,311.85 151.778,311.775 152.56,311.721 153.733,311.632 154.515,311.568 155.297,311.498 155.688,311.462 156.861,311.344 157.643,311.257 158.816,311.112 159.598,311.006 160.771,310.827 161.553,310.694 162.726,310.469 163.508,310.299 164.681,310.009 165.854,309.668 166.636,309.404 167.809,308.943 168.591,308.581 168.982,308.381 169.764,307.934 170.546,307.414 171.719,306.457 172.501,305.664 172.892,305.207 173.674,304.145 174.456,302.828 174.847,302.047 175.238,301.164 175.629,300.161 176.02,299.013 176.411,297.691 176.802,296.156 177.193,294.36 177.584,292.24 177.975,289.714 178.366,286.673 178.757,282.975 179.148,278.433 179.539,272.8 179.93,265.765 180.321,256.963 180.712,246.028 181.103,232.773 181.494,217.556 181.885,201.839 182.276,188.481 182.667,180.933 183.449,188.717 183.84,200.525 184.231,213.51 184.622,225.389 185.013,235.025 185.404,242.121 185.795,246.786 186.186,249.243 186.577,249.675 186.968,248.162 187.359,244.661 187.75,238.992 188.141,230.825 188.532,219.683 188.923,204.968 189.314,186.092 189.705,162.812 190.096,135.889 190.487,107.91 190.878,83.4278 191.269,67.316 191.66,62.1099 192.051,67.0159 192.442,79.2912 192.833,96.0435 193.224,115.093 193.615,135.039 194.006,155.021 194.397,174.476 194.788,192.946 195.179,209.992 195.57,225.208 195.961,238.334 196.352,249.336 196.743,258.387 197.134,265.772 197.525,271.795 197.916,276.729 198.307,280.797 198.698,284.178 199.089,287.007 199.48,289.391 199.871,291.41 200.262,293.127 200.653,294.591 201.044,295.839 201.435,296.9 201.826,297.795 202.217,298.54 202.608,299.146 202.999,299.618 203.781,300.159 204.563,300.1 205.345,299.252 205.736,298.426 206.127,297.244 206.518,295.627 206.909,293.504 207.3,290.861 207.691,287.847 208.082,284.911 208.473,282.844 208.864,282.454 209.255,283.992 209.646,286.927 210.037,290.398 210.428,293.74 210.819,296.637 211.21,299.023 211.601,300.946 211.992,302.488 212.383,303.728 212.774,304.736 213.165,305.562 213.556,306.247 213.947,306.822 214.729,307.728 215.511,308.406 215.902,308.684 216.684,309.15 217.466,309.525 217.857,309.687 218.639,309.969 219.812,310.313 220.594,310.503 221.767,310.743 222.549,310.879 223.722,311.056 224.504,311.158 225.677,311.291 226.85,311.406 227.632,311.473 228.023,311.504 228.805,311.561 229.587,311.613 230.76,311.68 231.542,311.718 232.715,311.766 233.888,311.803 234.67,311.821 235.843,311.837 236.625,311.839 237.798,311.827 238.58,311.805 239.753,311.748 240.535,311.686 241.708,311.541 242.099,311.473 242.881,311.294 243.663,311.037 244.836,310.399 245.618,309.677 246.009,309.17 246.791,307.712 247.182,306.687 247.573,305.434 247.964,303.99 248.355,302.512 248.746,301.32 249.528,301.193 249.919,302.312 250.31,303.783 250.701,305.261 251.092,306.565 251.483,307.641 251.874,308.503 252.656,309.728 253.438,310.507 253.829,310.789 254.611,311.213 255.393,311.509 255.784,311.624 256.566,311.81 257.739,312.009 258.521,312.106 259.694,312.219 260.867,312.303 261.649,312.348 262.822,312.405 263.604,312.436 264.777,312.476 265.559,312.499 265.95,312.51 266.732,312.53 267.514,312.547 268.687,312.571 269.86,312.592 270.642,312.604 271.815,312.622 272.597,312.632 273.77,312.646 274.552,312.655 275.725,312.668 276.507,312.675 277.68,312.686 278.853,312.696 279.635,312.702 280.808,312.71 281.59,312.716 282.763,312.723 283.545,312.728 284.718,312.735 285.5,312.739 286.673,312.745 287.846,312.751 288.628,312.754 289.801,312.759 290.583,312.762 291.756,312.767 292.538,312.769 293.711,312.773 294.884,312.777 295.666,312.779 296.839,312.782 297.621,312.783 298.794,312.786 299.576,312.787 300.749,312.788 301.531,312.789 302.704,312.79 303.877,312.79 304.659,312.79 305.832,312.789 306.614,312.788 307.787,312.785 308.569,312.782 309.742,312.776 310.524,312.77 311.697,312.758 312.87,312.741 313.652,312.725 314.825,312.689 315.607,312.652 316.78,312.565 317.562,312.467 318.735,312.205 319.517,311.901 320.69,311.33 321.863,311.407 322.254,311.598 322.645,311.798 323.818,312.255 324.6,312.43 325.382,312.541 325.773,312.58 326.555,312.639 327.728,312.694 328.51,312.718 329.683,312.742 330.856,312.758 331.638,312.765 332.811,312.772 333.593,312.775 334.766,312.777 335.548,312.778 336.721,312.777 337.503,312.775 338.676,312.772 339.849,312.766 340.631,312.762 341.804,312.753 342.586,312.746 343.759,312.734 344.541,312.724 345.714,312.706 346.887,312.684 347.669,312.666 348.842,312.634 349.624,312.608 350.797,312.559 351.579,312.518 351.97,312.494 352.752,312.439 353.534,312.371 354.707,312.235 355.88,312.036 356.662,311.847 357.835,311.424 358.617,310.988 359.399,310.338 359.79,309.893 360.181,309.334 360.572,308.629 360.963,307.737 361.354,306.615 361.745,305.235 362.136,303.622 362.527,301.921 362.918,300.46 363.7,299.911 364.091,301.036 364.482,302.653 364.873,304.343 365.264,305.862 365.655,307.127 366.046,308.143 366.437,308.947 366.828,309.584 367.61,310.493 368.001,310.819 368.783,311.304 369.565,311.639 370.738,311.972 371.52,312.123 372.693,312.286 373.866,312.399 374.648,312.456 375.43,312.501 375.821,312.521 376.603,312.555 377.776,312.596 378.558,312.617 379.731,312.643 380.513,312.656 381.686,312.673 382.859,312.685 383.641,312.692 384.814,312.699 385.596,312.703 386.769,312.706 387.551,312.707 388.724,312.707 389.506,312.706 390.679,312.703 391.852,312.698 392.634,312.694 393.807,312.687 394.589,312.681 395.762,312.67 396.544,312.661 397.717,312.647 398.89,312.629 399.672,312.616 400.845,312.593 401.627,312.575 402.8,312.545 403.582,312.521 404.364,312.494 404.755,312.48 405.537,312.447 406.71,312.39 407.883,312.319 408.665,312.262 409.838,312.156 410.62,312.069 411.793,311.903 412.575,311.759 413.748,311.472 414.53,311.211 415.703,310.652 416.094,310.4 416.876,309.747 417.267,309.319 417.658,308.8 418.049,308.163 418.44,307.373 418.831,306.386 419.222,305.142 419.613,303.57 420.004,301.593 420.395,299.154 420.786,296.282 421.177,293.205 421.568,290.469 421.959,288.87 422.741,290.848 423.132,293.666 423.523,296.701 423.914,299.468 424.305,301.785 424.696,303.646 425.087,305.112 425.478,306.26 425.869,307.16 426.26,307.865 426.651,308.417 427.042,308.847 427.824,309.425 428.215,309.597 428.606,309.7 429.779,309.628 430.561,309.399 431.734,309.61 432.516,310.086 433.689,310.586 434.862,310.762 435.644,310.755 436.817,310.604 437.599,310.409 438.772,309.947 439.554,309.487 440.727,308.445 441.509,307.382 442.291,305.834 442.682,304.793 443.073,303.503 443.464,301.893 443.855,299.866 444.246,297.304 444.637,294.066 445.028,290.023 445.419,285.137 445.81,279.623 446.201,274.186 446.592,270.099 446.983,268.742 447.374,270.65 447.765,275.062 448.156,280.561 448.547,285.973 448.938,290.697 449.329,294.576 449.72,297.671 450.111,300.116 450.502,302.048 450.893,303.581 451.284,304.806 451.675,305.794 452.066,306.596 452.848,307.795 453.63,308.616 454.803,309.404 455.194,309.583 455.585,309.73 456.758,310.014 457.54,310.095 458.713,310.072 459.886,309.875 460.668,309.629 461.059,309.464 461.841,309.03 462.623,308.416 463.796,306.978 464.187,306.295 464.578,305.466 464.969,304.453 465.36,303.206 465.751,301.656 466.142,299.714 466.533,297.265 466.924,294.162 467.315,290.24 467.706,285.355 468.097,279.482 468.488,272.931 468.879,266.61 469.27,262.069 469.661,260.862 470.052,263.457 470.443,268.857 470.834,275.407 471.225,281.784 471.616,287.329 472.007,291.879 472.398,295.514 472.789,298.393 473.18,300.674 473.571,302.494 473.962,303.957 474.353,305.145 474.744,306.119 475.135,306.925 475.526,307.599 476.308,308.65 476.699,309.063 477.481,309.728 477.872,309.998 478.654,310.444 479.045,310.629 479.827,310.943 480.609,311.195 481.782,311.492 482,311.492 " />
</g>

<g fill="none" stroke="#000000" stroke-opacity="1" stroke-width="1" stroke-linecap="square" stroke-linejoin="bevel" transform="matrix(1,0,0,1,0,0)"
font-family="Noto Sans [MONO]" font-size="13.3333" font-weight="400" font-style="normal" 
>
</g>

<g fill="none" stroke="#000000" stroke-opacity="1" stroke-width="1" stroke-linecap="square" stroke-linejoin="bevel" transform="matrix(1,0,0,1,0,0)"
font-family="Noto Sans [MONO]" font-size="13.3333" font-weight="400" font-style="normal" 
>
</g>

<g fill="none" stroke="#000000" stroke-opacity="1" stroke-width="1" stroke-linecap="square" stroke-linejoin="bevel" transform="matrix(1,0,0,1,0,0)"
font-family="Noto Sans [MONO]" font-size="13.3333" font-weight="400" font-style="normal" 
>
</g>

<g fill="none" stroke="#0000ff" stroke-opacity="1" stroke-width="2" stroke-linecap="butt" stroke-linejoin="miter" stroke-miterlimit="2" transform="matrix(1,0,0,1,0,0)"
font-family="Noto Sans [MONO]" font-size="13.3333" font-weight="400" font-style="normal" 
>
<polyline fill="none" vector-effect="non-scaling-stroke" points="90,312.887 90.782,312.885 91.564,312.884 92.737,312.882 93.519,312.88 94.692,312.877 95.865,312.875 96.647,312.873 97.82,312.87 98.602,312.868 99.775,312.865 100.557,312.863 101.73,312.86 102.512,312.858 103.685,312.854 104.858,312.851 105.64,312.849 106.813,312.845 107.595,312.842 108.768,312.838 109.55,312.835 110.723,312.831 111.505,312.828 112.678,312.823 113.851,312.819 114.633,312.815 115.806,312.81 116.588,312.806 117.761,312.801 118.543,312.797 119.716,312.791 120.889,312.784 121.671,312.78 122.844,312.772 123.626,312.768 124.799,312.76 125.581,312.754 126.754,312.746 127.536,312.74 128.709,312.731 129.882,312.721 130.664,312.714 131.837,312.703 132.619,312.695 133.792,312.683 134.574,312.674 135.747,312.66 136.529,312.651 137.702,312.635 138.875,312.619 139.657,312.607 140.83,312.588 141.612,312.575 142.785,312.554 143.567,312.538 144.74,312.514 145.522,312.496 146.695,312.468 147.868,312.437 148.65,312.414 149.823,312.377 150.605,312.351 151.778,312.307 152.56,312.276 153.733,312.223 154.515,312.185 155.688,312.122 156.861,312.05 157.643,311.996 158.816,311.907 159.598,311.839 160.771,311.726 161.553,311.639 162.726,311.491 163.508,311.378 164.681,311.181 165.854,310.943 166.636,310.756 167.809,310.421 168.591,310.152 169.764,309.659 170.155,309.465 170.546,309.253 171.719,308.483 172.501,307.827 172.892,307.443 173.674,306.532 174.065,305.988 174.456,305.373 174.847,304.673 175.238,303.872 175.629,302.949 176.02,301.88 176.411,300.633 176.802,299.167 177.193,297.431 177.584,295.358 177.975,292.858 178.366,289.817 178.757,286.08 179.148,281.445 179.539,275.647 179.93,268.347 180.321,259.143 180.712,247.623 181.103,233.545 181.494,217.217 181.885,200.073 182.276,185.027 182.667,175.731 183.058,174.642 183.449,181.602 183.84,194.342 184.231,209.94 184.622,225.887 185.013,240.521 185.404,253.049 185.795,263.332 186.186,271.592 186.577,278.175 186.968,283.427 187.359,287.642 187.75,291.051 188.141,293.835 188.532,296.128 188.923,298.035 189.314,299.633 189.705,300.985 190.096,302.135 190.487,303.122 190.878,303.973 191.269,304.711 191.66,305.354 192.051,305.918 192.833,306.851 193.615,307.581 194.788,308.399 195.179,308.615 195.57,308.806 196.743,309.257 197.525,309.469 197.916,309.552 198.698,309.672 199.871,309.737 200.653,309.696 201.826,309.471 202.608,309.172 203.781,308.36 204.563,307.419 205.345,305.922 205.736,304.857 206.127,303.5 206.518,301.775 206.909,299.619 207.3,297.022 207.691,294.126 208.082,291.349 208.473,289.407 208.864,289.009 209.255,290.328 209.646,292.85 210.037,295.803 210.428,298.615 210.819,301.028 211.21,302.994 211.601,304.562 211.992,305.803 212.383,306.788 212.774,307.575 213.556,308.726 214.338,309.503 214.729,309.798 215.511,310.26 216.293,310.598 216.684,310.735 217.857,311.049 218.639,311.202 219.812,311.374 220.594,311.46 221.376,311.529 221.767,311.559 222.549,311.608 223.722,311.663 224.504,311.689 225.677,311.715 226.85,311.728 227.632,311.729 228.805,311.722 229.587,311.71 230.76,311.684 231.542,311.659 232.715,311.611 233.888,311.549 234.67,311.497 235.843,311.401 236.625,311.321 237.798,311.169 238.58,311.039 239.753,310.776 240.535,310.53 240.926,310.376 241.708,309.976 242.49,309.391 242.881,308.993 243.272,308.498 243.663,307.885 244.054,307.138 244.445,306.267 244.836,305.34 245.618,304.036 246.4,304.541 246.791,305.288 247.182,306.078 247.573,306.781 248.355,307.787 248.746,308.108 249.528,308.49 249.919,308.584 250.701,308.639 251.874,308.481 252.656,308.253 253.829,307.749 254.611,307.301 255.784,306.432 256.566,305.694 256.957,305.266 257.739,304.269 258.521,303.04 258.912,302.317 259.694,300.595 260.085,299.566 260.476,298.399 260.867,297.068 261.258,295.544 261.649,293.787 262.04,291.749 262.431,289.37 262.822,286.571 263.213,283.252 263.604,279.283 263.995,274.494 264.386,268.66 264.777,261.486 265.168,252.582 265.559,241.445 265.95,227.455 266.341,209.915 266.732,188.231 267.123,162.337 267.514,133.466 267.905,104.916 268.296,81.7399 268.687,68.519 269.078,66.8235 269.469,74.9899 269.86,89.9227 270.251,108.743 270.642,129.386 271.033,150.519 271.424,171.27 271.815,190.984 272.206,209.098 272.597,225.152 272.988,238.891 273.379,250.327 273.77,259.686 274.161,267.295 274.552,273.486 274.943,278.552 275.334,282.729 275.725,286.203 276.116,289.118 276.507,291.585 276.898,293.689 277.289,295.497 277.68,297.063 278.071,298.426 278.462,299.621 278.853,300.673 279.244,301.605 279.635,302.435 280.026,303.175 280.417,303.84 280.808,304.439 281.199,304.98 281.59,305.47 281.981,305.916 282.763,306.696 283.545,307.351 283.936,307.64 284.718,308.154 285.5,308.595 286.673,309.15 287.846,309.603 288.628,309.861 289.801,310.193 290.583,310.385 291.365,310.557 291.756,310.636 292.538,310.782 293.711,310.976 294.884,311.144 295.666,311.243 296.839,311.377 297.621,311.456 298.403,311.529 298.794,311.564 299.576,311.628 300.749,311.715 301.531,311.768 302.704,311.84 303.877,311.903 304.659,311.942 305.832,311.993 306.614,312.024 307.787,312.066 308.569,312.09 309.742,312.122 310.524,312.139 311.697,312.159 312.87,312.169 313.652,312.169 314.825,312.155 315.607,312.131 316.78,312.057 317.562,311.966 318.735,311.703 319.517,311.388 320.69,310.762 321.863,310.73 322.645,311.117 323.427,311.525 323.818,311.69 324.6,311.935 325.773,312.149 326.555,312.235 327.728,312.317 328.51,312.354 329.683,312.394 330.856,312.421 331.638,312.435 332.811,312.45 333.593,312.458 334.766,312.467 335.548,312.47 336.721,312.474 337.503,312.475 338.676,312.474 339.849,312.47 340.631,312.467 341.804,312.459 342.586,312.452 343.759,312.439 344.541,312.428 345.714,312.409 346.887,312.384 347.669,312.364 348.842,312.328 349.624,312.299 350.797,312.246 351.579,312.201 352.752,312.117 353.534,312.046 354.707,311.904 355.88,311.701 356.662,311.512 357.053,311.394 357.835,311.093 358.617,310.666 359.008,310.382 359.79,309.604 360.181,309.065 360.572,308.387 361.354,306.455 361.745,305.134 362.136,303.592 362.527,301.967 362.918,300.572 363.309,299.833 363.7,300.041 364.091,301.104 364.482,302.628 364.873,304.22 365.264,305.648 365.655,306.833 366.046,307.782 366.437,308.529 366.828,309.116 367.219,309.578 367.61,309.944 368.783,310.656 369.565,310.93 370.738,311.171 371.52,311.258 372.693,311.315 373.866,311.306 374.648,311.271 375.821,311.176 376.603,311.085 377.776,310.903 378.558,310.748 379.731,310.452 380.513,310.203 381.686,309.728 382.468,309.323 382.859,309.088 383.641,308.532 384.032,308.204 384.814,307.418 385.596,306.408 386.378,305.084 386.769,304.264 387.16,303.307 387.551,302.184 387.942,300.856 388.333,299.272 388.724,297.366 389.115,295.051 389.506,292.214 389.897,288.702 390.288,284.316 390.679,278.798 391.07,271.832 391.461,263.071 391.852,252.241 392.243,239.393 392.634,225.349 393.025,212.159 393.416,202.895 393.807,200.247 394.198,204.841 394.589,215.02 394.98,228.069 395.371,241.522 395.762,253.793 396.153,264.198 396.544,272.671 396.935,279.442 397.326,284.823 397.717,289.109 398.108,292.547 398.499,295.328 398.89,297.599 399.281,299.471 399.672,301.028 400.063,302.335 400.454,303.442 400.845,304.385 401.236,305.195 401.627,305.896 402.018,306.505 402.8,307.507 403.582,308.289 403.973,308.617 404.755,309.173 405.537,309.625 406.71,310.157 407.883,310.563 408.665,310.781 409.838,311.048 410.62,311.195 411.793,311.377 412.575,311.477 412.966,311.521 413.748,311.601 414.53,311.668 415.703,311.749 416.876,311.809 417.658,311.837 418.831,311.862 419.613,311.866 420.786,311.851 421.568,311.825 422.741,311.755 423.523,311.68 424.696,311.51 425.087,311.433 425.869,311.233 426.651,310.951 427.824,310.278 428.606,309.544 428.997,309.043 429.388,308.422 429.779,307.658 430.17,306.734 430.561,305.645 430.952,304.399 431.343,302.986 431.734,301.377 432.125,299.584 432.516,297.788 432.907,296.409 433.689,296.717 434.08,298.404 434.471,300.504 434.862,302.568 435.253,304.369 435.644,305.849 436.035,307.032 436.426,307.97 436.817,308.714 437.599,309.784 438.772,310.753 439.554,311.158 440.727,311.566 441.509,311.754 442.682,311.956 443.855,312.096 444.637,312.165 445.81,312.242 446.592,312.279 447.765,312.317 448.547,312.331 449.72,312.337 450.502,312.329 451.675,312.298 452.848,312.234 453.63,312.166 454.803,312.004 455.585,311.835 456.758,311.416 457.54,310.944 458.322,310.194 458.713,309.662 459.104,308.993 459.495,308.17 459.886,307.209 460.277,306.201 460.668,305.345 461.841,305.767 462.232,306.74 462.623,307.749 463.014,308.651 463.796,310.004 464.578,310.859 465.751,311.597 466.533,311.89 467.706,312.172 468.879,312.348 469.661,312.431 470.834,312.524 471.616,312.571 472.789,312.625 473.571,312.654 474.744,312.69 475.526,312.71 476.699,312.735 477.872,312.755 478.654,312.767 479.827,312.782 480.609,312.791 481.782,312.803 482,312.803 " />
</g>

<g fill="none" stroke="#000000" stroke-opacity="1" stroke-width="1" stroke-linecap="square" stroke-linejoin="bevel" transform="matrix(1,0,0,1,0,0)"
font-family="Noto Sans [MONO]" font-size="13.3333" font-weight="400" font-style="normal" 
>
</g>

<g fill="none" stroke="#000000" stroke-opacity="1" stroke-width="1" stroke-linecap="square" stroke-linejoin="bevel" transform="matrix(1,0,0,1,0,0)"
font-family="Noto Sans [MONO]" font-size="13.3333" font-weight="400" font-style="normal" 
>
</g>

<g fill="none" stroke="#000000" stroke-opacity="1" stroke-width="1" stroke-linecap="square" stroke-linejoin="bevel" transform="matrix(1,0,0,1,0,0)"
font-family="Noto Sans [MONO]" font-size="13.3333" font-weight="400" font-style="normal" 
>
</g>

<g fill="none" stroke="#ff00ff" stroke-opacity="1" stroke-width="2" stroke-linecap="butt" stroke-linejoin="miter" stroke-miterlimit="2" transform="matrix(1,0,0,1,0,0)"
font-family="Noto Sans [MONO]" font-size="13.3333" font-weight="400" font-style="normal" 
>
<polyline fill="none" vector-effect="non-scaling-stroke" points="90,312.887 90.782,312.886 91.564,312.884 92.737,312.882 93.519,312.881 94.692,312.878 95.865,312.876 96.647,312.875 97.82,312.872 98.602,312.871 99.775,312.868 100.557,312.866 101.73,312.864 102.512,312.862 103.685,312.859 104.858,312.856 105.64,312.854 106.813,312.851 107.595,312.849 108.768,312.846 109.55,312.843 110.723,312.84 111.505,312.838 112.678,312.834 113.851,312.83 114.633,312.828 115.806,312.824 116.588,312.821 117.761,312.817 118.543,312.814 119.716,312.809 120.889,312.805 121.671,312.801 122.844,312.796 123.626,312.793 124.799,312.788 125.581,312.784 126.754,312.778 127.536,312.774 128.709,312.768 129.882,312.762 130.664,312.758 131.837,312.751 132.619,312.746 133.792,312.739 134.574,312.734 135.747,312.726 136.529,312.72 137.702,312.712 138.875,312.703 139.657,312.697 140.83,312.687 141.612,312.68 142.785,312.67 143.567,312.662 144.74,312.651 145.522,312.643 146.695,312.63 147.868,312.617 148.65,312.608 149.823,312.593 150.605,312.583 151.778,312.567 152.56,312.556 153.733,312.538 154.515,312.526 155.688,312.506 156.079,312.499 156.861,312.485 157.643,312.47 158.816,312.447 159.598,312.43 160.771,312.403 161.553,312.385 162.726,312.355 163.508,312.333 164.681,312.299 165.854,312.262 166.636,312.235 167.809,312.193 168.591,312.162 169.764,312.112 170.546,312.076 171.719,312.017 172.501,311.974 173.674,311.904 174.847,311.826 175.629,311.768 176.802,311.672 177.584,311.601 178.757,311.481 179.539,311.391 180.712,311.238 181.885,311.058 182.667,310.919 183.84,310.675 184.622,310.483 185.795,310.136 186.577,309.855 187.75,309.331 188.532,308.888 189.314,308.341 189.705,308.018 190.487,307.241 190.878,306.77 191.269,306.23 191.66,305.604 192.051,304.875 192.442,304.017 192.833,303 193.224,301.782 193.615,300.308 194.006,298.506 194.397,296.282 194.788,293.509 195.179,290.026 195.57,285.64 195.961,280.143 196.352,273.397 196.743,265.509 197.134,257.141 197.525,249.788 197.916,245.517 198.698,250.548 199.089,257.935 199.48,266.017 199.871,273.472 200.262,279.753 200.653,284.802 201.044,288.771 201.435,291.86 201.826,294.259 202.217,296.119 202.608,297.56 202.999,298.67 203.39,299.515 203.781,300.147 204.172,300.601 204.563,300.904 205.736,301.082 206.518,300.677 206.909,300.324 207.691,299.3 208.473,297.79 208.864,296.815 209.255,295.663 209.646,294.303 210.037,292.695 210.428,290.788 210.819,288.514 211.21,285.786 211.601,282.486 211.992,278.463 212.383,273.516 212.774,267.386 213.165,259.75 213.556,250.239 213.947,238.52 214.338,224.506 214.729,208.776 215.12,193.082 215.511,180.386 215.902,173.614 216.684,178.648 217.075,185.238 217.466,190.332 217.857,191.884 218.248,188.793 218.639,180.528 219.03,166.99 219.421,148.79 219.812,127.901 220.203,108.068 220.594,93.912 220.985,88.6657 221.376,92.6158 221.767,103.776 222.158,119.551 222.549,137.788 222.94,156.995 223.331,176.18 223.722,194.617 224.113,211.704 224.504,226.956 224.895,240.084 225.286,251.059 225.677,260.067 226.068,267.408 226.459,273.391 226.85,278.294 227.241,282.343 227.632,285.716 228.023,288.551 228.414,290.954 228.805,293.007 229.196,294.774 229.587,296.306 229.978,297.642 230.369,298.814 230.76,299.847 231.151,300.761 231.542,301.575 232.324,302.953 232.715,303.537 233.497,304.539 233.888,304.969 234.67,305.71 235.843,306.579 236.625,307.025 237.798,307.525 238.58,307.754 239.753,307.938 240.535,307.941 241.708,307.713 242.49,307.342 242.881,307.064 243.663,306.245 244.445,304.902 244.836,303.936 245.227,302.696 245.618,301.106 246.009,299.079 246.4,296.546 246.791,293.513 247.182,290.18 247.573,287.08 247.964,285.064 248.746,286.667 249.137,289.71 249.528,293.148 249.919,296.37 250.31,299.115 250.701,301.348 251.092,303.129 251.483,304.544 251.874,305.672 252.265,306.578 252.656,307.313 253.047,307.915 253.829,308.832 254.611,309.487 255.002,309.746 255.784,310.168 256.566,310.495 256.957,310.631 257.739,310.864 258.521,311.055 259.694,311.284 260.867,311.464 261.258,311.516 261.649,311.564 262.822,311.691 263.604,311.764 264.777,311.859 265.559,311.915 266.732,311.99 267.514,312.034 268.687,312.093 269.86,312.146 270.642,312.178 271.815,312.222 272.597,312.249 273.77,312.286 274.552,312.309 275.725,312.34 276.507,312.36 277.68,312.387 278.853,312.412 279.635,312.428 280.808,312.45 281.59,312.464 282.763,312.483 283.545,312.495 283.936,312.501 284.718,312.512 285.5,312.523 286.673,312.538 287.846,312.552 288.628,312.56 289.801,312.573 290.583,312.581 291.756,312.592 292.538,312.598 293.711,312.608 294.884,312.617 295.666,312.622 296.839,312.63 297.621,312.635 298.794,312.641 299.576,312.645 300.749,312.651 301.531,312.654 302.704,312.658 303.877,312.661 304.659,312.662 305.832,312.663 306.614,312.663 307.787,312.662 308.569,312.66 309.742,312.655 310.524,312.65 311.697,312.638 312.87,312.62 313.652,312.602 314.825,312.563 315.607,312.523 315.998,312.497 316.78,312.427 317.562,312.322 318.735,312.041 319.517,311.71 319.908,311.488 320.69,310.995 321.863,310.858 322.645,311.308 323.036,311.55 323.818,311.935 324.6,312.184 325.773,312.397 326.555,312.478 326.946,312.509 327.728,312.555 328.51,312.588 329.683,312.621 330.856,312.642 331.638,312.652 332.811,312.661 333.593,312.666 334.766,312.669 335.548,312.67 336.721,312.669 337.503,312.668 338.676,312.664 339.849,312.658 340.631,312.653 341.804,312.644 342.586,312.636 343.759,312.623 344.541,312.613 345.714,312.595 346.887,312.573 347.669,312.556 348.842,312.525 349.624,312.501 350.015,312.487 350.797,312.457 351.579,312.422 352.752,312.358 353.534,312.304 354.707,312.203 355.88,312.064 356.662,311.942 357.835,311.69 358.617,311.453 359.79,310.922 360.572,310.376 361.745,309.009 362.136,308.312 362.527,307.432 362.918,306.32 363.309,304.924 363.7,303.212 364.091,301.22 364.482,299.139 364.873,297.385 365.655,296.856 366.046,298.284 366.437,300.277 366.828,302.335 367.219,304.172 367.61,305.697 368.001,306.918 368.392,307.885 368.783,308.648 369.565,309.736 370.738,310.701 371.52,311.094 372.693,311.478 373.084,311.57 373.866,311.716 374.648,311.823 375.821,311.934 376.603,311.984 377.776,312.032 378.558,312.05 379.731,312.06 380.513,312.057 381.686,312.039 382.859,312.006 383.641,311.975 384.814,311.917 385.596,311.868 386.769,311.78 387.551,311.709 388.724,311.581 389.506,311.478 390.679,311.294 391.852,311.062 392.634,310.873 393.807,310.523 394.198,310.384 394.589,310.232 395.762,309.678 396.153,309.452 396.544,309.201 397.717,308.253 398.499,307.4 398.89,306.883 399.281,306.288 399.672,305.602 400.063,304.804 400.454,303.87 400.845,302.769 401.236,301.46 401.627,299.89 402.018,297.99 402.409,295.669 402.8,292.806 403.191,289.24 403.582,284.764 403.973,279.115 404.364,271.989 404.755,263.102 405.146,252.355 405.537,240.173 405.928,227.968 406.319,218.277 406.71,213.897 407.101,216.189 407.492,224.213 407.883,235.53 408.274,247.638 408.665,258.849 409.056,268.406 409.447,276.197 409.838,282.417 410.229,287.352 410.62,291.274 411.011,294.412 411.402,296.944 411.793,299.006 412.184,300.701 412.575,302.107 412.966,303.284 413.357,304.276 413.748,305.119 414.139,305.841 414.53,306.462 414.921,306.999 415.703,307.876 416.485,308.551 416.876,308.83 417.658,309.296 418.44,309.663 418.831,309.817 419.613,310.073 420.786,310.351 421.568,310.477 421.959,310.524 422.741,310.586 423.523,310.607 424.696,310.552 425.478,310.447 425.869,310.369 426.651,310.15 427.824,309.596 428.215,309.324 428.606,308.99 429.388,308.08 429.779,307.472 430.561,305.913 430.952,305 431.343,304.039 431.734,303.009 432.125,301.81 432.516,300.287 432.907,298.291 433.298,295.713 433.689,292.553 434.08,289.032 434.471,285.734 434.862,283.591 435.253,283.44 435.644,285.38 436.035,288.695 436.426,292.433 436.817,295.93 437.208,298.905 437.599,301.321 437.99,303.243 438.381,304.765 438.772,305.974 439.163,306.94 439.554,307.72 440.336,308.878 440.727,309.312 441.118,309.676 441.509,309.983 442.682,310.661 443.855,311.102 444.637,311.313 445.81,311.546 446.592,311.66 447.765,311.785 448.547,311.844 449.72,311.899 450.502,311.915 451.675,311.908 452.848,311.856 453.63,311.789 454.803,311.622 455.585,311.445 456.758,311.016 457.54,310.549 457.931,310.23 458.713,309.33 459.495,307.888 459.886,306.869 460.277,305.604 460.668,304.097 461.059,302.454 461.45,300.943 461.841,299.989 462.623,300.861 463.014,302.357 463.405,304.015 463.796,305.551 464.187,306.849 464.578,307.9 464.969,308.735 465.751,309.921 466.533,310.681 467.706,311.376 468.097,311.535 468.879,311.785 469.661,311.971 470.834,312.17 471.616,312.268 472.789,312.38 473.571,312.438 474.744,312.508 475.526,312.545 476.699,312.593 477.872,312.631 478.654,312.652 479.827,312.681 480.609,312.697 481.782,312.718 482,312.718 " />
</g>

<g fill="none" stroke="#000000" stroke-opacity="1" stroke-width="1" stroke-linecap="square" stroke-linejoin="bevel" transform="matrix(1,0,0,1,0,0)"
font-family="Noto Sans [MONO]" font-size="13.3333" font-weight="400" font-style="normal" 
>
</g>

<g fill="none" stroke="#000000" stroke-opacity="1" stroke-width="1" stroke-linecap="square" stroke-linejoin="bevel" transform="matrix(1,0,0,1,0,0)"
font-family="Noto Sans [MONO]" font-size="13.3333" font-weight="400" font-style="normal" 
>
</g>

<g fill="none" stroke="#000000" stroke-opacity="1" stroke-width="1" stroke-linecap="square" stroke-linejoin="bevel" transform="matrix(1,0,0,1,0,0)"
font-family="Noto Sans [MONO]" font-size="13.3333" font-weight="400" font-style="normal" 
>
</g>

<g fill="none" stroke="#000000" stroke-opacity="1" stroke-width="1" stroke-linecap="square" stroke-linejoin="miter" stroke-miterlimit="2" transform="matrix(1,0,0,1,0,0)"
font-family="Noto Sans [MONO]" font-size="13.3333" font-weight="400" font-style="normal" 
>
<path vector-effect="none" fill-rule="evenodd" d="M89,15 L482,15 L482,314 L89,314 L89,15"/>
</g>

<g fill="none" stroke="#000000" stroke-opacity="1" stroke-width="1" stroke-linecap="square" stroke-linejoin="bevel" transform="matrix(1,0,0,1,0,0)"
font-family="Noto Sans [MONO]" font-size="13.3333" font-weight="400" font-style="normal" 
>
</g>

<g fill="none" stroke="#212121" stroke-opacity="1" stroke-width="1" stroke-linecap="square" stroke-linejoin="bevel" transform="matrix(0,-1,1,0,5,324)"
font-family="Noto Sans UI" font-size="16" font-weight="400" font-style="italic" 
>
</g>

<g fill="none" stroke="#000000" stroke-opacity="1" stroke-width="1" stroke-linecap="square" stroke-linejoin="bevel" transform="matrix(0,-1,1,0,5,324)"
font-family="Noto Sans UI" font-size="18.6667" font-weight="700" font-style="normal" 
>
<text fill="#000000" fill-opacity="1" stroke="none" xml:space="preserve" x="23" y="20" font-family="Noto Sans UI" font-size="18.6667" font-weight="700" font-style="normal" 
 >Molar absorption (L/mol/cm)</text>
</g>

<g fill="none" stroke="#212121" stroke-opacity="1" stroke-width="1" stroke-linecap="square" stroke-linejoin="bevel" transform="matrix(0,-1,1,0,5,324)"
font-family="Noto Sans UI" font-size="16" font-weight="400" font-style="italic" 
>
</g>

<g fill="none" stroke="#000000" stroke-opacity="1" stroke-width="1" stroke-linecap="square" stroke-linejoin="bevel" transform="matrix(1,0,0,1,0,0)"
font-family="Noto Sans [MONO]" font-size="13.3333" font-weight="400" font-style="normal" 
>
</g>

<g fill="none" stroke="#000000" stroke-opacity="1" stroke-width="1" stroke-linecap="square" stroke-linejoin="bevel" transform="matrix(1,0,0,1,0,0)"
font-family="Noto Sans UI" font-size="16" font-weight="400" font-style="italic" 
>
</g>

<g fill="none" stroke="#000000" stroke-opacity="1" stroke-width="1" stroke-linecap="square" stroke-linejoin="bevel" transform="matrix(1,0,0,1,0,0)"
font-family="Noto Sans UI" font-size="16" font-weight="400" font-style="italic" 
>
</g>

<g fill="none" stroke="#212121" stroke-opacity="1" stroke-width="1" stroke-linecap="square" stroke-linejoin="bevel" transform="matrix(1,0,0,1,0,0)"
font-family="Noto Sans UI" font-size="16" font-weight="400" font-style="italic" 
>
</g>

<g fill="none" stroke="#212121" stroke-opacity="1" stroke-width="1" stroke-linecap="square" stroke-linejoin="bevel" transform="matrix(1,0,0,1,74,301)"
font-family="Noto Sans UI" font-size="16" font-weight="400" font-style="italic" 
>
<text fill="#212121" fill-opacity="1" stroke="none" xml:space="preserve" x="0" y="18" font-family="Noto Sans UI" font-size="16" font-weight="400" font-style="italic" 
 >0</text>
</g>

<g fill="none" stroke="#212121" stroke-opacity="1" stroke-width="1" stroke-linecap="square" stroke-linejoin="bevel" transform="matrix(1,0,0,1,74,301)"
font-family="Noto Sans UI" font-size="16" font-weight="400" font-style="italic" 
>
</g>

<g fill="none" stroke="#212121" stroke-opacity="1" stroke-width="1" stroke-linecap="square" stroke-linejoin="bevel" transform="matrix(1,0,0,1,0,0)"
font-family="Noto Sans UI" font-size="16" font-weight="400" font-style="italic" 
>
</g>

<g fill="none" stroke="#212121" stroke-opacity="1" stroke-width="1" stroke-linecap="square" stroke-linejoin="bevel" transform="matrix(1,0,0,1,43,264)"
font-family="Noto Sans UI" font-size="16" font-weight="400" font-style="italic" 
>
<text fill="#212121" fill-opacity="1" stroke="none" xml:space="preserve" x="0" y="18" font-family="Noto Sans UI" font-size="16" font-weight="400" font-style="italic" 
 >5,000</text>
</g>

<g fill="none" stroke="#212121" stroke-opacity="1" stroke-width="1" stroke-linecap="square" stroke-linejoin="bevel" transform="matrix(1,0,0,1,43,264)"
font-family="Noto Sans UI" font-size="16" font-weight="400" font-style="italic" 
>
</g>

<g fill="none" stroke="#212121" stroke-opacity="1" stroke-width="1" stroke-linecap="square" stroke-linejoin="bevel" transform="matrix(1,0,0,1,0,0)"
font-family="Noto Sans UI" font-size="16" font-weight="400" font-style="italic" 
>
</g>

<g fill="none" stroke="#212121" stroke-opacity="1" stroke-width="1" stroke-linecap="square" stroke-linejoin="bevel" transform="matrix(1,0,0,1,34,227)"
font-family="Noto Sans UI" font-size="16" font-weight="400" font-style="italic" 
>
<text fill="#212121" fill-opacity="1" stroke="none" xml:space="preserve" x="0" y="18" font-family="Noto Sans UI" font-size="16" font-weight="400" font-style="italic" 
 >10,000</text>
</g>

<g fill="none" stroke="#212121" stroke-opacity="1" stroke-width="1" stroke-linecap="square" stroke-linejoin="bevel" transform="matrix(1,0,0,1,34,227)"
font-family="Noto Sans UI" font-size="16" font-weight="400" font-style="italic" 
>
</g>

<g fill="none" stroke="#212121" stroke-opacity="1" stroke-width="1" stroke-linecap="square" stroke-linejoin="bevel" transform="matrix(1,0,0,1,0,0)"
font-family="Noto Sans UI" font-size="16" font-weight="400" font-style="italic" 
>
</g>

<g fill="none" stroke="#212121" stroke-opacity="1" stroke-width="1" stroke-linecap="square" stroke-linejoin="bevel" transform="matrix(1,0,0,1,34,190)"
font-family="Noto Sans UI" font-size="16" font-weight="400" font-style="italic" 
>
<text fill="#212121" fill-opacity="1" stroke="none" xml:space="preserve" x="0" y="18" font-family="Noto Sans UI" font-size="16" font-weight="400" font-style="italic" 
 >15,000</text>
</g>

<g fill="none" stroke="#212121" stroke-opacity="1" stroke-width="1" stroke-linecap="square" stroke-linejoin="bevel" transform="matrix(1,0,0,1,34,190)"
font-family="Noto Sans UI" font-size="16" font-weight="400" font-style="italic" 
>
</g>

<g fill="none" stroke="#212121" stroke-opacity="1" stroke-width="1" stroke-linecap="square" stroke-linejoin="bevel" transform="matrix(1,0,0,1,0,0)"
font-family="Noto Sans UI" font-size="16" font-weight="400" font-style="italic" 
>
</g>

<g fill="none" stroke="#212121" stroke-opacity="1" stroke-width="1" stroke-linecap="square" stroke-linejoin="bevel" transform="matrix(1,0,0,1,34,153)"
font-family="Noto Sans UI" font-size="16" font-weight="400" font-style="italic" 
>
<text fill="#212121" fill-opacity="1" stroke="none" xml:space="preserve" x="0" y="18" font-family="Noto Sans UI" font-size="16" font-weight="400" font-style="italic" 
 >20,000</text>
</g>

<g fill="none" stroke="#212121" stroke-opacity="1" stroke-width="1" stroke-linecap="square" stroke-linejoin="bevel" transform="matrix(1,0,0,1,34,153)"
font-family="Noto Sans UI" font-size="16" font-weight="400" font-style="italic" 
>
</g>

<g fill="none" stroke="#212121" stroke-opacity="1" stroke-width="1" stroke-linecap="square" stroke-linejoin="bevel" transform="matrix(1,0,0,1,0,0)"
font-family="Noto Sans UI" font-size="16" font-weight="400" font-style="italic" 
>
</g>

<g fill="none" stroke="#212121" stroke-opacity="1" stroke-width="1" stroke-linecap="square" stroke-linejoin="bevel" transform="matrix(1,0,0,1,34,115)"
font-family="Noto Sans UI" font-size="16" font-weight="400" font-style="italic" 
>
<text fill="#212121" fill-opacity="1" stroke="none" xml:space="preserve" x="0" y="18" font-family="Noto Sans UI" font-size="16" font-weight="400" font-style="italic" 
 >25,000</text>
</g>

<g fill="none" stroke="#212121" stroke-opacity="1" stroke-width="1" stroke-linecap="square" stroke-linejoin="bevel" transform="matrix(1,0,0,1,34,115)"
font-family="Noto Sans UI" font-size="16" font-weight="400" font-style="italic" 
>
</g>

<g fill="none" stroke="#212121" stroke-opacity="1" stroke-width="1" stroke-linecap="square" stroke-linejoin="bevel" transform="matrix(1,0,0,1,0,0)"
font-family="Noto Sans UI" font-size="16" font-weight="400" font-style="italic" 
>
</g>

<g fill="none" stroke="#212121" stroke-opacity="1" stroke-width="1" stroke-linecap="square" stroke-linejoin="bevel" transform="matrix(1,0,0,1,34,78)"
font-family="Noto Sans UI" font-size="16" font-weight="400" font-style="italic" 
>
<text fill="#212121" fill-opacity="1" stroke="none" xml:space="preserve" x="0" y="18" font-family="Noto Sans UI" font-size="16" font-weight="400" font-style="italic" 
 >30,000</text>
</g>

<g fill="none" stroke="#212121" stroke-opacity="1" stroke-width="1" stroke-linecap="square" stroke-linejoin="bevel" transform="matrix(1,0,0,1,34,78)"
font-family="Noto Sans UI" font-size="16" font-weight="400" font-style="italic" 
>
</g>

<g fill="none" stroke="#212121" stroke-opacity="1" stroke-width="1" stroke-linecap="square" stroke-linejoin="bevel" transform="matrix(1,0,0,1,0,0)"
font-family="Noto Sans UI" font-size="16" font-weight="400" font-style="italic" 
>
</g>

<g fill="none" stroke="#212121" stroke-opacity="1" stroke-width="1" stroke-linecap="square" stroke-linejoin="bevel" transform="matrix(1,0,0,1,34,41)"
font-family="Noto Sans UI" font-size="16" font-weight="400" font-style="italic" 
>
<text fill="#212121" fill-opacity="1" stroke="none" xml:space="preserve" x="0" y="18" font-family="Noto Sans UI" font-size="16" font-weight="400" font-style="italic" 
 >35,000</text>
</g>

<g fill="none" stroke="#212121" stroke-opacity="1" stroke-width="1" stroke-linecap="square" stroke-linejoin="bevel" transform="matrix(1,0,0,1,34,41)"
font-family="Noto Sans UI" font-size="16" font-weight="400" font-style="italic" 
>
</g>

<g fill="none" stroke="#212121" stroke-opacity="1" stroke-width="1" stroke-linecap="square" stroke-linejoin="bevel" transform="matrix(1,0,0,1,0,0)"
font-family="Noto Sans UI" font-size="16" font-weight="400" font-style="italic" 
>
</g>

<g fill="none" stroke="#212121" stroke-opacity="1" stroke-width="1" stroke-linecap="square" stroke-linejoin="bevel" transform="matrix(1,0,0,1,34,4)"
font-family="Noto Sans UI" font-size="16" font-weight="400" font-style="italic" 
>
<text fill="#212121" fill-opacity="1" stroke="none" xml:space="preserve" x="0" y="18" font-family="Noto Sans UI" font-size="16" font-weight="400" font-style="italic" 
 >40,000</text>
</g>

<g fill="none" stroke="#212121" stroke-opacity="1" stroke-width="1" stroke-linecap="square" stroke-linejoin="bevel" transform="matrix(1,0,0,1,34,4)"
font-family="Noto Sans UI" font-size="16" font-weight="400" font-style="italic" 
>
</g>

<g fill="none" stroke="#212121" stroke-opacity="1" stroke-width="1" stroke-linecap="square" stroke-linejoin="bevel" transform="matrix(1,0,0,1,0,0)"
font-family="Noto Sans UI" font-size="16" font-weight="400" font-style="italic" 
>
</g>

<g fill="none" stroke="#000000" stroke-opacity="1" stroke-width="1" stroke-linecap="square" stroke-linejoin="bevel" transform="matrix(1,0,0,1,0,0)"
font-family="Noto Sans UI" font-size="16" font-weight="400" font-style="italic" 
>
<polyline fill="none" vector-effect="non-scaling-stroke" points="89,276 90,276 " />
<polyline fill="none" vector-effect="non-scaling-stroke" points="89,239 90,239 " />
<polyline fill="none" vector-effect="non-scaling-stroke" points="89,202 90,202 " />
<polyline fill="none" vector-effect="non-scaling-stroke" points="89,165 90,165 " />
<polyline fill="none" vector-effect="non-scaling-stroke" points="89,127 90,127 " />
<polyline fill="none" vector-effect="non-scaling-stroke" points="89,90 90,90 " />
<polyline fill="none" vector-effect="non-scaling-stroke" points="89,53 90,53 " />
</g>

<g fill="none" stroke="#000000" stroke-opacity="1" stroke-width="1" stroke-linecap="square" stroke-linejoin="bevel" transform="matrix(1,0,0,1,0,0)"
font-family="Noto Sans UI" font-size="16" font-weight="400" font-style="italic" 
>
<polyline fill="none" vector-effect="non-scaling-stroke" points="89,16 89,313 " />
</g>

<g fill="none" stroke="#000000" stroke-opacity="1" stroke-width="1" stroke-linecap="square" stroke-linejoin="bevel" transform="matrix(1,0,0,1,0,0)"
font-family="Noto Sans UI" font-size="16" font-weight="400" font-style="italic" 
>
<polyline fill="none" vector-effect="non-scaling-stroke" points="89,276 98,276 " />
<polyline fill="none" vector-effect="non-scaling-stroke" points="89,239 98,239 " />
<polyline fill="none" vector-effect="non-scaling-stroke" points="89,202 98,202 " />
<polyline fill="none" vector-effect="non-scaling-stroke" points="89,165 98,165 " />
<polyline fill="none" vector-effect="non-scaling-stroke" points="89,127 98,127 " />
<polyline fill="none" vector-effect="non-scaling-stroke" points="89,90 98,90 " />
<polyline fill="none" vector-effect="non-scaling-stroke" points="89,53 98,53 " />
<polyline fill="none" vector-effect="non-scaling-stroke" points="89,307 94,307 " />
<polyline fill="none" vector-effect="non-scaling-stroke" points="89,301 94,301 " />
<polyline fill="none" vector-effect="non-scaling-stroke" points="89,288 94,288 " />
<polyline fill="none" vector-effect="non-scaling-stroke" points="89,282 94,282 " />
<polyline fill="none" vector-effect="non-scaling-stroke" points="89,270 94,270 " />
<polyline fill="none" vector-effect="non-scaling-stroke" points="89,264 94,264 " />
<polyline fill="none" vector-effect="non-scaling-stroke" points="89,251 94,251 " />
<polyline fill="none" vector-effect="non-scaling-stroke" points="89,245 94,245 " />
<polyline fill="none" vector-effect="non-scaling-stroke" points="89,233 94,233 " />
<polyline fill="none" vector-effect="non-scaling-stroke" points="89,226 94,226 " />
<polyline fill="none" vector-effect="non-scaling-stroke" points="89,214 94,214 " />
<polyline fill="none" vector-effect="non-scaling-stroke" points="89,208 94,208 " />
<polyline fill="none" vector-effect="non-scaling-stroke" points="89,195 94,195 " />
<polyline fill="none" vector-effect="non-scaling-stroke" points="89,189 94,189 " />
<polyline fill="none" vector-effect="non-scaling-stroke" points="89,177 94,177 " />
<polyline fill="none" vector-effect="non-scaling-stroke" points="89,171 94,171 " />
<polyline fill="none" vector-effect="non-scaling-stroke" points="89,158 94,158 " />
<polyline fill="none" vector-effect="non-scaling-stroke" points="89,152 94,152 " />
<polyline fill="none" vector-effect="non-scaling-stroke" points="89,140 94,140 " />
<polyline fill="none" vector-effect="non-scaling-stroke" points="89,134 94,134 " />
<polyline fill="none" vector-effect="non-scaling-stroke" points="89,121 94,121 " />
<polyline fill="none" vector-effect="non-scaling-stroke" points="89,115 94,115 " />
<polyline fill="none" vector-effect="non-scaling-stroke" points="89,103 94,103 " />
<polyline fill="none" vector-effect="non-scaling-stroke" points="89,96 94,96 " />
<polyline fill="none" vector-effect="non-scaling-stroke" points="89,84 94,84 " />
<polyline fill="none" vector-effect="non-scaling-stroke" points="89,78 94,78 " />
<polyline fill="none" vector-effect="non-scaling-stroke" points="89,66 94,66 " />
<polyline fill="none" vector-effect="non-scaling-stroke" points="89,59 94,59 " />
<polyline fill="none" vector-effect="non-scaling-stroke" points="89,47 94,47 " />
<polyline fill="none" vector-effect="non-scaling-stroke" points="89,41 94,41 " />
<polyline fill="none" vector-effect="non-scaling-stroke" points="89,28 94,28 " />
<polyline fill="none" vector-effect="non-scaling-stroke" points="89,22 94,22 " />
<polyline fill="none" vector-effect="non-scaling-stroke" points="89,294 94,294 " />
<polyline fill="none" vector-effect="non-scaling-stroke" points="89,257 94,257 " />
<polyline fill="none" vector-effect="non-scaling-stroke" points="89,220 94,220 " />
<polyline fill="none" vector-effect="non-scaling-stroke" points="89,183 94,183 " />
<polyline fill="none" vector-effect="non-scaling-stroke" points="89,146 94,146 " />
<polyline fill="none" vector-effect="non-scaling-stroke" points="89,109 94,109 " />
<polyline fill="none" vector-effect="non-scaling-stroke" points="89,72 94,72 " />
<polyline fill="none" vector-effect="non-scaling-stroke" points="89,35 94,35 " />
</g>

<g fill="none" stroke="#000000" stroke-opacity="1" stroke-width="1" stroke-linecap="square" stroke-linejoin="bevel" transform="matrix(1,0,0,1,0,0)"
font-family="Noto Sans UI" font-size="16" font-weight="400" font-style="italic" 
>
</g>

<g fill="none" stroke="#000000" stroke-opacity="1" stroke-width="1" stroke-linecap="square" stroke-linejoin="bevel" transform="matrix(1,0,0,1,0,0)"
font-family="Noto Sans [MONO]" font-size="13.3333" font-weight="400" font-style="normal" 
>
</g>

<g fill="none" stroke="#212121" stroke-opacity="1" stroke-width="1" stroke-linecap="square" stroke-linejoin="bevel" transform="matrix(1,0,0,1,70,345)"
font-family="Noto Sans UI" font-size="16" font-weight="400" font-style="italic" 
>
</g>

<g fill="none" stroke="#000000" stroke-opacity="1" stroke-width="1" stroke-linecap="square" stroke-linejoin="bevel" transform="matrix(1,0,0,1,70,345)"
font-family="Noto Sans UI" font-size="18.6667" font-weight="700" font-style="normal" 
>
</g>

<g fill="none" stroke="#000000" stroke-opacity="1" stroke-width="1" stroke-linecap="square" stroke-linejoin="bevel" transform="matrix(1,0,0,1,70,346)"
font-family="Noto Sans UI" font-size="18.6667" font-weight="700" font-style="normal" 
>
<text fill="#000000" fill-opacity="1" stroke="none" xml:space="preserve" x="124.5" y="20" font-family="Noto Sans UI" font-size="18.6667" font-weight="700" font-style="normal" 
 >Wavenumber (cm</text>
<text fill="#000000" fill-opacity="1" stroke="none" xml:space="preserve" x="290.5" y="12" font-family="Noto Sans UI" font-size="12" font-weight="700" font-style="normal" 
 >-1</text>
<text fill="#000000" fill-opacity="1" stroke="none" xml:space="preserve" x="301.5" y="20" font-family="Noto Sans UI" font-size="18.6667" font-weight="700" font-style="normal" 
 >)</text>
</g>

<g fill="none" stroke="#000000" stroke-opacity="1" stroke-width="1" stroke-linecap="square" stroke-linejoin="bevel" transform="matrix(1,0,0,1,70,345)"
font-family="Noto Sans UI" font-size="18.6667" font-weight="700" font-style="normal" 
>
</g>

<g fill="none" stroke="#212121" stroke-opacity="1" stroke-width="1" stroke-linecap="square" stroke-linejoin="bevel" transform="matrix(1,0,0,1,70,345)"
font-family="Noto Sans UI" font-size="16" font-weight="400" font-style="italic" 
>
</g>

<g fill="none" stroke="#000000" stroke-opacity="1" stroke-width="1" stroke-linecap="square" stroke-linejoin="bevel" transform="matrix(1,0,0,1,0,0)"
font-family="Noto Sans [MONO]" font-size="13.3333" font-weight="400" font-style="normal" 
>
</g>

<g fill="none" stroke="#000000" stroke-opacity="1" stroke-width="1" stroke-linecap="square" stroke-linejoin="bevel" transform="matrix(1,0,0,1,0,0)"
font-family="Noto Sans UI" font-size="16" font-weight="400" font-style="italic" 
>
</g>

<g fill="none" stroke="#000000" stroke-opacity="1" stroke-width="1" stroke-linecap="square" stroke-linejoin="bevel" transform="matrix(1,0,0,1,0,0)"
font-family="Noto Sans UI" font-size="16" font-weight="400" font-style="italic" 
>
</g>

<g fill="none" stroke="#212121" stroke-opacity="1" stroke-width="1" stroke-linecap="square" stroke-linejoin="bevel" transform="matrix(1,0,0,1,0,0)"
font-family="Noto Sans UI" font-size="16" font-weight="400" font-style="italic" 
>
</g>

<g fill="none" stroke="#212121" stroke-opacity="1" stroke-width="1" stroke-linecap="square" stroke-linejoin="bevel" transform="matrix(1,0,0,1,70,320)"
font-family="Noto Sans UI" font-size="16" font-weight="400" font-style="italic" 
>
<text fill="#212121" fill-opacity="1" stroke="none" xml:space="preserve" x="0" y="18" font-family="Noto Sans UI" font-size="16" font-weight="400" font-style="italic" 
 >2,900</text>
</g>

<g fill="none" stroke="#212121" stroke-opacity="1" stroke-width="1" stroke-linecap="square" stroke-linejoin="bevel" transform="matrix(1,0,0,1,70,320)"
font-family="Noto Sans UI" font-size="16" font-weight="400" font-style="italic" 
>
</g>

<g fill="none" stroke="#212121" stroke-opacity="1" stroke-width="1" stroke-linecap="square" stroke-linejoin="bevel" transform="matrix(1,0,0,1,0,0)"
font-family="Noto Sans UI" font-size="16" font-weight="400" font-style="italic" 
>
</g>

<g fill="none" stroke="#212121" stroke-opacity="1" stroke-width="1" stroke-linecap="square" stroke-linejoin="bevel" transform="matrix(1,0,0,1,168,320)"
font-family="Noto Sans UI" font-size="16" font-weight="400" font-style="italic" 
>
<text fill="#212121" fill-opacity="1" stroke="none" xml:space="preserve" x="0" y="18" font-family="Noto Sans UI" font-size="16" font-weight="400" font-style="italic" 
 >2,950</text>
</g>

<g fill="none" stroke="#212121" stroke-opacity="1" stroke-width="1" stroke-linecap="square" stroke-linejoin="bevel" transform="matrix(1,0,0,1,168,320)"
font-family="Noto Sans UI" font-size="16" font-weight="400" font-style="italic" 
>
</g>

<g fill="none" stroke="#212121" stroke-opacity="1" stroke-width="1" stroke-linecap="square" stroke-linejoin="bevel" transform="matrix(1,0,0,1,0,0)"
font-family="Noto Sans UI" font-size="16" font-weight="400" font-style="italic" 
>
</g>

<g fill="none" stroke="#212121" stroke-opacity="1" stroke-width="1" stroke-linecap="square" stroke-linejoin="bevel" transform="matrix(1,0,0,1,266,320)"
font-family="Noto Sans UI" font-size="16" font-weight="400" font-style="italic" 
>
<text fill="#212121" fill-opacity="1" stroke="none" xml:space="preserve" x="0" y="18" font-family="Noto Sans UI" font-size="16" font-weight="400" font-style="italic" 
 >3,000</text>
</g>

<g fill="none" stroke="#212121" stroke-opacity="1" stroke-width="1" stroke-linecap="square" stroke-linejoin="bevel" transform="matrix(1,0,0,1,266,320)"
font-family="Noto Sans UI" font-size="16" font-weight="400" font-style="italic" 
>
</g>

<g fill="none" stroke="#212121" stroke-opacity="1" stroke-width="1" stroke-linecap="square" stroke-linejoin="bevel" transform="matrix(1,0,0,1,0,0)"
font-family="Noto Sans UI" font-size="16" font-weight="400" font-style="italic" 
>
</g>

<g fill="none" stroke="#212121" stroke-opacity="1" stroke-width="1" stroke-linecap="square" stroke-linejoin="bevel" transform="matrix(1,0,0,1,363,320)"
font-family="Noto Sans UI" font-size="16" font-weight="400" font-style="italic" 
>
<text fill="#212121" fill-opacity="1" stroke="none" xml:space="preserve" x="0" y="18" font-family="Noto Sans UI" font-size="16" font-weight="400" font-style="italic" 
 >3,050</text>
</g>

<g fill="none" stroke="#212121" stroke-opacity="1" stroke-width="1" stroke-linecap="square" stroke-linejoin="bevel" transform="matrix(1,0,0,1,363,320)"
font-family="Noto Sans UI" font-size="16" font-weight="400" font-style="italic" 
>
</g>

<g fill="none" stroke="#212121" stroke-opacity="1" stroke-width="1" stroke-linecap="square" stroke-linejoin="bevel" transform="matrix(1,0,0,1,0,0)"
font-family="Noto Sans UI" font-size="16" font-weight="400" font-style="italic" 
>
</g>

<g fill="none" stroke="#212121" stroke-opacity="1" stroke-width="1" stroke-linecap="square" stroke-linejoin="bevel" transform="matrix(1,0,0,1,461,320)"
font-family="Noto Sans UI" font-size="16" font-weight="400" font-style="italic" 
>
<text fill="#212121" fill-opacity="1" stroke="none" xml:space="preserve" x="0" y="18" font-family="Noto Sans UI" font-size="16" font-weight="400" font-style="italic" 
 >3,100</text>
</g>

<g fill="none" stroke="#212121" stroke-opacity="1" stroke-width="1" stroke-linecap="square" stroke-linejoin="bevel" transform="matrix(1,0,0,1,461,320)"
font-family="Noto Sans UI" font-size="16" font-weight="400" font-style="italic" 
>
</g>

<g fill="none" stroke="#212121" stroke-opacity="1" stroke-width="1" stroke-linecap="square" stroke-linejoin="bevel" transform="matrix(1,0,0,1,0,0)"
font-family="Noto Sans UI" font-size="16" font-weight="400" font-style="italic" 
>
</g>

<g fill="none" stroke="#000000" stroke-opacity="1" stroke-width="1" stroke-linecap="square" stroke-linejoin="bevel" transform="matrix(1,0,0,1,0,0)"
font-family="Noto Sans UI" font-size="16" font-weight="400" font-style="italic" 
>
<polyline fill="none" vector-effect="non-scaling-stroke" points="188,314 188,313 " />
<polyline fill="none" vector-effect="non-scaling-stroke" points="286,314 286,313 " />
<polyline fill="none" vector-effect="non-scaling-stroke" points="383,314 383,313 " />
</g>

<g fill="none" stroke="#000000" stroke-opacity="1" stroke-width="1" stroke-linecap="square" stroke-linejoin="bevel" transform="matrix(1,0,0,1,0,0)"
font-family="Noto Sans UI" font-size="16" font-weight="400" font-style="italic" 
>
<polyline fill="none" vector-effect="non-scaling-stroke" points="90,314 481,314 " />
</g>

<g fill="none" stroke="#000000" stroke-opacity="1" stroke-width="1" stroke-linecap="square" stroke-linejoin="bevel" transform="matrix(1,0,0,1,0,0)"
font-family="Noto Sans UI" font-size="16" font-weight="400" font-style="italic" 
>
<polyline fill="none" vector-effect="non-scaling-stroke" points="188,314 188,305 " />
<polyline fill="none" vector-effect="non-scaling-stroke" points="286,314 286,305 " />
<polyline fill="none" vector-effect="non-scaling-stroke" points="383,314 383,305 " />
<polyline fill="none" vector-effect="non-scaling-stroke" points="106,314 106,309 " />
<polyline fill="none" vector-effect="non-scaling-stroke" points="123,314 123,309 " />
<polyline fill="none" vector-effect="non-scaling-stroke" points="155,314 155,309 " />
<polyline fill="none" vector-effect="non-scaling-stroke" points="171,314 171,309 " />
<polyline fill="none" vector-effect="non-scaling-stroke" points="204,314 204,309 " />
<polyline fill="none" vector-effect="non-scaling-stroke" points="220,314 220,309 " />
<polyline fill="none" vector-effect="non-scaling-stroke" points="253,314 253,309 " />
<polyline fill="none" vector-effect="non-scaling-stroke" points="269,314 269,309 " />
<polyline fill="none" vector-effect="non-scaling-stroke" points="302,314 302,309 " />
<polyline fill="none" vector-effect="non-scaling-stroke" points="318,314 318,309 " />
<polyline fill="none" vector-effect="non-scaling-stroke" points="351,314 351,309 " />
<polyline fill="none" vector-effect="non-scaling-stroke" points="367,314 367,309 " />
<polyline fill="none" vector-effect="non-scaling-stroke" points="400,314 400,309 " />
<polyline fill="none" vector-effect="non-scaling-stroke" points="416,314 416,309 " />
<polyline fill="none" vector-effect="non-scaling-stroke" points="448,314 448,309 " />
<polyline fill="none" vector-effect="non-scaling-stroke" points="465,314 465,309 " />
<polyline fill="none" vector-effect="non-scaling-stroke" points="139,314 139,309 " />
<polyline fill="none" vector-effect="non-scaling-stroke" points="237,314 237,309 " />
<polyline fill="none" vector-effect="non-scaling-stroke" points="334,314 334,309 " />
<polyline fill="none" vector-effect="non-scaling-stroke" points="432,314 432,309 " />
</g>

<g fill="none" stroke="#000000" stroke-opacity="1" stroke-width="1" stroke-linecap="square" stroke-linejoin="bevel" transform="matrix(1,0,0,1,0,0)"
font-family="Noto Sans UI" font-size="16" font-weight="400" font-style="italic" 
>
</g>

<g fill="none" stroke="#000000" stroke-opacity="1" stroke-width="1" stroke-linecap="square" stroke-linejoin="bevel" transform="matrix(1,0,0,1,0,0)"
font-family="Noto Sans [MONO]" font-size="13.3333" font-weight="400" font-style="normal" 
>
</g>

<g fill="none" stroke="#000000" stroke-opacity="1" stroke-width="1" stroke-linecap="square" stroke-linejoin="bevel" transform="matrix(1,0,0,1,0,0)"
font-family="Noto Sans [MONO]" font-size="13.3333" font-weight="400" font-style="normal" 
>
</g>

<g fill="none" stroke="#000000" stroke-opacity="1" stroke-width="1" stroke-linecap="square" stroke-linejoin="bevel" transform="matrix(1,0,0,1,331,26)"
font-family="Noto Sans [MONO]" font-size="13.3333" font-weight="400" font-style="normal" 
>
</g>

<g fill="none" stroke="#000000" stroke-opacity="1" stroke-width="1" stroke-linecap="square" stroke-linejoin="bevel" transform="matrix(1,0,0,1,331,26)"
font-family="Noto Sans [MONO]" font-size="13.3333" font-weight="400" font-style="normal" 
>
</g>

<g fill="none" stroke="#000000" stroke-opacity="1" stroke-width="4" stroke-linecap="butt" stroke-linejoin="miter" stroke-miterlimit="2" transform="matrix(1,0,0,1,331,26)"
font-family="Noto Sans [MONO]" font-size="13.3333" font-weight="400" font-style="normal" 
>
<polyline fill="none" vector-effect="non-scaling-stroke" points="11,16 43,16 " />
</g>

<g fill="none" stroke="#000000" stroke-opacity="1" stroke-width="1" stroke-linecap="square" stroke-linejoin="bevel" transform="matrix(1,0,0,1,331,26)"
font-family="Noto Sans [MONO]" font-size="13.3333" font-weight="400" font-style="normal" 
>
</g>

<g fill="none" stroke="#000000" stroke-opacity="1" stroke-width="1" stroke-linecap="square" stroke-linejoin="bevel" transform="matrix(1,0,0,1,331,26)"
font-family="Noto Sans UI" font-size="14.6667" font-weight="400" font-style="italic" 
>
<text fill="#000000" fill-opacity="1" stroke="none" xml:space="preserve" x="53" y="22" font-family="Noto Sans UI" font-size="14.6667" font-weight="400" font-style="italic" 
 >AP</text>
</g>

<g fill="none" stroke="#000000" stroke-opacity="1" stroke-width="1" stroke-linecap="square" stroke-linejoin="bevel" transform="matrix(1,0,0,1,331,26)"
font-family="Noto Sans [MONO]" font-size="13.3333" font-weight="400" font-style="normal" 
>
</g>

<g fill="none" stroke="#000000" stroke-opacity="1" stroke-width="1" stroke-linecap="square" stroke-linejoin="bevel" transform="matrix(1,0,0,1,331,26)"
font-family="Noto Sans [MONO]" font-size="13.3333" font-weight="400" font-style="normal" 
>
</g>

<g fill="none" stroke="#ff0000" stroke-opacity="1" stroke-width="2" stroke-linecap="butt" stroke-linejoin="miter" stroke-miterlimit="2" transform="matrix(1,0,0,1,331,26)"
font-family="Noto Sans [MONO]" font-size="13.3333" font-weight="400" font-style="normal" 
>
<polyline fill="none" vector-effect="non-scaling-stroke" points="11,37 43,37 " />
</g>

<g fill="none" stroke="#000000" stroke-opacity="1" stroke-width="1" stroke-linecap="square" stroke-linejoin="bevel" transform="matrix(1,0,0,1,331,26)"
font-family="Noto Sans [MONO]" font-size="13.3333" font-weight="400" font-style="normal" 
>
</g>

<g fill="none" stroke="#000000" stroke-opacity="1" stroke-width="1" stroke-linecap="square" stroke-linejoin="bevel" transform="matrix(1,0,0,1,331,26)"
font-family="Noto Sans UI" font-size="14.6667" font-weight="400" font-style="italic" 
>
<text fill="#000000" fill-opacity="1" stroke="none" xml:space="preserve" x="53" y="43" font-family="Noto Sans UI" font-size="14.6667" font-weight="400" font-style="italic" 
 >Plate (010)</text>
</g>

<g fill="none" stroke="#000000" stroke-opacity="1" stroke-width="1" stroke-linecap="square" stroke-linejoin="bevel" transform="matrix(1,0,0,1,331,26)"
font-family="Noto Sans [MONO]" font-size="13.3333" font-weight="400" font-style="normal" 
>
</g>

<g fill="none" stroke="#000000" stroke-opacity="1" stroke-width="1" stroke-linecap="square" stroke-linejoin="bevel" transform="matrix(1,0,0,1,331,26)"
font-family="Noto Sans [MONO]" font-size="13.3333" font-weight="400" font-style="normal" 
>
</g>

<g fill="none" stroke="#008000" stroke-opacity="1" stroke-width="2" stroke-linecap="butt" stroke-linejoin="miter" stroke-miterlimit="2" transform="matrix(1,0,0,1,331,26)"
font-family="Noto Sans [MONO]" font-size="13.3333" font-weight="400" font-style="normal" 
>
<polyline fill="none" vector-effect="non-scaling-stroke" points="11,58 43,58 " />
</g>

<g fill="none" stroke="#000000" stroke-opacity="1" stroke-width="1" stroke-linecap="square" stroke-linejoin="bevel" transform="matrix(1,0,0,1,331,26)"
font-family="Noto Sans [MONO]" font-size="13.3333" font-weight="400" font-style="normal" 
>
</g>

<g fill="none" stroke="#000000" stroke-opacity="1" stroke-width="1" stroke-linecap="square" stroke-linejoin="bevel" transform="matrix(1,0,0,1,331,26)"
font-family="Noto Sans UI" font-size="14.6667" font-weight="400" font-style="italic" 
>
<text fill="#000000" fill-opacity="1" stroke="none" xml:space="preserve" x="53" y="64" font-family="Noto Sans UI" font-size="14.6667" font-weight="400" font-style="italic" 
 >Plate (001)</text>
</g>

<g fill="none" stroke="#000000" stroke-opacity="1" stroke-width="1" stroke-linecap="square" stroke-linejoin="bevel" transform="matrix(1,0,0,1,331,26)"
font-family="Noto Sans [MONO]" font-size="13.3333" font-weight="400" font-style="normal" 
>
</g>

<g fill="none" stroke="#000000" stroke-opacity="1" stroke-width="1" stroke-linecap="square" stroke-linejoin="bevel" transform="matrix(1,0,0,1,331,26)"
font-family="Noto Sans [MONO]" font-size="13.3333" font-weight="400" font-style="normal" 
>
</g>

<g fill="none" stroke="#0000ff" stroke-opacity="1" stroke-width="2" stroke-linecap="butt" stroke-linejoin="miter" stroke-miterlimit="2" transform="matrix(1,0,0,1,331,26)"
font-family="Noto Sans [MONO]" font-size="13.3333" font-weight="400" font-style="normal" 
>
<polyline fill="none" vector-effect="non-scaling-stroke" points="11,79 43,79 " />
</g>

<g fill="none" stroke="#000000" stroke-opacity="1" stroke-width="1" stroke-linecap="square" stroke-linejoin="bevel" transform="matrix(1,0,0,1,331,26)"
font-family="Noto Sans [MONO]" font-size="13.3333" font-weight="400" font-style="normal" 
>
</g>

<g fill="none" stroke="#000000" stroke-opacity="1" stroke-width="1" stroke-linecap="square" stroke-linejoin="bevel" transform="matrix(1,0,0,1,331,26)"
font-family="Noto Sans UI" font-size="14.6667" font-weight="400" font-style="italic" 
>
<text fill="#000000" fill-opacity="1" stroke="none" xml:space="preserve" x="53" y="85" font-family="Noto Sans UI" font-size="14.6667" font-weight="400" font-style="italic" 
 >Plate (100)</text>
</g>

<g fill="none" stroke="#000000" stroke-opacity="1" stroke-width="1" stroke-linecap="square" stroke-linejoin="bevel" transform="matrix(1,0,0,1,331,26)"
font-family="Noto Sans [MONO]" font-size="13.3333" font-weight="400" font-style="normal" 
>
</g>

<g fill="none" stroke="#000000" stroke-opacity="1" stroke-width="1" stroke-linecap="square" stroke-linejoin="bevel" transform="matrix(1,0,0,1,331,26)"
font-family="Noto Sans [MONO]" font-size="13.3333" font-weight="400" font-style="normal" 
>
</g>

<g fill="none" stroke="#ff00ff" stroke-opacity="1" stroke-width="2" stroke-linecap="butt" stroke-linejoin="miter" stroke-miterlimit="2" transform="matrix(1,0,0,1,331,26)"
font-family="Noto Sans [MONO]" font-size="13.3333" font-weight="400" font-style="normal" 
>
<polyline fill="none" vector-effect="non-scaling-stroke" points="11,100 43,100 " />
</g>

<g fill="none" stroke="#000000" stroke-opacity="1" stroke-width="1" stroke-linecap="square" stroke-linejoin="bevel" transform="matrix(1,0,0,1,331,26)"
font-family="Noto Sans [MONO]" font-size="13.3333" font-weight="400" font-style="normal" 
>
</g>

<g fill="none" stroke="#000000" stroke-opacity="1" stroke-width="1" stroke-linecap="square" stroke-linejoin="bevel" transform="matrix(1,0,0,1,331,26)"
font-family="Noto Sans UI" font-size="14.6667" font-weight="400" font-style="italic" 
>
<text fill="#000000" fill-opacity="1" stroke="none" xml:space="preserve" x="53" y="106" font-family="Noto Sans UI" font-size="14.6667" font-weight="400" font-style="italic" 
 >Sphere</text>
</g>

<g fill="none" stroke="#000000" stroke-opacity="1" stroke-width="1" stroke-linecap="square" stroke-linejoin="bevel" transform="matrix(1,0,0,1,331,26)"
font-family="Noto Sans [MONO]" font-size="13.3333" font-weight="400" font-style="normal" 
>
</g>

<g fill="none" stroke="#000000" stroke-opacity="1" stroke-width="1" stroke-linecap="square" stroke-linejoin="bevel" transform="matrix(1,0,0,1,0,0)"
font-family="Noto Sans [MONO]" font-size="13.3333" font-weight="400" font-style="normal" 
>
</g>

<g fill="none" stroke="#000000" stroke-opacity="1" stroke-width="1" stroke-linecap="square" stroke-linejoin="bevel" transform="matrix(1,0,0,1,0,0)"
font-family="Noto Sans [MONO]" font-size="13.3333" font-weight="400" font-style="normal" 
>
</g>
</g>
</svg>
