<?xml version="1.0" encoding="UTF-8" standalone="no"?>
<!-- Created with Inkscape (http://www.inkscape.org/) -->

<svg
   version="1.1"
   id="svg2"
   xml:space="preserve"
   width="493"
   height="373"
   viewBox="0 0 493 373"
   xmlns="http://www.w3.org/2000/svg"
   xmlns:svg="http://www.w3.org/2000/svg"><defs
     id="defs6"><clipPath
       clipPathUnits="userSpaceOnUse"
       id="clipPath20"><path
         d="m 59.25,264 h 294 V 39.75 h -294 z"
         clip-rule="evenodd"
         id="path18" /></clipPath><clipPath
       clipPathUnits="userSpaceOnUse"
       id="clipPath30"><path
         d="m 59.25,264 h 294 V 39.75 h -294 z"
         clip-rule="evenodd"
         id="path28" /></clipPath><clipPath
       clipPathUnits="userSpaceOnUse"
       id="clipPath40"><path
         d="m 59.25,264 h 294 V 39.75 h -294 z"
         clip-rule="evenodd"
         id="path38" /></clipPath><clipPath
       clipPathUnits="userSpaceOnUse"
       id="clipPath50"><path
         d="m 59.25,264 h 294 V 39.75 h -294 z"
         clip-rule="evenodd"
         id="path48" /></clipPath><clipPath
       clipPathUnits="userSpaceOnUse"
       id="clipPath60"><path
         d="m 59.25,264 h 294 V 39.75 h -294 z"
         clip-rule="evenodd"
         id="path58" /></clipPath></defs><g
     id="g8"
     transform="matrix(1.3333333,0,0,-1.3333333,0,373)"><g
       id="g10"><path
         d="M 0,279.75 H 369.75 V 0 H 0 Z"
         style="fill:#ffffff;fill-opacity:1;fill-rule:nonzero;stroke:none"
         id="path12" /></g><g
       id="g14"><g
         id="g16"
         clip-path="url(#clipPath20)"><path
           d="m 59.25,40.78 0.588,0.04 0.588,0.044 0.588,0.049 0.588,0.056 0.588,0.062 0.588,0.07 1.176,0.169 0.588,0.103 0.588,0.117 0.588,0.135 0.588,0.157 0.588,0.182 0.588,0.215 0.588,0.256 0.588,0.306 1.176,0.822 0.588,0.557 0.588,0.695 0.588,0.87 0.588,1.095 0.588,1.365 0.588,1.666 0.588,1.923 0.588,1.991 0.588,1.665 0.588,0.837 0.588,-0.279 0.588,-1.221 0.588,-1.674 0.588,-1.675 0.588,-1.419 0.588,-1.075 0.588,-0.731 0.588,-0.41 0.588,-0.111 0.588,0.183 0.588,0.485 0.588,0.812 0.588,1.163 0.588,1.505 0.588,1.743 0.588,1.694 0.588,1.164 0.588,0.161 0.588,-0.959 0.588,-1.739 0.588,-2.011 0.588,-1.907 0.588,-1.635 0.588,-1.332 0.588,-1.062 0.588,-0.842 0.588,-0.668 0.588,-0.533 0.588,-0.43 0.588,-0.348 0.588,-0.286 0.588,-0.235 0.588,-0.195 0.588,-0.163 1.176,-0.251 0.588,-0.097 0.588,-0.081 0.588,-0.069 1.176,-0.106 0.588,-0.04 0.588,-0.033 1.176,-0.047 0.588,-0.015 0.588,-0.011 0.588,-0.006 1.176,-0.001 0.588,0.005 0.588,0.009 0.588,0.012 1.176,0.032 0.588,0.021 0.588,0.024 1.176,0.058 0.588,0.033 0.588,0.036 0.588,0.039 1.176,0.089 0.588,0.049 0.588,0.054 1.176,0.118 0.588,0.066 0.588,0.07 0.588,0.075 1.176,0.166 0.588,0.091 0.588,0.098 0.588,0.105 1.176,0.233 0.588,0.13 0.588,0.139 1.176,0.31 0.588,0.174 0.588,0.188 0.588,0.203 1.176,0.46 0.588,0.261 0.588,0.284 0.588,0.312 1.176,0.721 0.588,0.418 0.588,0.463 1.176,1.097 0.588,0.653 0.588,0.74 0.588,0.844 0.588,0.969 0.588,1.122 0.588,1.307 0.588,1.531 0.588,1.797 0.588,2.096 0.588,2.398 0.588,2.641 0.588,2.759 0.588,2.773 0.588,2.843 0.588,3.182 0.588,3.9 0.588,4.998 0.588,6.468 0.588,8.342 0.588,10.694 0.588,13.569 0.588,16.893 0.588,20.249 0.588,22.639 0.588,22.484 0.588,18.498 0.588,11.108 0.588,2.618 0.588,-4.583 0.588,-9.486 0.588,-12.293 0.588,-13.636 0.588,-14.094 0.588,-14.063 0.588,-13.767 0.588,-13.314 0.588,-12.727 0.588,-11.974 0.588,-11.007 0.588,-9.82 0.588,-8.484 0.588,-7.136 0.588,-5.899 0.588,-4.842 0.588,-3.978 0.588,-3.284 0.588,-2.733 0.588,-2.292 0.588,-1.94 0.588,-1.655 0.588,-1.424 0.588,-1.232 0.588,-1.075 0.588,-0.942 0.588,-0.832 0.588,-0.737 0.588,-0.657 0.588,-0.588 0.588,-0.529 0.588,-0.476 0.588,-0.431 0.588,-0.392 0.588,-0.357 0.588,-0.326 0.588,-0.299 0.588,-0.274 0.588,-0.253 0.588,-0.233 1.176,-0.415 0.588,-0.186 0.588,-0.172 1.176,-0.311 0.588,-0.14 0.588,-0.131 0.588,-0.123 1.176,-0.224 0.588,-0.103 0.588,-0.096 0.588,-0.091 1.176,-0.167 0.588,-0.077 0.588,-0.073 1.176,-0.134 0.588,-0.063 0.588,-0.059 0.588,-0.056 1.176,-0.105 0.588,-0.049 0.588,-0.047 1.176,-0.087 0.588,-0.041 0.588,-0.039 0.588,-0.037 1.176,-0.07 0.588,-0.033 0.588,-0.032 0.588,-0.03 1.176,-0.058 0.588,-0.027 0.588,-0.026 1.176,-0.049 0.588,-0.023 0.588,-0.022 0.588,-0.022 1.176,-0.041 0.588,-0.02 0.588,-0.018 0.588,-0.019 1.176,-0.034 0.588,-0.017 0.588,-0.015 1.176,-0.031 0.588,-0.014 0.588,-0.014 0.588,-0.014 1.176,-0.026 0.588,-0.012 0.588,-0.012 1.176,-0.023 0.588,-0.011 0.588,-0.011 0.588,-0.01 1.176,-0.02 0.588,-0.009 0.588,-0.01 0.588,-0.009 1.176,-0.017 0.588,-0.008 0.588,-0.008 1.176,-0.016 0.588,-0.007 0.588,-0.007 0.588,-0.007 1.176,-0.014 0.588,-0.006 0.588,-0.006 0.588,-0.007 1.176,-0.011 0.588,-0.006 0.588,-0.006 1.176,-0.01 0.588,-0.005 0.588,-0.005 0.588,-0.005 1.176,-0.009 0.588,-0.005 0.588,-0.004 1.176,-0.009 0.588,-0.004 0.588,-0.004 0.588,-0.003 1.176,-0.008 0.588,-0.003 0.588,-0.003 0.588,-0.004 1.176,-0.006 0.588,-0.003 0.588,-0.003 1.176,-0.005 0.588,-0.003 0.588,-0.003 0.588,-0.002 1.176,-0.005 0.588,-0.002 0.588,-0.002 0.588,-0.002 1.176,-0.004 0.588,-0.002 0.588,-10e-4 1.176,-0.003 0.588,-0.002 0.588,-10e-4 0.588,-10e-4 1.176,-0.002 0.588,-10e-4 0.588,-0.001 h 0.588 l 1.176,-10e-4 0.588,-10e-4 h 0.588 1.176 0.588 l 0.588,10e-4 h 0.588 l 1.176,0.002 0.588,10e-4 0.588,10e-4 1.176,0.003 0.588,0.002 0.588,0.002 0.588,0.002 1.176,0.006 0.588,0.004 0.588,0.003 0.588,0.005 1.176,0.01 0.588,0.006 0.588,0.007 0.588,0.007 0.588,0.009 0.588,0.009 0.588,0.011 0.588,0.013 1.176,0.03 0.588,0.018 0.588,0.022 0.588,0.025 1.176,0.066 0.588,0.043 0.588,0.052 1.176,0.143 0.588,0.098 0.588,0.123 0.588,0.152 1.176,0.39 0.588,0.206 0.588,0.16 1.176,0.019 0.588,-0.129 0.588,-0.16 0.588,-0.149 1.176,-0.196 0.588,-0.043 0.588,-0.01 0.588,0.024 1.176,0.147 0.588,0.131 0.588,0.18 0.588,0.238 0.588,0.31 0.588,0.397 0.588,0.493 0.588,0.576 0.588,0.6 0.588,0.502 0.588,0.241 0.588,-0.119 0.588,-0.429 0.588,-0.587 0.588,-0.6 0.588,-0.532 0.588,-0.44 1.176,-0.628 0.588,-0.217 0.588,-0.17 0.588,-0.135 1.176,-0.191 0.588,-0.068 0.588,-0.054 1.176,-0.075 0.588,-0.025 0.588,-0.019 0.588,-0.013 1.176,-0.01 0.588,10e-4 0.588,0.006 0.588,0.009 1.176,0.031 0.588,0.021 0.588,0.026 1.176,0.065 0.588,0.04 0.588,0.046 0.588,0.053 0.588,0.06 0.588,0.068 0.588,0.078 0.588,0.089 0.588,0.101 1.176,0.253 0.588,0.156 0.588,0.183 1.176,0.468 0.588,0.302 0.588,0.363 0.588,0.439 0.588,0.536 0.588,0.659 0.588,0.81 0.588,0.995 0.588,1.204 0.588,1.422 0.588,1.631 0.588,1.842 0.588,2.11 0.588,2.449 0.588,2.733 0.588,2.661 0.588,1.887 0.588,0.371 0.588,-1.382 0.588,-2.659 0.588,-3.15 0.588,-3.029 0.588,-2.613 0.588,-2.137 0.588,-1.706 0.588,-1.35 0.588,-1.072 0.588,-0.855 0.588,-0.689 0.588,-0.56 0.588,-0.46 0.588,-0.381 0.588,-0.319 0.588,-0.269 0.588,-0.228 0.588,-0.196 0.588,-0.169 0.588,-0.147 0.588,-0.128 0.588,-0.113 0.588,-0.099 1.176,-0.166 0.588,-0.071 0.588,-0.063 0.588,-0.056 1.176,-0.098 0.588,-0.043 0.588,-0.038 1.176,-0.068 h 0.588"
           style="fill:none;stroke:#000000;stroke-width:2;stroke-linecap:butt;stroke-linejoin:miter;stroke-miterlimit:10;stroke-dasharray:none;stroke-opacity:1"
           id="path22" /></g></g><g
       id="g24"><g
         id="g26"
         clip-path="url(#clipPath30)"><path
           d="m 59.25,40.436 0.588,0.011 0.588,0.012 1.176,0.028 0.588,0.017 0.588,0.018 1.176,0.041 0.588,0.023 0.588,0.025 0.588,0.028 1.176,0.062 0.588,0.036 0.588,0.039 0.588,0.042 1.176,0.098 0.588,0.057 0.588,0.062 1.176,0.147 0.588,0.087 0.588,0.097 0.588,0.109 1.176,0.266 0.588,0.163 0.588,0.188 0.588,0.218 0.588,0.255 0.588,0.302 0.588,0.359 0.588,0.432 0.588,0.524 0.588,0.642 0.588,0.795 0.588,0.992 0.588,1.246 0.588,1.567 0.588,1.95 0.588,2.366 0.588,2.709 0.588,2.786 0.588,2.381 0.588,1.465 0.588,0.333 0.588,-0.661 0.588,-1.439 0.588,-2.06 0.588,-2.454 0.588,-2.526 0.588,-2.32 0.588,-1.975 0.588,-1.612 0.588,-1.289 0.588,-1.025 0.588,-0.816 0.588,-0.654 0.588,-0.527 0.588,-0.43 0.588,-0.352 0.588,-0.29 0.588,-0.242 0.588,-0.202 0.588,-0.169 0.588,-0.143 1.176,-0.222 0.588,-0.086 0.588,-0.072 1.176,-0.111 0.588,-0.041 0.588,-0.034 0.588,-0.026 0.588,-0.02 0.588,-0.015 0.588,-0.009 0.588,-0.004 h 0.588 l 1.176,0.014 0.588,0.012 0.588,0.016 1.176,0.044 0.588,0.027 0.588,0.031 0.588,0.034 1.176,0.08 0.588,0.045 0.588,0.049 1.176,0.111 0.588,0.062 0.588,0.067 0.588,0.071 1.176,0.159 0.588,0.088 0.588,0.094 0.588,0.101 1.176,0.225 0.588,0.125 0.588,0.133 1.176,0.299 0.588,0.166 0.588,0.18 0.588,0.193 1.176,0.437 0.588,0.246 0.588,0.268 0.588,0.291 0.588,0.319 0.588,0.348 0.588,0.382 0.588,0.42 0.588,0.464 0.588,0.513 0.588,0.569 0.588,0.635 0.588,0.709 0.588,0.797 0.588,0.899 0.588,1.018 0.588,1.16 0.588,1.328 0.588,1.53 0.588,1.774 0.588,2.072 0.588,2.437 0.588,2.89 0.588,3.456 0.588,4.173 0.588,5.086 0.588,6.257 0.588,7.77 0.588,9.722 0.588,12.214 0.588,15.302 0.588,18.88 0.588,22.44 0.588,24.78 0.588,24.02 0.588,18.657 0.588,9.362 0.588,-0.757 0.588,-8.531 0.588,-12.916 0.588,-14.7 0.588,-15.072 0.588,-14.832 0.588,-14.365 0.588,-13.816 0.588,-13.216 0.588,-12.531 0.588,-11.701 0.588,-10.667 0.588,-9.434 0.588,-8.09 0.588,-6.771 0.588,-5.586 0.588,-4.587 0.588,-3.776 0.588,-3.126 0.588,-2.609 0.588,-2.195 0.588,-1.864 0.588,-1.594 0.588,-1.375 0.588,-1.193 0.588,-1.043 0.588,-0.917 0.588,-0.81 0.588,-0.719 0.588,-0.642 0.588,-0.576 0.588,-0.518 0.588,-0.467 0.588,-0.424 0.588,-0.385 0.588,-0.352 0.588,-0.321 0.588,-0.294 0.588,-0.271 0.588,-0.25 0.588,-0.23 1.176,-0.411 0.588,-0.184 0.588,-0.171 1.176,-0.308 0.588,-0.139 0.588,-0.13 0.588,-0.123 1.176,-0.222 0.588,-0.102 0.588,-0.096 0.588,-0.09 1.176,-0.167 0.588,-0.076 0.588,-0.073 1.176,-0.134 0.588,-0.062 0.588,-0.059 0.588,-0.057 1.176,-0.104 0.588,-0.049 0.588,-0.047 1.176,-0.087 0.588,-0.04 0.588,-0.039 0.588,-0.038 1.176,-0.07 0.588,-0.033 0.588,-0.031 0.588,-0.031 1.176,-0.057 0.588,-0.027 0.588,-0.026 1.176,-0.049 0.588,-0.023 0.588,-0.023 0.588,-0.021 1.176,-0.042 0.588,-0.019 0.588,-0.019 0.588,-0.018 1.176,-0.035 0.588,-0.016 0.588,-0.016 1.176,-0.03 0.588,-0.015 0.588,-0.014 0.588,-0.013 1.176,-0.026 0.588,-0.013 0.588,-0.012 1.176,-0.023 0.588,-0.011 0.588,-0.011 0.588,-0.01 1.176,-0.02 0.588,-0.009 0.588,-0.01 0.588,-0.009 1.176,-0.017 0.588,-0.008 0.588,-0.008 1.176,-0.016 0.588,-0.007 0.588,-0.007 0.588,-0.007 1.176,-0.014 0.588,-0.007 0.588,-0.006 0.588,-0.006 1.176,-0.012 0.588,-0.006 0.588,-0.005 1.176,-0.011 0.588,-0.005 0.588,-0.005 0.588,-0.005 1.176,-0.009 0.588,-0.005 0.588,-0.004 1.176,-0.009 0.588,-0.004 0.588,-0.004 0.588,-0.003 1.176,-0.008 0.588,-0.003 0.588,-0.004 0.588,-0.003 1.176,-0.006 0.588,-0.003 0.588,-0.003 1.176,-0.006 0.588,-0.003 0.588,-0.002 0.588,-0.003 1.176,-0.004 0.588,-0.003 0.588,-0.002 0.588,-0.002 1.176,-0.004 0.588,-0.002 0.588,-0.001 1.176,-0.004 0.588,-10e-4 0.588,-0.001 0.588,-0.002 1.176,-0.002 0.588,-10e-4 0.588,-0.001 0.588,-10e-4 1.176,-10e-4 h 0.588 l 0.588,-0.001 h 1.176 0.588 0.588 0.588 l 1.176,0.001 0.588,10e-4 0.588,10e-4 1.176,0.002 0.588,10e-4 0.588,0.002 0.588,0.002 1.176,0.005 0.588,0.002 0.588,0.003 0.588,0.004 1.176,0.008 0.588,0.005 0.588,0.005 1.176,0.012 0.588,0.008 0.588,0.008 0.588,0.009 1.176,0.022 0.588,0.013 0.588,0.016 0.588,0.017 1.176,0.044 0.588,0.027 0.588,0.033 1.176,0.086 0.588,0.057 0.588,0.071 0.588,0.087 1.176,0.243 0.588,0.163 0.588,0.187 1.176,0.355 0.588,0.086 0.588,-0.012 0.588,-0.09 1.176,-0.241 0.588,-0.086 0.588,-0.049 0.588,-0.008 1.176,0.103 0.588,0.116 0.588,0.168 0.588,0.23 0.588,0.304 0.588,0.391 0.588,0.489 0.588,0.572 0.588,0.598 0.588,0.499 0.588,0.239 0.588,-0.12 0.588,-0.43 0.588,-0.588 0.588,-0.6 0.588,-0.534 0.588,-0.44 1.176,-0.629 0.588,-0.217 0.588,-0.171 0.588,-0.135 1.176,-0.192 0.588,-0.068 0.588,-0.054 1.176,-0.077 0.588,-0.026 0.588,-0.019 0.588,-0.013 1.176,-0.012 h 0.588 l 0.588,0.005 0.588,0.008 1.176,0.029 0.588,0.02 0.588,0.024 1.176,0.061 0.588,0.037 0.588,0.043 0.588,0.05 0.588,0.055 0.588,0.064 0.588,0.072 0.588,0.082 0.588,0.094 1.176,0.231 0.588,0.142 0.588,0.164 1.176,0.417 0.588,0.265 0.588,0.315 0.588,0.377 0.588,0.457 0.588,0.556 0.588,0.685 0.588,0.851 0.588,1.065 0.588,1.343 0.588,1.692 0.588,2.116 0.588,2.582 0.588,2.997 0.588,3.176 0.588,2.859 0.588,1.833 0.588,0.173 0.588,-1.597 0.588,-2.826 0.588,-3.261 0.588,-3.098 0.588,-2.659 0.588,-2.168 0.588,-1.728 0.588,-1.368 0.588,-1.085 0.588,-0.866 0.588,-0.698 0.588,-0.567 0.588,-0.466 0.588,-0.386 1.176,-0.595 0.588,-0.232 0.588,-0.198 0.588,-0.172 0.588,-0.148 0.588,-0.13 0.588,-0.114 0.588,-0.1 1.176,-0.169 0.588,-0.071 0.588,-0.064 0.588,-0.057 1.176,-0.099 0.588,-0.043 0.588,-0.039 1.176,-0.069 h 0.588"
           style="fill:none;stroke:#ff0000;stroke-width:2;stroke-linecap:butt;stroke-linejoin:miter;stroke-miterlimit:10;stroke-dasharray:none;stroke-opacity:1"
           id="path32" /></g></g><g
       id="g34"><g
         id="g36"
         clip-path="url(#clipPath40)"><path
           d="m 59.25,40.622 0.588,0.037 0.588,0.041 1.176,0.099 0.588,0.059 0.588,0.067 1.176,0.162 0.588,0.098 0.588,0.113 0.588,0.131 1.176,0.331 0.588,0.212 0.588,0.252 0.588,0.303 1.176,0.82 0.588,0.56 0.588,0.7 0.588,0.882 0.588,1.111 0.588,1.391 0.588,1.7 0.588,1.965 0.588,2.033 0.588,1.686 0.588,0.811 0.588,-0.375 0.588,-1.387 0.588,-1.897 0.588,-1.934 0.588,-1.705 0.588,-1.395 0.588,-1.095 0.588,-0.841 0.588,-0.633 0.588,-0.468 0.588,-0.333 1.176,-0.345 0.588,-0.035 0.588,0.051 0.588,0.141 0.588,0.238 0.588,0.351 0.588,0.487 0.588,0.655 0.588,0.864 0.588,1.124 0.588,1.43 0.588,1.753 0.588,2.002 0.588,1.992 0.588,1.508 0.588,0.492 0.588,-0.738 0.588,-1.679 0.588,-2.079 0.588,-2.035 0.588,-1.77 0.588,-1.453 0.588,-1.16 0.588,-0.918 0.588,-0.727 0.588,-0.58 0.588,-0.465 0.588,-0.377 0.588,-0.309 0.588,-0.254 0.588,-0.212 1.176,-0.327 0.588,-0.127 0.588,-0.108 0.588,-0.092 1.176,-0.148 0.588,-0.059 0.588,-0.051 0.588,-0.044 1.176,-0.07 0.588,-0.027 0.588,-0.024 1.176,-0.035 0.588,-0.013 0.588,-0.01 0.588,-0.007 1.176,-0.007 h 0.588 l 0.588,0.002 1.176,0.011 0.588,0.008 0.588,0.01 0.588,0.012 1.176,0.03 0.588,0.018 0.588,0.02 0.588,0.022 1.176,0.052 0.588,0.03 0.588,0.032 1.176,0.073 0.588,0.042 0.588,0.046 0.588,0.05 1.176,0.115 0.588,0.066 0.588,0.073 0.588,0.081 1.176,0.193 0.588,0.115 0.588,0.131 1.176,0.325 0.588,0.205 0.588,0.242 0.588,0.29 1.176,0.782 0.588,0.531 0.588,0.658 0.588,0.807 0.588,0.962 0.588,1.071 0.588,1.045 0.588,0.78 0.588,0.269 0.588,-0.31 0.588,-0.719 0.588,-0.863 0.588,-0.81 0.588,-0.667 0.588,-0.504 0.588,-0.357 0.588,-0.232 1.176,-0.178 0.588,0.024 0.588,0.084 0.588,0.138 1.176,0.426 0.588,0.286 0.588,0.336 0.588,0.39 1.176,0.959 0.588,0.583 0.588,0.665 0.588,0.758 0.588,0.866 0.588,0.995 0.588,1.145 0.588,1.325 0.588,1.543 0.588,1.808 0.588,2.132 0.588,2.534 0.588,3.038 0.588,3.675 0.588,4.486 0.588,5.528 0.588,6.873 0.588,8.604 0.588,10.805 0.588,13.508 0.588,16.584 0.588,19.525 0.588,21.238 0.588,20.192 0.588,15.451 0.588,7.919 1.176,-6.419 0.588,-10.536 0.588,-12.821 0.588,-13.854 0.588,-14.128 0.588,-13.953 0.588,-13.483 0.588,-12.756 0.588,-11.765 0.588,-10.516 0.588,-9.091 0.588,-7.639 0.588,-6.298 0.588,-5.148 0.588,-4.208 0.588,-3.454 0.588,-2.858 0.588,-2.383 0.588,-2.006 0.588,-1.702 0.588,-1.455 0.588,-1.255 0.588,-1.088 0.588,-0.95 0.588,-0.835 0.588,-0.737 0.588,-0.655 0.588,-0.583 0.588,-0.522 0.588,-0.47 0.588,-0.423 0.588,-0.384 0.588,-0.349 0.588,-0.317 0.588,-0.29 0.588,-0.266 1.176,-0.469 0.588,-0.207 0.588,-0.192 0.588,-0.178 0.588,-0.165 0.588,-0.153 0.588,-0.143 0.588,-0.134 0.588,-0.124 1.176,-0.226 0.588,-0.103 0.588,-0.097 1.176,-0.176 0.588,-0.081 0.588,-0.076 0.588,-0.072 1.176,-0.133 0.588,-0.062 0.588,-0.058 0.588,-0.055 1.176,-0.103 0.588,-0.048 0.588,-0.045 1.176,-0.085 0.588,-0.039 0.588,-0.038 0.588,-0.036 1.176,-0.068 0.588,-0.032 0.588,-0.03 0.588,-0.029 0.588,-0.028 0.588,-0.027 0.588,-0.026 0.588,-0.025 1.176,-0.047 0.588,-0.022 0.588,-0.022 0.588,-0.02 1.176,-0.039 0.588,-0.019 0.588,-0.018 1.176,-0.033 0.588,-0.016 0.588,-0.016 0.588,-0.015 1.176,-0.029 0.588,-0.013 0.588,-0.013 0.588,-0.013 1.176,-0.024 0.588,-0.012 0.588,-0.011 1.176,-0.022 0.588,-0.01 0.588,-0.01 0.588,-0.01 1.176,-0.018 0.588,-0.009 0.588,-0.009 1.176,-0.016 0.588,-0.008 0.588,-0.008 0.588,-0.007 1.176,-0.014 0.588,-0.007 0.588,-0.007 0.588,-0.006 1.176,-0.013 0.588,-0.005 0.588,-0.006 1.176,-0.011 0.588,-0.005 0.588,-0.006 0.588,-0.005 1.176,-0.009 0.588,-0.005 0.588,-0.004 0.588,-0.004 1.176,-0.008 0.588,-0.004 0.588,-0.004 1.176,-0.007 0.588,-0.004 0.588,-0.003 0.588,-0.003 1.176,-0.006 0.588,-0.003 0.588,-0.002 0.588,-0.003 1.176,-0.004 0.588,-0.002 0.588,-0.002 1.176,-0.004 0.588,-10e-4 0.588,-0.002 0.588,-10e-4 1.176,-0.002 0.588,-10e-4 h 0.588 l 1.176,-0.001 h 0.588 l 0.588,0.001 h 0.588 l 1.176,0.003 0.588,10e-4 0.588,0.002 0.588,0.002 1.176,0.007 0.588,0.004 0.588,0.004 1.176,0.012 0.588,0.007 0.588,0.009 0.588,0.01 1.176,0.025 0.588,0.016 0.588,0.019 0.588,0.023 1.176,0.06 0.588,0.04 0.588,0.049 1.176,0.137 0.588,0.096 0.588,0.121 0.588,0.15 0.588,0.182 0.588,0.205 0.588,0.203 0.588,0.156 0.588,0.055 0.588,-0.062 0.588,-0.149 0.588,-0.183 0.588,-0.174 1.176,-0.257 0.588,-0.08 0.588,-0.051 0.588,-0.027 1.176,0.009 0.588,0.036 0.588,0.059 1.176,0.199 0.588,0.154 0.588,0.2 0.588,0.26 0.588,0.33 0.588,0.403 0.588,0.46 0.588,0.458 0.588,0.348 1.176,-0.056 0.588,-0.385 0.588,-0.474 0.588,-0.463 0.588,-0.401 0.588,-0.329 0.588,-0.261 0.588,-0.207 0.588,-0.164 0.588,-0.13 0.588,-0.104 0.588,-0.084 1.176,-0.124 0.588,-0.045 0.588,-0.038 0.588,-0.032 1.176,-0.047 0.588,-0.018 0.588,-0.014 0.588,-0.012 1.176,-0.015 0.588,-0.004 0.588,-0.003 1.176,0.002 0.588,0.004 0.588,0.006 0.588,0.008 1.176,0.024 0.588,0.017 0.588,0.019 0.588,0.024 1.176,0.063 0.588,0.041 0.588,0.05 1.176,0.134 0.588,0.091 0.588,0.113 0.588,0.141 1.176,0.399 0.588,0.276 0.588,0.329 0.588,0.366 0.588,0.352 0.588,0.252 0.588,0.069 0.588,-0.128 1.176,-0.563 0.588,-0.274 0.588,-0.217 0.588,-0.153 0.588,-0.092 0.588,-0.037 0.588,0.014 0.588,0.064 0.588,0.118 0.588,0.176 0.588,0.247 0.588,0.332 0.588,0.437 0.588,0.566 0.588,0.717 0.588,0.868 0.588,0.969 0.588,0.925 1.176,0.742 0.588,-0.472 0.588,-0.867 0.588,-1.002 0.588,-0.946 0.588,-0.809 0.588,-0.657 0.588,-0.524 0.588,-0.415 0.588,-0.329 0.588,-0.264 0.588,-0.212 0.588,-0.173 0.588,-0.143 0.588,-0.118 0.588,-0.1 0.588,-0.083 1.176,-0.134 h 0.588"
           style="fill:none;stroke:#00ff00;stroke-width:2;stroke-linecap:butt;stroke-linejoin:miter;stroke-miterlimit:10;stroke-dasharray:none;stroke-opacity:1"
           id="path42" /></g></g><g
       id="g44"><g
         id="g46"
         clip-path="url(#clipPath50)"><path
           d="m 59.25,40.583 0.588,0.039 0.588,0.044 1.176,0.106 0.588,0.063 0.588,0.071 1.176,0.174 0.588,0.105 0.588,0.122 0.588,0.14 1.176,0.354 0.588,0.226 0.588,0.269 0.588,0.322 1.176,0.868 0.588,0.591 0.588,0.736 0.588,0.924 0.588,1.163 0.588,1.453 0.588,1.773 0.588,2.051 0.588,2.131 0.588,1.791 0.588,0.915 0.588,-0.278 0.588,-1.294 0.588,-1.794 0.588,-1.805 0.588,-1.536 0.588,-1.171 0.588,-0.801 0.588,-0.458 0.588,-0.139 0.588,0.173 0.588,0.495 0.588,0.842 0.588,1.222 0.588,1.607 0.588,1.907 0.588,1.942 0.588,1.483 0.588,0.464 0.588,-0.802 0.588,-1.789 0.588,-2.22 0.588,-2.182 0.588,-1.906 0.588,-1.57 0.588,-1.258 0.588,-1.001 0.588,-0.797 0.588,-0.638 0.588,-0.516 0.588,-0.421 0.588,-0.348 0.588,-0.288 0.588,-0.243 0.588,-0.206 0.588,-0.175 0.588,-0.151 0.588,-0.131 0.588,-0.114 0.588,-0.1 1.176,-0.166 0.588,-0.069 0.588,-0.062 1.176,-0.105 0.588,-0.045 0.588,-0.04 0.588,-0.037 1.176,-0.064 0.588,-0.027 0.588,-0.025 0.588,-0.023 1.176,-0.04 0.588,-0.017 0.588,-0.016 1.176,-0.027 0.588,-0.012 0.588,-0.011 0.588,-0.009 1.176,-0.016 0.588,-0.006 0.588,-0.005 1.176,-0.008 0.588,-0.003 0.588,-10e-4 0.588,-10e-4 1.176,0.002 0.588,0.003 0.588,0.004 0.588,0.005 1.176,0.014 0.588,0.01 0.588,0.011 1.176,0.028 0.588,0.018 0.588,0.02 0.588,0.024 1.176,0.059 0.588,0.037 0.588,0.042 0.588,0.05 1.176,0.126 0.588,0.081 0.588,0.096 0.588,0.115 0.588,0.139 0.588,0.169 0.588,0.208 0.588,0.257 1.176,0.729 0.588,0.515 0.588,0.651 0.588,0.812 0.588,0.98 0.588,1.099 0.588,1.069 0.588,0.771 0.588,0.198 0.588,-0.459 0.588,-0.931 0.588,-1.11 0.588,-1.064 0.588,-0.915 0.588,-0.747 0.588,-0.595 0.588,-0.47 1.176,-0.671 0.588,-0.239 0.588,-0.194 0.588,-0.159 0.588,-0.132 0.588,-0.111 0.588,-0.093 0.588,-0.079 0.588,-0.067 1.176,-0.109 0.588,-0.044 0.588,-0.039 1.176,-0.065 0.588,-0.027 0.588,-0.024 0.588,-0.021 1.176,-0.037 0.588,-0.016 0.588,-0.015 1.176,-0.025 0.588,-0.011 0.588,-0.01 0.588,-0.01 1.176,-0.016 0.588,-0.007 0.588,-0.007 0.588,-0.006 1.176,-0.012 0.588,-0.005 0.588,-0.004 1.176,-0.009 0.588,-0.004 0.588,-0.003 0.588,-0.004 1.176,-0.005 0.588,-0.003 0.588,-0.003 0.588,-0.002 1.176,-0.004 0.588,-0.002 0.588,-0.002 1.176,-0.003 0.588,-0.002 0.588,-0.001 0.588,-10e-4 1.176,-0.002 0.588,-10e-4 0.588,-10e-4 0.588,-0.001 1.176,-10e-4 0.588,-10e-4 h 0.588 l 1.176,-0.001 h 0.588 0.588 l 0.588,-10e-4 h 1.176 0.588 0.588 l 1.176,10e-4 h 0.588 0.588 l 0.588,0.001 h 1.176 l 0.588,10e-4 h 0.588 l 0.588,10e-4 1.176,0.001 0.588,10e-4 0.588,10e-4 1.176,0.002 h 0.588 l 0.588,10e-4 0.588,0.001 1.176,0.003 0.588,10e-4 0.588,10e-4 0.588,0.001 1.176,0.003 0.588,0.002 0.588,0.001 1.176,0.003 0.588,0.002 0.588,0.002 0.588,10e-4 1.176,0.004 0.588,0.002 0.588,0.002 1.176,0.005 0.588,0.002 0.588,0.002 0.588,0.003 1.176,0.005 0.588,0.002 0.588,0.003 0.588,0.003 1.176,0.006 0.588,0.003 0.588,0.003 1.176,0.007 0.588,0.003 0.588,0.004 0.588,0.004 1.176,0.008 0.588,0.004 0.588,0.004 0.588,0.005 1.176,0.009 0.588,0.005 0.588,0.005 1.176,0.01 0.588,0.006 0.588,0.006 0.588,0.006 1.176,0.012 0.588,0.007 0.588,0.007 1.176,0.015 0.588,0.007 0.588,0.008 0.588,0.009 1.176,0.017 0.588,0.01 0.588,0.009 0.588,0.011 1.176,0.021 0.588,0.012 0.588,0.012 1.176,0.025 0.588,0.014 0.588,0.014 0.588,0.015 1.176,0.032 0.588,0.018 0.588,0.018 0.588,0.019 1.176,0.041 0.588,0.023 0.588,0.023 1.176,0.051 0.588,0.028 0.588,0.03 0.588,0.031 1.176,0.068 0.588,0.038 0.588,0.04 0.588,0.043 1.176,0.095 0.588,0.053 0.588,0.057 1.176,0.127 0.588,0.071 0.588,0.078 0.588,0.084 1.176,0.192 0.588,0.11 0.588,0.12 1.176,0.28 0.588,0.163 0.588,0.182 0.588,0.203 1.176,0.486 0.588,0.292 0.588,0.333 0.588,0.382 1.176,0.951 0.588,0.599 0.588,0.705 0.588,0.839 0.588,1.005 0.588,1.218 0.588,1.488 0.588,1.837 0.588,2.289 0.588,2.875 0.588,3.628 0.588,4.569 0.588,5.676 0.588,6.806 0.588,7.586 0.588,7.356 0.588,5.447 0.588,1.863 0.588,-2.295 0.588,-5.554 0.588,-7.139 0.588,-7.22 0.588,-6.416 0.588,-5.305 0.588,-4.235 0.588,-3.362 0.588,-2.71 0.588,-2.234 0.588,-1.863 0.588,-1.546 0.588,-1.269 0.588,-1.032 0.588,-0.834 0.588,-0.67 0.588,-0.534 0.588,-0.419 0.588,-0.32 0.588,-0.234 0.588,-0.155 0.588,-0.08 1.176,0.061 0.588,0.149 0.588,0.237 0.588,0.34 1.176,1.068 0.588,0.791 0.588,1.023 0.588,1.319 0.588,1.697 0.588,2.178 0.588,2.763 0.588,3.418 0.588,4.011 0.588,4.243 0.588,3.674 0.588,2.015 0.588,-0.413 0.588,-2.682 0.588,-4.011 0.588,-4.305 0.588,-3.938 0.588,-3.317 0.588,-2.681 0.588,-2.131 0.588,-1.687 0.588,-1.341 0.588,-1.073 0.588,-0.867 0.588,-0.705 0.588,-0.581 0.588,-0.48 0.588,-0.401 0.588,-0.338 0.588,-0.284 0.588,-0.242 1.176,-0.38 0.588,-0.148 0.588,-0.126 0.588,-0.105 1.176,-0.16 0.588,-0.056 0.588,-0.042 0.588,-0.028 1.176,-0.014 0.588,0.016 0.588,0.032 1.176,0.123 0.588,0.098 0.588,0.128 0.588,0.166 1.176,0.478 0.588,0.331 0.588,0.4 0.588,0.454 1.176,0.857 0.588,0.253 0.588,0.103 1.176,0.079 0.588,0.158 0.588,0.315 0.588,0.509 0.588,0.738 0.588,1.014 0.588,1.352 0.588,1.762 0.588,2.238 0.588,2.724 0.588,3.068 0.588,2.982 0.588,2.148 0.588,0.549 0.588,-1.288 0.588,-2.63 0.588,-3.158 0.588,-3.051 0.588,-2.64 0.588,-2.161 0.588,-1.725 0.588,-1.367 0.588,-1.085 0.588,-0.867 0.588,-0.698 0.588,-0.568 0.588,-0.467 0.588,-0.387 0.588,-0.325 0.588,-0.274 0.588,-0.234 0.588,-0.2 1.176,-0.325 0.588,-0.132 0.588,-0.116 1.176,-0.195 h 0.588"
           style="fill:none;stroke:#0000ff;stroke-width:2;stroke-linecap:butt;stroke-linejoin:miter;stroke-miterlimit:10;stroke-dasharray:none;stroke-opacity:1"
           id="path52" /></g></g><g
       id="g54"><g
         id="g56"
         clip-path="url(#clipPath60)"><path
           d="m 59.25,40.262 0.588,0.015 0.588,0.018 1.176,0.04 0.588,0.024 0.588,0.026 1.176,0.061 0.588,0.035 0.588,0.04 0.588,0.044 1.176,0.104 0.588,0.062 0.588,0.07 0.588,0.079 1.176,0.194 0.588,0.12 0.588,0.139 1.176,0.353 0.588,0.227 0.588,0.272 0.588,0.329 1.176,0.898 0.588,0.618 0.588,0.775 0.588,0.976 0.588,1.224 0.588,1.507 0.588,1.776 0.588,1.908 0.588,1.717 0.588,1.047 0.588,0.009 0.588,-0.984 0.588,-1.56 0.588,-1.663 0.588,-1.468 0.588,-1.151 0.588,-0.817 0.588,-0.502 0.588,-0.21 0.588,0.069 0.588,0.349 0.588,0.634 0.588,0.905 0.588,1.101 0.588,1.1 0.588,0.763 0.588,0.085 0.588,-0.692 0.588,-1.244 0.588,-1.442 0.588,-1.371 0.588,-1.179 0.588,-0.966 0.588,-0.773 0.588,-0.616 0.588,-0.492 1.176,-0.718 0.588,-0.264 0.588,-0.218 0.588,-0.183 1.176,-0.285 0.588,-0.112 0.588,-0.096 1.176,-0.157 0.588,-0.064 0.588,-0.057 0.588,-0.05 1.176,-0.083 0.588,-0.035 0.588,-0.032 0.588,-0.028 1.176,-0.048 0.588,-0.02 0.588,-0.019 1.176,-0.031 0.588,-0.013 0.588,-0.011 0.588,-0.011 1.176,-0.016 0.588,-0.007 0.588,-0.006 1.176,-0.008 0.588,-0.003 0.588,-0.001 0.588,-10e-4 1.176,10e-4 0.588,0.002 0.588,0.003 0.588,0.004 1.176,0.011 0.588,0.007 0.588,0.008 1.176,0.021 0.588,0.013 0.588,0.014 0.588,0.017 1.176,0.039 0.588,0.024 0.588,0.027 0.588,0.03 1.176,0.074 0.588,0.045 0.588,0.052 1.176,0.13 0.588,0.081 0.588,0.095 0.588,0.113 1.176,0.298 0.588,0.197 0.588,0.243 1.176,0.676 0.588,0.473 0.588,0.598 0.588,0.754 0.588,0.935 0.588,1.111 0.588,1.213 0.588,1.117 0.588,0.712 1.176,-0.612 0.588,-1.086 0.588,-1.207 0.588,-1.118 0.588,-0.945 0.588,-0.763 0.588,-0.605 0.588,-0.477 0.588,-0.377 0.588,-0.3 0.588,-0.241 0.588,-0.195 0.588,-0.159 1.176,-0.239 0.588,-0.09 0.588,-0.075 0.588,-0.064 0.588,-0.054 0.588,-0.045 0.588,-0.039 0.588,-0.032 1.176,-0.051 0.588,-0.02 0.588,-0.016 1.176,-0.024 0.588,-0.009 0.588,-0.007 0.588,-0.004 1.176,-0.005 0.588,0.001 0.588,10e-4 0.588,0.003 1.176,0.009 0.588,0.006 0.588,0.008 1.176,0.018 0.588,0.01 0.588,0.012 0.588,0.012 1.176,0.029 0.588,0.016 0.588,0.016 0.588,0.018 1.176,0.04 0.588,0.021 0.588,0.023 1.176,0.05 0.588,0.027 0.588,0.029 0.588,0.03 1.176,0.065 0.588,0.036 0.588,0.038 0.588,0.039 1.176,0.087 0.588,0.047 0.588,0.05 1.176,0.109 0.588,0.059 0.588,0.063 0.588,0.067 0.588,0.072 0.588,0.076 0.588,0.081 0.588,0.087 1.176,0.192 0.588,0.107 0.588,0.114 0.588,0.123 1.176,0.276 0.588,0.155 0.588,0.167 0.588,0.182 1.176,0.414 0.588,0.236 0.588,0.258 1.176,0.598 0.588,0.346 0.588,0.384 0.588,0.428 0.588,0.478 0.588,0.536 0.588,0.604 0.588,0.685 0.588,0.778 0.588,0.891 0.588,1.025 0.588,1.188 0.588,1.384 0.588,1.626 0.588,1.926 0.588,2.299 0.588,2.77 0.588,3.368 0.588,4.137 0.588,5.127 0.588,6.408 0.588,8.051 0.588,10.116 0.588,12.579 0.588,15.201 0.588,17.316 0.588,17.724 0.588,15.16 0.588,9.446 0.588,2.143 0.588,-4.565 0.588,-9.407 0.588,-12.283 0.588,-13.637 0.588,-13.931 0.588,-13.475 0.588,-12.453 0.588,-11.023 0.588,-9.391 0.588,-7.773 0.588,-6.327 0.588,-5.118 0.588,-4.145 0.588,-3.376 0.588,-2.773 0.588,-2.296 0.588,-1.919 0.588,-1.618 0.588,-1.375 0.588,-1.177 0.588,-1.016 0.588,-0.882 0.588,-0.77 0.588,-0.677 0.588,-0.597 1.176,-1.002 0.588,-0.423 0.588,-0.38 1.176,-0.652 0.588,-0.282 0.588,-0.256 0.588,-0.233 1.176,-0.41 0.588,-0.181 0.588,-0.166 0.588,-0.154 1.176,-0.274 0.588,-0.122 0.588,-0.114 1.176,-0.206 0.588,-0.092 0.588,-0.087 0.588,-0.081 1.176,-0.148 0.588,-0.068 0.588,-0.063 0.588,-0.06 1.176,-0.11 0.588,-0.05 0.588,-0.048 1.176,-0.088 0.588,-0.041 0.588,-0.038 0.588,-0.037 1.176,-0.067 0.588,-0.032 0.588,-0.029 0.588,-0.029 1.176,-0.052 0.588,-0.025 0.588,-0.023 1.176,-0.043 0.588,-0.02 0.588,-0.02 0.588,-0.018 1.176,-0.033 0.588,-0.016 0.588,-0.014 1.176,-0.027 0.588,-0.012 0.588,-0.012 0.588,-0.011 1.176,-0.019 0.588,-0.008 0.588,-0.008 0.588,-0.007 1.176,-0.011 0.588,-0.004 0.588,-0.003 1.176,-0.003 h 0.588 l 0.588,10e-4 0.588,0.004 1.176,0.011 0.588,0.01 0.588,0.012 0.588,0.015 1.176,0.043 0.588,0.03 0.588,0.038 1.176,0.107 0.588,0.075 0.588,0.096 0.588,0.12 1.176,0.328 0.588,0.197 0.588,0.189 1.176,0.168 0.588,-0.071 0.588,-0.139 0.588,-0.157 1.176,-0.248 0.588,-0.072 0.588,-0.038 0.588,-0.007 1.176,0.075 0.588,0.084 0.588,0.118 1.176,0.373 0.588,0.276 0.588,0.357 0.588,0.458 0.588,0.578 0.588,0.703 0.588,0.796 0.588,0.783 0.588,0.578 1.176,-0.147 0.588,-0.673 0.588,-0.814 0.588,-0.786 0.588,-0.679 0.588,-0.555 0.588,-0.442 0.588,-0.349 0.588,-0.276 0.588,-0.219 0.588,-0.176 0.588,-0.141 1.176,-0.21 0.588,-0.078 0.588,-0.064 0.588,-0.054 1.176,-0.081 0.588,-0.031 0.588,-0.025 0.588,-0.02 1.176,-0.028 0.588,-0.009 0.588,-0.005 1.176,-10e-4 0.588,0.003 0.588,0.007 0.588,0.01 1.176,0.03 0.588,0.021 0.588,0.025 0.588,0.029 1.176,0.076 0.588,0.049 0.588,0.057 1.176,0.147 0.588,0.096 0.588,0.115 0.588,0.139 1.176,0.379 0.588,0.257 0.588,0.316 0.588,0.38 1.176,0.898 0.588,0.414 0.588,0.286 1.176,0.127 0.588,-0.007 0.588,0.07 0.588,0.208 0.588,0.385 0.588,0.597 0.588,0.844 0.588,1.134 0.588,1.45 0.588,1.743 0.588,1.881 0.588,1.665 0.588,0.939 0.588,-0.169 0.588,-1.223 0.588,-1.834 0.588,-1.959 0.588,-1.784 0.588,-1.495 0.588,-1.206 0.588,-0.958 0.588,-0.759 1.176,-1.087 0.588,-0.391 0.588,-0.32 0.588,-0.264 0.588,-0.219 0.588,-0.185 0.588,-0.157 0.588,-0.133 0.588,-0.115 0.588,-0.1 0.588,-0.087 0.588,-0.076 0.588,-0.067 1.176,-0.112 h 0.588"
           style="fill:none;stroke:#00ffff;stroke-width:2;stroke-linecap:butt;stroke-linejoin:miter;stroke-miterlimit:10;stroke-dasharray:none;stroke-opacity:1"
           id="path62" /></g></g><g
       id="g64"><path
         d="m 11.25,62.016 v 1.371 H 5.566 l 0.153,-0.211 4.347,2.238 v 1.09 L 5.719,68.672 5.59,68.543 h 5.66 v 1.371 H 3.609 v -1.371 l 5.59,-2.848 v 0.668 l -5.59,-2.941 v -1.406 h 7.641 m 0.105,12.726 c 0,1.688 -1.148,2.824 -2.859,2.824 -1.641,0 -2.707,-1.043 -2.707,-2.648 0,-1.699 1.149,-2.824 2.871,-2.824 1.629,0 2.695,1.031 2.695,2.648 m -1.183,0.129 c 0,-0.832 -0.633,-1.359 -1.629,-1.359 -0.961,0 -1.57,0.492 -1.57,1.277 0,0.82 0.656,1.359 1.652,1.359 0.949,0 1.547,-0.492 1.547,-1.277 m 1.16,6.551 c 0,0.34 -0.082,0.726 -0.199,1.019 l -0.938,-0.293 c 0.035,-0.117 0.059,-0.234 0.059,-0.339 0,-0.329 -0.211,-0.504 -0.586,-0.504 H 3.117 v -1.383 h 6.727 c 0.926,0 1.488,0.562 1.488,1.5 m -0.082,5.613 v 0.996 H 8.027 c -1.441,0 -2.238,-0.82 -2.238,-2.402 0,-0.762 0.188,-1.582 0.516,-2.215 l 0.972,0.34 c -0.211,0.551 -0.328,1.09 -0.328,1.582 0,0.855 0.328,1.312 0.973,1.312 h 2.297 l 1.031,0.387 m 0.105,-1.875 c 0,1.184 -0.667,2.028 -1.828,2.297 L 9.316,87 c 0.575,-0.188 0.938,-0.727 0.938,-1.371 0,-0.539 -0.27,-0.902 -0.68,-0.902 -0.515,0 -0.726,0.609 -0.726,2.168 H 8.074 c 0,-2.485 0.516,-3.586 1.699,-3.586 0.961,0 1.582,0.726 1.582,1.851 m -0.105,5.262 v 1.406 H 7.57 L 5.895,91.535 v -1.113 h 5.355 m -3.047,1.137 c -0.656,0.293 -1.043,0.879 -1.043,1.535 0,0.222 0.047,0.48 0.117,0.679 l -1.289,0.329 c -0.093,-0.235 -0.14,-0.516 -0.14,-0.797 0,-0.703 0.375,-1.36 1.019,-1.746 h 1.336 m 3.047,6.316 v 1.512 l -6.914,2.25 v -0.317 l 6.914,2.239 v 1.57 l -7.641,-2.637 v -1.828 l 7.641,-2.789 m -1.91,1.793 v 3.656 L 8.074,103.113 V 99.855 L 9.34,99.668 m 2.015,9.902 c 0,1.5 -1.136,2.508 -2.835,2.508 -1.641,0 -2.731,-0.949 -2.731,-2.355 0,-0.985 0.527,-1.7 1.418,-2.051 l 0.527,0.422 c -0.504,0.199 -0.761,0.644 -0.761,1.172 0,0.867 0.632,1.394 1.64,1.394 0.961,0 1.559,-0.48 1.559,-1.277 0,-0.563 -0.293,-1.02 -0.785,-1.254 l 0.715,-0.481 c 0.82,0.329 1.253,0.985 1.253,1.922 m -0.105,-2.648 v 0.89 l -0.973,0.469 h -7.16 v -1.359 h 8.133 m 0.105,9.258 c 0,1.465 -0.644,2.332 -1.71,2.332 -2.004,0 -1.336,-3.024 -2.239,-3.024 -0.316,0 -0.515,0.375 -0.515,1.032 0,0.445 0.082,0.972 0.222,1.464 l -1.043,0.293 c -0.187,-0.492 -0.281,-1.125 -0.281,-1.722 0,-1.535 0.621,-2.426 1.711,-2.426 1.992,0 1.242,2.988 2.215,2.988 0.34,0 0.551,-0.363 0.551,-0.961 0,-0.515 -0.141,-1.23 -0.364,-1.793 l 1.043,-0.316 c 0.258,0.621 0.41,1.394 0.41,2.133 m 0,6.562 c 0,1.688 -1.148,2.824 -2.859,2.824 -1.641,0 -2.707,-1.043 -2.707,-2.648 0,-1.699 1.149,-2.824 2.871,-2.824 1.629,0 2.695,1.031 2.695,2.648 m -1.183,0.129 c 0,-0.832 -0.633,-1.359 -1.629,-1.359 -0.961,0 -1.57,0.492 -1.57,1.277 0,0.82 0.656,1.359 1.652,1.359 0.949,0 1.547,-0.492 1.547,-1.277 m 1.078,5.051 v 1.406 H 7.57 l -1.675,-0.293 v -1.113 h 5.355 m -3.047,1.137 c -0.656,0.293 -1.043,0.879 -1.043,1.535 0,0.222 0.047,0.48 0.117,0.679 l -1.289,0.329 c -0.093,-0.235 -0.14,-0.516 -0.14,-0.797 0,-0.703 0.375,-1.36 1.019,-1.746 h 1.336 m 3.152,6.796 c 0,1.442 -1.183,2.473 -2.859,2.473 -1.594,0 -2.707,-0.961 -2.707,-2.332 0,-0.844 0.434,-1.558 1.16,-1.957 l 0.645,0.352 c -0.387,0.281 -0.621,0.726 -0.621,1.207 0,0.808 0.632,1.312 1.629,1.312 0.96,0 1.57,-0.469 1.57,-1.242 0,-0.586 -0.352,-1.09 -0.902,-1.277 l 0.82,-0.399 c 0.808,0.305 1.265,0.985 1.265,1.863 m 2.286,-2.683 v 1.359 H 6.879 l -0.984,-0.41 v -0.949 h 7.746 m -2.309,9.621 c 0,0.363 -0.07,0.762 -0.187,1.102 l -1.008,-0.282 c 0.07,-0.152 0.105,-0.351 0.105,-0.515 0,-0.504 -0.293,-0.821 -0.762,-0.821 H 4.348 v -1.394 h 5.226 c 1.078,0 1.758,0.715 1.758,1.91 M 7.02,140.145 v 3.468 H 5.895 v -3.468 H 7.02 m 4.23,5.027 v 1.406 H 5.895 v -1.406 h 5.355 m -6.34,0.703 c 0,0.527 -0.34,0.867 -0.855,0.867 -0.539,0 -0.879,-0.34 -0.879,-0.867 0,-0.516 0.34,-0.855 0.879,-0.855 0.515,0 0.855,0.339 0.855,0.855 m 6.445,5.367 c 0,1.688 -1.148,2.824 -2.859,2.824 -1.641,0 -2.707,-1.043 -2.707,-2.648 0,-1.699 1.149,-2.824 2.871,-2.824 1.629,0 2.695,1.031 2.695,2.648 m -1.183,0.129 c 0,-0.832 -0.633,-1.359 -1.629,-1.359 -0.961,0 -1.57,0.492 -1.57,1.277 0,0.82 0.656,1.359 1.652,1.359 0.949,0 1.547,-0.492 1.547,-1.277 m 1.078,8.578 v 1.406 H 7.957 c -1.336,0 -2.145,-0.75 -2.145,-1.957 0,-0.773 0.34,-1.488 0.938,-1.98 l 0.855,0.199 c -0.375,0.363 -0.574,0.809 -0.574,1.301 0,0.68 0.387,1.031 1.114,1.031 h 3.105 m 0,-3.527 v 1.406 H 6.844 L 5.895,157.43 v -1.008 h 5.355 m 2.086,11.883 -0.598,0.996 c -1.254,-0.821 -2.812,-1.242 -4.617,-1.242 -1.605,0 -3.082,0.398 -4.559,1.23 L 3,168.27 c 1.582,-1.043 3.375,-1.571 5.191,-1.571 1.993,0 3.704,0.539 5.145,1.606 m -2.086,3.211 v 4.711 H 9.996 v -3.282 H 3.609 v -1.429 h 7.641 m 0.105,7.347 c 0,0.575 -0.398,0.949 -0.937,0.949 -0.563,0 -0.961,-0.374 -0.961,-0.949 0,-0.562 0.398,-0.937 0.961,-0.937 0.539,0 0.937,0.375 0.937,0.937 m -0.105,10.805 v 1.406 H 7.957 c -1.336,0 -2.145,-0.738 -2.145,-1.945 0,-0.762 0.34,-1.477 0.938,-1.969 l 0.855,0.211 c -0.375,0.352 -0.574,0.785 -0.574,1.277 0,0.68 0.387,1.02 1.114,1.02 h 3.105 m 0,-6.996 v 1.406 H 6.844 L 5.895,183.68 v -1.008 h 5.355 m 0,3.504 v 1.394 H 7.957 c -1.336,0 -2.145,-0.738 -2.145,-1.933 0,-0.774 0.34,-1.477 0.938,-1.969 l 0.855,0.199 c -0.375,0.352 -0.574,0.797 -0.574,1.278 0,0.679 0.387,1.031 1.114,1.031 h 3.105 m 0.105,10.066 c 0,1.688 -1.148,2.824 -2.859,2.824 -1.641,0 -2.707,-1.043 -2.707,-2.648 0,-1.699 1.149,-2.824 2.871,-2.824 1.629,0 2.695,1.031 2.695,2.648 m -1.183,0.129 c 0,-0.832 -0.633,-1.359 -1.629,-1.359 -0.961,0 -1.57,0.492 -1.57,1.277 0,0.82 0.656,1.359 1.652,1.359 0.949,0 1.547,-0.492 1.547,-1.277 m 1.16,6.551 c 0,0.34 -0.082,0.726 -0.199,1.019 l -0.938,-0.293 c 0.035,-0.117 0.059,-0.234 0.059,-0.339 0,-0.329 -0.211,-0.504 -0.586,-0.504 H 3.117 v -1.383 h 6.727 c 0.926,0 1.488,0.562 1.488,1.5"
         style="fill:#000000;fill-opacity:1;fill-rule:nonzero;stroke:none"
         id="path66" /></g><g
       id="g68"><path
         d="m 5.32,204.773 v 2.075 H 4.582 v -2.075 H 5.32 m 1.442,4.149 v 0.89 H 1.898 v -0.527 l 0.938,-1.851 0.633,0.339 -0.645,1.43 -0.281,-0.281 h 4.219"
         style="fill:#000000;fill-opacity:1;fill-rule:nonzero;stroke:none"
         id="path70" /></g><g
       id="g72"><path
         d="m 11.355,211.863 c 0,0.575 -0.398,0.949 -0.937,0.949 -0.563,0 -0.961,-0.374 -0.961,-0.949 0,-0.562 0.398,-0.937 0.961,-0.937 0.539,0 0.937,0.375 0.937,0.937 m 0,6.153 c 0,0.656 -0.14,1.265 -0.41,1.769 l -0.972,-0.316 c 0.164,-0.375 0.257,-0.785 0.257,-1.137 0,-0.996 -0.621,-1.559 -1.687,-1.559 -1.008,0 -1.57,0.504 -1.57,1.465 0,0.387 0.093,0.844 0.246,1.231 l -1.102,0.293 c -0.211,-0.457 -0.328,-1.02 -0.328,-1.571 0,-1.722 1.149,-2.847 2.906,-2.847 1.676,0 2.66,0.996 2.66,2.672 m -0.105,10.652 v 1.406 H 7.957 c -1.336,0 -2.145,-0.738 -2.145,-1.945 0,-0.762 0.34,-1.477 0.938,-1.969 l 0.855,0.211 c -0.375,0.352 -0.574,0.785 -0.574,1.277 0,0.68 0.387,1.02 1.114,1.02 h 3.105 m 0,-6.996 v 1.406 H 6.844 L 5.895,222.68 v -1.008 h 5.355 m 0,3.504 v 1.394 H 7.957 c -1.336,0 -2.145,-0.738 -2.145,-1.933 0,-0.774 0.34,-1.477 0.938,-1.969 l 0.855,0.199 c -0.375,0.352 -0.574,0.797 -0.574,1.278 0,0.679 0.387,1.031 1.114,1.031 h 3.105"
         style="fill:#000000;fill-opacity:1;fill-rule:nonzero;stroke:none"
         id="path74" /></g><g
       id="g76"><path
         d="m 5.32,232.523 v 2.075 H 4.582 v -2.075 H 5.32 m 1.442,4.149 v 0.89 H 1.898 v -0.527 l 0.938,-1.851 0.633,0.339 -0.645,1.43 -0.281,-0.281 h 4.219"
         style="fill:#000000;fill-opacity:1;fill-rule:nonzero;stroke:none"
         id="path78" /></g><g
       id="g80"><path
         d="m 13.336,239.484 c -1.441,1.067 -3.152,1.606 -5.145,1.606 -1.816,0 -3.609,-0.528 -5.191,-1.57 l 0.562,-1.02 c 1.477,0.832 2.954,1.23 4.559,1.23 1.805,0 3.363,-0.421 4.617,-1.242 z"
         style="fill:#000000;fill-opacity:1;fill-rule:nonzero;stroke:none"
         id="path82" /></g><g
       id="g84"><path
         d="m 52.113,35.895 c 1.699,0 2.754,1.488 2.754,3.984 0,2.391 -1.019,3.867 -2.683,3.867 -1.723,0 -2.801,-1.5 -2.801,-3.984 0,-2.403 1.043,-3.867 2.73,-3.867 m 0.059,0.773 c -1.149,0 -1.863,1.207 -1.863,3.211 0,1.922 0.703,3.094 1.804,3.094 1.125,0 1.828,-1.219 1.828,-3.211 0,-1.922 -0.668,-3.094 -1.769,-3.094"
         style="fill:#000000;fill-opacity:1;fill-rule:nonzero;stroke:none"
         id="path86" /></g><g
       id="g88"><path
         d="m 29.684,92.145 c 1.699,0 2.847,0.96 2.847,2.46 0,1.43 -1.043,2.333 -2.754,2.333 -0.422,0 -0.843,-0.047 -1.23,-0.141 l 0.223,-0.281 0.128,2.589 h 3.27 v 0.786 h -4.102 l -0.187,-3.914 c 0.492,0.117 1.137,0.187 1.617,0.187 1.301,0 2.098,-0.598 2.098,-1.641 0,-0.984 -0.727,-1.582 -1.852,-1.582 -0.656,0 -1.383,0.188 -1.957,0.493 l -0.269,-0.727 c 0.679,-0.363 1.394,-0.562 2.168,-0.562 m 3.843,-1.805 h 0.797 c 0.387,0.949 0.598,2.133 0.598,3.222 h -0.949 c 0,-1.113 -0.164,-2.308 -0.446,-3.222 m 5.086,1.805 c 1.699,0 2.754,1.488 2.754,3.984 0,2.391 -1.019,3.867 -2.683,3.867 -1.723,0 -2.801,-1.5 -2.801,-3.984 0,-2.403 1.043,-3.867 2.73,-3.867 m 0.059,0.773 c -1.149,0 -1.863,1.207 -1.863,3.211 0,1.922 0.703,3.094 1.804,3.094 1.125,0 1.828,-1.219 1.828,-3.211 0,-1.922 -0.668,-3.094 -1.769,-3.094 m 6.691,-0.773 c 1.699,0 2.754,1.488 2.754,3.984 0,2.391 -1.019,3.867 -2.683,3.867 -1.723,0 -2.801,-1.5 -2.801,-3.984 0,-2.403 1.043,-3.867 2.73,-3.867 m 0.059,0.773 c -1.149,0 -1.863,1.207 -1.863,3.211 0,1.922 0.703,3.094 1.804,3.094 1.125,0 1.828,-1.219 1.828,-3.211 0,-1.922 -0.668,-3.094 -1.769,-3.094 m 6.691,-0.773 c 1.699,0 2.754,1.488 2.754,3.984 0,2.391 -1.019,3.867 -2.683,3.867 -1.723,0 -2.801,-1.5 -2.801,-3.984 0,-2.403 1.043,-3.867 2.73,-3.867 m 0.059,0.773 c -1.149,0 -1.863,1.207 -1.863,3.211 0,1.922 0.703,3.094 1.804,3.094 1.125,0 1.828,-1.219 1.828,-3.211 0,-1.922 -0.668,-3.094 -1.769,-3.094"
         style="fill:#000000;fill-opacity:1;fill-rule:nonzero;stroke:none"
         id="path90" /></g><g
       id="g92"><path
         d="m 24.199,147.691 h 0.879 v 7.7 h -0.527 l -2.719,-1.407 0.328,-0.632 2.332,1.113 -0.293,0.281 v -7.055 m 5.414,-0.046 c 1.699,0 2.754,1.488 2.754,3.984 0,2.391 -1.019,3.867 -2.683,3.867 -1.723,0 -2.801,-1.5 -2.801,-3.984 0,-2.403 1.043,-3.867 2.73,-3.867 m 0.059,0.773 c -1.149,0 -1.863,1.207 -1.863,3.211 0,1.922 0.703,3.094 1.804,3.094 1.125,0 1.828,-1.219 1.828,-3.211 0,-1.922 -0.668,-3.094 -1.769,-3.094 m 3.855,-2.578 h 0.797 c 0.387,0.949 0.598,2.133 0.598,3.222 h -0.949 c 0,-1.113 -0.164,-2.308 -0.446,-3.222 m 5.086,1.805 c 1.699,0 2.754,1.488 2.754,3.984 0,2.391 -1.019,3.867 -2.683,3.867 -1.723,0 -2.801,-1.5 -2.801,-3.984 0,-2.403 1.043,-3.867 2.73,-3.867 m 0.059,0.773 c -1.149,0 -1.863,1.207 -1.863,3.211 0,1.922 0.703,3.094 1.804,3.094 1.125,0 1.828,-1.219 1.828,-3.211 0,-1.922 -0.668,-3.094 -1.769,-3.094 m 6.691,-0.773 c 1.699,0 2.754,1.488 2.754,3.984 0,2.391 -1.019,3.867 -2.683,3.867 -1.723,0 -2.801,-1.5 -2.801,-3.984 0,-2.403 1.043,-3.867 2.73,-3.867 m 0.059,0.773 c -1.149,0 -1.863,1.207 -1.863,3.211 0,1.922 0.703,3.094 1.804,3.094 1.125,0 1.828,-1.219 1.828,-3.211 0,-1.922 -0.668,-3.094 -1.769,-3.094 m 6.691,-0.773 c 1.699,0 2.754,1.488 2.754,3.984 0,2.391 -1.019,3.867 -2.683,3.867 -1.723,0 -2.801,-1.5 -2.801,-3.984 0,-2.403 1.043,-3.867 2.73,-3.867 m 0.059,0.773 c -1.149,0 -1.863,1.207 -1.863,3.211 0,1.922 0.703,3.094 1.804,3.094 1.125,0 1.828,-1.219 1.828,-3.211 0,-1.922 -0.668,-3.094 -1.769,-3.094"
         style="fill:#000000;fill-opacity:1;fill-rule:nonzero;stroke:none"
         id="path94" /></g><g
       id="g96"><path
         d="m 24.949,203.941 h 0.879 v 7.7 h -0.527 l -2.719,-1.407 0.328,-0.632 2.332,1.113 -0.293,0.281 v -7.055 m 4.735,-0.046 c 1.699,0 2.847,0.96 2.847,2.46 0,1.43 -1.043,2.333 -2.754,2.333 -0.422,0 -0.843,-0.047 -1.23,-0.141 l 0.223,-0.281 0.128,2.589 h 3.27 v 0.786 h -4.102 l -0.187,-3.914 c 0.492,0.117 1.137,0.187 1.617,0.187 1.301,0 2.098,-0.598 2.098,-1.641 0,-0.984 -0.727,-1.582 -1.852,-1.582 -0.656,0 -1.383,0.188 -1.957,0.493 l -0.269,-0.727 c 0.679,-0.363 1.394,-0.562 2.168,-0.562 m 3.843,-1.805 h 0.797 c 0.387,0.949 0.598,2.133 0.598,3.222 h -0.949 c 0,-1.113 -0.164,-2.308 -0.446,-3.222 m 5.086,1.805 c 1.699,0 2.754,1.488 2.754,3.984 0,2.391 -1.019,3.867 -2.683,3.867 -1.723,0 -2.801,-1.5 -2.801,-3.984 0,-2.403 1.043,-3.867 2.73,-3.867 m 0.059,0.773 c -1.149,0 -1.863,1.207 -1.863,3.211 0,1.922 0.703,3.094 1.804,3.094 1.125,0 1.828,-1.219 1.828,-3.211 0,-1.922 -0.668,-3.094 -1.769,-3.094 m 6.691,-0.773 c 1.699,0 2.754,1.488 2.754,3.984 0,2.391 -1.019,3.867 -2.683,3.867 -1.723,0 -2.801,-1.5 -2.801,-3.984 0,-2.403 1.043,-3.867 2.73,-3.867 m 0.059,0.773 c -1.149,0 -1.863,1.207 -1.863,3.211 0,1.922 0.703,3.094 1.804,3.094 1.125,0 1.828,-1.219 1.828,-3.211 0,-1.922 -0.668,-3.094 -1.769,-3.094 m 6.691,-0.773 c 1.699,0 2.754,1.488 2.754,3.984 0,2.391 -1.019,3.867 -2.683,3.867 -1.723,0 -2.801,-1.5 -2.801,-3.984 0,-2.403 1.043,-3.867 2.73,-3.867 m 0.059,0.773 c -1.149,0 -1.863,1.207 -1.863,3.211 0,1.922 0.703,3.094 1.804,3.094 1.125,0 1.828,-1.219 1.828,-3.211 0,-1.922 -0.668,-3.094 -1.769,-3.094"
         style="fill:#000000;fill-opacity:1;fill-rule:nonzero;stroke:none"
         id="path98" /></g><g
       id="g100"><path
         d="m 20.754,260.25 h 4.851 v 0.797 h -3.914 l 0.118,-0.27 c 2.613,2.461 3.492,3.739 3.492,5.063 0,1.348 -0.914,2.156 -2.321,2.156 -0.914,0 -1.781,-0.328 -2.343,-0.867 l 0.246,-0.633 c 0.586,0.469 1.312,0.703 1.91,0.703 0.984,0 1.582,-0.586 1.582,-1.5 0,-1.113 -0.891,-2.261 -3.621,-4.84 v -0.609 m 8.859,-0.105 c 1.699,0 2.754,1.488 2.754,3.984 0,2.391 -1.019,3.867 -2.683,3.867 -1.723,0 -2.801,-1.5 -2.801,-3.984 0,-2.403 1.043,-3.867 2.73,-3.867 m 0.059,0.773 c -1.149,0 -1.863,1.207 -1.863,3.211 0,1.922 0.703,3.094 1.804,3.094 1.125,0 1.828,-1.219 1.828,-3.211 0,-1.922 -0.668,-3.094 -1.769,-3.094 m 3.855,-2.578 h 0.797 c 0.387,0.949 0.598,2.133 0.598,3.222 h -0.949 c 0,-1.113 -0.164,-2.308 -0.446,-3.222 m 5.086,1.805 c 1.699,0 2.754,1.488 2.754,3.984 0,2.391 -1.019,3.867 -2.683,3.867 -1.723,0 -2.801,-1.5 -2.801,-3.984 0,-2.403 1.043,-3.867 2.73,-3.867 m 0.059,0.773 c -1.149,0 -1.863,1.207 -1.863,3.211 0,1.922 0.703,3.094 1.804,3.094 1.125,0 1.828,-1.219 1.828,-3.211 0,-1.922 -0.668,-3.094 -1.769,-3.094 m 6.691,-0.773 c 1.699,0 2.754,1.488 2.754,3.984 0,2.391 -1.019,3.867 -2.683,3.867 -1.723,0 -2.801,-1.5 -2.801,-3.984 0,-2.403 1.043,-3.867 2.73,-3.867 m 0.059,0.773 c -1.149,0 -1.863,1.207 -1.863,3.211 0,1.922 0.703,3.094 1.804,3.094 1.125,0 1.828,-1.219 1.828,-3.211 0,-1.922 -0.668,-3.094 -1.769,-3.094 m 6.691,-0.773 c 1.699,0 2.754,1.488 2.754,3.984 0,2.391 -1.019,3.867 -2.683,3.867 -1.723,0 -2.801,-1.5 -2.801,-3.984 0,-2.403 1.043,-3.867 2.73,-3.867 m 0.059,0.773 c -1.149,0 -1.863,1.207 -1.863,3.211 0,1.922 0.703,3.094 1.804,3.094 1.125,0 1.828,-1.219 1.828,-3.211 0,-1.922 -0.668,-3.094 -1.769,-3.094"
         style="fill:#000000;fill-opacity:1;fill-rule:nonzero;stroke:none"
         id="path102" /></g><g
       id="g104"><path
         d="M 59.25,95.812 H 60"
         style="fill:none;stroke:#000000;stroke-width:1;stroke-linecap:square;stroke-linejoin:bevel;stroke-miterlimit:10;stroke-dasharray:none;stroke-opacity:1"
         id="path106" /></g><g
       id="g108"><path
         d="M 59.25,151.875 H 60"
         style="fill:none;stroke:#000000;stroke-width:1;stroke-linecap:square;stroke-linejoin:bevel;stroke-miterlimit:10;stroke-dasharray:none;stroke-opacity:1"
         id="path110" /></g><g
       id="g112"><path
         d="M 59.25,207.938 H 60"
         style="fill:none;stroke:#000000;stroke-width:1;stroke-linecap:square;stroke-linejoin:bevel;stroke-miterlimit:10;stroke-dasharray:none;stroke-opacity:1"
         id="path114" /></g><g
       id="g116"><path
         d="M 59.25,264 V 39.75"
         style="fill:none;stroke:#000000;stroke-width:1;stroke-linecap:square;stroke-linejoin:bevel;stroke-miterlimit:10;stroke-dasharray:none;stroke-opacity:1"
         id="path118" /></g><g
       id="g120"><path
         d="M 59.25,95.812 H 66"
         style="fill:none;stroke:#000000;stroke-width:1;stroke-linecap:square;stroke-linejoin:bevel;stroke-miterlimit:10;stroke-dasharray:none;stroke-opacity:1"
         id="path122" /></g><g
       id="g124"><path
         d="M 59.25,151.875 H 66"
         style="fill:none;stroke:#000000;stroke-width:1;stroke-linecap:square;stroke-linejoin:bevel;stroke-miterlimit:10;stroke-dasharray:none;stroke-opacity:1"
         id="path126" /></g><g
       id="g128"><path
         d="M 59.25,207.938 H 66"
         style="fill:none;stroke:#000000;stroke-width:1;stroke-linecap:square;stroke-linejoin:bevel;stroke-miterlimit:10;stroke-dasharray:none;stroke-opacity:1"
         id="path130" /></g><g
       id="g132"><path
         d="M 59.25,50.962 H 63"
         style="fill:none;stroke:#000000;stroke-width:1;stroke-linecap:square;stroke-linejoin:bevel;stroke-miterlimit:10;stroke-dasharray:none;stroke-opacity:1"
         id="path134" /></g><g
       id="g136"><path
         d="M 59.25,62.175 H 63"
         style="fill:none;stroke:#000000;stroke-width:1;stroke-linecap:square;stroke-linejoin:bevel;stroke-miterlimit:10;stroke-dasharray:none;stroke-opacity:1"
         id="path138" /></g><g
       id="g140"><path
         d="M 59.25,73.387 H 63"
         style="fill:none;stroke:#000000;stroke-width:1;stroke-linecap:square;stroke-linejoin:bevel;stroke-miterlimit:10;stroke-dasharray:none;stroke-opacity:1"
         id="path142" /></g><g
       id="g144"><path
         d="M 59.25,84.6 H 63"
         style="fill:none;stroke:#000000;stroke-width:1;stroke-linecap:square;stroke-linejoin:bevel;stroke-miterlimit:10;stroke-dasharray:none;stroke-opacity:1"
         id="path146" /></g><g
       id="g148"><path
         d="M 59.25,107.025 H 63"
         style="fill:none;stroke:#000000;stroke-width:1;stroke-linecap:square;stroke-linejoin:bevel;stroke-miterlimit:10;stroke-dasharray:none;stroke-opacity:1"
         id="path150" /></g><g
       id="g152"><path
         d="M 59.25,118.237 H 63"
         style="fill:none;stroke:#000000;stroke-width:1;stroke-linecap:square;stroke-linejoin:bevel;stroke-miterlimit:10;stroke-dasharray:none;stroke-opacity:1"
         id="path154" /></g><g
       id="g156"><path
         d="M 59.25,129.45 H 63"
         style="fill:none;stroke:#000000;stroke-width:1;stroke-linecap:square;stroke-linejoin:bevel;stroke-miterlimit:10;stroke-dasharray:none;stroke-opacity:1"
         id="path158" /></g><g
       id="g160"><path
         d="M 59.25,140.662 H 63"
         style="fill:none;stroke:#000000;stroke-width:1;stroke-linecap:square;stroke-linejoin:bevel;stroke-miterlimit:10;stroke-dasharray:none;stroke-opacity:1"
         id="path162" /></g><g
       id="g164"><path
         d="M 59.25,163.087 H 63"
         style="fill:none;stroke:#000000;stroke-width:1;stroke-linecap:square;stroke-linejoin:bevel;stroke-miterlimit:10;stroke-dasharray:none;stroke-opacity:1"
         id="path166" /></g><g
       id="g168"><path
         d="M 59.25,174.3 H 63"
         style="fill:none;stroke:#000000;stroke-width:1;stroke-linecap:square;stroke-linejoin:bevel;stroke-miterlimit:10;stroke-dasharray:none;stroke-opacity:1"
         id="path170" /></g><g
       id="g172"><path
         d="M 59.25,185.512 H 63"
         style="fill:none;stroke:#000000;stroke-width:1;stroke-linecap:square;stroke-linejoin:bevel;stroke-miterlimit:10;stroke-dasharray:none;stroke-opacity:1"
         id="path174" /></g><g
       id="g176"><path
         d="M 59.25,196.725 H 63"
         style="fill:none;stroke:#000000;stroke-width:1;stroke-linecap:square;stroke-linejoin:bevel;stroke-miterlimit:10;stroke-dasharray:none;stroke-opacity:1"
         id="path178" /></g><g
       id="g180"><path
         d="M 59.25,219.15 H 63"
         style="fill:none;stroke:#000000;stroke-width:1;stroke-linecap:square;stroke-linejoin:bevel;stroke-miterlimit:10;stroke-dasharray:none;stroke-opacity:1"
         id="path182" /></g><g
       id="g184"><path
         d="M 59.25,230.362 H 63"
         style="fill:none;stroke:#000000;stroke-width:1;stroke-linecap:square;stroke-linejoin:bevel;stroke-miterlimit:10;stroke-dasharray:none;stroke-opacity:1"
         id="path186" /></g><g
       id="g188"><path
         d="M 59.25,241.575 H 63"
         style="fill:none;stroke:#000000;stroke-width:1;stroke-linecap:square;stroke-linejoin:bevel;stroke-miterlimit:10;stroke-dasharray:none;stroke-opacity:1"
         id="path190" /></g><g
       id="g192"><path
         d="M 59.25,252.787 H 63"
         style="fill:none;stroke:#000000;stroke-width:1;stroke-linecap:square;stroke-linejoin:bevel;stroke-miterlimit:10;stroke-dasharray:none;stroke-opacity:1"
         id="path194" /></g><g
       id="g196"><path
         d="M 353.25,95.812 H 352.5"
         style="fill:none;stroke:#000000;stroke-width:1;stroke-linecap:square;stroke-linejoin:bevel;stroke-miterlimit:10;stroke-dasharray:none;stroke-opacity:1"
         id="path198" /></g><g
       id="g200"><path
         d="M 353.25,151.875 H 352.5"
         style="fill:none;stroke:#000000;stroke-width:1;stroke-linecap:square;stroke-linejoin:bevel;stroke-miterlimit:10;stroke-dasharray:none;stroke-opacity:1"
         id="path202" /></g><g
       id="g204"><path
         d="M 353.25,207.938 H 352.5"
         style="fill:none;stroke:#000000;stroke-width:1;stroke-linecap:square;stroke-linejoin:bevel;stroke-miterlimit:10;stroke-dasharray:none;stroke-opacity:1"
         id="path206" /></g><g
       id="g208"><path
         d="M 353.25,264 V 39.75"
         style="fill:none;stroke:#000000;stroke-width:1;stroke-linecap:square;stroke-linejoin:bevel;stroke-miterlimit:10;stroke-dasharray:none;stroke-opacity:1"
         id="path210" /></g><g
       id="g212"><path
         d="M 353.25,95.812 H 346.5"
         style="fill:none;stroke:#000000;stroke-width:1;stroke-linecap:square;stroke-linejoin:bevel;stroke-miterlimit:10;stroke-dasharray:none;stroke-opacity:1"
         id="path214" /></g><g
       id="g216"><path
         d="M 353.25,151.875 H 346.5"
         style="fill:none;stroke:#000000;stroke-width:1;stroke-linecap:square;stroke-linejoin:bevel;stroke-miterlimit:10;stroke-dasharray:none;stroke-opacity:1"
         id="path218" /></g><g
       id="g220"><path
         d="M 353.25,207.938 H 346.5"
         style="fill:none;stroke:#000000;stroke-width:1;stroke-linecap:square;stroke-linejoin:bevel;stroke-miterlimit:10;stroke-dasharray:none;stroke-opacity:1"
         id="path222" /></g><g
       id="g224"><path
         d="M 353.25,50.962 H 349.5"
         style="fill:none;stroke:#000000;stroke-width:1;stroke-linecap:square;stroke-linejoin:bevel;stroke-miterlimit:10;stroke-dasharray:none;stroke-opacity:1"
         id="path226" /></g><g
       id="g228"><path
         d="M 353.25,62.175 H 349.5"
         style="fill:none;stroke:#000000;stroke-width:1;stroke-linecap:square;stroke-linejoin:bevel;stroke-miterlimit:10;stroke-dasharray:none;stroke-opacity:1"
         id="path230" /></g><g
       id="g232"><path
         d="M 353.25,73.387 H 349.5"
         style="fill:none;stroke:#000000;stroke-width:1;stroke-linecap:square;stroke-linejoin:bevel;stroke-miterlimit:10;stroke-dasharray:none;stroke-opacity:1"
         id="path234" /></g><g
       id="g236"><path
         d="M 353.25,84.6 H 349.5"
         style="fill:none;stroke:#000000;stroke-width:1;stroke-linecap:square;stroke-linejoin:bevel;stroke-miterlimit:10;stroke-dasharray:none;stroke-opacity:1"
         id="path238" /></g><g
       id="g240"><path
         d="M 353.25,107.025 H 349.5"
         style="fill:none;stroke:#000000;stroke-width:1;stroke-linecap:square;stroke-linejoin:bevel;stroke-miterlimit:10;stroke-dasharray:none;stroke-opacity:1"
         id="path242" /></g><g
       id="g244"><path
         d="M 353.25,118.237 H 349.5"
         style="fill:none;stroke:#000000;stroke-width:1;stroke-linecap:square;stroke-linejoin:bevel;stroke-miterlimit:10;stroke-dasharray:none;stroke-opacity:1"
         id="path246" /></g><g
       id="g248"><path
         d="M 353.25,129.45 H 349.5"
         style="fill:none;stroke:#000000;stroke-width:1;stroke-linecap:square;stroke-linejoin:bevel;stroke-miterlimit:10;stroke-dasharray:none;stroke-opacity:1"
         id="path250" /></g><g
       id="g252"><path
         d="M 353.25,140.662 H 349.5"
         style="fill:none;stroke:#000000;stroke-width:1;stroke-linecap:square;stroke-linejoin:bevel;stroke-miterlimit:10;stroke-dasharray:none;stroke-opacity:1"
         id="path254" /></g><g
       id="g256"><path
         d="M 353.25,163.087 H 349.5"
         style="fill:none;stroke:#000000;stroke-width:1;stroke-linecap:square;stroke-linejoin:bevel;stroke-miterlimit:10;stroke-dasharray:none;stroke-opacity:1"
         id="path258" /></g><g
       id="g260"><path
         d="M 353.25,174.3 H 349.5"
         style="fill:none;stroke:#000000;stroke-width:1;stroke-linecap:square;stroke-linejoin:bevel;stroke-miterlimit:10;stroke-dasharray:none;stroke-opacity:1"
         id="path262" /></g><g
       id="g264"><path
         d="M 353.25,185.512 H 349.5"
         style="fill:none;stroke:#000000;stroke-width:1;stroke-linecap:square;stroke-linejoin:bevel;stroke-miterlimit:10;stroke-dasharray:none;stroke-opacity:1"
         id="path266" /></g><g
       id="g268"><path
         d="M 353.25,196.725 H 349.5"
         style="fill:none;stroke:#000000;stroke-width:1;stroke-linecap:square;stroke-linejoin:bevel;stroke-miterlimit:10;stroke-dasharray:none;stroke-opacity:1"
         id="path270" /></g><g
       id="g272"><path
         d="M 353.25,219.15 H 349.5"
         style="fill:none;stroke:#000000;stroke-width:1;stroke-linecap:square;stroke-linejoin:bevel;stroke-miterlimit:10;stroke-dasharray:none;stroke-opacity:1"
         id="path274" /></g><g
       id="g276"><path
         d="M 353.25,230.362 H 349.5"
         style="fill:none;stroke:#000000;stroke-width:1;stroke-linecap:square;stroke-linejoin:bevel;stroke-miterlimit:10;stroke-dasharray:none;stroke-opacity:1"
         id="path278" /></g><g
       id="g280"><path
         d="M 353.25,241.575 H 349.5"
         style="fill:none;stroke:#000000;stroke-width:1;stroke-linecap:square;stroke-linejoin:bevel;stroke-miterlimit:10;stroke-dasharray:none;stroke-opacity:1"
         id="path282" /></g><g
       id="g284"><path
         d="M 353.25,252.787 H 349.5"
         style="fill:none;stroke:#000000;stroke-width:1;stroke-linecap:square;stroke-linejoin:bevel;stroke-miterlimit:10;stroke-dasharray:none;stroke-opacity:1"
         id="path286" /></g><g
       id="g288"><path
         d="m 152.297,3 h 1.512 l 1.992,6.902 h -0.68 L 157.266,3 h 1.476 l 2.227,7.641 h -1.43 l -1.805,-6.95 0.621,0.129 -2.027,6.774 h -1.558 l -1.922,-6.797 h 0.504 l -1.688,6.844 h -1.617 L 152.297,3 m 13.863,0 h 0.996 v 3.223 c 0,1.441 -0.82,2.238 -2.402,2.238 -0.762,0 -1.582,-0.188 -2.215,-0.516 l 0.34,-0.972 c 0.551,0.211 1.09,0.328 1.582,0.328 0.855,0 1.312,-0.328 1.312,-0.973 V 4.031 L 166.16,3 m -1.875,-0.105 c 1.184,0 2.027,0.667 2.297,1.828 l -0.457,0.211 c -0.187,-0.575 -0.727,-0.938 -1.371,-0.938 -0.539,0 -0.902,0.27 -0.902,0.68 0,0.515 0.609,0.726 2.168,0.726 v 0.774 c -2.485,0 -3.586,-0.516 -3.586,-1.699 0,-0.961 0.726,-1.582 1.851,-1.582 M 170.871,3 h 1.395 l 2.074,5.355 h -1.406 l -1.524,-4.57 h 0.363 l -1.441,4.57 h -1.547 L 170.871,3 m 8.039,-0.105 c 0.633,0 1.313,0.128 1.887,0.375 l -0.305,0.96 c -0.433,-0.175 -0.902,-0.269 -1.359,-0.269 -1.149,0 -1.77,0.644 -1.77,1.887 0,0.996 0.41,1.535 1.16,1.535 0.704,0 1.102,-0.445 1.102,-1.231 h -2.449 V 5.285 h 3.715 c 0.035,0.223 0.058,0.551 0.058,0.809 0,1.453 -0.89,2.367 -2.32,2.367 -1.594,0 -2.66,-1.137 -2.66,-2.801 0,-1.722 1.113,-2.765 2.941,-2.765 M 187.324,3 h 1.406 v 3.293 c 0,1.336 -0.75,2.145 -1.957,2.145 -0.773,0 -1.488,-0.34 -1.98,-0.938 l 0.199,-0.855 c 0.363,0.375 0.809,0.574 1.301,0.574 0.68,0 1.031,-0.387 1.031,-1.114 V 3 m -3.527,0 h 1.406 v 4.406 l -0.398,0.949 h -1.008 V 3 m 9.269,-0.094 c 0.739,0 1.442,0.34 1.934,0.949 l -0.211,0.856 c -0.328,-0.363 -0.762,-0.574 -1.207,-0.574 -0.762,0 -0.984,0.574 -0.984,1.113 v 3.105 h -1.407 V 4.934 c 0,-1.231 0.762,-2.028 1.875,-2.028 M 194.988,3 h 1.008 V 8.355 H 194.59 V 3.938 L 194.988,3 m 10.055,0 h 1.406 v 3.293 c 0,1.336 -0.738,2.145 -1.945,2.145 -0.762,0 -1.477,-0.34 -1.969,-0.938 l 0.211,-0.855 c 0.352,0.375 0.785,0.574 1.277,0.574 0.68,0 1.02,-0.387 1.02,-1.114 V 3 m -6.996,0 h 1.406 v 4.406 l -0.398,0.949 h -1.008 V 3 m 3.504,0 h 1.394 v 3.293 c 0,1.336 -0.738,2.145 -1.933,2.145 -0.774,0 -1.477,-0.34 -1.969,-0.938 l 0.199,-0.855 c 0.352,0.375 0.797,0.574 1.278,0.574 0.679,0 1.031,-0.387 1.031,-1.114 V 3 m 10.394,-0.105 c 1.5,0 2.508,1.136 2.508,2.835 0,1.641 -0.949,2.731 -2.355,2.731 -0.985,0 -1.7,-0.527 -2.051,-1.418 l 0.422,-0.527 c 0.199,0.504 0.644,0.761 1.172,0.761 0.867,0 1.394,-0.632 1.394,-1.64 0,-0.961 -0.48,-1.559 -1.277,-1.559 -0.563,0 -1.02,0.293 -1.254,0.785 l -0.481,-0.715 c 0.329,-0.82 0.985,-1.253 1.922,-1.253 M 209.297,3 h 0.891 l 0.468,0.973 v 7.16 h -1.359 V 3 M 219.41,2.895 c 0.633,0 1.313,0.128 1.887,0.375 l -0.305,0.96 c -0.433,-0.175 -0.902,-0.269 -1.359,-0.269 -1.149,0 -1.77,0.644 -1.77,1.887 0,0.996 0.41,1.535 1.16,1.535 0.704,0 1.102,-0.445 1.102,-1.231 h -2.449 V 5.285 h 3.715 c 0.035,0.223 0.058,0.551 0.058,0.809 0,1.453 -0.89,2.367 -2.32,2.367 -1.594,0 -2.66,-1.137 -2.66,-2.801 0,-1.722 1.113,-2.765 2.941,-2.765 M 224.297,3 h 1.406 v 3.68 l -0.293,1.675 h -1.113 V 3 m 1.137,3.047 c 0.293,0.656 0.878,1.043 1.535,1.043 0.222,0 0.48,-0.047 0.679,-0.117 l 0.329,1.289 c -0.235,0.093 -0.516,0.14 -0.797,0.14 -0.703,0 -1.36,-0.375 -1.746,-1.019 V 6.047 m 8.496,-5.133 0.996,0.598 c -0.821,1.254 -1.242,2.812 -1.242,4.617 0,1.605 0.398,3.082 1.23,4.559 l -1.019,0.562 c -1.043,-1.582 -1.571,-3.375 -1.571,-5.191 0,-1.993 0.539,-3.704 1.606,-5.145 m 5.461,1.981 c 0.656,0 1.265,0.14 1.769,0.41 l -0.316,0.972 c -0.375,-0.164 -0.785,-0.257 -1.137,-0.257 -0.996,0 -1.559,0.621 -1.559,1.687 0,1.008 0.504,1.57 1.465,1.57 0.387,0 0.844,-0.093 1.231,-0.246 l 0.293,1.102 c -0.457,0.211 -1.02,0.328 -1.571,0.328 -1.722,0 -2.847,-1.149 -2.847,-2.906 0,-1.676 0.996,-2.66 2.672,-2.66 M 250.043,3 h 1.406 v 3.293 c 0,1.336 -0.738,2.145 -1.945,2.145 -0.762,0 -1.477,-0.34 -1.969,-0.938 l 0.211,-0.855 c 0.352,0.375 0.785,0.574 1.277,0.574 0.68,0 1.02,-0.387 1.02,-1.114 V 3 m -6.996,0 h 1.406 v 4.406 l -0.398,0.949 h -1.008 V 3 m 3.504,0 h 1.394 v 3.293 c 0,1.336 -0.738,2.145 -1.933,2.145 -0.774,0 -1.477,-0.34 -1.969,-0.938 l 0.199,-0.855 c 0.352,0.375 0.797,0.574 1.278,0.574 0.679,0 1.031,-0.387 1.031,-1.114 V 3"
         style="fill:#000000;fill-opacity:1;fill-rule:nonzero;stroke:none"
         id="path290" /></g><g
       id="g292"><path
         d="m 253.898,8.93 h 2.075 v 0.738 h -2.075 V 8.93 m 4.149,-1.442 h 0.891 v 4.864 h -0.528 l -1.851,-0.938 0.339,-0.633 1.43,0.645 -0.281,0.281 V 7.488"
         style="fill:#000000;fill-opacity:1;fill-rule:nonzero;stroke:none"
         id="path294" /></g><g
       id="g296"><path
         d="m 260.859,0.914 c 1.067,1.441 1.606,3.152 1.606,5.145 0,1.816 -0.527,3.609 -1.57,5.191 l -1.02,-0.562 c 0.832,-1.477 1.23,-2.954 1.23,-4.559 0,-1.805 -0.421,-3.363 -1.242,-4.617 z"
         style="fill:#000000;fill-opacity:1;fill-rule:nonzero;stroke:none"
         id="path298" /></g><g
       id="g300"><path
         d="m 48.949,23.941 h 0.879 v 7.7 h -0.527 l -2.719,-1.407 0.328,-0.632 2.332,1.113 -0.293,0.281 v -7.055 m 2.578,-1.851 h 0.797 c 0.387,0.949 0.598,2.133 0.598,3.222 h -0.949 c 0,-1.113 -0.164,-2.308 -0.446,-3.222 M 53.754,24 h 4.851 v 0.797 h -3.914 l 0.118,-0.27 c 2.613,2.461 3.492,3.739 3.492,5.063 0,1.348 -0.914,2.156 -2.321,2.156 -0.914,0 -1.781,-0.328 -2.343,-0.867 l 0.246,-0.633 c 0.586,0.469 1.312,0.703 1.91,0.703 0.984,0 1.582,-0.586 1.582,-1.5 0,-1.113 -0.891,-2.261 -3.621,-4.84 V 24 m 8.836,-0.105 c 1.476,0 2.519,1.031 2.519,2.519 0,1.371 -0.902,2.285 -2.226,2.285 -1.149,0 -2.051,-0.668 -2.309,-1.734 l 0.188,-0.469 c 0.234,0.914 0.949,1.442 1.863,1.442 0.996,0 1.617,-0.633 1.617,-1.641 0,-0.961 -0.586,-1.617 -1.547,-1.617 -1.254,0 -1.922,1.054 -1.922,3.047 0,2.144 0.774,3.222 2.391,3.222 0.539,0 1.09,-0.129 1.582,-0.375 l 0.258,0.715 c -0.598,0.316 -1.172,0.457 -1.793,0.457 -2.109,0 -3.328,-1.547 -3.328,-4.148 0,-2.344 0.984,-3.703 2.707,-3.703 m 6.773,0 c 1.699,0 2.754,1.488 2.754,3.984 0,2.391 -1.019,3.867 -2.683,3.867 -1.723,0 -2.801,-1.5 -2.801,-3.984 0,-2.403 1.043,-3.867 2.73,-3.867 m 0.059,0.773 c -1.149,0 -1.863,1.207 -1.863,3.211 0,1.922 0.703,3.094 1.804,3.094 1.125,0 1.828,-1.219 1.828,-3.211 0,-1.922 -0.668,-3.094 -1.769,-3.094"
         style="fill:#000000;fill-opacity:1;fill-rule:nonzero;stroke:none"
         id="path302" /></g><g
       id="g304"><path
         d="m 107.449,23.941 h 0.879 v 7.7 h -0.527 l -2.719,-1.407 0.328,-0.632 2.332,1.113 -0.293,0.281 v -7.055 m 2.578,-1.851 h 0.797 c 0.387,0.949 0.598,2.133 0.598,3.222 h -0.949 c 0,-1.113 -0.164,-2.308 -0.446,-3.222 m 2.227,1.91 h 4.851 v 0.797 h -3.914 l 0.118,-0.27 c 2.613,2.461 3.492,3.739 3.492,5.063 0,1.348 -0.914,2.156 -2.321,2.156 -0.914,0 -1.781,-0.328 -2.343,-0.867 l 0.246,-0.633 c 0.586,0.469 1.312,0.703 1.91,0.703 0.984,0 1.582,-0.586 1.582,-1.5 0,-1.113 -0.891,-2.261 -3.621,-4.84 V 24 m 8.695,-0.105 c 1.606,0 2.672,0.82 2.672,2.027 0,2.449 -4.148,1.98 -4.148,3.914 0,0.691 0.539,1.148 1.382,1.148 0.903,0 1.547,-0.504 1.547,-1.23 0,-0.703 -0.609,-1.301 -1.511,-1.488 l 0.679,-0.352 c 1.055,0.316 1.711,1.102 1.711,1.992 0,1.102 -0.961,1.84 -2.32,1.84 -1.418,0 -2.379,-0.808 -2.379,-1.992 0,-2.508 4.102,-1.922 4.102,-3.867 0,-0.739 -0.586,-1.207 -1.582,-1.207 -1.09,0 -1.864,0.539 -1.864,1.359 0,0.785 0.668,1.418 1.7,1.559 l -0.586,0.375 c -1.231,-0.164 -2.051,-1.02 -2.051,-2.063 0,-1.207 1.078,-2.015 2.648,-2.015 m 6.914,0 c 1.699,0 2.754,1.488 2.754,3.984 0,2.391 -1.019,3.867 -2.683,3.867 -1.723,0 -2.801,-1.5 -2.801,-3.984 0,-2.403 1.043,-3.867 2.73,-3.867 m 0.059,0.773 c -1.149,0 -1.863,1.207 -1.863,3.211 0,1.922 0.703,3.094 1.804,3.094 1.125,0 1.828,-1.219 1.828,-3.211 0,-1.922 -0.668,-3.094 -1.769,-3.094"
         style="fill:#000000;fill-opacity:1;fill-rule:nonzero;stroke:none"
         id="path306" /></g><g
       id="g308"><path
         d="m 166.699,23.941 h 0.879 v 7.7 h -0.527 l -2.719,-1.407 0.328,-0.632 2.332,1.113 -0.293,0.281 v -7.055 m 2.578,-1.851 h 0.797 c 0.387,0.949 0.598,2.133 0.598,3.222 h -0.949 c 0,-1.113 -0.164,-2.308 -0.446,-3.222 m 4.559,1.793 c 1.676,0 2.836,0.879 2.836,2.203 0,1.113 -0.856,1.898 -2.156,1.934 l -0.164,-0.129 c 1.136,0.023 1.921,0.797 1.921,1.851 0,1.219 -0.984,1.992 -2.402,1.992 -0.785,0 -1.676,-0.246 -2.32,-0.621 l 0.211,-0.679 c 0.679,0.339 1.394,0.515 1.957,0.515 0.984,0 1.699,-0.504 1.699,-1.289 0,-0.844 -0.82,-1.394 -1.945,-1.394 h -0.586 V 27.48 h 0.785 c 1.277,0 2.086,-0.55 2.086,-1.453 0,-0.855 -0.75,-1.336 -1.887,-1.336 -0.668,0 -1.559,0.164 -2.273,0.516 l -0.2,-0.738 c 0.739,-0.375 1.641,-0.586 2.438,-0.586 m 6.527,0.012 c 1.699,0 2.754,1.488 2.754,3.984 0,2.391 -1.019,3.867 -2.683,3.867 -1.723,0 -2.801,-1.5 -2.801,-3.984 0,-2.403 1.043,-3.867 2.73,-3.867 m 0.059,0.773 c -1.149,0 -1.863,1.207 -1.863,3.211 0,1.922 0.703,3.094 1.804,3.094 1.125,0 1.828,-1.219 1.828,-3.211 0,-1.922 -0.668,-3.094 -1.769,-3.094 m 6.691,-0.773 c 1.699,0 2.754,1.488 2.754,3.984 0,2.391 -1.019,3.867 -2.683,3.867 -1.723,0 -2.801,-1.5 -2.801,-3.984 0,-2.403 1.043,-3.867 2.73,-3.867 m 0.059,0.773 c -1.149,0 -1.863,1.207 -1.863,3.211 0,1.922 0.703,3.094 1.804,3.094 1.125,0 1.828,-1.219 1.828,-3.211 0,-1.922 -0.668,-3.094 -1.769,-3.094"
         style="fill:#000000;fill-opacity:1;fill-rule:nonzero;stroke:none"
         id="path310" /></g><g
       id="g312"><path
         d="m 225.199,23.941 h 0.879 v 7.7 h -0.527 l -2.719,-1.407 0.328,-0.632 2.332,1.113 -0.293,0.281 v -7.055 m 2.578,-1.851 h 0.797 c 0.387,0.949 0.598,2.133 0.598,3.222 h -0.949 c 0,-1.113 -0.164,-2.308 -0.446,-3.222 m 4.559,1.793 c 1.676,0 2.836,0.879 2.836,2.203 0,1.113 -0.856,1.898 -2.156,1.934 l -0.164,-0.129 c 1.136,0.023 1.921,0.797 1.921,1.851 0,1.219 -0.984,1.992 -2.402,1.992 -0.785,0 -1.676,-0.246 -2.32,-0.621 l 0.211,-0.679 c 0.679,0.339 1.394,0.515 1.957,0.515 0.984,0 1.699,-0.504 1.699,-1.289 0,-0.844 -0.82,-1.394 -1.945,-1.394 h -0.586 V 27.48 h 0.785 c 1.277,0 2.086,-0.55 2.086,-1.453 0,-0.855 -0.75,-1.336 -1.887,-1.336 -0.668,0 -1.559,0.164 -2.273,0.516 l -0.2,-0.738 c 0.739,-0.375 1.641,-0.586 2.438,-0.586 M 236.004,24 h 4.851 v 0.797 h -3.914 l 0.118,-0.27 c 2.613,2.461 3.492,3.739 3.492,5.063 0,1.348 -0.914,2.156 -2.321,2.156 -0.914,0 -1.781,-0.328 -2.343,-0.867 l 0.246,-0.633 c 0.586,0.469 1.312,0.703 1.91,0.703 0.984,0 1.582,-0.586 1.582,-1.5 0,-1.113 -0.891,-2.261 -3.621,-4.84 V 24 m 8.859,-0.105 c 1.699,0 2.754,1.488 2.754,3.984 0,2.391 -1.019,3.867 -2.683,3.867 -1.723,0 -2.801,-1.5 -2.801,-3.984 0,-2.403 1.043,-3.867 2.73,-3.867 m 0.059,0.773 c -1.149,0 -1.863,1.207 -1.863,3.211 0,1.922 0.703,3.094 1.804,3.094 1.125,0 1.828,-1.219 1.828,-3.211 0,-1.922 -0.668,-3.094 -1.769,-3.094"
         style="fill:#000000;fill-opacity:1;fill-rule:nonzero;stroke:none"
         id="path314" /></g><g
       id="g316"><path
         d="m 284.449,23.941 h 0.879 v 7.7 h -0.527 l -2.719,-1.407 0.328,-0.632 2.332,1.113 -0.293,0.281 v -7.055 m 2.578,-1.851 h 0.797 c 0.387,0.949 0.598,2.133 0.598,3.222 h -0.949 c 0,-1.113 -0.164,-2.308 -0.446,-3.222 m 4.559,1.793 c 1.676,0 2.836,0.879 2.836,2.203 0,1.113 -0.856,1.898 -2.156,1.934 l -0.164,-0.129 c 1.136,0.023 1.921,0.797 1.921,1.851 0,1.219 -0.984,1.992 -2.402,1.992 -0.785,0 -1.676,-0.246 -2.32,-0.621 l 0.211,-0.679 c 0.679,0.339 1.394,0.515 1.957,0.515 0.984,0 1.699,-0.504 1.699,-1.289 0,-0.844 -0.82,-1.394 -1.945,-1.394 h -0.586 V 27.48 h 0.785 c 1.277,0 2.086,-0.55 2.086,-1.453 0,-0.855 -0.75,-1.336 -1.887,-1.336 -0.668,0 -1.559,0.164 -2.273,0.516 l -0.2,-0.738 c 0.739,-0.375 1.641,-0.586 2.438,-0.586 m 7.23,0.012 h 0.868 v 7.746 h -0.844 l -3.832,-5.368 v -0.468 h 6.047 v 0.75 h -5.18 l 0.07,-0.188 3.047,4.36 -0.164,0.023 -0.012,-6.855 m 6.047,0 c 1.699,0 2.754,1.488 2.754,3.984 0,2.391 -1.019,3.867 -2.683,3.867 -1.723,0 -2.801,-1.5 -2.801,-3.984 0,-2.403 1.043,-3.867 2.73,-3.867 m 0.059,0.773 c -1.149,0 -1.863,1.207 -1.863,3.211 0,1.922 0.703,3.094 1.804,3.094 1.125,0 1.828,-1.219 1.828,-3.211 0,-1.922 -0.668,-3.094 -1.769,-3.094"
         style="fill:#000000;fill-opacity:1;fill-rule:nonzero;stroke:none"
         id="path318" /></g><g
       id="g320"><path
         d="m 342.949,23.941 h 0.879 v 7.7 h -0.527 l -2.719,-1.407 0.328,-0.632 2.332,1.113 -0.293,0.281 v -7.055 m 2.578,-1.851 h 0.797 c 0.387,0.949 0.598,2.133 0.598,3.222 h -0.949 c 0,-1.113 -0.164,-2.308 -0.446,-3.222 m 4.559,1.793 c 1.676,0 2.836,0.879 2.836,2.203 0,1.113 -0.856,1.898 -2.156,1.934 l -0.164,-0.129 c 1.136,0.023 1.921,0.797 1.921,1.851 0,1.219 -0.984,1.992 -2.402,1.992 -0.785,0 -1.676,-0.246 -2.32,-0.621 l 0.211,-0.679 c 0.679,0.339 1.394,0.515 1.957,0.515 0.984,0 1.699,-0.504 1.699,-1.289 0,-0.844 -0.82,-1.394 -1.945,-1.394 h -0.586 V 27.48 h 0.785 c 1.277,0 2.086,-0.55 2.086,-1.453 0,-0.855 -0.75,-1.336 -1.887,-1.336 -0.668,0 -1.559,0.164 -2.273,0.516 l -0.2,-0.738 c 0.739,-0.375 1.641,-0.586 2.438,-0.586 m 6.504,0.012 c 1.476,0 2.519,1.031 2.519,2.519 0,1.371 -0.902,2.285 -2.226,2.285 -1.149,0 -2.051,-0.668 -2.309,-1.734 l 0.188,-0.469 c 0.234,0.914 0.949,1.442 1.863,1.442 0.996,0 1.617,-0.633 1.617,-1.641 0,-0.961 -0.586,-1.617 -1.547,-1.617 -1.254,0 -1.922,1.054 -1.922,3.047 0,2.144 0.774,3.222 2.391,3.222 0.539,0 1.09,-0.129 1.582,-0.375 l 0.258,0.715 c -0.598,0.316 -1.172,0.457 -1.793,0.457 -2.109,0 -3.328,-1.547 -3.328,-4.148 0,-2.344 0.984,-3.703 2.707,-3.703 m 6.773,0 c 1.699,0 2.754,1.488 2.754,3.984 0,2.391 -1.019,3.867 -2.683,3.867 -1.723,0 -2.801,-1.5 -2.801,-3.984 0,-2.403 1.043,-3.867 2.73,-3.867 m 0.059,0.773 c -1.149,0 -1.863,1.207 -1.863,3.211 0,1.922 0.703,3.094 1.804,3.094 1.125,0 1.828,-1.219 1.828,-3.211 0,-1.922 -0.668,-3.094 -1.769,-3.094"
         style="fill:#000000;fill-opacity:1;fill-rule:nonzero;stroke:none"
         id="path322" /></g><g
       id="g324"><path
         d="M 118.05,39.75 V 40.5"
         style="fill:none;stroke:#000000;stroke-width:1;stroke-linecap:square;stroke-linejoin:bevel;stroke-miterlimit:10;stroke-dasharray:none;stroke-opacity:1"
         id="path326" /></g><g
       id="g328"><path
         d="M 176.85,39.75 V 40.5"
         style="fill:none;stroke:#000000;stroke-width:1;stroke-linecap:square;stroke-linejoin:bevel;stroke-miterlimit:10;stroke-dasharray:none;stroke-opacity:1"
         id="path330" /></g><g
       id="g332"><path
         d="M 235.65,39.75 V 40.5"
         style="fill:none;stroke:#000000;stroke-width:1;stroke-linecap:square;stroke-linejoin:bevel;stroke-miterlimit:10;stroke-dasharray:none;stroke-opacity:1"
         id="path334" /></g><g
       id="g336"><path
         d="M 294.45,39.75 V 40.5"
         style="fill:none;stroke:#000000;stroke-width:1;stroke-linecap:square;stroke-linejoin:bevel;stroke-miterlimit:10;stroke-dasharray:none;stroke-opacity:1"
         id="path338" /></g><g
       id="g340"><path
         d="m 59.25,39.75 h 294"
         style="fill:none;stroke:#000000;stroke-width:1;stroke-linecap:square;stroke-linejoin:bevel;stroke-miterlimit:10;stroke-dasharray:none;stroke-opacity:1"
         id="path342" /></g><g
       id="g344"><path
         d="M 118.05,39.75 V 46.5"
         style="fill:none;stroke:#000000;stroke-width:1;stroke-linecap:square;stroke-linejoin:bevel;stroke-miterlimit:10;stroke-dasharray:none;stroke-opacity:1"
         id="path346" /></g><g
       id="g348"><path
         d="M 176.85,39.75 V 46.5"
         style="fill:none;stroke:#000000;stroke-width:1;stroke-linecap:square;stroke-linejoin:bevel;stroke-miterlimit:10;stroke-dasharray:none;stroke-opacity:1"
         id="path350" /></g><g
       id="g352"><path
         d="M 235.65,39.75 V 46.5"
         style="fill:none;stroke:#000000;stroke-width:1;stroke-linecap:square;stroke-linejoin:bevel;stroke-miterlimit:10;stroke-dasharray:none;stroke-opacity:1"
         id="path354" /></g><g
       id="g356"><path
         d="M 294.45,39.75 V 46.5"
         style="fill:none;stroke:#000000;stroke-width:1;stroke-linecap:square;stroke-linejoin:bevel;stroke-miterlimit:10;stroke-dasharray:none;stroke-opacity:1"
         id="path358" /></g><g
       id="g360"><path
         d="M 71.01,39.75 V 43.5"
         style="fill:none;stroke:#000000;stroke-width:1;stroke-linecap:square;stroke-linejoin:bevel;stroke-miterlimit:10;stroke-dasharray:none;stroke-opacity:1"
         id="path362" /></g><g
       id="g364"><path
         d="M 82.77,39.75 V 43.5"
         style="fill:none;stroke:#000000;stroke-width:1;stroke-linecap:square;stroke-linejoin:bevel;stroke-miterlimit:10;stroke-dasharray:none;stroke-opacity:1"
         id="path366" /></g><g
       id="g368"><path
         d="M 94.53,39.75 V 43.5"
         style="fill:none;stroke:#000000;stroke-width:1;stroke-linecap:square;stroke-linejoin:bevel;stroke-miterlimit:10;stroke-dasharray:none;stroke-opacity:1"
         id="path370" /></g><g
       id="g372"><path
         d="M 106.29,39.75 V 43.5"
         style="fill:none;stroke:#000000;stroke-width:1;stroke-linecap:square;stroke-linejoin:bevel;stroke-miterlimit:10;stroke-dasharray:none;stroke-opacity:1"
         id="path374" /></g><g
       id="g376"><path
         d="M 129.81,39.75 V 43.5"
         style="fill:none;stroke:#000000;stroke-width:1;stroke-linecap:square;stroke-linejoin:bevel;stroke-miterlimit:10;stroke-dasharray:none;stroke-opacity:1"
         id="path378" /></g><g
       id="g380"><path
         d="M 141.57,39.75 V 43.5"
         style="fill:none;stroke:#000000;stroke-width:1;stroke-linecap:square;stroke-linejoin:bevel;stroke-miterlimit:10;stroke-dasharray:none;stroke-opacity:1"
         id="path382" /></g><g
       id="g384"><path
         d="M 153.33,39.75 V 43.5"
         style="fill:none;stroke:#000000;stroke-width:1;stroke-linecap:square;stroke-linejoin:bevel;stroke-miterlimit:10;stroke-dasharray:none;stroke-opacity:1"
         id="path386" /></g><g
       id="g388"><path
         d="M 165.09,39.75 V 43.5"
         style="fill:none;stroke:#000000;stroke-width:1;stroke-linecap:square;stroke-linejoin:bevel;stroke-miterlimit:10;stroke-dasharray:none;stroke-opacity:1"
         id="path390" /></g><g
       id="g392"><path
         d="M 188.61,39.75 V 43.5"
         style="fill:none;stroke:#000000;stroke-width:1;stroke-linecap:square;stroke-linejoin:bevel;stroke-miterlimit:10;stroke-dasharray:none;stroke-opacity:1"
         id="path394" /></g><g
       id="g396"><path
         d="M 200.37,39.75 V 43.5"
         style="fill:none;stroke:#000000;stroke-width:1;stroke-linecap:square;stroke-linejoin:bevel;stroke-miterlimit:10;stroke-dasharray:none;stroke-opacity:1"
         id="path398" /></g><g
       id="g400"><path
         d="M 212.13,39.75 V 43.5"
         style="fill:none;stroke:#000000;stroke-width:1;stroke-linecap:square;stroke-linejoin:bevel;stroke-miterlimit:10;stroke-dasharray:none;stroke-opacity:1"
         id="path402" /></g><g
       id="g404"><path
         d="M 223.89,39.75 V 43.5"
         style="fill:none;stroke:#000000;stroke-width:1;stroke-linecap:square;stroke-linejoin:bevel;stroke-miterlimit:10;stroke-dasharray:none;stroke-opacity:1"
         id="path406" /></g><g
       id="g408"><path
         d="M 247.41,39.75 V 43.5"
         style="fill:none;stroke:#000000;stroke-width:1;stroke-linecap:square;stroke-linejoin:bevel;stroke-miterlimit:10;stroke-dasharray:none;stroke-opacity:1"
         id="path410" /></g><g
       id="g412"><path
         d="M 259.17,39.75 V 43.5"
         style="fill:none;stroke:#000000;stroke-width:1;stroke-linecap:square;stroke-linejoin:bevel;stroke-miterlimit:10;stroke-dasharray:none;stroke-opacity:1"
         id="path414" /></g><g
       id="g416"><path
         d="M 270.93,39.75 V 43.5"
         style="fill:none;stroke:#000000;stroke-width:1;stroke-linecap:square;stroke-linejoin:bevel;stroke-miterlimit:10;stroke-dasharray:none;stroke-opacity:1"
         id="path418" /></g><g
       id="g420"><path
         d="M 282.69,39.75 V 43.5"
         style="fill:none;stroke:#000000;stroke-width:1;stroke-linecap:square;stroke-linejoin:bevel;stroke-miterlimit:10;stroke-dasharray:none;stroke-opacity:1"
         id="path422" /></g><g
       id="g424"><path
         d="M 306.21,39.75 V 43.5"
         style="fill:none;stroke:#000000;stroke-width:1;stroke-linecap:square;stroke-linejoin:bevel;stroke-miterlimit:10;stroke-dasharray:none;stroke-opacity:1"
         id="path426" /></g><g
       id="g428"><path
         d="M 317.97,39.75 V 43.5"
         style="fill:none;stroke:#000000;stroke-width:1;stroke-linecap:square;stroke-linejoin:bevel;stroke-miterlimit:10;stroke-dasharray:none;stroke-opacity:1"
         id="path430" /></g><g
       id="g432"><path
         d="M 329.73,39.75 V 43.5"
         style="fill:none;stroke:#000000;stroke-width:1;stroke-linecap:square;stroke-linejoin:bevel;stroke-miterlimit:10;stroke-dasharray:none;stroke-opacity:1"
         id="path434" /></g><g
       id="g436"><path
         d="M 341.49,39.75 V 43.5"
         style="fill:none;stroke:#000000;stroke-width:1;stroke-linecap:square;stroke-linejoin:bevel;stroke-miterlimit:10;stroke-dasharray:none;stroke-opacity:1"
         id="path438" /></g><g
       id="g440"><path
         d="m 118.05,264 v -0.75"
         style="fill:none;stroke:#000000;stroke-width:1;stroke-linecap:square;stroke-linejoin:bevel;stroke-miterlimit:10;stroke-dasharray:none;stroke-opacity:1"
         id="path442" /></g><g
       id="g444"><path
         d="m 176.85,264 v -0.75"
         style="fill:none;stroke:#000000;stroke-width:1;stroke-linecap:square;stroke-linejoin:bevel;stroke-miterlimit:10;stroke-dasharray:none;stroke-opacity:1"
         id="path446" /></g><g
       id="g448"><path
         d="m 235.65,264 v -0.75"
         style="fill:none;stroke:#000000;stroke-width:1;stroke-linecap:square;stroke-linejoin:bevel;stroke-miterlimit:10;stroke-dasharray:none;stroke-opacity:1"
         id="path450" /></g><g
       id="g452"><path
         d="m 294.45,264 v -0.75"
         style="fill:none;stroke:#000000;stroke-width:1;stroke-linecap:square;stroke-linejoin:bevel;stroke-miterlimit:10;stroke-dasharray:none;stroke-opacity:1"
         id="path454" /></g><g
       id="g456"><path
         d="m 59.25,264 h 294"
         style="fill:none;stroke:#000000;stroke-width:1;stroke-linecap:square;stroke-linejoin:bevel;stroke-miterlimit:10;stroke-dasharray:none;stroke-opacity:1"
         id="path458" /></g><g
       id="g460"><path
         d="m 118.05,264 v -6.75"
         style="fill:none;stroke:#000000;stroke-width:1;stroke-linecap:square;stroke-linejoin:bevel;stroke-miterlimit:10;stroke-dasharray:none;stroke-opacity:1"
         id="path462" /></g><g
       id="g464"><path
         d="m 176.85,264 v -6.75"
         style="fill:none;stroke:#000000;stroke-width:1;stroke-linecap:square;stroke-linejoin:bevel;stroke-miterlimit:10;stroke-dasharray:none;stroke-opacity:1"
         id="path466" /></g><g
       id="g468"><path
         d="m 235.65,264 v -6.75"
         style="fill:none;stroke:#000000;stroke-width:1;stroke-linecap:square;stroke-linejoin:bevel;stroke-miterlimit:10;stroke-dasharray:none;stroke-opacity:1"
         id="path470" /></g><g
       id="g472"><path
         d="m 294.45,264 v -6.75"
         style="fill:none;stroke:#000000;stroke-width:1;stroke-linecap:square;stroke-linejoin:bevel;stroke-miterlimit:10;stroke-dasharray:none;stroke-opacity:1"
         id="path474" /></g><g
       id="g476"><path
         d="m 71.01,264 v -3.75"
         style="fill:none;stroke:#000000;stroke-width:1;stroke-linecap:square;stroke-linejoin:bevel;stroke-miterlimit:10;stroke-dasharray:none;stroke-opacity:1"
         id="path478" /></g><g
       id="g480"><path
         d="m 82.77,264 v -3.75"
         style="fill:none;stroke:#000000;stroke-width:1;stroke-linecap:square;stroke-linejoin:bevel;stroke-miterlimit:10;stroke-dasharray:none;stroke-opacity:1"
         id="path482" /></g><g
       id="g484"><path
         d="m 94.53,264 v -3.75"
         style="fill:none;stroke:#000000;stroke-width:1;stroke-linecap:square;stroke-linejoin:bevel;stroke-miterlimit:10;stroke-dasharray:none;stroke-opacity:1"
         id="path486" /></g><g
       id="g488"><path
         d="m 106.29,264 v -3.75"
         style="fill:none;stroke:#000000;stroke-width:1;stroke-linecap:square;stroke-linejoin:bevel;stroke-miterlimit:10;stroke-dasharray:none;stroke-opacity:1"
         id="path490" /></g><g
       id="g492"><path
         d="m 129.81,264 v -3.75"
         style="fill:none;stroke:#000000;stroke-width:1;stroke-linecap:square;stroke-linejoin:bevel;stroke-miterlimit:10;stroke-dasharray:none;stroke-opacity:1"
         id="path494" /></g><g
       id="g496"><path
         d="m 141.57,264 v -3.75"
         style="fill:none;stroke:#000000;stroke-width:1;stroke-linecap:square;stroke-linejoin:bevel;stroke-miterlimit:10;stroke-dasharray:none;stroke-opacity:1"
         id="path498" /></g><g
       id="g500"><path
         d="m 153.33,264 v -3.75"
         style="fill:none;stroke:#000000;stroke-width:1;stroke-linecap:square;stroke-linejoin:bevel;stroke-miterlimit:10;stroke-dasharray:none;stroke-opacity:1"
         id="path502" /></g><g
       id="g504"><path
         d="m 165.09,264 v -3.75"
         style="fill:none;stroke:#000000;stroke-width:1;stroke-linecap:square;stroke-linejoin:bevel;stroke-miterlimit:10;stroke-dasharray:none;stroke-opacity:1"
         id="path506" /></g><g
       id="g508"><path
         d="m 188.61,264 v -3.75"
         style="fill:none;stroke:#000000;stroke-width:1;stroke-linecap:square;stroke-linejoin:bevel;stroke-miterlimit:10;stroke-dasharray:none;stroke-opacity:1"
         id="path510" /></g><g
       id="g512"><path
         d="m 200.37,264 v -3.75"
         style="fill:none;stroke:#000000;stroke-width:1;stroke-linecap:square;stroke-linejoin:bevel;stroke-miterlimit:10;stroke-dasharray:none;stroke-opacity:1"
         id="path514" /></g><g
       id="g516"><path
         d="m 212.13,264 v -3.75"
         style="fill:none;stroke:#000000;stroke-width:1;stroke-linecap:square;stroke-linejoin:bevel;stroke-miterlimit:10;stroke-dasharray:none;stroke-opacity:1"
         id="path518" /></g><g
       id="g520"><path
         d="m 223.89,264 v -3.75"
         style="fill:none;stroke:#000000;stroke-width:1;stroke-linecap:square;stroke-linejoin:bevel;stroke-miterlimit:10;stroke-dasharray:none;stroke-opacity:1"
         id="path522" /></g><g
       id="g524"><path
         d="m 247.41,264 v -3.75"
         style="fill:none;stroke:#000000;stroke-width:1;stroke-linecap:square;stroke-linejoin:bevel;stroke-miterlimit:10;stroke-dasharray:none;stroke-opacity:1"
         id="path526" /></g><g
       id="g528"><path
         d="m 259.17,264 v -3.75"
         style="fill:none;stroke:#000000;stroke-width:1;stroke-linecap:square;stroke-linejoin:bevel;stroke-miterlimit:10;stroke-dasharray:none;stroke-opacity:1"
         id="path530" /></g><g
       id="g532"><path
         d="m 270.93,264 v -3.75"
         style="fill:none;stroke:#000000;stroke-width:1;stroke-linecap:square;stroke-linejoin:bevel;stroke-miterlimit:10;stroke-dasharray:none;stroke-opacity:1"
         id="path534" /></g><g
       id="g536"><path
         d="m 282.69,264 v -3.75"
         style="fill:none;stroke:#000000;stroke-width:1;stroke-linecap:square;stroke-linejoin:bevel;stroke-miterlimit:10;stroke-dasharray:none;stroke-opacity:1"
         id="path538" /></g><g
       id="g540"><path
         d="m 306.21,264 v -3.75"
         style="fill:none;stroke:#000000;stroke-width:1;stroke-linecap:square;stroke-linejoin:bevel;stroke-miterlimit:10;stroke-dasharray:none;stroke-opacity:1"
         id="path542" /></g><g
       id="g544"><path
         d="m 317.97,264 v -3.75"
         style="fill:none;stroke:#000000;stroke-width:1;stroke-linecap:square;stroke-linejoin:bevel;stroke-miterlimit:10;stroke-dasharray:none;stroke-opacity:1"
         id="path546" /></g><g
       id="g548"><path
         d="m 329.73,264 v -3.75"
         style="fill:none;stroke:#000000;stroke-width:1;stroke-linecap:square;stroke-linejoin:bevel;stroke-miterlimit:10;stroke-dasharray:none;stroke-opacity:1"
         id="path550" /></g><g
       id="g552"><path
         d="m 341.49,264 v -3.75"
         style="fill:none;stroke:#000000;stroke-width:1;stroke-linecap:square;stroke-linejoin:bevel;stroke-miterlimit:10;stroke-dasharray:none;stroke-opacity:1"
         id="path554" /></g><g
       id="g556"><path
         d="m 257.25,252.75 h 88.5 v -64.5 h -88.5 z"
         style="fill:#ffffff;fill-opacity:0.8;fill-rule:nonzero;stroke:none"
         id="path558" /></g><g
       id="g560"><path
         d="m 257.25,252.75 h 88.5 v -64.5 h -88.5 z"
         style="fill:none;stroke:#000000;stroke-width:1;stroke-linecap:butt;stroke-linejoin:miter;stroke-miterlimit:10;stroke-dasharray:none;stroke-opacity:1"
         id="path562" /></g><g
       id="g564"><path
         d="m 265.5,243 h 24"
         style="fill:none;stroke:#000000;stroke-width:2;stroke-linecap:butt;stroke-linejoin:miter;stroke-miterlimit:10;stroke-dasharray:none;stroke-opacity:1"
         id="path566" /></g><g
       id="g568"><path
         d="m 293.309,239.25 h 0.785 l 2.039,5.719 h -0.082 l 1.933,-5.719 h 0.832 l -2.191,6.246 h -0.973 l -2.343,-6.246 m 1.183,1.852 h 3.117 v 0.644 h -3.117 v -0.644 m 5.59,-1.852 h 0.738 v 5.59 h 1.114 c 0.902,0 1.511,-0.586 1.511,-1.465 0,-0.855 -0.504,-1.301 -1.429,-1.301 h -1.465 v -0.644 h 1.336 c 1.394,0 2.332,0.82 2.332,2.074 0,1.195 -0.891,1.992 -2.203,1.992 h -1.934 v -6.246"
         style="fill:#000000;fill-opacity:1;fill-rule:nonzero;stroke:none"
         id="path570" /></g><g
       id="g572"><path
         d="m 265.5,231.75 h 24"
         style="fill:none;stroke:#ff0000;stroke-width:2;stroke-linecap:butt;stroke-linejoin:miter;stroke-miterlimit:10;stroke-dasharray:none;stroke-opacity:1"
         id="path574" /></g><g
       id="g576"><path
         d="m 294.082,228 h 0.738 v 5.59 h 1.114 c 0.902,0 1.511,-0.586 1.511,-1.465 0,-0.855 -0.504,-1.301 -1.429,-1.301 h -1.465 v -0.644 h 1.336 c 1.394,0 2.332,0.82 2.332,2.074 0,1.195 -0.891,1.992 -2.203,1.992 h -1.934 V 228 m 6.141,-0.059 c 0.234,0 0.515,0.059 0.691,0.153 l -0.164,0.504 c -0.105,-0.047 -0.211,-0.071 -0.316,-0.071 -0.305,0 -0.469,0.2 -0.469,0.539 v 5.579 h -0.715 v -5.672 c 0,-0.621 0.387,-1.032 0.973,-1.032 m 3.949,0.059 h 0.504 v 2.812 c 0,1.043 -0.61,1.618 -1.735,1.618 -0.574,0 -1.183,-0.153 -1.652,-0.422 l 0.176,-0.528 c 0.457,0.2 0.902,0.293 1.324,0.293 0.773,0 1.172,-0.316 1.172,-0.961 v -2.308 L 304.172,228 m -1.535,-0.094 c 1.031,0 1.816,0.656 1.945,1.617 l -0.258,0.118 c -0.14,-0.657 -0.726,-1.102 -1.476,-1.102 -0.575,0 -0.961,0.293 -0.961,0.715 0,0.551 0.644,0.773 2.179,0.773 v 0.504 c -2.015,0 -2.894,-0.41 -2.894,-1.347 0,-0.774 0.574,-1.278 1.465,-1.278 m 5.59,0.047 c 0.304,0 0.597,0.07 0.808,0.164 l -0.164,0.516 c -0.141,-0.059 -0.34,-0.094 -0.492,-0.094 -0.445,0 -0.738,0.293 -0.738,0.715 v 4.348 h -0.727 v -4.442 c 0,-0.715 0.527,-1.207 1.313,-1.207 m -1.899,3.785 h 2.496 v 0.598 h -2.496 v -0.598 m 5.367,-3.832 c 0.493,0 1.043,0.117 1.43,0.328 l -0.164,0.516 c -0.34,-0.152 -0.762,-0.258 -1.137,-0.258 -1.019,0 -1.617,0.68 -1.617,1.805 0,0.973 0.434,1.512 1.231,1.512 0.738,0 1.171,-0.469 1.171,-1.301 h -2.531 v -0.539 h 3.164 c 0.024,0.14 0.035,0.445 0.035,0.621 0,1.09 -0.715,1.84 -1.781,1.84 -1.207,0 -2.027,-0.95 -2.027,-2.285 0,-1.383 0.855,-2.239 2.226,-2.239 m 6.633,-1.511 0.516,0.304 c -0.75,1.313 -1.055,2.414 -1.055,3.996 0,1.336 0.305,2.391 1.055,3.727 l -0.539,0.316 c -0.914,-1.5 -1.243,-2.672 -1.243,-4.113 0,-1.676 0.352,-2.836 1.266,-4.23 m 3.914,1.511 c 1.395,0 2.262,1.231 2.262,3.258 0,1.969 -0.844,3.164 -2.203,3.164 -1.406,0 -2.274,-1.23 -2.274,-3.246 0,-1.98 0.844,-3.176 2.215,-3.176 m 0.059,0.645 c -0.938,0 -1.524,0.972 -1.524,2.613 0,1.582 0.563,2.531 1.477,2.531 0.914,0 1.488,-0.996 1.488,-2.613 0,-1.582 -0.551,-2.531 -1.441,-2.531 m 5.203,-0.598 h 0.715 v 6.293 h -0.434 l -2.226,-1.16 0.269,-0.504 1.91,0.902 -0.234,0.223 v -5.754 m 4.488,-0.047 c 1.395,0 2.262,1.231 2.262,3.258 0,1.969 -0.844,3.164 -2.203,3.164 -1.406,0 -2.274,-1.23 -2.274,-3.246 0,-1.98 0.844,-3.176 2.215,-3.176 m 0.059,0.645 c -0.938,0 -1.524,0.972 -1.524,2.613 0,1.582 0.563,2.531 1.477,2.531 0.914,0 1.488,-0.996 1.488,-2.613 0,-1.582 -0.551,-2.531 -1.441,-2.531 m 4.078,-2.156 c 0.926,1.394 1.266,2.554 1.266,4.23 0,1.441 -0.329,2.613 -1.231,4.113 l -0.551,-0.316 c 0.75,-1.336 1.055,-2.391 1.055,-3.727 0,-1.582 -0.305,-2.683 -1.055,-3.996 l 0.516,-0.304"
         style="fill:#000000;fill-opacity:1;fill-rule:nonzero;stroke:none"
         id="path578" /></g><g
       id="g580"><path
         d="m 265.5,220.5 h 24"
         style="fill:none;stroke:#00ff00;stroke-width:2;stroke-linecap:butt;stroke-linejoin:miter;stroke-miterlimit:10;stroke-dasharray:none;stroke-opacity:1"
         id="path582" /></g><g
       id="g584"><path
         d="m 294.082,216.75 h 0.738 v 5.59 h 1.114 c 0.902,0 1.511,-0.586 1.511,-1.465 0,-0.855 -0.504,-1.301 -1.429,-1.301 h -1.465 v -0.644 h 1.336 c 1.394,0 2.332,0.82 2.332,2.074 0,1.195 -0.891,1.992 -2.203,1.992 h -1.934 v -6.246 m 6.141,-0.059 c 0.234,0 0.515,0.059 0.691,0.153 l -0.164,0.504 c -0.105,-0.047 -0.211,-0.071 -0.316,-0.071 -0.305,0 -0.469,0.2 -0.469,0.539 v 5.579 h -0.715 v -5.672 c 0,-0.621 0.387,-1.032 0.973,-1.032 m 3.949,0.059 h 0.504 v 2.812 c 0,1.043 -0.61,1.618 -1.735,1.618 -0.574,0 -1.183,-0.153 -1.652,-0.422 l 0.176,-0.528 c 0.457,0.2 0.902,0.293 1.324,0.293 0.773,0 1.172,-0.316 1.172,-0.961 v -2.308 l 0.211,-0.504 m -1.535,-0.094 c 1.031,0 1.816,0.656 1.945,1.617 l -0.258,0.118 c -0.14,-0.657 -0.726,-1.102 -1.476,-1.102 -0.575,0 -0.961,0.293 -0.961,0.715 0,0.551 0.644,0.773 2.179,0.773 v 0.504 c -2.015,0 -2.894,-0.41 -2.894,-1.347 0,-0.774 0.574,-1.278 1.465,-1.278 m 5.59,0.047 c 0.304,0 0.597,0.07 0.808,0.164 l -0.164,0.516 c -0.141,-0.059 -0.34,-0.094 -0.492,-0.094 -0.445,0 -0.738,0.293 -0.738,0.715 v 4.348 h -0.727 v -4.442 c 0,-0.715 0.527,-1.207 1.313,-1.207 m -1.899,3.785 h 2.496 v 0.598 h -2.496 v -0.598 m 5.367,-3.832 c 0.493,0 1.043,0.117 1.43,0.328 l -0.164,0.516 c -0.34,-0.152 -0.762,-0.258 -1.137,-0.258 -1.019,0 -1.617,0.68 -1.617,1.805 0,0.973 0.434,1.512 1.231,1.512 0.738,0 1.171,-0.469 1.171,-1.301 h -2.531 v -0.539 h 3.164 c 0.024,0.14 0.035,0.445 0.035,0.621 0,1.09 -0.715,1.84 -1.781,1.84 -1.207,0 -2.027,-0.95 -2.027,-2.285 0,-1.383 0.855,-2.239 2.226,-2.239 m 6.633,-1.511 0.516,0.304 c -0.75,1.313 -1.055,2.414 -1.055,3.996 0,1.336 0.305,2.391 1.055,3.727 l -0.539,0.316 c -0.914,-1.5 -1.243,-2.672 -1.243,-4.113 0,-1.676 0.352,-2.836 1.266,-4.23 m 3.914,1.511 c 1.395,0 2.262,1.231 2.262,3.258 0,1.969 -0.844,3.164 -2.203,3.164 -1.406,0 -2.274,-1.23 -2.274,-3.246 0,-1.98 0.844,-3.176 2.215,-3.176 m 0.059,0.645 c -0.938,0 -1.524,0.972 -1.524,2.613 0,1.582 0.563,2.531 1.477,2.531 0.914,0 1.488,-0.996 1.488,-2.613 0,-1.582 -0.551,-2.531 -1.441,-2.531 m 5.941,-0.645 c 1.395,0 2.262,1.231 2.262,3.258 0,1.969 -0.844,3.164 -2.203,3.164 -1.406,0 -2.274,-1.23 -2.274,-3.246 0,-1.98 0.844,-3.176 2.215,-3.176 m 0.059,0.645 c -0.938,0 -1.524,0.972 -1.524,2.613 0,1.582 0.563,2.531 1.477,2.531 0.914,0 1.488,-0.996 1.488,-2.613 0,-1.582 -0.551,-2.531 -1.441,-2.531 m 5.203,-0.598 h 0.715 v 6.293 h -0.434 l -2.226,-1.16 0.269,-0.504 1.91,0.902 -0.234,0.223 v -5.754 m 2.625,-1.558 c 0.926,1.394 1.266,2.554 1.266,4.23 0,1.441 -0.329,2.613 -1.231,4.113 l -0.551,-0.316 c 0.75,-1.336 1.055,-2.391 1.055,-3.727 0,-1.582 -0.305,-2.683 -1.055,-3.996 l 0.516,-0.304"
         style="fill:#000000;fill-opacity:1;fill-rule:nonzero;stroke:none"
         id="path586" /></g><g
       id="g588"><path
         d="m 265.5,209.25 h 24"
         style="fill:none;stroke:#0000ff;stroke-width:2;stroke-linecap:butt;stroke-linejoin:miter;stroke-miterlimit:10;stroke-dasharray:none;stroke-opacity:1"
         id="path590" /></g><g
       id="g592"><path
         d="m 294.082,205.5 h 0.738 v 5.59 h 1.114 c 0.902,0 1.511,-0.586 1.511,-1.465 0,-0.855 -0.504,-1.301 -1.429,-1.301 h -1.465 v -0.644 h 1.336 c 1.394,0 2.332,0.82 2.332,2.074 0,1.195 -0.891,1.992 -2.203,1.992 h -1.934 V 205.5 m 6.141,-0.059 c 0.234,0 0.515,0.059 0.691,0.153 l -0.164,0.504 c -0.105,-0.047 -0.211,-0.071 -0.316,-0.071 -0.305,0 -0.469,0.2 -0.469,0.539 v 5.579 h -0.715 v -5.672 c 0,-0.621 0.387,-1.032 0.973,-1.032 m 3.949,0.059 h 0.504 v 2.812 c 0,1.043 -0.61,1.618 -1.735,1.618 -0.574,0 -1.183,-0.153 -1.652,-0.422 l 0.176,-0.528 c 0.457,0.2 0.902,0.293 1.324,0.293 0.773,0 1.172,-0.316 1.172,-0.961 v -2.308 l 0.211,-0.504 m -1.535,-0.094 c 1.031,0 1.816,0.656 1.945,1.617 l -0.258,0.118 c -0.14,-0.657 -0.726,-1.102 -1.476,-1.102 -0.575,0 -0.961,0.293 -0.961,0.715 0,0.551 0.644,0.773 2.179,0.773 v 0.504 c -2.015,0 -2.894,-0.41 -2.894,-1.347 0,-0.774 0.574,-1.278 1.465,-1.278 m 5.59,0.047 c 0.304,0 0.597,0.07 0.808,0.164 l -0.164,0.516 c -0.141,-0.059 -0.34,-0.094 -0.492,-0.094 -0.445,0 -0.738,0.293 -0.738,0.715 v 4.348 h -0.727 v -4.442 c 0,-0.715 0.527,-1.207 1.313,-1.207 m -1.899,3.785 h 2.496 v 0.598 h -2.496 v -0.598 m 5.367,-3.832 c 0.493,0 1.043,0.117 1.43,0.328 l -0.164,0.516 c -0.34,-0.152 -0.762,-0.258 -1.137,-0.258 -1.019,0 -1.617,0.68 -1.617,1.805 0,0.973 0.434,1.512 1.231,1.512 0.738,0 1.171,-0.469 1.171,-1.301 h -2.531 v -0.539 h 3.164 c 0.024,0.14 0.035,0.445 0.035,0.621 0,1.09 -0.715,1.84 -1.781,1.84 -1.207,0 -2.027,-0.95 -2.027,-2.285 0,-1.383 0.855,-2.239 2.226,-2.239 m 6.633,-1.511 0.516,0.304 c -0.75,1.313 -1.055,2.414 -1.055,3.996 0,1.336 0.305,2.391 1.055,3.727 l -0.539,0.316 c -0.914,-1.5 -1.243,-2.672 -1.243,-4.113 0,-1.676 0.352,-2.836 1.266,-4.23 m 3.176,1.558 h 0.715 v 6.293 h -0.434 l -2.226,-1.16 0.269,-0.504 1.91,0.902 -0.234,0.223 v -5.754 m 4.488,-0.047 c 1.395,0 2.262,1.231 2.262,3.258 0,1.969 -0.844,3.164 -2.203,3.164 -1.406,0 -2.274,-1.23 -2.274,-3.246 0,-1.98 0.844,-3.176 2.215,-3.176 m 0.059,0.645 c -0.938,0 -1.524,0.972 -1.524,2.613 0,1.582 0.563,2.531 1.477,2.531 0.914,0 1.488,-0.996 1.488,-2.613 0,-1.582 -0.551,-2.531 -1.441,-2.531 m 5.941,-0.645 c 1.395,0 2.262,1.231 2.262,3.258 0,1.969 -0.844,3.164 -2.203,3.164 -1.406,0 -2.274,-1.23 -2.274,-3.246 0,-1.98 0.844,-3.176 2.215,-3.176 m 0.059,0.645 c -0.938,0 -1.524,0.972 -1.524,2.613 0,1.582 0.563,2.531 1.477,2.531 0.914,0 1.488,-0.996 1.488,-2.613 0,-1.582 -0.551,-2.531 -1.441,-2.531 m 4.078,-2.156 c 0.926,1.394 1.266,2.554 1.266,4.23 0,1.441 -0.329,2.613 -1.231,4.113 l -0.551,-0.316 c 0.75,-1.336 1.055,-2.391 1.055,-3.727 0,-1.582 -0.305,-2.683 -1.055,-3.996 l 0.516,-0.304"
         style="fill:#000000;fill-opacity:1;fill-rule:nonzero;stroke:none"
         id="path594" /></g><g
       id="g596"><path
         d="m 265.5,198 h 24"
         style="fill:none;stroke:#00ffff;stroke-width:2;stroke-linecap:butt;stroke-linejoin:miter;stroke-miterlimit:10;stroke-dasharray:none;stroke-opacity:1"
         id="path598" /></g><g
       id="g600"><path
         d="m 295.617,194.156 c 1.395,0 2.297,0.715 2.297,1.817 0,2.203 -3.492,1.324 -3.492,2.941 0,0.656 0.527,1.008 1.476,1.008 0.54,0 1.114,-0.106 1.559,-0.293 l 0.223,0.586 c -0.528,0.234 -1.125,0.363 -1.723,0.363 -1.395,0 -2.297,-0.691 -2.297,-1.781 0,-2.145 3.481,-1.348 3.481,-2.942 0,-0.621 -0.539,-1.031 -1.477,-1.031 -0.574,0 -1.277,0.153 -1.887,0.41 l -0.222,-0.586 c 0.691,-0.316 1.394,-0.492 2.062,-0.492 m 5.531,0 c 1.207,0 2.016,0.938 2.016,2.344 0,1.301 -0.738,2.18 -1.863,2.18 -0.61,0 -1.196,-0.27 -1.571,-0.739 l 0.165,-0.457 c 0.316,0.352 0.761,0.563 1.218,0.563 0.809,0 1.336,-0.645 1.336,-1.641 0,-0.972 -0.48,-1.617 -1.254,-1.617 -0.656,0 -1.195,0.422 -1.347,1.066 l -0.293,-0.503 c 0.199,-0.75 0.82,-1.196 1.593,-1.196 m -1.898,-1.863 h 0.715 v 5.789 l -0.211,0.504 h -0.504 v -6.293 m 8.203,1.957 h 0.727 v 2.848 c 0,0.961 -0.645,1.582 -1.618,1.582 -0.621,0 -1.242,-0.27 -1.71,-0.809 l 0.175,-0.457 c 0.364,0.422 0.832,0.633 1.336,0.633 0.703,0 1.09,-0.399 1.09,-1.102 v -2.695 m -2.953,0 h 0.715 v 6.645 H 304.5 v -6.645 m 7.195,-0.094 c 0.493,0 1.043,0.117 1.43,0.328 L 312.961,195 c -0.34,-0.152 -0.762,-0.258 -1.137,-0.258 -1.019,0 -1.617,0.68 -1.617,1.805 0,0.973 0.434,1.512 1.231,1.512 0.738,0 1.171,-0.469 1.171,-1.301 h -2.531 v -0.539 h 3.164 c 0.024,0.14 0.035,0.445 0.035,0.621 0,1.09 -0.715,1.84 -1.781,1.84 -1.207,0 -2.027,-0.95 -2.027,-2.285 0,-1.383 0.855,-2.239 2.226,-2.239 M 315,194.25 h 0.715 v 3.328 l -0.129,1.008 H 315 v -4.336 m 0.551,2.812 c 0.258,0.551 0.773,0.879 1.371,0.879 0.176,0 0.328,-0.023 0.48,-0.07 l 0.176,0.656 c -0.187,0.071 -0.375,0.106 -0.574,0.106 -0.586,0 -1.125,-0.317 -1.453,-0.844 v -0.727 m 5.144,-2.906 c 0.493,0 1.043,0.117 1.43,0.328 L 321.961,195 c -0.34,-0.152 -0.762,-0.258 -1.137,-0.258 -1.019,0 -1.617,0.68 -1.617,1.805 0,0.973 0.434,1.512 1.231,1.512 0.738,0 1.171,-0.469 1.171,-1.301 h -2.531 v -0.539 h 3.164 c 0.024,0.14 0.035,0.445 0.035,0.621 0,1.09 -0.715,1.84 -1.781,1.84 -1.207,0 -2.027,-0.95 -2.027,-2.285 0,-1.383 0.855,-2.239 2.226,-2.239"
         style="fill:#000000;fill-opacity:1;fill-rule:nonzero;stroke:none"
         id="path602" /></g></g></svg>
