<?xml version="1.0" encoding="UTF-8" standalone="no"?>
<!-- Created with Inkscape (http://www.inkscape.org/) -->

<svg
   version="1.1"
   id="svg2"
   xml:space="preserve"
   width="492"
   height="377"
   viewBox="0 0 492 377"
   xmlns="http://www.w3.org/2000/svg"
   xmlns:svg="http://www.w3.org/2000/svg"><defs
     id="defs6"><clipPath
       clipPathUnits="userSpaceOnUse"
       id="clipPath20"><path
         d="m 53.25,267 h 144 V 39 h -144 M 210,267 H 352.5 V 39 H 210"
         clip-rule="evenodd"
         id="path18" /></clipPath><clipPath
       clipPathUnits="userSpaceOnUse"
       id="clipPath30"><path
         d="m 53.25,267 h 144 V 39 h -144 M 210,267 H 352.5 V 39 H 210"
         clip-rule="evenodd"
         id="path28" /></clipPath><clipPath
       clipPathUnits="userSpaceOnUse"
       id="clipPath40"><path
         d="m 53.25,267 h 144 V 39 h -144 M 210,267 H 352.5 V 39 H 210"
         clip-rule="evenodd"
         id="path38" /></clipPath></defs><g
     id="g8"
     transform="matrix(1.3333333,0,0,-1.3333333,0,377)"><g
       id="g10"><path
         d="M 0,282.75 H 369 V 0 H 0 Z"
         style="fill:#ffffff;fill-opacity:1;fill-rule:nonzero;stroke:none"
         id="path12" /></g><g
       id="g14"><g
         id="g16"
         clip-path="url(#clipPath20)"><path
           d="m 82.575,39.066 h 0.352 l 0.704,10e-4 h 0.762 l 0.763,10e-4 h 0.762 l 0.762,0.001 0.704,10e-4 h 0.763 l 0.762,0.002 0.763,10e-4 0.703,10e-4 0.763,0.001 0.762,0.002 0.763,0.002 0.762,0.002 0.704,0.002 0.762,0.003 0.763,0.003 0.762,0.003 0.763,0.004 0.704,0.004 0.762,0.005 0.763,0.005 0.762,0.006 0.762,0.007 0.704,0.007 0.763,0.009 0.762,0.01 0.763,0.012 0.703,0.013 0.763,0.016 0.762,0.019 0.763,0.024 0.762,0.029 0.704,0.033 0.762,0.044 0.528,0.038 0.235,0.02 0.762,0.076 0.763,0.105 0.704,0.134 0.762,0.212 0.528,0.212 0.234,0.119 0.763,0.56 0.117,0.12 0.528,0.718 0.059,0.104 0.293,0.623 0.293,0.857 0.176,0.676 0.176,0.844 0.117,0.684 0.118,0.804 0.117,0.953 0.059,0.543 0.117,1.243 0.059,0.712 0.058,0.781 0.059,0.858 0.059,0.942 0.058,1.035 0.059,1.136 0.059,1.246 0.058,1.363 0.059,1.486 0.058,1.613 0.059,1.739 0.059,1.859 0.058,1.964 0.059,2.043 0.059,2.084 0.058,2.074 0.059,1.996 0.059,1.841 0.058,1.603 0.059,1.281 0.059,0.889 0.058,0.445 0.118,-0.505 0.058,-0.912 0.059,-1.285 0.059,-1.584 0.058,-1.808 0.059,-1.953 0.058,-2.027 0.059,-2.041 0.059,-2.005 0.058,-1.934 0.059,-1.837 0.059,-1.724 0.058,-1.604 0.059,-1.482 0.059,-1.363 0.058,-1.247 0.059,-1.14 0.059,-1.039 0.058,-0.948 0.059,-0.863 0.059,-0.787 0.058,-0.718 0.059,-0.655 0.059,-0.598 0.058,-0.548 0.059,-0.502 0.117,-0.883 0.059,-0.39 0.058,-0.359 0.118,-0.637 0.176,-0.791 0.234,-0.821 0.176,-0.485 0.059,-0.142 0.41,-0.787 0.294,-0.4 0.293,-0.31 0.469,-0.367 0.704,-0.365 0.059,-0.023 0.703,-0.226 0.763,-0.163 0.762,-0.111 0.763,-0.078 0.704,-0.052 0.762,-0.041 0.762,-0.029 0.763,-0.02 0.586,-0.011 0.118,-0.001 0.762,-0.008 0.763,-0.002 0.762,0.002 0.762,0.007 0.235,0.003 0.469,0.008 0.763,0.015 0.762,0.021 0.763,0.026 0.762,0.032 0.704,0.036 0.762,0.048 0.763,0.057 0.762,0.071 0.704,0.08 0.762,0.108 0.763,0.135 0.528,0.114 0.234,0.058 0.763,0.226 0.704,0.275 0.41,0.2 0.352,0.203 0.763,0.573 0.703,0.771 0.059,0.079 0.411,0.639 0.351,0.699 0.059,0.133 0.293,0.758 0.235,0.737 0.117,0.422 0.059,0.227 0.176,0.752 0.176,0.875 0.117,0.666 0.117,0.745 0.118,0.835 0.117,0.94 0.059,0.514 0.117,1.133 0.059,0.624 0.058,0.666 0.059,0.714 0.059,0.764 0.058,0.82 0.059,0.881 0.058,0.948 0.059,1.022 0.059,1.102 0.058,1.192 0.059,1.289 0.059,1.399 0.058,1.519 0.059,1.651 0.059,1.799 0.058,1.961 0.059,2.143 0.059,2.343 0.058,2.564 0.059,2.808 0.059,3.078 0.058,3.373 0.059,3.695 0.059,4.042 0.058,4.414 0.059,4.803 0.058,5.204 0.059,5.604 0.059,5.984 0.058,6.324 0.059,6.591 0.059,6.754 0.058,6.777 0.059,6.629 0.059,6.286 0.058,5.739 0.059,5.001 0.059,4.103 0.058,3.09 0.059,2.022 0.059,0.954 0.117,-1.058 0.059,-1.815 0.058,-2.518 0.059,-3.101 0.058,-3.572 0.059,-3.944 0.059,-4.228 0.058,-4.44 0.059,-4.588 0.059,-4.687 0.058,-4.744 0.059,-4.765 0.059,-4.758 0.058,-4.726 0.059,-4.671 0.059,-4.595 0.058,-4.499 0.059,-4.386 0.059,-4.252 0.058,-4.101 0.059,-3.933 0.059,-3.75 0.058,-3.555 0.059,-3.352 0.058,-3.143 0.059,-2.934 0.059,-2.728 0.058,-2.528 0.059,-2.337 0.059,-2.155 0.058,-1.986 0.059,-1.83 0.059,-1.684 0.058,-1.551 0.059,-1.43 0.059,-1.319 0.058,-1.218 0.059,-1.125 0.059,-1.042 0.058,-0.966 0.059,-0.896 0.059,-0.833 0.058,-0.775 0.059,-0.723 0.058,-0.674 0.059,-0.631 0.117,-1.142 0.059,-0.519 0.059,-0.487 0.117,-0.89 0.117,-0.791 0.059,-0.362 0.059,-0.343 0.117,-0.633 0.176,-0.832 0.176,-0.715 0.234,-0.808 0.235,-0.675 0.293,-0.698 0.235,-0.466 0.176,-0.306 0.528,-0.745 0.058,-0.07 0.645,-0.638 0.118,-0.096 0.704,-0.473 0.293,-0.158 0.469,-0.216 0.762,-0.277 0.763,-0.212 0.176,-0.042 0.586,-0.123 0.704,-0.123 0.763,-0.108 0.762,-0.088 0.763,-0.074 0.703,-0.057 0.763,-0.054 0.762,-0.045 0.763,-0.039 0.762,-0.034 0.059,-0.003 0.645,-0.025 0.762,-0.026 0.763,-0.023 0.762,-0.021 0.763,-0.019 0.704,-0.015 0.762,-0.015 0.762,-0.014 0.763,-0.012 0.762,-0.011 0.704,-0.01 0.763,-0.009 0.762,-0.009 0.762,-0.008 0.704,-0.007 0.763,-0.007 0.762,-0.006 0.763,-0.006 0.762,-0.005 0.704,-0.005 0.762,-0.005 0.763,-0.004 0.762,-0.004 0.763,-0.004 0.703,-0.004 0.763,-0.003 0.762,-0.003 0.763,-0.003 0.704,-0.003 0.762,-0.003 0.763,-0.002 0.762,-0.003 0.762,-0.002 0.704,-0.002 0.763,-0.002 0.762,-0.002 0.763,-0.002 0.762,-0.002 0.704,-0.002 0.762,-0.001 0.763,-0.002 0.762,-0.002 3.704,-10e-4 3.059,-0.007 0.703,0.001 0.763,0.002 0.762,0.002 0.763,10e-4 0.704,0.002 0.762,0.002 0.762,0.002 0.763,0.002 0.762,0.002 0.704,0.002 0.763,0.003 0.762,0.003 0.763,0.002 0.762,0.003 0.704,0.003 0.762,0.004 0.763,0.003 0.762,0.004 0.704,0.004 0.762,0.004 0.763,0.005 0.762,0.005 0.763,0.006 0.704,0.005 0.762,0.006 0.762,0.007 0.763,0.008 0.762,0.008 0.704,0.008 0.763,0.01 0.762,0.01 0.762,0.012 0.704,0.011 0.763,0.014 0.762,0.015 0.763,0.017 0.762,0.019 0.704,0.02 0.762,0.024 0.763,0.026 0.762,0.031 0.118,0.005 0.645,0.03 0.703,0.036 0.763,0.046 0.762,0.053 0.763,0.062 0.762,0.074 0.704,0.08 0.763,0.105 0.762,0.128 0.704,0.144 0.058,0.014 0.704,0.182 0.763,0.252 0.703,0.3 0.059,0.029 0.763,0.444 0.41,0.305 0.352,0.311 0.411,0.437 0.293,0.373 0.234,0.344 0.47,0.845 0.058,0.124 0.235,0.542 0.293,0.807 0.235,0.775 0.176,0.677 0.176,0.774 0.176,0.893 0.117,0.672 0.117,0.745 0.117,0.828 0.118,0.922 0.058,0.502 0.118,1.095 0.058,0.597 0.059,0.635 0.059,0.675 0.058,0.719 0.059,0.767 0.059,0.817 0.058,0.874 0.059,0.936 0.059,1.002 0.058,1.074 0.059,1.155 0.059,1.243 0.058,1.338 0.059,1.445 0.058,1.561 0.059,1.69 0.059,1.831 0.058,1.989 0.059,2.162 0.059,2.355 0.058,2.569 0.059,2.805 0.059,3.067 0.058,3.358 0.059,3.681 0.059,4.036 0.058,4.427 0.059,4.857 0.059,5.324 0.058,5.827 0.059,6.365 0.059,6.926 0.058,7.5 0.059,8.068 0.058,8.6 0.059,9.062 0.059,9.407 0.058,9.583 0.059,9.535 0.059,9.215 0.058,8.585 0.059,7.634 0.059,6.383 0.058,4.881 0.059,3.207 0.059,1.452 0.058,-0.293 0.059,-1.943 0.059,-3.44 0.058,-4.745 0.059,-5.837 0.059,-6.717 0.058,-7.39 0.059,-7.875 0.058,-8.185 0.059,-8.344 0.059,-8.367 0.058,-8.272 0.059,-8.077 0.059,-7.8 0.058,-7.458 0.059,-7.067 0.059,-6.644 0.058,-6.204 0.059,-5.761 0.059,-5.325 0.058,-4.904 0.059,-4.504 0.059,-4.13 0.058,-3.783 0.059,-3.462 0.059,-3.17 0.058,-2.902 0.059,-2.659 0.058,-2.439 0.059,-2.24 0.059,-2.059 0.058,-1.896 0.059,-1.747 0.059,-1.613 0.058,-1.492 0.059,-1.382 0.059,-1.281 0.058,-1.189 0.059,-1.107 0.059,-1.03 0.058,-0.961 0.059,-0.898 0.059,-0.839 0.058,-0.786 0.059,-0.737 0.059,-0.692 0.058,-0.65 0.117,-1.188 0.059,-0.543 0.059,-0.513 0.117,-0.942 0.117,-0.845 0.059,-0.39 0.117,-0.721 0.176,-0.955 0.059,-0.289 0.059,-0.275 0.176,-0.753 0.234,-0.86 0.235,-0.726 0.058,-0.164 0.235,-0.595 0.293,-0.629 0.176,-0.327 0.293,-0.476 0.47,-0.618 0.058,-0.068 0.704,-0.673 0.117,-0.092 0.646,-0.432 0.586,-0.306 0.176,-0.079 0.704,-0.27 0.762,-0.229 0.704,-0.168 0.059,-0.012 0.762,-0.145 0.763,-0.118 0.703,-0.091 0.763,-0.082 0.762,-0.069 0.763,-0.059 0.704,-0.048 0.762,-0.044 0.762,-0.038 0.763,-0.034 0.234,-0.01 0.528,-0.02 0.704,-0.024 0.763,-0.024 0.762,-0.021 0.762,-0.019 0.763,-0.017 0.704,-0.014 0.762,-0.014 0.763,-0.013 0.762,-0.012 0.704,-0.01 0.762,-0.009 0.763,-0.009 0.762,-0.009 0.763,-0.007 0.703,-0.007 0.763,-0.007 0.762,-0.006 0.763,-0.006 0.762,-0.005 0.704,-0.005 0.763,-0.004 0.762,-0.005 0.762,-0.004 0.763,-0.004 0.704,-0.003 0.762,-0.004 0.763,-0.003 0.762,-0.003"
           style="fill:none;stroke:#000000;stroke-width:2;stroke-linecap:butt;stroke-linejoin:miter;stroke-miterlimit:10;stroke-dasharray:none;stroke-opacity:1"
           id="path22" /></g></g><g
       id="g24"><g
         id="g26"
         clip-path="url(#clipPath30)"><path
           d="m 82.575,39.064 h 0.352 0.704 l 0.762,-10e-4 0.763,10e-4 h 0.762 0.762 0.704 l 0.763,10e-4 0.762,0.001 h 0.763 l 0.703,10e-4 0.763,10e-4 0.762,0.002 0.763,10e-4 0.762,0.002 0.704,0.002 0.762,0.002 0.763,0.002 0.762,0.003 0.763,0.003 0.704,0.004 0.762,0.004 0.763,0.004 0.762,0.005 0.762,0.006 0.704,0.007 0.763,0.007 0.762,0.009 0.763,0.011 0.703,0.011 0.763,0.014 0.762,0.017 0.763,0.021 0.762,0.025 0.704,0.028 0.762,0.038 0.763,0.048 0.41,0.031 0.352,0.031 0.763,0.084 0.704,0.105 0.762,0.161 0.762,0.243 0.294,0.127 0.469,0.265 0.586,0.498 0.118,0.133 0.469,0.71 0.293,0.66 0.293,0.937 0.176,0.762 0.118,0.622 0.117,0.739 0.059,0.421 0.058,0.46 0.118,1.054 0.058,0.603 0.059,0.659 0.059,0.721 0.058,0.785 0.059,0.852 0.058,0.921 0.059,0.987 0.059,1.049 0.058,1.099 0.059,1.134 0.059,1.143 0.058,1.122 0.059,1.06 0.059,0.955 0.058,0.805 0.059,0.612 0.293,-0.339 0.059,-0.629 0.059,-0.721 0.058,-0.769 0.059,-0.775 0.058,-0.747 0.059,-0.692 0.059,-0.619 0.117,-0.966 0.117,-0.559 0.176,-0.022 0.059,0.216 0.117,0.779 0.118,1.252 0.058,0.804 0.059,0.92 0.059,1.029 0.058,1.126 0.059,1.205 0.058,1.255 0.059,1.267 0.059,1.231 0.058,1.138 0.059,0.982 0.059,0.765 0.058,0.492 0.176,-0.451 0.059,-0.783 0.059,-1.041 0.058,-1.245 0.059,-1.389 0.059,-1.474 0.058,-1.51 0.059,-1.502 0.059,-1.461 0.058,-1.398 0.059,-1.318 0.058,-1.232 0.059,-1.141 0.059,-1.053 0.058,-0.965 0.059,-0.884 0.059,-0.808 0.117,-1.41 0.059,-0.614 0.058,-0.561 0.059,-0.513 0.117,-0.9 0.118,-0.758 0.117,-0.642 0.176,-0.791 0.117,-0.436 0.059,-0.196 0.293,-0.8 0.352,-0.677 0.586,-0.729 0.176,-0.156 0.763,-0.485 0.176,-0.08 0.586,-0.214 0.763,-0.193 0.704,-0.124 0.762,-0.097 0.762,-0.073 0.528,-0.039 0.235,-0.016 0.704,-0.04 0.762,-0.034 0.763,-0.028 0.762,-0.022 0.762,-0.018 0.704,-0.014 0.763,-0.013 0.762,-0.011 0.763,-0.009 0.762,-0.007 0.704,-0.005 0.762,-0.005 0.763,-0.004 0.762,-0.003 0.704,-0.003 0.762,-0.001 0.763,-10e-4 0.762,-10e-4 h 0.763 l 0.704,10e-4 0.762,10e-4 0.763,0.002 0.762,0.002 0.762,0.003 0.704,0.003 0.763,0.004 0.762,0.005 0.763,0.005 0.762,0.007 0.704,0.006 0.762,0.008 0.763,0.009 0.762,0.01 0.704,0.01 0.762,0.013 0.763,0.014 0.762,0.017 0.763,0.018 0.704,0.019 0.762,0.024 0.762,0.027 0.704,0.029 0.059,0.002 0.762,0.037 0.704,0.039 0.763,0.049 0.762,0.058 0.763,0.07 0.703,0.077 0.763,0.101 0.762,0.126 0.763,0.157 0.176,0.043 0.586,0.159 0.704,0.242 0.762,0.347 0.763,0.48 0.352,0.286 0.41,0.404 0.294,0.348 0.469,0.693 0.058,0.101 0.352,0.695 0.294,0.718 0.058,0.162 0.235,0.725 0.176,0.636 0.234,1.002 0.059,0.284 0.059,0.298 0.176,0.994 0.117,0.759 0.059,0.412 0.117,0.901 0.117,1.014 0.059,0.556 0.058,0.592 0.118,1.305 0.058,0.721 0.059,0.771 0.059,0.827 0.058,0.887 0.059,0.954 0.059,1.026 0.058,1.106 0.059,1.195 0.059,1.291 0.058,1.399 0.059,1.517 0.059,1.648 0.058,1.792 0.059,1.953 0.058,2.131 0.059,2.327 0.059,2.546 0.058,2.787 0.059,3.054 0.059,3.347 0.058,3.669 0.059,4.018 0.059,4.396 0.058,4.798 0.059,5.22 0.059,5.651 0.058,6.08 0.059,6.485 0.059,6.84 0.058,7.115 0.059,7.27 0.059,7.269 0.058,7.077 0.059,6.672 0.058,6.046 0.059,5.214 0.059,4.212 0.058,3.094 0.059,1.923 0.059,0.759 0.117,-1.694 0.059,-2.232 0.058,-2.984 0.059,-3.606 0.059,-4.107 0.058,-4.499 0.059,-4.797 0.059,-5.015 0.058,-5.166 0.059,-5.259 0.059,-5.306 0.058,-5.313 0.059,-5.285 0.058,-5.226 0.059,-5.139 0.059,-5.025 0.058,-4.886 0.059,-4.724 0.059,-4.54 0.058,-4.336 0.059,-4.118 0.059,-3.887 0.058,-3.648 0.059,-3.408 0.059,-3.169 0.058,-2.938 0.059,-2.714 0.059,-2.504 0.058,-2.305 0.059,-2.122 0.059,-1.952 0.058,-1.796 0.059,-1.653 0.058,-1.523 0.059,-1.405 0.059,-1.297 0.058,-1.198 0.059,-1.11 0.059,-1.029 0.058,-0.954 0.059,-0.888 0.059,-0.826 0.058,-0.77 0.059,-0.719 0.059,-0.672 0.058,-0.629 0.059,-0.589 0.059,-0.553 0.058,-0.52 0.118,-0.949 0.117,-0.843 0.058,-0.387 0.176,-1.04 0.118,-0.607 0.176,-0.802 0.176,-0.693 0.234,-0.786 0.176,-0.505 0.059,-0.155 0.293,-0.685 0.411,-0.763 0.527,-0.741 0.235,-0.266 0.528,-0.491 0.176,-0.138 0.762,-0.484 0.176,-0.091 0.587,-0.262 0.762,-0.264 0.763,-0.203 0.117,-0.027 0.586,-0.121 0.763,-0.13 0.762,-0.106 0.763,-0.086 0.704,-0.068 0.762,-0.061 0.763,-0.053 0.762,-0.045 0.762,-0.039 0.704,-0.031 0.118,-0.005 0.645,-0.025 0.762,-0.026 0.763,-0.023 0.762,-0.021 0.704,-0.017 0.762,-0.017 0.763,-0.015 0.762,-0.014 3.704,-0.012 3.059,-0.153 0.703,0.002 0.763,10e-4 0.762,0.001 0.763,0.002 0.704,0.001 0.762,10e-4 0.762,0.002 0.763,0.002 0.762,0.002 0.704,10e-4 0.763,0.002 0.762,0.003 0.763,0.002 0.762,0.002 0.704,0.003 0.762,0.002 0.763,0.003 0.762,0.003 0.704,0.003 0.762,0.004 0.763,0.003 0.762,0.004 0.763,0.005 0.704,0.004 0.762,0.005 0.762,0.005 0.763,0.006 0.762,0.006 0.704,0.006 0.763,0.007 0.762,0.008 0.762,0.008 0.704,0.009 0.763,0.01 0.762,0.011 0.763,0.013 0.762,0.013 0.704,0.014 0.762,0.017 0.763,0.018 0.762,0.021 0.763,0.024 0.703,0.025 0.763,0.03 0.293,0.013 0.469,0.022 0.763,0.041 0.762,0.048 0.704,0.051 0.763,0.067 0.762,0.079 0.762,0.098 0.704,0.111 0.763,0.151 0.352,0.083 0.41,0.112 0.763,0.26 0.762,0.356 0.059,0.033 0.645,0.43 0.41,0.361 0.352,0.384 0.294,0.39 0.41,0.692 0.059,0.116 0.293,0.665 0.293,0.839 0.176,0.614 0.235,0.988 0.117,0.584 0.176,1.016 0.117,0.791 0.059,0.435 0.059,0.465 0.058,0.497 0.059,0.533 0.117,1.185 0.059,0.66 0.059,0.711 0.058,0.767 0.059,0.829 0.058,0.897 0.059,0.972 0.059,1.056 0.058,1.148 0.059,1.25 0.059,1.364 0.058,1.489 0.059,1.629 0.059,1.784 0.058,1.956 0.059,2.146 0.059,2.356 0.058,2.587 0.059,2.84 0.059,3.113 0.058,3.407 0.059,3.717 0.059,4.038 0.058,4.361 0.059,4.671 0.058,4.95 0.059,5.17 0.059,5.303 0.058,5.314 0.059,5.165 0.059,4.827 0.058,4.28 0.059,3.523 0.059,2.579 0.058,1.489 0.059,0.322 0.059,-0.855 0.058,-1.966 0.059,-2.953 0.059,-3.773 0.058,-4.403 0.059,-4.837 0.059,-5.089 0.058,-5.178 0.059,-5.134 0.058,-4.988 0.059,-4.765 0.059,-4.494 0.058,-4.196 0.059,-3.887 0.059,-3.579 0.058,-3.281 0.059,-2.999 0.059,-2.734 0.058,-2.492 0.059,-2.267 0.059,-2.065 0.058,-1.879 0.059,-1.713 0.059,-1.561 0.058,-1.426 0.059,-1.302 0.059,-1.192 0.058,-1.091 0.059,-1.001 0.058,-0.92 0.059,-0.845 0.059,-0.778 0.058,-0.716 0.059,-0.662 0.117,-1.174 0.059,-0.522 0.059,-0.484 0.117,-0.862 0.117,-0.742 0.118,-0.638 0.176,-0.795 0.175,-0.631 0.059,-0.179 0.293,-0.698 0.411,-0.52 0.762,0.19 0.294,0.483 0.293,0.77 0.117,0.405 0.117,0.471 0.118,0.546 0.176,0.983 0.117,0.787 0.117,0.911 0.059,0.51 0.059,0.549 0.117,1.234 0.059,0.694 0.058,0.75 0.059,0.814 0.059,0.883 0.058,0.959 0.059,1.043 0.058,1.136 0.059,1.24 0.059,1.354 0.058,1.48 0.059,1.62 0.059,1.776 0.058,1.949 0.059,2.14 0.059,2.352 0.058,2.584 0.059,2.841 0.059,3.119 0.058,3.422 0.059,3.744 0.059,4.084 0.058,4.432 0.059,4.78 0.059,5.108 0.058,5.397 0.059,5.616 0.058,5.733 0.059,5.709 0.059,5.507 0.058,5.1 0.059,4.468 0.059,3.621 0.058,2.585 0.059,1.412 0.117,-0.892 0.059,-2.22 0.059,-3.243 0.058,-4.092 0.059,-4.747 0.059,-5.205 0.058,-5.476 0.059,-5.582 0.059,-5.549 0.058,-5.407 0.059,-5.183 0.058,-4.904 0.059,-4.592 0.059,-4.266 0.058,-3.939 0.059,-3.619 0.059,-3.314 0.058,-3.029 0.059,-2.764 0.059,-2.521 0.058,-2.3 0.059,-2.097 0.059,-1.915 0.058,-1.749 0.059,-1.601 0.059,-1.466 0.058,-1.345 0.059,-1.236 0.059,-1.136 0.058,-1.048 0.059,-0.966 0.058,-0.894 0.059,-0.827 0.059,-0.767 0.058,-0.712 0.059,-0.663 0.059,-0.616 0.058,-0.576 0.059,-0.537 0.059,-0.502 0.058,-0.47 0.118,-0.855 0.058,-0.389 0.176,-1.036 0.118,-0.596 0.175,-0.78 0.059,-0.234 0.117,-0.432 0.235,-0.745 0.293,-0.755 0.118,-0.258 0.234,-0.455 0.469,-0.72 0.704,-0.76 0.059,-0.05 0.762,-0.54 0.235,-0.13 0.528,-0.248 0.704,-0.258 0.762,-0.213 0.117,-0.028 0.645,-0.136 0.763,-0.13 0.762,-0.105 0.704,-0.08 0.763,-0.072 0.762,-0.06 0.762,-0.052 0.763,-0.044 0.704,-0.035 0.762,-0.033 0.763,-0.03 0.762,-0.025 0.704,-0.022 0.762,-0.02 0.763,-0.018 0.762,-0.017 0.763,-0.015 0.703,-0.012 0.763,-0.013 0.762,-0.011 0.763,-0.01 0.762,-0.009 0.704,-0.008 0.763,-0.008 0.762,-0.008 0.762,-0.007 0.763,-0.006 0.704,-0.005 0.762,-0.006 0.763,-0.005 0.762,-0.005"
           style="fill:none;stroke:#ff0000;stroke-width:2;stroke-linecap:butt;stroke-linejoin:miter;stroke-miterlimit:10;stroke-dasharray:none;stroke-opacity:1"
           id="path32" /></g></g><g
       id="g34"><g
         id="g36"
         clip-path="url(#clipPath40)"><path
           d="m 82.575,39.068 h 0.352 0.704 0.762 0.763 0.762 0.762 0.704 0.763 l 0.762,0.001 0.763,10e-4 h 0.703 l 0.763,10e-4 0.762,0.001 0.763,0.002 0.762,0.001 0.704,0.002 0.762,0.002 0.763,0.002 0.762,0.002 0.763,0.003 0.704,0.003 0.762,0.003 0.763,0.004 0.762,0.004 0.762,0.005 0.704,0.006 0.763,0.006 0.762,0.007 0.763,0.009 0.703,0.008 0.763,0.012 0.762,0.013 0.763,0.015 0.762,0.018 0.704,0.02 0.762,0.026 0.763,0.032 0.762,0.04 0.763,0.051 0.117,0.009 0.587,0.051 0.762,0.086 0.762,0.116 0.763,0.165 0.704,0.22 0.293,0.12 0.469,0.245 0.704,0.55 0.059,0.061 0.527,0.697 0.235,0.433 0.117,0.257 0.294,0.794 0.234,0.85 0.118,0.522 0.058,0.291 0.117,0.652 0.118,0.761 0.117,0.894 0.059,0.506 0.117,1.152 0.059,0.657 0.058,0.718 0.059,0.786 0.059,0.862 0.058,0.947 0.059,1.038 0.059,1.142 0.058,1.253 0.059,1.374 0.059,1.507 0.058,1.645 0.059,1.791 0.058,1.939 0.059,2.083 0.059,2.217 0.058,2.328 0.059,2.404 0.059,2.432 0.058,2.391 0.059,2.271 0.059,2.057 0.058,1.75 0.059,1.353 0.059,0.883 0.176,-0.474 0.058,-1.148 0.059,-1.551 0.059,-1.874 0.058,-2.112 0.059,-2.265 0.058,-2.343 0.059,-2.355 0.059,-2.313 0.058,-2.233 0.059,-2.122 0.059,-1.996 0.058,-1.858 0.059,-1.719 0.059,-1.582 0.058,-1.451 0.059,-1.325 0.059,-1.211 0.058,-1.103 0.059,-1.006 0.059,-0.918 0.058,-0.836 0.059,-0.765 0.059,-0.698 0.058,-0.639 0.059,-0.586 0.058,-0.538 0.059,-0.494 0.059,-0.455 0.117,-0.807 0.117,-0.689 0.118,-0.594 0.176,-0.744 0.117,-0.418 0.117,-0.366 0.293,-0.738 0.352,-0.647 0.059,-0.089 0.645,-0.737 0.059,-0.05 0.762,-0.497 0.352,-0.159 0.411,-0.149 0.704,-0.19 0.762,-0.144 0.762,-0.103 0.763,-0.076 0.704,-0.054 0.528,-0.033 0.234,-0.012 0.763,-0.035 0.762,-0.028 0.762,-0.022 0.704,-0.017 0.763,-0.014 0.762,-0.011 0.763,-0.008 0.762,-0.007 0.704,-0.004 0.762,-0.003 0.763,-10e-4 h 0.762 l 0.704,10e-4 0.762,0.002 0.763,0.004 0.762,0.006 0.763,0.006 0.704,0.008 0.762,0.009 0.763,0.012 0.762,0.013 0.762,0.016 0.704,0.016 0.763,0.021 0.762,0.023 0.763,0.028 0.762,0.032 0.704,0.035 0.762,0.044 0.763,0.052 0.762,0.062 0.704,0.068 0.762,0.09 0.763,0.109 0.762,0.138 0.587,0.129 0.176,0.044 0.704,0.206 0.762,0.29 0.469,0.228 0.293,0.166 0.763,0.554 0.059,0.051 0.703,0.759 0.47,0.7 0.234,0.433 0.176,0.371 0.293,0.726 0.294,0.897 0.176,0.644 0.176,0.743 0.175,0.862 0.118,0.654 0.117,0.728 0.117,0.815 0.118,0.914 0.058,0.499 0.118,1.097 0.058,0.601 0.059,0.643 0.059,0.685 0.058,0.734 0.059,0.785 0.059,0.841 0.058,0.904 0.059,0.972 0.058,1.047 0.059,1.128 0.059,1.219 0.058,1.318 0.059,1.428 0.059,1.55 0.058,1.684 0.059,1.833 0.059,1.997 0.058,2.18 0.059,2.383 0.059,2.606 0.058,2.854 0.059,3.127 0.059,3.427 0.058,3.755 0.059,4.111 0.059,4.494 0.058,4.9 0.059,5.323 0.058,5.75 0.059,6.169 0.059,6.556 0.058,6.885 0.059,7.119 0.059,7.226 0.058,7.164 0.059,6.907 0.059,6.434 0.058,5.748 0.059,4.87 0.059,3.844 0.058,2.726 0.059,1.577 0.059,0.456 0.058,-0.59 0.059,-1.532 0.059,-2.348 0.058,-3.036 0.059,-3.6 0.058,-4.05 0.059,-4.401 0.059,-4.664 0.058,-4.855 0.059,-4.987 0.059,-5.067 0.058,-5.107 0.059,-5.113 0.059,-5.088 0.058,-5.038 0.059,-4.963 0.059,-4.868 0.058,-4.749 0.059,-4.611 0.059,-4.453 0.058,-4.274 0.059,-4.081 0.059,-3.873 0.058,-3.655 0.059,-3.43 0.058,-3.205 0.059,-2.981 0.059,-2.764 0.058,-2.555 0.059,-2.357 0.059,-2.173 0.058,-2 0.059,-1.842 0.059,-1.696 0.058,-1.562 0.059,-1.441 0.059,-1.329 0.058,-1.229 0.059,-1.137 0.059,-1.053 0.058,-0.976 0.059,-0.908 0.059,-0.844 0.058,-0.787 0.059,-0.733 0.058,-0.686 0.059,-0.641 0.059,-0.601 0.058,-0.563 0.118,-1.026 0.058,-0.468 0.118,-0.858 0.117,-0.764 0.117,-0.685 0.118,-0.616 0.176,-0.813 0.117,-0.478 0.058,-0.223 0.235,-0.796 0.235,-0.667 0.234,-0.566 0.118,-0.25 0.351,-0.648 0.294,-0.443 0.293,-0.375 0.411,-0.435 0.293,-0.259 0.469,-0.346 0.704,-0.402 0.058,-0.028 0.763,-0.317 0.762,-0.24 0.645,-0.16 0.059,-0.014 0.763,-0.15 0.762,-0.12 0.762,-0.099 0.704,-0.076 0.763,-0.069 0.762,-0.058 0.763,-0.05 0.762,-0.043 0.704,-0.034 0.704,-0.031 0.058,-0.002 0.763,-0.029 0.762,-0.025 0.763,-0.023 0.703,-0.018 0.763,-0.018 0.762,-0.017 0.763,-0.014 0.704,-0.013 0.762,-0.012 0.763,-0.011 0.762,-0.01 0.762,-0.009 0.704,-0.008 0.763,-0.008 0.762,-0.007 0.763,-0.007 0.762,-0.006 0.704,-0.006 0.762,-0.005 0.763,-0.005 0.762,-0.005 3.704,-0.004 3.059,-0.064 0.703,10e-4 0.763,0.002 0.762,10e-4 0.763,10e-4 0.704,0.001 0.762,0.002 0.762,0.001 0.763,0.002 0.762,0.002 0.704,10e-4 0.763,0.002 0.762,0.002 0.763,0.002 0.762,0.002 0.704,0.003 0.762,0.002 0.763,0.003 0.762,0.002 0.704,0.003 0.762,0.003 0.763,0.003 0.762,0.004 0.763,0.004 0.704,0.003 0.762,0.005 0.762,0.004 0.763,0.005 0.762,0.005 0.704,0.006 0.763,0.006 0.762,0.006 0.762,0.007 0.704,0.008 0.763,0.008 0.762,0.009 0.763,0.01 0.762,0.011 0.704,0.01 0.762,0.013 0.763,0.015 0.762,0.015 0.763,0.018 0.703,0.018 0.763,0.021 0.762,0.025 0.763,0.027 0.586,0.023 0.176,0.008 0.704,0.032 0.763,0.04 0.762,0.047 0.762,0.053 0.704,0.058 0.763,0.073 0.762,0.087 0.763,0.104 0.762,0.128 0.645,0.13 0.059,0.013 0.762,0.194 0.763,0.246 0.704,0.293 0.058,0.028 0.763,0.428 0.41,0.293 0.293,0.244 0.528,0.532 0.235,0.285 0.352,0.499 0.41,0.721 0.352,0.774 0.293,0.794 0.118,0.364 0.117,0.395 0.176,0.659 0.176,0.752 0.176,0.864 0.059,0.317 0.058,0.332 0.118,0.716 0.117,0.793 0.117,0.882 0.117,0.983 0.059,0.535 0.059,0.567 0.117,1.237 0.059,0.677 0.058,0.721 0.059,0.767 0.059,0.817 0.058,0.873 0.059,0.933 0.059,0.999 0.058,1.07 0.059,1.148 0.059,1.234 0.058,1.327 0.059,1.431 0.058,1.545 0.059,1.669 0.059,1.807 0.058,1.96 0.059,2.128 0.059,2.315 0.058,2.521 0.059,2.751 0.059,3.004 0.058,3.286 0.059,3.599 0.059,3.943 0.058,4.325 0.059,4.744 0.059,5.202 0.058,5.701 0.059,6.238 0.059,6.806 0.058,7.4 0.059,8.001 0.058,8.591 0.059,9.136 0.059,9.597 0.058,9.925 0.059,10.064 0.059,9.958 0.058,9.558 0.059,8.832 0.059,7.775 0.058,6.417 0.059,4.816 0.059,3.059 0.058,1.24 0.118,-2.767 0.058,-3.728 0.059,-5.032 0.059,-6.119 0.058,-6.991 0.059,-7.659 0.058,-8.141 0.059,-8.453 0.059,-8.617 0.058,-8.648 0.059,-8.565 0.059,-8.383 0.058,-8.117 0.059,-7.783 0.059,-7.397 0.058,-6.975 0.059,-6.531 0.059,-6.08 0.058,-5.632 0.059,-5.196 0.059,-4.78 0.058,-4.387 0.059,-4.022 0.059,-3.684 0.058,-3.373 0.059,-3.09 0.058,-2.832 0.059,-2.598 0.059,-2.385 0.058,-2.192 0.059,-2.018 0.059,-1.861 0.058,-1.717 0.059,-1.587 0.059,-1.47 0.058,-1.363 0.059,-1.265 0.059,-1.177 0.058,-1.095 0.059,-1.022 0.059,-0.954 0.058,-0.891 0.059,-0.835 0.059,-0.783 0.058,-0.735 0.117,-1.339 0.059,-0.612 0.059,-0.576 0.058,-0.544 0.118,-1.001 0.058,-0.46 0.118,-0.849 0.117,-0.765 0.117,-0.692 0.176,-0.919 0.118,-0.544 0.175,-0.73 0.118,-0.436 0.117,-0.401 0.235,-0.709 0.293,-0.745 0.117,-0.261 0.235,-0.47 0.41,-0.684 0.118,-0.168 0.469,-0.58 0.293,-0.3 0.528,-0.447 0.235,-0.168 0.703,-0.417 0.352,-0.169 0.411,-0.172 0.762,-0.262 0.763,-0.205 0.528,-0.117 0.176,-0.035 0.762,-0.135 0.762,-0.111 0.763,-0.092 0.762,-0.077 0.704,-0.061 0.763,-0.057 0.762,-0.049 0.762,-0.043 0.763,-0.037 0.704,-0.031 0.293,-0.011 0.469,-0.018 0.763,-0.026 0.762,-0.023 0.704,-0.019 0.762,-0.019 0.763,-0.017 0.762,-0.015 0.763,-0.014 0.703,-0.012 0.763,-0.011 0.762,-0.011 0.763,-0.01 0.762,-0.009 0.704,-0.008 0.763,-0.007 0.762,-0.008 0.762,-0.006 0.763,-0.007 0.704,-0.005 0.762,-0.005 0.763,-0.005 0.762,-0.005"
           style="fill:none;stroke:#00ff00;stroke-width:2;stroke-linecap:butt;stroke-linejoin:miter;stroke-miterlimit:10;stroke-dasharray:none;stroke-opacity:1"
           id="path42" /></g></g><g
       id="g44"><path
         d="m 11.25,63.141 v 1.371 H 5.566 l 0.153,-0.211 4.347,2.238 v 1.09 L 5.719,69.797 5.59,69.668 h 5.66 v 1.371 H 3.609 v -1.371 l 5.59,-2.848 v 0.668 l -5.59,-2.941 v -1.406 h 7.641 m 0.105,12.726 c 0,1.688 -1.148,2.824 -2.859,2.824 -1.641,0 -2.707,-1.043 -2.707,-2.648 0,-1.699 1.149,-2.824 2.871,-2.824 1.629,0 2.695,1.031 2.695,2.648 m -1.183,0.129 c 0,-0.832 -0.633,-1.359 -1.629,-1.359 -0.961,0 -1.57,0.492 -1.57,1.277 0,0.82 0.656,1.359 1.652,1.359 0.949,0 1.547,-0.492 1.547,-1.277 m 1.16,6.551 c 0,0.34 -0.082,0.726 -0.199,1.019 l -0.938,-0.293 c 0.035,-0.117 0.059,-0.234 0.059,-0.339 0,-0.329 -0.211,-0.504 -0.586,-0.504 H 3.117 v -1.383 h 6.727 c 0.926,0 1.488,0.562 1.488,1.5 M 11.25,88.16 v 0.996 H 8.027 c -1.441,0 -2.238,-0.82 -2.238,-2.402 0,-0.762 0.188,-1.582 0.516,-2.215 l 0.972,0.34 c -0.211,0.551 -0.328,1.09 -0.328,1.582 0,0.855 0.328,1.312 0.973,1.312 h 2.297 l 1.031,0.387 m 0.105,-1.875 c 0,1.184 -0.667,2.027 -1.828,2.297 L 9.316,88.125 c 0.575,-0.187 0.938,-0.727 0.938,-1.371 0,-0.539 -0.27,-0.902 -0.68,-0.902 -0.515,0 -0.726,0.609 -0.726,2.168 H 8.074 c 0,-2.485 0.516,-3.586 1.699,-3.586 0.961,0 1.582,0.726 1.582,1.851 m -0.105,5.262 v 1.406 H 7.57 L 5.895,92.66 v -1.113 h 5.355 m -3.047,1.137 c -0.656,0.293 -1.043,0.878 -1.043,1.535 0,0.222 0.047,0.48 0.117,0.679 l -1.289,0.329 c -0.093,-0.235 -0.14,-0.516 -0.14,-0.797 0,-0.703 0.375,-1.36 1.019,-1.746 H 8.203 M 11.25,99 v 1.512 l -6.914,2.25 v -0.317 l 6.914,2.239 v 1.57 l -7.641,-2.637 v -1.828 L 11.25,99 m -1.91,1.793 v 3.656 l -1.266,-0.211 v -3.258 l 1.266,-0.187 m 2.015,9.902 c 0,1.5 -1.136,2.508 -2.835,2.508 -1.641,0 -2.731,-0.949 -2.731,-2.355 0,-0.985 0.527,-1.7 1.418,-2.051 l 0.527,0.422 c -0.504,0.199 -0.761,0.644 -0.761,1.172 0,0.867 0.632,1.394 1.64,1.394 0.961,0 1.559,-0.48 1.559,-1.277 0,-0.563 -0.293,-1.02 -0.785,-1.254 l 0.715,-0.481 c 0.82,0.329 1.253,0.985 1.253,1.922 m -0.105,-2.648 v 0.891 l -0.973,0.468 h -7.16 v -1.359 h 8.133 m 0.105,9.258 c 0,1.465 -0.644,2.332 -1.71,2.332 -2.004,0 -1.336,-3.024 -2.239,-3.024 -0.316,0 -0.515,0.375 -0.515,1.032 0,0.445 0.082,0.972 0.222,1.464 l -1.043,0.293 c -0.187,-0.492 -0.281,-1.125 -0.281,-1.722 0,-1.535 0.621,-2.426 1.711,-2.426 1.992,0 1.242,2.988 2.215,2.988 0.34,0 0.551,-0.363 0.551,-0.961 0,-0.515 -0.141,-1.23 -0.364,-1.793 l 1.043,-0.316 c 0.258,0.621 0.41,1.394 0.41,2.133 m 0,6.562 c 0,1.688 -1.148,2.824 -2.859,2.824 -1.641,0 -2.707,-1.043 -2.707,-2.648 0,-1.699 1.149,-2.824 2.871,-2.824 1.629,0 2.695,1.031 2.695,2.648 m -1.183,0.129 c 0,-0.832 -0.633,-1.359 -1.629,-1.359 -0.961,0 -1.57,0.492 -1.57,1.277 0,0.82 0.656,1.359 1.652,1.359 0.949,0 1.547,-0.492 1.547,-1.277 m 1.078,5.051 v 1.406 H 7.57 L 5.895,130.16 v -1.113 h 5.355 m -3.047,1.137 c -0.656,0.293 -1.043,0.878 -1.043,1.535 0,0.222 0.047,0.48 0.117,0.679 l -1.289,0.329 c -0.093,-0.235 -0.14,-0.516 -0.14,-0.797 0,-0.703 0.375,-1.36 1.019,-1.746 h 1.336 m 3.152,6.796 c 0,1.442 -1.183,2.473 -2.859,2.473 -1.594,0 -2.707,-0.961 -2.707,-2.332 0,-0.844 0.434,-1.559 1.16,-1.957 l 0.645,0.352 c -0.387,0.281 -0.621,0.726 -0.621,1.207 0,0.808 0.632,1.312 1.629,1.312 0.96,0 1.57,-0.469 1.57,-1.242 0,-0.586 -0.352,-1.09 -0.902,-1.277 l 0.82,-0.399 c 0.808,0.305 1.265,0.985 1.265,1.863 m 2.286,-2.683 v 1.359 H 6.879 l -0.984,-0.41 v -0.949 h 7.746 m -2.309,9.621 c 0,0.363 -0.07,0.762 -0.187,1.102 l -1.008,-0.282 c 0.07,-0.152 0.105,-0.351 0.105,-0.515 0,-0.504 -0.293,-0.821 -0.762,-0.821 H 4.348 v -1.394 h 5.226 c 1.078,0 1.758,0.715 1.758,1.91 M 7.02,141.27 v 3.468 H 5.895 V 141.27 H 7.02 m 4.23,5.027 v 1.406 H 5.895 v -1.406 H 11.25 M 4.91,147 c 0,0.527 -0.34,0.867 -0.855,0.867 -0.539,0 -0.879,-0.34 -0.879,-0.867 0,-0.516 0.34,-0.855 0.879,-0.855 0.515,0 0.855,0.339 0.855,0.855 m 6.445,5.367 c 0,1.688 -1.148,2.824 -2.859,2.824 -1.641,0 -2.707,-1.043 -2.707,-2.648 0,-1.699 1.149,-2.824 2.871,-2.824 1.629,0 2.695,1.031 2.695,2.648 m -1.183,0.129 c 0,-0.832 -0.633,-1.359 -1.629,-1.359 -0.961,0 -1.57,0.492 -1.57,1.277 0,0.82 0.656,1.359 1.652,1.359 0.949,0 1.547,-0.492 1.547,-1.277 m 1.078,8.578 v 1.406 H 7.957 c -1.336,0 -2.145,-0.75 -2.145,-1.957 0,-0.773 0.34,-1.488 0.938,-1.98 l 0.855,0.199 c -0.375,0.363 -0.574,0.809 -0.574,1.301 0,0.68 0.387,1.031 1.114,1.031 h 3.105 m 0,-3.527 v 1.406 H 6.844 l -0.949,-0.398 v -1.008 h 5.355 m 2.086,11.883 -0.598,0.996 c -1.254,-0.821 -2.812,-1.242 -4.617,-1.242 -1.605,0 -3.082,0.398 -4.559,1.23 L 3,169.395 c 1.582,-1.043 3.375,-1.571 5.191,-1.571 1.993,0 3.704,0.539 5.145,1.606 m -2.086,3.211 v 4.711 H 9.996 V 174.07 H 3.609 v -1.429 h 7.641 m 0.105,7.347 c 0,0.574 -0.398,0.95 -0.937,0.95 -0.563,0 -0.961,-0.376 -0.961,-0.95 0,-0.562 0.398,-0.937 0.961,-0.937 0.539,0 0.937,0.375 0.937,0.937 m -0.105,10.805 v 1.406 H 7.957 c -1.336,0 -2.145,-0.738 -2.145,-1.945 0,-0.762 0.34,-1.477 0.938,-1.969 l 0.855,0.211 c -0.375,0.352 -0.574,0.785 -0.574,1.277 0,0.68 0.387,1.02 1.114,1.02 h 3.105 m 0,-6.996 v 1.406 H 6.844 l -0.949,-0.398 v -1.008 h 5.355 m 0,3.504 v 1.394 H 7.957 c -1.336,0 -2.145,-0.738 -2.145,-1.933 0,-0.774 0.34,-1.477 0.938,-1.969 l 0.855,0.199 c -0.375,0.352 -0.574,0.797 -0.574,1.278 0,0.679 0.387,1.031 1.114,1.031 h 3.105 m 0.105,10.066 c 0,1.688 -1.148,2.824 -2.859,2.824 -1.641,0 -2.707,-1.043 -2.707,-2.648 0,-1.699 1.149,-2.824 2.871,-2.824 1.629,0 2.695,1.031 2.695,2.648 m -1.183,0.129 c 0,-0.832 -0.633,-1.359 -1.629,-1.359 -0.961,0 -1.57,0.492 -1.57,1.277 0,0.82 0.656,1.359 1.652,1.359 0.949,0 1.547,-0.492 1.547,-1.277 m 1.16,6.551 c 0,0.34 -0.082,0.726 -0.199,1.019 l -0.938,-0.293 c 0.035,-0.117 0.059,-0.234 0.059,-0.339 0,-0.329 -0.211,-0.504 -0.586,-0.504 H 3.117 v -1.383 h 6.727 c 0.926,0 1.488,0.562 1.488,1.5"
         style="fill:#000000;fill-opacity:1;fill-rule:nonzero;stroke:none"
         id="path46" /></g><g
       id="g48"><path
         d="m 5.32,205.898 v 2.075 H 4.582 v -2.075 H 5.32 m 1.442,4.149 v 0.891 H 1.898 v -0.528 l 0.938,-1.851 0.633,0.339 -0.645,1.43 -0.281,-0.281 h 4.219"
         style="fill:#000000;fill-opacity:1;fill-rule:nonzero;stroke:none"
         id="path50" /></g><g
       id="g52"><path
         d="m 11.355,212.988 c 0,0.574 -0.398,0.95 -0.937,0.95 -0.563,0 -0.961,-0.376 -0.961,-0.95 0,-0.562 0.398,-0.937 0.961,-0.937 0.539,0 0.937,0.375 0.937,0.937 m 0,6.153 c 0,0.656 -0.14,1.265 -0.41,1.769 l -0.972,-0.316 c 0.164,-0.375 0.257,-0.785 0.257,-1.137 0,-0.996 -0.621,-1.559 -1.687,-1.559 -1.008,0 -1.57,0.504 -1.57,1.465 0,0.387 0.093,0.844 0.246,1.231 l -1.102,0.293 c -0.211,-0.457 -0.328,-1.02 -0.328,-1.571 0,-1.722 1.149,-2.847 2.906,-2.847 1.676,0 2.66,0.996 2.66,2.672 m -0.105,10.652 v 1.406 H 7.957 c -1.336,0 -2.145,-0.738 -2.145,-1.945 0,-0.762 0.34,-1.477 0.938,-1.969 l 0.855,0.211 c -0.375,0.352 -0.574,0.785 -0.574,1.277 0,0.68 0.387,1.02 1.114,1.02 h 3.105 m 0,-6.996 v 1.406 H 6.844 l -0.949,-0.398 v -1.008 h 5.355 m 0,3.504 v 1.394 H 7.957 c -1.336,0 -2.145,-0.738 -2.145,-1.933 0,-0.774 0.34,-1.477 0.938,-1.969 l 0.855,0.199 c -0.375,0.352 -0.574,0.797 -0.574,1.278 0,0.679 0.387,1.031 1.114,1.031 h 3.105"
         style="fill:#000000;fill-opacity:1;fill-rule:nonzero;stroke:none"
         id="path54" /></g><g
       id="g56"><path
         d="m 5.32,233.648 v 2.075 H 4.582 v -2.075 H 5.32 m 1.442,4.149 v 0.891 H 1.898 v -0.528 l 0.938,-1.851 0.633,0.339 -0.645,1.43 -0.281,-0.281 h 4.219"
         style="fill:#000000;fill-opacity:1;fill-rule:nonzero;stroke:none"
         id="path58" /></g><g
       id="g60"><path
         d="m 13.336,240.609 c -1.441,1.067 -3.152,1.606 -5.145,1.606 -1.816,0 -3.609,-0.527 -5.191,-1.57 l 0.562,-1.02 c 1.477,0.832 2.954,1.23 4.559,1.23 1.805,0 3.363,-0.421 4.617,-1.242 z"
         style="fill:#000000;fill-opacity:1;fill-rule:nonzero;stroke:none"
         id="path62" /></g><g
       id="g64"><path
         d="m 46.113,35.145 c 1.699,0 2.754,1.488 2.754,3.984 0,2.391 -1.019,3.867 -2.683,3.867 -1.723,0 -2.801,-1.5 -2.801,-3.984 0,-2.403 1.043,-3.867 2.73,-3.867 m 0.059,0.773 c -1.149,0 -1.863,1.207 -1.863,3.211 0,1.922 0.703,3.094 1.804,3.094 1.125,0 1.828,-1.219 1.828,-3.211 0,-1.922 -0.668,-3.094 -1.769,-3.094"
         style="fill:#000000;fill-opacity:1;fill-rule:nonzero;stroke:none"
         id="path66" /></g><g
       id="g68"><path
         d="m 24.949,73.441 h 0.879 v 7.7 h -0.527 l -2.719,-1.407 0.328,-0.632 2.332,1.113 -0.293,0.281 v -7.055 m 2.578,-1.851 h 0.797 c 0.387,0.949 0.598,2.133 0.598,3.222 h -0.949 c 0,-1.113 -0.164,-2.308 -0.446,-3.222 m 5.086,1.805 c 1.699,0 2.754,1.488 2.754,3.984 0,2.391 -1.019,3.867 -2.683,3.867 -1.723,0 -2.801,-1.5 -2.801,-3.984 0,-2.403 1.043,-3.867 2.73,-3.867 m 0.059,0.773 c -1.149,0 -1.863,1.207 -1.863,3.211 0,1.922 0.703,3.094 1.804,3.094 1.125,0 1.828,-1.219 1.828,-3.211 0,-1.922 -0.668,-3.094 -1.769,-3.094 m 6.691,-0.773 c 1.699,0 2.754,1.488 2.754,3.984 0,2.391 -1.019,3.867 -2.683,3.867 -1.723,0 -2.801,-1.5 -2.801,-3.984 0,-2.403 1.043,-3.867 2.73,-3.867 m 0.059,0.773 c -1.149,0 -1.863,1.207 -1.863,3.211 0,1.922 0.703,3.094 1.804,3.094 1.125,0 1.828,-1.219 1.828,-3.211 0,-1.922 -0.668,-3.094 -1.769,-3.094 m 6.691,-0.773 c 1.699,0 2.754,1.488 2.754,3.984 0,2.391 -1.019,3.867 -2.683,3.867 -1.723,0 -2.801,-1.5 -2.801,-3.984 0,-2.403 1.043,-3.867 2.73,-3.867 m 0.059,0.773 c -1.149,0 -1.863,1.207 -1.863,3.211 0,1.922 0.703,3.094 1.804,3.094 1.125,0 1.828,-1.219 1.828,-3.211 0,-1.922 -0.668,-3.094 -1.769,-3.094"
         style="fill:#000000;fill-opacity:1;fill-rule:nonzero;stroke:none"
         id="path70" /></g><g
       id="g72"><path
         d="m 21.504,111 h 4.851 v 0.797 h -3.914 l 0.118,-0.27 c 2.613,2.461 3.492,3.739 3.492,5.063 0,1.348 -0.914,2.156 -2.321,2.156 -0.914,0 -1.781,-0.328 -2.343,-0.867 l 0.246,-0.633 c 0.586,0.469 1.312,0.703 1.91,0.703 0.984,0 1.582,-0.586 1.582,-1.5 0,-1.113 -0.891,-2.261 -3.621,-4.84 V 111 m 6.023,-1.91 h 0.797 c 0.387,0.949 0.598,2.133 0.598,3.222 h -0.949 c 0,-1.113 -0.164,-2.308 -0.446,-3.222 m 5.086,1.805 c 1.699,0 2.754,1.488 2.754,3.984 0,2.391 -1.019,3.867 -2.683,3.867 -1.723,0 -2.801,-1.5 -2.801,-3.984 0,-2.403 1.043,-3.867 2.73,-3.867 m 0.059,0.773 c -1.149,0 -1.863,1.207 -1.863,3.211 0,1.922 0.703,3.094 1.804,3.094 1.125,0 1.828,-1.219 1.828,-3.211 0,-1.922 -0.668,-3.094 -1.769,-3.094 m 6.691,-0.773 c 1.699,0 2.754,1.488 2.754,3.984 0,2.391 -1.019,3.867 -2.683,3.867 -1.723,0 -2.801,-1.5 -2.801,-3.984 0,-2.403 1.043,-3.867 2.73,-3.867 m 0.059,0.773 c -1.149,0 -1.863,1.207 -1.863,3.211 0,1.922 0.703,3.094 1.804,3.094 1.125,0 1.828,-1.219 1.828,-3.211 0,-1.922 -0.668,-3.094 -1.769,-3.094 m 6.691,-0.773 c 1.699,0 2.754,1.488 2.754,3.984 0,2.391 -1.019,3.867 -2.683,3.867 -1.723,0 -2.801,-1.5 -2.801,-3.984 0,-2.403 1.043,-3.867 2.73,-3.867 m 0.059,0.773 c -1.149,0 -1.863,1.207 -1.863,3.211 0,1.922 0.703,3.094 1.804,3.094 1.125,0 1.828,-1.219 1.828,-3.211 0,-1.922 -0.668,-3.094 -1.769,-3.094"
         style="fill:#000000;fill-opacity:1;fill-rule:nonzero;stroke:none"
         id="path74" /></g><g
       id="g76"><path
         d="m 23.836,149.133 c 1.676,0 2.836,0.879 2.836,2.203 0,1.113 -0.856,1.898 -2.156,1.934 l -0.164,-0.129 c 1.136,0.023 1.921,0.797 1.921,1.851 0,1.219 -0.984,1.992 -2.402,1.992 -0.785,0 -1.676,-0.246 -2.32,-0.621 l 0.211,-0.679 c 0.679,0.339 1.394,0.515 1.957,0.515 0.984,0 1.699,-0.504 1.699,-1.289 0,-0.844 -0.82,-1.394 -1.945,-1.394 h -0.586 v -0.786 h 0.785 c 1.277,0 2.086,-0.55 2.086,-1.453 0,-0.855 -0.75,-1.336 -1.887,-1.336 -0.668,0 -1.559,0.164 -2.273,0.516 l -0.2,-0.738 c 0.739,-0.375 1.641,-0.586 2.438,-0.586 m 3.691,-1.793 h 0.797 c 0.387,0.949 0.598,2.133 0.598,3.222 h -0.949 c 0,-1.113 -0.164,-2.308 -0.446,-3.222 m 5.086,1.805 c 1.699,0 2.754,1.488 2.754,3.984 0,2.391 -1.019,3.867 -2.683,3.867 -1.723,0 -2.801,-1.5 -2.801,-3.984 0,-2.403 1.043,-3.867 2.73,-3.867 m 0.059,0.773 c -1.149,0 -1.863,1.207 -1.863,3.211 0,1.922 0.703,3.094 1.804,3.094 1.125,0 1.828,-1.219 1.828,-3.211 0,-1.922 -0.668,-3.094 -1.769,-3.094 m 6.691,-0.773 c 1.699,0 2.754,1.488 2.754,3.984 0,2.391 -1.019,3.867 -2.683,3.867 -1.723,0 -2.801,-1.5 -2.801,-3.984 0,-2.403 1.043,-3.867 2.73,-3.867 m 0.059,0.773 c -1.149,0 -1.863,1.207 -1.863,3.211 0,1.922 0.703,3.094 1.804,3.094 1.125,0 1.828,-1.219 1.828,-3.211 0,-1.922 -0.668,-3.094 -1.769,-3.094 m 6.691,-0.773 c 1.699,0 2.754,1.488 2.754,3.984 0,2.391 -1.019,3.867 -2.683,3.867 -1.723,0 -2.801,-1.5 -2.801,-3.984 0,-2.403 1.043,-3.867 2.73,-3.867 m 0.059,0.773 c -1.149,0 -1.863,1.207 -1.863,3.211 0,1.922 0.703,3.094 1.804,3.094 1.125,0 1.828,-1.219 1.828,-3.211 0,-1.922 -0.668,-3.094 -1.769,-3.094"
         style="fill:#000000;fill-opacity:1;fill-rule:nonzero;stroke:none"
         id="path78" /></g><g
       id="g80"><path
         d="m 24.316,187.395 h 0.868 v 7.746 H 24.34 l -3.832,-5.368 v -0.468 h 6.047 v 0.75 h -5.18 l 0.07,-0.188 3.047,4.36 -0.164,0.023 -0.012,-6.855 m 3.211,-1.805 h 0.797 c 0.387,0.949 0.598,2.133 0.598,3.222 h -0.949 c 0,-1.113 -0.164,-2.308 -0.446,-3.222 m 5.086,1.805 c 1.699,0 2.754,1.488 2.754,3.984 0,2.391 -1.019,3.867 -2.683,3.867 -1.723,0 -2.801,-1.5 -2.801,-3.984 0,-2.403 1.043,-3.867 2.73,-3.867 m 0.059,0.773 c -1.149,0 -1.863,1.207 -1.863,3.211 0,1.922 0.703,3.094 1.804,3.094 1.125,0 1.828,-1.219 1.828,-3.211 0,-1.922 -0.668,-3.094 -1.769,-3.094 m 6.691,-0.773 c 1.699,0 2.754,1.488 2.754,3.984 0,2.391 -1.019,3.867 -2.683,3.867 -1.723,0 -2.801,-1.5 -2.801,-3.984 0,-2.403 1.043,-3.867 2.73,-3.867 m 0.059,0.773 c -1.149,0 -1.863,1.207 -1.863,3.211 0,1.922 0.703,3.094 1.804,3.094 1.125,0 1.828,-1.219 1.828,-3.211 0,-1.922 -0.668,-3.094 -1.769,-3.094 m 6.691,-0.773 c 1.699,0 2.754,1.488 2.754,3.984 0,2.391 -1.019,3.867 -2.683,3.867 -1.723,0 -2.801,-1.5 -2.801,-3.984 0,-2.403 1.043,-3.867 2.73,-3.867 m 0.059,0.773 c -1.149,0 -1.863,1.207 -1.863,3.211 0,1.922 0.703,3.094 1.804,3.094 1.125,0 1.828,-1.219 1.828,-3.211 0,-1.922 -0.668,-3.094 -1.769,-3.094"
         style="fill:#000000;fill-opacity:1;fill-rule:nonzero;stroke:none"
         id="path82" /></g><g
       id="g84"><path
         d="m 23.684,224.895 c 1.699,0 2.847,0.96 2.847,2.46 0,1.43 -1.043,2.333 -2.754,2.333 -0.422,0 -0.843,-0.047 -1.23,-0.141 l 0.223,-0.281 0.128,2.589 h 3.27 v 0.786 h -4.102 l -0.187,-3.914 c 0.492,0.117 1.137,0.187 1.617,0.187 1.301,0 2.098,-0.598 2.098,-1.641 0,-0.984 -0.727,-1.582 -1.852,-1.582 -0.656,0 -1.383,0.188 -1.957,0.493 l -0.269,-0.727 c 0.679,-0.363 1.394,-0.562 2.168,-0.562 m 3.843,-1.805 h 0.797 c 0.387,0.949 0.598,2.133 0.598,3.222 h -0.949 c 0,-1.113 -0.164,-2.308 -0.446,-3.222 m 5.086,1.805 c 1.699,0 2.754,1.488 2.754,3.984 0,2.391 -1.019,3.867 -2.683,3.867 -1.723,0 -2.801,-1.5 -2.801,-3.984 0,-2.403 1.043,-3.867 2.73,-3.867 m 0.059,0.773 c -1.149,0 -1.863,1.207 -1.863,3.211 0,1.922 0.703,3.094 1.804,3.094 1.125,0 1.828,-1.219 1.828,-3.211 0,-1.922 -0.668,-3.094 -1.769,-3.094 m 6.691,-0.773 c 1.699,0 2.754,1.488 2.754,3.984 0,2.391 -1.019,3.867 -2.683,3.867 -1.723,0 -2.801,-1.5 -2.801,-3.984 0,-2.403 1.043,-3.867 2.73,-3.867 m 0.059,0.773 c -1.149,0 -1.863,1.207 -1.863,3.211 0,1.922 0.703,3.094 1.804,3.094 1.125,0 1.828,-1.219 1.828,-3.211 0,-1.922 -0.668,-3.094 -1.769,-3.094 m 6.691,-0.773 c 1.699,0 2.754,1.488 2.754,3.984 0,2.391 -1.019,3.867 -2.683,3.867 -1.723,0 -2.801,-1.5 -2.801,-3.984 0,-2.403 1.043,-3.867 2.73,-3.867 m 0.059,0.773 c -1.149,0 -1.863,1.207 -1.863,3.211 0,1.922 0.703,3.094 1.804,3.094 1.125,0 1.828,-1.219 1.828,-3.211 0,-1.922 -0.668,-3.094 -1.769,-3.094"
         style="fill:#000000;fill-opacity:1;fill-rule:nonzero;stroke:none"
         id="path86" /></g><g
       id="g88"><path
         d="m 23.59,263.145 c 1.476,0 2.519,1.031 2.519,2.519 0,1.371 -0.902,2.285 -2.226,2.285 -1.149,0 -2.051,-0.668 -2.309,-1.734 l 0.188,-0.469 c 0.234,0.914 0.949,1.442 1.863,1.442 0.996,0 1.617,-0.633 1.617,-1.641 0,-0.961 -0.586,-1.617 -1.547,-1.617 -1.254,0 -1.922,1.054 -1.922,3.047 0,2.144 0.774,3.222 2.391,3.222 0.539,0 1.09,-0.129 1.582,-0.375 l 0.258,0.715 c -0.598,0.316 -1.172,0.457 -1.793,0.457 -2.109,0 -3.328,-1.547 -3.328,-4.148 0,-2.344 0.984,-3.703 2.707,-3.703 m 3.937,-1.805 h 0.797 c 0.387,0.949 0.598,2.133 0.598,3.222 h -0.949 c 0,-1.113 -0.164,-2.308 -0.446,-3.222 m 5.086,1.805 c 1.699,0 2.754,1.488 2.754,3.984 0,2.391 -1.019,3.867 -2.683,3.867 -1.723,0 -2.801,-1.5 -2.801,-3.984 0,-2.403 1.043,-3.867 2.73,-3.867 m 0.059,0.773 c -1.149,0 -1.863,1.207 -1.863,3.211 0,1.922 0.703,3.094 1.804,3.094 1.125,0 1.828,-1.219 1.828,-3.211 0,-1.922 -0.668,-3.094 -1.769,-3.094 m 6.691,-0.773 c 1.699,0 2.754,1.488 2.754,3.984 0,2.391 -1.019,3.867 -2.683,3.867 -1.723,0 -2.801,-1.5 -2.801,-3.984 0,-2.403 1.043,-3.867 2.73,-3.867 m 0.059,0.773 c -1.149,0 -1.863,1.207 -1.863,3.211 0,1.922 0.703,3.094 1.804,3.094 1.125,0 1.828,-1.219 1.828,-3.211 0,-1.922 -0.668,-3.094 -1.769,-3.094 m 6.691,-0.773 c 1.699,0 2.754,1.488 2.754,3.984 0,2.391 -1.019,3.867 -2.683,3.867 -1.723,0 -2.801,-1.5 -2.801,-3.984 0,-2.403 1.043,-3.867 2.73,-3.867 m 0.059,0.773 c -1.149,0 -1.863,1.207 -1.863,3.211 0,1.922 0.703,3.094 1.804,3.094 1.125,0 1.828,-1.219 1.828,-3.211 0,-1.922 -0.668,-3.094 -1.769,-3.094"
         style="fill:#000000;fill-opacity:1;fill-rule:nonzero;stroke:none"
         id="path90" /></g><g
       id="g92"><path
         d="M 53.25,77 H 54"
         style="fill:none;stroke:#000000;stroke-width:1;stroke-linecap:square;stroke-linejoin:bevel;stroke-miterlimit:10;stroke-dasharray:none;stroke-opacity:1"
         id="path94" /></g><g
       id="g96"><path
         d="M 53.25,115 H 54"
         style="fill:none;stroke:#000000;stroke-width:1;stroke-linecap:square;stroke-linejoin:bevel;stroke-miterlimit:10;stroke-dasharray:none;stroke-opacity:1"
         id="path98" /></g><g
       id="g100"><path
         d="M 53.25,153 H 54"
         style="fill:none;stroke:#000000;stroke-width:1;stroke-linecap:square;stroke-linejoin:bevel;stroke-miterlimit:10;stroke-dasharray:none;stroke-opacity:1"
         id="path102" /></g><g
       id="g104"><path
         d="M 53.25,191 H 54"
         style="fill:none;stroke:#000000;stroke-width:1;stroke-linecap:square;stroke-linejoin:bevel;stroke-miterlimit:10;stroke-dasharray:none;stroke-opacity:1"
         id="path106" /></g><g
       id="g108"><path
         d="M 53.25,229 H 54"
         style="fill:none;stroke:#000000;stroke-width:1;stroke-linecap:square;stroke-linejoin:bevel;stroke-miterlimit:10;stroke-dasharray:none;stroke-opacity:1"
         id="path110" /></g><g
       id="g112"><path
         d="M 53.25,267 V 39"
         style="fill:none;stroke:#000000;stroke-width:1;stroke-linecap:square;stroke-linejoin:bevel;stroke-miterlimit:10;stroke-dasharray:none;stroke-opacity:1"
         id="path114" /></g><g
       id="g116"><path
         d="M 53.25,77 H 60"
         style="fill:none;stroke:#000000;stroke-width:1;stroke-linecap:square;stroke-linejoin:bevel;stroke-miterlimit:10;stroke-dasharray:none;stroke-opacity:1"
         id="path118" /></g><g
       id="g120"><path
         d="M 53.25,115 H 60"
         style="fill:none;stroke:#000000;stroke-width:1;stroke-linecap:square;stroke-linejoin:bevel;stroke-miterlimit:10;stroke-dasharray:none;stroke-opacity:1"
         id="path122" /></g><g
       id="g124"><path
         d="M 53.25,153 H 60"
         style="fill:none;stroke:#000000;stroke-width:1;stroke-linecap:square;stroke-linejoin:bevel;stroke-miterlimit:10;stroke-dasharray:none;stroke-opacity:1"
         id="path126" /></g><g
       id="g128"><path
         d="M 53.25,191 H 60"
         style="fill:none;stroke:#000000;stroke-width:1;stroke-linecap:square;stroke-linejoin:bevel;stroke-miterlimit:10;stroke-dasharray:none;stroke-opacity:1"
         id="path130" /></g><g
       id="g132"><path
         d="M 53.25,229 H 60"
         style="fill:none;stroke:#000000;stroke-width:1;stroke-linecap:square;stroke-linejoin:bevel;stroke-miterlimit:10;stroke-dasharray:none;stroke-opacity:1"
         id="path134" /></g><g
       id="g136"><path
         d="M 53.25,46.6 H 57"
         style="fill:none;stroke:#000000;stroke-width:1;stroke-linecap:square;stroke-linejoin:bevel;stroke-miterlimit:10;stroke-dasharray:none;stroke-opacity:1"
         id="path138" /></g><g
       id="g140"><path
         d="M 53.25,54.2 H 57"
         style="fill:none;stroke:#000000;stroke-width:1;stroke-linecap:square;stroke-linejoin:bevel;stroke-miterlimit:10;stroke-dasharray:none;stroke-opacity:1"
         id="path142" /></g><g
       id="g144"><path
         d="M 53.25,61.8 H 57"
         style="fill:none;stroke:#000000;stroke-width:1;stroke-linecap:square;stroke-linejoin:bevel;stroke-miterlimit:10;stroke-dasharray:none;stroke-opacity:1"
         id="path146" /></g><g
       id="g148"><path
         d="M 53.25,69.4 H 57"
         style="fill:none;stroke:#000000;stroke-width:1;stroke-linecap:square;stroke-linejoin:bevel;stroke-miterlimit:10;stroke-dasharray:none;stroke-opacity:1"
         id="path150" /></g><g
       id="g152"><path
         d="M 53.25,84.6 H 57"
         style="fill:none;stroke:#000000;stroke-width:1;stroke-linecap:square;stroke-linejoin:bevel;stroke-miterlimit:10;stroke-dasharray:none;stroke-opacity:1"
         id="path154" /></g><g
       id="g156"><path
         d="M 53.25,92.2 H 57"
         style="fill:none;stroke:#000000;stroke-width:1;stroke-linecap:square;stroke-linejoin:bevel;stroke-miterlimit:10;stroke-dasharray:none;stroke-opacity:1"
         id="path158" /></g><g
       id="g160"><path
         d="M 53.25,99.8 H 57"
         style="fill:none;stroke:#000000;stroke-width:1;stroke-linecap:square;stroke-linejoin:bevel;stroke-miterlimit:10;stroke-dasharray:none;stroke-opacity:1"
         id="path162" /></g><g
       id="g164"><path
         d="M 53.25,107.4 H 57"
         style="fill:none;stroke:#000000;stroke-width:1;stroke-linecap:square;stroke-linejoin:bevel;stroke-miterlimit:10;stroke-dasharray:none;stroke-opacity:1"
         id="path166" /></g><g
       id="g168"><path
         d="M 53.25,122.6 H 57"
         style="fill:none;stroke:#000000;stroke-width:1;stroke-linecap:square;stroke-linejoin:bevel;stroke-miterlimit:10;stroke-dasharray:none;stroke-opacity:1"
         id="path170" /></g><g
       id="g172"><path
         d="M 53.25,130.2 H 57"
         style="fill:none;stroke:#000000;stroke-width:1;stroke-linecap:square;stroke-linejoin:bevel;stroke-miterlimit:10;stroke-dasharray:none;stroke-opacity:1"
         id="path174" /></g><g
       id="g176"><path
         d="M 53.25,137.8 H 57"
         style="fill:none;stroke:#000000;stroke-width:1;stroke-linecap:square;stroke-linejoin:bevel;stroke-miterlimit:10;stroke-dasharray:none;stroke-opacity:1"
         id="path178" /></g><g
       id="g180"><path
         d="M 53.25,145.4 H 57"
         style="fill:none;stroke:#000000;stroke-width:1;stroke-linecap:square;stroke-linejoin:bevel;stroke-miterlimit:10;stroke-dasharray:none;stroke-opacity:1"
         id="path182" /></g><g
       id="g184"><path
         d="M 53.25,160.6 H 57"
         style="fill:none;stroke:#000000;stroke-width:1;stroke-linecap:square;stroke-linejoin:bevel;stroke-miterlimit:10;stroke-dasharray:none;stroke-opacity:1"
         id="path186" /></g><g
       id="g188"><path
         d="M 53.25,168.2 H 57"
         style="fill:none;stroke:#000000;stroke-width:1;stroke-linecap:square;stroke-linejoin:bevel;stroke-miterlimit:10;stroke-dasharray:none;stroke-opacity:1"
         id="path190" /></g><g
       id="g192"><path
         d="M 53.25,175.8 H 57"
         style="fill:none;stroke:#000000;stroke-width:1;stroke-linecap:square;stroke-linejoin:bevel;stroke-miterlimit:10;stroke-dasharray:none;stroke-opacity:1"
         id="path194" /></g><g
       id="g196"><path
         d="M 53.25,183.4 H 57"
         style="fill:none;stroke:#000000;stroke-width:1;stroke-linecap:square;stroke-linejoin:bevel;stroke-miterlimit:10;stroke-dasharray:none;stroke-opacity:1"
         id="path198" /></g><g
       id="g200"><path
         d="M 53.25,198.6 H 57"
         style="fill:none;stroke:#000000;stroke-width:1;stroke-linecap:square;stroke-linejoin:bevel;stroke-miterlimit:10;stroke-dasharray:none;stroke-opacity:1"
         id="path202" /></g><g
       id="g204"><path
         d="M 53.25,206.2 H 57"
         style="fill:none;stroke:#000000;stroke-width:1;stroke-linecap:square;stroke-linejoin:bevel;stroke-miterlimit:10;stroke-dasharray:none;stroke-opacity:1"
         id="path206" /></g><g
       id="g208"><path
         d="M 53.25,213.8 H 57"
         style="fill:none;stroke:#000000;stroke-width:1;stroke-linecap:square;stroke-linejoin:bevel;stroke-miterlimit:10;stroke-dasharray:none;stroke-opacity:1"
         id="path210" /></g><g
       id="g212"><path
         d="M 53.25,221.4 H 57"
         style="fill:none;stroke:#000000;stroke-width:1;stroke-linecap:square;stroke-linejoin:bevel;stroke-miterlimit:10;stroke-dasharray:none;stroke-opacity:1"
         id="path214" /></g><g
       id="g216"><path
         d="M 53.25,236.6 H 57"
         style="fill:none;stroke:#000000;stroke-width:1;stroke-linecap:square;stroke-linejoin:bevel;stroke-miterlimit:10;stroke-dasharray:none;stroke-opacity:1"
         id="path218" /></g><g
       id="g220"><path
         d="M 53.25,244.2 H 57"
         style="fill:none;stroke:#000000;stroke-width:1;stroke-linecap:square;stroke-linejoin:bevel;stroke-miterlimit:10;stroke-dasharray:none;stroke-opacity:1"
         id="path222" /></g><g
       id="g224"><path
         d="M 53.25,251.8 H 57"
         style="fill:none;stroke:#000000;stroke-width:1;stroke-linecap:square;stroke-linejoin:bevel;stroke-miterlimit:10;stroke-dasharray:none;stroke-opacity:1"
         id="path226" /></g><g
       id="g228"><path
         d="M 53.25,259.4 H 57"
         style="fill:none;stroke:#000000;stroke-width:1;stroke-linecap:square;stroke-linejoin:bevel;stroke-miterlimit:10;stroke-dasharray:none;stroke-opacity:1"
         id="path230" /></g><g
       id="g232"><path
         d="m 352.5,77 h -0.75"
         style="fill:none;stroke:#000000;stroke-width:1;stroke-linecap:square;stroke-linejoin:bevel;stroke-miterlimit:10;stroke-dasharray:none;stroke-opacity:1"
         id="path234" /></g><g
       id="g236"><path
         d="m 352.5,115 h -0.75"
         style="fill:none;stroke:#000000;stroke-width:1;stroke-linecap:square;stroke-linejoin:bevel;stroke-miterlimit:10;stroke-dasharray:none;stroke-opacity:1"
         id="path238" /></g><g
       id="g240"><path
         d="m 352.5,153 h -0.75"
         style="fill:none;stroke:#000000;stroke-width:1;stroke-linecap:square;stroke-linejoin:bevel;stroke-miterlimit:10;stroke-dasharray:none;stroke-opacity:1"
         id="path242" /></g><g
       id="g244"><path
         d="m 352.5,191 h -0.75"
         style="fill:none;stroke:#000000;stroke-width:1;stroke-linecap:square;stroke-linejoin:bevel;stroke-miterlimit:10;stroke-dasharray:none;stroke-opacity:1"
         id="path246" /></g><g
       id="g248"><path
         d="m 352.5,229 h -0.75"
         style="fill:none;stroke:#000000;stroke-width:1;stroke-linecap:square;stroke-linejoin:bevel;stroke-miterlimit:10;stroke-dasharray:none;stroke-opacity:1"
         id="path250" /></g><g
       id="g252"><path
         d="M 352.5,267 V 39"
         style="fill:none;stroke:#000000;stroke-width:1;stroke-linecap:square;stroke-linejoin:bevel;stroke-miterlimit:10;stroke-dasharray:none;stroke-opacity:1"
         id="path254" /></g><g
       id="g256"><path
         d="m 352.5,77 h -6.75"
         style="fill:none;stroke:#000000;stroke-width:1;stroke-linecap:square;stroke-linejoin:bevel;stroke-miterlimit:10;stroke-dasharray:none;stroke-opacity:1"
         id="path258" /></g><g
       id="g260"><path
         d="m 352.5,115 h -6.75"
         style="fill:none;stroke:#000000;stroke-width:1;stroke-linecap:square;stroke-linejoin:bevel;stroke-miterlimit:10;stroke-dasharray:none;stroke-opacity:1"
         id="path262" /></g><g
       id="g264"><path
         d="m 352.5,153 h -6.75"
         style="fill:none;stroke:#000000;stroke-width:1;stroke-linecap:square;stroke-linejoin:bevel;stroke-miterlimit:10;stroke-dasharray:none;stroke-opacity:1"
         id="path266" /></g><g
       id="g268"><path
         d="m 352.5,191 h -6.75"
         style="fill:none;stroke:#000000;stroke-width:1;stroke-linecap:square;stroke-linejoin:bevel;stroke-miterlimit:10;stroke-dasharray:none;stroke-opacity:1"
         id="path270" /></g><g
       id="g272"><path
         d="m 352.5,229 h -6.75"
         style="fill:none;stroke:#000000;stroke-width:1;stroke-linecap:square;stroke-linejoin:bevel;stroke-miterlimit:10;stroke-dasharray:none;stroke-opacity:1"
         id="path274" /></g><g
       id="g276"><path
         d="m 352.5,46.6 h -3.75"
         style="fill:none;stroke:#000000;stroke-width:1;stroke-linecap:square;stroke-linejoin:bevel;stroke-miterlimit:10;stroke-dasharray:none;stroke-opacity:1"
         id="path278" /></g><g
       id="g280"><path
         d="m 352.5,54.2 h -3.75"
         style="fill:none;stroke:#000000;stroke-width:1;stroke-linecap:square;stroke-linejoin:bevel;stroke-miterlimit:10;stroke-dasharray:none;stroke-opacity:1"
         id="path282" /></g><g
       id="g284"><path
         d="m 352.5,61.8 h -3.75"
         style="fill:none;stroke:#000000;stroke-width:1;stroke-linecap:square;stroke-linejoin:bevel;stroke-miterlimit:10;stroke-dasharray:none;stroke-opacity:1"
         id="path286" /></g><g
       id="g288"><path
         d="m 352.5,69.4 h -3.75"
         style="fill:none;stroke:#000000;stroke-width:1;stroke-linecap:square;stroke-linejoin:bevel;stroke-miterlimit:10;stroke-dasharray:none;stroke-opacity:1"
         id="path290" /></g><g
       id="g292"><path
         d="m 352.5,84.6 h -3.75"
         style="fill:none;stroke:#000000;stroke-width:1;stroke-linecap:square;stroke-linejoin:bevel;stroke-miterlimit:10;stroke-dasharray:none;stroke-opacity:1"
         id="path294" /></g><g
       id="g296"><path
         d="m 352.5,92.2 h -3.75"
         style="fill:none;stroke:#000000;stroke-width:1;stroke-linecap:square;stroke-linejoin:bevel;stroke-miterlimit:10;stroke-dasharray:none;stroke-opacity:1"
         id="path298" /></g><g
       id="g300"><path
         d="m 352.5,99.8 h -3.75"
         style="fill:none;stroke:#000000;stroke-width:1;stroke-linecap:square;stroke-linejoin:bevel;stroke-miterlimit:10;stroke-dasharray:none;stroke-opacity:1"
         id="path302" /></g><g
       id="g304"><path
         d="m 352.5,107.4 h -3.75"
         style="fill:none;stroke:#000000;stroke-width:1;stroke-linecap:square;stroke-linejoin:bevel;stroke-miterlimit:10;stroke-dasharray:none;stroke-opacity:1"
         id="path306" /></g><g
       id="g308"><path
         d="m 352.5,122.6 h -3.75"
         style="fill:none;stroke:#000000;stroke-width:1;stroke-linecap:square;stroke-linejoin:bevel;stroke-miterlimit:10;stroke-dasharray:none;stroke-opacity:1"
         id="path310" /></g><g
       id="g312"><path
         d="m 352.5,130.2 h -3.75"
         style="fill:none;stroke:#000000;stroke-width:1;stroke-linecap:square;stroke-linejoin:bevel;stroke-miterlimit:10;stroke-dasharray:none;stroke-opacity:1"
         id="path314" /></g><g
       id="g316"><path
         d="m 352.5,137.8 h -3.75"
         style="fill:none;stroke:#000000;stroke-width:1;stroke-linecap:square;stroke-linejoin:bevel;stroke-miterlimit:10;stroke-dasharray:none;stroke-opacity:1"
         id="path318" /></g><g
       id="g320"><path
         d="m 352.5,145.4 h -3.75"
         style="fill:none;stroke:#000000;stroke-width:1;stroke-linecap:square;stroke-linejoin:bevel;stroke-miterlimit:10;stroke-dasharray:none;stroke-opacity:1"
         id="path322" /></g><g
       id="g324"><path
         d="m 352.5,160.6 h -3.75"
         style="fill:none;stroke:#000000;stroke-width:1;stroke-linecap:square;stroke-linejoin:bevel;stroke-miterlimit:10;stroke-dasharray:none;stroke-opacity:1"
         id="path326" /></g><g
       id="g328"><path
         d="m 352.5,168.2 h -3.75"
         style="fill:none;stroke:#000000;stroke-width:1;stroke-linecap:square;stroke-linejoin:bevel;stroke-miterlimit:10;stroke-dasharray:none;stroke-opacity:1"
         id="path330" /></g><g
       id="g332"><path
         d="m 352.5,175.8 h -3.75"
         style="fill:none;stroke:#000000;stroke-width:1;stroke-linecap:square;stroke-linejoin:bevel;stroke-miterlimit:10;stroke-dasharray:none;stroke-opacity:1"
         id="path334" /></g><g
       id="g336"><path
         d="m 352.5,183.4 h -3.75"
         style="fill:none;stroke:#000000;stroke-width:1;stroke-linecap:square;stroke-linejoin:bevel;stroke-miterlimit:10;stroke-dasharray:none;stroke-opacity:1"
         id="path338" /></g><g
       id="g340"><path
         d="m 352.5,198.6 h -3.75"
         style="fill:none;stroke:#000000;stroke-width:1;stroke-linecap:square;stroke-linejoin:bevel;stroke-miterlimit:10;stroke-dasharray:none;stroke-opacity:1"
         id="path342" /></g><g
       id="g344"><path
         d="m 352.5,206.2 h -3.75"
         style="fill:none;stroke:#000000;stroke-width:1;stroke-linecap:square;stroke-linejoin:bevel;stroke-miterlimit:10;stroke-dasharray:none;stroke-opacity:1"
         id="path346" /></g><g
       id="g348"><path
         d="m 352.5,213.8 h -3.75"
         style="fill:none;stroke:#000000;stroke-width:1;stroke-linecap:square;stroke-linejoin:bevel;stroke-miterlimit:10;stroke-dasharray:none;stroke-opacity:1"
         id="path350" /></g><g
       id="g352"><path
         d="m 352.5,221.4 h -3.75"
         style="fill:none;stroke:#000000;stroke-width:1;stroke-linecap:square;stroke-linejoin:bevel;stroke-miterlimit:10;stroke-dasharray:none;stroke-opacity:1"
         id="path354" /></g><g
       id="g356"><path
         d="m 352.5,236.6 h -3.75"
         style="fill:none;stroke:#000000;stroke-width:1;stroke-linecap:square;stroke-linejoin:bevel;stroke-miterlimit:10;stroke-dasharray:none;stroke-opacity:1"
         id="path358" /></g><g
       id="g360"><path
         d="m 352.5,244.2 h -3.75"
         style="fill:none;stroke:#000000;stroke-width:1;stroke-linecap:square;stroke-linejoin:bevel;stroke-miterlimit:10;stroke-dasharray:none;stroke-opacity:1"
         id="path362" /></g><g
       id="g364"><path
         d="m 352.5,251.8 h -3.75"
         style="fill:none;stroke:#000000;stroke-width:1;stroke-linecap:square;stroke-linejoin:bevel;stroke-miterlimit:10;stroke-dasharray:none;stroke-opacity:1"
         id="path366" /></g><g
       id="g368"><path
         d="m 352.5,259.4 h -3.75"
         style="fill:none;stroke:#000000;stroke-width:1;stroke-linecap:square;stroke-linejoin:bevel;stroke-miterlimit:10;stroke-dasharray:none;stroke-opacity:1"
         id="path370" /></g><g
       id="g372"><path
         d="m 150.422,3 h 1.512 l 1.992,6.902 h -0.68 L 155.391,3 h 1.476 l 2.227,7.641 h -1.43 l -1.805,-6.95 0.621,0.129 -2.027,6.774 h -1.558 l -1.922,-6.797 h 0.504 l -1.688,6.844 h -1.617 L 150.422,3 m 13.863,0 h 0.996 v 3.223 c 0,1.441 -0.82,2.238 -2.402,2.238 -0.762,0 -1.582,-0.188 -2.215,-0.516 l 0.34,-0.972 c 0.551,0.211 1.09,0.328 1.582,0.328 0.855,0 1.312,-0.328 1.312,-0.973 V 4.031 L 164.285,3 M 162.41,2.895 c 1.184,0 2.028,0.667 2.297,1.828 l -0.457,0.211 c -0.188,-0.575 -0.727,-0.938 -1.371,-0.938 -0.539,0 -0.902,0.27 -0.902,0.68 0,0.515 0.609,0.726 2.168,0.726 v 0.774 c -2.485,0 -3.586,-0.516 -3.586,-1.699 0,-0.961 0.726,-1.582 1.851,-1.582 M 168.996,3 h 1.395 l 2.074,5.355 h -1.406 l -1.524,-4.57 h 0.363 l -1.441,4.57 H 166.91 L 168.996,3 m 8.039,-0.105 c 0.633,0 1.313,0.128 1.887,0.375 l -0.305,0.96 c -0.433,-0.175 -0.902,-0.269 -1.359,-0.269 -1.149,0 -1.77,0.644 -1.77,1.887 0,0.996 0.41,1.535 1.16,1.535 0.704,0 1.102,-0.445 1.102,-1.231 h -2.449 V 5.285 h 3.715 c 0.035,0.223 0.058,0.551 0.058,0.809 0,1.453 -0.89,2.367 -2.32,2.367 -1.594,0 -2.66,-1.137 -2.66,-2.801 0,-1.722 1.113,-2.765 2.941,-2.765 M 185.449,3 h 1.406 v 3.293 c 0,1.336 -0.75,2.145 -1.957,2.145 -0.773,0 -1.488,-0.34 -1.98,-0.938 l 0.199,-0.855 c 0.363,0.375 0.809,0.574 1.301,0.574 0.68,0 1.031,-0.387 1.031,-1.114 V 3 m -3.527,0 h 1.406 v 4.406 l -0.398,0.949 h -1.008 V 3 m 9.269,-0.094 c 0.739,0 1.442,0.34 1.934,0.949 l -0.211,0.856 c -0.328,-0.363 -0.762,-0.574 -1.207,-0.574 -0.762,0 -0.984,0.574 -0.984,1.113 v 3.105 h -1.407 V 4.934 c 0,-1.231 0.762,-2.028 1.875,-2.028 M 193.113,3 h 1.008 v 5.355 h -1.406 V 3.938 L 193.113,3 m 10.055,0 h 1.406 v 3.293 c 0,1.336 -0.738,2.145 -1.945,2.145 -0.762,0 -1.477,-0.34 -1.969,-0.938 l 0.211,-0.855 c 0.352,0.375 0.785,0.574 1.277,0.574 0.68,0 1.02,-0.387 1.02,-1.114 V 3 m -6.996,0 h 1.406 v 4.406 l -0.398,0.949 h -1.008 V 3 m 3.504,0 h 1.394 v 3.293 c 0,1.336 -0.738,2.145 -1.933,2.145 -0.774,0 -1.477,-0.34 -1.969,-0.938 l 0.199,-0.855 c 0.352,0.375 0.797,0.574 1.278,0.574 0.679,0 1.031,-0.387 1.031,-1.114 V 3 M 210.07,2.895 c 1.5,0 2.508,1.136 2.508,2.835 0,1.641 -0.949,2.731 -2.355,2.731 -0.985,0 -1.7,-0.527 -2.051,-1.418 l 0.422,-0.527 c 0.199,0.504 0.644,0.761 1.172,0.761 0.867,0 1.394,-0.632 1.394,-1.64 0,-0.961 -0.48,-1.559 -1.277,-1.559 -0.563,0 -1.02,0.293 -1.254,0.785 l -0.481,-0.715 c 0.329,-0.82 0.985,-1.253 1.922,-1.253 M 207.422,3 h 0.89 l 0.469,0.973 v 7.16 h -1.359 V 3 m 10.113,-0.105 c 0.633,0 1.313,0.128 1.887,0.375 l -0.305,0.96 c -0.433,-0.175 -0.902,-0.269 -1.359,-0.269 -1.149,0 -1.77,0.644 -1.77,1.887 0,0.996 0.41,1.535 1.16,1.535 0.704,0 1.102,-0.445 1.102,-1.231 h -2.449 V 5.285 h 3.715 c 0.035,0.223 0.058,0.551 0.058,0.809 0,1.453 -0.89,2.367 -2.32,2.367 -1.594,0 -2.66,-1.137 -2.66,-2.801 0,-1.722 1.113,-2.765 2.941,-2.765 M 222.422,3 h 1.406 v 3.68 l -0.293,1.675 h -1.113 V 3 m 1.137,3.047 c 0.293,0.656 0.879,1.043 1.535,1.043 0.222,0 0.48,-0.047 0.679,-0.117 l 0.329,1.289 c -0.235,0.093 -0.516,0.14 -0.797,0.14 -0.703,0 -1.36,-0.375 -1.746,-1.019 V 6.047 m 8.496,-5.133 0.996,0.598 c -0.821,1.254 -1.242,2.812 -1.242,4.617 0,1.605 0.398,3.082 1.23,4.559 l -1.019,0.562 c -1.043,-1.582 -1.571,-3.375 -1.571,-5.191 0,-1.993 0.539,-3.704 1.606,-5.145 m 5.461,1.981 c 0.656,0 1.265,0.14 1.769,0.41 l -0.316,0.972 c -0.375,-0.164 -0.785,-0.257 -1.137,-0.257 -0.996,0 -1.559,0.621 -1.559,1.687 0,1.008 0.504,1.57 1.465,1.57 0.387,0 0.844,-0.093 1.231,-0.246 l 0.293,1.102 c -0.457,0.211 -1.02,0.328 -1.571,0.328 -1.722,0 -2.847,-1.149 -2.847,-2.906 0,-1.676 0.996,-2.66 2.672,-2.66 M 248.168,3 h 1.406 v 3.293 c 0,1.336 -0.738,2.145 -1.945,2.145 -0.762,0 -1.477,-0.34 -1.969,-0.938 l 0.211,-0.855 c 0.352,0.375 0.785,0.574 1.277,0.574 0.68,0 1.02,-0.387 1.02,-1.114 V 3 m -6.996,0 h 1.406 v 4.406 l -0.398,0.949 h -1.008 V 3 m 3.504,0 h 1.394 v 3.293 c 0,1.336 -0.738,2.145 -1.933,2.145 -0.774,0 -1.477,-0.34 -1.969,-0.938 l 0.199,-0.855 c 0.352,0.375 0.797,0.574 1.278,0.574 0.679,0 1.031,-0.387 1.031,-1.114 V 3"
         style="fill:#000000;fill-opacity:1;fill-rule:nonzero;stroke:none"
         id="path374" /></g><g
       id="g376"><path
         d="m 252.023,8.93 h 2.075 v 0.738 h -2.075 V 8.93 m 4.149,-1.442 h 0.89 v 4.864 h -0.527 l -1.851,-0.938 0.339,-0.633 1.43,0.645 -0.281,0.281 V 7.488"
         style="fill:#000000;fill-opacity:1;fill-rule:nonzero;stroke:none"
         id="path378" /></g><g
       id="g380"><path
         d="m 258.984,0.914 c 1.067,1.441 1.606,3.152 1.606,5.145 0,1.816 -0.528,3.609 -1.57,5.191 L 258,10.688 c 0.832,-1.477 1.23,-2.954 1.23,-4.559 0,-1.805 -0.421,-3.363 -1.242,-4.617 z"
         style="fill:#000000;fill-opacity:1;fill-rule:nonzero;stroke:none"
         id="path382" /></g><g
       id="g384"><path
         d="M 207,45.75 193.5,32.25"
         style="fill:none;stroke:#000000;stroke-width:1;stroke-linecap:square;stroke-linejoin:bevel;stroke-miterlimit:10;stroke-dasharray:none;stroke-opacity:1"
         id="path386" /></g><g
       id="g388"><path
         d="M 213,45.75 199.5,32.25"
         style="fill:none;stroke:#000000;stroke-width:1;stroke-linecap:square;stroke-linejoin:bevel;stroke-miterlimit:10;stroke-dasharray:none;stroke-opacity:1"
         id="path390" /></g><g
       id="g392"><path
         d="m 47.566,23.145 h 0.868 v 7.746 H 47.59 l -3.832,-5.368 v -0.468 h 6.047 v 0.75 h -5.18 l 0.07,-0.188 3.047,4.36 L 47.578,30 47.566,23.145 m 6.047,0 c 1.699,0 2.754,1.488 2.754,3.984 0,2.391 -1.019,3.867 -2.683,3.867 -1.723,0 -2.801,-1.5 -2.801,-3.984 0,-2.403 1.043,-3.867 2.73,-3.867 m 0.059,0.773 c -1.149,0 -1.863,1.207 -1.863,3.211 0,1.922 0.703,3.094 1.804,3.094 1.125,0 1.828,-1.219 1.828,-3.211 0,-1.922 -0.668,-3.094 -1.769,-3.094 m 6.691,-0.773 c 1.699,0 2.754,1.488 2.754,3.984 0,2.391 -1.019,3.867 -2.683,3.867 -1.723,0 -2.801,-1.5 -2.801,-3.984 0,-2.403 1.043,-3.867 2.73,-3.867 m 0.059,0.773 c -1.149,0 -1.863,1.207 -1.863,3.211 0,1.922 0.703,3.094 1.804,3.094 1.125,0 1.828,-1.219 1.828,-3.211 0,-1.922 -0.668,-3.094 -1.769,-3.094"
         style="fill:#000000;fill-opacity:1;fill-rule:nonzero;stroke:none"
         id="path394" /></g><g
       id="g396"><path
         d="m 105.34,23.145 c 1.476,0 2.519,1.031 2.519,2.519 0,1.371 -0.902,2.285 -2.226,2.285 -1.149,0 -2.051,-0.668 -2.309,-1.734 l 0.188,-0.469 c 0.234,0.914 0.949,1.442 1.863,1.442 0.996,0 1.617,-0.633 1.617,-1.641 0,-0.961 -0.586,-1.617 -1.547,-1.617 -1.254,0 -1.922,1.054 -1.922,3.047 0,2.144 0.774,3.222 2.391,3.222 0.539,0 1.09,-0.129 1.582,-0.375 l 0.258,0.715 c -0.598,0.316 -1.172,0.457 -1.793,0.457 -2.109,0 -3.328,-1.547 -3.328,-4.148 0,-2.344 0.984,-3.703 2.707,-3.703 m 6.773,0 c 1.699,0 2.754,1.488 2.754,3.984 0,2.391 -1.019,3.867 -2.683,3.867 -1.723,0 -2.801,-1.5 -2.801,-3.984 0,-2.403 1.043,-3.867 2.73,-3.867 m 0.059,0.773 c -1.149,0 -1.863,1.207 -1.863,3.211 0,1.922 0.703,3.094 1.804,3.094 1.125,0 1.828,-1.219 1.828,-3.211 0,-1.922 -0.668,-3.094 -1.769,-3.094 m 6.691,-0.773 c 1.699,0 2.754,1.488 2.754,3.984 0,2.391 -1.019,3.867 -2.683,3.867 -1.723,0 -2.801,-1.5 -2.801,-3.984 0,-2.403 1.043,-3.867 2.73,-3.867 m 0.059,0.773 c -1.149,0 -1.863,1.207 -1.863,3.211 0,1.922 0.703,3.094 1.804,3.094 1.125,0 1.828,-1.219 1.828,-3.211 0,-1.922 -0.668,-3.094 -1.769,-3.094"
         style="fill:#000000;fill-opacity:1;fill-rule:nonzero;stroke:none"
         id="path398" /></g><g
       id="g400"><path
         d="m 163.699,23.145 c 1.606,0 2.672,0.82 2.672,2.027 0,2.449 -4.148,1.98 -4.148,3.914 0,0.691 0.539,1.148 1.382,1.148 0.903,0 1.547,-0.504 1.547,-1.23 0,-0.703 -0.609,-1.301 -1.511,-1.488 l 0.679,-0.352 c 1.055,0.316 1.711,1.102 1.711,1.992 0,1.102 -0.961,1.84 -2.32,1.84 -1.418,0 -2.379,-0.808 -2.379,-1.992 0,-2.508 4.102,-1.922 4.102,-3.867 0,-0.739 -0.586,-1.207 -1.582,-1.207 -1.09,0 -1.864,0.539 -1.864,1.359 0,0.785 0.668,1.418 1.7,1.559 l -0.586,0.375 c -1.231,-0.164 -2.051,-1.02 -2.051,-2.063 0,-1.207 1.078,-2.015 2.648,-2.015 m 6.914,0 c 1.699,0 2.754,1.488 2.754,3.984 0,2.391 -1.019,3.867 -2.683,3.867 -1.723,0 -2.801,-1.5 -2.801,-3.984 0,-2.403 1.043,-3.867 2.73,-3.867 m 0.059,0.773 c -1.149,0 -1.863,1.207 -1.863,3.211 0,1.922 0.703,3.094 1.804,3.094 1.125,0 1.828,-1.219 1.828,-3.211 0,-1.922 -0.668,-3.094 -1.769,-3.094 m 6.691,-0.773 c 1.699,0 2.754,1.488 2.754,3.984 0,2.391 -1.019,3.867 -2.683,3.867 -1.723,0 -2.801,-1.5 -2.801,-3.984 0,-2.403 1.043,-3.867 2.73,-3.867 m 0.059,0.773 c -1.149,0 -1.863,1.207 -1.863,3.211 0,1.922 0.703,3.094 1.804,3.094 1.125,0 1.828,-1.219 1.828,-3.211 0,-1.922 -0.668,-3.094 -1.769,-3.094"
         style="fill:#000000;fill-opacity:1;fill-rule:nonzero;stroke:none"
         id="path402" /></g><g
       id="g404"><path
         d="m 224.449,23.191 h 0.879 v 7.7 h -0.527 l -2.719,-1.407 0.328,-0.632 2.332,1.113 -0.293,0.281 v -7.055 m 2.578,-1.851 h 0.797 c 0.387,0.949 0.598,2.133 0.598,3.222 h -0.949 c 0,-1.113 -0.164,-2.308 -0.446,-3.222 m 5.789,1.805 h 0.868 v 7.746 h -0.844 l -3.832,-5.368 v -0.468 h 6.047 v 0.75 h -5.18 l 0.07,-0.188 3.047,4.36 -0.164,0.023 -0.012,-6.855 m 6.047,0 c 1.699,0 2.754,1.488 2.754,3.984 0,2.391 -1.019,3.867 -2.683,3.867 -1.723,0 -2.801,-1.5 -2.801,-3.984 0,-2.403 1.043,-3.867 2.73,-3.867 m 0.059,0.773 c -1.149,0 -1.863,1.207 -1.863,3.211 0,1.922 0.703,3.094 1.804,3.094 1.125,0 1.828,-1.219 1.828,-3.211 0,-1.922 -0.668,-3.094 -1.769,-3.094 m 6.691,-0.773 c 1.699,0 2.754,1.488 2.754,3.984 0,2.391 -1.019,3.867 -2.683,3.867 -1.723,0 -2.801,-1.5 -2.801,-3.984 0,-2.403 1.043,-3.867 2.73,-3.867 m 0.059,0.773 c -1.149,0 -1.863,1.207 -1.863,3.211 0,1.922 0.703,3.094 1.804,3.094 1.125,0 1.828,-1.219 1.828,-3.211 0,-1.922 -0.668,-3.094 -1.769,-3.094"
         style="fill:#000000;fill-opacity:1;fill-rule:nonzero;stroke:none"
         id="path406" /></g><g
       id="g408"><path
         d="m 282.949,23.191 h 0.879 v 7.7 h -0.527 l -2.719,-1.407 0.328,-0.632 2.332,1.113 -0.293,0.281 v -7.055 m 2.578,-1.851 h 0.797 c 0.387,0.949 0.598,2.133 0.598,3.222 h -0.949 c 0,-1.113 -0.164,-2.308 -0.446,-3.222 m 5.063,1.805 c 1.476,0 2.519,1.031 2.519,2.519 0,1.371 -0.902,2.285 -2.226,2.285 -1.149,0 -2.051,-0.668 -2.309,-1.734 l 0.188,-0.469 c 0.234,0.914 0.949,1.442 1.863,1.442 0.996,0 1.617,-0.633 1.617,-1.641 0,-0.961 -0.586,-1.617 -1.547,-1.617 -1.254,0 -1.922,1.054 -1.922,3.047 0,2.144 0.774,3.222 2.391,3.222 0.539,0 1.09,-0.129 1.582,-0.375 l 0.258,0.715 c -0.598,0.316 -1.172,0.457 -1.793,0.457 -2.109,0 -3.328,-1.547 -3.328,-4.148 0,-2.344 0.984,-3.703 2.707,-3.703 m 6.773,0 c 1.699,0 2.754,1.488 2.754,3.984 0,2.391 -1.019,3.867 -2.683,3.867 -1.723,0 -2.801,-1.5 -2.801,-3.984 0,-2.403 1.043,-3.867 2.73,-3.867 m 0.059,0.773 c -1.149,0 -1.863,1.207 -1.863,3.211 0,1.922 0.703,3.094 1.804,3.094 1.125,0 1.828,-1.219 1.828,-3.211 0,-1.922 -0.668,-3.094 -1.769,-3.094 m 6.691,-0.773 c 1.699,0 2.754,1.488 2.754,3.984 0,2.391 -1.019,3.867 -2.683,3.867 -1.723,0 -2.801,-1.5 -2.801,-3.984 0,-2.403 1.043,-3.867 2.73,-3.867 m 0.059,0.773 c -1.149,0 -1.863,1.207 -1.863,3.211 0,1.922 0.703,3.094 1.804,3.094 1.125,0 1.828,-1.219 1.828,-3.211 0,-1.922 -0.668,-3.094 -1.769,-3.094"
         style="fill:#000000;fill-opacity:1;fill-rule:nonzero;stroke:none"
         id="path410" /></g><g
       id="g412"><path
         d="m 341.449,23.191 h 0.879 v 7.7 h -0.527 l -2.719,-1.407 0.328,-0.632 2.332,1.113 -0.293,0.281 v -7.055 m 2.578,-1.851 h 0.797 c 0.387,0.949 0.598,2.133 0.598,3.222 h -0.949 c 0,-1.113 -0.164,-2.308 -0.446,-3.222 m 4.922,1.805 c 1.606,0 2.672,0.82 2.672,2.027 0,2.449 -4.148,1.98 -4.148,3.914 0,0.691 0.539,1.148 1.382,1.148 0.903,0 1.547,-0.504 1.547,-1.23 0,-0.703 -0.609,-1.301 -1.511,-1.488 l 0.679,-0.352 c 1.055,0.316 1.711,1.102 1.711,1.992 0,1.102 -0.961,1.84 -2.32,1.84 -1.418,0 -2.379,-0.808 -2.379,-1.992 0,-2.508 4.102,-1.922 4.102,-3.867 0,-0.739 -0.586,-1.207 -1.582,-1.207 -1.09,0 -1.864,0.539 -1.864,1.359 0,0.785 0.668,1.418 1.7,1.559 l -0.586,0.375 c -1.231,-0.164 -2.051,-1.02 -2.051,-2.063 0,-1.207 1.078,-2.015 2.648,-2.015 m 6.914,0 c 1.699,0 2.754,1.488 2.754,3.984 0,2.391 -1.019,3.867 -2.683,3.867 -1.723,0 -2.801,-1.5 -2.801,-3.984 0,-2.403 1.043,-3.867 2.73,-3.867 m 0.059,0.773 c -1.149,0 -1.863,1.207 -1.863,3.211 0,1.922 0.703,3.094 1.804,3.094 1.125,0 1.828,-1.219 1.828,-3.211 0,-1.922 -0.668,-3.094 -1.769,-3.094 m 6.691,-0.773 c 1.699,0 2.754,1.488 2.754,3.984 0,2.391 -1.019,3.867 -2.683,3.867 -1.723,0 -2.801,-1.5 -2.801,-3.984 0,-2.403 1.043,-3.867 2.73,-3.867 m 0.059,0.773 c -1.149,0 -1.863,1.207 -1.863,3.211 0,1.922 0.703,3.094 1.804,3.094 1.125,0 1.828,-1.219 1.828,-3.211 0,-1.922 -0.668,-3.094 -1.769,-3.094"
         style="fill:#000000;fill-opacity:1;fill-rule:nonzero;stroke:none"
         id="path414" /></g><g
       id="g416"><path
         d="m 111.9,39 v 0.75"
         style="fill:none;stroke:#000000;stroke-width:1;stroke-linecap:square;stroke-linejoin:bevel;stroke-miterlimit:10;stroke-dasharray:none;stroke-opacity:1"
         id="path418" /></g><g
       id="g420"><path
         d="m 170.55,39 v 0.75"
         style="fill:none;stroke:#000000;stroke-width:1;stroke-linecap:square;stroke-linejoin:bevel;stroke-miterlimit:10;stroke-dasharray:none;stroke-opacity:1"
         id="path422" /></g><g
       id="g424"><path
         d="m 235.2,39 v 0.75"
         style="fill:none;stroke:#000000;stroke-width:1;stroke-linecap:square;stroke-linejoin:bevel;stroke-miterlimit:10;stroke-dasharray:none;stroke-opacity:1"
         id="path426" /></g><g
       id="g428"><path
         d="m 293.85,39 v 0.75"
         style="fill:none;stroke:#000000;stroke-width:1;stroke-linecap:square;stroke-linejoin:bevel;stroke-miterlimit:10;stroke-dasharray:none;stroke-opacity:1"
         id="path430" /></g><g
       id="g432"><path
         d="M 53.25,39 H 199.125"
         style="fill:none;stroke:#000000;stroke-width:1;stroke-linecap:square;stroke-linejoin:bevel;stroke-miterlimit:10;stroke-dasharray:none;stroke-opacity:1"
         id="path434" /></g><g
       id="g436"><path
         d="M 206.625,39 H 352.5"
         style="fill:none;stroke:#000000;stroke-width:1;stroke-linecap:square;stroke-linejoin:bevel;stroke-miterlimit:10;stroke-dasharray:none;stroke-opacity:1"
         id="path438" /></g><g
       id="g440"><path
         d="m 111.9,39 v 6.75"
         style="fill:none;stroke:#000000;stroke-width:1;stroke-linecap:square;stroke-linejoin:bevel;stroke-miterlimit:10;stroke-dasharray:none;stroke-opacity:1"
         id="path442" /></g><g
       id="g444"><path
         d="m 170.55,39 v 6.75"
         style="fill:none;stroke:#000000;stroke-width:1;stroke-linecap:square;stroke-linejoin:bevel;stroke-miterlimit:10;stroke-dasharray:none;stroke-opacity:1"
         id="path446" /></g><g
       id="g448"><path
         d="m 235.2,39 v 6.75"
         style="fill:none;stroke:#000000;stroke-width:1;stroke-linecap:square;stroke-linejoin:bevel;stroke-miterlimit:10;stroke-dasharray:none;stroke-opacity:1"
         id="path450" /></g><g
       id="g452"><path
         d="m 293.85,39 v 6.75"
         style="fill:none;stroke:#000000;stroke-width:1;stroke-linecap:square;stroke-linejoin:bevel;stroke-miterlimit:10;stroke-dasharray:none;stroke-opacity:1"
         id="path454" /></g><g
       id="g456"><path
         d="m 82.575,39 v 3.75"
         style="fill:none;stroke:#000000;stroke-width:1;stroke-linecap:square;stroke-linejoin:bevel;stroke-miterlimit:10;stroke-dasharray:none;stroke-opacity:1"
         id="path458" /></g><g
       id="g460"><path
         d="m 141.225,39 v 3.75"
         style="fill:none;stroke:#000000;stroke-width:1;stroke-linecap:square;stroke-linejoin:bevel;stroke-miterlimit:10;stroke-dasharray:none;stroke-opacity:1"
         id="path462" /></g><g
       id="g464"><path
         d="m 199.875,39 v 3.75"
         style="fill:none;stroke:#000000;stroke-width:1;stroke-linecap:square;stroke-linejoin:bevel;stroke-miterlimit:10;stroke-dasharray:none;stroke-opacity:1"
         id="path466" /></g><g
       id="g468"><path
         d="m 264.525,39 v 3.75"
         style="fill:none;stroke:#000000;stroke-width:1;stroke-linecap:square;stroke-linejoin:bevel;stroke-miterlimit:10;stroke-dasharray:none;stroke-opacity:1"
         id="path470" /></g><g
       id="g472"><path
         d="m 323.175,39 v 3.75"
         style="fill:none;stroke:#000000;stroke-width:1;stroke-linecap:square;stroke-linejoin:bevel;stroke-miterlimit:10;stroke-dasharray:none;stroke-opacity:1"
         id="path474" /></g><g
       id="g476"><path
         d="m 207,273.75 -13.5,-13.5"
         style="fill:none;stroke:#000000;stroke-width:1;stroke-linecap:square;stroke-linejoin:bevel;stroke-miterlimit:10;stroke-dasharray:none;stroke-opacity:1"
         id="path478" /></g><g
       id="g480"><path
         d="m 213,273.75 -13.5,-13.5"
         style="fill:none;stroke:#000000;stroke-width:1;stroke-linecap:square;stroke-linejoin:bevel;stroke-miterlimit:10;stroke-dasharray:none;stroke-opacity:1"
         id="path482" /></g><g
       id="g484"><path
         d="m 111.9,267 v -0.75"
         style="fill:none;stroke:#000000;stroke-width:1;stroke-linecap:square;stroke-linejoin:bevel;stroke-miterlimit:10;stroke-dasharray:none;stroke-opacity:1"
         id="path486" /></g><g
       id="g488"><path
         d="m 170.55,267 v -0.75"
         style="fill:none;stroke:#000000;stroke-width:1;stroke-linecap:square;stroke-linejoin:bevel;stroke-miterlimit:10;stroke-dasharray:none;stroke-opacity:1"
         id="path490" /></g><g
       id="g492"><path
         d="m 235.2,267 v -0.75"
         style="fill:none;stroke:#000000;stroke-width:1;stroke-linecap:square;stroke-linejoin:bevel;stroke-miterlimit:10;stroke-dasharray:none;stroke-opacity:1"
         id="path494" /></g><g
       id="g496"><path
         d="m 293.85,267 v -0.75"
         style="fill:none;stroke:#000000;stroke-width:1;stroke-linecap:square;stroke-linejoin:bevel;stroke-miterlimit:10;stroke-dasharray:none;stroke-opacity:1"
         id="path498" /></g><g
       id="g500"><path
         d="M 53.25,267 H 199.125"
         style="fill:none;stroke:#000000;stroke-width:1;stroke-linecap:square;stroke-linejoin:bevel;stroke-miterlimit:10;stroke-dasharray:none;stroke-opacity:1"
         id="path502" /></g><g
       id="g504"><path
         d="M 206.625,267 H 352.5"
         style="fill:none;stroke:#000000;stroke-width:1;stroke-linecap:square;stroke-linejoin:bevel;stroke-miterlimit:10;stroke-dasharray:none;stroke-opacity:1"
         id="path506" /></g><g
       id="g508"><path
         d="m 111.9,267 v -6.75"
         style="fill:none;stroke:#000000;stroke-width:1;stroke-linecap:square;stroke-linejoin:bevel;stroke-miterlimit:10;stroke-dasharray:none;stroke-opacity:1"
         id="path510" /></g><g
       id="g512"><path
         d="m 170.55,267 v -6.75"
         style="fill:none;stroke:#000000;stroke-width:1;stroke-linecap:square;stroke-linejoin:bevel;stroke-miterlimit:10;stroke-dasharray:none;stroke-opacity:1"
         id="path514" /></g><g
       id="g516"><path
         d="m 235.2,267 v -6.75"
         style="fill:none;stroke:#000000;stroke-width:1;stroke-linecap:square;stroke-linejoin:bevel;stroke-miterlimit:10;stroke-dasharray:none;stroke-opacity:1"
         id="path518" /></g><g
       id="g520"><path
         d="m 293.85,267 v -6.75"
         style="fill:none;stroke:#000000;stroke-width:1;stroke-linecap:square;stroke-linejoin:bevel;stroke-miterlimit:10;stroke-dasharray:none;stroke-opacity:1"
         id="path522" /></g><g
       id="g524"><path
         d="m 82.575,267 v -3.75"
         style="fill:none;stroke:#000000;stroke-width:1;stroke-linecap:square;stroke-linejoin:bevel;stroke-miterlimit:10;stroke-dasharray:none;stroke-opacity:1"
         id="path526" /></g><g
       id="g528"><path
         d="m 141.225,267 v -3.75"
         style="fill:none;stroke:#000000;stroke-width:1;stroke-linecap:square;stroke-linejoin:bevel;stroke-miterlimit:10;stroke-dasharray:none;stroke-opacity:1"
         id="path530" /></g><g
       id="g532"><path
         d="m 199.875,267 v -3.75"
         style="fill:none;stroke:#000000;stroke-width:1;stroke-linecap:square;stroke-linejoin:bevel;stroke-miterlimit:10;stroke-dasharray:none;stroke-opacity:1"
         id="path534" /></g><g
       id="g536"><path
         d="m 264.525,267 v -3.75"
         style="fill:none;stroke:#000000;stroke-width:1;stroke-linecap:square;stroke-linejoin:bevel;stroke-miterlimit:10;stroke-dasharray:none;stroke-opacity:1"
         id="path538" /></g><g
       id="g540"><path
         d="m 323.175,267 v -3.75"
         style="fill:none;stroke:#000000;stroke-width:1;stroke-linecap:square;stroke-linejoin:bevel;stroke-miterlimit:10;stroke-dasharray:none;stroke-opacity:1"
         id="path542" /></g><g
       id="g544"><path
         d="m 65.25,259.5 h 85.5 v -42 h -85.5 z"
         style="fill:#ffffff;fill-opacity:0.8;fill-rule:nonzero;stroke:none"
         id="path546" /></g><g
       id="g548"><path
         d="m 65.25,259.5 h 85.5 v -42 h -85.5 z"
         style="fill:none;stroke:#000000;stroke-width:1;stroke-linecap:butt;stroke-linejoin:miter;stroke-miterlimit:10;stroke-dasharray:none;stroke-opacity:1"
         id="path550" /></g><g
       id="g552"><path
         d="m 73.5,249.75 h 24"
         style="fill:none;stroke:#000000;stroke-width:2;stroke-linecap:butt;stroke-linejoin:miter;stroke-miterlimit:10;stroke-dasharray:none;stroke-opacity:1"
         id="path554" /></g><g
       id="g556"><path
         d="m 101.309,246 h 0.785 l 2.039,5.719 h -0.082 L 105.984,246 h 0.832 l -2.191,6.246 h -0.973 L 101.309,246 m 1.183,1.852 h 3.117 v 0.644 h -3.117 v -0.644 m 5.59,-1.852 h 0.738 v 5.59 h 1.114 c 0.902,0 1.511,-0.586 1.511,-1.465 0,-0.855 -0.504,-1.301 -1.429,-1.301 h -1.465 v -0.644 h 1.336 c 1.394,0 2.332,0.82 2.332,2.074 0,1.195 -0.891,1.992 -2.203,1.992 h -1.934 V 246"
         style="fill:#000000;fill-opacity:1;fill-rule:nonzero;stroke:none"
         id="path558" /></g><g
       id="g560"><path
         d="m 73.5,238.5 h 24"
         style="fill:none;stroke:#ff0000;stroke-width:2;stroke-linecap:butt;stroke-linejoin:miter;stroke-miterlimit:10;stroke-dasharray:none;stroke-opacity:1"
         id="path562" /></g><g
       id="g564"><path
         d="m 102.082,234.75 h 0.738 v 5.59 h 1.114 c 0.902,0 1.511,-0.586 1.511,-1.465 0,-0.855 -0.504,-1.301 -1.429,-1.301 h -1.465 v -0.644 h 1.336 c 1.394,0 2.332,0.82 2.332,2.074 0,1.195 -0.891,1.992 -2.203,1.992 h -1.934 v -6.246 m 6.141,-0.059 c 0.234,0 0.515,0.059 0.691,0.153 l -0.164,0.504 c -0.105,-0.047 -0.211,-0.071 -0.316,-0.071 -0.305,0 -0.469,0.2 -0.469,0.539 v 5.579 h -0.715 v -5.672 c 0,-0.621 0.387,-1.032 0.973,-1.032 m 3.949,0.059 h 0.504 v 2.812 c 0,1.043 -0.61,1.618 -1.735,1.618 -0.574,0 -1.183,-0.153 -1.652,-0.422 l 0.176,-0.528 c 0.457,0.2 0.902,0.293 1.324,0.293 0.773,0 1.172,-0.316 1.172,-0.961 v -2.308 l 0.211,-0.504 m -1.535,-0.094 c 1.031,0 1.816,0.656 1.945,1.617 l -0.258,0.118 c -0.14,-0.657 -0.726,-1.102 -1.476,-1.102 -0.575,0 -0.961,0.293 -0.961,0.715 0,0.551 0.644,0.773 2.179,0.773 v 0.504 c -2.015,0 -2.894,-0.41 -2.894,-1.347 0,-0.774 0.574,-1.278 1.465,-1.278 m 5.59,0.047 c 0.304,0 0.597,0.07 0.808,0.164 l -0.164,0.516 c -0.141,-0.059 -0.34,-0.094 -0.492,-0.094 -0.445,0 -0.738,0.293 -0.738,0.715 v 4.348 h -0.727 v -4.442 c 0,-0.715 0.527,-1.207 1.313,-1.207 m -1.899,3.785 h 2.496 v 0.598 h -2.496 v -0.598 m 5.367,-3.832 c 0.493,0 1.043,0.117 1.43,0.328 l -0.164,0.516 c -0.34,-0.152 -0.762,-0.258 -1.137,-0.258 -1.019,0 -1.617,0.68 -1.617,1.805 0,0.973 0.434,1.512 1.231,1.512 0.738,0 1.171,-0.469 1.171,-1.301 h -2.531 v -0.539 h 3.164 c 0.024,0.14 0.035,0.445 0.035,0.621 0,1.09 -0.715,1.84 -1.781,1.84 -1.207,0 -2.027,-0.95 -2.027,-2.285 0,-1.383 0.855,-2.239 2.226,-2.239 m 6.633,-1.511 0.516,0.304 c -0.75,1.313 -1.055,2.414 -1.055,3.996 0,1.336 0.305,2.391 1.055,3.727 l -0.539,0.316 c -0.914,-1.5 -1.243,-2.672 -1.243,-4.113 0,-1.676 0.352,-2.836 1.266,-4.23 m 1.582,1.605 h 3.961 v 0.645 h -3.187 l 0.093,-0.211 c 2.133,2.004 2.848,3.046 2.848,4.136 0,1.102 -0.738,1.758 -1.898,1.758 -0.739,0 -1.454,-0.269 -1.911,-0.703 l 0.211,-0.527 c 0.469,0.386 1.067,0.574 1.547,0.574 0.809,0 1.301,-0.469 1.301,-1.219 0,-0.914 -0.727,-1.851 -2.965,-3.961 v -0.492 m 6.844,-0.047 h 0.715 v 6.293 h -0.434 l -2.226,-1.16 0.269,-0.504 1.91,0.902 -0.234,0.223 v -5.754 m 3.75,0 h 0.715 v 6.293 h -0.434 l -2.226,-1.16 0.269,-0.504 1.91,0.902 -0.234,0.223 v -5.754 m 2.625,-1.558 c 0.926,1.394 1.266,2.554 1.266,4.23 0,1.441 -0.329,2.613 -1.231,4.113 l -0.551,-0.316 c 0.75,-1.336 1.055,-2.391 1.055,-3.727 0,-1.582 -0.305,-2.683 -1.055,-3.996 l 0.516,-0.304"
         style="fill:#000000;fill-opacity:1;fill-rule:nonzero;stroke:none"
         id="path566" /></g><g
       id="g568"><path
         d="m 73.5,227.25 h 24"
         style="fill:none;stroke:#00ff00;stroke-width:2;stroke-linecap:butt;stroke-linejoin:miter;stroke-miterlimit:10;stroke-dasharray:none;stroke-opacity:1"
         id="path570" /></g><g
       id="g572"><path
         d="m 103.617,223.406 c 1.395,0 2.297,0.715 2.297,1.817 0,2.203 -3.492,1.324 -3.492,2.941 0,0.656 0.527,1.008 1.476,1.008 0.54,0 1.114,-0.106 1.559,-0.293 l 0.223,0.586 c -0.528,0.234 -1.125,0.363 -1.723,0.363 -1.395,0 -2.297,-0.691 -2.297,-1.781 0,-2.145 3.481,-1.348 3.481,-2.942 0,-0.621 -0.539,-1.031 -1.477,-1.031 -0.574,0 -1.277,0.153 -1.887,0.41 l -0.222,-0.586 c 0.691,-0.316 1.394,-0.492 2.062,-0.492 m 5.531,0 c 1.207,0 2.016,0.938 2.016,2.344 0,1.301 -0.738,2.18 -1.863,2.18 -0.61,0 -1.196,-0.27 -1.571,-0.739 l 0.165,-0.457 c 0.316,0.352 0.761,0.563 1.218,0.563 0.809,0 1.336,-0.645 1.336,-1.641 0,-0.972 -0.48,-1.617 -1.254,-1.617 -0.656,0 -1.195,0.422 -1.347,1.066 l -0.293,-0.503 c 0.199,-0.75 0.82,-1.196 1.593,-1.196 m -1.898,-1.863 h 0.715 v 5.789 l -0.211,0.504 h -0.504 v -6.293 m 8.203,1.957 h 0.727 v 2.848 c 0,0.961 -0.645,1.582 -1.618,1.582 -0.621,0 -1.242,-0.27 -1.71,-0.809 l 0.175,-0.457 c 0.364,0.422 0.832,0.633 1.336,0.633 0.703,0 1.09,-0.399 1.09,-1.102 V 223.5 m -2.953,0 h 0.715 v 6.645 H 112.5 V 223.5 m 7.195,-0.094 c 0.493,0 1.043,0.117 1.43,0.328 l -0.164,0.516 c -0.34,-0.152 -0.762,-0.258 -1.137,-0.258 -1.019,0 -1.617,0.68 -1.617,1.805 0,0.973 0.434,1.512 1.231,1.512 0.738,0 1.171,-0.469 1.171,-1.301 h -2.531 v -0.539 h 3.164 c 0.024,0.14 0.035,0.445 0.035,0.621 0,1.09 -0.715,1.84 -1.781,1.84 -1.207,0 -2.027,-0.95 -2.027,-2.285 0,-1.383 0.855,-2.239 2.226,-2.239 M 123,223.5 h 0.715 v 3.328 l -0.129,1.008 H 123 V 223.5 m 0.551,2.812 c 0.258,0.551 0.773,0.879 1.371,0.879 0.176,0 0.328,-0.023 0.48,-0.07 l 0.176,0.656 c -0.187,0.071 -0.375,0.106 -0.574,0.106 -0.586,0 -1.125,-0.317 -1.453,-0.844 v -0.727 m 5.144,-2.906 c 0.493,0 1.043,0.117 1.43,0.328 l -0.164,0.516 c -0.34,-0.152 -0.762,-0.258 -1.137,-0.258 -1.019,0 -1.617,0.68 -1.617,1.805 0,0.973 0.434,1.512 1.231,1.512 0.738,0 1.171,-0.469 1.171,-1.301 h -2.531 v -0.539 h 3.164 c 0.024,0.14 0.035,0.445 0.035,0.621 0,1.09 -0.715,1.84 -1.781,1.84 -1.207,0 -2.027,-0.95 -2.027,-2.285 0,-1.383 0.855,-2.239 2.226,-2.239"
         style="fill:#000000;fill-opacity:1;fill-rule:nonzero;stroke:none"
         id="path574" /></g></g></svg>
