<?xml version="1.0" encoding="UTF-8" standalone="no"?>
<!-- Created with Inkscape (http://www.inkscape.org/) -->

<svg
   version="1.1"
   id="svg2"
   xml:space="preserve"
   width="469"
   height="370"
   viewBox="0 0 469 370"
   xmlns="http://www.w3.org/2000/svg"
   xmlns:svg="http://www.w3.org/2000/svg"><defs
     id="defs6"><clipPath
       clipPathUnits="userSpaceOnUse"
       id="clipPath20"><path
         d="m 39.75,261.75 h 295.5 V 39 H 39.75 Z"
         clip-rule="evenodd"
         id="path18" /></clipPath><clipPath
       clipPathUnits="userSpaceOnUse"
       id="clipPath30"><path
         d="m 39.75,261.75 h 295.5 V 39 H 39.75 Z"
         clip-rule="evenodd"
         id="path28" /></clipPath></defs><g
     id="g8"
     transform="matrix(1.3333333,0,0,-1.3333333,0,370)"><g
       id="g10"><path
         d="M 0,277.5 H 351.75 V 0 H 0 Z"
         style="fill:#ffffff;fill-opacity:1;fill-rule:nonzero;stroke:none"
         id="path12" /></g><g
       id="g14"><g
         id="g16"
         clip-path="url(#clipPath20)"><path
           d="m 39.75,190.357 0.394,0.005 0.788,0.005 0.788,0.006 0.69,0.005 0.787,0.005 0.69,0.006 0.788,0.005 0.788,0.006 0.689,0.005 0.789,0.006 0.689,0.006 0.788,0.006 0.788,0.006 0.689,0.006 0.788,0.006 0.789,0.007 0.689,0.006 0.788,0.006 0.689,0.006 0.789,0.007 0.788,0.007 0.689,0.006 0.788,0.007 0.69,0.006 0.788,0.008 0.787,0.007 0.69,0.007 0.788,0.007 0.788,0.008 0.689,0.006 0.788,0.008 0.69,0.007 0.788,0.008 0.788,0.008 0.689,0.008 0.789,0.008 0.689,0.007 0.788,0.009 0.788,0.009 0.689,0.007 0.789,0.009 0.689,0.008 0.788,0.009 0.788,0.01 0.69,0.008 0.787,0.009 0.789,0.01 0.689,0.008 0.788,0.01 0.689,0.009 0.788,0.01 0.788,0.01 0.69,0.01 0.788,0.01 0.689,0.009 0.789,0.011 0.787,0.011 0.69,0.01 0.788,0.011 0.788,0.012 0.689,0.01 0.789,0.012 0.689,0.01 0.788,0.012 0.788,0.012 0.295,0.005 0.394,0.006 0.788,0.013 0.69,0.011 0.788,0.013 0.788,0.013 0.689,0.012 0.788,0.013 0.789,0.014 0.689,0.012 0.788,0.014 0.689,0.013 0.789,0.014 0.787,0.015 0.69,0.013 0.788,0.016 0.69,0.013 0.787,0.016 0.789,0.016 0.689,0.014 0.788,0.016 0.788,0.017 0.689,0.015 0.788,0.017 0.69,0.015 0.788,0.018 0.788,0.018 0.689,0.016 0.788,0.018 0.69,0.017 0.788,0.019 0.788,0.02 0.689,0.017 0.789,0.02 0.689,0.018 0.788,0.021 0.788,0.021 0.69,0.019 0.787,0.022 0.789,0.022 0.689,0.02 0.788,0.023 0.689,0.021 0.789,0.024 0.787,0.024 0.69,0.022 0.788,0.025 0.69,0.023 0.787,0.026 0.788,0.027 0.69,0.023 0.788,0.028 0.788,0.028 0.689,0.026 0.788,0.029 0.69,0.026 0.788,0.031 0.788,0.031 0.689,0.028 0.788,0.032 0.69,0.029 0.788,0.034 0.788,0.034 0.689,0.031 0.788,0.036 0.788,0.036 0.69,0.033 0.788,0.039 0.69,0.034 0.787,0.04 0.395,0.02 0.393,0.021 0.69,0.037 0.788,0.042 0.689,0.039 0.788,0.045 0.789,0.046 0.689,0.041 0.788,0.048 0.788,0.05 0.69,0.044 0.787,0.052 0.69,0.046 0.788,0.055 0.788,0.056 0.689,0.05 0.788,0.059 0.296,0.023 0.394,0.031 0.788,0.062 0.788,0.064 0.69,0.058 0.787,0.067 0.788,0.07 0.69,0.063 0.788,0.074 0.689,0.067 0.789,0.078 0.787,0.081 0.296,0.031 0.394,0.042 0.788,0.087 0.689,0.077 0.789,0.092 0.787,0.095 0.69,0.086 0.788,0.102 0.689,0.092 0.591,0.082 0.197,0.027 0.789,0.113 0.689,0.103 0.788,0.122 0.788,0.127 0.689,0.115 0.788,0.137 0.099,0.017 0.591,0.107 0.788,0.148 0.788,0.155 0.689,0.142 0.789,0.168 0.098,0.022 0.591,0.132 0.788,0.185 0.788,0.193 0.689,0.177 0.296,0.079 0.492,0.134 0.789,0.224 0.689,0.207 0.591,0.184 0.197,0.064 0.69,0.229 0.787,0.276 0.493,0.181 0.296,0.112 0.689,0.272 0.788,0.33 0.098,0.043 0.591,0.263 0.789,0.373 0.196,0.097 0.591,0.303 0.69,0.373 0.197,0.111 0.591,0.347 0.591,0.366 0.197,0.127 0.689,0.465 0.296,0.21 0.493,0.364 0.492,0.384 0.197,0.159 0.69,0.587 0.098,0.088 0.689,0.642 0.099,0.097 0.689,0.707 0.69,0.77 0.098,0.116 0.493,0.603 0.197,0.252 0.394,0.526 0.394,0.555 0.098,0.144 0.493,0.75 0.197,0.316 0.295,0.492 0.394,0.691 0.394,0.735 0.394,0.783 0.395,0.835 0.295,0.664 0.098,0.228 0.198,0.469 0.295,0.735 0.197,0.511 0.098,0.262 0.296,0.815 0.296,0.859 0.098,0.297 0.099,0.302 0.295,0.94 0.197,0.655 0.099,0.337 0.098,0.342 0.197,0.704 0.197,0.73 0.197,0.756 0.098,0.388 0.099,0.395 0.197,0.811 0.197,0.838 0.197,0.865 0.098,0.443 0.197,0.906 0.198,0.931 0.098,0.475 0.197,0.966 0.098,0.49 0.198,0.992 0.098,0.5 0.197,1.006 0.099,0.503 0.098,0.501 0.099,0.498 0.098,0.494 0.197,0.963 0.197,0.916 0.098,0.432 0.198,0.797 0.196,0.675 0.394,0.799 0.296,-0.121 0.295,-1.032 0.099,-0.602 0.099,-0.752 0.098,-0.916 0.098,-1.092 0.099,-1.283 0.098,-1.484 0.099,-1.698 0.099,-1.92 0.098,-2.149 0.098,-2.383 0.099,-2.618 0.098,-2.848 0.099,-3.071 0.098,-3.282 0.099,-3.475 0.098,-3.646 0.099,-3.789 0.099,-3.901 0.098,-3.98 0.099,-4.019 0.098,-4.023 0.099,-3.986 0.098,-3.912 0.098,-3.805 0.099,-3.664 0.098,-3.496 0.099,-3.306 0.099,-3.097 0.098,-2.876 0.098,-2.644 0.099,-2.411 0.098,-2.177 0.099,-1.947 0.098,-1.724 0.099,-1.509 0.098,-1.306 0.099,-1.115 0.099,-0.936 0.098,-0.771 0.098,-0.618 0.099,-0.481 0.394,-0.78 0.197,0.14 0.295,0.667 0.296,1.049 0.197,0.838 0.098,0.449 0.198,0.939 0.098,0.486 0.197,0.99 0.099,0.501 0.098,0.502 0.098,0.504 0.099,0.502 0.197,0.999 0.099,0.495 0.196,0.977 0.197,0.956 0.099,0.469 0.197,0.921 0.098,0.45 0.198,0.881 0.196,0.853 0.198,0.826 0.098,0.403 0.197,0.784 0.197,0.758 0.197,0.731 0.295,1.05 0.099,0.337 0.098,0.331 0.197,0.645 0.197,0.622 0.296,0.893 0.295,0.846 0.197,0.539 0.198,0.521 0.098,0.254 0.295,0.736 0.394,0.924 0.296,0.654 0.296,0.623 0.098,0.2 0.295,0.584 0.394,0.737 0.099,0.177 0.394,0.682 0.394,0.642 0.492,0.752 0.197,0.286 0.394,0.549 0.394,0.519 0.099,0.126 0.69,0.833 0.689,0.763 0.689,0.699 0.099,0.095 0.689,0.637 0.788,0.668 0.099,0.079 0.69,0.533 0.295,0.216 0.394,0.279 0.689,0.461 0.099,0.063 0.689,0.426 0.493,0.288 0.295,0.166 0.789,0.422 0.295,0.15 0.394,0.195 0.788,0.37 0.394,0.176 0.394,0.171 0.69,0.285 0.689,0.27 0.098,0.038 0.69,0.254 0.788,0.274 0.591,0.196 0.197,0.064 0.689,0.215 0.788,0.234 0.69,0.194 0.197,0.054 0.591,0.158 0.788,0.201 0.689,0.168 0.789,0.183 0.098,0.023 0.69,0.152 0.689,0.147 0.788,0.16 0.689,0.135 0.788,0.147 0.099,0.018 0.69,0.124 0.689,0.119 0.788,0.131 0.69,0.11 0.787,0.122 0.788,0.116 0.099,0.015 0.591,0.084 0.788,0.109 0.788,0.104 0.689,0.089 0.788,0.098 0.69,0.083 0.788,0.092 0.788,0.089 0.689,0.075 0.788,0.083 0.69,0.071 0.788,0.078 0.788,0.076 0.689,0.065 0.788,0.072 0.69,0.061 0.788,0.067 0.788,0.066 0.492,0.041 0.197,0.015 0.788,0.063 0.788,0.06 0.69,0.052 0.788,0.058 0.69,0.049 0.787,0.055 0.788,0.053 0.69,0.045 0.788,0.051 0.689,0.044 0.788,0.048 0.788,0.047 0.69,0.04 0.788,0.046 0.394,0.022 0.394,0.022 0.689,0.037 0.788,0.042 0.69,0.036 0.788,0.041 0.788,0.039 0.689,0.034 0.789,0.038 0.689,0.032 0.788,0.036 0.788,0.036 0.69,0.03 0.787,0.034 0.788,0.033 0.69,0.029 0.788,0.032 0.689,0.028 0.788,0.03 0.788,0.031 0.69,0.026 0.788,0.029 0.69,0.025 0.787,0.028 0.788,0.027 0.69,0.024 0.788,0.027 0.788,0.026 0.689,0.022 0.789,0.025 0.689,0.022 0.788,0.024 0.788,0.024 0.69,0.021 0.787,0.023 0.69,0.02 0.788,0.022 0.788,0.022 0.689,0.019 0.788,0.022 0.788,0.021 0.69,0.018 0.788,0.02 0.689,0.017 0.789,0.02 0.787,0.02 0.69,0.016 0.788,0.019 0.689,0.016 0.788,0.019 0.789,0.017 0.689,0.016 0.788,0.017 0.689,0.015 0.788,0.017 0.788,0.017 0.69,0.015 0.788,0.016 0.788,0.016 0.689,0.014 0.788,0.015 0.69,0.014 0.197,0.003 0.591,0.012 0.788,0.015 0.689,0.013 0.789,0.014 0.689,0.013 0.788,0.014 0.788,0.014 0.689,0.012 0.788,0.013 0.789,0.014 0.689,0.011 0.788,0.013 0.689,0.012 0.788,0.013 0.789,0.012 0.689,0.011 0.788,0.012 0.689,0.011 0.788,0.012 0.788,0.012"
           style="fill:none;stroke:#000000;stroke-width:2;stroke-linecap:butt;stroke-linejoin:miter;stroke-miterlimit:10;stroke-dasharray:none;stroke-opacity:1"
           id="path22" /></g></g><g
       id="g24"><g
         id="g26"
         clip-path="url(#clipPath30)"><path
           d="m 39.75,39.017 h 0.394 0.788 0.788 l 0.69,10e-4 h 0.787 0.69 0.788 l 0.788,10e-4 h 0.689 0.789 0.689 0.788 l 0.788,0.001 h 0.689 0.788 0.789 l 0.689,10e-4 h 0.788 0.689 0.789 l 0.788,10e-4 h 0.689 0.788 l 0.69,0.001 h 0.788 0.787 0.69 l 0.788,10e-4 h 0.788 0.689 l 0.788,10e-4 h 0.69 0.788 l 0.788,0.001 h 0.689 0.789 l 0.689,10e-4 h 0.788 0.788 l 0.689,10e-4 h 0.789 0.689 l 0.788,0.001 h 0.788 0.69 l 0.787,10e-4 h 0.789 l 0.689,10e-4 h 0.788 0.689 l 0.788,10e-4 h 0.788 l 0.69,0.001 h 0.788 l 0.689,10e-4 h 0.789 l 0.787,10e-4 h 0.69 l 0.788,0.001 h 0.788 l 0.689,10e-4 h 0.789 l 0.689,10e-4 h 0.788 l 0.788,0.001 h 0.689 l 0.788,10e-4 h 0.69 l 0.788,10e-4 h 0.788 l 0.689,0.001 0.788,10e-4 h 0.789 l 0.689,10e-4 0.788,0.001 h 0.689 l 0.789,10e-4 0.787,10e-4 h 0.69 l 0.788,0.001 0.69,10e-4 h 0.787 l 0.789,10e-4 0.689,0.001 0.788,10e-4 0.788,10e-4 h 0.689 l 0.788,0.001 0.69,10e-4 0.788,10e-4 0.788,0.001 0.689,10e-4 0.788,10e-4 0.69,0.001 0.788,10e-4 0.788,10e-4 0.689,0.001 0.789,10e-4 0.689,10e-4 0.788,0.001 0.788,10e-4 0.69,10e-4 0.787,0.001 0.789,0.002 0.689,0.001 0.788,10e-4 0.689,10e-4 0.789,0.002 0.787,10e-4 0.69,0.001 0.788,0.002 0.69,0.001 0.787,0.002 0.788,0.001 0.69,0.002 0.788,0.002 0.788,10e-4 0.689,0.002 0.788,0.002 0.69,0.002 0.788,0.002 0.788,0.002 0.689,0.001 0.788,0.003 0.69,10e-4 0.788,0.003 0.788,0.002 0.689,0.002 0.788,0.003 0.788,0.002 0.69,0.003 0.788,0.002 0.69,0.003 0.787,0.003 0.788,0.003 0.69,0.003 0.788,0.003 0.689,0.003 0.788,0.003 0.789,0.004 0.689,0.003 0.788,0.004 0.788,0.004 0.69,0.004 0.787,0.004 0.69,0.004 0.788,0.005 0.788,0.004 0.689,0.005 0.788,0.005 0.69,0.005 0.788,0.005 0.788,0.006 0.69,0.006 0.787,0.006 0.788,0.007 0.69,0.006 0.788,0.007 0.689,0.007 0.789,0.007 0.787,0.009 0.69,0.007 0.788,0.009 0.689,0.009 0.789,0.01 0.787,0.01 0.69,0.01 0.788,0.012 0.689,0.011 0.788,0.013 0.789,0.013 0.689,0.013 0.788,0.015 0.788,0.016 0.689,0.015 0.788,0.019 0.69,0.016 0.788,0.021 0.788,0.022 0.689,0.02 0.789,0.025 0.689,0.023 0.788,0.029 0.788,0.031 0.689,0.028 0.788,0.036 0.789,0.038 0.689,0.036 0.788,0.045 0.69,0.042 0.787,0.053 0.789,0.057 0.689,0.055 0.788,0.069 0.492,0.046 0.197,0.02 0.789,0.083 0.787,0.092 0.69,0.089 0.788,0.114 0.788,0.127 0.689,0.125 0.493,0.098 0.296,0.063 0.689,0.159 0.788,0.207 0.788,0.239 0.296,0.099 0.393,0.141 0.788,0.318 0.591,0.275 0.099,0.049 0.788,0.436 0.493,0.315 0.295,0.208 0.689,0.548 0.788,0.759 0.591,0.688 0.197,0.256 0.394,0.56 0.296,0.467 0.197,0.336 0.394,0.739 0.197,0.407 0.197,0.436 0.295,0.711 0.198,0.518 0.098,0.272 0.197,0.577 0.295,0.947 0.197,0.695 0.198,0.75 0.196,0.811 0.198,0.879 0.098,0.467 0.098,0.487 0.099,0.507 0.098,0.53 0.198,1.129 0.098,0.602 0.098,0.628 0.099,0.657 0.098,0.687 0.099,0.719 0.099,0.751 0.098,0.786 0.098,0.823 0.099,0.862 0.099,0.902 0.098,0.946 0.099,0.99 0.098,1.039 0.099,1.088 0.098,1.141 0.098,1.196 0.099,1.253 0.098,1.314 0.099,1.378 0.099,1.443 0.098,1.512 0.098,1.582 0.099,1.657 0.098,1.732 0.099,1.809 0.098,1.889 0.099,1.968 0.098,2.049 0.099,2.13 0.099,2.208 0.098,2.284 0.098,2.357 0.099,2.425 0.099,2.485 0.098,2.536 0.098,2.577 0.099,2.604 0.098,2.615 0.099,2.607 0.099,2.579 0.098,2.527 0.098,2.449 0.099,2.343 0.098,2.208 0.099,2.043 0.098,1.849 0.099,1.625 0.098,1.375 0.099,1.101 0.099,0.807 0.098,0.498 0.296,-0.422 0.098,-0.771 0.098,-1.067 0.099,-1.344 0.098,-1.596 0.099,-1.824 0.099,-2.022 0.098,-2.19 0.098,-2.328 0.099,-2.438 0.098,-2.519 0.099,-2.574 0.098,-2.605 0.099,-2.615 0.098,-2.607 0.099,-2.58 0.099,-2.542 0.098,-2.492 0.098,-2.432 0.099,-2.365 0.099,-2.294 0.098,-2.217 0.098,-2.139 0.099,-2.058 0.098,-1.979 0.099,-1.898 0.099,-1.818 0.098,-1.741 0.098,-1.666 0.099,-1.591 0.098,-1.52 0.099,-1.451 0.098,-1.385 0.099,-1.322 0.098,-1.26 0.099,-1.203 0.099,-1.147 0.098,-1.095 0.099,-1.044 0.098,-0.996 0.099,-0.95 0.098,-0.908 0.098,-0.866 0.099,-0.828 0.098,-0.79 0.099,-0.756 0.099,-0.722 0.098,-0.69 0.098,-0.661 0.099,-0.632 0.098,-0.605 0.099,-0.58 0.197,-1.087 0.098,-0.51 0.198,-0.959 0.098,-0.45 0.197,-0.848 0.197,-0.784 0.197,-0.725 0.197,-0.671 0.295,-0.917 0.197,-0.558 0.099,-0.265 0.197,-0.501 0.394,-0.905 0.197,-0.409 0.099,-0.195 0.393,-0.719 0.198,-0.327 0.295,-0.454 0.492,-0.672 0.099,-0.123 0.591,-0.671 0.788,-0.742 0.788,-0.606 0.197,-0.134 0.492,-0.309 0.788,-0.427 0.099,-0.049 0.69,-0.312 0.689,-0.27 0.394,-0.139 0.394,-0.128 0.689,-0.204 0.788,-0.204 0.789,-0.177 0.196,-0.041 0.493,-0.097 0.788,-0.14 0.689,-0.109 0.788,-0.112 0.789,-0.1 0.689,-0.079 0.788,-0.082 0.295,-0.029 0.493,-0.046 0.69,-0.059 0.787,-0.061 0.69,-0.05 0.788,-0.052 0.788,-0.048 0.689,-0.038 0.788,-0.041 0.69,-0.033 0.788,-0.035 0.788,-0.032 0.689,-0.027 0.789,-0.028 0.788,-0.026 0.689,-0.022 0.788,-0.023 0.689,-0.019 0.788,-0.02 0.789,-0.019 0.689,-0.016 0.788,-0.017 0.69,-0.014 0.787,-0.015 0.788,-0.014 0.69,-0.012 0.788,-0.013 0.788,-0.012 0.689,-0.01 0.788,-0.011 0.69,-0.01 0.788,-0.009 0.788,-0.01 0.689,-0.008 0.788,-0.008 0.69,-0.008 0.788,-0.008 0.788,-0.007 0.689,-0.006 0.788,-0.007 0.69,-0.006 0.788,-0.006 0.788,-0.006 0.689,-0.005 0.788,-0.006 0.788,-0.005 0.69,-0.005 0.788,-0.005 0.69,-0.004 0.787,-0.005 0.788,-0.004 0.69,-0.004 0.788,-0.004 0.689,-0.003 0.788,-0.004 0.788,-0.004 0.69,-0.003 0.788,-0.003 0.788,-0.004 0.689,-0.003 0.788,-0.003 0.69,-0.002 0.788,-0.003 0.788,-0.003 0.689,-0.002 0.789,-0.003 0.689,-0.002 0.788,-0.003 0.788,-0.002 0.69,-0.002 0.787,-0.002 0.788,-0.003 0.69,-0.002 0.788,-0.002 0.689,-10e-4 0.788,-0.002 0.788,-0.002 0.69,-0.002 0.788,-0.002 0.69,-0.001 0.787,-0.002 0.788,-0.002 0.69,-10e-4 0.788,-0.002 0.788,-10e-4 0.689,-0.001 0.789,-0.002 0.689,-0.001 0.788,-10e-4 0.788,-0.002 0.69,-10e-4 0.787,-10e-4 0.69,-0.001 0.788,-0.002 0.788,-0.001 0.689,-10e-4 0.788,-10e-4 0.788,-0.001 0.69,-10e-4 0.788,-10e-4 0.689,-0.001 0.789,-10e-4 0.787,-10e-4 0.69,-0.001 0.788,-10e-4 h 0.689 l 0.788,-10e-4 0.789,-0.001 0.689,-10e-4 0.788,-10e-4 0.689,-0.001 h 0.788 l 0.788,-10e-4 0.69,-10e-4 0.788,-0.001 h 0.788 l 0.689,-10e-4 0.788,-10e-4 h 0.69 l 0.788,-0.001 0.788,-10e-4 h 0.689 l 0.789,-10e-4 h 0.689 l 0.788,-0.001 0.788,-10e-4 h 0.689 l 0.788,-10e-4 h 0.789 l 0.689,-0.001 h 0.788 l 0.689,-10e-4 h 0.788 l 0.789,-10e-4 h 0.689 l 0.788,-0.001 h 0.689 l 0.788,-10e-4 h 0.788"
           style="fill:none;stroke:#ff0000;stroke-width:2;stroke-linecap:butt;stroke-linejoin:miter;stroke-miterlimit:10;stroke-dasharray:none;stroke-opacity:1"
           id="path32" /></g></g><g
       id="g34"><path
         d="m 11.25,116.766 v 1.429 H 4.852 v 1.067 c 0,0.937 0.574,1.558 1.418,1.558 0.82,0 1.277,-0.515 1.277,-1.418 v -1.734 h 1.254 v 1.477 c 0,1.898 -1.078,3.152 -2.707,3.152 -1.524,0 -2.485,-1.125 -2.485,-2.906 v -2.625 h 7.641 m 0.105,10.019 c 0,0.633 -0.128,1.313 -0.375,1.887 l -0.96,-0.305 c 0.175,-0.433 0.269,-0.902 0.269,-1.359 0,-1.149 -0.644,-1.77 -1.887,-1.77 -0.996,0 -1.535,0.41 -1.535,1.16 0,0.704 0.445,1.102 1.231,1.102 v -2.449 h 0.867 v 3.715 c -0.223,0.035 -0.551,0.058 -0.809,0.058 -1.453,0 -2.367,-0.89 -2.367,-2.32 0,-1.594 1.137,-2.66 2.801,-2.66 1.722,0 2.765,1.113 2.765,2.941 m -0.105,4.887 v 1.406 H 7.57 l -1.675,-0.293 v -1.113 h 5.355 m -3.047,1.137 c -0.656,0.293 -1.043,0.879 -1.043,1.535 0,0.222 0.047,0.48 0.117,0.679 l -1.289,0.329 c -0.093,-0.235 -0.14,-0.516 -0.14,-0.797 0,-0.703 0.375,-1.36 1.019,-1.746 h 1.336 m 3.047,11.109 v 1.406 H 7.957 c -1.336,0 -2.145,-0.738 -2.145,-1.945 0,-0.762 0.34,-1.477 0.938,-1.969 l 0.855,0.211 c -0.375,0.352 -0.574,0.785 -0.574,1.277 0,0.68 0.387,1.02 1.114,1.02 h 3.105 m 0,-6.996 v 1.406 H 6.844 L 5.895,137.93 v -1.008 h 5.355 m 0,3.504 v 1.394 H 7.957 c -1.336,0 -2.145,-0.738 -2.145,-1.933 0,-0.774 0.34,-1.477 0.938,-1.969 l 0.855,0.199 c -0.375,0.352 -0.574,0.797 -0.574,1.278 0,0.679 0.387,1.031 1.114,1.031 h 3.105 m 0,7.746 v 1.406 H 5.895 v -1.406 h 5.355 m -6.34,0.703 c 0,0.527 -0.34,0.867 -0.855,0.867 -0.539,0 -0.879,-0.34 -0.879,-0.867 0,-0.516 0.34,-0.855 0.879,-0.855 0.515,0 0.855,0.339 0.855,0.855 m 6.422,5.168 c 0,0.363 -0.07,0.762 -0.187,1.102 l -1.008,-0.282 c 0.07,-0.152 0.105,-0.351 0.105,-0.515 0,-0.504 -0.293,-0.821 -0.762,-0.821 H 4.348 v -1.394 h 5.226 c 1.078,0 1.758,0.715 1.758,1.91 M 7.02,151.395 v 3.468 H 5.895 v -3.468 H 7.02 m 4.312,7.148 c 0,0.363 -0.07,0.762 -0.187,1.102 l -1.008,-0.282 c 0.07,-0.152 0.105,-0.351 0.105,-0.515 0,-0.504 -0.293,-0.821 -0.762,-0.821 H 4.348 v -1.394 h 5.226 c 1.078,0 1.758,0.715 1.758,1.91 M 7.02,155.895 v 3.468 H 5.895 v -3.468 H 7.02 m 4.23,5.027 v 1.406 H 5.895 v -1.406 h 5.355 m -6.34,0.703 c 0,0.527 -0.34,0.867 -0.855,0.867 -0.539,0 -0.879,-0.34 -0.879,-0.867 0,-0.516 0.34,-0.855 0.879,-0.855 0.515,0 0.855,0.339 0.855,0.855 m 6.34,4.371 v 1.395 l -5.355,2.074 v -1.406 l 4.57,-1.524 v 0.363 l -4.57,-1.441 v -1.547 l 5.355,2.086 m 0,5.426 v 1.406 H 5.895 v -1.406 h 5.355 m -6.34,0.703 c 0,0.527 -0.34,0.867 -0.855,0.867 -0.539,0 -0.879,-0.34 -0.879,-0.867 0,-0.516 0.34,-0.855 0.879,-0.855 0.515,0 0.855,0.339 0.855,0.855 m 6.422,5.168 c 0,0.363 -0.07,0.762 -0.187,1.102 l -1.008,-0.282 c 0.07,-0.152 0.105,-0.351 0.105,-0.515 0,-0.504 -0.293,-0.821 -0.762,-0.821 H 4.348 v -1.394 h 5.226 c 1.078,0 1.758,0.715 1.758,1.91 M 7.02,174.645 v 3.468 H 5.895 v -3.468 H 7.02 m 6.621,5.378 v 1.512 l -2.391,0.856 -5.355,2.062 v -1.406 l 4.605,-1.5 v 0.34 l -4.605,-1.418 v -1.559 l 5.355,2.086 2.391,-0.973"
         style="fill:#000000;fill-opacity:1;fill-rule:nonzero;stroke:none"
         id="path36" /></g><g
       id="g38"><path
         d="m 32.613,35.145 c 1.699,0 2.754,1.488 2.754,3.984 0,2.391 -1.019,3.867 -2.683,3.867 -1.723,0 -2.801,-1.5 -2.801,-3.984 0,-2.403 1.043,-3.867 2.73,-3.867 m 0.059,0.773 c -1.149,0 -1.863,1.207 -1.863,3.211 0,1.922 0.703,3.094 1.804,3.094 1.125,0 1.828,-1.219 1.828,-3.211 0,-1.922 -0.668,-3.094 -1.769,-3.094"
         style="fill:#000000;fill-opacity:1;fill-rule:nonzero;stroke:none"
         id="path40" /></g><g
       id="g42"><path
         d="m 23.613,71.895 c 1.699,0 2.754,1.488 2.754,3.984 0,2.391 -1.019,3.867 -2.683,3.867 -1.723,0 -2.801,-1.5 -2.801,-3.984 0,-2.403 1.043,-3.867 2.73,-3.867 m 0.059,0.773 c -1.149,0 -1.863,1.207 -1.863,3.211 0,1.922 0.703,3.094 1.804,3.094 1.125,0 1.828,-1.219 1.828,-3.211 0,-1.922 -0.668,-3.094 -1.769,-3.094 m 4.734,-0.773 c 0.422,0 0.703,0.293 0.703,0.703 0,0.398 -0.281,0.703 -0.703,0.703 -0.41,0 -0.703,-0.305 -0.703,-0.703 0,-0.41 0.293,-0.703 0.703,-0.703 m 4.278,0 c 1.699,0 2.847,0.96 2.847,2.46 0,1.43 -1.043,2.333 -2.754,2.333 -0.422,0 -0.843,-0.047 -1.23,-0.141 l 0.223,-0.281 0.128,2.589 h 3.27 v 0.786 h -4.102 l -0.187,-3.914 c 0.492,0.117 1.137,0.187 1.617,0.187 1.301,0 2.098,-0.598 2.098,-1.641 0,-0.984 -0.727,-1.582 -1.852,-1.582 -0.656,0 -1.383,0.188 -1.957,0.493 l -0.269,-0.727 c 0.679,-0.363 1.394,-0.562 2.168,-0.562"
         style="fill:#000000;fill-opacity:1;fill-rule:nonzero;stroke:none"
         id="path44" /></g><g
       id="g46"><path
         d="m 33.949,109.441 h 0.879 v 7.7 h -0.527 l -2.719,-1.407 0.328,-0.632 2.332,1.113 -0.293,0.281 z"
         style="fill:#000000;fill-opacity:1;fill-rule:nonzero;stroke:none"
         id="path48" /></g><g
       id="g50"><path
         d="m 24.949,146.191 h 0.879 v 7.7 h -0.527 l -2.719,-1.407 0.328,-0.632 2.332,1.113 -0.293,0.281 v -7.055 m 3.457,-0.046 c 0.422,0 0.703,0.293 0.703,0.703 0,0.398 -0.281,0.703 -0.703,0.703 -0.41,0 -0.703,-0.305 -0.703,-0.703 0,-0.41 0.293,-0.703 0.703,-0.703 m 4.278,0 c 1.699,0 2.847,0.96 2.847,2.46 0,1.43 -1.043,2.333 -2.754,2.333 -0.422,0 -0.843,-0.047 -1.23,-0.141 l 0.223,-0.281 0.128,2.589 h 3.27 v 0.786 h -4.102 l -0.187,-3.914 c 0.492,0.117 1.137,0.187 1.617,0.187 1.301,0 2.098,-0.598 2.098,-1.641 0,-0.984 -0.727,-1.582 -1.852,-1.582 -0.656,0 -1.383,0.188 -1.957,0.493 l -0.269,-0.727 c 0.679,-0.363 1.394,-0.562 2.168,-0.562"
         style="fill:#000000;fill-opacity:1;fill-rule:nonzero;stroke:none"
         id="path52" /></g><g
       id="g54"><path
         d="m 30.504,183.75 h 4.851 v 0.797 h -3.914 l 0.118,-0.27 c 2.613,2.461 3.492,3.739 3.492,5.063 0,1.348 -0.914,2.156 -2.321,2.156 -0.914,0 -1.781,-0.328 -2.343,-0.867 l 0.246,-0.633 c 0.586,0.469 1.312,0.703 1.91,0.703 0.984,0 1.582,-0.586 1.582,-1.5 0,-1.113 -0.891,-2.261 -3.621,-4.84 z"
         style="fill:#000000;fill-opacity:1;fill-rule:nonzero;stroke:none"
         id="path56" /></g><g
       id="g58"><path
         d="m 21.504,220.5 h 4.851 v 0.797 h -3.914 l 0.118,-0.27 c 2.613,2.461 3.492,3.739 3.492,5.063 0,1.348 -0.914,2.156 -2.321,2.156 -0.914,0 -1.781,-0.328 -2.343,-0.867 l 0.246,-0.633 c 0.586,0.469 1.312,0.703 1.91,0.703 0.984,0 1.582,-0.586 1.582,-1.5 0,-1.113 -0.891,-2.261 -3.621,-4.84 V 220.5 m 6.902,-0.105 c 0.422,0 0.703,0.293 0.703,0.703 0,0.398 -0.281,0.703 -0.703,0.703 -0.41,0 -0.703,-0.305 -0.703,-0.703 0,-0.41 0.293,-0.703 0.703,-0.703 m 4.278,0 c 1.699,0 2.847,0.96 2.847,2.46 0,1.43 -1.043,2.333 -2.754,2.333 -0.422,0 -0.843,-0.047 -1.23,-0.141 l 0.223,-0.281 0.128,2.589 h 3.27 v 0.786 h -4.102 l -0.187,-3.914 c 0.492,0.117 1.137,0.187 1.617,0.187 1.301,0 2.098,-0.598 2.098,-1.641 0,-0.984 -0.727,-1.582 -1.852,-1.582 -0.656,0 -1.383,0.188 -1.957,0.493 l -0.269,-0.727 c 0.679,-0.363 1.394,-0.562 2.168,-0.562"
         style="fill:#000000;fill-opacity:1;fill-rule:nonzero;stroke:none"
         id="path60" /></g><g
       id="g62"><path
         d="m 32.836,257.883 c 1.676,0 2.836,0.879 2.836,2.203 0,1.113 -0.856,1.898 -2.156,1.934 l -0.164,-0.129 c 1.136,0.023 1.921,0.797 1.921,1.851 0,1.219 -0.984,1.992 -2.402,1.992 -0.785,0 -1.676,-0.246 -2.32,-0.621 l 0.211,-0.679 c 0.679,0.339 1.394,0.515 1.957,0.515 0.984,0 1.699,-0.504 1.699,-1.289 0,-0.844 -0.82,-1.394 -1.945,-1.394 h -0.586 v -0.786 h 0.785 c 1.277,0 2.086,-0.55 2.086,-1.453 0,-0.855 -0.75,-1.336 -1.887,-1.336 -0.668,0 -1.559,0.164 -2.273,0.516 l -0.2,-0.738 c 0.739,-0.375 1.641,-0.586 2.438,-0.586 z"
         style="fill:#000000;fill-opacity:1;fill-rule:nonzero;stroke:none"
         id="path64" /></g><g
       id="g66"><path
         d="M 39.75,76.125 H 40.5"
         style="fill:none;stroke:#000000;stroke-width:1;stroke-linecap:square;stroke-linejoin:bevel;stroke-miterlimit:10;stroke-dasharray:none;stroke-opacity:1"
         id="path68" /></g><g
       id="g70"><path
         d="M 39.75,113.25 H 40.5"
         style="fill:none;stroke:#000000;stroke-width:1;stroke-linecap:square;stroke-linejoin:bevel;stroke-miterlimit:10;stroke-dasharray:none;stroke-opacity:1"
         id="path72" /></g><g
       id="g74"><path
         d="M 39.75,150.375 H 40.5"
         style="fill:none;stroke:#000000;stroke-width:1;stroke-linecap:square;stroke-linejoin:bevel;stroke-miterlimit:10;stroke-dasharray:none;stroke-opacity:1"
         id="path76" /></g><g
       id="g78"><path
         d="M 39.75,187.5 H 40.5"
         style="fill:none;stroke:#000000;stroke-width:1;stroke-linecap:square;stroke-linejoin:bevel;stroke-miterlimit:10;stroke-dasharray:none;stroke-opacity:1"
         id="path80" /></g><g
       id="g82"><path
         d="M 39.75,224.625 H 40.5"
         style="fill:none;stroke:#000000;stroke-width:1;stroke-linecap:square;stroke-linejoin:bevel;stroke-miterlimit:10;stroke-dasharray:none;stroke-opacity:1"
         id="path84" /></g><g
       id="g86"><path
         d="M 39.75,261.75 V 39"
         style="fill:none;stroke:#000000;stroke-width:1;stroke-linecap:square;stroke-linejoin:bevel;stroke-miterlimit:10;stroke-dasharray:none;stroke-opacity:1"
         id="path88" /></g><g
       id="g90"><path
         d="M 39.75,76.125 H 46.5"
         style="fill:none;stroke:#000000;stroke-width:1;stroke-linecap:square;stroke-linejoin:bevel;stroke-miterlimit:10;stroke-dasharray:none;stroke-opacity:1"
         id="path92" /></g><g
       id="g94"><path
         d="M 39.75,113.25 H 46.5"
         style="fill:none;stroke:#000000;stroke-width:1;stroke-linecap:square;stroke-linejoin:bevel;stroke-miterlimit:10;stroke-dasharray:none;stroke-opacity:1"
         id="path96" /></g><g
       id="g98"><path
         d="M 39.75,150.375 H 46.5"
         style="fill:none;stroke:#000000;stroke-width:1;stroke-linecap:square;stroke-linejoin:bevel;stroke-miterlimit:10;stroke-dasharray:none;stroke-opacity:1"
         id="path100" /></g><g
       id="g102"><path
         d="M 39.75,187.5 H 46.5"
         style="fill:none;stroke:#000000;stroke-width:1;stroke-linecap:square;stroke-linejoin:bevel;stroke-miterlimit:10;stroke-dasharray:none;stroke-opacity:1"
         id="path104" /></g><g
       id="g106"><path
         d="M 39.75,224.625 H 46.5"
         style="fill:none;stroke:#000000;stroke-width:1;stroke-linecap:square;stroke-linejoin:bevel;stroke-miterlimit:10;stroke-dasharray:none;stroke-opacity:1"
         id="path108" /></g><g
       id="g110"><path
         d="M 39.75,46.425 H 43.5"
         style="fill:none;stroke:#000000;stroke-width:1;stroke-linecap:square;stroke-linejoin:bevel;stroke-miterlimit:10;stroke-dasharray:none;stroke-opacity:1"
         id="path112" /></g><g
       id="g114"><path
         d="M 39.75,53.85 H 43.5"
         style="fill:none;stroke:#000000;stroke-width:1;stroke-linecap:square;stroke-linejoin:bevel;stroke-miterlimit:10;stroke-dasharray:none;stroke-opacity:1"
         id="path116" /></g><g
       id="g118"><path
         d="M 39.75,61.275 H 43.5"
         style="fill:none;stroke:#000000;stroke-width:1;stroke-linecap:square;stroke-linejoin:bevel;stroke-miterlimit:10;stroke-dasharray:none;stroke-opacity:1"
         id="path120" /></g><g
       id="g122"><path
         d="M 39.75,68.7 H 43.5"
         style="fill:none;stroke:#000000;stroke-width:1;stroke-linecap:square;stroke-linejoin:bevel;stroke-miterlimit:10;stroke-dasharray:none;stroke-opacity:1"
         id="path124" /></g><g
       id="g126"><path
         d="M 39.75,83.55 H 43.5"
         style="fill:none;stroke:#000000;stroke-width:1;stroke-linecap:square;stroke-linejoin:bevel;stroke-miterlimit:10;stroke-dasharray:none;stroke-opacity:1"
         id="path128" /></g><g
       id="g130"><path
         d="M 39.75,90.975 H 43.5"
         style="fill:none;stroke:#000000;stroke-width:1;stroke-linecap:square;stroke-linejoin:bevel;stroke-miterlimit:10;stroke-dasharray:none;stroke-opacity:1"
         id="path132" /></g><g
       id="g134"><path
         d="M 39.75,98.4 H 43.5"
         style="fill:none;stroke:#000000;stroke-width:1;stroke-linecap:square;stroke-linejoin:bevel;stroke-miterlimit:10;stroke-dasharray:none;stroke-opacity:1"
         id="path136" /></g><g
       id="g138"><path
         d="M 39.75,105.825 H 43.5"
         style="fill:none;stroke:#000000;stroke-width:1;stroke-linecap:square;stroke-linejoin:bevel;stroke-miterlimit:10;stroke-dasharray:none;stroke-opacity:1"
         id="path140" /></g><g
       id="g142"><path
         d="M 39.75,120.675 H 43.5"
         style="fill:none;stroke:#000000;stroke-width:1;stroke-linecap:square;stroke-linejoin:bevel;stroke-miterlimit:10;stroke-dasharray:none;stroke-opacity:1"
         id="path144" /></g><g
       id="g146"><path
         d="M 39.75,128.1 H 43.5"
         style="fill:none;stroke:#000000;stroke-width:1;stroke-linecap:square;stroke-linejoin:bevel;stroke-miterlimit:10;stroke-dasharray:none;stroke-opacity:1"
         id="path148" /></g><g
       id="g150"><path
         d="M 39.75,135.525 H 43.5"
         style="fill:none;stroke:#000000;stroke-width:1;stroke-linecap:square;stroke-linejoin:bevel;stroke-miterlimit:10;stroke-dasharray:none;stroke-opacity:1"
         id="path152" /></g><g
       id="g154"><path
         d="M 39.75,142.95 H 43.5"
         style="fill:none;stroke:#000000;stroke-width:1;stroke-linecap:square;stroke-linejoin:bevel;stroke-miterlimit:10;stroke-dasharray:none;stroke-opacity:1"
         id="path156" /></g><g
       id="g158"><path
         d="M 39.75,157.8 H 43.5"
         style="fill:none;stroke:#000000;stroke-width:1;stroke-linecap:square;stroke-linejoin:bevel;stroke-miterlimit:10;stroke-dasharray:none;stroke-opacity:1"
         id="path160" /></g><g
       id="g162"><path
         d="M 39.75,165.225 H 43.5"
         style="fill:none;stroke:#000000;stroke-width:1;stroke-linecap:square;stroke-linejoin:bevel;stroke-miterlimit:10;stroke-dasharray:none;stroke-opacity:1"
         id="path164" /></g><g
       id="g166"><path
         d="M 39.75,172.65 H 43.5"
         style="fill:none;stroke:#000000;stroke-width:1;stroke-linecap:square;stroke-linejoin:bevel;stroke-miterlimit:10;stroke-dasharray:none;stroke-opacity:1"
         id="path168" /></g><g
       id="g170"><path
         d="M 39.75,180.075 H 43.5"
         style="fill:none;stroke:#000000;stroke-width:1;stroke-linecap:square;stroke-linejoin:bevel;stroke-miterlimit:10;stroke-dasharray:none;stroke-opacity:1"
         id="path172" /></g><g
       id="g174"><path
         d="M 39.75,194.925 H 43.5"
         style="fill:none;stroke:#000000;stroke-width:1;stroke-linecap:square;stroke-linejoin:bevel;stroke-miterlimit:10;stroke-dasharray:none;stroke-opacity:1"
         id="path176" /></g><g
       id="g178"><path
         d="M 39.75,202.35 H 43.5"
         style="fill:none;stroke:#000000;stroke-width:1;stroke-linecap:square;stroke-linejoin:bevel;stroke-miterlimit:10;stroke-dasharray:none;stroke-opacity:1"
         id="path180" /></g><g
       id="g182"><path
         d="M 39.75,209.775 H 43.5"
         style="fill:none;stroke:#000000;stroke-width:1;stroke-linecap:square;stroke-linejoin:bevel;stroke-miterlimit:10;stroke-dasharray:none;stroke-opacity:1"
         id="path184" /></g><g
       id="g186"><path
         d="M 39.75,217.2 H 43.5"
         style="fill:none;stroke:#000000;stroke-width:1;stroke-linecap:square;stroke-linejoin:bevel;stroke-miterlimit:10;stroke-dasharray:none;stroke-opacity:1"
         id="path188" /></g><g
       id="g190"><path
         d="M 39.75,232.05 H 43.5"
         style="fill:none;stroke:#000000;stroke-width:1;stroke-linecap:square;stroke-linejoin:bevel;stroke-miterlimit:10;stroke-dasharray:none;stroke-opacity:1"
         id="path192" /></g><g
       id="g194"><path
         d="M 39.75,239.475 H 43.5"
         style="fill:none;stroke:#000000;stroke-width:1;stroke-linecap:square;stroke-linejoin:bevel;stroke-miterlimit:10;stroke-dasharray:none;stroke-opacity:1"
         id="path196" /></g><g
       id="g198"><path
         d="M 39.75,246.9 H 43.5"
         style="fill:none;stroke:#000000;stroke-width:1;stroke-linecap:square;stroke-linejoin:bevel;stroke-miterlimit:10;stroke-dasharray:none;stroke-opacity:1"
         id="path200" /></g><g
       id="g202"><path
         d="M 39.75,254.325 H 43.5"
         style="fill:none;stroke:#000000;stroke-width:1;stroke-linecap:square;stroke-linejoin:bevel;stroke-miterlimit:10;stroke-dasharray:none;stroke-opacity:1"
         id="path204" /></g><g
       id="g206"><path
         d="M 335.25,76.125 H 334.5"
         style="fill:none;stroke:#000000;stroke-width:1;stroke-linecap:square;stroke-linejoin:bevel;stroke-miterlimit:10;stroke-dasharray:none;stroke-opacity:1"
         id="path208" /></g><g
       id="g210"><path
         d="M 335.25,113.25 H 334.5"
         style="fill:none;stroke:#000000;stroke-width:1;stroke-linecap:square;stroke-linejoin:bevel;stroke-miterlimit:10;stroke-dasharray:none;stroke-opacity:1"
         id="path212" /></g><g
       id="g214"><path
         d="M 335.25,150.375 H 334.5"
         style="fill:none;stroke:#000000;stroke-width:1;stroke-linecap:square;stroke-linejoin:bevel;stroke-miterlimit:10;stroke-dasharray:none;stroke-opacity:1"
         id="path216" /></g><g
       id="g218"><path
         d="M 335.25,187.5 H 334.5"
         style="fill:none;stroke:#000000;stroke-width:1;stroke-linecap:square;stroke-linejoin:bevel;stroke-miterlimit:10;stroke-dasharray:none;stroke-opacity:1"
         id="path220" /></g><g
       id="g222"><path
         d="M 335.25,224.625 H 334.5"
         style="fill:none;stroke:#000000;stroke-width:1;stroke-linecap:square;stroke-linejoin:bevel;stroke-miterlimit:10;stroke-dasharray:none;stroke-opacity:1"
         id="path224" /></g><g
       id="g226"><path
         d="M 335.25,261.75 V 39"
         style="fill:none;stroke:#000000;stroke-width:1;stroke-linecap:square;stroke-linejoin:bevel;stroke-miterlimit:10;stroke-dasharray:none;stroke-opacity:1"
         id="path228" /></g><g
       id="g230"><path
         d="M 335.25,76.125 H 328.5"
         style="fill:none;stroke:#000000;stroke-width:1;stroke-linecap:square;stroke-linejoin:bevel;stroke-miterlimit:10;stroke-dasharray:none;stroke-opacity:1"
         id="path232" /></g><g
       id="g234"><path
         d="M 335.25,113.25 H 328.5"
         style="fill:none;stroke:#000000;stroke-width:1;stroke-linecap:square;stroke-linejoin:bevel;stroke-miterlimit:10;stroke-dasharray:none;stroke-opacity:1"
         id="path236" /></g><g
       id="g238"><path
         d="M 335.25,150.375 H 328.5"
         style="fill:none;stroke:#000000;stroke-width:1;stroke-linecap:square;stroke-linejoin:bevel;stroke-miterlimit:10;stroke-dasharray:none;stroke-opacity:1"
         id="path240" /></g><g
       id="g242"><path
         d="M 335.25,187.5 H 328.5"
         style="fill:none;stroke:#000000;stroke-width:1;stroke-linecap:square;stroke-linejoin:bevel;stroke-miterlimit:10;stroke-dasharray:none;stroke-opacity:1"
         id="path244" /></g><g
       id="g246"><path
         d="M 335.25,224.625 H 328.5"
         style="fill:none;stroke:#000000;stroke-width:1;stroke-linecap:square;stroke-linejoin:bevel;stroke-miterlimit:10;stroke-dasharray:none;stroke-opacity:1"
         id="path248" /></g><g
       id="g250"><path
         d="M 335.25,46.425 H 331.5"
         style="fill:none;stroke:#000000;stroke-width:1;stroke-linecap:square;stroke-linejoin:bevel;stroke-miterlimit:10;stroke-dasharray:none;stroke-opacity:1"
         id="path252" /></g><g
       id="g254"><path
         d="M 335.25,53.85 H 331.5"
         style="fill:none;stroke:#000000;stroke-width:1;stroke-linecap:square;stroke-linejoin:bevel;stroke-miterlimit:10;stroke-dasharray:none;stroke-opacity:1"
         id="path256" /></g><g
       id="g258"><path
         d="M 335.25,61.275 H 331.5"
         style="fill:none;stroke:#000000;stroke-width:1;stroke-linecap:square;stroke-linejoin:bevel;stroke-miterlimit:10;stroke-dasharray:none;stroke-opacity:1"
         id="path260" /></g><g
       id="g262"><path
         d="M 335.25,68.7 H 331.5"
         style="fill:none;stroke:#000000;stroke-width:1;stroke-linecap:square;stroke-linejoin:bevel;stroke-miterlimit:10;stroke-dasharray:none;stroke-opacity:1"
         id="path264" /></g><g
       id="g266"><path
         d="M 335.25,83.55 H 331.5"
         style="fill:none;stroke:#000000;stroke-width:1;stroke-linecap:square;stroke-linejoin:bevel;stroke-miterlimit:10;stroke-dasharray:none;stroke-opacity:1"
         id="path268" /></g><g
       id="g270"><path
         d="M 335.25,90.975 H 331.5"
         style="fill:none;stroke:#000000;stroke-width:1;stroke-linecap:square;stroke-linejoin:bevel;stroke-miterlimit:10;stroke-dasharray:none;stroke-opacity:1"
         id="path272" /></g><g
       id="g274"><path
         d="M 335.25,98.4 H 331.5"
         style="fill:none;stroke:#000000;stroke-width:1;stroke-linecap:square;stroke-linejoin:bevel;stroke-miterlimit:10;stroke-dasharray:none;stroke-opacity:1"
         id="path276" /></g><g
       id="g278"><path
         d="M 335.25,105.825 H 331.5"
         style="fill:none;stroke:#000000;stroke-width:1;stroke-linecap:square;stroke-linejoin:bevel;stroke-miterlimit:10;stroke-dasharray:none;stroke-opacity:1"
         id="path280" /></g><g
       id="g282"><path
         d="M 335.25,120.675 H 331.5"
         style="fill:none;stroke:#000000;stroke-width:1;stroke-linecap:square;stroke-linejoin:bevel;stroke-miterlimit:10;stroke-dasharray:none;stroke-opacity:1"
         id="path284" /></g><g
       id="g286"><path
         d="M 335.25,128.1 H 331.5"
         style="fill:none;stroke:#000000;stroke-width:1;stroke-linecap:square;stroke-linejoin:bevel;stroke-miterlimit:10;stroke-dasharray:none;stroke-opacity:1"
         id="path288" /></g><g
       id="g290"><path
         d="M 335.25,135.525 H 331.5"
         style="fill:none;stroke:#000000;stroke-width:1;stroke-linecap:square;stroke-linejoin:bevel;stroke-miterlimit:10;stroke-dasharray:none;stroke-opacity:1"
         id="path292" /></g><g
       id="g294"><path
         d="M 335.25,142.95 H 331.5"
         style="fill:none;stroke:#000000;stroke-width:1;stroke-linecap:square;stroke-linejoin:bevel;stroke-miterlimit:10;stroke-dasharray:none;stroke-opacity:1"
         id="path296" /></g><g
       id="g298"><path
         d="M 335.25,157.8 H 331.5"
         style="fill:none;stroke:#000000;stroke-width:1;stroke-linecap:square;stroke-linejoin:bevel;stroke-miterlimit:10;stroke-dasharray:none;stroke-opacity:1"
         id="path300" /></g><g
       id="g302"><path
         d="M 335.25,165.225 H 331.5"
         style="fill:none;stroke:#000000;stroke-width:1;stroke-linecap:square;stroke-linejoin:bevel;stroke-miterlimit:10;stroke-dasharray:none;stroke-opacity:1"
         id="path304" /></g><g
       id="g306"><path
         d="M 335.25,172.65 H 331.5"
         style="fill:none;stroke:#000000;stroke-width:1;stroke-linecap:square;stroke-linejoin:bevel;stroke-miterlimit:10;stroke-dasharray:none;stroke-opacity:1"
         id="path308" /></g><g
       id="g310"><path
         d="M 335.25,180.075 H 331.5"
         style="fill:none;stroke:#000000;stroke-width:1;stroke-linecap:square;stroke-linejoin:bevel;stroke-miterlimit:10;stroke-dasharray:none;stroke-opacity:1"
         id="path312" /></g><g
       id="g314"><path
         d="M 335.25,194.925 H 331.5"
         style="fill:none;stroke:#000000;stroke-width:1;stroke-linecap:square;stroke-linejoin:bevel;stroke-miterlimit:10;stroke-dasharray:none;stroke-opacity:1"
         id="path316" /></g><g
       id="g318"><path
         d="M 335.25,202.35 H 331.5"
         style="fill:none;stroke:#000000;stroke-width:1;stroke-linecap:square;stroke-linejoin:bevel;stroke-miterlimit:10;stroke-dasharray:none;stroke-opacity:1"
         id="path320" /></g><g
       id="g322"><path
         d="M 335.25,209.775 H 331.5"
         style="fill:none;stroke:#000000;stroke-width:1;stroke-linecap:square;stroke-linejoin:bevel;stroke-miterlimit:10;stroke-dasharray:none;stroke-opacity:1"
         id="path324" /></g><g
       id="g326"><path
         d="M 335.25,217.2 H 331.5"
         style="fill:none;stroke:#000000;stroke-width:1;stroke-linecap:square;stroke-linejoin:bevel;stroke-miterlimit:10;stroke-dasharray:none;stroke-opacity:1"
         id="path328" /></g><g
       id="g330"><path
         d="M 335.25,232.05 H 331.5"
         style="fill:none;stroke:#000000;stroke-width:1;stroke-linecap:square;stroke-linejoin:bevel;stroke-miterlimit:10;stroke-dasharray:none;stroke-opacity:1"
         id="path332" /></g><g
       id="g334"><path
         d="M 335.25,239.475 H 331.5"
         style="fill:none;stroke:#000000;stroke-width:1;stroke-linecap:square;stroke-linejoin:bevel;stroke-miterlimit:10;stroke-dasharray:none;stroke-opacity:1"
         id="path336" /></g><g
       id="g338"><path
         d="M 335.25,246.9 H 331.5"
         style="fill:none;stroke:#000000;stroke-width:1;stroke-linecap:square;stroke-linejoin:bevel;stroke-miterlimit:10;stroke-dasharray:none;stroke-opacity:1"
         id="path340" /></g><g
       id="g342"><path
         d="M 335.25,254.325 H 331.5"
         style="fill:none;stroke:#000000;stroke-width:1;stroke-linecap:square;stroke-linejoin:bevel;stroke-miterlimit:10;stroke-dasharray:none;stroke-opacity:1"
         id="path344" /></g><g
       id="g346"><path
         d="m 133.547,3 h 1.512 l 1.992,6.902 h -0.68 L 138.516,3 h 1.476 l 2.227,7.641 h -1.43 l -1.805,-6.95 0.621,0.129 -2.027,6.774 h -1.558 l -1.922,-6.797 h 0.504 l -1.688,6.844 h -1.617 L 133.547,3 m 13.863,0 h 0.996 v 3.223 c 0,1.441 -0.82,2.238 -2.402,2.238 -0.762,0 -1.582,-0.188 -2.215,-0.516 l 0.34,-0.972 c 0.551,0.211 1.09,0.328 1.582,0.328 0.855,0 1.312,-0.328 1.312,-0.973 V 4.031 L 147.41,3 m -1.875,-0.105 c 1.184,0 2.027,0.667 2.297,1.828 l -0.457,0.211 c -0.187,-0.575 -0.727,-0.938 -1.371,-0.938 -0.539,0 -0.902,0.27 -0.902,0.68 0,0.515 0.609,0.726 2.168,0.726 v 0.774 c -2.485,0 -3.586,-0.516 -3.586,-1.699 0,-0.961 0.726,-1.582 1.851,-1.582 M 152.121,3 h 1.395 l 2.074,5.355 h -1.406 l -1.524,-4.57 h 0.363 l -1.441,4.57 h -1.547 L 152.121,3 m 8.039,-0.105 c 0.633,0 1.313,0.128 1.887,0.375 l -0.305,0.96 c -0.433,-0.175 -0.902,-0.269 -1.359,-0.269 -1.149,0 -1.77,0.644 -1.77,1.887 0,0.996 0.41,1.535 1.16,1.535 0.704,0 1.102,-0.445 1.102,-1.231 h -2.449 V 5.285 h 3.715 c 0.035,0.223 0.058,0.551 0.058,0.809 0,1.453 -0.89,2.367 -2.32,2.367 -1.594,0 -2.66,-1.137 -2.66,-2.801 0,-1.722 1.113,-2.765 2.941,-2.765 M 168.574,3 h 1.406 v 3.293 c 0,1.336 -0.75,2.145 -1.957,2.145 -0.773,0 -1.488,-0.34 -1.98,-0.938 l 0.199,-0.855 c 0.363,0.375 0.809,0.574 1.301,0.574 0.68,0 1.031,-0.387 1.031,-1.114 V 3 m -3.527,0 h 1.406 v 4.406 l -0.398,0.949 h -1.008 V 3 m 9.269,-0.094 c 0.739,0 1.442,0.34 1.934,0.949 l -0.211,0.856 c -0.328,-0.363 -0.762,-0.574 -1.207,-0.574 -0.762,0 -0.984,0.574 -0.984,1.113 v 3.105 h -1.407 V 4.934 c 0,-1.231 0.762,-2.028 1.875,-2.028 M 176.238,3 h 1.008 V 8.355 H 175.84 V 3.938 L 176.238,3 m 10.055,0 h 1.406 v 3.293 c 0,1.336 -0.738,2.145 -1.945,2.145 -0.762,0 -1.477,-0.34 -1.969,-0.938 l 0.211,-0.855 c 0.352,0.375 0.785,0.574 1.277,0.574 0.68,0 1.02,-0.387 1.02,-1.114 V 3 m -6.996,0 h 1.406 v 4.406 l -0.398,0.949 h -1.008 V 3 m 3.504,0 h 1.394 v 3.293 c 0,1.336 -0.738,2.145 -1.933,2.145 -0.774,0 -1.477,-0.34 -1.969,-0.938 l 0.199,-0.855 c 0.352,0.375 0.797,0.574 1.278,0.574 0.679,0 1.031,-0.387 1.031,-1.114 V 3 m 10.394,-0.105 c 1.5,0 2.508,1.136 2.508,2.835 0,1.641 -0.949,2.731 -2.355,2.731 -0.985,0 -1.7,-0.527 -2.051,-1.418 l 0.422,-0.527 c 0.199,0.504 0.644,0.761 1.172,0.761 0.867,0 1.394,-0.632 1.394,-1.64 0,-0.961 -0.48,-1.559 -1.277,-1.559 -0.563,0 -1.02,0.293 -1.254,0.785 l -0.481,-0.715 c 0.329,-0.82 0.985,-1.253 1.922,-1.253 M 190.547,3 h 0.891 l 0.468,0.973 v 7.16 h -1.359 V 3 M 200.66,2.895 c 0.633,0 1.313,0.128 1.887,0.375 l -0.305,0.96 c -0.433,-0.175 -0.902,-0.269 -1.359,-0.269 -1.149,0 -1.77,0.644 -1.77,1.887 0,0.996 0.41,1.535 1.16,1.535 0.704,0 1.102,-0.445 1.102,-1.231 h -2.449 V 5.285 h 3.715 c 0.035,0.223 0.058,0.551 0.058,0.809 0,1.453 -0.89,2.367 -2.32,2.367 -1.594,0 -2.66,-1.137 -2.66,-2.801 0,-1.722 1.113,-2.765 2.941,-2.765 M 205.547,3 h 1.406 v 3.68 l -0.293,1.675 h -1.113 V 3 m 1.137,3.047 c 0.293,0.656 0.878,1.043 1.535,1.043 0.222,0 0.48,-0.047 0.679,-0.117 l 0.329,1.289 c -0.235,0.093 -0.516,0.14 -0.797,0.14 -0.703,0 -1.36,-0.375 -1.746,-1.019 V 6.047 m 8.496,-5.133 0.996,0.598 c -0.821,1.254 -1.242,2.812 -1.242,4.617 0,1.605 0.398,3.082 1.23,4.559 l -1.019,0.562 c -1.043,-1.582 -1.571,-3.375 -1.571,-5.191 0,-1.993 0.539,-3.704 1.606,-5.145 m 5.461,1.981 c 0.656,0 1.265,0.14 1.769,0.41 l -0.316,0.972 c -0.375,-0.164 -0.785,-0.257 -1.137,-0.257 -0.996,0 -1.559,0.621 -1.559,1.687 0,1.008 0.504,1.57 1.465,1.57 0.387,0 0.844,-0.093 1.231,-0.246 l 0.293,1.102 c -0.457,0.211 -1.02,0.328 -1.571,0.328 -1.722,0 -2.847,-1.149 -2.847,-2.906 0,-1.676 0.996,-2.66 2.672,-2.66 M 231.293,3 h 1.406 v 3.293 c 0,1.336 -0.738,2.145 -1.945,2.145 -0.762,0 -1.477,-0.34 -1.969,-0.938 l 0.211,-0.855 c 0.352,0.375 0.785,0.574 1.277,0.574 0.68,0 1.02,-0.387 1.02,-1.114 V 3 m -6.996,0 h 1.406 v 4.406 l -0.398,0.949 h -1.008 V 3 m 3.504,0 h 1.394 v 3.293 c 0,1.336 -0.738,2.145 -1.933,2.145 -0.774,0 -1.477,-0.34 -1.969,-0.938 l 0.199,-0.855 c 0.352,0.375 0.797,0.574 1.278,0.574 0.679,0 1.031,-0.387 1.031,-1.114 V 3"
         style="fill:#000000;fill-opacity:1;fill-rule:nonzero;stroke:none"
         id="path348" /></g><g
       id="g350"><path
         d="m 235.148,8.93 h 2.075 v 0.738 h -2.075 V 8.93 m 4.149,-1.442 h 0.891 v 4.864 h -0.528 l -1.851,-0.938 0.339,-0.633 1.43,0.645 -0.281,0.281 V 7.488"
         style="fill:#000000;fill-opacity:1;fill-rule:nonzero;stroke:none"
         id="path352" /></g><g
       id="g354"><path
         d="m 242.109,0.914 c 1.067,1.441 1.606,3.152 1.606,5.145 0,1.816 -0.527,3.609 -1.57,5.191 l -1.02,-0.562 c 0.832,-1.477 1.23,-2.954 1.23,-4.559 0,-1.805 -0.421,-3.363 -1.242,-4.617 z"
         style="fill:#000000;fill-opacity:1;fill-rule:nonzero;stroke:none"
         id="path356" /></g><g
       id="g358"><path
         d="m 30.504,23.25 h 4.851 v 0.797 h -3.914 l 0.118,-0.27 c 2.613,2.461 3.492,3.739 3.492,5.063 0,1.348 -0.914,2.156 -2.321,2.156 -0.914,0 -1.781,-0.328 -2.343,-0.867 l 0.246,-0.633 c 0.586,0.469 1.312,0.703 1.91,0.703 0.984,0 1.582,-0.586 1.582,-1.5 0,-1.113 -0.891,-2.261 -3.621,-4.84 V 23.25 m 8.859,-0.105 c 1.699,0 2.754,1.488 2.754,3.984 0,2.391 -1.019,3.867 -2.683,3.867 -1.723,0 -2.801,-1.5 -2.801,-3.984 0,-2.403 1.043,-3.867 2.73,-3.867 m 0.059,0.773 c -1.149,0 -1.863,1.207 -1.863,3.211 0,1.922 0.703,3.094 1.804,3.094 1.125,0 1.828,-1.219 1.828,-3.211 0,-1.922 -0.668,-3.094 -1.769,-3.094 m 6.691,-0.773 c 1.699,0 2.754,1.488 2.754,3.984 0,2.391 -1.019,3.867 -2.683,3.867 -1.723,0 -2.801,-1.5 -2.801,-3.984 0,-2.403 1.043,-3.867 2.73,-3.867 m 0.059,0.773 c -1.149,0 -1.863,1.207 -1.863,3.211 0,1.922 0.703,3.094 1.804,3.094 1.125,0 1.828,-1.219 1.828,-3.211 0,-1.922 -0.668,-3.094 -1.769,-3.094"
         style="fill:#000000;fill-opacity:1;fill-rule:nonzero;stroke:none"
         id="path360" /></g><g
       id="g362"><path
         d="m 82.336,23.133 c 1.676,0 2.836,0.879 2.836,2.203 0,1.113 -0.856,1.898 -2.156,1.934 l -0.164,-0.129 c 1.136,0.023 1.921,0.797 1.921,1.851 0,1.219 -0.984,1.992 -2.402,1.992 -0.785,0 -1.676,-0.246 -2.32,-0.621 l 0.211,-0.679 c 0.679,0.339 1.394,0.515 1.957,0.515 0.984,0 1.699,-0.504 1.699,-1.289 0,-0.844 -0.82,-1.394 -1.945,-1.394 H 81.387 V 26.73 h 0.785 c 1.277,0 2.086,-0.55 2.086,-1.453 0,-0.855 -0.75,-1.336 -1.887,-1.336 -0.668,0 -1.559,0.164 -2.273,0.516 l -0.2,-0.738 c 0.739,-0.375 1.641,-0.586 2.438,-0.586 m 6.527,0.012 c 1.699,0 2.754,1.488 2.754,3.984 0,2.391 -1.019,3.867 -2.683,3.867 -1.723,0 -2.801,-1.5 -2.801,-3.984 0,-2.403 1.043,-3.867 2.73,-3.867 m 0.059,0.773 c -1.149,0 -1.863,1.207 -1.863,3.211 0,1.922 0.703,3.094 1.804,3.094 1.125,0 1.828,-1.219 1.828,-3.211 0,-1.922 -0.668,-3.094 -1.769,-3.094 m 6.691,-0.773 c 1.699,0 2.754,1.488 2.754,3.984 0,2.391 -1.019,3.867 -2.683,3.867 -1.723,0 -2.801,-1.5 -2.801,-3.984 0,-2.403 1.043,-3.867 2.73,-3.867 m 0.059,0.773 c -1.149,0 -1.863,1.207 -1.863,3.211 0,1.922 0.703,3.094 1.804,3.094 1.125,0 1.828,-1.219 1.828,-3.211 0,-1.922 -0.668,-3.094 -1.769,-3.094"
         style="fill:#000000;fill-opacity:1;fill-rule:nonzero;stroke:none"
         id="path364" /></g><g
       id="g366"><path
         d="m 132.316,23.145 h 0.868 v 7.746 h -0.844 l -3.832,-5.368 v -0.468 h 6.047 v 0.75 h -5.18 l 0.07,-0.188 3.047,4.36 -0.164,0.023 -0.012,-6.855 m 6.047,0 c 1.699,0 2.754,1.488 2.754,3.984 0,2.391 -1.019,3.867 -2.683,3.867 -1.723,0 -2.801,-1.5 -2.801,-3.984 0,-2.403 1.043,-3.867 2.73,-3.867 m 0.059,0.773 c -1.149,0 -1.863,1.207 -1.863,3.211 0,1.922 0.703,3.094 1.804,3.094 1.125,0 1.828,-1.219 1.828,-3.211 0,-1.922 -0.668,-3.094 -1.769,-3.094 m 6.691,-0.773 c 1.699,0 2.754,1.488 2.754,3.984 0,2.391 -1.019,3.867 -2.683,3.867 -1.723,0 -2.801,-1.5 -2.801,-3.984 0,-2.403 1.043,-3.867 2.73,-3.867 m 0.059,0.773 c -1.149,0 -1.863,1.207 -1.863,3.211 0,1.922 0.703,3.094 1.804,3.094 1.125,0 1.828,-1.219 1.828,-3.211 0,-1.922 -0.668,-3.094 -1.769,-3.094"
         style="fill:#000000;fill-opacity:1;fill-rule:nonzero;stroke:none"
         id="path368" /></g><g
       id="g370"><path
         d="m 180.434,23.145 c 1.699,0 2.847,0.96 2.847,2.46 0,1.43 -1.043,2.333 -2.754,2.333 -0.422,0 -0.843,-0.047 -1.23,-0.141 l 0.223,-0.281 0.128,2.589 h 3.27 v 0.786 h -4.102 l -0.187,-3.914 c 0.492,0.117 1.137,0.187 1.617,0.187 1.301,0 2.098,-0.598 2.098,-1.641 0,-0.984 -0.727,-1.582 -1.852,-1.582 -0.656,0 -1.383,0.188 -1.957,0.493 l -0.269,-0.727 c 0.679,-0.363 1.394,-0.562 2.168,-0.562 m 6.679,0 c 1.699,0 2.754,1.488 2.754,3.984 0,2.391 -1.019,3.867 -2.683,3.867 -1.723,0 -2.801,-1.5 -2.801,-3.984 0,-2.403 1.043,-3.867 2.73,-3.867 m 0.059,0.773 c -1.149,0 -1.863,1.207 -1.863,3.211 0,1.922 0.703,3.094 1.804,3.094 1.125,0 1.828,-1.219 1.828,-3.211 0,-1.922 -0.668,-3.094 -1.769,-3.094 m 6.691,-0.773 c 1.699,0 2.754,1.488 2.754,3.984 0,2.391 -1.019,3.867 -2.683,3.867 -1.723,0 -2.801,-1.5 -2.801,-3.984 0,-2.403 1.043,-3.867 2.73,-3.867 m 0.059,0.773 c -1.149,0 -1.863,1.207 -1.863,3.211 0,1.922 0.703,3.094 1.804,3.094 1.125,0 1.828,-1.219 1.828,-3.211 0,-1.922 -0.668,-3.094 -1.769,-3.094"
         style="fill:#000000;fill-opacity:1;fill-rule:nonzero;stroke:none"
         id="path372" /></g><g
       id="g374"><path
         d="m 230.59,23.145 c 1.476,0 2.519,1.031 2.519,2.519 0,1.371 -0.902,2.285 -2.226,2.285 -1.149,0 -2.051,-0.668 -2.309,-1.734 l 0.188,-0.469 c 0.234,0.914 0.949,1.442 1.863,1.442 0.996,0 1.617,-0.633 1.617,-1.641 0,-0.961 -0.586,-1.617 -1.547,-1.617 -1.254,0 -1.922,1.054 -1.922,3.047 0,2.144 0.774,3.222 2.391,3.222 0.539,0 1.09,-0.129 1.582,-0.375 l 0.258,0.715 c -0.598,0.316 -1.172,0.457 -1.793,0.457 -2.109,0 -3.328,-1.547 -3.328,-4.148 0,-2.344 0.984,-3.703 2.707,-3.703 m 6.773,0 c 1.699,0 2.754,1.488 2.754,3.984 0,2.391 -1.019,3.867 -2.683,3.867 -1.723,0 -2.801,-1.5 -2.801,-3.984 0,-2.403 1.043,-3.867 2.73,-3.867 m 0.059,0.773 c -1.149,0 -1.863,1.207 -1.863,3.211 0,1.922 0.703,3.094 1.804,3.094 1.125,0 1.828,-1.219 1.828,-3.211 0,-1.922 -0.668,-3.094 -1.769,-3.094 m 6.691,-0.773 c 1.699,0 2.754,1.488 2.754,3.984 0,2.391 -1.019,3.867 -2.683,3.867 -1.723,0 -2.801,-1.5 -2.801,-3.984 0,-2.403 1.043,-3.867 2.73,-3.867 m 0.059,0.773 c -1.149,0 -1.863,1.207 -1.863,3.211 0,1.922 0.703,3.094 1.804,3.094 1.125,0 1.828,-1.219 1.828,-3.211 0,-1.922 -0.668,-3.094 -1.769,-3.094"
         style="fill:#000000;fill-opacity:1;fill-rule:nonzero;stroke:none"
         id="path376" /></g><g
       id="g378"><path
         d="m 277.312,23.25 h 0.938 l 3.164,7.195 v 0.446 h -5.121 v -0.797 h 4.383 l -0.188,0.34 -3.176,-7.184 m 8.801,-0.105 c 1.699,0 2.754,1.488 2.754,3.984 0,2.391 -1.019,3.867 -2.683,3.867 -1.723,0 -2.801,-1.5 -2.801,-3.984 0,-2.403 1.043,-3.867 2.73,-3.867 m 0.059,0.773 c -1.149,0 -1.863,1.207 -1.863,3.211 0,1.922 0.703,3.094 1.804,3.094 1.125,0 1.828,-1.219 1.828,-3.211 0,-1.922 -0.668,-3.094 -1.769,-3.094 m 6.691,-0.773 c 1.699,0 2.754,1.488 2.754,3.984 0,2.391 -1.019,3.867 -2.683,3.867 -1.723,0 -2.801,-1.5 -2.801,-3.984 0,-2.403 1.043,-3.867 2.73,-3.867 m 0.059,0.773 c -1.149,0 -1.863,1.207 -1.863,3.211 0,1.922 0.703,3.094 1.804,3.094 1.125,0 1.828,-1.219 1.828,-3.211 0,-1.922 -0.668,-3.094 -1.769,-3.094"
         style="fill:#000000;fill-opacity:1;fill-rule:nonzero;stroke:none"
         id="path380" /></g><g
       id="g382"><path
         d="m 328.699,23.145 c 1.606,0 2.672,0.82 2.672,2.027 0,2.449 -4.148,1.98 -4.148,3.914 0,0.691 0.539,1.148 1.382,1.148 0.903,0 1.547,-0.504 1.547,-1.23 0,-0.703 -0.609,-1.301 -1.511,-1.488 l 0.679,-0.352 c 1.055,0.316 1.711,1.102 1.711,1.992 0,1.102 -0.961,1.84 -2.32,1.84 -1.418,0 -2.379,-0.808 -2.379,-1.992 0,-2.508 4.102,-1.922 4.102,-3.867 0,-0.739 -0.586,-1.207 -1.582,-1.207 -1.09,0 -1.864,0.539 -1.864,1.359 0,0.785 0.668,1.418 1.7,1.559 l -0.586,0.375 c -1.231,-0.164 -2.051,-1.02 -2.051,-2.063 0,-1.207 1.078,-2.015 2.648,-2.015 m 6.914,0 c 1.699,0 2.754,1.488 2.754,3.984 0,2.391 -1.019,3.867 -2.683,3.867 -1.723,0 -2.801,-1.5 -2.801,-3.984 0,-2.403 1.043,-3.867 2.73,-3.867 m 0.059,0.773 c -1.149,0 -1.863,1.207 -1.863,3.211 0,1.922 0.703,3.094 1.804,3.094 1.125,0 1.828,-1.219 1.828,-3.211 0,-1.922 -0.668,-3.094 -1.769,-3.094 m 6.691,-0.773 c 1.699,0 2.754,1.488 2.754,3.984 0,2.391 -1.019,3.867 -2.683,3.867 -1.723,0 -2.801,-1.5 -2.801,-3.984 0,-2.403 1.043,-3.867 2.73,-3.867 m 0.059,0.773 c -1.149,0 -1.863,1.207 -1.863,3.211 0,1.922 0.703,3.094 1.804,3.094 1.125,0 1.828,-1.219 1.828,-3.211 0,-1.922 -0.668,-3.094 -1.769,-3.094"
         style="fill:#000000;fill-opacity:1;fill-rule:nonzero;stroke:none"
         id="path384" /></g><g
       id="g386"><path
         d="m 89,39 v 0.75"
         style="fill:none;stroke:#000000;stroke-width:1;stroke-linecap:square;stroke-linejoin:bevel;stroke-miterlimit:10;stroke-dasharray:none;stroke-opacity:1"
         id="path388" /></g><g
       id="g390"><path
         d="m 138.25,39 v 0.75"
         style="fill:none;stroke:#000000;stroke-width:1;stroke-linecap:square;stroke-linejoin:bevel;stroke-miterlimit:10;stroke-dasharray:none;stroke-opacity:1"
         id="path392" /></g><g
       id="g394"><path
         d="m 187.5,39 v 0.75"
         style="fill:none;stroke:#000000;stroke-width:1;stroke-linecap:square;stroke-linejoin:bevel;stroke-miterlimit:10;stroke-dasharray:none;stroke-opacity:1"
         id="path396" /></g><g
       id="g398"><path
         d="m 236.75,39 v 0.75"
         style="fill:none;stroke:#000000;stroke-width:1;stroke-linecap:square;stroke-linejoin:bevel;stroke-miterlimit:10;stroke-dasharray:none;stroke-opacity:1"
         id="path400" /></g><g
       id="g402"><path
         d="m 286,39 v 0.75"
         style="fill:none;stroke:#000000;stroke-width:1;stroke-linecap:square;stroke-linejoin:bevel;stroke-miterlimit:10;stroke-dasharray:none;stroke-opacity:1"
         id="path404" /></g><g
       id="g406"><path
         d="m 39.75,39 h 295.5"
         style="fill:none;stroke:#000000;stroke-width:1;stroke-linecap:square;stroke-linejoin:bevel;stroke-miterlimit:10;stroke-dasharray:none;stroke-opacity:1"
         id="path408" /></g><g
       id="g410"><path
         d="m 89,39 v 6.75"
         style="fill:none;stroke:#000000;stroke-width:1;stroke-linecap:square;stroke-linejoin:bevel;stroke-miterlimit:10;stroke-dasharray:none;stroke-opacity:1"
         id="path412" /></g><g
       id="g414"><path
         d="m 138.25,39 v 6.75"
         style="fill:none;stroke:#000000;stroke-width:1;stroke-linecap:square;stroke-linejoin:bevel;stroke-miterlimit:10;stroke-dasharray:none;stroke-opacity:1"
         id="path416" /></g><g
       id="g418"><path
         d="m 187.5,39 v 6.75"
         style="fill:none;stroke:#000000;stroke-width:1;stroke-linecap:square;stroke-linejoin:bevel;stroke-miterlimit:10;stroke-dasharray:none;stroke-opacity:1"
         id="path420" /></g><g
       id="g422"><path
         d="m 236.75,39 v 6.75"
         style="fill:none;stroke:#000000;stroke-width:1;stroke-linecap:square;stroke-linejoin:bevel;stroke-miterlimit:10;stroke-dasharray:none;stroke-opacity:1"
         id="path424" /></g><g
       id="g426"><path
         d="m 286,39 v 6.75"
         style="fill:none;stroke:#000000;stroke-width:1;stroke-linecap:square;stroke-linejoin:bevel;stroke-miterlimit:10;stroke-dasharray:none;stroke-opacity:1"
         id="path428" /></g><g
       id="g430"><path
         d="m 49.6,39 v 3.75"
         style="fill:none;stroke:#000000;stroke-width:1;stroke-linecap:square;stroke-linejoin:bevel;stroke-miterlimit:10;stroke-dasharray:none;stroke-opacity:1"
         id="path432" /></g><g
       id="g434"><path
         d="m 59.45,39 v 3.75"
         style="fill:none;stroke:#000000;stroke-width:1;stroke-linecap:square;stroke-linejoin:bevel;stroke-miterlimit:10;stroke-dasharray:none;stroke-opacity:1"
         id="path436" /></g><g
       id="g438"><path
         d="m 69.3,39 v 3.75"
         style="fill:none;stroke:#000000;stroke-width:1;stroke-linecap:square;stroke-linejoin:bevel;stroke-miterlimit:10;stroke-dasharray:none;stroke-opacity:1"
         id="path440" /></g><g
       id="g442"><path
         d="m 79.15,39 v 3.75"
         style="fill:none;stroke:#000000;stroke-width:1;stroke-linecap:square;stroke-linejoin:bevel;stroke-miterlimit:10;stroke-dasharray:none;stroke-opacity:1"
         id="path444" /></g><g
       id="g446"><path
         d="m 98.85,39 v 3.75"
         style="fill:none;stroke:#000000;stroke-width:1;stroke-linecap:square;stroke-linejoin:bevel;stroke-miterlimit:10;stroke-dasharray:none;stroke-opacity:1"
         id="path448" /></g><g
       id="g450"><path
         d="m 108.7,39 v 3.75"
         style="fill:none;stroke:#000000;stroke-width:1;stroke-linecap:square;stroke-linejoin:bevel;stroke-miterlimit:10;stroke-dasharray:none;stroke-opacity:1"
         id="path452" /></g><g
       id="g454"><path
         d="m 118.55,39 v 3.75"
         style="fill:none;stroke:#000000;stroke-width:1;stroke-linecap:square;stroke-linejoin:bevel;stroke-miterlimit:10;stroke-dasharray:none;stroke-opacity:1"
         id="path456" /></g><g
       id="g458"><path
         d="m 128.4,39 v 3.75"
         style="fill:none;stroke:#000000;stroke-width:1;stroke-linecap:square;stroke-linejoin:bevel;stroke-miterlimit:10;stroke-dasharray:none;stroke-opacity:1"
         id="path460" /></g><g
       id="g462"><path
         d="m 148.1,39 v 3.75"
         style="fill:none;stroke:#000000;stroke-width:1;stroke-linecap:square;stroke-linejoin:bevel;stroke-miterlimit:10;stroke-dasharray:none;stroke-opacity:1"
         id="path464" /></g><g
       id="g466"><path
         d="m 157.95,39 v 3.75"
         style="fill:none;stroke:#000000;stroke-width:1;stroke-linecap:square;stroke-linejoin:bevel;stroke-miterlimit:10;stroke-dasharray:none;stroke-opacity:1"
         id="path468" /></g><g
       id="g470"><path
         d="m 167.8,39 v 3.75"
         style="fill:none;stroke:#000000;stroke-width:1;stroke-linecap:square;stroke-linejoin:bevel;stroke-miterlimit:10;stroke-dasharray:none;stroke-opacity:1"
         id="path472" /></g><g
       id="g474"><path
         d="m 177.65,39 v 3.75"
         style="fill:none;stroke:#000000;stroke-width:1;stroke-linecap:square;stroke-linejoin:bevel;stroke-miterlimit:10;stroke-dasharray:none;stroke-opacity:1"
         id="path476" /></g><g
       id="g478"><path
         d="m 197.35,39 v 3.75"
         style="fill:none;stroke:#000000;stroke-width:1;stroke-linecap:square;stroke-linejoin:bevel;stroke-miterlimit:10;stroke-dasharray:none;stroke-opacity:1"
         id="path480" /></g><g
       id="g482"><path
         d="m 207.2,39 v 3.75"
         style="fill:none;stroke:#000000;stroke-width:1;stroke-linecap:square;stroke-linejoin:bevel;stroke-miterlimit:10;stroke-dasharray:none;stroke-opacity:1"
         id="path484" /></g><g
       id="g486"><path
         d="m 217.05,39 v 3.75"
         style="fill:none;stroke:#000000;stroke-width:1;stroke-linecap:square;stroke-linejoin:bevel;stroke-miterlimit:10;stroke-dasharray:none;stroke-opacity:1"
         id="path488" /></g><g
       id="g490"><path
         d="m 226.9,39 v 3.75"
         style="fill:none;stroke:#000000;stroke-width:1;stroke-linecap:square;stroke-linejoin:bevel;stroke-miterlimit:10;stroke-dasharray:none;stroke-opacity:1"
         id="path492" /></g><g
       id="g494"><path
         d="m 246.6,39 v 3.75"
         style="fill:none;stroke:#000000;stroke-width:1;stroke-linecap:square;stroke-linejoin:bevel;stroke-miterlimit:10;stroke-dasharray:none;stroke-opacity:1"
         id="path496" /></g><g
       id="g498"><path
         d="m 256.45,39 v 3.75"
         style="fill:none;stroke:#000000;stroke-width:1;stroke-linecap:square;stroke-linejoin:bevel;stroke-miterlimit:10;stroke-dasharray:none;stroke-opacity:1"
         id="path500" /></g><g
       id="g502"><path
         d="m 266.3,39 v 3.75"
         style="fill:none;stroke:#000000;stroke-width:1;stroke-linecap:square;stroke-linejoin:bevel;stroke-miterlimit:10;stroke-dasharray:none;stroke-opacity:1"
         id="path504" /></g><g
       id="g506"><path
         d="m 276.15,39 v 3.75"
         style="fill:none;stroke:#000000;stroke-width:1;stroke-linecap:square;stroke-linejoin:bevel;stroke-miterlimit:10;stroke-dasharray:none;stroke-opacity:1"
         id="path508" /></g><g
       id="g510"><path
         d="m 295.85,39 v 3.75"
         style="fill:none;stroke:#000000;stroke-width:1;stroke-linecap:square;stroke-linejoin:bevel;stroke-miterlimit:10;stroke-dasharray:none;stroke-opacity:1"
         id="path512" /></g><g
       id="g514"><path
         d="m 305.7,39 v 3.75"
         style="fill:none;stroke:#000000;stroke-width:1;stroke-linecap:square;stroke-linejoin:bevel;stroke-miterlimit:10;stroke-dasharray:none;stroke-opacity:1"
         id="path516" /></g><g
       id="g518"><path
         d="m 315.55,39 v 3.75"
         style="fill:none;stroke:#000000;stroke-width:1;stroke-linecap:square;stroke-linejoin:bevel;stroke-miterlimit:10;stroke-dasharray:none;stroke-opacity:1"
         id="path520" /></g><g
       id="g522"><path
         d="m 325.4,39 v 3.75"
         style="fill:none;stroke:#000000;stroke-width:1;stroke-linecap:square;stroke-linejoin:bevel;stroke-miterlimit:10;stroke-dasharray:none;stroke-opacity:1"
         id="path524" /></g><g
       id="g526"><path
         d="M 89,261.75 V 261"
         style="fill:none;stroke:#000000;stroke-width:1;stroke-linecap:square;stroke-linejoin:bevel;stroke-miterlimit:10;stroke-dasharray:none;stroke-opacity:1"
         id="path528" /></g><g
       id="g530"><path
         d="M 138.25,261.75 V 261"
         style="fill:none;stroke:#000000;stroke-width:1;stroke-linecap:square;stroke-linejoin:bevel;stroke-miterlimit:10;stroke-dasharray:none;stroke-opacity:1"
         id="path532" /></g><g
       id="g534"><path
         d="M 187.5,261.75 V 261"
         style="fill:none;stroke:#000000;stroke-width:1;stroke-linecap:square;stroke-linejoin:bevel;stroke-miterlimit:10;stroke-dasharray:none;stroke-opacity:1"
         id="path536" /></g><g
       id="g538"><path
         d="M 236.75,261.75 V 261"
         style="fill:none;stroke:#000000;stroke-width:1;stroke-linecap:square;stroke-linejoin:bevel;stroke-miterlimit:10;stroke-dasharray:none;stroke-opacity:1"
         id="path540" /></g><g
       id="g542"><path
         d="M 286,261.75 V 261"
         style="fill:none;stroke:#000000;stroke-width:1;stroke-linecap:square;stroke-linejoin:bevel;stroke-miterlimit:10;stroke-dasharray:none;stroke-opacity:1"
         id="path544" /></g><g
       id="g546"><path
         d="m 39.75,261.75 h 295.5"
         style="fill:none;stroke:#000000;stroke-width:1;stroke-linecap:square;stroke-linejoin:bevel;stroke-miterlimit:10;stroke-dasharray:none;stroke-opacity:1"
         id="path548" /></g><g
       id="g550"><path
         d="M 89,261.75 V 255"
         style="fill:none;stroke:#000000;stroke-width:1;stroke-linecap:square;stroke-linejoin:bevel;stroke-miterlimit:10;stroke-dasharray:none;stroke-opacity:1"
         id="path552" /></g><g
       id="g554"><path
         d="M 138.25,261.75 V 255"
         style="fill:none;stroke:#000000;stroke-width:1;stroke-linecap:square;stroke-linejoin:bevel;stroke-miterlimit:10;stroke-dasharray:none;stroke-opacity:1"
         id="path556" /></g><g
       id="g558"><path
         d="M 187.5,261.75 V 255"
         style="fill:none;stroke:#000000;stroke-width:1;stroke-linecap:square;stroke-linejoin:bevel;stroke-miterlimit:10;stroke-dasharray:none;stroke-opacity:1"
         id="path560" /></g><g
       id="g562"><path
         d="M 236.75,261.75 V 255"
         style="fill:none;stroke:#000000;stroke-width:1;stroke-linecap:square;stroke-linejoin:bevel;stroke-miterlimit:10;stroke-dasharray:none;stroke-opacity:1"
         id="path564" /></g><g
       id="g566"><path
         d="M 286,261.75 V 255"
         style="fill:none;stroke:#000000;stroke-width:1;stroke-linecap:square;stroke-linejoin:bevel;stroke-miterlimit:10;stroke-dasharray:none;stroke-opacity:1"
         id="path568" /></g><g
       id="g570"><path
         d="M 49.6,261.75 V 258"
         style="fill:none;stroke:#000000;stroke-width:1;stroke-linecap:square;stroke-linejoin:bevel;stroke-miterlimit:10;stroke-dasharray:none;stroke-opacity:1"
         id="path572" /></g><g
       id="g574"><path
         d="M 59.45,261.75 V 258"
         style="fill:none;stroke:#000000;stroke-width:1;stroke-linecap:square;stroke-linejoin:bevel;stroke-miterlimit:10;stroke-dasharray:none;stroke-opacity:1"
         id="path576" /></g><g
       id="g578"><path
         d="M 69.3,261.75 V 258"
         style="fill:none;stroke:#000000;stroke-width:1;stroke-linecap:square;stroke-linejoin:bevel;stroke-miterlimit:10;stroke-dasharray:none;stroke-opacity:1"
         id="path580" /></g><g
       id="g582"><path
         d="M 79.15,261.75 V 258"
         style="fill:none;stroke:#000000;stroke-width:1;stroke-linecap:square;stroke-linejoin:bevel;stroke-miterlimit:10;stroke-dasharray:none;stroke-opacity:1"
         id="path584" /></g><g
       id="g586"><path
         d="M 98.85,261.75 V 258"
         style="fill:none;stroke:#000000;stroke-width:1;stroke-linecap:square;stroke-linejoin:bevel;stroke-miterlimit:10;stroke-dasharray:none;stroke-opacity:1"
         id="path588" /></g><g
       id="g590"><path
         d="M 108.7,261.75 V 258"
         style="fill:none;stroke:#000000;stroke-width:1;stroke-linecap:square;stroke-linejoin:bevel;stroke-miterlimit:10;stroke-dasharray:none;stroke-opacity:1"
         id="path592" /></g><g
       id="g594"><path
         d="M 118.55,261.75 V 258"
         style="fill:none;stroke:#000000;stroke-width:1;stroke-linecap:square;stroke-linejoin:bevel;stroke-miterlimit:10;stroke-dasharray:none;stroke-opacity:1"
         id="path596" /></g><g
       id="g598"><path
         d="M 128.4,261.75 V 258"
         style="fill:none;stroke:#000000;stroke-width:1;stroke-linecap:square;stroke-linejoin:bevel;stroke-miterlimit:10;stroke-dasharray:none;stroke-opacity:1"
         id="path600" /></g><g
       id="g602"><path
         d="M 148.1,261.75 V 258"
         style="fill:none;stroke:#000000;stroke-width:1;stroke-linecap:square;stroke-linejoin:bevel;stroke-miterlimit:10;stroke-dasharray:none;stroke-opacity:1"
         id="path604" /></g><g
       id="g606"><path
         d="M 157.95,261.75 V 258"
         style="fill:none;stroke:#000000;stroke-width:1;stroke-linecap:square;stroke-linejoin:bevel;stroke-miterlimit:10;stroke-dasharray:none;stroke-opacity:1"
         id="path608" /></g><g
       id="g610"><path
         d="M 167.8,261.75 V 258"
         style="fill:none;stroke:#000000;stroke-width:1;stroke-linecap:square;stroke-linejoin:bevel;stroke-miterlimit:10;stroke-dasharray:none;stroke-opacity:1"
         id="path612" /></g><g
       id="g614"><path
         d="M 177.65,261.75 V 258"
         style="fill:none;stroke:#000000;stroke-width:1;stroke-linecap:square;stroke-linejoin:bevel;stroke-miterlimit:10;stroke-dasharray:none;stroke-opacity:1"
         id="path616" /></g><g
       id="g618"><path
         d="M 197.35,261.75 V 258"
         style="fill:none;stroke:#000000;stroke-width:1;stroke-linecap:square;stroke-linejoin:bevel;stroke-miterlimit:10;stroke-dasharray:none;stroke-opacity:1"
         id="path620" /></g><g
       id="g622"><path
         d="M 207.2,261.75 V 258"
         style="fill:none;stroke:#000000;stroke-width:1;stroke-linecap:square;stroke-linejoin:bevel;stroke-miterlimit:10;stroke-dasharray:none;stroke-opacity:1"
         id="path624" /></g><g
       id="g626"><path
         d="M 217.05,261.75 V 258"
         style="fill:none;stroke:#000000;stroke-width:1;stroke-linecap:square;stroke-linejoin:bevel;stroke-miterlimit:10;stroke-dasharray:none;stroke-opacity:1"
         id="path628" /></g><g
       id="g630"><path
         d="M 226.9,261.75 V 258"
         style="fill:none;stroke:#000000;stroke-width:1;stroke-linecap:square;stroke-linejoin:bevel;stroke-miterlimit:10;stroke-dasharray:none;stroke-opacity:1"
         id="path632" /></g><g
       id="g634"><path
         d="M 246.6,261.75 V 258"
         style="fill:none;stroke:#000000;stroke-width:1;stroke-linecap:square;stroke-linejoin:bevel;stroke-miterlimit:10;stroke-dasharray:none;stroke-opacity:1"
         id="path636" /></g><g
       id="g638"><path
         d="M 256.45,261.75 V 258"
         style="fill:none;stroke:#000000;stroke-width:1;stroke-linecap:square;stroke-linejoin:bevel;stroke-miterlimit:10;stroke-dasharray:none;stroke-opacity:1"
         id="path640" /></g><g
       id="g642"><path
         d="M 266.3,261.75 V 258"
         style="fill:none;stroke:#000000;stroke-width:1;stroke-linecap:square;stroke-linejoin:bevel;stroke-miterlimit:10;stroke-dasharray:none;stroke-opacity:1"
         id="path644" /></g><g
       id="g646"><path
         d="M 276.15,261.75 V 258"
         style="fill:none;stroke:#000000;stroke-width:1;stroke-linecap:square;stroke-linejoin:bevel;stroke-miterlimit:10;stroke-dasharray:none;stroke-opacity:1"
         id="path648" /></g><g
       id="g650"><path
         d="M 295.85,261.75 V 258"
         style="fill:none;stroke:#000000;stroke-width:1;stroke-linecap:square;stroke-linejoin:bevel;stroke-miterlimit:10;stroke-dasharray:none;stroke-opacity:1"
         id="path652" /></g><g
       id="g654"><path
         d="M 305.7,261.75 V 258"
         style="fill:none;stroke:#000000;stroke-width:1;stroke-linecap:square;stroke-linejoin:bevel;stroke-miterlimit:10;stroke-dasharray:none;stroke-opacity:1"
         id="path656" /></g><g
       id="g658"><path
         d="M 315.55,261.75 V 258"
         style="fill:none;stroke:#000000;stroke-width:1;stroke-linecap:square;stroke-linejoin:bevel;stroke-miterlimit:10;stroke-dasharray:none;stroke-opacity:1"
         id="path660" /></g><g
       id="g662"><path
         d="M 325.4,261.75 V 258"
         style="fill:none;stroke:#000000;stroke-width:1;stroke-linecap:square;stroke-linejoin:bevel;stroke-miterlimit:10;stroke-dasharray:none;stroke-opacity:1"
         id="path664" /></g><g
       id="g666"><path
         d="M 49.5,254.25 H 135 V 223.5 H 49.5 Z"
         style="fill:#ffffff;fill-opacity:0.8;fill-rule:nonzero;stroke:none"
         id="path668" /></g><g
       id="g670"><path
         d="M 49.5,254.25 H 135 V 223.5 H 49.5 Z"
         style="fill:none;stroke:#000000;stroke-width:1;stroke-linecap:butt;stroke-linejoin:miter;stroke-miterlimit:10;stroke-dasharray:none;stroke-opacity:1"
         id="path672" /></g><g
       id="g674"><path
         d="m 57.75,244.5 h 24"
         style="fill:none;stroke:#000000;stroke-width:2;stroke-linecap:butt;stroke-linejoin:miter;stroke-miterlimit:10;stroke-dasharray:none;stroke-opacity:1"
         id="path676" /></g><g
       id="g678"><path
         d="m 86.332,240.75 h 0.738 v 5.59 h 1.231 c 0.89,0 1.418,-0.457 1.418,-1.231 0,-0.761 -0.469,-1.207 -1.324,-1.207 h -1.594 v -0.621 h 1.5 c 1.301,0 2.179,0.821 2.179,1.969 0,1.09 -0.808,1.746 -2.085,1.746 h -2.063 v -6.246 m 3.621,0 h 0.891 l -1.723,2.953 h -0.855 l 1.687,-2.953 m 4.242,-0.094 c 0.493,0 1.043,0.117 1.43,0.328 l -0.164,0.516 c -0.34,-0.152 -0.762,-0.258 -1.137,-0.258 -1.019,0 -1.617,0.68 -1.617,1.805 0,0.973 0.434,1.512 1.231,1.512 0.738,0 1.171,-0.469 1.171,-1.301 h -2.531 v -0.539 h 3.164 c 0.024,0.14 0.035,0.445 0.035,0.621 0,1.09 -0.715,1.84 -1.781,1.84 -1.207,0 -2.027,-0.95 -2.027,-2.285 0,-1.383 0.855,-2.239 2.226,-2.239 m 5.977,0.094 h 0.504 v 2.812 c 0,1.043 -0.61,1.618 -1.735,1.618 -0.574,0 -1.183,-0.153 -1.652,-0.422 l 0.176,-0.528 c 0.457,0.2 0.902,0.293 1.324,0.293 0.773,0 1.172,-0.316 1.172,-0.961 v -2.308 l 0.211,-0.504 m -1.535,-0.094 c 1.031,0 1.816,0.656 1.945,1.617 l -0.258,0.118 c -0.14,-0.657 -0.726,-1.102 -1.476,-1.102 -0.575,0 -0.961,0.293 -0.961,0.715 0,0.551 0.644,0.773 2.179,0.773 v 0.504 c -2.015,0 -2.894,-0.41 -2.894,-1.347 0,-0.774 0.574,-1.278 1.465,-1.278 m 5.086,0.035 c 0.234,0 0.515,0.059 0.691,0.153 l -0.164,0.504 c -0.105,-0.047 -0.211,-0.071 -0.316,-0.071 -0.305,0 -0.469,0.2 -0.469,0.539 v 5.579 h -0.715 v -5.672 c 0,-0.621 0.387,-1.032 0.973,-1.032"
         style="fill:#000000;fill-opacity:1;fill-rule:nonzero;stroke:none"
         id="path680" /></g><g
       id="g682"><path
         d="m 57.75,233.25 h 24"
         style="fill:none;stroke:#ff0000;stroke-width:2;stroke-linecap:butt;stroke-linejoin:miter;stroke-miterlimit:10;stroke-dasharray:none;stroke-opacity:1"
         id="path684" /></g><g
       id="g686"><path
         d="m 86.332,229.5 h 0.738 v 6.246 H 86.332 V 229.5 m 7.992,0 h 0.727 v 2.848 c 0,0.961 -0.633,1.582 -1.594,1.582 -0.621,0 -1.242,-0.27 -1.687,-0.75 l 0.175,-0.457 c 0.352,0.363 0.821,0.574 1.313,0.574 0.691,0 1.066,-0.399 1.066,-1.102 V 229.5 m -5.824,0 h 0.715 v 3.832 l -0.211,0.504 H 88.5 V 229.5 m 2.906,0 h 0.727 v 2.848 c 0,0.961 -0.633,1.582 -1.582,1.582 -0.633,0 -1.242,-0.27 -1.699,-0.75 l 0.175,-0.457 c 0.352,0.363 0.821,0.574 1.313,0.574 0.691,0 1.066,-0.399 1.066,-1.102 V 229.5 m 8.016,0 h 0.504 v 2.812 c 0,1.043 -0.61,1.618 -1.735,1.618 -0.574,0 -1.183,-0.153 -1.652,-0.422 l 0.176,-0.528 c 0.457,0.2 0.902,0.293 1.324,0.293 0.773,0 1.172,-0.316 1.172,-0.961 v -2.308 l 0.211,-0.504 m -1.535,-0.094 c 1.031,0 1.816,0.656 1.945,1.617 l -0.258,0.118 c -0.14,-0.657 -0.726,-1.102 -1.476,-1.102 -0.575,0 -0.961,0.293 -0.961,0.715 0,0.551 0.644,0.773 2.179,0.773 v 0.504 c -2.015,0 -2.894,-0.41 -2.894,-1.347 0,-0.774 0.574,-1.278 1.465,-1.278 m 5.672,-1.945 c 1.253,0 2.074,0.855 2.074,2.168 v 4.207 h -0.504 l -0.223,-0.586 v -3.727 c 0,-0.972 -0.422,-1.441 -1.289,-1.441 -0.387,0 -0.855,0.094 -1.265,0.27 l -0.153,-0.551 c 0.457,-0.223 0.914,-0.34 1.36,-0.34 m 0.093,1.945 c 0.727,0 1.289,0.364 1.629,0.961 l -0.258,0.317 c -0.246,-0.399 -0.656,-0.645 -1.16,-0.645 -0.867,0 -1.429,0.68 -1.429,1.676 0,0.949 0.504,1.582 1.347,1.582 0.551,0 0.973,-0.258 1.231,-0.68 l 0.328,0.387 c -0.317,0.586 -0.867,0.926 -1.594,0.926 -1.207,0 -2.027,-0.914 -2.027,-2.285 0,-1.348 0.773,-2.239 1.933,-2.239 m 3.598,0.094 h 0.715 v 4.336 H 107.25 V 229.5 m 0.363,5.355 c 0.328,0 0.516,0.188 0.516,0.504 0,0.329 -0.188,0.516 -0.516,0.516 -0.316,0 -0.515,-0.187 -0.515,-0.516 0,-0.316 0.199,-0.504 0.515,-0.504 m 4.84,-5.355 h 0.727 v 2.848 c 0,0.961 -0.645,1.582 -1.618,1.582 -0.621,0 -1.242,-0.27 -1.71,-0.75 l 0.175,-0.457 c 0.364,0.363 0.832,0.574 1.336,0.574 0.703,0 1.09,-0.399 1.09,-1.102 V 229.5 m -2.953,0 h 0.715 v 3.832 l -0.211,0.504 H 109.5 V 229.5 m 7.922,0 h 0.504 v 2.812 c 0,1.043 -0.61,1.618 -1.735,1.618 -0.574,0 -1.183,-0.153 -1.652,-0.422 l 0.176,-0.528 c 0.457,0.2 0.902,0.293 1.324,0.293 0.773,0 1.172,-0.316 1.172,-0.961 v -2.308 l 0.211,-0.504 m -1.535,-0.094 c 1.031,0 1.816,0.656 1.945,1.617 l -0.258,0.118 c -0.14,-0.657 -0.726,-1.102 -1.476,-1.102 -0.575,0 -0.961,0.293 -0.961,0.715 0,0.551 0.644,0.773 2.179,0.773 v 0.504 c -2.015,0 -2.894,-0.41 -2.894,-1.347 0,-0.774 0.574,-1.278 1.465,-1.278 M 120,229.5 h 0.715 v 3.328 l -0.129,1.008 H 120 V 229.5 m 0.551,2.812 c 0.258,0.551 0.773,0.879 1.371,0.879 0.176,0 0.328,-0.023 0.48,-0.07 l 0.176,0.656 c -0.187,0.071 -0.375,0.106 -0.574,0.106 -0.586,0 -1.125,-0.317 -1.453,-0.844 v -0.727 m 3.48,-4.769 h 0.774 l 0.715,1.957 1.687,4.336 h -0.715 l -1.406,-3.902 h 0.187 l -1.359,3.902 h -0.809 l 1.711,-4.336 -0.785,-1.957"
         style="fill:#000000;fill-opacity:1;fill-rule:nonzero;stroke:none"
         id="path688" /></g></g></svg>
