<?xml version="1.0" encoding="UTF-8" standalone="no"?>
<!-- Created with Inkscape (http://www.inkscape.org/) -->

<svg
   version="1.1"
   id="svg2"
   xml:space="preserve"
   width="480"
   height="368"
   viewBox="0 0 480 368"
   xmlns="http://www.w3.org/2000/svg"
   xmlns:svg="http://www.w3.org/2000/svg"><defs
     id="defs6"><clipPath
       clipPathUnits="userSpaceOnUse"
       id="clipPath20"><path
         d="M 50.25,260.25 H 343.5 V 39 H 50.25 Z"
         clip-rule="evenodd"
         id="path18" /></clipPath><clipPath
       clipPathUnits="userSpaceOnUse"
       id="clipPath30"><path
         d="M 50.25,260.25 H 343.5 V 39 H 50.25 Z"
         clip-rule="evenodd"
         id="path28" /></clipPath></defs><g
     id="g8"
     transform="matrix(1.3333333,0,0,-1.3333333,0,368)"><g
       id="g10"><path
         d="M 0,276 H 360 V 0 H 0 Z"
         style="fill:#ffffff;fill-opacity:1;fill-rule:nonzero;stroke:none"
         id="path12" /></g><g
       id="g14"><g
         id="g16"
         clip-path="url(#clipPath20)"><path
           d="m 50.25,133.048 0.391,0.022 0.782,0.024 0.782,0.025 0.196,0.007 0.488,0.016 0.782,0.026 0.782,0.026 0.685,0.024 0.781,0.028 0.782,0.028 0.685,0.025 0.782,0.03 0.782,0.03 0.684,0.026 0.782,0.031 0.782,0.032 0.684,0.029 0.782,0.033 0.782,0.033 0.684,0.031 0.782,0.035 0.782,0.036 0.685,0.032 0.782,0.038 0.782,0.038 0.684,0.034 0.782,0.04 0.782,0.041 0.195,0.011 0.489,0.026 0.782,0.043 0.782,0.044 0.782,0.045 0.685,0.04 0.782,0.047 0.781,0.048 0.685,0.043 0.782,0.051 0.782,0.052 0.684,0.046 0.782,0.055 0.782,0.055 0.684,0.05 0.782,0.059 0.587,0.045 0.195,0.015 0.684,0.054 0.782,0.064 0.782,0.065 0.685,0.058 0.782,0.069 0.782,0.071 0.684,0.063 0.782,0.075 0.782,0.077 0.684,0.069 0.685,0.072 0.097,0.01 0.782,0.084 0.684,0.076 0.782,0.089 0.782,0.092 0.685,0.083 0.782,0.099 0.782,0.101 0.684,0.092 0.196,0.026 0.586,0.082 0.782,0.112 0.684,0.101 0.782,0.121 0.782,0.124 0.685,0.113 0.586,0.1 0.195,0.034 0.783,0.139 0.684,0.126 0.782,0.15 0.782,0.156 0.684,0.143 0.782,0.169 0.782,0.177 0.684,0.161 0.782,0.192 0.196,0.05 0.586,0.152 0.684,0.184 0.782,0.22 0.685,0.202 0.097,0.03 0.685,0.213 0.782,0.255 0.782,0.269 0.782,0.284 0.684,0.262 0.489,0.195 0.293,0.121 0.782,0.335 0.684,0.31 0.782,0.376 0.684,0.35 0.098,0.051 0.685,0.373 0.586,0.338 0.196,0.117 0.781,0.488 0.196,0.128 0.489,0.329 0.586,0.416 0.196,0.144 0.782,0.606 0.684,0.571 0.293,0.258 0.489,0.448 0.293,0.281 0.489,0.49 0.195,0.203 0.489,0.53 0.196,0.22 0.586,0.695 0.098,0.121 0.587,0.756 0.097,0.132 0.391,0.544 0.293,0.427 0.294,0.444 0.489,0.783 0.391,0.666 0.39,0.704 0.391,0.748 0.294,0.59 0.097,0.203 0.391,0.843 0.294,0.668 0.293,0.7 0.293,0.736 0.196,0.51 0.097,0.262 0.294,0.812 0.293,0.855 0.196,0.594 0.293,0.932 0.195,0.649 0.098,0.333 0.098,0.339 0.293,1.055 0.195,0.735 0.196,0.762 0.195,0.79 0.098,0.406 0.196,0.834 0.195,0.865 0.196,0.895 0.098,0.46 0.195,0.943 0.098,0.484 0.195,0.992 0.098,0.508 0.195,1.04 0.098,0.532 0.196,1.087 0.097,0.555 0.098,0.561 0.196,1.141 0.098,0.578 0.097,0.584 0.196,1.177 0.097,0.593 0.098,0.592 0.098,0.592 0.195,1.174 0.098,0.578 0.098,0.57 0.195,1.1 0.098,0.524 0.098,0.502 0.195,0.917 0.196,0.767 0.195,0.562 0.587,-0.26 0.098,-0.447 0.098,-0.598 0.097,-0.765 0.098,-0.947 0.098,-1.145 0.097,-1.358 0.098,-1.587 0.098,-1.829 0.098,-2.084 0.097,-2.349 0.098,-2.62 0.098,-2.897 0.098,-3.172 0.097,-3.442 0.098,-3.7 0.098,-3.942 0.098,-4.161 0.097,-4.353 0.098,-4.51 0.098,-4.63 0.098,-4.707 0.098,-4.74 0.097,-4.729 0.098,-4.671 0.098,-4.571 0.097,-4.43 0.098,-4.255 0.098,-4.048 0.098,-3.815 0.097,-3.564 0.098,-3.298 0.098,-3.026 0.098,-2.749 0.098,-2.475 0.097,-2.206 0.098,-1.947 0.098,-1.698 0.098,-1.463 0.097,-1.242 0.098,-1.038 0.098,-0.847 0.195,-1.19 0.098,-0.372 0.293,-0.392 0.391,0.724 0.196,0.724 0.195,0.887 0.098,0.489 0.195,1.049 0.098,0.551 0.196,1.139 0.098,0.582 0.097,0.587 0.098,0.591 0.195,1.185 0.098,0.591 0.098,0.589 0.098,0.586 0.097,0.581 0.098,0.576 0.098,0.57 0.098,0.564 0.195,1.108 0.098,0.544 0.195,1.063 0.098,0.52 0.098,0.512 0.195,1 0.098,0.487 0.196,0.951 0.097,0.464 0.098,0.455 0.098,0.447 0.196,0.872 0.195,0.841 0.098,0.409 0.097,0.402 0.098,0.395 0.196,0.769 0.195,0.741 0.196,0.715 0.098,0.349 0.195,0.678 0.195,0.654 0.196,0.632 0.098,0.307 0.195,0.6 0.196,0.579 0.293,0.833 0.293,0.791 0.293,0.753 0.196,0.482 0.098,0.236 0.293,0.683 0.391,0.863 0.293,0.613 0.391,0.775 0.391,0.731 0.391,0.689 0.098,0.167 0.391,0.643 0.293,0.459 0.196,0.296 0.489,0.708 0.097,0.135 0.489,0.655 0.195,0.25 0.392,0.483 0.391,0.46 0.293,0.331 0.488,0.527 0.196,0.202 0.489,0.487 0.293,0.279 0.489,0.446 0.293,0.257 0.489,0.41 0.391,0.313 0.293,0.227 0.782,0.574 0.782,0.533 0.293,0.189 0.391,0.245 0.782,0.465 0.098,0.056 0.684,0.379 0.684,0.356 0.782,0.384 0.783,0.361 0.684,0.298 0.782,0.322 0.293,0.116 0.489,0.188 0.684,0.252 0.782,0.274 0.098,0.033 0.684,0.227 0.684,0.216 0.782,0.236 0.294,0.086 0.488,0.138 0.684,0.188 0.782,0.205 0.782,0.196 0.098,0.023 0.587,0.141 0.782,0.179 0.782,0.173 0.684,0.144 0.489,0.1 0.293,0.059 0.782,0.153 0.684,0.128 0.782,0.142 0.782,0.136 0.684,0.115 0.098,0.016 0.684,0.11 0.783,0.122 0.684,0.104 0.782,0.114 0.782,0.11 0.684,0.093 0.684,0.091 0.098,0.013 0.782,0.1 0.684,0.084 0.782,0.094 0.782,0.091 0.684,0.078 0.782,0.085 0.782,0.084 0.685,0.07 0.586,0.06 0.196,0.019 0.782,0.076 0.684,0.065 0.782,0.073 0.782,0.07 0.782,0.068 0.684,0.059 0.782,0.065 0.782,0.063 0.685,0.054 0.781,0.06 0.783,0.059 0.195,0.014 0.489,0.036 0.782,0.056 0.782,0.054 0.684,0.047 0.782,0.052 0.782,0.051 0.684,0.043 0.782,0.049 0.782,0.047 0.685,0.041 0.781,0.045 0.782,0.045 0.685,0.038 0.782,0.042 0.782,0.042 0.684,0.036 0.489,0.025 0.293,0.015 0.782,0.039 0.684,0.033 0.782,0.038 0.782,0.037 0.684,0.032 0.783,0.035 0.781,0.035 0.685,0.03 0.782,0.033 0.782,0.033 0.684,0.028 0.782,0.032 0.782,0.031 0.684,0.027 0.782,0.03 0.782,0.029 0.684,0.025 0.782,0.029 0.782,0.028 0.685,0.024 0.782,0.027 0.782,0.026 0.684,0.023 0.782,0.025 0.098,0.004 0.684,0.022 0.684,0.021 0.782,0.025 0.782,0.024 0.684,0.02 0.782,0.024 0.783,0.022 0.781,0.023 0.685,0.019 0.782,0.022 0.782,0.022 0.684,0.018 0.782,0.021 0.782,0.02 0.684,0.018 0.782,0.02 0.782,0.019 0.684,0.017 0.783,0.019 0.781,0.019 0.685,0.016 0.782,0.019 0.782,0.017 0.684,0.016 0.782,0.017 0.782,0.018 0.684,0.014 0.782,0.017 0.782,0.017 0.684,0.014 0.782,0.016 0.782,0.016 0.685,0.014 0.782,0.015 0.782,0.015 0.684,0.013 0.782,0.015 0.782,0.015 0.684,0.013 0.782,0.014 0.782,0.014 0.489,0.009 0.196,0.003 0.781,0.014 0.782,0.013 0.685,0.012 0.782,0.013 0.782,0.013 0.684,0.012 0.782,0.012 0.782,0.013 0.684,0.011 0.782,0.012 0.782,0.012 0.685,0.011 0.782,0.012 0.781,0.011 0.685,0.011 0.782,0.011 0.782,0.011 0.684,0.01 0.782,0.011 0.782,0.011 0.782,0.011 0.684,0.009 0.782,0.011 0.782,0.01 0.684,0.009 0.783,0.011 0.781,0.01 0.685,0.008 0.782,0.01 0.782,0.01 0.684,0.009 0.782,0.009 0.782,0.01 0.684,0.008 0.782,0.009 0.782,0.009 0.684,0.008 0.782,0.009 0.783,0.009 0.684,0.008 0.782,0.008 0.782,0.009 0.684,0.008 0.782,0.008 0.782,0.008 0.684,0.008 0.782,0.008 0.782,0.008 0.684,0.007 0.783,0.008 0.781,0.008 0.685,0.006 0.782,0.008 0.782,0.008 0.684,0.006 0.782,0.008 0.782,0.007 0.684,0.007 0.782,0.007 0.782,0.007 0.684,0.007 0.782,0.007 0.782,0.007 0.685,0.006 0.782,0.007 0.782,0.006 0.684,0.006 0.782,0.007 0.782,0.007 0.684,0.005 0.782,0.007 0.782,0.006 0.685,0.006 0.781,0.006 0.782,0.006 0.782,0.007 0.685,0.005 0.782,0.006 0.782,0.006 0.684,0.005 0.782,0.006 0.782,0.006 0.684,0.005 0.782,0.006 0.782,0.006 0.684,0.005 0.782,0.006 0.782,0.005 0.196,0.002 0.489,0.003 0.782,0.006 0.782,0.005 0.684,0.005 0.782,0.005 0.782,0.005 0.684,0.005 0.782,0.005 0.782,0.005 0.684,0.005 0.783,0.005 0.781,0.005 0.685,0.005 0.782,0.005 0.782,0.004"
           style="fill:none;stroke:#000000;stroke-width:2;stroke-linecap:butt;stroke-linejoin:miter;stroke-miterlimit:10;stroke-dasharray:none;stroke-opacity:1"
           id="path22" /></g></g><g
       id="g24"><g
         id="g26"
         clip-path="url(#clipPath30)"><path
           d="m 50.25,127.575 0.391,10e-4 0.782,0.002 0.782,10e-4 0.684,0.002 0.782,10e-4 0.782,0.002 0.685,0.002 0.781,0.001 0.782,0.002 0.685,0.002 0.782,0.002 0.782,0.002 0.684,0.001 0.782,0.003 0.782,0.002 0.684,0.002 0.782,0.002 0.782,0.002 0.684,0.002 0.782,0.003 0.782,0.002 0.685,0.002 0.782,0.003 0.782,0.003 0.684,0.002 0.782,0.003 0.782,0.003 0.684,0.003 0.782,0.003 0.782,0.003 0.782,0.004 0.685,0.003 0.782,0.003 0.781,0.004 0.685,0.003 0.782,0.004 0.782,0.004 0.684,0.004 0.782,0.005 0.782,0.004 0.684,0.004 0.782,0.005 0.782,0.005 0.684,0.005 0.782,0.006 0.782,0.005 0.685,0.006 0.782,0.006 0.782,0.006 0.684,0.006 0.782,0.007 0.782,0.007 0.684,0.007 0.782,0.008 0.782,0.008 0.684,0.008 0.782,0.009 0.782,0.009 0.685,0.009 0.782,0.01 0.782,0.011 0.684,0.01 0.782,0.012 0.782,0.013 0.684,0.012 0.294,0.005 0.488,0.009 0.782,0.014 0.685,0.014 0.781,0.016 0.783,0.018 0.684,0.016 0.782,0.019 0.782,0.021 0.684,0.019 0.782,0.023 0.782,0.025 0.684,0.023 0.782,0.029 0.782,0.03 0.684,0.028 0.782,0.035 0.782,0.037 0.685,0.035 0.782,0.043 0.782,0.047 0.782,0.05 0.684,0.048 0.782,0.06 0.782,0.065 0.293,0.026 0.391,0.036 0.782,0.077 0.782,0.085 0.685,0.082 0.782,0.104 0.781,0.115 0.685,0.112 0.782,0.142 0.782,0.16 0.684,0.158 0.782,0.203 0.782,0.233 0.684,0.232 0.782,0.304 0.489,0.216 0.293,0.139 0.684,0.361 0.489,0.293 0.294,0.192 0.781,0.578 0.685,0.605 0.097,0.095 0.685,0.739 0.586,0.752 0.196,0.28 0.391,0.61 0.293,0.507 0.098,0.179 0.391,0.776 0.293,0.649 0.391,0.97 0.195,0.537 0.196,0.574 0.098,0.303 0.195,0.639 0.293,1.049 0.098,0.377 0.098,0.391 0.098,0.406 0.195,0.86 0.196,0.93 0.098,0.494 0.097,0.514 0.098,0.535 0.098,0.558 0.195,1.187 0.098,0.632 0.098,0.66 0.097,0.688 0.098,0.719 0.098,0.752 0.098,0.785 0.098,0.821 0.097,0.858 0.098,0.898 0.098,0.94 0.097,0.984 0.098,1.03 0.098,1.079 0.098,1.131 0.097,1.185 0.098,1.241 0.098,1.302 0.098,1.364 0.097,1.43 0.098,1.5 0.098,1.571 0.098,1.648 0.097,1.725 0.098,1.808 0.098,1.892 0.098,1.979 0.097,2.069 0.098,2.162 0.098,2.255 0.098,2.349 0.098,2.444 0.097,2.539 0.098,2.63 0.098,2.719 0.098,2.803 0.097,2.879 0.098,2.948 0.098,3.004 0.097,3.048 0.098,3.073 0.098,3.079 0.098,3.063 0.097,3.02 0.098,2.95 0.098,2.847 0.098,2.712 0.097,2.541 0.098,2.335 0.098,2.095 0.098,1.822 0.097,1.517 0.098,1.185 0.098,0.834 0.098,0.465 0.293,-0.865 0.098,-1.024 0.097,-1.365 0.098,-1.683 0.098,-1.972 0.098,-2.227 0.097,-2.45 0.098,-2.637 0.098,-2.788 0.098,-2.906 0.098,-2.991 0.097,-3.046 0.098,-3.075 0.098,-3.078 0.098,-3.062 0.097,-3.026 0.098,-2.976 0.098,-2.913 0.097,-2.839 0.098,-2.759 0.098,-2.672 0.098,-2.581 0.097,-2.489 0.098,-2.393 0.098,-2.299 0.098,-2.205 0.097,-2.112 0.098,-2.021 0.098,-1.933 0.098,-1.846 0.097,-1.764 0.098,-1.683 0.098,-1.606 0.098,-1.533 0.097,-1.462 0.098,-1.395 0.098,-1.33 0.098,-1.27 0.098,-1.21 0.097,-1.156 0.098,-1.103 0.098,-1.052 0.097,-1.006 0.098,-0.96 0.098,-0.917 0.098,-0.877 0.097,-0.838 0.098,-0.801 0.098,-0.767 0.098,-0.734 0.098,-0.703 0.195,-1.317 0.098,-0.618 0.097,-0.593 0.098,-0.568 0.196,-1.07 0.097,-0.503 0.196,-0.947 0.098,-0.447 0.097,-0.429 0.098,-0.414 0.196,-0.781 0.195,-0.724 0.196,-0.674 0.195,-0.626 0.293,-0.862 0.294,-0.777 0.293,-0.703 0.391,-0.838 0.098,-0.193 0.195,-0.37 0.489,-0.832 0.489,-0.719 0.293,-0.386 0.293,-0.356 0.489,-0.533 0.195,-0.195 0.489,-0.448 0.391,-0.32 0.391,-0.293 0.684,-0.451 0.098,-0.059 0.782,-0.431 0.489,-0.235 0.195,-0.087 0.783,-0.319 0.781,-0.275 0.196,-0.063 0.489,-0.148 0.782,-0.211 0.782,-0.186 0.684,-0.145 0.293,-0.057 0.489,-0.09 0.782,-0.132 0.684,-0.103 0.782,-0.107 0.782,-0.096 0.684,-0.076 0.782,-0.08 0.685,-0.064 0.098,-0.008 0.684,-0.059 0.782,-0.061 0.782,-0.056 0.684,-0.045 0.782,-0.048 0.782,-0.044 0.684,-0.035 0.782,-0.038 0.782,-0.036 0.684,-0.029 0.782,-0.031 0.782,-0.028 0.685,-0.024 0.782,-0.025 0.782,-0.024 0.684,-0.019 0.782,-0.021 0.782,-0.02 0.684,-0.017 0.782,-0.017 0.782,-0.017 0.684,-0.014 0.782,-0.015 0.783,-0.014 0.195,-0.003 0.489,-0.009 0.782,-0.012 0.782,-0.013 0.684,-0.01 0.782,-0.011 0.782,-0.01 0.684,-0.009 0.782,-0.01 0.782,-0.009 0.684,-0.007 0.782,-0.009 0.782,-0.008 0.685,-0.006 0.782,-0.008 0.782,-0.007 0.684,-0.006 0.782,-0.006 0.782,-0.007 0.782,-0.005 0.684,-0.006 0.782,-0.005 0.782,-0.005 0.685,-0.005 0.781,-0.005 0.783,-0.005 0.684,-0.004 0.782,-0.004 0.782,-0.004 0.684,-0.004 0.782,-0.004 0.782,-0.004 0.684,-0.003 0.782,-0.004 0.782,-0.003 0.685,-0.003 0.781,-0.003 0.782,-0.003 0.685,-0.003 0.782,-0.003 0.782,-0.003 0.684,-0.002 0.782,-0.003 0.782,-0.003 0.684,-0.002 0.782,-0.002 0.782,-0.003 0.684,-0.002 0.783,-0.002 0.781,-0.002 0.685,-0.002 0.782,-0.002 0.782,-0.002 0.684,-0.002 0.782,-0.002 0.782,-0.002 0.684,-0.001 0.782,-0.002 0.782,-0.002 0.684,-10e-4 0.782,-0.002 0.782,-10e-4 0.685,-0.002 0.782,-10e-4 0.782,-0.002 0.684,-10e-4 0.782,-0.001 0.782,-0.002 0.684,-0.001 0.782,-0.001 0.782,-0.002 0.684,-0.001 0.782,-10e-4 0.783,-0.001 0.781,-0.001 0.685,-10e-4 0.782,-0.001 0.782,-0.001 0.684,-10e-4 0.782,-0.001 0.782,-0.001 0.684,-10e-4 0.782,-0.001 0.782,-10e-4 0.684,-0.001 0.783,-0.001 0.781,-10e-4 0.685,-0.001 h 0.782 l 0.782,-0.001 0.684,-10e-4 0.782,-0.001 0.782,-0.001 h 0.684 l 0.782,-10e-4 0.782,-0.001 h 0.684 l 0.782,-0.001 0.782,-10e-4 h 0.685 l 0.782,-0.001 0.782,-0.001 h 0.684 l 0.782,-10e-4 0.782,-0.001 h 0.684 l 0.782,-0.001 h 0.782 l 0.685,-10e-4 h 0.781 l 0.782,-0.001 h 0.685 l 0.782,-0.001 h 0.782 l 0.684,-10e-4 h 0.782 l 0.782,-0.001 h 0.684 l 0.782,-0.001 h 0.782 l 0.685,-10e-4 h 0.782 l 0.781,-0.001 h 0.685 0.782 l 0.782,-0.001 h 0.684 l 0.782,-10e-4 h 0.782 0.782 l 0.684,-0.001 h 0.782 l 0.782,-0.001 h 0.684 0.783 l 0.781,-10e-4 h 0.685 0.782 l 0.782,-0.001 h 0.684 0.782 l 0.782,-0.001 h 0.684 0.782 0.782 l 0.684,-10e-4 h 0.782 0.783 l 0.684,-0.001 h 0.782 0.782 0.684 l 0.782,-0.001 h 0.782 0.684 l 0.782,-10e-4 h 0.782 0.684 0.783 l 0.781,-0.001 h 0.685 0.782 0.782 0.684 l 0.782,-0.001 h 0.782 0.684 0.782 l 0.782,-10e-4 h 0.684 0.782 0.782 0.685 l 0.782,-0.001 h 0.782 0.684 0.782 0.782 l 0.684,-0.001 h 0.782 0.782 0.685 0.781 0.782 l 0.782,-10e-4 h 0.685 0.782 0.782 0.684 0.782 l 0.782,-0.001 h 0.684 0.782 0.782 0.684 0.782 l 0.782,-0.001 h 0.685 0.782 0.782 0.684 0.782 0.782 l 0.684,-10e-4 h 0.782 0.782 0.684 0.783 0.781 0.685 0.782 l 0.782,-0.001"
           style="fill:none;stroke:#ff0000;stroke-width:2;stroke-linecap:butt;stroke-linejoin:miter;stroke-miterlimit:10;stroke-dasharray:none;stroke-opacity:1"
           id="path32" /></g></g><g
       id="g34"><path
         d="m 11.25,116.016 v 1.429 H 4.852 v 1.067 c 0,0.937 0.574,1.558 1.418,1.558 0.82,0 1.277,-0.515 1.277,-1.418 v -1.734 h 1.254 v 1.477 c 0,1.898 -1.078,3.152 -2.707,3.152 -1.524,0 -2.485,-1.125 -2.485,-2.906 v -2.625 h 7.641 m 0.105,10.019 c 0,0.633 -0.128,1.313 -0.375,1.887 l -0.96,-0.305 c 0.175,-0.433 0.269,-0.902 0.269,-1.359 0,-1.149 -0.644,-1.77 -1.887,-1.77 -0.996,0 -1.535,0.41 -1.535,1.16 0,0.704 0.445,1.102 1.231,1.102 v -2.449 h 0.867 v 3.715 c -0.223,0.035 -0.551,0.058 -0.809,0.058 -1.453,0 -2.367,-0.89 -2.367,-2.32 0,-1.594 1.137,-2.66 2.801,-2.66 1.722,0 2.765,1.113 2.765,2.941 m -0.105,4.887 v 1.406 H 7.57 l -1.675,-0.293 v -1.113 h 5.355 m -3.047,1.137 c -0.656,0.293 -1.043,0.879 -1.043,1.535 0,0.222 0.047,0.48 0.117,0.679 l -1.289,0.329 c -0.093,-0.235 -0.14,-0.516 -0.14,-0.797 0,-0.703 0.375,-1.36 1.019,-1.746 h 1.336 m 3.047,11.109 v 1.406 H 7.957 c -1.336,0 -2.145,-0.738 -2.145,-1.945 0,-0.762 0.34,-1.477 0.938,-1.969 l 0.855,0.211 c -0.375,0.352 -0.574,0.785 -0.574,1.277 0,0.68 0.387,1.02 1.114,1.02 h 3.105 m 0,-6.996 v 1.406 H 6.844 L 5.895,137.18 v -1.008 h 5.355 m 0,3.504 v 1.394 H 7.957 c -1.336,0 -2.145,-0.738 -2.145,-1.933 0,-0.774 0.34,-1.477 0.938,-1.969 l 0.855,0.199 c -0.375,0.352 -0.574,0.797 -0.574,1.278 0,0.679 0.387,1.031 1.114,1.031 h 3.105 m 0,7.746 v 1.406 H 5.895 v -1.406 h 5.355 m -6.34,0.703 c 0,0.527 -0.34,0.867 -0.855,0.867 -0.539,0 -0.879,-0.34 -0.879,-0.867 0,-0.516 0.34,-0.855 0.879,-0.855 0.515,0 0.855,0.339 0.855,0.855 m 6.422,5.168 c 0,0.363 -0.07,0.762 -0.187,1.102 l -1.008,-0.282 c 0.07,-0.152 0.105,-0.351 0.105,-0.515 0,-0.504 -0.293,-0.821 -0.762,-0.821 H 4.348 v -1.394 h 5.226 c 1.078,0 1.758,0.715 1.758,1.91 M 7.02,150.645 v 3.468 H 5.895 v -3.468 H 7.02 m 4.312,7.148 c 0,0.363 -0.07,0.762 -0.187,1.102 l -1.008,-0.282 c 0.07,-0.152 0.105,-0.351 0.105,-0.515 0,-0.504 -0.293,-0.821 -0.762,-0.821 H 4.348 v -1.394 h 5.226 c 1.078,0 1.758,0.715 1.758,1.91 M 7.02,155.145 v 3.468 H 5.895 v -3.468 H 7.02 m 4.23,5.027 v 1.406 H 5.895 v -1.406 h 5.355 m -6.34,0.703 c 0,0.527 -0.34,0.867 -0.855,0.867 -0.539,0 -0.879,-0.34 -0.879,-0.867 0,-0.516 0.34,-0.855 0.879,-0.855 0.515,0 0.855,0.339 0.855,0.855 m 6.34,4.371 v 1.395 l -5.355,2.074 v -1.406 l 4.57,-1.524 v 0.363 l -4.57,-1.441 v -1.547 l 5.355,2.086 m 0,5.426 v 1.406 H 5.895 v -1.406 h 5.355 m -6.34,0.703 c 0,0.527 -0.34,0.867 -0.855,0.867 -0.539,0 -0.879,-0.34 -0.879,-0.867 0,-0.516 0.34,-0.855 0.879,-0.855 0.515,0 0.855,0.339 0.855,0.855 m 6.422,5.168 c 0,0.363 -0.07,0.762 -0.187,1.102 l -1.008,-0.282 c 0.07,-0.152 0.105,-0.351 0.105,-0.515 0,-0.504 -0.293,-0.821 -0.762,-0.821 H 4.348 v -1.394 h 5.226 c 1.078,0 1.758,0.715 1.758,1.91 M 7.02,173.895 v 3.468 H 5.895 v -3.468 H 7.02 m 6.621,5.378 v 1.512 l -2.391,0.856 -5.355,2.062 v -1.406 l 4.605,-1.5 v 0.34 l -4.605,-1.418 v -1.559 l 5.355,2.086 2.391,-0.973"
         style="fill:#000000;fill-opacity:1;fill-rule:nonzero;stroke:none"
         id="path36" /></g><g
       id="g38"><path
         d="m 20.859,38.52 h 5.168 v 0.82 h -5.168 v -0.82 m 6.645,-3.27 h 4.851 v 0.797 h -3.914 l 0.118,-0.27 c 2.613,2.461 3.492,3.739 3.492,5.063 0,1.348 -0.914,2.156 -2.321,2.156 -0.914,0 -1.781,-0.328 -2.343,-0.867 l 0.246,-0.633 c 0.586,0.469 1.312,0.703 1.91,0.703 0.984,0 1.582,-0.586 1.582,-1.5 0,-1.113 -0.891,-2.261 -3.621,-4.84 V 35.25 m 8.859,-0.105 c 1.699,0 2.754,1.488 2.754,3.984 0,2.391 -1.019,3.867 -2.683,3.867 -1.723,0 -2.801,-1.5 -2.801,-3.984 0,-2.403 1.043,-3.867 2.73,-3.867 m 0.059,0.773 c -1.149,0 -1.863,1.207 -1.863,3.211 0,1.922 0.703,3.094 1.804,3.094 1.125,0 1.828,-1.219 1.828,-3.211 0,-1.922 -0.668,-3.094 -1.769,-3.094 m 6.691,-0.773 c 1.699,0 2.754,1.488 2.754,3.984 0,2.391 -1.019,3.867 -2.683,3.867 -1.723,0 -2.801,-1.5 -2.801,-3.984 0,-2.403 1.043,-3.867 2.73,-3.867 m 0.059,0.773 c -1.149,0 -1.863,1.207 -1.863,3.211 0,1.922 0.703,3.094 1.804,3.094 1.125,0 1.828,-1.219 1.828,-3.211 0,-1.922 -0.668,-3.094 -1.769,-3.094"
         style="fill:#000000;fill-opacity:1;fill-rule:nonzero;stroke:none"
         id="path40" /></g><g
       id="g42"><path
         d="m 22.359,82.77 h 5.168 v 0.82 h -5.168 v -0.82 m 8.59,-3.329 h 0.879 v 7.7 h -0.527 l -2.719,-1.407 0.328,-0.632 2.332,1.113 -0.293,0.281 v -7.055 m 5.414,-0.046 c 1.699,0 2.754,1.488 2.754,3.984 0,2.391 -1.019,3.867 -2.683,3.867 -1.723,0 -2.801,-1.5 -2.801,-3.984 0,-2.403 1.043,-3.867 2.73,-3.867 m 0.059,0.773 c -1.149,0 -1.863,1.207 -1.863,3.211 0,1.922 0.703,3.094 1.804,3.094 1.125,0 1.828,-1.219 1.828,-3.211 0,-1.922 -0.668,-3.094 -1.769,-3.094 m 6.691,-0.773 c 1.699,0 2.754,1.488 2.754,3.984 0,2.391 -1.019,3.867 -2.683,3.867 -1.723,0 -2.801,-1.5 -2.801,-3.984 0,-2.403 1.043,-3.867 2.73,-3.867 m 0.059,0.773 c -1.149,0 -1.863,1.207 -1.863,3.211 0,1.922 0.703,3.094 1.804,3.094 1.125,0 1.828,-1.219 1.828,-3.211 0,-1.922 -0.668,-3.094 -1.769,-3.094"
         style="fill:#000000;fill-opacity:1;fill-rule:nonzero;stroke:none"
         id="path44" /></g><g
       id="g46"><path
         d="m 43.113,123.645 c 1.699,0 2.754,1.488 2.754,3.984 0,2.391 -1.019,3.867 -2.683,3.867 -1.723,0 -2.801,-1.5 -2.801,-3.984 0,-2.403 1.043,-3.867 2.73,-3.867 m 0.059,0.773 c -1.149,0 -1.863,1.207 -1.863,3.211 0,1.922 0.703,3.094 1.804,3.094 1.125,0 1.828,-1.219 1.828,-3.211 0,-1.922 -0.668,-3.094 -1.769,-3.094"
         style="fill:#000000;fill-opacity:1;fill-rule:nonzero;stroke:none"
         id="path48" /></g><g
       id="g50"><path
         d="m 30.949,167.941 h 0.879 v 7.7 h -0.527 l -2.719,-1.407 0.328,-0.632 2.332,1.113 -0.293,0.281 v -7.055 m 5.414,-0.046 c 1.699,0 2.754,1.488 2.754,3.984 0,2.391 -1.019,3.867 -2.683,3.867 -1.723,0 -2.801,-1.5 -2.801,-3.984 0,-2.403 1.043,-3.867 2.73,-3.867 m 0.059,0.773 c -1.149,0 -1.863,1.207 -1.863,3.211 0,1.922 0.703,3.094 1.804,3.094 1.125,0 1.828,-1.219 1.828,-3.211 0,-1.922 -0.668,-3.094 -1.769,-3.094 m 6.691,-0.773 c 1.699,0 2.754,1.488 2.754,3.984 0,2.391 -1.019,3.867 -2.683,3.867 -1.723,0 -2.801,-1.5 -2.801,-3.984 0,-2.403 1.043,-3.867 2.73,-3.867 m 0.059,0.773 c -1.149,0 -1.863,1.207 -1.863,3.211 0,1.922 0.703,3.094 1.804,3.094 1.125,0 1.828,-1.219 1.828,-3.211 0,-1.922 -0.668,-3.094 -1.769,-3.094"
         style="fill:#000000;fill-opacity:1;fill-rule:nonzero;stroke:none"
         id="path52" /></g><g
       id="g54"><path
         d="m 27.504,212.25 h 4.851 v 0.797 h -3.914 l 0.118,-0.27 c 2.613,2.461 3.492,3.739 3.492,5.063 0,1.348 -0.914,2.156 -2.321,2.156 -0.914,0 -1.781,-0.328 -2.343,-0.867 l 0.246,-0.633 c 0.586,0.469 1.312,0.703 1.91,0.703 0.984,0 1.582,-0.586 1.582,-1.5 0,-1.113 -0.891,-2.261 -3.621,-4.84 v -0.609 m 8.859,-0.105 c 1.699,0 2.754,1.488 2.754,3.984 0,2.391 -1.019,3.867 -2.683,3.867 -1.723,0 -2.801,-1.5 -2.801,-3.984 0,-2.403 1.043,-3.867 2.73,-3.867 m 0.059,0.773 c -1.149,0 -1.863,1.207 -1.863,3.211 0,1.922 0.703,3.094 1.804,3.094 1.125,0 1.828,-1.219 1.828,-3.211 0,-1.922 -0.668,-3.094 -1.769,-3.094 m 6.691,-0.773 c 1.699,0 2.754,1.488 2.754,3.984 0,2.391 -1.019,3.867 -2.683,3.867 -1.723,0 -2.801,-1.5 -2.801,-3.984 0,-2.403 1.043,-3.867 2.73,-3.867 m 0.059,0.773 c -1.149,0 -1.863,1.207 -1.863,3.211 0,1.922 0.703,3.094 1.804,3.094 1.125,0 1.828,-1.219 1.828,-3.211 0,-1.922 -0.668,-3.094 -1.769,-3.094"
         style="fill:#000000;fill-opacity:1;fill-rule:nonzero;stroke:none"
         id="path56" /></g><g
       id="g58"><path
         d="m 29.836,256.383 c 1.676,0 2.836,0.879 2.836,2.203 0,1.113 -0.856,1.898 -2.156,1.934 l -0.164,-0.129 c 1.136,0.023 1.921,0.797 1.921,1.851 0,1.219 -0.984,1.992 -2.402,1.992 -0.785,0 -1.676,-0.246 -2.32,-0.621 l 0.211,-0.679 c 0.679,0.339 1.394,0.515 1.957,0.515 0.984,0 1.699,-0.504 1.699,-1.289 0,-0.844 -0.82,-1.394 -1.945,-1.394 h -0.586 v -0.786 h 0.785 c 1.277,0 2.086,-0.55 2.086,-1.453 0,-0.855 -0.75,-1.336 -1.887,-1.336 -0.668,0 -1.559,0.164 -2.273,0.516 l -0.2,-0.738 c 0.739,-0.375 1.641,-0.586 2.438,-0.586 m 6.527,0.012 c 1.699,0 2.754,1.488 2.754,3.984 0,2.391 -1.019,3.867 -2.683,3.867 -1.723,0 -2.801,-1.5 -2.801,-3.984 0,-2.403 1.043,-3.867 2.73,-3.867 m 0.059,0.773 c -1.149,0 -1.863,1.207 -1.863,3.211 0,1.922 0.703,3.094 1.804,3.094 1.125,0 1.828,-1.219 1.828,-3.211 0,-1.922 -0.668,-3.094 -1.769,-3.094 m 6.691,-0.773 c 1.699,0 2.754,1.488 2.754,3.984 0,2.391 -1.019,3.867 -2.683,3.867 -1.723,0 -2.801,-1.5 -2.801,-3.984 0,-2.403 1.043,-3.867 2.73,-3.867 m 0.059,0.773 c -1.149,0 -1.863,1.207 -1.863,3.211 0,1.922 0.703,3.094 1.804,3.094 1.125,0 1.828,-1.219 1.828,-3.211 0,-1.922 -0.668,-3.094 -1.769,-3.094"
         style="fill:#000000;fill-opacity:1;fill-rule:nonzero;stroke:none"
         id="path60" /></g><g
       id="g62"><path
         d="M 50.25,83.25 H 51"
         style="fill:none;stroke:#000000;stroke-width:1;stroke-linecap:square;stroke-linejoin:bevel;stroke-miterlimit:10;stroke-dasharray:none;stroke-opacity:1"
         id="path64" /></g><g
       id="g66"><path
         d="M 50.25,127.5 H 51"
         style="fill:none;stroke:#000000;stroke-width:1;stroke-linecap:square;stroke-linejoin:bevel;stroke-miterlimit:10;stroke-dasharray:none;stroke-opacity:1"
         id="path68" /></g><g
       id="g70"><path
         d="M 50.25,171.75 H 51"
         style="fill:none;stroke:#000000;stroke-width:1;stroke-linecap:square;stroke-linejoin:bevel;stroke-miterlimit:10;stroke-dasharray:none;stroke-opacity:1"
         id="path72" /></g><g
       id="g74"><path
         d="M 50.25,216 H 51"
         style="fill:none;stroke:#000000;stroke-width:1;stroke-linecap:square;stroke-linejoin:bevel;stroke-miterlimit:10;stroke-dasharray:none;stroke-opacity:1"
         id="path76" /></g><g
       id="g78"><path
         d="M 50.25,260.25 V 39"
         style="fill:none;stroke:#000000;stroke-width:1;stroke-linecap:square;stroke-linejoin:bevel;stroke-miterlimit:10;stroke-dasharray:none;stroke-opacity:1"
         id="path80" /></g><g
       id="g82"><path
         d="M 50.25,83.25 H 57"
         style="fill:none;stroke:#000000;stroke-width:1;stroke-linecap:square;stroke-linejoin:bevel;stroke-miterlimit:10;stroke-dasharray:none;stroke-opacity:1"
         id="path84" /></g><g
       id="g86"><path
         d="M 50.25,127.5 H 57"
         style="fill:none;stroke:#000000;stroke-width:1;stroke-linecap:square;stroke-linejoin:bevel;stroke-miterlimit:10;stroke-dasharray:none;stroke-opacity:1"
         id="path88" /></g><g
       id="g90"><path
         d="M 50.25,171.75 H 57"
         style="fill:none;stroke:#000000;stroke-width:1;stroke-linecap:square;stroke-linejoin:bevel;stroke-miterlimit:10;stroke-dasharray:none;stroke-opacity:1"
         id="path92" /></g><g
       id="g94"><path
         d="M 50.25,216 H 57"
         style="fill:none;stroke:#000000;stroke-width:1;stroke-linecap:square;stroke-linejoin:bevel;stroke-miterlimit:10;stroke-dasharray:none;stroke-opacity:1"
         id="path96" /></g><g
       id="g98"><path
         d="M 50.25,47.85 H 54"
         style="fill:none;stroke:#000000;stroke-width:1;stroke-linecap:square;stroke-linejoin:bevel;stroke-miterlimit:10;stroke-dasharray:none;stroke-opacity:1"
         id="path100" /></g><g
       id="g102"><path
         d="M 50.25,56.7 H 54"
         style="fill:none;stroke:#000000;stroke-width:1;stroke-linecap:square;stroke-linejoin:bevel;stroke-miterlimit:10;stroke-dasharray:none;stroke-opacity:1"
         id="path104" /></g><g
       id="g106"><path
         d="M 50.25,65.55 H 54"
         style="fill:none;stroke:#000000;stroke-width:1;stroke-linecap:square;stroke-linejoin:bevel;stroke-miterlimit:10;stroke-dasharray:none;stroke-opacity:1"
         id="path108" /></g><g
       id="g110"><path
         d="M 50.25,74.4 H 54"
         style="fill:none;stroke:#000000;stroke-width:1;stroke-linecap:square;stroke-linejoin:bevel;stroke-miterlimit:10;stroke-dasharray:none;stroke-opacity:1"
         id="path112" /></g><g
       id="g114"><path
         d="M 50.25,92.1 H 54"
         style="fill:none;stroke:#000000;stroke-width:1;stroke-linecap:square;stroke-linejoin:bevel;stroke-miterlimit:10;stroke-dasharray:none;stroke-opacity:1"
         id="path116" /></g><g
       id="g118"><path
         d="M 50.25,100.95 H 54"
         style="fill:none;stroke:#000000;stroke-width:1;stroke-linecap:square;stroke-linejoin:bevel;stroke-miterlimit:10;stroke-dasharray:none;stroke-opacity:1"
         id="path120" /></g><g
       id="g122"><path
         d="M 50.25,109.8 H 54"
         style="fill:none;stroke:#000000;stroke-width:1;stroke-linecap:square;stroke-linejoin:bevel;stroke-miterlimit:10;stroke-dasharray:none;stroke-opacity:1"
         id="path124" /></g><g
       id="g126"><path
         d="M 50.25,118.65 H 54"
         style="fill:none;stroke:#000000;stroke-width:1;stroke-linecap:square;stroke-linejoin:bevel;stroke-miterlimit:10;stroke-dasharray:none;stroke-opacity:1"
         id="path128" /></g><g
       id="g130"><path
         d="M 50.25,136.35 H 54"
         style="fill:none;stroke:#000000;stroke-width:1;stroke-linecap:square;stroke-linejoin:bevel;stroke-miterlimit:10;stroke-dasharray:none;stroke-opacity:1"
         id="path132" /></g><g
       id="g134"><path
         d="M 50.25,145.2 H 54"
         style="fill:none;stroke:#000000;stroke-width:1;stroke-linecap:square;stroke-linejoin:bevel;stroke-miterlimit:10;stroke-dasharray:none;stroke-opacity:1"
         id="path136" /></g><g
       id="g138"><path
         d="M 50.25,154.05 H 54"
         style="fill:none;stroke:#000000;stroke-width:1;stroke-linecap:square;stroke-linejoin:bevel;stroke-miterlimit:10;stroke-dasharray:none;stroke-opacity:1"
         id="path140" /></g><g
       id="g142"><path
         d="M 50.25,162.9 H 54"
         style="fill:none;stroke:#000000;stroke-width:1;stroke-linecap:square;stroke-linejoin:bevel;stroke-miterlimit:10;stroke-dasharray:none;stroke-opacity:1"
         id="path144" /></g><g
       id="g146"><path
         d="M 50.25,180.6 H 54"
         style="fill:none;stroke:#000000;stroke-width:1;stroke-linecap:square;stroke-linejoin:bevel;stroke-miterlimit:10;stroke-dasharray:none;stroke-opacity:1"
         id="path148" /></g><g
       id="g150"><path
         d="M 50.25,189.45 H 54"
         style="fill:none;stroke:#000000;stroke-width:1;stroke-linecap:square;stroke-linejoin:bevel;stroke-miterlimit:10;stroke-dasharray:none;stroke-opacity:1"
         id="path152" /></g><g
       id="g154"><path
         d="M 50.25,198.3 H 54"
         style="fill:none;stroke:#000000;stroke-width:1;stroke-linecap:square;stroke-linejoin:bevel;stroke-miterlimit:10;stroke-dasharray:none;stroke-opacity:1"
         id="path156" /></g><g
       id="g158"><path
         d="M 50.25,207.15 H 54"
         style="fill:none;stroke:#000000;stroke-width:1;stroke-linecap:square;stroke-linejoin:bevel;stroke-miterlimit:10;stroke-dasharray:none;stroke-opacity:1"
         id="path160" /></g><g
       id="g162"><path
         d="M 50.25,224.85 H 54"
         style="fill:none;stroke:#000000;stroke-width:1;stroke-linecap:square;stroke-linejoin:bevel;stroke-miterlimit:10;stroke-dasharray:none;stroke-opacity:1"
         id="path164" /></g><g
       id="g166"><path
         d="M 50.25,233.7 H 54"
         style="fill:none;stroke:#000000;stroke-width:1;stroke-linecap:square;stroke-linejoin:bevel;stroke-miterlimit:10;stroke-dasharray:none;stroke-opacity:1"
         id="path168" /></g><g
       id="g170"><path
         d="M 50.25,242.55 H 54"
         style="fill:none;stroke:#000000;stroke-width:1;stroke-linecap:square;stroke-linejoin:bevel;stroke-miterlimit:10;stroke-dasharray:none;stroke-opacity:1"
         id="path172" /></g><g
       id="g174"><path
         d="M 50.25,251.4 H 54"
         style="fill:none;stroke:#000000;stroke-width:1;stroke-linecap:square;stroke-linejoin:bevel;stroke-miterlimit:10;stroke-dasharray:none;stroke-opacity:1"
         id="path176" /></g><g
       id="g178"><path
         d="m 343.5,83.25 h -0.75"
         style="fill:none;stroke:#000000;stroke-width:1;stroke-linecap:square;stroke-linejoin:bevel;stroke-miterlimit:10;stroke-dasharray:none;stroke-opacity:1"
         id="path180" /></g><g
       id="g182"><path
         d="m 343.5,127.5 h -0.75"
         style="fill:none;stroke:#000000;stroke-width:1;stroke-linecap:square;stroke-linejoin:bevel;stroke-miterlimit:10;stroke-dasharray:none;stroke-opacity:1"
         id="path184" /></g><g
       id="g186"><path
         d="m 343.5,171.75 h -0.75"
         style="fill:none;stroke:#000000;stroke-width:1;stroke-linecap:square;stroke-linejoin:bevel;stroke-miterlimit:10;stroke-dasharray:none;stroke-opacity:1"
         id="path188" /></g><g
       id="g190"><path
         d="m 343.5,216 h -0.75"
         style="fill:none;stroke:#000000;stroke-width:1;stroke-linecap:square;stroke-linejoin:bevel;stroke-miterlimit:10;stroke-dasharray:none;stroke-opacity:1"
         id="path192" /></g><g
       id="g194"><path
         d="M 343.5,260.25 V 39"
         style="fill:none;stroke:#000000;stroke-width:1;stroke-linecap:square;stroke-linejoin:bevel;stroke-miterlimit:10;stroke-dasharray:none;stroke-opacity:1"
         id="path196" /></g><g
       id="g198"><path
         d="m 343.5,83.25 h -6.75"
         style="fill:none;stroke:#000000;stroke-width:1;stroke-linecap:square;stroke-linejoin:bevel;stroke-miterlimit:10;stroke-dasharray:none;stroke-opacity:1"
         id="path200" /></g><g
       id="g202"><path
         d="m 343.5,127.5 h -6.75"
         style="fill:none;stroke:#000000;stroke-width:1;stroke-linecap:square;stroke-linejoin:bevel;stroke-miterlimit:10;stroke-dasharray:none;stroke-opacity:1"
         id="path204" /></g><g
       id="g206"><path
         d="m 343.5,171.75 h -6.75"
         style="fill:none;stroke:#000000;stroke-width:1;stroke-linecap:square;stroke-linejoin:bevel;stroke-miterlimit:10;stroke-dasharray:none;stroke-opacity:1"
         id="path208" /></g><g
       id="g210"><path
         d="m 343.5,216 h -6.75"
         style="fill:none;stroke:#000000;stroke-width:1;stroke-linecap:square;stroke-linejoin:bevel;stroke-miterlimit:10;stroke-dasharray:none;stroke-opacity:1"
         id="path212" /></g><g
       id="g214"><path
         d="m 343.5,47.85 h -3.75"
         style="fill:none;stroke:#000000;stroke-width:1;stroke-linecap:square;stroke-linejoin:bevel;stroke-miterlimit:10;stroke-dasharray:none;stroke-opacity:1"
         id="path216" /></g><g
       id="g218"><path
         d="m 343.5,56.7 h -3.75"
         style="fill:none;stroke:#000000;stroke-width:1;stroke-linecap:square;stroke-linejoin:bevel;stroke-miterlimit:10;stroke-dasharray:none;stroke-opacity:1"
         id="path220" /></g><g
       id="g222"><path
         d="m 343.5,65.55 h -3.75"
         style="fill:none;stroke:#000000;stroke-width:1;stroke-linecap:square;stroke-linejoin:bevel;stroke-miterlimit:10;stroke-dasharray:none;stroke-opacity:1"
         id="path224" /></g><g
       id="g226"><path
         d="m 343.5,74.4 h -3.75"
         style="fill:none;stroke:#000000;stroke-width:1;stroke-linecap:square;stroke-linejoin:bevel;stroke-miterlimit:10;stroke-dasharray:none;stroke-opacity:1"
         id="path228" /></g><g
       id="g230"><path
         d="m 343.5,92.1 h -3.75"
         style="fill:none;stroke:#000000;stroke-width:1;stroke-linecap:square;stroke-linejoin:bevel;stroke-miterlimit:10;stroke-dasharray:none;stroke-opacity:1"
         id="path232" /></g><g
       id="g234"><path
         d="m 343.5,100.95 h -3.75"
         style="fill:none;stroke:#000000;stroke-width:1;stroke-linecap:square;stroke-linejoin:bevel;stroke-miterlimit:10;stroke-dasharray:none;stroke-opacity:1"
         id="path236" /></g><g
       id="g238"><path
         d="m 343.5,109.8 h -3.75"
         style="fill:none;stroke:#000000;stroke-width:1;stroke-linecap:square;stroke-linejoin:bevel;stroke-miterlimit:10;stroke-dasharray:none;stroke-opacity:1"
         id="path240" /></g><g
       id="g242"><path
         d="m 343.5,118.65 h -3.75"
         style="fill:none;stroke:#000000;stroke-width:1;stroke-linecap:square;stroke-linejoin:bevel;stroke-miterlimit:10;stroke-dasharray:none;stroke-opacity:1"
         id="path244" /></g><g
       id="g246"><path
         d="m 343.5,136.35 h -3.75"
         style="fill:none;stroke:#000000;stroke-width:1;stroke-linecap:square;stroke-linejoin:bevel;stroke-miterlimit:10;stroke-dasharray:none;stroke-opacity:1"
         id="path248" /></g><g
       id="g250"><path
         d="m 343.5,145.2 h -3.75"
         style="fill:none;stroke:#000000;stroke-width:1;stroke-linecap:square;stroke-linejoin:bevel;stroke-miterlimit:10;stroke-dasharray:none;stroke-opacity:1"
         id="path252" /></g><g
       id="g254"><path
         d="m 343.5,154.05 h -3.75"
         style="fill:none;stroke:#000000;stroke-width:1;stroke-linecap:square;stroke-linejoin:bevel;stroke-miterlimit:10;stroke-dasharray:none;stroke-opacity:1"
         id="path256" /></g><g
       id="g258"><path
         d="m 343.5,162.9 h -3.75"
         style="fill:none;stroke:#000000;stroke-width:1;stroke-linecap:square;stroke-linejoin:bevel;stroke-miterlimit:10;stroke-dasharray:none;stroke-opacity:1"
         id="path260" /></g><g
       id="g262"><path
         d="m 343.5,180.6 h -3.75"
         style="fill:none;stroke:#000000;stroke-width:1;stroke-linecap:square;stroke-linejoin:bevel;stroke-miterlimit:10;stroke-dasharray:none;stroke-opacity:1"
         id="path264" /></g><g
       id="g266"><path
         d="m 343.5,189.45 h -3.75"
         style="fill:none;stroke:#000000;stroke-width:1;stroke-linecap:square;stroke-linejoin:bevel;stroke-miterlimit:10;stroke-dasharray:none;stroke-opacity:1"
         id="path268" /></g><g
       id="g270"><path
         d="m 343.5,198.3 h -3.75"
         style="fill:none;stroke:#000000;stroke-width:1;stroke-linecap:square;stroke-linejoin:bevel;stroke-miterlimit:10;stroke-dasharray:none;stroke-opacity:1"
         id="path272" /></g><g
       id="g274"><path
         d="m 343.5,207.15 h -3.75"
         style="fill:none;stroke:#000000;stroke-width:1;stroke-linecap:square;stroke-linejoin:bevel;stroke-miterlimit:10;stroke-dasharray:none;stroke-opacity:1"
         id="path276" /></g><g
       id="g278"><path
         d="m 343.5,224.85 h -3.75"
         style="fill:none;stroke:#000000;stroke-width:1;stroke-linecap:square;stroke-linejoin:bevel;stroke-miterlimit:10;stroke-dasharray:none;stroke-opacity:1"
         id="path280" /></g><g
       id="g282"><path
         d="m 343.5,233.7 h -3.75"
         style="fill:none;stroke:#000000;stroke-width:1;stroke-linecap:square;stroke-linejoin:bevel;stroke-miterlimit:10;stroke-dasharray:none;stroke-opacity:1"
         id="path284" /></g><g
       id="g286"><path
         d="m 343.5,242.55 h -3.75"
         style="fill:none;stroke:#000000;stroke-width:1;stroke-linecap:square;stroke-linejoin:bevel;stroke-miterlimit:10;stroke-dasharray:none;stroke-opacity:1"
         id="path288" /></g><g
       id="g290"><path
         d="m 343.5,251.4 h -3.75"
         style="fill:none;stroke:#000000;stroke-width:1;stroke-linecap:square;stroke-linejoin:bevel;stroke-miterlimit:10;stroke-dasharray:none;stroke-opacity:1"
         id="path292" /></g><g
       id="g294"><path
         d="m 142.922,3 h 1.512 l 1.992,6.902 h -0.68 L 147.891,3 h 1.476 l 2.227,7.641 h -1.43 l -1.805,-6.95 0.621,0.129 -2.027,6.774 h -1.558 l -1.922,-6.797 h 0.504 l -1.688,6.844 h -1.617 L 142.922,3 m 13.863,0 h 0.996 v 3.223 c 0,1.441 -0.82,2.238 -2.402,2.238 -0.762,0 -1.582,-0.188 -2.215,-0.516 l 0.34,-0.972 c 0.551,0.211 1.09,0.328 1.582,0.328 0.855,0 1.312,-0.328 1.312,-0.973 V 4.031 L 156.785,3 M 154.91,2.895 c 1.184,0 2.028,0.667 2.297,1.828 l -0.457,0.211 c -0.188,-0.575 -0.727,-0.938 -1.371,-0.938 -0.539,0 -0.902,0.27 -0.902,0.68 0,0.515 0.609,0.726 2.168,0.726 v 0.774 c -2.485,0 -3.586,-0.516 -3.586,-1.699 0,-0.961 0.726,-1.582 1.851,-1.582 M 161.496,3 h 1.395 l 2.074,5.355 h -1.406 l -1.524,-4.57 h 0.363 l -1.441,4.57 H 159.41 L 161.496,3 m 8.039,-0.105 c 0.633,0 1.313,0.128 1.887,0.375 l -0.305,0.96 c -0.433,-0.175 -0.902,-0.269 -1.359,-0.269 -1.149,0 -1.77,0.644 -1.77,1.887 0,0.996 0.41,1.535 1.16,1.535 0.704,0 1.102,-0.445 1.102,-1.231 h -2.449 V 5.285 h 3.715 c 0.035,0.223 0.058,0.551 0.058,0.809 0,1.453 -0.89,2.367 -2.32,2.367 -1.594,0 -2.66,-1.137 -2.66,-2.801 0,-1.722 1.113,-2.765 2.941,-2.765 M 177.949,3 h 1.406 v 3.293 c 0,1.336 -0.75,2.145 -1.957,2.145 -0.773,0 -1.488,-0.34 -1.98,-0.938 l 0.199,-0.855 c 0.363,0.375 0.809,0.574 1.301,0.574 0.68,0 1.031,-0.387 1.031,-1.114 V 3 m -3.527,0 h 1.406 v 4.406 l -0.398,0.949 h -1.008 V 3 m 9.269,-0.094 c 0.739,0 1.442,0.34 1.934,0.949 l -0.211,0.856 c -0.328,-0.363 -0.762,-0.574 -1.207,-0.574 -0.762,0 -0.984,0.574 -0.984,1.113 v 3.105 h -1.407 V 4.934 c 0,-1.231 0.762,-2.028 1.875,-2.028 M 185.613,3 h 1.008 v 5.355 h -1.406 V 3.938 L 185.613,3 m 10.055,0 h 1.406 v 3.293 c 0,1.336 -0.738,2.145 -1.945,2.145 -0.762,0 -1.477,-0.34 -1.969,-0.938 l 0.211,-0.855 c 0.352,0.375 0.785,0.574 1.277,0.574 0.68,0 1.02,-0.387 1.02,-1.114 V 3 m -6.996,0 h 1.406 v 4.406 l -0.398,0.949 h -1.008 V 3 m 3.504,0 h 1.394 v 3.293 c 0,1.336 -0.738,2.145 -1.933,2.145 -0.774,0 -1.477,-0.34 -1.969,-0.938 l 0.199,-0.855 c 0.352,0.375 0.797,0.574 1.278,0.574 0.679,0 1.031,-0.387 1.031,-1.114 V 3 M 202.57,2.895 c 1.5,0 2.508,1.136 2.508,2.835 0,1.641 -0.949,2.731 -2.355,2.731 -0.985,0 -1.7,-0.527 -2.051,-1.418 l 0.422,-0.527 c 0.199,0.504 0.644,0.761 1.172,0.761 0.867,0 1.394,-0.632 1.394,-1.64 0,-0.961 -0.48,-1.559 -1.277,-1.559 -0.563,0 -1.02,0.293 -1.254,0.785 l -0.481,-0.715 c 0.329,-0.82 0.985,-1.253 1.922,-1.253 M 199.922,3 h 0.89 l 0.469,0.973 v 7.16 h -1.359 V 3 m 10.113,-0.105 c 0.633,0 1.313,0.128 1.887,0.375 l -0.305,0.96 c -0.433,-0.175 -0.902,-0.269 -1.359,-0.269 -1.149,0 -1.77,0.644 -1.77,1.887 0,0.996 0.41,1.535 1.16,1.535 0.704,0 1.102,-0.445 1.102,-1.231 h -2.449 V 5.285 h 3.715 c 0.035,0.223 0.058,0.551 0.058,0.809 0,1.453 -0.89,2.367 -2.32,2.367 -1.594,0 -2.66,-1.137 -2.66,-2.801 0,-1.722 1.113,-2.765 2.941,-2.765 M 214.922,3 h 1.406 v 3.68 l -0.293,1.675 h -1.113 V 3 m 1.137,3.047 c 0.293,0.656 0.879,1.043 1.535,1.043 0.222,0 0.48,-0.047 0.679,-0.117 l 0.329,1.289 c -0.235,0.093 -0.516,0.14 -0.797,0.14 -0.703,0 -1.36,-0.375 -1.746,-1.019 V 6.047 m 8.496,-5.133 0.996,0.598 c -0.821,1.254 -1.242,2.812 -1.242,4.617 0,1.605 0.398,3.082 1.23,4.559 l -1.019,0.562 c -1.043,-1.582 -1.571,-3.375 -1.571,-5.191 0,-1.993 0.539,-3.704 1.606,-5.145 m 5.461,1.981 c 0.656,0 1.265,0.14 1.769,0.41 l -0.316,0.972 c -0.375,-0.164 -0.785,-0.257 -1.137,-0.257 -0.996,0 -1.559,0.621 -1.559,1.687 0,1.008 0.504,1.57 1.465,1.57 0.387,0 0.844,-0.093 1.231,-0.246 l 0.293,1.102 c -0.457,0.211 -1.02,0.328 -1.571,0.328 -1.722,0 -2.847,-1.149 -2.847,-2.906 0,-1.676 0.996,-2.66 2.672,-2.66 M 240.668,3 h 1.406 v 3.293 c 0,1.336 -0.738,2.145 -1.945,2.145 -0.762,0 -1.477,-0.34 -1.969,-0.938 l 0.211,-0.855 c 0.352,0.375 0.785,0.574 1.277,0.574 0.68,0 1.02,-0.387 1.02,-1.114 V 3 m -6.996,0 h 1.406 v 4.406 l -0.398,0.949 h -1.008 V 3 m 3.504,0 h 1.394 v 3.293 c 0,1.336 -0.738,2.145 -1.933,2.145 -0.774,0 -1.477,-0.34 -1.969,-0.938 l 0.199,-0.855 c 0.352,0.375 0.797,0.574 1.278,0.574 0.679,0 1.031,-0.387 1.031,-1.114 V 3"
         style="fill:#000000;fill-opacity:1;fill-rule:nonzero;stroke:none"
         id="path296" /></g><g
       id="g298"><path
         d="m 244.523,8.93 h 2.075 v 0.738 h -2.075 V 8.93 m 4.149,-1.442 h 0.89 v 4.864 h -0.527 l -1.851,-0.938 0.339,-0.633 1.43,0.645 -0.281,0.281 V 7.488"
         style="fill:#000000;fill-opacity:1;fill-rule:nonzero;stroke:none"
         id="path300" /></g><g
       id="g302"><path
         d="m 251.484,0.914 c 1.067,1.441 1.606,3.152 1.606,5.145 0,1.816 -0.528,3.609 -1.57,5.191 l -1.02,-0.562 c 0.832,-1.477 1.23,-2.954 1.23,-4.559 0,-1.805 -0.421,-3.363 -1.242,-4.617 z"
         style="fill:#000000;fill-opacity:1;fill-rule:nonzero;stroke:none"
         id="path304" /></g><g
       id="g306"><path
         d="m 41.004,23.25 h 4.851 v 0.797 h -3.914 l 0.118,-0.27 c 2.613,2.461 3.492,3.739 3.492,5.063 0,1.348 -0.914,2.156 -2.321,2.156 -0.914,0 -1.781,-0.328 -2.343,-0.867 l 0.246,-0.633 c 0.586,0.469 1.312,0.703 1.91,0.703 0.984,0 1.582,-0.586 1.582,-1.5 0,-1.113 -0.891,-2.261 -3.621,-4.84 V 23.25 m 8.859,-0.105 c 1.699,0 2.754,1.488 2.754,3.984 0,2.391 -1.019,3.867 -2.683,3.867 -1.723,0 -2.801,-1.5 -2.801,-3.984 0,-2.403 1.043,-3.867 2.73,-3.867 m 0.059,0.773 c -1.149,0 -1.863,1.207 -1.863,3.211 0,1.922 0.703,3.094 1.804,3.094 1.125,0 1.828,-1.219 1.828,-3.211 0,-1.922 -0.668,-3.094 -1.769,-3.094 m 6.691,-0.773 c 1.699,0 2.754,1.488 2.754,3.984 0,2.391 -1.019,3.867 -2.683,3.867 -1.723,0 -2.801,-1.5 -2.801,-3.984 0,-2.403 1.043,-3.867 2.73,-3.867 m 0.059,0.773 c -1.149,0 -1.863,1.207 -1.863,3.211 0,1.922 0.703,3.094 1.804,3.094 1.125,0 1.828,-1.219 1.828,-3.211 0,-1.922 -0.668,-3.094 -1.769,-3.094"
         style="fill:#000000;fill-opacity:1;fill-rule:nonzero;stroke:none"
         id="path308" /></g><g
       id="g310"><path
         d="m 92.086,23.133 c 1.676,0 2.836,0.879 2.836,2.203 0,1.113 -0.856,1.898 -2.156,1.934 l -0.164,-0.129 c 1.136,0.023 1.921,0.797 1.921,1.851 0,1.219 -0.984,1.992 -2.402,1.992 -0.785,0 -1.676,-0.246 -2.32,-0.621 l 0.211,-0.679 c 0.679,0.339 1.394,0.515 1.957,0.515 0.984,0 1.699,-0.504 1.699,-1.289 0,-0.844 -0.82,-1.394 -1.945,-1.394 H 91.137 V 26.73 h 0.785 c 1.277,0 2.086,-0.55 2.086,-1.453 0,-0.855 -0.75,-1.336 -1.887,-1.336 -0.668,0 -1.559,0.164 -2.273,0.516 l -0.2,-0.738 c 0.739,-0.375 1.641,-0.586 2.438,-0.586 m 6.527,0.012 c 1.699,0 2.754,1.488 2.754,3.984 0,2.391 -1.019,3.867 -2.683,3.867 -1.723,0 -2.801,-1.5 -2.801,-3.984 0,-2.403 1.043,-3.867 2.73,-3.867 m 0.059,0.773 c -1.149,0 -1.863,1.207 -1.863,3.211 0,1.922 0.703,3.094 1.804,3.094 1.125,0 1.828,-1.219 1.828,-3.211 0,-1.922 -0.668,-3.094 -1.769,-3.094 m 6.691,-0.773 c 1.699,0 2.754,1.488 2.754,3.984 0,2.391 -1.019,3.867 -2.683,3.867 -1.723,0 -2.801,-1.5 -2.801,-3.984 0,-2.403 1.043,-3.867 2.73,-3.867 m 0.059,0.773 c -1.149,0 -1.863,1.207 -1.863,3.211 0,1.922 0.703,3.094 1.804,3.094 1.125,0 1.828,-1.219 1.828,-3.211 0,-1.922 -0.668,-3.094 -1.769,-3.094"
         style="fill:#000000;fill-opacity:1;fill-rule:nonzero;stroke:none"
         id="path312" /></g><g
       id="g314"><path
         d="m 142.066,23.145 h 0.868 v 7.746 h -0.844 l -3.832,-5.368 v -0.468 h 6.047 v 0.75 h -5.18 l 0.07,-0.188 3.047,4.36 -0.164,0.023 -0.012,-6.855 m 6.047,0 c 1.699,0 2.754,1.488 2.754,3.984 0,2.391 -1.019,3.867 -2.683,3.867 -1.723,0 -2.801,-1.5 -2.801,-3.984 0,-2.403 1.043,-3.867 2.73,-3.867 m 0.059,0.773 c -1.149,0 -1.863,1.207 -1.863,3.211 0,1.922 0.703,3.094 1.804,3.094 1.125,0 1.828,-1.219 1.828,-3.211 0,-1.922 -0.668,-3.094 -1.769,-3.094 m 6.691,-0.773 c 1.699,0 2.754,1.488 2.754,3.984 0,2.391 -1.019,3.867 -2.683,3.867 -1.723,0 -2.801,-1.5 -2.801,-3.984 0,-2.403 1.043,-3.867 2.73,-3.867 m 0.059,0.773 c -1.149,0 -1.863,1.207 -1.863,3.211 0,1.922 0.703,3.094 1.804,3.094 1.125,0 1.828,-1.219 1.828,-3.211 0,-1.922 -0.668,-3.094 -1.769,-3.094"
         style="fill:#000000;fill-opacity:1;fill-rule:nonzero;stroke:none"
         id="path316" /></g><g
       id="g318"><path
         d="m 190.184,23.145 c 1.699,0 2.847,0.96 2.847,2.46 0,1.43 -1.043,2.333 -2.754,2.333 -0.422,0 -0.843,-0.047 -1.23,-0.141 l 0.223,-0.281 0.128,2.589 h 3.27 v 0.786 h -4.102 l -0.187,-3.914 c 0.492,0.117 1.137,0.187 1.617,0.187 1.301,0 2.098,-0.598 2.098,-1.641 0,-0.984 -0.727,-1.582 -1.852,-1.582 -0.656,0 -1.383,0.188 -1.957,0.493 l -0.269,-0.727 c 0.679,-0.363 1.394,-0.562 2.168,-0.562 m 6.679,0 c 1.699,0 2.754,1.488 2.754,3.984 0,2.391 -1.019,3.867 -2.683,3.867 -1.723,0 -2.801,-1.5 -2.801,-3.984 0,-2.403 1.043,-3.867 2.73,-3.867 m 0.059,0.773 c -1.149,0 -1.863,1.207 -1.863,3.211 0,1.922 0.703,3.094 1.804,3.094 1.125,0 1.828,-1.219 1.828,-3.211 0,-1.922 -0.668,-3.094 -1.769,-3.094 m 6.691,-0.773 c 1.699,0 2.754,1.488 2.754,3.984 0,2.391 -1.019,3.867 -2.683,3.867 -1.723,0 -2.801,-1.5 -2.801,-3.984 0,-2.403 1.043,-3.867 2.73,-3.867 m 0.059,0.773 c -1.149,0 -1.863,1.207 -1.863,3.211 0,1.922 0.703,3.094 1.804,3.094 1.125,0 1.828,-1.219 1.828,-3.211 0,-1.922 -0.668,-3.094 -1.769,-3.094"
         style="fill:#000000;fill-opacity:1;fill-rule:nonzero;stroke:none"
         id="path320" /></g><g
       id="g322"><path
         d="m 239.59,23.145 c 1.476,0 2.519,1.031 2.519,2.519 0,1.371 -0.902,2.285 -2.226,2.285 -1.149,0 -2.051,-0.668 -2.309,-1.734 l 0.188,-0.469 c 0.234,0.914 0.949,1.442 1.863,1.442 0.996,0 1.617,-0.633 1.617,-1.641 0,-0.961 -0.586,-1.617 -1.547,-1.617 -1.254,0 -1.922,1.054 -1.922,3.047 0,2.144 0.774,3.222 2.391,3.222 0.539,0 1.09,-0.129 1.582,-0.375 l 0.258,0.715 c -0.598,0.316 -1.172,0.457 -1.793,0.457 -2.109,0 -3.328,-1.547 -3.328,-4.148 0,-2.344 0.984,-3.703 2.707,-3.703 m 6.773,0 c 1.699,0 2.754,1.488 2.754,3.984 0,2.391 -1.019,3.867 -2.683,3.867 -1.723,0 -2.801,-1.5 -2.801,-3.984 0,-2.403 1.043,-3.867 2.73,-3.867 m 0.059,0.773 c -1.149,0 -1.863,1.207 -1.863,3.211 0,1.922 0.703,3.094 1.804,3.094 1.125,0 1.828,-1.219 1.828,-3.211 0,-1.922 -0.668,-3.094 -1.769,-3.094 m 6.691,-0.773 c 1.699,0 2.754,1.488 2.754,3.984 0,2.391 -1.019,3.867 -2.683,3.867 -1.723,0 -2.801,-1.5 -2.801,-3.984 0,-2.403 1.043,-3.867 2.73,-3.867 m 0.059,0.773 c -1.149,0 -1.863,1.207 -1.863,3.211 0,1.922 0.703,3.094 1.804,3.094 1.125,0 1.828,-1.219 1.828,-3.211 0,-1.922 -0.668,-3.094 -1.769,-3.094"
         style="fill:#000000;fill-opacity:1;fill-rule:nonzero;stroke:none"
         id="path324" /></g><g
       id="g326"><path
         d="m 286.312,23.25 h 0.938 l 3.164,7.195 v 0.446 h -5.121 v -0.797 h 4.383 l -0.188,0.34 -3.176,-7.184 m 8.801,-0.105 c 1.699,0 2.754,1.488 2.754,3.984 0,2.391 -1.019,3.867 -2.683,3.867 -1.723,0 -2.801,-1.5 -2.801,-3.984 0,-2.403 1.043,-3.867 2.73,-3.867 m 0.059,0.773 c -1.149,0 -1.863,1.207 -1.863,3.211 0,1.922 0.703,3.094 1.804,3.094 1.125,0 1.828,-1.219 1.828,-3.211 0,-1.922 -0.668,-3.094 -1.769,-3.094 m 6.691,-0.773 c 1.699,0 2.754,1.488 2.754,3.984 0,2.391 -1.019,3.867 -2.683,3.867 -1.723,0 -2.801,-1.5 -2.801,-3.984 0,-2.403 1.043,-3.867 2.73,-3.867 m 0.059,0.773 c -1.149,0 -1.863,1.207 -1.863,3.211 0,1.922 0.703,3.094 1.804,3.094 1.125,0 1.828,-1.219 1.828,-3.211 0,-1.922 -0.668,-3.094 -1.769,-3.094"
         style="fill:#000000;fill-opacity:1;fill-rule:nonzero;stroke:none"
         id="path328" /></g><g
       id="g330"><path
         d="m 336.949,23.145 c 1.606,0 2.672,0.82 2.672,2.027 0,2.449 -4.148,1.98 -4.148,3.914 0,0.691 0.539,1.148 1.382,1.148 0.903,0 1.547,-0.504 1.547,-1.23 0,-0.703 -0.609,-1.301 -1.511,-1.488 l 0.679,-0.352 c 1.055,0.316 1.711,1.102 1.711,1.992 0,1.102 -0.961,1.84 -2.32,1.84 -1.418,0 -2.379,-0.808 -2.379,-1.992 0,-2.508 4.102,-1.922 4.102,-3.867 0,-0.739 -0.586,-1.207 -1.582,-1.207 -1.09,0 -1.864,0.539 -1.864,1.359 0,0.785 0.668,1.418 1.7,1.559 l -0.586,0.375 c -1.231,-0.164 -2.051,-1.02 -2.051,-2.063 0,-1.207 1.078,-2.015 2.648,-2.015 m 6.914,0 c 1.699,0 2.754,1.488 2.754,3.984 0,2.391 -1.019,3.867 -2.683,3.867 -1.723,0 -2.801,-1.5 -2.801,-3.984 0,-2.403 1.043,-3.867 2.73,-3.867 m 0.059,0.773 c -1.149,0 -1.863,1.207 -1.863,3.211 0,1.922 0.703,3.094 1.804,3.094 1.125,0 1.828,-1.219 1.828,-3.211 0,-1.922 -0.668,-3.094 -1.769,-3.094 m 6.691,-0.773 c 1.699,0 2.754,1.488 2.754,3.984 0,2.391 -1.019,3.867 -2.683,3.867 -1.723,0 -2.801,-1.5 -2.801,-3.984 0,-2.403 1.043,-3.867 2.73,-3.867 m 0.059,0.773 c -1.149,0 -1.863,1.207 -1.863,3.211 0,1.922 0.703,3.094 1.804,3.094 1.125,0 1.828,-1.219 1.828,-3.211 0,-1.922 -0.668,-3.094 -1.769,-3.094"
         style="fill:#000000;fill-opacity:1;fill-rule:nonzero;stroke:none"
         id="path332" /></g><g
       id="g334"><path
         d="m 99.125,39 v 0.75"
         style="fill:none;stroke:#000000;stroke-width:1;stroke-linecap:square;stroke-linejoin:bevel;stroke-miterlimit:10;stroke-dasharray:none;stroke-opacity:1"
         id="path336" /></g><g
       id="g338"><path
         d="m 148,39 v 0.75"
         style="fill:none;stroke:#000000;stroke-width:1;stroke-linecap:square;stroke-linejoin:bevel;stroke-miterlimit:10;stroke-dasharray:none;stroke-opacity:1"
         id="path340" /></g><g
       id="g342"><path
         d="m 196.875,39 v 0.75"
         style="fill:none;stroke:#000000;stroke-width:1;stroke-linecap:square;stroke-linejoin:bevel;stroke-miterlimit:10;stroke-dasharray:none;stroke-opacity:1"
         id="path344" /></g><g
       id="g346"><path
         d="m 245.75,39 v 0.75"
         style="fill:none;stroke:#000000;stroke-width:1;stroke-linecap:square;stroke-linejoin:bevel;stroke-miterlimit:10;stroke-dasharray:none;stroke-opacity:1"
         id="path348" /></g><g
       id="g350"><path
         d="m 294.625,39 v 0.75"
         style="fill:none;stroke:#000000;stroke-width:1;stroke-linecap:square;stroke-linejoin:bevel;stroke-miterlimit:10;stroke-dasharray:none;stroke-opacity:1"
         id="path352" /></g><g
       id="g354"><path
         d="M 50.25,39 H 343.5"
         style="fill:none;stroke:#000000;stroke-width:1;stroke-linecap:square;stroke-linejoin:bevel;stroke-miterlimit:10;stroke-dasharray:none;stroke-opacity:1"
         id="path356" /></g><g
       id="g358"><path
         d="m 99.125,39 v 6.75"
         style="fill:none;stroke:#000000;stroke-width:1;stroke-linecap:square;stroke-linejoin:bevel;stroke-miterlimit:10;stroke-dasharray:none;stroke-opacity:1"
         id="path360" /></g><g
       id="g362"><path
         d="m 148,39 v 6.75"
         style="fill:none;stroke:#000000;stroke-width:1;stroke-linecap:square;stroke-linejoin:bevel;stroke-miterlimit:10;stroke-dasharray:none;stroke-opacity:1"
         id="path364" /></g><g
       id="g366"><path
         d="m 196.875,39 v 6.75"
         style="fill:none;stroke:#000000;stroke-width:1;stroke-linecap:square;stroke-linejoin:bevel;stroke-miterlimit:10;stroke-dasharray:none;stroke-opacity:1"
         id="path368" /></g><g
       id="g370"><path
         d="m 245.75,39 v 6.75"
         style="fill:none;stroke:#000000;stroke-width:1;stroke-linecap:square;stroke-linejoin:bevel;stroke-miterlimit:10;stroke-dasharray:none;stroke-opacity:1"
         id="path372" /></g><g
       id="g374"><path
         d="m 294.625,39 v 6.75"
         style="fill:none;stroke:#000000;stroke-width:1;stroke-linecap:square;stroke-linejoin:bevel;stroke-miterlimit:10;stroke-dasharray:none;stroke-opacity:1"
         id="path376" /></g><g
       id="g378"><path
         d="m 60.025,39 v 3.75"
         style="fill:none;stroke:#000000;stroke-width:1;stroke-linecap:square;stroke-linejoin:bevel;stroke-miterlimit:10;stroke-dasharray:none;stroke-opacity:1"
         id="path380" /></g><g
       id="g382"><path
         d="m 69.8,39 v 3.75"
         style="fill:none;stroke:#000000;stroke-width:1;stroke-linecap:square;stroke-linejoin:bevel;stroke-miterlimit:10;stroke-dasharray:none;stroke-opacity:1"
         id="path384" /></g><g
       id="g386"><path
         d="m 79.575,39 v 3.75"
         style="fill:none;stroke:#000000;stroke-width:1;stroke-linecap:square;stroke-linejoin:bevel;stroke-miterlimit:10;stroke-dasharray:none;stroke-opacity:1"
         id="path388" /></g><g
       id="g390"><path
         d="m 89.35,39 v 3.75"
         style="fill:none;stroke:#000000;stroke-width:1;stroke-linecap:square;stroke-linejoin:bevel;stroke-miterlimit:10;stroke-dasharray:none;stroke-opacity:1"
         id="path392" /></g><g
       id="g394"><path
         d="m 108.9,39 v 3.75"
         style="fill:none;stroke:#000000;stroke-width:1;stroke-linecap:square;stroke-linejoin:bevel;stroke-miterlimit:10;stroke-dasharray:none;stroke-opacity:1"
         id="path396" /></g><g
       id="g398"><path
         d="m 118.675,39 v 3.75"
         style="fill:none;stroke:#000000;stroke-width:1;stroke-linecap:square;stroke-linejoin:bevel;stroke-miterlimit:10;stroke-dasharray:none;stroke-opacity:1"
         id="path400" /></g><g
       id="g402"><path
         d="m 128.45,39 v 3.75"
         style="fill:none;stroke:#000000;stroke-width:1;stroke-linecap:square;stroke-linejoin:bevel;stroke-miterlimit:10;stroke-dasharray:none;stroke-opacity:1"
         id="path404" /></g><g
       id="g406"><path
         d="m 138.225,39 v 3.75"
         style="fill:none;stroke:#000000;stroke-width:1;stroke-linecap:square;stroke-linejoin:bevel;stroke-miterlimit:10;stroke-dasharray:none;stroke-opacity:1"
         id="path408" /></g><g
       id="g410"><path
         d="m 157.775,39 v 3.75"
         style="fill:none;stroke:#000000;stroke-width:1;stroke-linecap:square;stroke-linejoin:bevel;stroke-miterlimit:10;stroke-dasharray:none;stroke-opacity:1"
         id="path412" /></g><g
       id="g414"><path
         d="m 167.55,39 v 3.75"
         style="fill:none;stroke:#000000;stroke-width:1;stroke-linecap:square;stroke-linejoin:bevel;stroke-miterlimit:10;stroke-dasharray:none;stroke-opacity:1"
         id="path416" /></g><g
       id="g418"><path
         d="m 177.325,39 v 3.75"
         style="fill:none;stroke:#000000;stroke-width:1;stroke-linecap:square;stroke-linejoin:bevel;stroke-miterlimit:10;stroke-dasharray:none;stroke-opacity:1"
         id="path420" /></g><g
       id="g422"><path
         d="m 187.1,39 v 3.75"
         style="fill:none;stroke:#000000;stroke-width:1;stroke-linecap:square;stroke-linejoin:bevel;stroke-miterlimit:10;stroke-dasharray:none;stroke-opacity:1"
         id="path424" /></g><g
       id="g426"><path
         d="m 206.65,39 v 3.75"
         style="fill:none;stroke:#000000;stroke-width:1;stroke-linecap:square;stroke-linejoin:bevel;stroke-miterlimit:10;stroke-dasharray:none;stroke-opacity:1"
         id="path428" /></g><g
       id="g430"><path
         d="m 216.425,39 v 3.75"
         style="fill:none;stroke:#000000;stroke-width:1;stroke-linecap:square;stroke-linejoin:bevel;stroke-miterlimit:10;stroke-dasharray:none;stroke-opacity:1"
         id="path432" /></g><g
       id="g434"><path
         d="m 226.2,39 v 3.75"
         style="fill:none;stroke:#000000;stroke-width:1;stroke-linecap:square;stroke-linejoin:bevel;stroke-miterlimit:10;stroke-dasharray:none;stroke-opacity:1"
         id="path436" /></g><g
       id="g438"><path
         d="m 235.975,39 v 3.75"
         style="fill:none;stroke:#000000;stroke-width:1;stroke-linecap:square;stroke-linejoin:bevel;stroke-miterlimit:10;stroke-dasharray:none;stroke-opacity:1"
         id="path440" /></g><g
       id="g442"><path
         d="m 255.525,39 v 3.75"
         style="fill:none;stroke:#000000;stroke-width:1;stroke-linecap:square;stroke-linejoin:bevel;stroke-miterlimit:10;stroke-dasharray:none;stroke-opacity:1"
         id="path444" /></g><g
       id="g446"><path
         d="m 265.3,39 v 3.75"
         style="fill:none;stroke:#000000;stroke-width:1;stroke-linecap:square;stroke-linejoin:bevel;stroke-miterlimit:10;stroke-dasharray:none;stroke-opacity:1"
         id="path448" /></g><g
       id="g450"><path
         d="m 275.075,39 v 3.75"
         style="fill:none;stroke:#000000;stroke-width:1;stroke-linecap:square;stroke-linejoin:bevel;stroke-miterlimit:10;stroke-dasharray:none;stroke-opacity:1"
         id="path452" /></g><g
       id="g454"><path
         d="m 284.85,39 v 3.75"
         style="fill:none;stroke:#000000;stroke-width:1;stroke-linecap:square;stroke-linejoin:bevel;stroke-miterlimit:10;stroke-dasharray:none;stroke-opacity:1"
         id="path456" /></g><g
       id="g458"><path
         d="m 304.4,39 v 3.75"
         style="fill:none;stroke:#000000;stroke-width:1;stroke-linecap:square;stroke-linejoin:bevel;stroke-miterlimit:10;stroke-dasharray:none;stroke-opacity:1"
         id="path460" /></g><g
       id="g462"><path
         d="m 314.175,39 v 3.75"
         style="fill:none;stroke:#000000;stroke-width:1;stroke-linecap:square;stroke-linejoin:bevel;stroke-miterlimit:10;stroke-dasharray:none;stroke-opacity:1"
         id="path464" /></g><g
       id="g466"><path
         d="m 323.95,39 v 3.75"
         style="fill:none;stroke:#000000;stroke-width:1;stroke-linecap:square;stroke-linejoin:bevel;stroke-miterlimit:10;stroke-dasharray:none;stroke-opacity:1"
         id="path468" /></g><g
       id="g470"><path
         d="m 333.725,39 v 3.75"
         style="fill:none;stroke:#000000;stroke-width:1;stroke-linecap:square;stroke-linejoin:bevel;stroke-miterlimit:10;stroke-dasharray:none;stroke-opacity:1"
         id="path472" /></g><g
       id="g474"><path
         d="M 99.125,260.25 V 259.5"
         style="fill:none;stroke:#000000;stroke-width:1;stroke-linecap:square;stroke-linejoin:bevel;stroke-miterlimit:10;stroke-dasharray:none;stroke-opacity:1"
         id="path476" /></g><g
       id="g478"><path
         d="M 148,260.25 V 259.5"
         style="fill:none;stroke:#000000;stroke-width:1;stroke-linecap:square;stroke-linejoin:bevel;stroke-miterlimit:10;stroke-dasharray:none;stroke-opacity:1"
         id="path480" /></g><g
       id="g482"><path
         d="M 196.875,260.25 V 259.5"
         style="fill:none;stroke:#000000;stroke-width:1;stroke-linecap:square;stroke-linejoin:bevel;stroke-miterlimit:10;stroke-dasharray:none;stroke-opacity:1"
         id="path484" /></g><g
       id="g486"><path
         d="M 245.75,260.25 V 259.5"
         style="fill:none;stroke:#000000;stroke-width:1;stroke-linecap:square;stroke-linejoin:bevel;stroke-miterlimit:10;stroke-dasharray:none;stroke-opacity:1"
         id="path488" /></g><g
       id="g490"><path
         d="M 294.625,260.25 V 259.5"
         style="fill:none;stroke:#000000;stroke-width:1;stroke-linecap:square;stroke-linejoin:bevel;stroke-miterlimit:10;stroke-dasharray:none;stroke-opacity:1"
         id="path492" /></g><g
       id="g494"><path
         d="M 50.25,260.25 H 343.5"
         style="fill:none;stroke:#000000;stroke-width:1;stroke-linecap:square;stroke-linejoin:bevel;stroke-miterlimit:10;stroke-dasharray:none;stroke-opacity:1"
         id="path496" /></g><g
       id="g498"><path
         d="M 99.125,260.25 V 253.5"
         style="fill:none;stroke:#000000;stroke-width:1;stroke-linecap:square;stroke-linejoin:bevel;stroke-miterlimit:10;stroke-dasharray:none;stroke-opacity:1"
         id="path500" /></g><g
       id="g502"><path
         d="M 148,260.25 V 253.5"
         style="fill:none;stroke:#000000;stroke-width:1;stroke-linecap:square;stroke-linejoin:bevel;stroke-miterlimit:10;stroke-dasharray:none;stroke-opacity:1"
         id="path504" /></g><g
       id="g506"><path
         d="M 196.875,260.25 V 253.5"
         style="fill:none;stroke:#000000;stroke-width:1;stroke-linecap:square;stroke-linejoin:bevel;stroke-miterlimit:10;stroke-dasharray:none;stroke-opacity:1"
         id="path508" /></g><g
       id="g510"><path
         d="M 245.75,260.25 V 253.5"
         style="fill:none;stroke:#000000;stroke-width:1;stroke-linecap:square;stroke-linejoin:bevel;stroke-miterlimit:10;stroke-dasharray:none;stroke-opacity:1"
         id="path512" /></g><g
       id="g514"><path
         d="M 294.625,260.25 V 253.5"
         style="fill:none;stroke:#000000;stroke-width:1;stroke-linecap:square;stroke-linejoin:bevel;stroke-miterlimit:10;stroke-dasharray:none;stroke-opacity:1"
         id="path516" /></g><g
       id="g518"><path
         d="M 60.025,260.25 V 256.5"
         style="fill:none;stroke:#000000;stroke-width:1;stroke-linecap:square;stroke-linejoin:bevel;stroke-miterlimit:10;stroke-dasharray:none;stroke-opacity:1"
         id="path520" /></g><g
       id="g522"><path
         d="M 69.8,260.25 V 256.5"
         style="fill:none;stroke:#000000;stroke-width:1;stroke-linecap:square;stroke-linejoin:bevel;stroke-miterlimit:10;stroke-dasharray:none;stroke-opacity:1"
         id="path524" /></g><g
       id="g526"><path
         d="M 79.575,260.25 V 256.5"
         style="fill:none;stroke:#000000;stroke-width:1;stroke-linecap:square;stroke-linejoin:bevel;stroke-miterlimit:10;stroke-dasharray:none;stroke-opacity:1"
         id="path528" /></g><g
       id="g530"><path
         d="M 89.35,260.25 V 256.5"
         style="fill:none;stroke:#000000;stroke-width:1;stroke-linecap:square;stroke-linejoin:bevel;stroke-miterlimit:10;stroke-dasharray:none;stroke-opacity:1"
         id="path532" /></g><g
       id="g534"><path
         d="M 108.9,260.25 V 256.5"
         style="fill:none;stroke:#000000;stroke-width:1;stroke-linecap:square;stroke-linejoin:bevel;stroke-miterlimit:10;stroke-dasharray:none;stroke-opacity:1"
         id="path536" /></g><g
       id="g538"><path
         d="M 118.675,260.25 V 256.5"
         style="fill:none;stroke:#000000;stroke-width:1;stroke-linecap:square;stroke-linejoin:bevel;stroke-miterlimit:10;stroke-dasharray:none;stroke-opacity:1"
         id="path540" /></g><g
       id="g542"><path
         d="M 128.45,260.25 V 256.5"
         style="fill:none;stroke:#000000;stroke-width:1;stroke-linecap:square;stroke-linejoin:bevel;stroke-miterlimit:10;stroke-dasharray:none;stroke-opacity:1"
         id="path544" /></g><g
       id="g546"><path
         d="M 138.225,260.25 V 256.5"
         style="fill:none;stroke:#000000;stroke-width:1;stroke-linecap:square;stroke-linejoin:bevel;stroke-miterlimit:10;stroke-dasharray:none;stroke-opacity:1"
         id="path548" /></g><g
       id="g550"><path
         d="M 157.775,260.25 V 256.5"
         style="fill:none;stroke:#000000;stroke-width:1;stroke-linecap:square;stroke-linejoin:bevel;stroke-miterlimit:10;stroke-dasharray:none;stroke-opacity:1"
         id="path552" /></g><g
       id="g554"><path
         d="M 167.55,260.25 V 256.5"
         style="fill:none;stroke:#000000;stroke-width:1;stroke-linecap:square;stroke-linejoin:bevel;stroke-miterlimit:10;stroke-dasharray:none;stroke-opacity:1"
         id="path556" /></g><g
       id="g558"><path
         d="M 177.325,260.25 V 256.5"
         style="fill:none;stroke:#000000;stroke-width:1;stroke-linecap:square;stroke-linejoin:bevel;stroke-miterlimit:10;stroke-dasharray:none;stroke-opacity:1"
         id="path560" /></g><g
       id="g562"><path
         d="M 187.1,260.25 V 256.5"
         style="fill:none;stroke:#000000;stroke-width:1;stroke-linecap:square;stroke-linejoin:bevel;stroke-miterlimit:10;stroke-dasharray:none;stroke-opacity:1"
         id="path564" /></g><g
       id="g566"><path
         d="M 206.65,260.25 V 256.5"
         style="fill:none;stroke:#000000;stroke-width:1;stroke-linecap:square;stroke-linejoin:bevel;stroke-miterlimit:10;stroke-dasharray:none;stroke-opacity:1"
         id="path568" /></g><g
       id="g570"><path
         d="M 216.425,260.25 V 256.5"
         style="fill:none;stroke:#000000;stroke-width:1;stroke-linecap:square;stroke-linejoin:bevel;stroke-miterlimit:10;stroke-dasharray:none;stroke-opacity:1"
         id="path572" /></g><g
       id="g574"><path
         d="M 226.2,260.25 V 256.5"
         style="fill:none;stroke:#000000;stroke-width:1;stroke-linecap:square;stroke-linejoin:bevel;stroke-miterlimit:10;stroke-dasharray:none;stroke-opacity:1"
         id="path576" /></g><g
       id="g578"><path
         d="M 235.975,260.25 V 256.5"
         style="fill:none;stroke:#000000;stroke-width:1;stroke-linecap:square;stroke-linejoin:bevel;stroke-miterlimit:10;stroke-dasharray:none;stroke-opacity:1"
         id="path580" /></g><g
       id="g582"><path
         d="M 255.525,260.25 V 256.5"
         style="fill:none;stroke:#000000;stroke-width:1;stroke-linecap:square;stroke-linejoin:bevel;stroke-miterlimit:10;stroke-dasharray:none;stroke-opacity:1"
         id="path584" /></g><g
       id="g586"><path
         d="M 265.3,260.25 V 256.5"
         style="fill:none;stroke:#000000;stroke-width:1;stroke-linecap:square;stroke-linejoin:bevel;stroke-miterlimit:10;stroke-dasharray:none;stroke-opacity:1"
         id="path588" /></g><g
       id="g590"><path
         d="M 275.075,260.25 V 256.5"
         style="fill:none;stroke:#000000;stroke-width:1;stroke-linecap:square;stroke-linejoin:bevel;stroke-miterlimit:10;stroke-dasharray:none;stroke-opacity:1"
         id="path592" /></g><g
       id="g594"><path
         d="M 284.85,260.25 V 256.5"
         style="fill:none;stroke:#000000;stroke-width:1;stroke-linecap:square;stroke-linejoin:bevel;stroke-miterlimit:10;stroke-dasharray:none;stroke-opacity:1"
         id="path596" /></g><g
       id="g598"><path
         d="M 304.4,260.25 V 256.5"
         style="fill:none;stroke:#000000;stroke-width:1;stroke-linecap:square;stroke-linejoin:bevel;stroke-miterlimit:10;stroke-dasharray:none;stroke-opacity:1"
         id="path600" /></g><g
       id="g602"><path
         d="M 314.175,260.25 V 256.5"
         style="fill:none;stroke:#000000;stroke-width:1;stroke-linecap:square;stroke-linejoin:bevel;stroke-miterlimit:10;stroke-dasharray:none;stroke-opacity:1"
         id="path604" /></g><g
       id="g606"><path
         d="M 323.95,260.25 V 256.5"
         style="fill:none;stroke:#000000;stroke-width:1;stroke-linecap:square;stroke-linejoin:bevel;stroke-miterlimit:10;stroke-dasharray:none;stroke-opacity:1"
         id="path608" /></g><g
       id="g610"><path
         d="M 333.725,260.25 V 256.5"
         style="fill:none;stroke:#000000;stroke-width:1;stroke-linecap:square;stroke-linejoin:bevel;stroke-miterlimit:10;stroke-dasharray:none;stroke-opacity:1"
         id="path612" /></g><g
       id="g614"><path
         d="m 230.25,243 h 85.5 v -30.75 h -85.5 z"
         style="fill:#ffffff;fill-opacity:0.8;fill-rule:nonzero;stroke:none"
         id="path616" /></g><g
       id="g618"><path
         d="m 230.25,243 h 85.5 v -30.75 h -85.5 z"
         style="fill:none;stroke:#000000;stroke-width:1;stroke-linecap:butt;stroke-linejoin:miter;stroke-miterlimit:10;stroke-dasharray:none;stroke-opacity:1"
         id="path620" /></g><g
       id="g622"><path
         d="m 238.5,233.25 h 24"
         style="fill:none;stroke:#000000;stroke-width:2;stroke-linecap:butt;stroke-linejoin:miter;stroke-miterlimit:10;stroke-dasharray:none;stroke-opacity:1"
         id="path624" /></g><g
       id="g626"><path
         d="m 267.082,229.5 h 0.738 v 5.59 h 1.231 c 0.89,0 1.418,-0.457 1.418,-1.231 0,-0.761 -0.469,-1.207 -1.324,-1.207 h -1.594 v -0.621 h 1.5 c 1.301,0 2.179,0.821 2.179,1.969 0,1.09 -0.808,1.746 -2.085,1.746 h -2.063 V 229.5 m 3.621,0 h 0.891 l -1.723,2.953 h -0.855 l 1.687,-2.953 m 4.242,-0.094 c 0.493,0 1.043,0.117 1.43,0.328 l -0.164,0.516 c -0.34,-0.152 -0.762,-0.258 -1.137,-0.258 -1.019,0 -1.617,0.68 -1.617,1.805 0,0.973 0.434,1.512 1.231,1.512 0.738,0 1.171,-0.469 1.171,-1.301 h -2.531 v -0.539 h 3.164 c 0.024,0.14 0.035,0.445 0.035,0.621 0,1.09 -0.715,1.84 -1.781,1.84 -1.207,0 -2.027,-0.95 -2.027,-2.285 0,-1.383 0.855,-2.239 2.226,-2.239 m 5.977,0.094 h 0.504 v 2.812 c 0,1.043 -0.61,1.618 -1.735,1.618 -0.574,0 -1.183,-0.153 -1.652,-0.422 l 0.176,-0.528 c 0.457,0.2 0.902,0.293 1.324,0.293 0.773,0 1.172,-0.316 1.172,-0.961 v -2.308 l 0.211,-0.504 m -1.535,-0.094 c 1.031,0 1.816,0.656 1.945,1.617 l -0.258,0.118 c -0.14,-0.657 -0.726,-1.102 -1.476,-1.102 -0.575,0 -0.961,0.293 -0.961,0.715 0,0.551 0.644,0.773 2.179,0.773 v 0.504 c -2.015,0 -2.894,-0.41 -2.894,-1.347 0,-0.774 0.574,-1.278 1.465,-1.278 m 5.086,0.035 c 0.234,0 0.515,0.059 0.691,0.153 L 285,230.098 c -0.105,-0.047 -0.211,-0.071 -0.316,-0.071 -0.305,0 -0.469,0.2 -0.469,0.539 v 5.579 H 283.5 v -5.672 c 0,-0.621 0.387,-1.032 0.973,-1.032"
         style="fill:#000000;fill-opacity:1;fill-rule:nonzero;stroke:none"
         id="path628" /></g><g
       id="g630"><path
         d="m 238.5,222 h 24"
         style="fill:none;stroke:#ff0000;stroke-width:2;stroke-linecap:butt;stroke-linejoin:miter;stroke-miterlimit:10;stroke-dasharray:none;stroke-opacity:1"
         id="path632" /></g><g
       id="g634"><path
         d="m 267.082,218.25 h 0.738 v 6.246 h -0.738 v -6.246 m 7.992,0 h 0.727 v 2.848 c 0,0.961 -0.633,1.582 -1.594,1.582 -0.621,0 -1.242,-0.27 -1.687,-0.75 l 0.175,-0.457 c 0.352,0.363 0.821,0.574 1.313,0.574 0.691,0 1.066,-0.399 1.066,-1.102 v -2.695 m -5.824,0 h 0.715 v 3.832 l -0.211,0.504 h -0.504 v -4.336 m 2.906,0 h 0.727 v 2.848 c 0,0.961 -0.633,1.582 -1.582,1.582 -0.633,0 -1.242,-0.27 -1.699,-0.75 l 0.175,-0.457 c 0.352,0.363 0.821,0.574 1.313,0.574 0.691,0 1.066,-0.399 1.066,-1.102 v -2.695 m 8.016,0 h 0.504 v 2.812 c 0,1.043 -0.61,1.618 -1.735,1.618 -0.574,0 -1.183,-0.153 -1.652,-0.422 l 0.176,-0.528 c 0.457,0.2 0.902,0.293 1.324,0.293 0.773,0 1.172,-0.316 1.172,-0.961 v -2.308 l 0.211,-0.504 m -1.535,-0.094 c 1.031,0 1.816,0.656 1.945,1.617 l -0.258,0.118 c -0.14,-0.657 -0.726,-1.102 -1.476,-1.102 -0.575,0 -0.961,0.293 -0.961,0.715 0,0.551 0.644,0.773 2.179,0.773 v 0.504 c -2.015,0 -2.894,-0.41 -2.894,-1.347 0,-0.774 0.574,-1.278 1.465,-1.278 m 5.672,-1.945 c 1.253,0 2.074,0.855 2.074,2.168 v 4.207 h -0.504 L 285.656,222 v -3.727 c 0,-0.972 -0.422,-1.441 -1.289,-1.441 -0.387,0 -0.855,0.094 -1.265,0.27 l -0.153,-0.551 c 0.457,-0.223 0.914,-0.34 1.36,-0.34 m 0.093,1.945 c 0.727,0 1.289,0.364 1.629,0.961 l -0.258,0.317 c -0.246,-0.399 -0.656,-0.645 -1.16,-0.645 -0.867,0 -1.429,0.68 -1.429,1.676 0,0.949 0.504,1.582 1.347,1.582 0.551,0 0.973,-0.258 1.231,-0.68 l 0.328,0.387 c -0.317,0.586 -0.867,0.926 -1.594,0.926 -1.207,0 -2.027,-0.914 -2.027,-2.285 0,-1.348 0.773,-2.239 1.933,-2.239 M 288,218.25 h 0.715 v 4.336 H 288 v -4.336 m 0.363,5.355 c 0.328,0 0.516,0.188 0.516,0.504 0,0.329 -0.188,0.516 -0.516,0.516 -0.316,0 -0.515,-0.187 -0.515,-0.516 0,-0.316 0.199,-0.504 0.515,-0.504 m 4.84,-5.355 h 0.727 v 2.848 c 0,0.961 -0.645,1.582 -1.618,1.582 -0.621,0 -1.242,-0.27 -1.71,-0.75 l 0.175,-0.457 c 0.364,0.363 0.832,0.574 1.336,0.574 0.703,0 1.09,-0.399 1.09,-1.102 v -2.695 m -2.953,0 h 0.715 v 3.832 l -0.211,0.504 h -0.504 v -4.336 m 7.922,0 h 0.504 v 2.812 c 0,1.043 -0.61,1.618 -1.735,1.618 -0.574,0 -1.183,-0.153 -1.652,-0.422 l 0.176,-0.528 c 0.457,0.2 0.902,0.293 1.324,0.293 0.773,0 1.172,-0.316 1.172,-0.961 v -2.308 l 0.211,-0.504 m -1.535,-0.094 c 1.031,0 1.816,0.656 1.945,1.617 l -0.258,0.118 c -0.14,-0.657 -0.726,-1.102 -1.476,-1.102 -0.575,0 -0.961,0.293 -0.961,0.715 0,0.551 0.644,0.773 2.179,0.773 v 0.504 c -2.015,0 -2.894,-0.41 -2.894,-1.347 0,-0.774 0.574,-1.278 1.465,-1.278 m 4.113,0.094 h 0.715 v 3.328 l -0.129,1.008 h -0.586 v -4.336 m 0.551,2.812 c 0.258,0.551 0.773,0.879 1.371,0.879 0.176,0 0.328,-0.023 0.48,-0.07 l 0.176,0.656 c -0.187,0.071 -0.375,0.106 -0.574,0.106 -0.586,0 -1.125,-0.317 -1.453,-0.844 v -0.727 m 3.48,-4.769 h 0.774 l 0.715,1.957 1.687,4.336 h -0.715 l -1.406,-3.902 h 0.187 l -1.359,3.902 h -0.809 l 1.711,-4.336 -0.785,-1.957"
         style="fill:#000000;fill-opacity:1;fill-rule:nonzero;stroke:none"
         id="path636" /></g></g></svg>
