<?xml version="1.0" encoding="UTF-8" standalone="no"?>
<svg width="134.144mm" height="101.071mm"
 viewBox="0 0 506 381"
 xmlns="http://www.w3.org/2000/svg" xmlns:xlink="http://www.w3.org/1999/xlink"  version="1.2" baseProfile="tiny">
<title>Aspartic_thz_b</title>
<desc>Generated with QtiPlot</desc>
<defs>
</defs>
<g fill="none" stroke="black" stroke-width="1" fill-rule="evenodd" stroke-linecap="square" stroke-linejoin="bevel" >

<g fill="#ffffff" fill-opacity="1" stroke="none" transform="matrix(1,0,0,1,0,0)"
font-family="Noto Sans [MONO]" font-size="13.3333" font-weight="400" font-style="normal" 
>
<path vector-effect="non-scaling-stroke" fill-rule="evenodd" d="M0,0 L507,0 L507,382 L0,382 L0,0"/>
</g>

<g fill="none" stroke="#000000" stroke-opacity="1" stroke-width="1" stroke-linecap="square" stroke-linejoin="bevel" transform="matrix(1,0,0,1,0,0)"
font-family="Noto Sans [MONO]" font-size="13.3333" font-weight="400" font-style="normal" 
>
</g>

<g fill="#ffffff" fill-opacity="0" stroke="none" transform="matrix(1,0,0,1,0,0)"
font-family="Noto Sans [MONO]" font-size="13.3333" font-weight="400" font-style="normal" 
>
<path vector-effect="non-scaling-stroke" fill-rule="evenodd" d="M5,5 L502,5 L502,372 L5,372 L5,5"/>
</g>

<g fill="none" stroke="none" transform="matrix(1,0,0,1,0,0)"
font-family="Noto Sans [MONO]" font-size="13.3333" font-weight="400" font-style="normal" 
>
<path vector-effect="non-scaling-stroke" fill-rule="evenodd" d="M5,5 L502,5 L502,372 L5,372 L5,5"/>
</g>

<g fill="none" stroke="#000000" stroke-opacity="1" stroke-width="1" stroke-linecap="square" stroke-linejoin="bevel" transform="matrix(1,0,0,1,0,0)"
font-family="Noto Sans [MONO]" font-size="13.3333" font-weight="400" font-style="normal" 
>
</g>

<g fill="#ffffff" fill-opacity="0" stroke="none" transform="matrix(1,0,0,1,0,0)"
font-family="Noto Sans [MONO]" font-size="13.3333" font-weight="400" font-style="normal" 
>
<path vector-effect="non-scaling-stroke" fill-rule="evenodd" d="M89,15 L482,15 L482,314 L89,314 L89,15"/>
</g>

<g fill="none" stroke="#000000" stroke-opacity="1" stroke-width="1" stroke-linecap="square" stroke-linejoin="bevel" transform="matrix(1,0,0,1,0,0)"
font-family="Noto Sans [MONO]" font-size="13.3333" font-weight="400" font-style="normal" 
>
</g>

<g fill="#ffffff" fill-opacity="0" stroke="none" transform="matrix(1,0,0,1,0,0)"
font-family="Noto Sans [MONO]" font-size="13.3333" font-weight="400" font-style="normal" 
>
<path vector-effect="non-scaling-stroke" fill-rule="evenodd" d="M89,15 L482,15 L482,314 L89,314 L89,15"/>
</g>

<g fill="none" stroke="#000000" stroke-opacity="1" stroke-width="1" stroke-linecap="square" stroke-linejoin="bevel" transform="matrix(1,0,0,1,0,0)"
font-family="Noto Sans [MONO]" font-size="13.3333" font-weight="400" font-style="normal" 
>
</g>

<g fill="none" stroke="#000000" stroke-opacity="1" stroke-width="1" stroke-linecap="square" stroke-linejoin="bevel" transform="matrix(1,0,0,1,0,0)"
font-family="Noto Sans [MONO]" font-size="13.3333" font-weight="400" font-style="normal" 
>
</g>

<g fill="none" stroke="#000000" stroke-opacity="1" stroke-width="1" stroke-linecap="square" stroke-linejoin="bevel" transform="matrix(1,0,0,1,0,0)"
font-family="Noto Sans [MONO]" font-size="13.3333" font-weight="400" font-style="normal" 
>
</g>

<g fill="none" stroke="#000000" stroke-opacity="1" stroke-width="4" stroke-linecap="butt" stroke-linejoin="miter" stroke-miterlimit="2" transform="matrix(1,0,0,1,0,0)"
font-family="Noto Sans [MONO]" font-size="13.3333" font-weight="400" font-style="normal" 
>
<polyline fill="none" vector-effect="non-scaling-stroke" points="89,311.87 89.1407,311.849 90,311.824 90.8593,311.795 91.7187,311.762 92.578,311.724 94.2967,311.636 95.156,311.583 96.0154,311.525 96.8747,311.459 97.7341,311.386 98.5934,311.303 100.312,311.105 101.171,310.986 102.031,310.851 102.89,310.696 103.749,310.517 104.609,310.309 106.327,309.782 107.187,309.444 108.046,309.039 108.905,308.549 109.765,307.95 110.624,307.212 111.484,306.292 112.343,305.139 113.202,303.689 114.062,301.88 114.921,299.675 115.78,297.127 116.64,294.49 117.499,292.285 118.358,291.177 119.218,291.548 120.077,293.165 120.936,295.383 121.796,297.6 122.655,299.479 123.514,300.904 124.374,301.872 125.233,302.414 126.092,302.561 126.952,302.319 127.811,301.676 128.67,300.601 129.53,299.06 130.389,297.066 131.248,294.758 132.108,292.514 132.967,290.973 133.826,290.76 134.686,292.031 135.545,294.336 136.404,296.999 137.264,299.524 138.123,301.689 138.982,303.453 139.842,304.86 140.701,305.974 141.56,306.859 142.42,307.565 143.279,308.134 144.138,308.596 144.998,308.973 145.857,309.285 146.716,309.543 147.576,309.759 149.295,310.091 150.154,310.22 151.013,310.328 151.873,310.419 152.732,310.495 153.591,310.559 155.31,310.656 156.169,310.691 157.029,310.718 157.888,310.738 158.747,310.752 159.607,310.761 161.325,310.761 162.185,310.755 163.044,310.743 163.903,310.728 164.763,310.708 165.622,310.684 167.341,310.625 168.2,310.589 169.059,310.549 169.919,310.505 170.778,310.457 171.637,310.405 173.356,310.288 174.215,310.222 175.075,310.152 175.934,310.076 176.793,309.995 177.653,309.908 178.512,309.815 180.231,309.61 181.09,309.496 181.949,309.375 182.809,309.245 183.668,309.106 184.527,308.957 186.246,308.626 187.105,308.442 187.965,308.244 188.824,308.03 189.684,307.8 190.543,307.552 191.402,307.283 192.262,306.991 193.121,306.674 193.98,306.328 194.84,305.951 195.699,305.538 196.558,305.084 198.277,304.03 199.136,303.416 199.996,302.731 200.855,301.964 201.714,301.099 202.574,300.119 203.433,299.001 204.292,297.717 205.152,296.232 206.011,294.501 206.87,292.473 207.73,290.093 208.589,287.316 209.448,284.141 210.308,280.643 211.167,276.989 212.026,273.317 212.886,269.552 213.745,265.336 214.604,260.171 215.464,253.552 216.323,244.986 217.182,233.937 218.042,219.774 218.901,201.802 219.76,179.429 220.62,152.61 221.479,122.627 222.338,92.8488 223.198,68.3509 224.057,53.6396 224.916,50.172 225.776,56.2423 226.635,68.8063 227.495,85.0875 228.354,103.147 229.213,121.814 230.073,140.439 230.932,158.672 231.791,176.306 232.651,193.161 233.51,209.019 234.369,223.597 235.229,236.602 236.088,247.839 236.947,257.29 237.807,265.102 238.666,271.516 239.525,276.784 240.385,281.134 241.244,284.753 242.103,287.789 242.963,290.358 243.822,292.55 244.681,294.435 245.541,296.068 246.4,297.491 247.259,298.739 248.119,299.841 248.978,300.817 249.837,301.687 250.697,302.466 251.556,303.166 252.415,303.797 253.275,304.368 254.134,304.887 254.993,305.36 255.853,305.791 256.712,306.187 257.571,306.55 259.29,307.194 260.149,307.479 261.009,307.744 261.868,307.989 262.727,308.218 263.587,308.43 264.446,308.629 265.305,308.815 266.165,308.989 267.024,309.152 267.884,309.305 268.743,309.449 269.602,309.584 271.321,309.832 272.18,309.946 273.04,310.053 273.899,310.155 274.758,310.252 275.618,310.343 277.336,310.512 278.196,310.591 279.055,310.666 279.914,310.737 280.774,310.805 281.633,310.869 283.352,310.99 284.211,311.047 285.07,311.101 285.93,311.152 286.789,311.202 287.648,311.249 288.508,311.295 290.226,311.38 291.086,311.42 291.945,311.459 292.804,311.496 293.664,311.532 294.523,311.567 296.242,311.632 297.101,311.662 297.96,311.692 298.82,311.721 299.679,311.748 300.538,311.775 302.257,311.826 303.116,311.85 303.976,311.873 304.835,311.896 305.695,311.917 306.554,311.938 308.273,311.979 309.132,311.998 309.991,312.016 310.851,312.034 311.71,312.052 312.569,312.069 314.288,312.101 315.147,312.116 316.007,312.131 316.866,312.146 317.725,312.16 318.585,312.174 320.303,312.2 321.163,312.212 322.022,312.225 322.881,312.237 323.741,312.248 324.6,312.259 326.319,312.281 327.178,312.291 328.037,312.301 328.897,312.311 329.756,312.321 330.615,312.33 332.334,312.348 333.193,312.357 334.053,312.365 334.912,312.373 335.771,312.381 336.631,312.389 338.349,312.403 339.209,312.411 340.068,312.418 340.927,312.424 341.787,312.431 342.646,312.437 343.505,312.444 345.224,312.456 346.084,312.461 346.943,312.467 347.802,312.472 348.662,312.478 349.521,312.483 351.24,312.493 352.099,312.498 352.958,312.502 353.818,312.507 354.677,312.511 355.536,312.515 357.255,312.523 358.114,312.527 358.974,312.531 359.833,312.534 360.692,312.538 361.552,312.541 363.27,312.548 364.13,312.551 364.989,312.554 365.848,312.556 366.708,312.559 367.567,312.562 369.286,312.566 370.145,312.568 371.004,312.571 371.864,312.572 372.723,312.574 373.582,312.576 375.301,312.579 376.16,312.58 377.02,312.581 377.879,312.582 378.738,312.583 379.598,312.584 381.316,312.585 382.176,312.585 383.035,312.586 383.895,312.585 384.754,312.585 385.613,312.585 387.332,312.583 388.191,312.582 389.051,312.581 389.91,312.579 390.769,312.577 391.629,312.575 393.347,312.57 394.207,312.567 395.066,312.563 395.925,312.559 396.785,312.554 397.644,312.549 398.503,312.543 400.222,312.53 401.081,312.522 401.941,312.513 402.8,312.503 403.659,312.492 404.519,312.479 406.237,312.448 407.097,312.43 407.956,312.408 408.815,312.384 409.675,312.355 410.534,312.321 412.253,312.235 413.112,312.178 413.971,312.109 414.831,312.024 415.69,311.92 416.549,311.789 418.268,311.425 419.127,311.183 419.987,310.909 420.846,310.636 421.705,310.424 422.565,310.337 424.284,310.57 425.143,310.782 426.002,310.978 426.862,311.133 427.721,311.239 428.58,311.296 430.299,311.277 431.158,311.203 432.018,311.082 432.877,310.908 433.736,310.671 434.596,310.355 436.314,309.418 437.174,308.766 438.033,308.003 438.892,307.208 439.752,306.543 440.611,306.224 442.33,306.95 443.189,307.728 444.048,308.522 444.908,309.228 445.767,309.81 446.626,310.275 447.486,310.641 448.345,310.928 449.204,311.154 450.064,311.332 450.923,311.474 451.782,311.586 452.642,311.675 453.501,311.747 455.22,311.847 456.079,311.88 456.938,311.905 457.798,311.922 458.657,311.932 459.516,311.935 461.235,311.926 462.095,311.914 462.954,311.896 463.813,311.873 464.673,311.845 465.532,311.811 467.251,311.724 468.11,311.671 468.969,311.61 469.829,311.541 470.688,311.461 471.547,311.371 473.266,311.15 474.125,311.015 474.985,310.86 475.844,310.681 476.703,310.474 477.563,310.232 479.281,309.612 480.141,309.212 481,308.731 " />
</g>

<g fill="none" stroke="#000000" stroke-opacity="1" stroke-width="1" stroke-linecap="square" stroke-linejoin="bevel" transform="matrix(1,0,0,1,0,0)"
font-family="Noto Sans [MONO]" font-size="13.3333" font-weight="400" font-style="normal" 
>
</g>

<g fill="none" stroke="#000000" stroke-opacity="1" stroke-width="1" stroke-linecap="square" stroke-linejoin="bevel" transform="matrix(1,0,0,1,0,0)"
font-family="Noto Sans [MONO]" font-size="13.3333" font-weight="400" font-style="normal" 
>
</g>

<g fill="none" stroke="#000000" stroke-opacity="1" stroke-width="1" stroke-linecap="square" stroke-linejoin="bevel" transform="matrix(1,0,0,1,0,0)"
font-family="Noto Sans [MONO]" font-size="13.3333" font-weight="400" font-style="normal" 
>
</g>

<g fill="none" stroke="#ff0000" stroke-opacity="1" stroke-width="2" stroke-linecap="butt" stroke-linejoin="miter" stroke-miterlimit="2" transform="matrix(1,0,0,1,0,0)"
font-family="Noto Sans [MONO]" font-size="13.3333" font-weight="400" font-style="normal" 
>
<polyline fill="none" vector-effect="non-scaling-stroke" points="89,312.147 89.1407,312.145 90,312.14 90.8593,312.134 91.7187,312.126 92.578,312.116 94.2967,312.092 95.156,312.077 96.0154,312.061 96.8747,312.043 97.7341,312.023 98.5934,312.002 100.312,311.952 101.171,311.924 102.031,311.893 102.89,311.859 103.749,311.823 104.609,311.783 106.327,311.693 107.187,311.642 108.046,311.585 108.905,311.523 109.765,311.456 110.624,311.381 112.343,311.206 113.202,311.103 114.062,310.989 114.921,310.86 115.78,310.715 116.64,310.55 117.499,310.362 118.358,310.147 119.218,309.899 120.077,309.61 120.936,309.271 121.796,308.872 122.655,308.396 123.514,307.824 124.374,307.13 125.233,306.279 126.092,305.226 126.952,303.912 127.811,302.261 128.67,300.187 129.53,297.603 130.389,294.47 131.248,290.882 132.108,287.192 132.967,284.039 133.826,282.1 134.686,281.659 135.545,282.535 136.404,284.442 137.264,287.17 138.123,290.42 138.982,293.766 139.842,296.838 140.701,299.454 141.56,301.588 142.42,303.295 143.279,304.652 144.138,305.733 144.998,306.599 145.857,307.298 146.716,307.867 147.576,308.333 148.435,308.718 149.295,309.038 150.154,309.305 151.013,309.529 151.873,309.718 152.732,309.878 153.591,310.012 155.31,310.222 156.169,310.302 157.029,310.368 157.888,310.423 158.747,310.468 159.607,310.503 161.325,310.548 162.185,310.56 163.044,310.566 163.903,310.565 164.763,310.559 165.622,310.548 167.341,310.51 168.2,310.483 169.059,310.452 169.919,310.416 170.778,310.375 171.637,310.33 173.356,310.225 174.215,310.165 175.075,310.099 175.934,310.029 176.793,309.952 177.653,309.87 178.512,309.782 180.231,309.586 181.09,309.477 181.949,309.36 182.809,309.235 183.668,309.102 184.527,308.958 186.246,308.639 187.105,308.462 187.965,308.272 188.824,308.067 189.684,307.847 190.543,307.609 191.402,307.352 192.262,307.075 193.121,306.774 193.98,306.448 194.84,306.093 195.699,305.707 196.558,305.286 198.277,304.318 199.136,303.762 199.996,303.148 200.855,302.468 201.714,301.714 202.574,300.874 203.433,299.934 204.292,298.879 205.152,297.689 206.011,296.34 206.87,294.804 207.73,293.045 208.589,291.018 209.448,288.669 210.308,285.925 211.167,282.697 212.026,278.87 212.886,274.292 213.745,268.765 214.604,262.03 215.464,253.742 216.323,243.451 217.182,230.575 218.042,214.4 218.901,194.133 219.76,169.128 220.62,139.407 221.479,106.588 222.338,74.7764 223.198,50.0673 224.057,37.6684 224.916,38.6715 225.776,49.9712 226.635,67.0767 227.495,86.5454 228.354,106.507 229.213,126.151 230.073,145.177 230.932,163.475 231.791,180.977 232.651,197.574 233.51,213.07 234.369,227.198 235.229,239.693 236.088,250.408 236.947,259.374 237.807,266.773 238.666,272.849 239.525,277.849 240.385,281.989 241.244,285.444 242.103,288.352 242.963,290.82 243.822,292.931 244.681,294.752 245.541,296.333 246.4,297.714 247.259,298.928 248.119,300 248.978,300.953 249.837,301.804 250.697,302.566 251.556,303.252 252.415,303.871 253.275,304.432 254.134,304.943 254.993,305.408 255.853,305.833 256.712,306.224 257.571,306.582 259.29,307.218 260.149,307.5 261.009,307.762 261.868,308.005 262.727,308.232 263.587,308.443 264.446,308.64 265.305,308.824 266.165,308.997 267.024,309.159 267.884,309.311 268.743,309.454 269.602,309.588 271.321,309.835 272.18,309.948 273.04,310.056 273.899,310.157 274.758,310.253 275.618,310.344 277.336,310.513 278.196,310.591 279.055,310.666 279.914,310.737 280.774,310.804 281.633,310.869 283.352,310.99 284.211,311.046 285.07,311.1 285.93,311.151 286.789,311.201 287.648,311.248 288.508,311.294 290.226,311.379 291.086,311.419 291.945,311.458 292.804,311.495 293.664,311.531 294.523,311.566 296.242,311.631 297.101,311.662 297.96,311.691 298.82,311.72 299.679,311.748 300.538,311.774 302.257,311.825 303.116,311.849 303.976,311.872 304.835,311.895 305.695,311.917 306.554,311.938 308.273,311.978 309.132,311.997 309.991,312.016 310.851,312.034 311.71,312.051 312.569,312.068 314.288,312.101 315.147,312.116 316.007,312.131 316.866,312.146 317.725,312.16 318.585,312.173 320.303,312.2 321.163,312.212 322.022,312.225 322.881,312.237 323.741,312.248 324.6,312.26 326.319,312.281 327.178,312.292 328.037,312.302 328.897,312.312 329.756,312.321 330.615,312.33 332.334,312.348 333.193,312.357 334.053,312.365 334.912,312.374 335.771,312.382 336.631,312.389 338.349,312.404 339.209,312.411 340.068,312.418 340.927,312.425 341.787,312.432 342.646,312.438 343.505,312.445 345.224,312.457 346.084,312.462 346.943,312.468 347.802,312.474 348.662,312.479 349.521,312.484 351.24,312.494 352.099,312.499 352.958,312.504 353.818,312.508 354.677,312.513 355.536,312.517 357.255,312.525 358.114,312.529 358.974,312.533 359.833,312.536 360.692,312.54 361.552,312.543 363.27,312.55 364.13,312.553 364.989,312.556 365.848,312.559 366.708,312.562 367.567,312.564 369.286,312.569 370.145,312.571 371.004,312.574 371.864,312.576 372.723,312.578 373.582,312.579 375.301,312.583 376.16,312.584 377.02,312.585 377.879,312.587 378.738,312.588 379.598,312.589 381.316,312.59 382.176,312.59 383.035,312.591 383.895,312.591 384.754,312.591 385.613,312.591 387.332,312.59 388.191,312.589 389.051,312.588 389.91,312.587 390.769,312.586 391.629,312.584 393.347,312.58 394.207,312.577 395.066,312.575 395.925,312.571 396.785,312.568 397.644,312.564 398.503,312.559 400.222,312.548 401.081,312.542 401.941,312.535 402.8,312.527 403.659,312.519 404.519,312.509 405.378,312.498 406.237,312.486 407.097,312.472 407.956,312.457 408.815,312.439 409.675,312.419 410.534,312.396 412.253,312.338 413.112,312.301 413.971,312.258 414.831,312.207 415.69,312.144 416.549,312.069 418.268,311.859 419.127,311.715 419.987,311.537 420.846,311.322 421.705,311.075 422.565,310.819 424.284,310.49 425.143,310.506 426.002,310.626 426.862,310.79 427.721,310.944 428.58,311.059 430.299,311.135 431.158,311.093 432.018,310.998 432.877,310.843 433.736,310.621 434.596,310.317 436.314,309.395 437.174,308.749 438.033,307.991 438.892,307.199 439.752,306.538 440.611,306.221 442.33,306.95 443.189,307.729 444.048,308.524 444.908,309.23 445.767,309.814 446.626,310.279 447.486,310.646 448.345,310.934 449.204,311.16 450.064,311.339 450.923,311.481 451.782,311.594 452.642,311.684 453.501,311.755 455.22,311.857 456.079,311.891 456.938,311.916 457.798,311.934 458.657,311.945 459.516,311.95 461.235,311.943 462.095,311.932 462.954,311.916 463.813,311.894 464.673,311.868 465.532,311.836 467.251,311.756 468.11,311.706 468.969,311.649 469.829,311.583 470.688,311.509 471.547,311.425 473.266,311.221 474.125,311.096 474.985,310.954 475.844,310.791 476.703,310.603 477.563,310.385 479.281,309.833 480.141,309.482 481,309.065 " />
</g>

<g fill="none" stroke="#000000" stroke-opacity="1" stroke-width="1" stroke-linecap="square" stroke-linejoin="bevel" transform="matrix(1,0,0,1,0,0)"
font-family="Noto Sans [MONO]" font-size="13.3333" font-weight="400" font-style="normal" 
>
</g>

<g fill="none" stroke="#000000" stroke-opacity="1" stroke-width="1" stroke-linecap="square" stroke-linejoin="bevel" transform="matrix(1,0,0,1,0,0)"
font-family="Noto Sans [MONO]" font-size="13.3333" font-weight="400" font-style="normal" 
>
</g>

<g fill="none" stroke="#000000" stroke-opacity="1" stroke-width="1" stroke-linecap="square" stroke-linejoin="bevel" transform="matrix(1,0,0,1,0,0)"
font-family="Noto Sans [MONO]" font-size="13.3333" font-weight="400" font-style="normal" 
>
</g>

<g fill="none" stroke="#008000" stroke-opacity="1" stroke-width="2" stroke-linecap="butt" stroke-linejoin="miter" stroke-miterlimit="2" transform="matrix(1,0,0,1,0,0)"
font-family="Noto Sans [MONO]" font-size="13.3333" font-weight="400" font-style="normal" 
>
<polyline fill="none" vector-effect="non-scaling-stroke" points="89,312.063 89.1407,312.043 90,312.02 90.8593,311.993 91.7187,311.963 92.578,311.928 94.2967,311.846 95.156,311.797 96.0154,311.742 96.8747,311.68 97.7341,311.61 98.5934,311.532 99.4527,311.444 100.312,311.344 101.171,311.23 102.031,311.099 102.89,310.949 103.749,310.776 104.609,310.574 105.468,310.337 106.327,310.057 107.187,309.723 108.046,309.322 108.905,308.834 109.765,308.236 110.624,307.494 112.343,305.399 113.202,303.927 114.062,302.084 114.921,299.833 115.78,297.23 116.64,294.538 117.499,292.305 118.358,291.231 119.218,291.729 120.077,293.567 120.936,296.08 121.796,298.64 122.655,300.899 123.514,302.746 124.374,304.196 125.233,305.309 126.092,306.148 126.952,306.767 127.811,307.209 128.67,307.501 129.53,307.665 131.248,307.644 132.108,307.458 132.967,307.142 133.826,306.677 134.686,306.032 135.545,305.165 136.404,304.02 137.264,302.532 138.123,300.637 138.982,298.314 139.842,295.664 140.701,293.025 141.56,291.029 142.42,290.378 143.279,291.356 144.138,293.581 144.998,296.334 145.857,299.028 146.716,301.373 147.576,303.296 148.435,304.833 149.295,306.048 150.154,307.012 151.013,307.779 151.873,308.396 152.732,308.895 153.591,309.304 154.451,309.641 155.31,309.921 156.169,310.156 157.029,310.354 157.888,310.522 158.747,310.665 159.607,310.788 161.325,310.983 162.185,311.062 163.044,311.129 163.903,311.187 164.763,311.237 165.622,311.28 167.341,311.347 168.2,311.372 169.059,311.394 169.919,311.411 170.778,311.424 171.637,311.433 173.356,311.442 174.215,311.442 175.075,311.44 175.934,311.434 176.793,311.426 177.653,311.415 178.512,311.402 180.231,311.367 181.09,311.346 181.949,311.322 182.809,311.295 183.668,311.266 184.527,311.233 186.246,311.158 187.105,311.115 187.965,311.069 188.824,311.018 189.684,310.963 190.543,310.902 192.262,310.763 193.121,310.684 193.98,310.596 194.84,310.499 195.699,310.392 196.558,310.271 198.277,309.984 199.136,309.81 199.996,309.611 200.855,309.38 201.714,309.109 202.574,308.789 203.433,308.404 204.292,307.939 205.152,307.369 206.011,306.665 206.87,305.793 207.73,304.725 208.589,303.451 209.448,302.032 210.308,300.648 211.167,299.615 212.026,299.259 212.886,299.67 213.745,300.622 214.604,301.765 215.464,302.838 216.323,303.721 217.182,304.389 218.042,304.861 218.901,305.169 219.76,305.342 220.62,305.404 222.338,305.262 223.198,305.079 224.057,304.829 224.916,304.515 225.776,304.136 226.635,303.69 227.495,303.174 228.354,302.581 229.213,301.904 230.073,301.132 230.932,300.252 231.791,299.248 232.651,298.1 233.51,296.783 234.369,295.266 235.229,293.511 236.088,291.467 236.947,289.073 237.807,286.25 238.666,282.893 239.525,278.869 240.385,274.002 241.244,268.061 242.103,260.739 242.963,251.636 243.822,240.241 244.681,225.931 245.541,208.039 246.4,186.075 247.259,160.215 248.119,132.088 248.978,105.346 249.837,84.8822 250.697,74.3951 251.556,74.4363 252.415,82.8983 253.275,96.8522 254.134,113.834 254.993,132.181 255.853,150.892 256.712,169.373 257.571,187.229 258.431,204.123 259.29,219.705 260.149,233.632 261.009,245.673 261.868,255.79 262.727,264.131 263.587,270.949 264.446,276.522 265.305,281.097 266.165,284.881 267.024,288.038 267.884,290.694 268.743,292.948 269.602,294.876 270.462,296.537 271.321,297.979 272.18,299.237 273.04,300.343 273.899,301.319 274.758,302.186 275.618,302.958 276.477,303.65 277.336,304.272 278.196,304.833 279.055,305.341 279.914,305.803 280.774,306.223 281.633,306.607 283.352,307.283 284.211,307.58 285.07,307.855 285.93,308.109 286.789,308.344 287.648,308.563 288.508,308.766 290.226,309.132 291.086,309.297 291.945,309.452 292.804,309.597 293.664,309.733 294.523,309.861 296.242,310.095 297.101,310.202 297.96,310.303 298.82,310.398 299.679,310.489 300.538,310.574 302.257,310.733 303.116,310.806 303.976,310.876 304.835,310.942 305.695,311.005 306.554,311.065 308.273,311.177 309.132,311.23 309.991,311.28 310.851,311.328 311.71,311.373 312.569,311.417 314.288,311.5 315.147,311.538 316.007,311.575 316.866,311.611 317.725,311.645 318.585,311.678 320.303,311.741 321.163,311.77 322.022,311.798 322.881,311.826 323.741,311.852 324.6,311.877 326.319,311.925 327.178,311.948 328.037,311.97 328.897,311.991 329.756,312.012 330.615,312.032 332.334,312.07 333.193,312.088 334.053,312.105 334.912,312.122 335.771,312.138 336.631,312.154 338.349,312.185 339.209,312.199 340.068,312.213 340.927,312.227 341.787,312.24 342.646,312.253 343.505,312.265 345.224,312.289 346.084,312.3 346.943,312.311 347.802,312.322 348.662,312.332 349.521,312.343 351.24,312.362 352.099,312.371 352.958,312.38 353.818,312.389 354.677,312.398 355.536,312.406 357.255,312.422 358.114,312.429 358.974,312.437 359.833,312.444 360.692,312.451 361.552,312.458 363.27,312.471 364.13,312.477 364.989,312.483 365.848,312.489 366.708,312.494 367.567,312.5 368.426,312.505 369.286,312.51 370.145,312.515 371.004,312.52 371.864,312.525 372.723,312.529 373.582,312.533 375.301,312.542 376.16,312.545 377.02,312.549 377.879,312.553 378.738,312.556 379.598,312.559 381.316,312.565 382.176,312.567 383.035,312.57 383.895,312.572 384.754,312.574 385.613,312.576 387.332,312.579 388.191,312.58 389.051,312.581 389.91,312.582 390.769,312.582 391.629,312.582 393.347,312.582 394.207,312.581 395.066,312.58 395.925,312.578 396.785,312.576 397.644,312.573 398.503,312.57 400.222,312.562 401.081,312.557 401.941,312.551 402.8,312.543 403.659,312.535 404.519,312.525 406.237,312.501 407.097,312.485 407.956,312.467 408.815,312.446 409.675,312.421 410.534,312.391 412.253,312.311 413.112,312.259 413.971,312.193 414.831,312.113 415.69,312.012 416.549,311.884 418.268,311.525 419.127,311.285 419.987,311.014 420.846,310.744 421.705,310.538 422.565,310.464 423.424,310.547 424.284,310.744 425.143,310.987 426.002,311.218 426.862,311.411 427.721,311.558 428.58,311.663 430.299,311.768 431.158,311.775 432.018,311.754 432.877,311.707 433.736,311.629 434.596,311.517 435.455,311.365 436.314,311.162 437.174,310.896 438.033,310.552 438.892,310.116 439.752,309.582 440.611,308.973 441.47,308.365 442.33,307.905 443.189,307.755 444.048,307.979 444.908,308.489 445.767,309.117 446.626,309.73 448.345,310.696 449.204,311.043 450.064,311.317 450.923,311.534 451.782,311.706 452.642,311.843 453.501,311.955 455.22,312.119 456.079,312.179 456.938,312.23 457.798,312.271 458.657,312.306 459.516,312.334 461.235,312.377 462.095,312.392 462.954,312.404 463.813,312.412 464.673,312.418 465.532,312.421 467.251,312.418 468.11,312.413 468.969,312.405 469.829,312.394 470.688,312.38 471.547,312.363 473.266,312.315 474.125,312.283 474.985,312.245 475.844,312.2 476.703,312.146 477.563,312.08 479.281,311.902 480.141,311.782 481,311.632 " />
</g>

<g fill="none" stroke="#000000" stroke-opacity="1" stroke-width="1" stroke-linecap="square" stroke-linejoin="bevel" transform="matrix(1,0,0,1,0,0)"
font-family="Noto Sans [MONO]" font-size="13.3333" font-weight="400" font-style="normal" 
>
</g>

<g fill="none" stroke="#000000" stroke-opacity="1" stroke-width="1" stroke-linecap="square" stroke-linejoin="bevel" transform="matrix(1,0,0,1,0,0)"
font-family="Noto Sans [MONO]" font-size="13.3333" font-weight="400" font-style="normal" 
>
</g>

<g fill="none" stroke="#000000" stroke-opacity="1" stroke-width="1" stroke-linecap="square" stroke-linejoin="bevel" transform="matrix(1,0,0,1,0,0)"
font-family="Noto Sans [MONO]" font-size="13.3333" font-weight="400" font-style="normal" 
>
</g>

<g fill="none" stroke="#0000ff" stroke-opacity="1" stroke-width="2" stroke-linecap="butt" stroke-linejoin="miter" stroke-miterlimit="2" transform="matrix(1,0,0,1,0,0)"
font-family="Noto Sans [MONO]" font-size="13.3333" font-weight="400" font-style="normal" 
>
<polyline fill="none" vector-effect="non-scaling-stroke" points="89,312.12 89.1407,312.1 90,312.077 90.8593,312.05 91.7187,312.019 92.578,311.983 94.2967,311.896 95.156,311.845 96.0154,311.786 96.8747,311.721 97.7341,311.647 98.5934,311.563 99.4527,311.469 100.312,311.361 101.171,311.239 102.031,311.099 102.89,310.938 103.749,310.752 104.609,310.536 105.468,310.283 106.327,309.984 107.187,309.628 108.046,309.201 108.905,308.684 109.765,308.051 110.624,307.269 111.484,306.294 112.343,305.069 113.202,303.529 114.062,301.605 114.921,299.257 115.78,296.54 116.64,293.718 117.499,291.346 118.358,290.135 119.218,290.503 120.077,292.218 120.936,294.595 121.796,296.985 122.655,299.019 123.514,300.569 124.374,301.63 125.233,302.237 126.092,302.42 126.952,302.191 127.811,301.536 128.67,300.42 129.53,298.801 130.389,296.673 131.248,294.147 132.108,291.576 132.967,289.612 133.826,288.998 134.686,290.061 135.545,292.431 136.404,295.371 137.264,298.26 138.123,300.784 138.982,302.863 139.842,304.53 140.701,305.856 141.56,306.911 142.42,307.756 143.279,308.44 144.138,308.997 144.998,309.457 145.857,309.839 146.716,310.161 147.576,310.433 148.435,310.666 149.295,310.866 150.154,311.039 151.013,311.19 151.873,311.322 152.732,311.439 153.591,311.542 155.31,311.715 156.169,311.789 157.029,311.854 157.888,311.914 158.747,311.968 159.607,312.016 161.325,312.1 162.185,312.137 163.044,312.17 163.903,312.2 164.763,312.228 165.622,312.253 167.341,312.297 168.2,312.316 169.059,312.333 169.919,312.349 170.778,312.363 171.637,312.375 173.356,312.396 174.215,312.404 175.075,312.411 175.934,312.417 176.793,312.421 177.653,312.425 178.512,312.427 180.231,312.427 181.09,312.425 181.949,312.421 182.809,312.416 183.668,312.409 184.527,312.401 186.246,312.378 187.105,312.363 187.965,312.346 188.824,312.326 189.684,312.302 190.543,312.275 192.262,312.207 193.121,312.165 193.98,312.117 194.84,312.06 195.699,311.995 196.558,311.918 198.277,311.721 199.136,311.594 199.996,311.441 200.855,311.257 201.714,311.034 202.574,310.758 203.433,310.417 204.292,309.99 205.152,309.452 206.011,308.77 206.87,307.908 207.73,306.832 208.589,305.535 209.448,304.079 210.308,302.663 211.167,301.642 212.026,301.38 212.886,301.988 213.745,303.221 214.604,304.69 215.464,306.099 216.323,307.312 217.182,308.301 218.042,309.089 218.901,309.712 219.76,310.206 220.62,310.6 222.338,311.174 223.198,311.385 224.057,311.559 224.916,311.706 225.776,311.829 226.635,311.933 228.354,312.1 229.213,312.167 230.073,312.226 230.932,312.277 231.791,312.322 232.651,312.362 233.51,312.398 235.229,312.459 236.088,312.484 236.947,312.508 237.807,312.529 238.666,312.548 239.525,312.566 241.244,312.596 242.103,312.61 242.963,312.622 243.822,312.633 244.681,312.644 245.541,312.654 247.259,312.671 248.119,312.679 248.978,312.686 249.837,312.692 250.697,312.699 251.556,312.704 253.275,312.715 254.134,312.719 254.993,312.724 255.853,312.728 256.712,312.732 257.571,312.735 259.29,312.742 260.149,312.745 261.009,312.747 261.868,312.75 262.727,312.752 263.587,312.754 265.305,312.758 266.165,312.76 267.024,312.762 267.884,312.763 268.743,312.765 269.602,312.766 271.321,312.768 272.18,312.769 273.04,312.77 273.899,312.77 274.758,312.771 275.618,312.772 277.336,312.772 278.196,312.773 279.055,312.773 279.914,312.773 280.774,312.773 281.633,312.773 283.352,312.773 284.211,312.773 285.07,312.772 285.93,312.772 286.789,312.771 287.648,312.771 288.508,312.77 290.226,312.769 291.086,312.768 291.945,312.767 292.804,312.767 293.664,312.766 294.523,312.765 296.242,312.762 297.101,312.761 297.96,312.76 298.82,312.758 299.679,312.757 300.538,312.755 302.257,312.752 303.116,312.751 303.976,312.749 304.835,312.747 305.695,312.745 306.554,312.743 308.273,312.739 309.132,312.737 309.991,312.734 310.851,312.732 311.71,312.729 312.569,312.727 314.288,312.722 315.147,312.719 316.007,312.716 316.866,312.713 317.725,312.71 318.585,312.707 320.303,312.7 321.163,312.696 322.022,312.693 322.881,312.689 323.741,312.685 324.6,312.681 326.319,312.673 327.178,312.668 328.037,312.664 328.897,312.659 329.756,312.654 330.615,312.649 332.334,312.639 333.193,312.633 334.053,312.628 334.912,312.622 335.771,312.616 336.631,312.61 338.349,312.596 339.209,312.589 340.068,312.582 340.927,312.575 341.787,312.567 342.646,312.559 343.505,312.551 345.224,312.534 346.084,312.525 346.943,312.515 347.802,312.505 348.662,312.495 349.521,312.484 351.24,312.462 352.099,312.45 352.958,312.438 353.818,312.425 354.677,312.411 355.536,312.397 357.255,312.367 358.114,312.352 358.974,312.335 359.833,312.318 360.692,312.299 361.552,312.281 363.27,312.24 364.13,312.218 364.989,312.195 365.848,312.171 366.708,312.146 367.567,312.119 369.286,312.062 370.145,312.03 371.004,311.997 371.864,311.963 372.723,311.926 373.582,311.887 375.301,311.801 376.16,311.755 377.02,311.705 377.879,311.652 378.738,311.595 379.598,311.534 380.457,311.469 381.316,311.399 382.176,311.324 383.035,311.243 383.895,311.155 384.754,311.061 385.613,310.958 387.332,310.725 388.191,310.592 389.051,310.447 389.91,310.287 390.769,310.111 391.629,309.916 393.347,309.46 394.207,309.191 395.066,308.888 395.925,308.547 396.785,308.161 397.644,307.72 398.503,307.214 400.222,305.954 401.081,305.161 401.941,304.227 402.8,303.116 403.659,301.784 404.519,300.172 405.378,298.201 406.237,295.768 407.097,292.736 407.956,288.929 408.815,284.124 409.675,278.073 410.534,270.555 411.393,261.54 412.253,251.494 413.112,241.751 413.971,234.538 414.831,232.07 415.69,235.109 416.549,242.465 417.409,251.921 418.268,261.483 419.127,269.98 419.987,277.006 420.846,282.616 421.705,287.068 422.565,290.657 423.424,293.616 424.284,296.083 425.143,298.13 426.002,299.811 426.862,301.178 427.721,302.283 428.58,303.17 429.44,303.877 430.299,304.432 431.158,304.856 432.018,305.166 432.877,305.371 433.736,305.477 434.596,305.486 436.314,305.199 437.174,304.885 438.033,304.435 438.892,303.825 439.752,303.02 440.611,301.972 441.47,300.617 442.33,298.871 443.189,296.623 444.048,293.739 444.908,290.079 445.767,285.551 446.626,280.239 447.486,274.62 448.345,269.753 449.204,267.086 450.064,267.634 450.923,271.188 451.782,276.5 452.642,282.201 453.501,287.417 454.36,291.809 455.22,295.359 456.079,298.181 456.938,300.416 457.798,302.192 458.657,303.613 459.516,304.761 460.376,305.695 461.235,306.464 462.095,307.1 462.954,307.632 463.813,308.078 464.673,308.455 465.532,308.775 467.251,309.278 468.11,309.474 468.969,309.641 469.829,309.781 470.688,309.897 471.547,309.992 473.266,310.122 474.125,310.159 474.985,310.178 475.844,310.177 476.703,310.157 477.563,310.114 479.281,309.951 480.141,309.821 481,309.652 " />
</g>

<g fill="none" stroke="#000000" stroke-opacity="1" stroke-width="1" stroke-linecap="square" stroke-linejoin="bevel" transform="matrix(1,0,0,1,0,0)"
font-family="Noto Sans [MONO]" font-size="13.3333" font-weight="400" font-style="normal" 
>
</g>

<g fill="none" stroke="#000000" stroke-opacity="1" stroke-width="1" stroke-linecap="square" stroke-linejoin="bevel" transform="matrix(1,0,0,1,0,0)"
font-family="Noto Sans [MONO]" font-size="13.3333" font-weight="400" font-style="normal" 
>
</g>

<g fill="none" stroke="#000000" stroke-opacity="1" stroke-width="1" stroke-linecap="square" stroke-linejoin="bevel" transform="matrix(1,0,0,1,0,0)"
font-family="Noto Sans [MONO]" font-size="13.3333" font-weight="400" font-style="normal" 
>
</g>

<g fill="none" stroke="#ff00ff" stroke-opacity="1" stroke-width="2" stroke-linecap="butt" stroke-linejoin="miter" stroke-miterlimit="2" transform="matrix(1,0,0,1,0,0)"
font-family="Noto Sans [MONO]" font-size="13.3333" font-weight="400" font-style="normal" 
>
<polyline fill="none" vector-effect="non-scaling-stroke" points="89,312.409 89.1407,312.402 90,312.394 90.8593,312.383 91.7187,312.371 92.578,312.356 94.2967,312.322 95.156,312.301 96.0154,312.279 96.8747,312.253 97.7341,312.225 98.5934,312.194 100.312,312.121 101.171,312.079 102.031,312.032 102.89,311.979 103.749,311.921 104.609,311.856 106.327,311.701 107.187,311.608 108.046,311.503 108.905,311.383 109.765,311.246 110.624,311.087 112.343,310.689 113.202,310.436 114.062,310.135 114.921,309.775 115.78,309.339 116.64,308.806 117.499,308.149 118.358,307.331 119.218,306.304 120.077,305.012 120.936,303.39 121.796,301.394 122.655,299.042 123.514,296.514 124.374,294.241 125.233,292.855 126.092,292.844 126.952,294.148 127.811,296.214 128.67,298.417 129.53,300.36 130.389,301.885 131.248,302.966 132.108,303.631 132.967,303.91 133.826,303.818 134.686,303.356 135.545,302.516 136.404,301.317 137.264,299.858 138.123,298.401 138.982,297.392 139.842,297.279 140.701,298.197 141.56,299.845 142.42,301.754 143.279,303.57 144.138,305.132 144.998,306.41 145.857,307.434 146.716,308.25 147.576,308.902 149.295,309.852 150.154,310.201 151.013,310.491 151.873,310.732 152.732,310.936 153.591,311.11 155.31,311.386 156.169,311.497 157.029,311.594 157.888,311.679 158.747,311.753 159.607,311.819 161.325,311.93 162.185,311.977 163.044,312.019 163.903,312.056 164.763,312.089 165.622,312.119 167.341,312.17 168.2,312.192 169.059,312.211 169.919,312.229 170.778,312.244 171.637,312.258 173.356,312.28 174.215,312.289 175.075,312.296 175.934,312.302 176.793,312.307 177.653,312.311 178.512,312.313 180.231,312.314 181.09,312.313 181.949,312.31 182.809,312.306 183.668,312.301 184.527,312.295 186.246,312.277 187.105,312.266 187.965,312.253 188.824,312.238 189.684,312.222 190.543,312.202 192.262,312.156 193.121,312.128 193.98,312.097 194.84,312.061 195.699,312.021 196.558,311.975 198.277,311.863 199.136,311.794 199.996,311.715 200.855,311.623 201.714,311.516 202.574,311.389 204.292,311.061 205.152,310.846 206.011,310.584 206.87,310.263 207.73,309.865 208.589,309.368 210.308,307.949 211.167,306.95 212.026,305.712 212.886,304.24 213.745,302.634 214.604,301.155 215.464,300.212 216.323,300.162 217.182,301.022 218.042,302.46 218.901,304.058 219.76,305.539 220.62,306.791 221.479,307.802 222.338,308.603 223.198,309.235 224.057,309.734 224.916,310.132 225.776,310.451 226.635,310.709 228.354,311.092 229.213,311.235 230.073,311.355 230.932,311.455 231.791,311.539 232.651,311.61 233.51,311.67 235.229,311.765 236.088,311.801 236.947,311.832 237.807,311.858 238.666,311.88 239.525,311.898 241.244,311.923 242.103,311.932 242.963,311.938 243.822,311.942 244.681,311.944 245.541,311.944 247.259,311.938 248.119,311.933 248.978,311.926 249.837,311.918 250.697,311.908 251.556,311.897 253.275,311.87 254.134,311.855 254.993,311.838 255.853,311.82 256.712,311.8 257.571,311.78 259.29,311.733 260.149,311.708 261.009,311.681 261.868,311.652 262.727,311.622 263.587,311.59 265.305,311.52 266.165,311.483 267.024,311.443 267.884,311.4 268.743,311.356 269.602,311.309 271.321,311.206 272.18,311.151 273.04,311.092 273.899,311.029 274.758,310.963 275.618,310.893 277.336,310.74 278.196,310.657 279.055,310.568 279.914,310.473 280.774,310.372 281.633,310.265 283.352,310.027 284.211,309.895 285.07,309.754 285.93,309.603 286.789,309.44 287.648,309.264 288.508,309.074 290.226,308.648 291.086,308.407 291.945,308.145 292.804,307.859 293.664,307.546 294.523,307.204 296.242,306.413 297.101,305.954 297.96,305.445 298.82,304.879 299.679,304.246 300.538,303.536 301.398,302.735 302.257,301.829 303.116,300.798 303.976,299.618 304.835,298.26 305.695,296.688 306.554,294.854 307.413,292.7 308.273,290.15 309.132,287.105 309.991,283.437 310.851,278.975 311.71,273.497 312.569,266.706 313.429,258.22 314.288,247.557 315.147,234.159 316.007,217.499 316.866,197.366 317.725,174.433 318.585,150.959 319.444,130.881 320.303,118.37 321.163,115.533 322.022,121.579 322.881,134.038 323.741,150.306 324.6,168.366 325.459,186.817 326.319,204.664 327.178,221.156 328.037,235.755 328.897,248.192 329.756,258.487 330.615,266.867 331.475,273.645 332.334,279.135 333.193,283.606 334.053,287.278 334.912,290.319 335.771,292.861 336.631,295.004 337.49,296.825 338.349,298.384 339.209,299.729 340.068,300.897 340.927,301.917 341.787,302.813 342.646,303.605 343.505,304.307 344.365,304.932 345.224,305.492 346.084,305.995 346.943,306.449 347.802,306.859 348.662,307.232 349.521,307.571 351.24,308.163 352.099,308.423 352.958,308.662 353.818,308.883 354.677,309.086 355.536,309.274 357.255,309.611 358.114,309.762 358.974,309.903 359.833,310.034 360.692,310.157 361.552,310.272 363.27,310.48 364.13,310.575 364.989,310.665 365.848,310.749 366.708,310.828 367.567,310.903 369.286,311.04 370.145,311.103 371.004,311.163 371.864,311.22 372.723,311.274 373.582,311.325 375.301,311.419 376.16,311.463 377.02,311.504 377.879,311.544 378.738,311.581 379.598,311.617 381.316,311.683 382.176,311.714 383.035,311.744 383.895,311.771 384.754,311.798 385.613,311.823 387.332,311.87 388.191,311.892 389.051,311.912 389.91,311.932 390.769,311.95 391.629,311.967 393.347,311.999 394.207,312.013 395.066,312.026 395.925,312.038 396.785,312.049 397.644,312.059 398.503,312.068 400.222,312.083 401.081,312.089 401.941,312.093 402.8,312.096 403.659,312.097 404.519,312.097 406.237,312.091 407.097,312.084 407.956,312.075 408.815,312.063 409.675,312.047 410.534,312.027 412.253,311.969 413.112,311.929 413.971,311.88 414.831,311.817 415.69,311.738 416.549,311.638 418.268,311.353 419.127,311.155 419.987,310.918 420.846,310.656 421.705,310.406 422.565,310.23 424.284,310.279 425.143,310.463 426.002,310.671 426.862,310.856 427.721,310.999 428.58,311.094 430.299,311.154 431.158,311.123 432.018,311.054 432.877,310.944 433.736,310.786 434.596,310.574 435.455,310.293 436.314,309.928 437.174,309.454 438.033,308.848 438.892,308.082 439.752,307.151 440.611,306.098 441.47,305.06 442.33,304.294 443.189,304.072 444.048,304.49 444.908,305.381 445.767,306.459 446.626,307.5 448.345,309.134 449.204,309.719 450.064,310.182 450.923,310.547 451.782,310.837 452.642,311.07 453.501,311.257 455.22,311.535 456.079,311.638 456.938,311.724 457.798,311.795 458.657,311.854 459.516,311.902 461.235,311.976 462.095,312.003 462.954,312.024 463.813,312.04 464.673,312.051 465.532,312.058 467.251,312.06 468.11,312.055 468.969,312.046 469.829,312.033 470.688,312.015 471.547,311.993 473.266,311.933 474.125,311.894 474.985,311.848 475.844,311.793 476.703,311.729 477.563,311.653 479.281,311.458 480.141,311.332 481,311.179 " />
</g>

<g fill="none" stroke="#000000" stroke-opacity="1" stroke-width="1" stroke-linecap="square" stroke-linejoin="bevel" transform="matrix(1,0,0,1,0,0)"
font-family="Noto Sans [MONO]" font-size="13.3333" font-weight="400" font-style="normal" 
>
</g>

<g fill="none" stroke="#000000" stroke-opacity="1" stroke-width="1" stroke-linecap="square" stroke-linejoin="bevel" transform="matrix(1,0,0,1,0,0)"
font-family="Noto Sans [MONO]" font-size="13.3333" font-weight="400" font-style="normal" 
>
</g>

<g fill="none" stroke="#000000" stroke-opacity="1" stroke-width="1" stroke-linecap="square" stroke-linejoin="bevel" transform="matrix(1,0,0,1,0,0)"
font-family="Noto Sans [MONO]" font-size="13.3333" font-weight="400" font-style="normal" 
>
</g>

<g fill="none" stroke="#000000" stroke-opacity="1" stroke-width="1" stroke-linecap="square" stroke-linejoin="miter" stroke-miterlimit="2" transform="matrix(1,0,0,1,0,0)"
font-family="Noto Sans [MONO]" font-size="13.3333" font-weight="400" font-style="normal" 
>
<path vector-effect="none" fill-rule="evenodd" d="M89,15 L482,15 L482,314 L89,314 L89,15"/>
</g>

<g fill="none" stroke="#000000" stroke-opacity="1" stroke-width="1" stroke-linecap="square" stroke-linejoin="bevel" transform="matrix(1,0,0,1,0,0)"
font-family="Noto Sans [MONO]" font-size="13.3333" font-weight="400" font-style="normal" 
>
</g>

<g fill="none" stroke="#212121" stroke-opacity="1" stroke-width="1" stroke-linecap="square" stroke-linejoin="bevel" transform="matrix(0,-1,1,0,5,324)"
font-family="Noto Sans UI" font-size="16" font-weight="400" font-style="italic" 
>
</g>

<g fill="none" stroke="#000000" stroke-opacity="1" stroke-width="1" stroke-linecap="square" stroke-linejoin="bevel" transform="matrix(0,-1,1,0,5,324)"
font-family="Noto Sans UI" font-size="18.6667" font-weight="700" font-style="normal" 
>
<text fill="#000000" fill-opacity="1" stroke="none" xml:space="preserve" x="23" y="20" font-family="Noto Sans UI" font-size="18.6667" font-weight="700" font-style="normal" 
 >Molar absorption (L/mol/cm)</text>
</g>

<g fill="none" stroke="#212121" stroke-opacity="1" stroke-width="1" stroke-linecap="square" stroke-linejoin="bevel" transform="matrix(0,-1,1,0,5,324)"
font-family="Noto Sans UI" font-size="16" font-weight="400" font-style="italic" 
>
</g>

<g fill="none" stroke="#000000" stroke-opacity="1" stroke-width="1" stroke-linecap="square" stroke-linejoin="bevel" transform="matrix(1,0,0,1,0,0)"
font-family="Noto Sans [MONO]" font-size="13.3333" font-weight="400" font-style="normal" 
>
</g>

<g fill="none" stroke="#000000" stroke-opacity="1" stroke-width="1" stroke-linecap="square" stroke-linejoin="bevel" transform="matrix(1,0,0,1,0,0)"
font-family="Noto Sans UI" font-size="16" font-weight="400" font-style="italic" 
>
</g>

<g fill="none" stroke="#000000" stroke-opacity="1" stroke-width="1" stroke-linecap="square" stroke-linejoin="bevel" transform="matrix(1,0,0,1,0,0)"
font-family="Noto Sans UI" font-size="16" font-weight="400" font-style="italic" 
>
</g>

<g fill="none" stroke="#212121" stroke-opacity="1" stroke-width="1" stroke-linecap="square" stroke-linejoin="bevel" transform="matrix(1,0,0,1,0,0)"
font-family="Noto Sans UI" font-size="16" font-weight="400" font-style="italic" 
>
</g>

<g fill="none" stroke="#212121" stroke-opacity="1" stroke-width="1" stroke-linecap="square" stroke-linejoin="bevel" transform="matrix(1,0,0,1,74,301)"
font-family="Noto Sans UI" font-size="16" font-weight="400" font-style="italic" 
>
<text fill="#212121" fill-opacity="1" stroke="none" xml:space="preserve" x="0" y="18" font-family="Noto Sans UI" font-size="16" font-weight="400" font-style="italic" 
 >0</text>
</g>

<g fill="none" stroke="#212121" stroke-opacity="1" stroke-width="1" stroke-linecap="square" stroke-linejoin="bevel" transform="matrix(1,0,0,1,74,301)"
font-family="Noto Sans UI" font-size="16" font-weight="400" font-style="italic" 
>
</g>

<g fill="none" stroke="#212121" stroke-opacity="1" stroke-width="1" stroke-linecap="square" stroke-linejoin="bevel" transform="matrix(1,0,0,1,0,0)"
font-family="Noto Sans UI" font-size="16" font-weight="400" font-style="italic" 
>
</g>

<g fill="none" stroke="#212121" stroke-opacity="1" stroke-width="1" stroke-linecap="square" stroke-linejoin="bevel" transform="matrix(1,0,0,1,43,227)"
font-family="Noto Sans UI" font-size="16" font-weight="400" font-style="italic" 
>
<text fill="#212121" fill-opacity="1" stroke="none" xml:space="preserve" x="0" y="18" font-family="Noto Sans UI" font-size="16" font-weight="400" font-style="italic" 
 >5,000</text>
</g>

<g fill="none" stroke="#212121" stroke-opacity="1" stroke-width="1" stroke-linecap="square" stroke-linejoin="bevel" transform="matrix(1,0,0,1,43,227)"
font-family="Noto Sans UI" font-size="16" font-weight="400" font-style="italic" 
>
</g>

<g fill="none" stroke="#212121" stroke-opacity="1" stroke-width="1" stroke-linecap="square" stroke-linejoin="bevel" transform="matrix(1,0,0,1,0,0)"
font-family="Noto Sans UI" font-size="16" font-weight="400" font-style="italic" 
>
</g>

<g fill="none" stroke="#212121" stroke-opacity="1" stroke-width="1" stroke-linecap="square" stroke-linejoin="bevel" transform="matrix(1,0,0,1,34,153)"
font-family="Noto Sans UI" font-size="16" font-weight="400" font-style="italic" 
>
<text fill="#212121" fill-opacity="1" stroke="none" xml:space="preserve" x="0" y="18" font-family="Noto Sans UI" font-size="16" font-weight="400" font-style="italic" 
 >10,000</text>
</g>

<g fill="none" stroke="#212121" stroke-opacity="1" stroke-width="1" stroke-linecap="square" stroke-linejoin="bevel" transform="matrix(1,0,0,1,34,153)"
font-family="Noto Sans UI" font-size="16" font-weight="400" font-style="italic" 
>
</g>

<g fill="none" stroke="#212121" stroke-opacity="1" stroke-width="1" stroke-linecap="square" stroke-linejoin="bevel" transform="matrix(1,0,0,1,0,0)"
font-family="Noto Sans UI" font-size="16" font-weight="400" font-style="italic" 
>
</g>

<g fill="none" stroke="#212121" stroke-opacity="1" stroke-width="1" stroke-linecap="square" stroke-linejoin="bevel" transform="matrix(1,0,0,1,34,78)"
font-family="Noto Sans UI" font-size="16" font-weight="400" font-style="italic" 
>
<text fill="#212121" fill-opacity="1" stroke="none" xml:space="preserve" x="0" y="18" font-family="Noto Sans UI" font-size="16" font-weight="400" font-style="italic" 
 >15,000</text>
</g>

<g fill="none" stroke="#212121" stroke-opacity="1" stroke-width="1" stroke-linecap="square" stroke-linejoin="bevel" transform="matrix(1,0,0,1,34,78)"
font-family="Noto Sans UI" font-size="16" font-weight="400" font-style="italic" 
>
</g>

<g fill="none" stroke="#212121" stroke-opacity="1" stroke-width="1" stroke-linecap="square" stroke-linejoin="bevel" transform="matrix(1,0,0,1,0,0)"
font-family="Noto Sans UI" font-size="16" font-weight="400" font-style="italic" 
>
</g>

<g fill="none" stroke="#212121" stroke-opacity="1" stroke-width="1" stroke-linecap="square" stroke-linejoin="bevel" transform="matrix(1,0,0,1,34,4)"
font-family="Noto Sans UI" font-size="16" font-weight="400" font-style="italic" 
>
<text fill="#212121" fill-opacity="1" stroke="none" xml:space="preserve" x="0" y="18" font-family="Noto Sans UI" font-size="16" font-weight="400" font-style="italic" 
 >20,000</text>
</g>

<g fill="none" stroke="#212121" stroke-opacity="1" stroke-width="1" stroke-linecap="square" stroke-linejoin="bevel" transform="matrix(1,0,0,1,34,4)"
font-family="Noto Sans UI" font-size="16" font-weight="400" font-style="italic" 
>
</g>

<g fill="none" stroke="#212121" stroke-opacity="1" stroke-width="1" stroke-linecap="square" stroke-linejoin="bevel" transform="matrix(1,0,0,1,0,0)"
font-family="Noto Sans UI" font-size="16" font-weight="400" font-style="italic" 
>
</g>

<g fill="none" stroke="#000000" stroke-opacity="1" stroke-width="1" stroke-linecap="square" stroke-linejoin="bevel" transform="matrix(1,0,0,1,0,0)"
font-family="Noto Sans UI" font-size="16" font-weight="400" font-style="italic" 
>
<polyline fill="none" vector-effect="non-scaling-stroke" points="89,239 90,239 " />
<polyline fill="none" vector-effect="non-scaling-stroke" points="89,165 90,165 " />
<polyline fill="none" vector-effect="non-scaling-stroke" points="89,90 90,90 " />
</g>

<g fill="none" stroke="#000000" stroke-opacity="1" stroke-width="1" stroke-linecap="square" stroke-linejoin="bevel" transform="matrix(1,0,0,1,0,0)"
font-family="Noto Sans UI" font-size="16" font-weight="400" font-style="italic" 
>
<polyline fill="none" vector-effect="non-scaling-stroke" points="89,16 89,313 " />
</g>

<g fill="none" stroke="#000000" stroke-opacity="1" stroke-width="1" stroke-linecap="square" stroke-linejoin="bevel" transform="matrix(1,0,0,1,0,0)"
font-family="Noto Sans UI" font-size="16" font-weight="400" font-style="italic" 
>
<polyline fill="none" vector-effect="non-scaling-stroke" points="89,239 98,239 " />
<polyline fill="none" vector-effect="non-scaling-stroke" points="89,165 98,165 " />
<polyline fill="none" vector-effect="non-scaling-stroke" points="89,90 98,90 " />
<polyline fill="none" vector-effect="non-scaling-stroke" points="89,301 94,301 " />
<polyline fill="none" vector-effect="non-scaling-stroke" points="89,288 94,288 " />
<polyline fill="none" vector-effect="non-scaling-stroke" points="89,264 94,264 " />
<polyline fill="none" vector-effect="non-scaling-stroke" points="89,251 94,251 " />
<polyline fill="none" vector-effect="non-scaling-stroke" points="89,226 94,226 " />
<polyline fill="none" vector-effect="non-scaling-stroke" points="89,214 94,214 " />
<polyline fill="none" vector-effect="non-scaling-stroke" points="89,189 94,189 " />
<polyline fill="none" vector-effect="non-scaling-stroke" points="89,177 94,177 " />
<polyline fill="none" vector-effect="non-scaling-stroke" points="89,152 94,152 " />
<polyline fill="none" vector-effect="non-scaling-stroke" points="89,140 94,140 " />
<polyline fill="none" vector-effect="non-scaling-stroke" points="89,115 94,115 " />
<polyline fill="none" vector-effect="non-scaling-stroke" points="89,103 94,103 " />
<polyline fill="none" vector-effect="non-scaling-stroke" points="89,78 94,78 " />
<polyline fill="none" vector-effect="non-scaling-stroke" points="89,66 94,66 " />
<polyline fill="none" vector-effect="non-scaling-stroke" points="89,41 94,41 " />
<polyline fill="none" vector-effect="non-scaling-stroke" points="89,28 94,28 " />
<polyline fill="none" vector-effect="non-scaling-stroke" points="89,276 94,276 " />
<polyline fill="none" vector-effect="non-scaling-stroke" points="89,202 94,202 " />
<polyline fill="none" vector-effect="non-scaling-stroke" points="89,127 94,127 " />
<polyline fill="none" vector-effect="non-scaling-stroke" points="89,53 94,53 " />
</g>

<g fill="none" stroke="#000000" stroke-opacity="1" stroke-width="1" stroke-linecap="square" stroke-linejoin="bevel" transform="matrix(1,0,0,1,0,0)"
font-family="Noto Sans UI" font-size="16" font-weight="400" font-style="italic" 
>
</g>

<g fill="none" stroke="#000000" stroke-opacity="1" stroke-width="1" stroke-linecap="square" stroke-linejoin="bevel" transform="matrix(1,0,0,1,0,0)"
font-family="Noto Sans [MONO]" font-size="13.3333" font-weight="400" font-style="normal" 
>
</g>

<g fill="none" stroke="#212121" stroke-opacity="1" stroke-width="1" stroke-linecap="square" stroke-linejoin="bevel" transform="matrix(1,0,0,1,74,345)"
font-family="Noto Sans UI" font-size="16" font-weight="400" font-style="italic" 
>
</g>

<g fill="none" stroke="#000000" stroke-opacity="1" stroke-width="1" stroke-linecap="square" stroke-linejoin="bevel" transform="matrix(1,0,0,1,74,345)"
font-family="Noto Sans UI" font-size="18.6667" font-weight="700" font-style="normal" 
>
</g>

<g fill="none" stroke="#000000" stroke-opacity="1" stroke-width="1" stroke-linecap="square" stroke-linejoin="bevel" transform="matrix(1,0,0,1,74,346)"
font-family="Noto Sans UI" font-size="18.6667" font-weight="700" font-style="normal" 
>
<text fill="#000000" fill-opacity="1" stroke="none" xml:space="preserve" x="122.5" y="20" font-family="Noto Sans UI" font-size="18.6667" font-weight="700" font-style="normal" 
 >Wavenumber (cm</text>
<text fill="#000000" fill-opacity="1" stroke="none" xml:space="preserve" x="288.5" y="12" font-family="Noto Sans UI" font-size="12" font-weight="700" font-style="normal" 
 >-1</text>
<text fill="#000000" fill-opacity="1" stroke="none" xml:space="preserve" x="299.5" y="20" font-family="Noto Sans UI" font-size="18.6667" font-weight="700" font-style="normal" 
 >)</text>
</g>

<g fill="none" stroke="#000000" stroke-opacity="1" stroke-width="1" stroke-linecap="square" stroke-linejoin="bevel" transform="matrix(1,0,0,1,74,345)"
font-family="Noto Sans UI" font-size="18.6667" font-weight="700" font-style="normal" 
>
</g>

<g fill="none" stroke="#212121" stroke-opacity="1" stroke-width="1" stroke-linecap="square" stroke-linejoin="bevel" transform="matrix(1,0,0,1,74,345)"
font-family="Noto Sans UI" font-size="16" font-weight="400" font-style="italic" 
>
</g>

<g fill="none" stroke="#000000" stroke-opacity="1" stroke-width="1" stroke-linecap="square" stroke-linejoin="bevel" transform="matrix(1,0,0,1,0,0)"
font-family="Noto Sans [MONO]" font-size="13.3333" font-weight="400" font-style="normal" 
>
</g>

<g fill="none" stroke="#000000" stroke-opacity="1" stroke-width="1" stroke-linecap="square" stroke-linejoin="bevel" transform="matrix(1,0,0,1,0,0)"
font-family="Noto Sans UI" font-size="16" font-weight="400" font-style="italic" 
>
</g>

<g fill="none" stroke="#000000" stroke-opacity="1" stroke-width="1" stroke-linecap="square" stroke-linejoin="bevel" transform="matrix(1,0,0,1,0,0)"
font-family="Noto Sans UI" font-size="16" font-weight="400" font-style="italic" 
>
</g>

<g fill="none" stroke="#212121" stroke-opacity="1" stroke-width="1" stroke-linecap="square" stroke-linejoin="bevel" transform="matrix(1,0,0,1,0,0)"
font-family="Noto Sans UI" font-size="16" font-weight="400" font-style="italic" 
>
</g>

<g fill="none" stroke="#212121" stroke-opacity="1" stroke-width="1" stroke-linecap="square" stroke-linejoin="bevel" transform="matrix(1,0,0,1,74,320)"
font-family="Noto Sans UI" font-size="16" font-weight="400" font-style="italic" 
>
<text fill="#212121" fill-opacity="1" stroke="none" xml:space="preserve" x="0" y="18" font-family="Noto Sans UI" font-size="16" font-weight="400" font-style="italic" 
 >1,260</text>
</g>

<g fill="none" stroke="#212121" stroke-opacity="1" stroke-width="1" stroke-linecap="square" stroke-linejoin="bevel" transform="matrix(1,0,0,1,74,320)"
font-family="Noto Sans UI" font-size="16" font-weight="400" font-style="italic" 
>
</g>

<g fill="none" stroke="#212121" stroke-opacity="1" stroke-width="1" stroke-linecap="square" stroke-linejoin="bevel" transform="matrix(1,0,0,1,0,0)"
font-family="Noto Sans UI" font-size="16" font-weight="400" font-style="italic" 
>
</g>

<g fill="none" stroke="#212121" stroke-opacity="1" stroke-width="1" stroke-linecap="square" stroke-linejoin="bevel" transform="matrix(1,0,0,1,160,320)"
font-family="Noto Sans UI" font-size="16" font-weight="400" font-style="italic" 
>
<text fill="#212121" fill-opacity="1" stroke="none" xml:space="preserve" x="0" y="18" font-family="Noto Sans UI" font-size="16" font-weight="400" font-style="italic" 
 >1,280</text>
</g>

<g fill="none" stroke="#212121" stroke-opacity="1" stroke-width="1" stroke-linecap="square" stroke-linejoin="bevel" transform="matrix(1,0,0,1,160,320)"
font-family="Noto Sans UI" font-size="16" font-weight="400" font-style="italic" 
>
</g>

<g fill="none" stroke="#212121" stroke-opacity="1" stroke-width="1" stroke-linecap="square" stroke-linejoin="bevel" transform="matrix(1,0,0,1,0,0)"
font-family="Noto Sans UI" font-size="16" font-weight="400" font-style="italic" 
>
</g>

<g fill="none" stroke="#212121" stroke-opacity="1" stroke-width="1" stroke-linecap="square" stroke-linejoin="bevel" transform="matrix(1,0,0,1,246,320)"
font-family="Noto Sans UI" font-size="16" font-weight="400" font-style="italic" 
>
<text fill="#212121" fill-opacity="1" stroke="none" xml:space="preserve" x="0" y="18" font-family="Noto Sans UI" font-size="16" font-weight="400" font-style="italic" 
 >1,300</text>
</g>

<g fill="none" stroke="#212121" stroke-opacity="1" stroke-width="1" stroke-linecap="square" stroke-linejoin="bevel" transform="matrix(1,0,0,1,246,320)"
font-family="Noto Sans UI" font-size="16" font-weight="400" font-style="italic" 
>
</g>

<g fill="none" stroke="#212121" stroke-opacity="1" stroke-width="1" stroke-linecap="square" stroke-linejoin="bevel" transform="matrix(1,0,0,1,0,0)"
font-family="Noto Sans UI" font-size="16" font-weight="400" font-style="italic" 
>
</g>

<g fill="none" stroke="#212121" stroke-opacity="1" stroke-width="1" stroke-linecap="square" stroke-linejoin="bevel" transform="matrix(1,0,0,1,332,320)"
font-family="Noto Sans UI" font-size="16" font-weight="400" font-style="italic" 
>
<text fill="#212121" fill-opacity="1" stroke="none" xml:space="preserve" x="0" y="18" font-family="Noto Sans UI" font-size="16" font-weight="400" font-style="italic" 
 >1,320</text>
</g>

<g fill="none" stroke="#212121" stroke-opacity="1" stroke-width="1" stroke-linecap="square" stroke-linejoin="bevel" transform="matrix(1,0,0,1,332,320)"
font-family="Noto Sans UI" font-size="16" font-weight="400" font-style="italic" 
>
</g>

<g fill="none" stroke="#212121" stroke-opacity="1" stroke-width="1" stroke-linecap="square" stroke-linejoin="bevel" transform="matrix(1,0,0,1,0,0)"
font-family="Noto Sans UI" font-size="16" font-weight="400" font-style="italic" 
>
</g>

<g fill="none" stroke="#212121" stroke-opacity="1" stroke-width="1" stroke-linecap="square" stroke-linejoin="bevel" transform="matrix(1,0,0,1,418,320)"
font-family="Noto Sans UI" font-size="16" font-weight="400" font-style="italic" 
>
<text fill="#212121" fill-opacity="1" stroke="none" xml:space="preserve" x="0" y="18" font-family="Noto Sans UI" font-size="16" font-weight="400" font-style="italic" 
 >1,340</text>
</g>

<g fill="none" stroke="#212121" stroke-opacity="1" stroke-width="1" stroke-linecap="square" stroke-linejoin="bevel" transform="matrix(1,0,0,1,418,320)"
font-family="Noto Sans UI" font-size="16" font-weight="400" font-style="italic" 
>
</g>

<g fill="none" stroke="#212121" stroke-opacity="1" stroke-width="1" stroke-linecap="square" stroke-linejoin="bevel" transform="matrix(1,0,0,1,0,0)"
font-family="Noto Sans UI" font-size="16" font-weight="400" font-style="italic" 
>
</g>

<g fill="none" stroke="#000000" stroke-opacity="1" stroke-width="1" stroke-linecap="square" stroke-linejoin="bevel" transform="matrix(1,0,0,1,0,0)"
font-family="Noto Sans UI" font-size="16" font-weight="400" font-style="italic" 
>
<polyline fill="none" vector-effect="non-scaling-stroke" points="180,314 180,313 " />
<polyline fill="none" vector-effect="non-scaling-stroke" points="266,314 266,313 " />
<polyline fill="none" vector-effect="non-scaling-stroke" points="352,314 352,313 " />
<polyline fill="none" vector-effect="non-scaling-stroke" points="438,314 438,313 " />
</g>

<g fill="none" stroke="#000000" stroke-opacity="1" stroke-width="1" stroke-linecap="square" stroke-linejoin="bevel" transform="matrix(1,0,0,1,0,0)"
font-family="Noto Sans UI" font-size="16" font-weight="400" font-style="italic" 
>
<polyline fill="none" vector-effect="non-scaling-stroke" points="90,314 481,314 " />
</g>

<g fill="none" stroke="#000000" stroke-opacity="1" stroke-width="1" stroke-linecap="square" stroke-linejoin="bevel" transform="matrix(1,0,0,1,0,0)"
font-family="Noto Sans UI" font-size="16" font-weight="400" font-style="italic" 
>
<polyline fill="none" vector-effect="non-scaling-stroke" points="180,314 180,305 " />
<polyline fill="none" vector-effect="non-scaling-stroke" points="266,314 266,305 " />
<polyline fill="none" vector-effect="non-scaling-stroke" points="352,314 352,305 " />
<polyline fill="none" vector-effect="non-scaling-stroke" points="438,314 438,305 " />
<polyline fill="none" vector-effect="non-scaling-stroke" points="109,314 109,309 " />
<polyline fill="none" vector-effect="non-scaling-stroke" points="123,314 123,309 " />
<polyline fill="none" vector-effect="non-scaling-stroke" points="152,314 152,309 " />
<polyline fill="none" vector-effect="non-scaling-stroke" points="166,314 166,309 " />
<polyline fill="none" vector-effect="non-scaling-stroke" points="195,314 195,309 " />
<polyline fill="none" vector-effect="non-scaling-stroke" points="209,314 209,309 " />
<polyline fill="none" vector-effect="non-scaling-stroke" points="238,314 238,309 " />
<polyline fill="none" vector-effect="non-scaling-stroke" points="252,314 252,309 " />
<polyline fill="none" vector-effect="non-scaling-stroke" points="280,314 280,309 " />
<polyline fill="none" vector-effect="non-scaling-stroke" points="295,314 295,309 " />
<polyline fill="none" vector-effect="non-scaling-stroke" points="323,314 323,309 " />
<polyline fill="none" vector-effect="non-scaling-stroke" points="338,314 338,309 " />
<polyline fill="none" vector-effect="non-scaling-stroke" points="366,314 366,309 " />
<polyline fill="none" vector-effect="non-scaling-stroke" points="381,314 381,309 " />
<polyline fill="none" vector-effect="non-scaling-stroke" points="409,314 409,309 " />
<polyline fill="none" vector-effect="non-scaling-stroke" points="424,314 424,309 " />
<polyline fill="none" vector-effect="non-scaling-stroke" points="452,314 452,309 " />
<polyline fill="none" vector-effect="non-scaling-stroke" points="467,314 467,309 " />
<polyline fill="none" vector-effect="non-scaling-stroke" points="137,314 137,309 " />
<polyline fill="none" vector-effect="non-scaling-stroke" points="223,314 223,309 " />
<polyline fill="none" vector-effect="non-scaling-stroke" points="309,314 309,309 " />
<polyline fill="none" vector-effect="non-scaling-stroke" points="395,314 395,309 " />
</g>

<g fill="none" stroke="#000000" stroke-opacity="1" stroke-width="1" stroke-linecap="square" stroke-linejoin="bevel" transform="matrix(1,0,0,1,0,0)"
font-family="Noto Sans UI" font-size="16" font-weight="400" font-style="italic" 
>
</g>

<g fill="none" stroke="#000000" stroke-opacity="1" stroke-width="1" stroke-linecap="square" stroke-linejoin="bevel" transform="matrix(1,0,0,1,0,0)"
font-family="Noto Sans [MONO]" font-size="13.3333" font-weight="400" font-style="normal" 
>
</g>

<g fill="none" stroke="#000000" stroke-opacity="1" stroke-width="1" stroke-linecap="square" stroke-linejoin="bevel" transform="matrix(1,0,0,1,0,0)"
font-family="Noto Sans [MONO]" font-size="13.3333" font-weight="400" font-style="normal" 
>
</g>

<g fill="none" stroke="#000000" stroke-opacity="1" stroke-width="1" stroke-linecap="square" stroke-linejoin="bevel" transform="matrix(1,0,0,1,344,18)"
font-family="Noto Sans [MONO]" font-size="13.3333" font-weight="400" font-style="normal" 
>
</g>

<g fill="none" stroke="#000000" stroke-opacity="1" stroke-width="1" stroke-linecap="square" stroke-linejoin="bevel" transform="matrix(1,0,0,1,344,18)"
font-family="Noto Sans [MONO]" font-size="13.3333" font-weight="400" font-style="normal" 
>
</g>

<g fill="none" stroke="#000000" stroke-opacity="1" stroke-width="4" stroke-linecap="butt" stroke-linejoin="miter" stroke-miterlimit="2" transform="matrix(1,0,0,1,344,18)"
font-family="Noto Sans [MONO]" font-size="13.3333" font-weight="400" font-style="normal" 
>
<polyline fill="none" vector-effect="non-scaling-stroke" points="11,16 43,16 " />
</g>

<g fill="none" stroke="#000000" stroke-opacity="1" stroke-width="1" stroke-linecap="square" stroke-linejoin="bevel" transform="matrix(1,0,0,1,344,18)"
font-family="Noto Sans [MONO]" font-size="13.3333" font-weight="400" font-style="normal" 
>
</g>

<g fill="none" stroke="#000000" stroke-opacity="1" stroke-width="1" stroke-linecap="square" stroke-linejoin="bevel" transform="matrix(1,0,0,1,344,18)"
font-family="Noto Sans UI" font-size="14.6667" font-weight="400" font-style="italic" 
>
<text fill="#000000" fill-opacity="1" stroke="none" xml:space="preserve" x="53" y="22" font-family="Noto Sans UI" font-size="14.6667" font-weight="400" font-style="italic" 
 >AP</text>
</g>

<g fill="none" stroke="#000000" stroke-opacity="1" stroke-width="1" stroke-linecap="square" stroke-linejoin="bevel" transform="matrix(1,0,0,1,344,18)"
font-family="Noto Sans [MONO]" font-size="13.3333" font-weight="400" font-style="normal" 
>
</g>

<g fill="none" stroke="#000000" stroke-opacity="1" stroke-width="1" stroke-linecap="square" stroke-linejoin="bevel" transform="matrix(1,0,0,1,344,18)"
font-family="Noto Sans [MONO]" font-size="13.3333" font-weight="400" font-style="normal" 
>
</g>

<g fill="none" stroke="#ff0000" stroke-opacity="1" stroke-width="2" stroke-linecap="butt" stroke-linejoin="miter" stroke-miterlimit="2" transform="matrix(1,0,0,1,344,18)"
font-family="Noto Sans [MONO]" font-size="13.3333" font-weight="400" font-style="normal" 
>
<polyline fill="none" vector-effect="non-scaling-stroke" points="11,37 43,37 " />
</g>

<g fill="none" stroke="#000000" stroke-opacity="1" stroke-width="1" stroke-linecap="square" stroke-linejoin="bevel" transform="matrix(1,0,0,1,344,18)"
font-family="Noto Sans [MONO]" font-size="13.3333" font-weight="400" font-style="normal" 
>
</g>

<g fill="none" stroke="#000000" stroke-opacity="1" stroke-width="1" stroke-linecap="square" stroke-linejoin="bevel" transform="matrix(1,0,0,1,344,18)"
font-family="Noto Sans UI" font-size="14.6667" font-weight="400" font-style="italic" 
>
<text fill="#000000" fill-opacity="1" stroke="none" xml:space="preserve" x="53" y="43" font-family="Noto Sans UI" font-size="14.6667" font-weight="400" font-style="italic" 
 >Plate (010)</text>
</g>

<g fill="none" stroke="#000000" stroke-opacity="1" stroke-width="1" stroke-linecap="square" stroke-linejoin="bevel" transform="matrix(1,0,0,1,344,18)"
font-family="Noto Sans [MONO]" font-size="13.3333" font-weight="400" font-style="normal" 
>
</g>

<g fill="none" stroke="#000000" stroke-opacity="1" stroke-width="1" stroke-linecap="square" stroke-linejoin="bevel" transform="matrix(1,0,0,1,344,18)"
font-family="Noto Sans [MONO]" font-size="13.3333" font-weight="400" font-style="normal" 
>
</g>

<g fill="none" stroke="#008000" stroke-opacity="1" stroke-width="2" stroke-linecap="butt" stroke-linejoin="miter" stroke-miterlimit="2" transform="matrix(1,0,0,1,344,18)"
font-family="Noto Sans [MONO]" font-size="13.3333" font-weight="400" font-style="normal" 
>
<polyline fill="none" vector-effect="non-scaling-stroke" points="11,58 43,58 " />
</g>

<g fill="none" stroke="#000000" stroke-opacity="1" stroke-width="1" stroke-linecap="square" stroke-linejoin="bevel" transform="matrix(1,0,0,1,344,18)"
font-family="Noto Sans [MONO]" font-size="13.3333" font-weight="400" font-style="normal" 
>
</g>

<g fill="none" stroke="#000000" stroke-opacity="1" stroke-width="1" stroke-linecap="square" stroke-linejoin="bevel" transform="matrix(1,0,0,1,344,18)"
font-family="Noto Sans UI" font-size="14.6667" font-weight="400" font-style="italic" 
>
<text fill="#000000" fill-opacity="1" stroke="none" xml:space="preserve" x="53" y="64" font-family="Noto Sans UI" font-size="14.6667" font-weight="400" font-style="italic" 
 >Plate (001)</text>
</g>

<g fill="none" stroke="#000000" stroke-opacity="1" stroke-width="1" stroke-linecap="square" stroke-linejoin="bevel" transform="matrix(1,0,0,1,344,18)"
font-family="Noto Sans [MONO]" font-size="13.3333" font-weight="400" font-style="normal" 
>
</g>

<g fill="none" stroke="#000000" stroke-opacity="1" stroke-width="1" stroke-linecap="square" stroke-linejoin="bevel" transform="matrix(1,0,0,1,344,18)"
font-family="Noto Sans [MONO]" font-size="13.3333" font-weight="400" font-style="normal" 
>
</g>

<g fill="none" stroke="#0000ff" stroke-opacity="1" stroke-width="2" stroke-linecap="butt" stroke-linejoin="miter" stroke-miterlimit="2" transform="matrix(1,0,0,1,344,18)"
font-family="Noto Sans [MONO]" font-size="13.3333" font-weight="400" font-style="normal" 
>
<polyline fill="none" vector-effect="non-scaling-stroke" points="11,79 43,79 " />
</g>

<g fill="none" stroke="#000000" stroke-opacity="1" stroke-width="1" stroke-linecap="square" stroke-linejoin="bevel" transform="matrix(1,0,0,1,344,18)"
font-family="Noto Sans [MONO]" font-size="13.3333" font-weight="400" font-style="normal" 
>
</g>

<g fill="none" stroke="#000000" stroke-opacity="1" stroke-width="1" stroke-linecap="square" stroke-linejoin="bevel" transform="matrix(1,0,0,1,344,18)"
font-family="Noto Sans UI" font-size="14.6667" font-weight="400" font-style="italic" 
>
<text fill="#000000" fill-opacity="1" stroke="none" xml:space="preserve" x="53" y="85" font-family="Noto Sans UI" font-size="14.6667" font-weight="400" font-style="italic" 
 >Plate (100)</text>
</g>

<g fill="none" stroke="#000000" stroke-opacity="1" stroke-width="1" stroke-linecap="square" stroke-linejoin="bevel" transform="matrix(1,0,0,1,344,18)"
font-family="Noto Sans [MONO]" font-size="13.3333" font-weight="400" font-style="normal" 
>
</g>

<g fill="none" stroke="#000000" stroke-opacity="1" stroke-width="1" stroke-linecap="square" stroke-linejoin="bevel" transform="matrix(1,0,0,1,344,18)"
font-family="Noto Sans [MONO]" font-size="13.3333" font-weight="400" font-style="normal" 
>
</g>

<g fill="none" stroke="#ff00ff" stroke-opacity="1" stroke-width="2" stroke-linecap="butt" stroke-linejoin="miter" stroke-miterlimit="2" transform="matrix(1,0,0,1,344,18)"
font-family="Noto Sans [MONO]" font-size="13.3333" font-weight="400" font-style="normal" 
>
<polyline fill="none" vector-effect="non-scaling-stroke" points="11,100 43,100 " />
</g>

<g fill="none" stroke="#000000" stroke-opacity="1" stroke-width="1" stroke-linecap="square" stroke-linejoin="bevel" transform="matrix(1,0,0,1,344,18)"
font-family="Noto Sans [MONO]" font-size="13.3333" font-weight="400" font-style="normal" 
>
</g>

<g fill="none" stroke="#000000" stroke-opacity="1" stroke-width="1" stroke-linecap="square" stroke-linejoin="bevel" transform="matrix(1,0,0,1,344,18)"
font-family="Noto Sans UI" font-size="14.6667" font-weight="400" font-style="italic" 
>
<text fill="#000000" fill-opacity="1" stroke="none" xml:space="preserve" x="53" y="106" font-family="Noto Sans UI" font-size="14.6667" font-weight="400" font-style="italic" 
 >Sphere</text>
</g>

<g fill="none" stroke="#000000" stroke-opacity="1" stroke-width="1" stroke-linecap="square" stroke-linejoin="bevel" transform="matrix(1,0,0,1,344,18)"
font-family="Noto Sans [MONO]" font-size="13.3333" font-weight="400" font-style="normal" 
>
</g>

<g fill="none" stroke="#000000" stroke-opacity="1" stroke-width="1" stroke-linecap="square" stroke-linejoin="bevel" transform="matrix(1,0,0,1,0,0)"
font-family="Noto Sans [MONO]" font-size="13.3333" font-weight="400" font-style="normal" 
>
</g>

<g fill="none" stroke="#000000" stroke-opacity="1" stroke-width="1" stroke-linecap="square" stroke-linejoin="bevel" transform="matrix(1,0,0,1,0,0)"
font-family="Noto Sans [MONO]" font-size="13.3333" font-weight="400" font-style="normal" 
>
</g>
</g>
</svg>
