<?xml version="1.0" encoding="UTF-8" standalone="no"?>
<svg width="136.26mm" height="101.071mm"
 viewBox="0 0 514 381"
 xmlns="http://www.w3.org/2000/svg" xmlns:xlink="http://www.w3.org/1999/xlink"  version="1.2" baseProfile="tiny">
<title>Fluoroapatite_absorption</title>
<desc>Generated with QtiPlot</desc>
<defs>
</defs>
<g fill="none" stroke="black" stroke-width="1" fill-rule="evenodd" stroke-linecap="square" stroke-linejoin="bevel" >

<g fill="#ffffff" fill-opacity="1" stroke="none" transform="matrix(1,0,0,1,0,0)"
font-family="Noto Sans [MONO]" font-size="13.3333" font-weight="400" font-style="normal" 
>
<path vector-effect="non-scaling-stroke" fill-rule="evenodd" d="M0,0 L515,0 L515,382 L0,382 L0,0"/>
</g>

<g fill="none" stroke="#000000" stroke-opacity="1" stroke-width="1" stroke-linecap="square" stroke-linejoin="bevel" transform="matrix(1,0,0,1,0,0)"
font-family="Noto Sans [MONO]" font-size="13.3333" font-weight="400" font-style="normal" 
>
</g>

<g fill="#ffffff" fill-opacity="0" stroke="none" transform="matrix(1,0,0,1,0,0)"
font-family="Noto Sans [MONO]" font-size="13.3333" font-weight="400" font-style="normal" 
>
<path vector-effect="non-scaling-stroke" fill-rule="evenodd" d="M5,5 L510,5 L510,372 L5,372 L5,5"/>
</g>

<g fill="none" stroke="none" transform="matrix(1,0,0,1,0,0)"
font-family="Noto Sans [MONO]" font-size="13.3333" font-weight="400" font-style="normal" 
>
<path vector-effect="non-scaling-stroke" fill-rule="evenodd" d="M5,5 L510,5 L510,372 L5,372 L5,5"/>
</g>

<g fill="none" stroke="#000000" stroke-opacity="1" stroke-width="1" stroke-linecap="square" stroke-linejoin="bevel" transform="matrix(1,0,0,1,0,0)"
font-family="Noto Sans [MONO]" font-size="13.3333" font-weight="400" font-style="normal" 
>
</g>

<g fill="#ffffff" fill-opacity="0" stroke="none" transform="matrix(1,0,0,1,0,0)"
font-family="Noto Sans [MONO]" font-size="13.3333" font-weight="400" font-style="normal" 
>
<path vector-effect="non-scaling-stroke" fill-rule="evenodd" d="M89,15 L490,15 L490,314 L89,314 L89,15"/>
</g>

<g fill="none" stroke="#000000" stroke-opacity="1" stroke-width="1" stroke-linecap="square" stroke-linejoin="bevel" transform="matrix(1,0,0,1,0,0)"
font-family="Noto Sans [MONO]" font-size="13.3333" font-weight="400" font-style="normal" 
>
</g>

<g fill="#ffffff" fill-opacity="0" stroke="none" transform="matrix(1,0,0,1,0,0)"
font-family="Noto Sans [MONO]" font-size="13.3333" font-weight="400" font-style="normal" 
>
<path vector-effect="non-scaling-stroke" fill-rule="evenodd" d="M89,15 L490,15 L490,314 L89,314 L89,15"/>
</g>

<g fill="none" stroke="#000000" stroke-opacity="1" stroke-width="1" stroke-linecap="square" stroke-linejoin="bevel" transform="matrix(1,0,0,1,0,0)"
font-family="Noto Sans [MONO]" font-size="13.3333" font-weight="400" font-style="normal" 
>
</g>

<g fill="none" stroke="#000000" stroke-opacity="1" stroke-width="1" stroke-linecap="square" stroke-linejoin="bevel" transform="matrix(1,0,0,1,0,0)"
font-family="Noto Sans [MONO]" font-size="13.3333" font-weight="400" font-style="normal" 
>
</g>

<g fill="none" stroke="#000000" stroke-opacity="1" stroke-width="1" stroke-linecap="square" stroke-linejoin="bevel" transform="matrix(1,0,0,1,0,0)"
font-family="Noto Sans [MONO]" font-size="13.3333" font-weight="400" font-style="normal" 
>
</g>

<g fill="none" stroke="#000000" stroke-opacity="1" stroke-width="2" stroke-linecap="butt" stroke-linejoin="miter" stroke-miterlimit="2" transform="matrix(1,0,0,1,0,0)"
font-family="Noto Sans [MONO]" font-size="13.3333" font-weight="400" font-style="normal" 
>
<polyline fill="none" vector-effect="non-scaling-stroke" points="89,312.548 90,312.538 90.532,312.533 91.596,312.522 92.66,312.512 93.724,312.501 94.256,312.495 94.788,312.489 95.852,312.477 96.916,312.465 97.98,312.452 98.512,312.445 99.576,312.432 100.64,312.418 101.704,312.403 102.768,312.388 103.832,312.372 104.896,312.356 105.96,312.338 107.024,312.321 107.556,312.311 108.62,312.292 109.684,312.273 110.748,312.252 111.812,312.23 112.876,312.208 113.94,312.184 115.004,312.159 115.536,312.147 116.6,312.12 117.664,312.092 118.728,312.063 119.792,312.033 120.856,312.001 121.92,311.967 122.984,311.931 123.516,311.913 124.58,311.874 125.644,311.834 126.708,311.791 127.772,311.746 128.836,311.698 129.9,311.647 130.964,311.593 132.028,311.535 132.56,311.505 133.092,311.474 133.624,311.442 134.688,311.375 135.752,311.303 136.816,311.226 137.88,311.143 138.944,311.055 140.008,310.96 140.54,310.909 141.604,310.802 142.668,310.687 143.732,310.562 144.264,310.495 144.796,310.425 145.86,310.277 146.924,310.114 147.988,309.936 148.52,309.841 149.584,309.635 150.648,309.406 151.712,309.153 152.776,308.869 153.84,308.551 154.372,308.376 154.904,308.191 155.968,307.782 156.5,307.556 157.032,307.314 157.564,307.053 158.628,306.471 159.692,305.79 160.224,305.404 160.756,304.983 161.82,304.017 162.352,303.46 162.884,302.842 163.416,302.157 163.948,301.39 165.012,299.559 165.544,298.456 166.076,297.195 166.608,295.742 167.14,294.057 167.672,292.084 168.204,289.754 168.736,286.976 169.268,283.628 169.8,279.554 170.332,274.544 170.864,268.33 171.396,260.579 171.928,250.918 172.46,239.027 172.992,224.872 173.524,209.132 174.056,193.658 174.588,181.355 175.12,174.956 175.652,175.458 176.184,181.828 176.716,191.979 177.248,203.768 177.78,215.45 178.312,225.801 178.844,234.132 179.376,240.203 179.908,244.058 180.44,245.84 180.972,245.67 181.504,243.588 182.036,239.514 182.568,233.242 183.1,224.423 183.632,212.579 184.164,197.157 184.696,177.713 185.228,154.33 185.76,128.284 186.292,102.571 186.824,81.3158 187.356,67.767 187.888,62.5956 188.42,64.212 188.952,70.2689 189.484,78.7543 190.016,88.3052 190.548,98.1127 191.08,107.739 191.612,116.971 192.144,125.719 192.676,133.961 193.208,141.713 193.74,149.004 194.272,155.871 194.804,162.354 195.336,168.489 195.868,174.312 196.4,179.855 196.932,185.148 197.464,190.215 197.996,195.082 198.528,199.77 199.06,204.298 199.592,208.685 200.124,212.946 200.656,217.096 201.188,221.151 201.72,225.122 202.252,229.022 202.784,232.864 203.316,236.658 203.848,240.417 204.38,244.15 204.912,247.87 205.444,251.587 205.976,255.311 206.508,259.05 207.04,262.813 207.572,266.599 208.104,270.405 208.636,274.211 209.168,277.974 209.7,281.629 210.232,285.079 210.764,288.229 211.296,291.007 211.828,293.392 212.36,295.41 212.892,297.108 213.424,298.542 213.956,299.76 214.488,300.804 215.02,301.708 215.552,302.496 216.084,303.19 216.616,303.805 217.68,304.847 218.744,305.696 219.808,306.402 220.34,306.711 220.872,306.997 221.936,307.506 223,307.946 223.532,308.144 224.596,308.503 225.66,308.821 226.724,309.102 227.788,309.354 228.852,309.58 229.916,309.785 230.98,309.97 231.512,310.056 232.576,310.216 233.64,310.363 234.704,310.498 235.236,310.561 235.768,310.622 236.832,310.736 237.896,310.842 238.96,310.939 240.024,311.03 240.556,311.073 241.62,311.155 242.684,311.231 243.748,311.302 244.812,311.368 245.876,311.43 246.94,311.488 247.472,311.516 248.004,311.543 248.536,311.569 249.6,311.619 250.664,311.666 251.728,311.711 252.792,311.752 253.856,311.792 254.92,311.829 255.984,311.864 256.516,311.881 257.58,311.914 258.644,311.944 259.708,311.973 260.772,312.001 261.836,312.027 262.9,312.052 263.964,312.075 265.028,312.097 265.56,312.108 266.624,312.128 267.688,312.147 268.752,312.165 269.816,312.182 270.88,312.199 271.944,312.214 273.008,312.228 273.54,312.235 274.604,312.247 275.668,312.259 276.732,312.27 277.796,312.28 278.86,312.29 279.924,312.298 280.988,312.305 281.52,312.309 282.584,312.315 283.648,312.32 284.712,312.324 285.776,312.327 286.84,312.329 287.904,312.329 288.968,312.329 289.5,312.328 290.564,312.326 291.628,312.321 292.692,312.316 293.756,312.308 294.82,312.298 295.884,312.286 296.948,312.272 298.012,312.254 298.544,312.244 299.608,312.221 300.672,312.194 301.736,312.161 302.8,312.123 303.864,312.078 304.928,312.024 305.992,311.959 306.524,311.922 307.588,311.837 308.652,311.734 309.716,311.607 310.78,311.45 311.844,311.254 312.908,311.004 313.972,310.681 314.504,310.483 315.568,309.987 316.632,309.308 317.696,308.348 318.76,306.944 319.292,305.994 319.824,304.811 320.356,303.328 320.888,301.456 321.42,299.091 321.952,296.126 322.484,292.501 323.016,288.303 323.548,283.934 324.08,280.219 324.612,278.206 325.144,278.571 325.676,281.142 326.208,285.07 326.74,289.386 327.272,293.421 327.804,296.869 328.336,299.68 328.868,301.924 329.4,303.703 329.932,305.116 330.464,306.246 330.996,307.158 331.528,307.9 332.06,308.511 332.592,309.018 333.656,309.801 334.72,310.368 335.252,310.595 335.784,310.791 336.848,311.115 337.912,311.367 338.976,311.567 339.508,311.653 340.572,311.799 341.636,311.92 342.7,312.021 343.764,312.107 344.828,312.179 345.892,312.242 346.956,312.296 348.02,312.344 348.552,312.365 349.616,312.404 350.68,312.439 351.744,312.47 352.808,312.498 353.34,312.511 353.872,312.523 354.936,312.546 356,312.566 356.532,312.576 357.596,312.594 358.66,312.61 359.724,312.625 360.788,312.639 361.852,312.652 362.916,312.664 363.98,312.675 364.512,312.68 365.576,312.69 366.64,312.7 367.704,312.709 368.768,312.717 369.832,312.725 370.896,312.732 371.96,312.739 373.024,312.745 373.556,312.749 374.62,312.755 375.684,312.76 376.748,312.766 377.812,312.771 378.876,312.776 379.94,312.781 381.004,312.785 381.536,312.788 382.6,312.792 383.664,312.796 384.728,312.8 385.792,312.804 386.856,312.807 387.92,312.811 388.984,312.814 389.516,312.816 390.58,312.819 391.644,312.822 392.708,312.825 393.772,312.828 394.836,312.831 395.9,312.833 396.964,312.836 398.028,312.838 398.56,312.84 399.624,312.842 400.688,312.844 401.752,312.847 402.816,312.849 403.88,312.851 404.944,312.853 406.008,312.855 406.54,312.856 407.604,312.858 408.668,312.86 409.732,312.862 410.796,312.863 411.86,312.865 412.924,312.867 413.988,312.869 414.52,312.869 415.584,312.871 416.648,312.873 417.712,312.874 418.776,312.876 419.84,312.877 420.904,312.879 421.968,312.88 422.5,312.881 423.564,312.882 424.628,312.883 425.692,312.885 426.756,312.886 427.82,312.887 428.884,312.888 429.948,312.89 431.012,312.891 431.544,312.891 432.608,312.892 433.672,312.894 434.736,312.895 435.8,312.896 436.864,312.897 437.928,312.898 438.992,312.899 439.524,312.899 440.588,312.9 441.652,312.901 442.716,312.902 443.78,312.903 444.844,312.904 445.908,312.905 446.972,312.906 447.504,312.906 448.568,312.907 449.632,312.908 450.696,312.909 451.76,312.91 452.824,312.911 453.888,312.911 454.952,312.912 456.016,312.913 456.548,312.913 457.612,312.914 458.676,312.915 459.74,312.916 460.804,312.916 461.868,312.917 462.932,312.918 463.996,312.919 464.528,312.919 465.592,312.92 466.656,312.92 467.72,312.921 468.784,312.922 469.848,312.922 470.912,312.923 471.976,312.923 472.508,312.924 473.572,312.924 474.636,312.925 475.7,312.926 476.764,312.926 477.828,312.927 478.892,312.927 479.956,312.928 481.02,312.928 481.552,312.929 482.616,312.929 483.68,312.93 484.744,312.93 485.808,312.931 486.872,312.931 487.936,312.932 489,312.932 " />
</g>

<g fill="none" stroke="#000000" stroke-opacity="1" stroke-width="1" stroke-linecap="square" stroke-linejoin="bevel" transform="matrix(1,0,0,1,0,0)"
font-family="Noto Sans [MONO]" font-size="13.3333" font-weight="400" font-style="normal" 
>
</g>

<g fill="none" stroke="#000000" stroke-opacity="1" stroke-width="1" stroke-linecap="square" stroke-linejoin="bevel" transform="matrix(1,0,0,1,0,0)"
font-family="Noto Sans [MONO]" font-size="13.3333" font-weight="400" font-style="normal" 
>
</g>

<g fill="none" stroke="#000000" stroke-opacity="1" stroke-width="1" stroke-linecap="square" stroke-linejoin="bevel" transform="matrix(1,0,0,1,0,0)"
font-family="Noto Sans [MONO]" font-size="13.3333" font-weight="400" font-style="normal" 
>
</g>

<g fill="none" stroke="#ff0000" stroke-opacity="1" stroke-width="2" stroke-linecap="butt" stroke-linejoin="miter" stroke-miterlimit="2" transform="matrix(1,0,0,1,0,0)"
font-family="Noto Sans [MONO]" font-size="13.3333" font-weight="400" font-style="normal" 
>
<polyline fill="none" vector-effect="non-scaling-stroke" points="89,312.861 90,312.859 90.532,312.858 91.596,312.856 92.66,312.854 93.724,312.852 94.788,312.85 95.852,312.848 96.916,312.845 97.98,312.843 98.512,312.842 99.576,312.84 100.64,312.837 101.704,312.835 102.768,312.832 103.832,312.83 104.896,312.827 105.96,312.825 107.024,312.822 107.556,312.821 108.62,312.818 109.684,312.815 110.748,312.812 111.812,312.809 112.876,312.806 113.94,312.802 115.004,312.799 115.536,312.797 116.6,312.794 117.664,312.79 118.728,312.787 119.792,312.783 120.856,312.779 121.92,312.775 122.984,312.771 123.516,312.769 124.58,312.765 125.644,312.76 126.708,312.756 127.772,312.751 128.836,312.746 129.9,312.741 130.964,312.736 132.028,312.731 132.56,312.728 133.624,312.723 134.688,312.717 135.752,312.711 136.816,312.705 137.88,312.699 138.944,312.692 140.008,312.686 140.54,312.682 141.604,312.675 142.668,312.668 143.732,312.66 144.796,312.652 145.86,312.644 146.924,312.636 147.988,312.627 148.52,312.622 149.584,312.613 150.648,312.603 151.712,312.593 152.776,312.582 153.84,312.572 154.904,312.56 155.968,312.548 156.5,312.542 157.564,312.529 158.628,312.516 159.692,312.502 160.224,312.495 160.756,312.488 161.82,312.472 162.884,312.456 163.948,312.44 165.012,312.422 165.544,312.413 166.608,312.394 167.672,312.374 168.736,312.353 169.8,312.331 170.864,312.308 171.928,312.283 172.992,312.257 173.524,312.243 174.588,312.215 175.652,312.185 176.716,312.153 177.78,312.118 178.844,312.082 179.908,312.043 180.972,312.001 181.504,311.979 182.568,311.933 183.632,311.884 184.696,311.83 185.76,311.773 186.824,311.71 187.888,311.643 188.952,311.569 190.016,311.49 190.548,311.447 191.612,311.356 192.676,311.256 193.74,311.145 194.804,311.024 195.868,310.889 196.932,310.739 197.996,310.571 198.528,310.48 199.592,310.279 200.656,310.053 201.72,309.795 202.784,309.5 203.848,309.159 204.912,308.763 205.976,308.299 206.508,308.037 207.572,307.438 208.636,306.718 209.168,306.302 209.7,305.842 210.232,305.33 210.764,304.76 211.296,304.122 211.828,303.404 212.892,301.67 213.424,300.618 213.956,299.408 214.488,298.009 215.02,296.38 215.552,294.468 216.084,292.207 216.616,289.509 217.148,286.261 217.68,282.312 218.212,277.465 218.744,271.46 219.276,263.966 219.808,254.573 220.34,242.835 220.872,228.392 221.404,211.267 221.936,192.368 222.468,173.911 223,159.044 223.532,150.351 224.064,148.455 224.596,152.146 225.128,159.552 225.66,169.037 226.192,179.487 226.724,190.242 227.256,200.946 227.788,211.425 228.32,221.597 228.852,231.418 229.384,240.84 229.916,249.781 230.448,258.11 230.98,265.664 231.512,272.301 232.044,277.957 232.576,282.674 233.108,286.561 233.64,289.755 234.172,292.389 234.704,294.574 235.236,296.4 235.768,297.939 236.3,299.245 236.832,300.361 237.364,301.321 237.896,302.152 238.428,302.875 238.96,303.505 240.024,304.542 240.556,304.969 241.62,305.677 242.684,306.227 243.748,306.649 244.812,306.967 245.876,307.197 246.94,307.347 248.004,307.427 248.536,307.44 249.6,307.418 250.664,307.326 251.728,307.162 252.792,306.919 253.856,306.585 254.388,306.379 254.92,306.144 255.984,305.574 256.516,305.231 257.58,304.402 258.644,303.335 259.708,301.951 260.24,301.104 260.772,300.129 261.304,299.001 261.836,297.688 262.368,296.151 262.9,294.339 263.432,292.186 263.964,289.608 264.496,286.494 265.028,282.697 265.56,278.025 266.092,272.227 266.624,264.979 267.156,255.893 267.688,244.555 268.22,230.662 268.752,214.334 269.284,196.592 269.816,179.669 270.348,166.491 270.88,159.184 271.412,157.982 271.944,161.597 272.476,168.308 273.008,176.695 273.54,185.818 274.072,195.13 274.604,204.344 275.136,213.325 275.668,222.025 276.2,230.434 276.732,238.559 277.264,246.401 277.796,253.935 278.328,261.101 278.86,267.791 279.392,273.87 279.924,279.221 280.456,283.794 280.988,287.621 281.52,290.792 282.052,293.414 282.584,295.59 283.116,297.41 283.648,298.944 284.18,300.248 284.712,301.366 285.244,302.331 285.776,303.17 286.308,303.905 286.84,304.553 287.904,305.636 288.968,306.501 289.5,306.869 290.564,307.505 291.628,308.031 292.692,308.47 293.224,308.663 293.756,308.841 294.82,309.155 295.884,309.424 296.416,309.543 296.948,309.654 298.012,309.852 298.544,309.941 299.608,310.099 300.672,310.235 301.736,310.353 302.8,310.452 303.864,310.537 304.928,310.607 305.992,310.665 306.524,310.689 307.588,310.729 308.652,310.757 309.716,310.774 310.78,310.78 311.844,310.775 312.908,310.758 313.972,310.73 314.504,310.711 315.568,310.663 316.632,310.6 317.696,310.52 318.228,310.474 318.76,310.423 319.824,310.304 320.888,310.161 321.952,309.99 323.016,309.784 323.548,309.667 324.612,309.396 325.676,309.07 326.74,308.674 327.272,308.444 327.804,308.189 328.868,307.591 329.4,307.238 329.932,306.842 330.464,306.397 330.996,305.893 331.528,305.321 332.592,303.919 333.124,303.055 333.656,302.052 334.188,300.879 334.72,299.498 335.252,297.86 335.784,295.898 336.316,293.529 336.848,290.64 337.38,287.085 337.912,282.67 338.444,277.146 338.976,270.212 339.508,261.536 340.04,250.858 340.572,238.219 341.104,224.335 341.636,210.913 342.168,200.343 342.7,194.555 343.232,193.972 343.764,197.645 344.296,204.142 344.828,212.222 345.36,221.039 345.892,230.08 346.424,239.054 346.956,247.779 347.488,256.113 348.02,263.906 348.552,270.997 349.084,277.243 349.616,282.573 350.148,287.011 350.68,290.656 351.212,293.638 351.744,296.082 352.276,298.098 352.808,299.775 353.34,301.182 353.872,302.372 354.404,303.388 354.936,304.261 355.468,305.016 356,305.675 356.532,306.253 357.064,306.763 357.596,307.214 358.128,307.617 358.66,307.977 359.724,308.592 360.788,309.096 361.852,309.514 362.916,309.865 363.98,310.162 364.512,310.295 365.576,310.531 366.64,310.736 367.704,310.914 368.768,311.071 369.832,311.209 370.896,311.332 371.96,311.442 373.024,311.54 373.556,311.585 374.62,311.669 375.684,311.746 376.748,311.815 377.812,311.878 378.876,311.935 379.94,311.988 381.004,312.037 381.536,312.06 382.6,312.103 383.664,312.142 384.728,312.179 385.792,312.214 386.856,312.246 387.92,312.276 388.984,312.304 389.516,312.317 390.58,312.342 391.644,312.366 392.708,312.388 393.772,312.409 394.836,312.429 395.9,312.448 396.964,312.466 398.028,312.482 398.56,312.49 399.624,312.506 400.688,312.521 401.752,312.535 402.816,312.548 403.88,312.561 404.944,312.573 406.008,312.584 406.54,312.59 407.604,312.601 408.668,312.611 409.732,312.621 410.796,312.63 411.86,312.639 412.924,312.648 413.988,312.656 414.52,312.66 415.584,312.668 416.648,312.676 417.712,312.683 418.776,312.69 419.84,312.696 420.904,312.703 421.968,312.709 422.5,312.712 423.564,312.718 424.628,312.724 425.692,312.729 426.756,312.735 427.82,312.74 428.884,312.745 429.948,312.75 431.012,312.754 431.544,312.757 432.608,312.761 433.672,312.766 434.736,312.77 435.8,312.774 436.864,312.778 437.928,312.782 438.992,312.785 439.524,312.787 440.588,312.791 441.652,312.794 442.716,312.798 443.78,312.801 444.844,312.804 445.908,312.807 446.972,312.81 447.504,312.812 448.568,312.815 449.632,312.818 450.696,312.82 451.76,312.823 452.824,312.826 453.888,312.828 454.952,312.831 456.016,312.833 456.548,312.834 457.612,312.837 458.676,312.839 459.74,312.841 460.804,312.844 461.868,312.846 462.932,312.848 463.996,312.85 464.528,312.851 465.592,312.853 466.656,312.855 467.72,312.857 468.784,312.859 469.848,312.86 470.912,312.862 471.976,312.864 472.508,312.865 473.572,312.866 474.636,312.868 475.7,312.87 476.764,312.871 477.828,312.873 478.892,312.874 479.956,312.876 481.02,312.877 481.552,312.878 482.616,312.879 483.68,312.881 484.744,312.882 485.808,312.884 486.872,312.885 487.936,312.886 489,312.887 " />
</g>

<g fill="none" stroke="#000000" stroke-opacity="1" stroke-width="1" stroke-linecap="square" stroke-linejoin="bevel" transform="matrix(1,0,0,1,0,0)"
font-family="Noto Sans [MONO]" font-size="13.3333" font-weight="400" font-style="normal" 
>
</g>

<g fill="none" stroke="#000000" stroke-opacity="1" stroke-width="1" stroke-linecap="square" stroke-linejoin="bevel" transform="matrix(1,0,0,1,0,0)"
font-family="Noto Sans [MONO]" font-size="13.3333" font-weight="400" font-style="normal" 
>
</g>

<g fill="none" stroke="#000000" stroke-opacity="1" stroke-width="1" stroke-linecap="square" stroke-linejoin="bevel" transform="matrix(1,0,0,1,0,0)"
font-family="Noto Sans [MONO]" font-size="13.3333" font-weight="400" font-style="normal" 
>
</g>

<g fill="none" stroke="#00ff00" stroke-opacity="1" stroke-width="2" stroke-linecap="butt" stroke-linejoin="miter" stroke-miterlimit="2" transform="matrix(1,0,0,1,0,0)"
font-family="Noto Sans [MONO]" font-size="13.3333" font-weight="400" font-style="normal" 
>
<polyline fill="none" vector-effect="non-scaling-stroke" points="89,312.747 90,312.741 90.532,312.738 91.596,312.732 92.66,312.726 93.724,312.72 94.788,312.713 95.852,312.707 96.916,312.7 97.98,312.692 98.512,312.689 99.576,312.681 100.64,312.673 101.704,312.664 102.768,312.656 103.832,312.646 104.896,312.637 105.96,312.627 107.024,312.617 107.556,312.611 108.62,312.6 109.684,312.588 110.748,312.576 111.812,312.563 112.876,312.55 113.94,312.536 115.004,312.521 115.536,312.513 116.6,312.497 117.664,312.481 118.728,312.463 119.792,312.444 120.856,312.425 121.92,312.404 122.984,312.382 123.516,312.37 124.58,312.346 125.644,312.32 126.708,312.293 127.772,312.264 128.836,312.233 129.9,312.2 130.964,312.165 132.028,312.127 132.56,312.107 133.624,312.065 134.688,312.019 135.752,311.971 136.816,311.918 137.88,311.861 138.944,311.799 140.008,311.731 140.54,311.695 141.604,311.619 142.668,311.535 143.2,311.49 143.732,311.442 144.796,311.341 145.86,311.229 146.924,311.104 147.988,310.966 148.52,310.891 149.584,310.727 150.648,310.543 151.18,310.442 151.712,310.335 152.776,310.098 153.84,309.827 154.904,309.516 155.436,309.343 155.968,309.156 156.5,308.953 157.564,308.497 158.628,307.958 159.692,307.313 160.756,306.534 161.288,306.082 161.82,305.58 162.352,305.021 162.884,304.396 163.948,302.901 164.48,302.001 165.012,300.976 165.544,299.799 166.076,298.442 166.608,296.864 167.14,295.018 167.672,292.839 168.204,290.247 168.736,287.135 169.268,283.364 169.8,278.75 170.332,273.051 170.864,265.955 171.396,257.073 171.928,245.959 172.46,232.208 172.992,215.694 173.524,197.024 174.056,178.03 174.588,161.689 175.12,150.882 175.652,146.8 176.184,148.635 176.716,154.601 177.248,162.971 177.78,172.504 178.312,182.444 178.844,192.374 179.376,202.089 179.908,211.503 180.44,220.594 180.972,229.366 181.504,237.831 182.036,245.985 182.568,253.795 183.1,261.183 183.632,268.024 184.164,274.179 184.696,279.544 185.228,284.094 185.76,287.887 186.292,291.026 186.824,293.624 187.356,295.787 187.888,297.6 188.42,299.133 188.952,300.44 189.484,301.563 190.016,302.536 190.548,303.384 191.08,304.128 191.612,304.785 192.676,305.888 193.74,306.772 194.804,307.492 195.336,307.804 195.868,308.087 196.932,308.585 197.996,309.005 198.528,309.191 199.592,309.522 200.656,309.807 201.72,310.055 202.784,310.271 203.848,310.46 204.38,310.546 204.912,310.627 205.976,310.775 206.508,310.843 207.572,310.966 208.636,311.077 209.7,311.175 210.764,311.264 211.828,311.343 212.892,311.414 213.956,311.479 214.488,311.508 215.02,311.536 215.552,311.563 216.616,311.612 217.68,311.656 218.744,311.696 219.808,311.731 220.872,311.763 221.936,311.79 223,311.815 223.532,311.826 224.596,311.846 225.66,311.862 226.724,311.876 227.788,311.888 228.852,311.896 229.916,311.902 230.98,311.906 231.512,311.907 232.576,311.907 233.64,311.904 234.704,311.899 235.768,311.891 236.832,311.88 237.896,311.867 238.96,311.85 240.024,311.831 240.556,311.82 241.62,311.796 242.684,311.768 243.748,311.735 244.812,311.699 245.876,311.658 246.94,311.612 248.004,311.56 248.536,311.532 249.6,311.47 250.664,311.401 251.728,311.323 252.792,311.235 253.856,311.136 254.92,311.024 255.984,310.897 256.516,310.827 257.58,310.672 258.644,310.495 259.708,310.292 260.772,310.056 261.836,309.781 262.9,309.458 263.964,309.075 265.028,308.618 265.56,308.356 266.624,307.746 267.156,307.391 267.688,306.996 268.752,306.06 269.816,304.87 270.348,304.151 270.88,303.329 271.412,302.382 271.944,301.286 272.476,300.008 273.008,298.505 273.54,296.726 274.072,294.601 274.604,292.038 275.136,288.919 275.668,285.086 276.2,280.334 276.732,274.395 277.264,266.943 277.796,257.613 278.328,246.103 278.86,232.402 279.392,217.194 279.924,202.235 280.456,190.119 280.988,183.093 281.52,181.822 282.052,185.384 282.584,192.218 283.116,200.918 283.648,210.508 284.18,220.393 284.712,230.234 285.244,239.827 285.776,249.017 286.308,257.649 286.84,265.55 287.372,272.555 287.904,278.567 288.436,283.593 288.968,287.729 289.5,291.111 290.032,293.881 290.564,296.161 291.096,298.053 291.628,299.637 292.16,300.973 292.692,302.11 293.224,303.084 293.756,303.926 294.288,304.657 294.82,305.296 295.352,305.858 295.884,306.355 296.416,306.795 296.948,307.188 297.48,307.539 298.012,307.854 298.544,308.138 299.608,308.627 300.672,309.029 301.736,309.364 302.268,309.51 302.8,309.644 303.864,309.878 304.928,310.077 305.992,310.244 306.524,310.317 307.588,310.446 308.12,310.503 308.652,310.554 309.716,310.644 310.78,310.717 311.844,310.776 312.908,310.821 313.972,310.853 314.504,310.865 315.568,310.879 316.632,310.882 317.696,310.874 318.76,310.855 319.824,310.823 320.888,310.779 321.952,310.722 323.016,310.651 323.548,310.609 324.612,310.514 325.144,310.459 325.676,310.4 326.74,310.264 327.804,310.105 328.868,309.916 329.932,309.694 330.996,309.432 331.528,309.284 332.592,308.945 333.656,308.54 334.188,308.308 334.72,308.053 335.784,307.461 336.848,306.734 337.38,306.308 337.912,305.831 338.444,305.295 338.976,304.691 339.508,304.007 340.04,303.228 340.572,302.337 341.104,301.311 341.636,300.123 342.168,298.738 342.7,297.112 343.232,295.186 343.764,292.887 344.296,290.117 344.828,286.748 345.36,282.613 345.892,277.489 346.424,271.092 346.956,263.073 347.488,253.044 348.02,240.686 348.552,225.991 349.084,209.696 349.616,193.657 350.148,180.584 350.68,172.775 351.212,170.864 351.744,173.865 352.276,180.159 352.808,188.311 353.34,197.331 353.872,206.631 354.404,215.892 354.936,224.957 355.468,233.754 356,242.247 356.532,250.399 357.064,258.148 357.596,265.391 358.128,271.992 358.66,277.824 359.192,282.821 359.724,287.005 360.256,290.463 360.788,293.312 361.32,295.665 361.852,297.621 362.384,299.261 362.916,300.646 363.448,301.827 363.98,302.842 364.512,303.721 365.576,305.158 366.108,305.75 366.64,306.275 367.172,306.744 367.704,307.163 368.236,307.54 368.768,307.88 369.832,308.468 370.364,308.723 370.896,308.957 371.96,309.367 372.492,309.549 373.024,309.716 373.556,309.871 374.62,310.149 375.684,310.389 376.748,310.599 377.812,310.783 378.876,310.946 379.94,311.091 381.004,311.22 381.536,311.279 382.6,311.389 383.664,311.488 384.196,311.534 384.728,311.578 385.792,311.659 386.856,311.733 387.92,311.801 388.984,311.863 389.516,311.892 390.58,311.947 391.644,311.997 392.708,312.044 393.772,312.087 394.836,312.127 395.9,312.165 396.964,312.199 398.028,312.232 398.56,312.247 399.624,312.277 400.688,312.305 401.752,312.33 402.816,312.355 403.88,312.378 404.944,312.399 406.008,312.42 406.54,312.43 407.604,312.448 408.668,312.466 409.732,312.483 410.796,312.499 411.328,312.507 411.86,312.514 412.924,312.529 413.988,312.543 414.52,312.549 415.584,312.562 416.648,312.574 417.712,312.586 418.776,312.597 419.84,312.608 420.904,312.618 421.968,312.628 422.5,312.633 423.564,312.642 424.628,312.65 425.692,312.659 426.756,312.667 427.82,312.675 428.884,312.682 429.948,312.69 431.012,312.697 431.544,312.7 432.608,312.706 433.672,312.713 434.736,312.719 435.8,312.725 436.864,312.731 437.928,312.736 438.992,312.741 439.524,312.744 440.588,312.749 441.652,312.754 442.716,312.759 443.78,312.763 444.844,312.768 445.908,312.772 446.972,312.776 447.504,312.778 448.568,312.782 449.632,312.786 450.696,312.79 451.76,312.794 452.824,312.797 453.888,312.801 454.952,312.804 456.016,312.807 456.548,312.809 457.612,312.812 458.676,312.815 459.74,312.818 460.804,312.821 461.868,312.824 462.932,312.826 463.996,312.829 464.528,312.83 465.592,312.833 466.656,312.835 467.72,312.838 468.784,312.84 469.848,312.843 470.912,312.845 471.976,312.847 472.508,312.848 473.572,312.85 474.636,312.852 475.7,312.854 476.764,312.856 477.828,312.858 478.892,312.86 479.956,312.862 481.02,312.864 481.552,312.865 482.616,312.867 483.68,312.868 484.744,312.87 485.808,312.872 486.872,312.873 487.936,312.875 489,312.876 " />
</g>

<g fill="none" stroke="#000000" stroke-opacity="1" stroke-width="1" stroke-linecap="square" stroke-linejoin="bevel" transform="matrix(1,0,0,1,0,0)"
font-family="Noto Sans [MONO]" font-size="13.3333" font-weight="400" font-style="normal" 
>
</g>

<g fill="none" stroke="#000000" stroke-opacity="1" stroke-width="1" stroke-linecap="square" stroke-linejoin="bevel" transform="matrix(1,0,0,1,0,0)"
font-family="Noto Sans [MONO]" font-size="13.3333" font-weight="400" font-style="normal" 
>
</g>

<g fill="none" stroke="#000000" stroke-opacity="1" stroke-width="1" stroke-linecap="square" stroke-linejoin="bevel" transform="matrix(1,0,0,1,0,0)"
font-family="Noto Sans [MONO]" font-size="13.3333" font-weight="400" font-style="normal" 
>
</g>

<g fill="none" stroke="#0000ff" stroke-opacity="1" stroke-width="2" stroke-linecap="butt" stroke-linejoin="miter" stroke-miterlimit="2" transform="matrix(1,0,0,1,0,0)"
font-family="Noto Sans [MONO]" font-size="13.3333" font-weight="400" font-style="normal" 
>
<polyline fill="none" vector-effect="non-scaling-stroke" points="89,312.653 90,312.645 90.532,312.641 91.596,312.633 92.66,312.624 93.724,312.615 94.788,312.606 95.852,312.597 96.916,312.587 97.98,312.577 98.512,312.571 99.576,312.561 100.64,312.549 101.704,312.538 102.768,312.525 103.832,312.513 104.896,312.5 105.96,312.486 107.024,312.472 107.556,312.464 108.62,312.449 109.684,312.433 110.748,312.416 111.812,312.399 112.876,312.38 113.94,312.361 115.004,312.341 115.536,312.331 116.6,312.309 117.664,312.286 118.728,312.262 119.792,312.237 120.856,312.211 121.92,312.183 122.984,312.154 123.516,312.138 124.58,312.106 125.644,312.073 126.708,312.037 127.772,311.999 128.836,311.959 129.9,311.916 130.964,311.87 132.028,311.821 132.56,311.796 133.624,311.742 134.688,311.685 135.752,311.623 136.816,311.557 137.88,311.485 138.944,311.409 140.008,311.326 140.54,311.282 141.604,311.188 142.668,311.086 143.732,310.975 144.796,310.854 145.86,310.721 146.924,310.575 147.456,310.497 147.988,310.414 148.52,310.327 149.584,310.139 150.648,309.93 151.712,309.695 152.776,309.432 153.84,309.133 154.904,308.793 155.968,308.404 156.5,308.188 157.564,307.704 158.096,307.432 158.628,307.138 159.692,306.47 160.756,305.673 161.288,305.214 161.82,304.709 162.352,304.148 162.884,303.526 163.416,302.83 163.948,302.049 164.48,301.169 165.012,300.17 165.544,299.031 166.076,297.723 166.608,296.21 167.14,294.447 167.672,292.376 168.204,289.922 168.736,286.986 169.268,283.438 169.8,279.108 170.332,273.772 170.864,267.141 171.396,258.853 171.928,248.502 172.46,235.725 172.992,220.447 173.524,203.315 174.056,186.178 174.588,171.991 175.12,163.584 175.652,162.093 176.184,166.662 176.716,175.444 177.248,186.614 177.78,198.752 178.312,210.809 178.844,221.977 179.376,231.626 179.908,239.343 180.44,244.951 180.972,248.457 181.504,249.937 182.036,249.442 182.568,246.934 183.1,242.263 183.632,235.168 184.164,225.316 184.696,212.443 185.228,196.651 185.76,178.895 186.292,161.358 186.824,147.025 187.356,138.247 187.888,135.511 188.42,137.676 188.952,143.054 189.484,150.199 190.016,158.132 190.548,166.273 191.08,174.31 191.612,182.092 192.144,189.557 192.676,196.694 193.208,203.517 193.74,210.052 194.272,216.331 194.804,222.388 195.336,228.254 195.868,233.962 196.4,239.539 196.932,245.01 197.464,250.398 197.996,255.712 198.528,260.955 199.06,266.105 199.592,271.114 200.124,275.898 200.656,280.343 201.188,284.341 201.72,287.823 202.252,290.785 202.784,293.272 203.316,295.355 203.848,297.104 204.38,298.583 204.912,299.845 205.444,300.931 205.976,301.874 206.508,302.698 207.572,304.068 208.104,304.643 208.636,305.158 209.168,305.622 209.7,306.043 210.764,306.774 211.828,307.387 212.36,307.658 212.892,307.907 213.956,308.354 214.488,308.553 215.02,308.739 215.552,308.913 216.616,309.229 217.68,309.507 218.744,309.753 219.808,309.972 220.872,310.169 221.936,310.346 223,310.506 223.532,310.58 224.596,310.718 225.66,310.844 226.724,310.959 227.788,311.064 228.852,311.161 229.916,311.25 230.98,311.332 231.512,311.371 232.576,311.444 233.64,311.512 234.704,311.575 235.768,311.634 236.832,311.689 237.896,311.74 238.96,311.788 240.024,311.832 240.556,311.854 241.62,311.894 242.684,311.932 243.748,311.968 244.812,312.002 245.876,312.033 246.94,312.063 248.004,312.091 248.536,312.104 249.6,312.13 250.664,312.154 251.728,312.177 252.792,312.198 253.856,312.218 254.92,312.237 255.984,312.255 256.516,312.263 257.58,312.279 258.644,312.295 259.708,312.309 260.772,312.322 261.836,312.334 262.9,312.346 263.964,312.356 265.028,312.366 265.56,312.37 266.624,312.379 267.688,312.386 268.752,312.392 269.816,312.398 270.88,312.403 271.944,312.406 273.008,312.409 273.54,312.41 274.604,312.411 275.668,312.411 276.732,312.409 277.796,312.406 278.86,312.401 279.924,312.394 280.988,312.386 281.52,312.38 282.584,312.368 283.648,312.352 284.712,312.333 285.776,312.309 286.84,312.28 287.904,312.244 288.968,312.2 289.5,312.174 290.564,312.113 291.628,312.035 292.692,311.935 293.756,311.805 294.82,311.631 295.884,311.394 296.948,311.06 298.012,310.572 298.544,310.243 299.608,309.321 300.672,307.856 301.204,306.832 301.736,305.581 302.268,304.134 302.8,302.641 303.332,301.409 303.864,300.828 304.928,302.173 305.46,303.598 305.992,305.052 306.524,306.341 307.056,307.404 307.588,308.249 308.12,308.912 308.652,309.428 309.184,309.829 309.716,310.141 310.78,310.57 311.844,310.814 312.908,310.928 313.972,310.938 314.504,310.905 315.568,310.762 316.632,310.496 317.696,310.061 318.76,309.374 319.824,308.284 320.888,306.526 321.42,305.276 321.952,303.708 322.484,301.8 323.016,299.63 323.548,297.461 324.08,295.788 324.612,295.172 325.144,295.862 325.676,297.585 326.208,299.776 326.74,301.955 327.272,303.868 327.804,305.444 328.336,306.706 328.868,307.705 329.932,309.129 330.464,309.636 330.996,310.048 331.528,310.385 332.06,310.664 332.592,310.897 333.656,311.26 334.72,311.525 335.784,311.725 336.848,311.878 337.912,311.998 338.976,312.094 339.508,312.135 340.572,312.206 341.636,312.264 342.7,312.312 343.764,312.352 344.828,312.387 345.892,312.416 346.956,312.441 348.02,312.462 348.552,312.471 349.616,312.488 350.68,312.502 351.744,312.515 352.808,312.525 353.872,312.534 354.936,312.541 356,312.547 356.532,312.55 357.596,312.554 358.66,312.557 359.724,312.559 360.788,312.56 361.852,312.561 362.916,312.56 363.98,312.558 364.512,312.557 365.576,312.554 366.64,312.551 367.704,312.546 368.768,312.541 369.832,312.535 370.896,312.527 371.96,312.519 373.024,312.51 373.556,312.505 374.088,312.5 374.62,312.494 375.684,312.483 376.748,312.47 377.812,312.455 378.876,312.439 379.94,312.422 381.004,312.403 381.536,312.393 382.6,312.371 383.664,312.348 384.728,312.322 385.792,312.293 386.856,312.262 387.92,312.227 388.984,312.19 389.516,312.169 390.58,312.126 391.644,312.077 392.708,312.023 393.772,311.964 394.836,311.897 395.9,311.822 396.964,311.738 398.028,311.644 398.56,311.592 399.624,311.478 400.688,311.348 401.752,311.198 402.816,311.025 403.88,310.825 404.944,310.589 405.476,310.456 406.008,310.312 406.54,310.153 407.604,309.79 408.668,309.35 409.732,308.81 410.264,308.493 410.796,308.137 411.86,307.286 412.924,306.189 413.988,304.742 414.52,303.841 415.052,302.786 415.584,301.541 416.116,300.061 416.648,298.284 417.18,296.133 417.712,293.503 418.244,290.257 418.776,286.214 419.308,281.144 419.84,274.769 420.372,266.794 420.904,257.007 421.436,245.515 421.968,233.099 422.5,221.475 423.032,212.913 423.564,209.101 424.096,210.252 424.628,215.35 425.16,222.997 425.692,232.005 426.224,241.529 426.756,250.994 427.288,259.976 427.82,268.148 428.352,275.288 428.884,281.31 429.416,286.265 429.948,290.29 430.48,293.549 431.012,296.194 431.544,298.357 432.076,300.139 432.608,301.621 433.14,302.864 433.672,303.915 434.204,304.812 434.736,305.583 435.8,306.83 436.864,307.786 437.928,308.535 438.992,309.131 439.524,309.385 440.056,309.615 440.588,309.823 441.652,310.184 442.716,310.486 443.248,310.619 443.78,310.741 444.844,310.958 445.908,311.145 446.972,311.307 447.504,311.379 448.568,311.511 449.632,311.627 450.696,311.729 451.76,311.82 452.824,311.901 453.888,311.974 454.952,312.039 456.016,312.098 456.548,312.125 457.612,312.176 458.676,312.223 459.74,312.265 460.804,312.304 461.868,312.34 462.932,312.372 463.996,312.403 464.528,312.417 465.592,312.444 466.656,312.469 467.72,312.492 468.252,312.503 468.784,312.513 469.848,312.534 470.912,312.552 471.976,312.57 472.508,312.578 473.572,312.594 474.636,312.609 475.7,312.623 476.764,312.637 477.828,312.649 478.892,312.661 479.956,312.672 481.02,312.683 481.552,312.688 482.616,312.697 483.68,312.707 484.744,312.715 485.808,312.724 486.872,312.732 487.936,312.739 489,312.746 " />
</g>

<g fill="none" stroke="#000000" stroke-opacity="1" stroke-width="1" stroke-linecap="square" stroke-linejoin="bevel" transform="matrix(1,0,0,1,0,0)"
font-family="Noto Sans [MONO]" font-size="13.3333" font-weight="400" font-style="normal" 
>
</g>

<g fill="none" stroke="#000000" stroke-opacity="1" stroke-width="1" stroke-linecap="square" stroke-linejoin="bevel" transform="matrix(1,0,0,1,0,0)"
font-family="Noto Sans [MONO]" font-size="13.3333" font-weight="400" font-style="normal" 
>
</g>

<g fill="none" stroke="#000000" stroke-opacity="1" stroke-width="1" stroke-linecap="square" stroke-linejoin="bevel" transform="matrix(1,0,0,1,0,0)"
font-family="Noto Sans [MONO]" font-size="13.3333" font-weight="400" font-style="normal" 
>
</g>

<g fill="none" stroke="#ff00ff" stroke-opacity="1" stroke-width="2" stroke-linecap="butt" stroke-linejoin="miter" stroke-miterlimit="2" transform="matrix(1,0,0,1,0,0)"
font-family="Noto Sans [MONO]" font-size="13.3333" font-weight="400" font-style="normal" 
>
<polyline fill="none" vector-effect="non-scaling-stroke" points="89,312.88 90,312.879 90.532,312.878 91.596,312.877 92.66,312.875 93.724,312.874 94.788,312.872 95.852,312.871 96.916,312.869 97.98,312.868 98.512,312.867 99.576,312.865 100.64,312.864 101.704,312.862 102.768,312.86 103.832,312.858 104.896,312.856 105.96,312.855 107.024,312.853 107.556,312.852 108.62,312.85 109.684,312.848 110.748,312.846 111.812,312.843 112.876,312.841 113.94,312.839 115.004,312.837 115.536,312.836 116.6,312.833 117.664,312.831 118.728,312.828 119.792,312.826 120.856,312.823 121.92,312.821 122.984,312.818 123.516,312.817 124.58,312.814 125.644,312.811 126.708,312.808 127.772,312.805 128.836,312.802 129.9,312.799 130.964,312.796 132.028,312.793 132.56,312.791 133.624,312.787 134.688,312.784 135.752,312.78 136.816,312.777 137.88,312.773 138.944,312.769 140.008,312.765 140.54,312.763 141.604,312.759 142.668,312.755 143.732,312.75 144.796,312.746 145.86,312.741 146.924,312.737 147.988,312.732 148.52,312.729 149.584,312.724 150.648,312.719 151.712,312.713 152.776,312.708 153.84,312.702 154.904,312.696 155.968,312.69 156.5,312.687 157.564,312.681 158.628,312.674 159.692,312.668 160.756,312.661 161.82,312.654 162.884,312.646 163.948,312.639 165.012,312.631 165.544,312.627 166.608,312.618 167.672,312.61 168.736,312.601 169.8,312.592 170.864,312.582 171.928,312.572 172.992,312.562 173.524,312.557 174.588,312.546 175.652,312.535 176.716,312.523 177.78,312.511 178.844,312.499 179.908,312.486 180.972,312.472 181.504,312.465 182.568,312.451 183.632,312.436 184.696,312.42 185.76,312.404 186.824,312.387 187.888,312.369 188.952,312.351 190.016,312.331 190.548,312.321 191.612,312.301 192.676,312.279 193.74,312.256 194.804,312.233 195.868,312.208 196.932,312.181 197.996,312.154 198.528,312.139 199.592,312.11 200.656,312.078 201.72,312.045 202.784,312.01 203.848,311.973 204.912,311.934 205.976,311.893 206.508,311.871 207.572,311.826 208.636,311.778 209.7,311.727 210.764,311.673 211.828,311.615 212.892,311.553 213.956,311.487 215.02,311.416 215.552,311.378 216.616,311.3 217.68,311.215 218.744,311.123 219.808,311.024 220.872,310.917 221.936,310.801 223,310.674 223.532,310.607 224.596,310.463 225.66,310.305 226.724,310.132 227.788,309.941 228.852,309.73 229.916,309.495 230.98,309.235 231.512,309.093 232.576,308.784 233.64,308.436 234.704,308.042 235.768,307.593 236.3,307.345 236.832,307.079 237.896,306.486 238.96,305.797 239.492,305.409 240.024,304.989 240.556,304.532 241.088,304.033 241.62,303.489 242.684,302.234 243.748,300.706 244.28,299.813 244.812,298.817 245.344,297.701 245.876,296.445 246.408,295.023 246.94,293.405 247.472,291.553 248.004,289.42 248.536,286.946 249.068,284.056 249.6,280.652 250.132,276.607 250.664,271.758 251.196,265.887 251.728,258.711 252.26,249.856 252.792,238.846 253.324,225.098 253.856,207.976 254.388,186.976 254.92,162.15 255.452,134.807 255.984,108.058 256.516,86.2232 257.048,72.7248 257.58,68.266 258.112,71.1391 258.644,78.8179 259.176,89.1305 259.708,100.598 260.24,112.326 260.772,123.798 261.304,134.698 261.836,144.774 262.368,153.744 262.9,161.253 263.432,166.921 263.964,170.586 264.496,172.645 265.028,174.128 265.56,176.194 266.092,179.479 266.624,183.958 267.156,189.273 267.688,195.044 268.22,200.997 268.752,206.967 269.284,212.87 269.816,218.668 270.348,224.354 270.88,229.933 271.412,235.42 271.944,240.831 272.476,246.182 273.008,251.485 273.54,256.745 274.072,261.95 274.604,267.064 275.136,272.02 275.668,276.715 276.2,281.027 276.732,284.855 277.264,288.155 277.796,290.946 278.328,293.287 278.86,295.25 279.392,296.906 279.924,298.312 280.456,299.518 280.988,300.561 281.52,301.47 282.052,302.268 282.584,302.974 283.116,303.602 283.648,304.165 284.18,304.67 284.712,305.127 285.244,305.542 285.776,305.919 286.84,306.58 287.904,307.138 288.968,307.614 289.5,307.826 290.564,308.207 291.628,308.537 292.692,308.825 293.756,309.077 294.82,309.298 295.884,309.493 296.416,309.582 296.948,309.665 298.012,309.815 298.544,309.884 299.608,310.007 300.672,310.115 301.736,310.207 302.8,310.286 303.864,310.352 304.928,310.406 305.992,310.447 306.524,310.463 307.588,310.486 308.652,310.497 309.716,310.495 310.78,310.479 311.844,310.449 312.908,310.402 313.972,310.338 314.504,310.298 315.568,310.202 316.632,310.081 317.696,309.93 318.76,309.742 319.824,309.511 320.356,309.375 320.888,309.225 321.952,308.87 323.016,308.426 323.548,308.163 324.612,307.532 325.144,307.153 325.676,306.721 326.208,306.227 326.74,305.659 327.272,305.004 327.804,304.242 328.336,303.351 328.868,302.301 329.4,301.056 329.932,299.565 330.464,297.766 330.996,295.573 331.528,292.877 332.06,289.53 332.592,285.345 333.124,280.083 333.656,273.475 334.188,265.274 334.72,255.41 335.252,244.269 335.784,233.023 336.316,223.6 336.848,217.917 337.38,216.812 337.912,219.785 338.444,225.641 338.976,233.192 339.508,241.552 340.04,250.126 340.572,258.505 341.104,266.376 341.636,273.488 342.168,279.67 342.7,284.87 343.232,289.145 343.764,292.621 344.296,295.439 344.828,297.734 345.36,299.616 345.892,301.172 346.424,302.47 346.956,303.562 348.02,305.283 348.552,305.966 349.084,306.56 349.616,307.078 350.148,307.533 350.68,307.935 351.744,308.61 352.808,309.151 353.872,309.592 354.936,309.956 356,310.26 356.532,310.394 357.064,310.517 357.596,310.631 358.66,310.834 359.724,311.01 360.788,311.163 361.852,311.297 362.916,311.416 363.98,311.52 364.512,311.569 365.576,311.657 366.64,311.737 367.704,311.808 368.768,311.873 369.832,311.932 370.896,311.986 371.96,312.036 373.024,312.081 373.556,312.102 374.62,312.142 375.684,312.179 376.748,312.214 377.812,312.245 378.876,312.275 379.94,312.303 381.004,312.329 381.536,312.341 382.6,312.365 383.664,312.387 384.728,312.407 385.792,312.427 386.856,312.445 387.92,312.463 388.984,312.479 389.516,312.487 390.58,312.502 391.644,312.517 392.708,312.531 393.772,312.544 394.836,312.556 395.9,312.568 396.964,312.579 398.028,312.59 398.56,312.595 399.624,312.606 400.688,312.615 401.752,312.625 402.816,312.633 403.88,312.642 404.944,312.65 406.008,312.658 406.54,312.662 407.604,312.669 408.668,312.677 409.732,312.683 410.796,312.69 411.86,312.697 412.924,312.703 413.988,312.709 414.52,312.712 415.584,312.717 416.648,312.723 417.712,312.728 418.776,312.733 419.84,312.738 420.904,312.743 421.968,312.748 422.5,312.75 423.564,312.755 424.628,312.759 425.692,312.763 426.756,312.767 427.82,312.771 428.884,312.775 429.948,312.779 431.012,312.783 431.544,312.784 432.608,312.788 433.672,312.791 434.736,312.795 435.8,312.798 436.864,312.801 437.928,312.804 438.992,312.807 439.524,312.808 440.588,312.811 441.652,312.814 442.716,312.817 443.78,312.82 444.844,312.822 445.908,312.825 446.972,312.827 447.504,312.828 448.568,312.831 449.632,312.833 450.696,312.835 451.76,312.838 452.824,312.84 453.888,312.842 454.952,312.844 456.016,312.846 456.548,312.847 457.612,312.849 458.676,312.851 459.74,312.853 460.804,312.855 461.868,312.857 462.932,312.858 463.996,312.86 464.528,312.861 465.592,312.863 466.656,312.864 467.72,312.866 468.784,312.868 469.848,312.869 470.912,312.871 471.976,312.872 472.508,312.873 473.572,312.875 474.636,312.876 475.7,312.877 476.764,312.879 477.828,312.88 478.892,312.881 479.956,312.883 481.02,312.884 481.552,312.885 482.616,312.886 483.68,312.887 484.744,312.888 485.808,312.89 486.872,312.891 487.936,312.892 489,312.893 " />
</g>

<g fill="none" stroke="#000000" stroke-opacity="1" stroke-width="1" stroke-linecap="square" stroke-linejoin="bevel" transform="matrix(1,0,0,1,0,0)"
font-family="Noto Sans [MONO]" font-size="13.3333" font-weight="400" font-style="normal" 
>
</g>

<g fill="none" stroke="#000000" stroke-opacity="1" stroke-width="1" stroke-linecap="square" stroke-linejoin="bevel" transform="matrix(1,0,0,1,0,0)"
font-family="Noto Sans [MONO]" font-size="13.3333" font-weight="400" font-style="normal" 
>
</g>

<g fill="none" stroke="#000000" stroke-opacity="1" stroke-width="1" stroke-linecap="square" stroke-linejoin="bevel" transform="matrix(1,0,0,1,0,0)"
font-family="Noto Sans [MONO]" font-size="13.3333" font-weight="400" font-style="normal" 
>
</g>

<g fill="none" stroke="#000000" stroke-opacity="1" stroke-width="1" stroke-linecap="square" stroke-linejoin="miter" stroke-miterlimit="2" transform="matrix(1,0,0,1,0,0)"
font-family="Noto Sans [MONO]" font-size="13.3333" font-weight="400" font-style="normal" 
>
<path vector-effect="none" fill-rule="evenodd" d="M89,15 L490,15 L490,314 L89,314 L89,15"/>
</g>

<g fill="none" stroke="#000000" stroke-opacity="1" stroke-width="1" stroke-linecap="square" stroke-linejoin="bevel" transform="matrix(1,0,0,1,0,0)"
font-family="Noto Sans [MONO]" font-size="13.3333" font-weight="400" font-style="normal" 
>
</g>

<g fill="none" stroke="#212121" stroke-opacity="1" stroke-width="1" stroke-linecap="square" stroke-linejoin="bevel" transform="matrix(0,-1,1,0,5,324)"
font-family="Noto Sans UI" font-size="16" font-weight="400" font-style="italic" 
>
</g>

<g fill="none" stroke="#000000" stroke-opacity="1" stroke-width="1" stroke-linecap="square" stroke-linejoin="bevel" transform="matrix(0,-1,1,0,5,324)"
font-family="Noto Sans UI" font-size="18.6667" font-weight="700" font-style="normal" 
>
<text fill="#000000" fill-opacity="1" stroke="none" xml:space="preserve" x="23" y="20" font-family="Noto Sans UI" font-size="18.6667" font-weight="700" font-style="normal" 
 >Molar absorption (L/mol/cm)</text>
</g>

<g fill="none" stroke="#212121" stroke-opacity="1" stroke-width="1" stroke-linecap="square" stroke-linejoin="bevel" transform="matrix(0,-1,1,0,5,324)"
font-family="Noto Sans UI" font-size="16" font-weight="400" font-style="italic" 
>
</g>

<g fill="none" stroke="#000000" stroke-opacity="1" stroke-width="1" stroke-linecap="square" stroke-linejoin="bevel" transform="matrix(1,0,0,1,0,0)"
font-family="Noto Sans [MONO]" font-size="13.3333" font-weight="400" font-style="normal" 
>
</g>

<g fill="none" stroke="#000000" stroke-opacity="1" stroke-width="1" stroke-linecap="square" stroke-linejoin="bevel" transform="matrix(1,0,0,1,0,0)"
font-family="Noto Sans UI" font-size="16" font-weight="400" font-style="italic" 
>
</g>

<g fill="none" stroke="#000000" stroke-opacity="1" stroke-width="1" stroke-linecap="square" stroke-linejoin="bevel" transform="matrix(1,0,0,1,0,0)"
font-family="Noto Sans UI" font-size="16" font-weight="400" font-style="italic" 
>
</g>

<g fill="none" stroke="#212121" stroke-opacity="1" stroke-width="1" stroke-linecap="square" stroke-linejoin="bevel" transform="matrix(1,0,0,1,0,0)"
font-family="Noto Sans UI" font-size="16" font-weight="400" font-style="italic" 
>
</g>

<g fill="none" stroke="#212121" stroke-opacity="1" stroke-width="1" stroke-linecap="square" stroke-linejoin="bevel" transform="matrix(1,0,0,1,74,301)"
font-family="Noto Sans UI" font-size="16" font-weight="400" font-style="italic" 
>
<text fill="#212121" fill-opacity="1" stroke="none" xml:space="preserve" x="0" y="18" font-family="Noto Sans UI" font-size="16" font-weight="400" font-style="italic" 
 >0</text>
</g>

<g fill="none" stroke="#212121" stroke-opacity="1" stroke-width="1" stroke-linecap="square" stroke-linejoin="bevel" transform="matrix(1,0,0,1,74,301)"
font-family="Noto Sans UI" font-size="16" font-weight="400" font-style="italic" 
>
</g>

<g fill="none" stroke="#212121" stroke-opacity="1" stroke-width="1" stroke-linecap="square" stroke-linejoin="bevel" transform="matrix(1,0,0,1,0,0)"
font-family="Noto Sans UI" font-size="16" font-weight="400" font-style="italic" 
>
</g>

<g fill="none" stroke="#212121" stroke-opacity="1" stroke-width="1" stroke-linecap="square" stroke-linejoin="bevel" transform="matrix(1,0,0,1,34,252)"
font-family="Noto Sans UI" font-size="16" font-weight="400" font-style="italic" 
>
<text fill="#212121" fill-opacity="1" stroke="none" xml:space="preserve" x="0" y="18" font-family="Noto Sans UI" font-size="16" font-weight="400" font-style="italic" 
 >10,000</text>
</g>

<g fill="none" stroke="#212121" stroke-opacity="1" stroke-width="1" stroke-linecap="square" stroke-linejoin="bevel" transform="matrix(1,0,0,1,34,252)"
font-family="Noto Sans UI" font-size="16" font-weight="400" font-style="italic" 
>
</g>

<g fill="none" stroke="#212121" stroke-opacity="1" stroke-width="1" stroke-linecap="square" stroke-linejoin="bevel" transform="matrix(1,0,0,1,0,0)"
font-family="Noto Sans UI" font-size="16" font-weight="400" font-style="italic" 
>
</g>

<g fill="none" stroke="#212121" stroke-opacity="1" stroke-width="1" stroke-linecap="square" stroke-linejoin="bevel" transform="matrix(1,0,0,1,34,202)"
font-family="Noto Sans UI" font-size="16" font-weight="400" font-style="italic" 
>
<text fill="#212121" fill-opacity="1" stroke="none" xml:space="preserve" x="0" y="18" font-family="Noto Sans UI" font-size="16" font-weight="400" font-style="italic" 
 >20,000</text>
</g>

<g fill="none" stroke="#212121" stroke-opacity="1" stroke-width="1" stroke-linecap="square" stroke-linejoin="bevel" transform="matrix(1,0,0,1,34,202)"
font-family="Noto Sans UI" font-size="16" font-weight="400" font-style="italic" 
>
</g>

<g fill="none" stroke="#212121" stroke-opacity="1" stroke-width="1" stroke-linecap="square" stroke-linejoin="bevel" transform="matrix(1,0,0,1,0,0)"
font-family="Noto Sans UI" font-size="16" font-weight="400" font-style="italic" 
>
</g>

<g fill="none" stroke="#212121" stroke-opacity="1" stroke-width="1" stroke-linecap="square" stroke-linejoin="bevel" transform="matrix(1,0,0,1,34,153)"
font-family="Noto Sans UI" font-size="16" font-weight="400" font-style="italic" 
>
<text fill="#212121" fill-opacity="1" stroke="none" xml:space="preserve" x="0" y="18" font-family="Noto Sans UI" font-size="16" font-weight="400" font-style="italic" 
 >30,000</text>
</g>

<g fill="none" stroke="#212121" stroke-opacity="1" stroke-width="1" stroke-linecap="square" stroke-linejoin="bevel" transform="matrix(1,0,0,1,34,153)"
font-family="Noto Sans UI" font-size="16" font-weight="400" font-style="italic" 
>
</g>

<g fill="none" stroke="#212121" stroke-opacity="1" stroke-width="1" stroke-linecap="square" stroke-linejoin="bevel" transform="matrix(1,0,0,1,0,0)"
font-family="Noto Sans UI" font-size="16" font-weight="400" font-style="italic" 
>
</g>

<g fill="none" stroke="#212121" stroke-opacity="1" stroke-width="1" stroke-linecap="square" stroke-linejoin="bevel" transform="matrix(1,0,0,1,34,103)"
font-family="Noto Sans UI" font-size="16" font-weight="400" font-style="italic" 
>
<text fill="#212121" fill-opacity="1" stroke="none" xml:space="preserve" x="0" y="18" font-family="Noto Sans UI" font-size="16" font-weight="400" font-style="italic" 
 >40,000</text>
</g>

<g fill="none" stroke="#212121" stroke-opacity="1" stroke-width="1" stroke-linecap="square" stroke-linejoin="bevel" transform="matrix(1,0,0,1,34,103)"
font-family="Noto Sans UI" font-size="16" font-weight="400" font-style="italic" 
>
</g>

<g fill="none" stroke="#212121" stroke-opacity="1" stroke-width="1" stroke-linecap="square" stroke-linejoin="bevel" transform="matrix(1,0,0,1,0,0)"
font-family="Noto Sans UI" font-size="16" font-weight="400" font-style="italic" 
>
</g>

<g fill="none" stroke="#212121" stroke-opacity="1" stroke-width="1" stroke-linecap="square" stroke-linejoin="bevel" transform="matrix(1,0,0,1,34,53)"
font-family="Noto Sans UI" font-size="16" font-weight="400" font-style="italic" 
>
<text fill="#212121" fill-opacity="1" stroke="none" xml:space="preserve" x="0" y="18" font-family="Noto Sans UI" font-size="16" font-weight="400" font-style="italic" 
 >50,000</text>
</g>

<g fill="none" stroke="#212121" stroke-opacity="1" stroke-width="1" stroke-linecap="square" stroke-linejoin="bevel" transform="matrix(1,0,0,1,34,53)"
font-family="Noto Sans UI" font-size="16" font-weight="400" font-style="italic" 
>
</g>

<g fill="none" stroke="#212121" stroke-opacity="1" stroke-width="1" stroke-linecap="square" stroke-linejoin="bevel" transform="matrix(1,0,0,1,0,0)"
font-family="Noto Sans UI" font-size="16" font-weight="400" font-style="italic" 
>
</g>

<g fill="none" stroke="#212121" stroke-opacity="1" stroke-width="1" stroke-linecap="square" stroke-linejoin="bevel" transform="matrix(1,0,0,1,34,4)"
font-family="Noto Sans UI" font-size="16" font-weight="400" font-style="italic" 
>
<text fill="#212121" fill-opacity="1" stroke="none" xml:space="preserve" x="0" y="18" font-family="Noto Sans UI" font-size="16" font-weight="400" font-style="italic" 
 >60,000</text>
</g>

<g fill="none" stroke="#212121" stroke-opacity="1" stroke-width="1" stroke-linecap="square" stroke-linejoin="bevel" transform="matrix(1,0,0,1,34,4)"
font-family="Noto Sans UI" font-size="16" font-weight="400" font-style="italic" 
>
</g>

<g fill="none" stroke="#212121" stroke-opacity="1" stroke-width="1" stroke-linecap="square" stroke-linejoin="bevel" transform="matrix(1,0,0,1,0,0)"
font-family="Noto Sans UI" font-size="16" font-weight="400" font-style="italic" 
>
</g>

<g fill="none" stroke="#000000" stroke-opacity="1" stroke-width="1" stroke-linecap="square" stroke-linejoin="bevel" transform="matrix(1,0,0,1,0,0)"
font-family="Noto Sans UI" font-size="16" font-weight="400" font-style="italic" 
>
<polyline fill="none" vector-effect="non-scaling-stroke" points="89,264 90,264 " />
<polyline fill="none" vector-effect="non-scaling-stroke" points="89,214 90,214 " />
<polyline fill="none" vector-effect="non-scaling-stroke" points="89,165 90,165 " />
<polyline fill="none" vector-effect="non-scaling-stroke" points="89,115 90,115 " />
<polyline fill="none" vector-effect="non-scaling-stroke" points="89,65 90,65 " />
</g>

<g fill="none" stroke="#000000" stroke-opacity="1" stroke-width="1" stroke-linecap="square" stroke-linejoin="bevel" transform="matrix(1,0,0,1,0,0)"
font-family="Noto Sans UI" font-size="16" font-weight="400" font-style="italic" 
>
<polyline fill="none" vector-effect="non-scaling-stroke" points="89,16 89,313 " />
</g>

<g fill="none" stroke="#000000" stroke-opacity="1" stroke-width="1" stroke-linecap="square" stroke-linejoin="bevel" transform="matrix(1,0,0,1,0,0)"
font-family="Noto Sans UI" font-size="16" font-weight="400" font-style="italic" 
>
<polyline fill="none" vector-effect="non-scaling-stroke" points="89,264 98,264 " />
<polyline fill="none" vector-effect="non-scaling-stroke" points="89,214 98,214 " />
<polyline fill="none" vector-effect="non-scaling-stroke" points="89,165 98,165 " />
<polyline fill="none" vector-effect="non-scaling-stroke" points="89,115 98,115 " />
<polyline fill="none" vector-effect="non-scaling-stroke" points="89,65 98,65 " />
<polyline fill="none" vector-effect="non-scaling-stroke" points="89,305 94,305 " />
<polyline fill="none" vector-effect="non-scaling-stroke" points="89,297 94,297 " />
<polyline fill="none" vector-effect="non-scaling-stroke" points="89,280 94,280 " />
<polyline fill="none" vector-effect="non-scaling-stroke" points="89,272 94,272 " />
<polyline fill="none" vector-effect="non-scaling-stroke" points="89,255 94,255 " />
<polyline fill="none" vector-effect="non-scaling-stroke" points="89,247 94,247 " />
<polyline fill="none" vector-effect="non-scaling-stroke" points="89,231 94,231 " />
<polyline fill="none" vector-effect="non-scaling-stroke" points="89,222 94,222 " />
<polyline fill="none" vector-effect="non-scaling-stroke" points="89,206 94,206 " />
<polyline fill="none" vector-effect="non-scaling-stroke" points="89,198 94,198 " />
<polyline fill="none" vector-effect="non-scaling-stroke" points="89,181 94,181 " />
<polyline fill="none" vector-effect="non-scaling-stroke" points="89,173 94,173 " />
<polyline fill="none" vector-effect="non-scaling-stroke" points="89,156 94,156 " />
<polyline fill="none" vector-effect="non-scaling-stroke" points="89,148 94,148 " />
<polyline fill="none" vector-effect="non-scaling-stroke" points="89,132 94,132 " />
<polyline fill="none" vector-effect="non-scaling-stroke" points="89,123 94,123 " />
<polyline fill="none" vector-effect="non-scaling-stroke" points="89,107 94,107 " />
<polyline fill="none" vector-effect="non-scaling-stroke" points="89,99 94,99 " />
<polyline fill="none" vector-effect="non-scaling-stroke" points="89,82 94,82 " />
<polyline fill="none" vector-effect="non-scaling-stroke" points="89,74 94,74 " />
<polyline fill="none" vector-effect="non-scaling-stroke" points="89,57 94,57 " />
<polyline fill="none" vector-effect="non-scaling-stroke" points="89,49 94,49 " />
<polyline fill="none" vector-effect="non-scaling-stroke" points="89,33 94,33 " />
<polyline fill="none" vector-effect="non-scaling-stroke" points="89,24 94,24 " />
<polyline fill="none" vector-effect="non-scaling-stroke" points="89,288 94,288 " />
<polyline fill="none" vector-effect="non-scaling-stroke" points="89,239 94,239 " />
<polyline fill="none" vector-effect="non-scaling-stroke" points="89,189 94,189 " />
<polyline fill="none" vector-effect="non-scaling-stroke" points="89,140 94,140 " />
<polyline fill="none" vector-effect="non-scaling-stroke" points="89,90 94,90 " />
<polyline fill="none" vector-effect="non-scaling-stroke" points="89,41 94,41 " />
</g>

<g fill="none" stroke="#000000" stroke-opacity="1" stroke-width="1" stroke-linecap="square" stroke-linejoin="bevel" transform="matrix(1,0,0,1,0,0)"
font-family="Noto Sans UI" font-size="16" font-weight="400" font-style="italic" 
>
</g>

<g fill="none" stroke="#000000" stroke-opacity="1" stroke-width="1" stroke-linecap="square" stroke-linejoin="bevel" transform="matrix(1,0,0,1,0,0)"
font-family="Noto Sans [MONO]" font-size="13.3333" font-weight="400" font-style="normal" 
>
</g>

<g fill="none" stroke="#212121" stroke-opacity="1" stroke-width="1" stroke-linecap="square" stroke-linejoin="bevel" transform="matrix(1,0,0,1,76,345)"
font-family="Noto Sans UI" font-size="16" font-weight="400" font-style="italic" 
>
</g>

<g fill="none" stroke="#000000" stroke-opacity="1" stroke-width="1" stroke-linecap="square" stroke-linejoin="bevel" transform="matrix(1,0,0,1,76,345)"
font-family="Noto Sans UI" font-size="18.6667" font-weight="700" font-style="normal" 
>
</g>

<g fill="none" stroke="#000000" stroke-opacity="1" stroke-width="1" stroke-linecap="square" stroke-linejoin="bevel" transform="matrix(1,0,0,1,76,346)"
font-family="Noto Sans UI" font-size="18.6667" font-weight="700" font-style="normal" 
>
<text fill="#000000" fill-opacity="1" stroke="none" xml:space="preserve" x="125.5" y="20" font-family="Noto Sans UI" font-size="18.6667" font-weight="700" font-style="normal" 
 >Wavenumber (cm</text>
<text fill="#000000" fill-opacity="1" stroke="none" xml:space="preserve" x="291.5" y="12" font-family="Noto Sans UI" font-size="12" font-weight="700" font-style="normal" 
 >-1</text>
<text fill="#000000" fill-opacity="1" stroke="none" xml:space="preserve" x="302.5" y="20" font-family="Noto Sans UI" font-size="18.6667" font-weight="700" font-style="normal" 
 >)</text>
</g>

<g fill="none" stroke="#000000" stroke-opacity="1" stroke-width="1" stroke-linecap="square" stroke-linejoin="bevel" transform="matrix(1,0,0,1,76,345)"
font-family="Noto Sans UI" font-size="18.6667" font-weight="700" font-style="normal" 
>
</g>

<g fill="none" stroke="#212121" stroke-opacity="1" stroke-width="1" stroke-linecap="square" stroke-linejoin="bevel" transform="matrix(1,0,0,1,76,345)"
font-family="Noto Sans UI" font-size="16" font-weight="400" font-style="italic" 
>
</g>

<g fill="none" stroke="#000000" stroke-opacity="1" stroke-width="1" stroke-linecap="square" stroke-linejoin="bevel" transform="matrix(1,0,0,1,0,0)"
font-family="Noto Sans [MONO]" font-size="13.3333" font-weight="400" font-style="normal" 
>
</g>

<g fill="none" stroke="#000000" stroke-opacity="1" stroke-width="1" stroke-linecap="square" stroke-linejoin="bevel" transform="matrix(1,0,0,1,0,0)"
font-family="Noto Sans UI" font-size="16" font-weight="400" font-style="italic" 
>
</g>

<g fill="none" stroke="#000000" stroke-opacity="1" stroke-width="1" stroke-linecap="square" stroke-linejoin="bevel" transform="matrix(1,0,0,1,0,0)"
font-family="Noto Sans UI" font-size="16" font-weight="400" font-style="italic" 
>
</g>

<g fill="none" stroke="#212121" stroke-opacity="1" stroke-width="1" stroke-linecap="square" stroke-linejoin="bevel" transform="matrix(1,0,0,1,0,0)"
font-family="Noto Sans UI" font-size="16" font-weight="400" font-style="italic" 
>
</g>

<g fill="none" stroke="#212121" stroke-opacity="1" stroke-width="1" stroke-linecap="square" stroke-linejoin="bevel" transform="matrix(1,0,0,1,76,320)"
font-family="Noto Sans UI" font-size="16" font-weight="400" font-style="italic" 
>
<text fill="#212121" fill-opacity="1" stroke="none" xml:space="preserve" x="0" y="18" font-family="Noto Sans UI" font-size="16" font-weight="400" font-style="italic" 
 >950</text>
</g>

<g fill="none" stroke="#212121" stroke-opacity="1" stroke-width="1" stroke-linecap="square" stroke-linejoin="bevel" transform="matrix(1,0,0,1,76,320)"
font-family="Noto Sans UI" font-size="16" font-weight="400" font-style="italic" 
>
</g>

<g fill="none" stroke="#212121" stroke-opacity="1" stroke-width="1" stroke-linecap="square" stroke-linejoin="bevel" transform="matrix(1,0,0,1,0,0)"
font-family="Noto Sans UI" font-size="16" font-weight="400" font-style="italic" 
>
</g>

<g fill="none" stroke="#212121" stroke-opacity="1" stroke-width="1" stroke-linecap="square" stroke-linejoin="bevel" transform="matrix(1,0,0,1,203,320)"
font-family="Noto Sans UI" font-size="16" font-weight="400" font-style="italic" 
>
<text fill="#212121" fill-opacity="1" stroke="none" xml:space="preserve" x="0" y="18" font-family="Noto Sans UI" font-size="16" font-weight="400" font-style="italic" 
 >1,000</text>
</g>

<g fill="none" stroke="#212121" stroke-opacity="1" stroke-width="1" stroke-linecap="square" stroke-linejoin="bevel" transform="matrix(1,0,0,1,203,320)"
font-family="Noto Sans UI" font-size="16" font-weight="400" font-style="italic" 
>
</g>

<g fill="none" stroke="#212121" stroke-opacity="1" stroke-width="1" stroke-linecap="square" stroke-linejoin="bevel" transform="matrix(1,0,0,1,0,0)"
font-family="Noto Sans UI" font-size="16" font-weight="400" font-style="italic" 
>
</g>

<g fill="none" stroke="#212121" stroke-opacity="1" stroke-width="1" stroke-linecap="square" stroke-linejoin="bevel" transform="matrix(1,0,0,1,336,320)"
font-family="Noto Sans UI" font-size="16" font-weight="400" font-style="italic" 
>
<text fill="#212121" fill-opacity="1" stroke="none" xml:space="preserve" x="0" y="18" font-family="Noto Sans UI" font-size="16" font-weight="400" font-style="italic" 
 >1,050</text>
</g>

<g fill="none" stroke="#212121" stroke-opacity="1" stroke-width="1" stroke-linecap="square" stroke-linejoin="bevel" transform="matrix(1,0,0,1,336,320)"
font-family="Noto Sans UI" font-size="16" font-weight="400" font-style="italic" 
>
</g>

<g fill="none" stroke="#212121" stroke-opacity="1" stroke-width="1" stroke-linecap="square" stroke-linejoin="bevel" transform="matrix(1,0,0,1,0,0)"
font-family="Noto Sans UI" font-size="16" font-weight="400" font-style="italic" 
>
</g>

<g fill="none" stroke="#212121" stroke-opacity="1" stroke-width="1" stroke-linecap="square" stroke-linejoin="bevel" transform="matrix(1,0,0,1,469,320)"
font-family="Noto Sans UI" font-size="16" font-weight="400" font-style="italic" 
>
<text fill="#212121" fill-opacity="1" stroke="none" xml:space="preserve" x="0" y="18" font-family="Noto Sans UI" font-size="16" font-weight="400" font-style="italic" 
 >1,100</text>
</g>

<g fill="none" stroke="#212121" stroke-opacity="1" stroke-width="1" stroke-linecap="square" stroke-linejoin="bevel" transform="matrix(1,0,0,1,469,320)"
font-family="Noto Sans UI" font-size="16" font-weight="400" font-style="italic" 
>
</g>

<g fill="none" stroke="#212121" stroke-opacity="1" stroke-width="1" stroke-linecap="square" stroke-linejoin="bevel" transform="matrix(1,0,0,1,0,0)"
font-family="Noto Sans UI" font-size="16" font-weight="400" font-style="italic" 
>
</g>

<g fill="none" stroke="#000000" stroke-opacity="1" stroke-width="1" stroke-linecap="square" stroke-linejoin="bevel" transform="matrix(1,0,0,1,0,0)"
font-family="Noto Sans UI" font-size="16" font-weight="400" font-style="italic" 
>
<polyline fill="none" vector-effect="non-scaling-stroke" points="223,314 223,313 " />
<polyline fill="none" vector-effect="non-scaling-stroke" points="356,314 356,313 " />
</g>

<g fill="none" stroke="#000000" stroke-opacity="1" stroke-width="1" stroke-linecap="square" stroke-linejoin="bevel" transform="matrix(1,0,0,1,0,0)"
font-family="Noto Sans UI" font-size="16" font-weight="400" font-style="italic" 
>
<polyline fill="none" vector-effect="non-scaling-stroke" points="90,314 489,314 " />
</g>

<g fill="none" stroke="#000000" stroke-opacity="1" stroke-width="1" stroke-linecap="square" stroke-linejoin="bevel" transform="matrix(1,0,0,1,0,0)"
font-family="Noto Sans UI" font-size="16" font-weight="400" font-style="italic" 
>
<polyline fill="none" vector-effect="non-scaling-stroke" points="223,314 223,305 " />
<polyline fill="none" vector-effect="non-scaling-stroke" points="356,314 356,305 " />
<polyline fill="none" vector-effect="non-scaling-stroke" points="112,314 112,309 " />
<polyline fill="none" vector-effect="non-scaling-stroke" points="134,314 134,309 " />
<polyline fill="none" vector-effect="non-scaling-stroke" points="179,314 179,309 " />
<polyline fill="none" vector-effect="non-scaling-stroke" points="201,314 201,309 " />
<polyline fill="none" vector-effect="non-scaling-stroke" points="245,314 245,309 " />
<polyline fill="none" vector-effect="non-scaling-stroke" points="267,314 267,309 " />
<polyline fill="none" vector-effect="non-scaling-stroke" points="312,314 312,309 " />
<polyline fill="none" vector-effect="non-scaling-stroke" points="334,314 334,309 " />
<polyline fill="none" vector-effect="non-scaling-stroke" points="378,314 378,309 " />
<polyline fill="none" vector-effect="non-scaling-stroke" points="400,314 400,309 " />
<polyline fill="none" vector-effect="non-scaling-stroke" points="445,314 445,309 " />
<polyline fill="none" vector-effect="non-scaling-stroke" points="467,314 467,309 " />
<polyline fill="none" vector-effect="non-scaling-stroke" points="156,314 156,309 " />
<polyline fill="none" vector-effect="non-scaling-stroke" points="289,314 289,309 " />
<polyline fill="none" vector-effect="non-scaling-stroke" points="422,314 422,309 " />
</g>

<g fill="none" stroke="#000000" stroke-opacity="1" stroke-width="1" stroke-linecap="square" stroke-linejoin="bevel" transform="matrix(1,0,0,1,0,0)"
font-family="Noto Sans UI" font-size="16" font-weight="400" font-style="italic" 
>
</g>

<g fill="none" stroke="#000000" stroke-opacity="1" stroke-width="1" stroke-linecap="square" stroke-linejoin="bevel" transform="matrix(1,0,0,1,0,0)"
font-family="Noto Sans [MONO]" font-size="13.3333" font-weight="400" font-style="normal" 
>
</g>

<g fill="none" stroke="#000000" stroke-opacity="1" stroke-width="1" stroke-linecap="square" stroke-linejoin="bevel" transform="matrix(1,0,0,1,0,0)"
font-family="Noto Sans [MONO]" font-size="13.3333" font-weight="400" font-style="normal" 
>
</g>

<g fill="none" stroke="#000000" stroke-opacity="1" stroke-width="1" stroke-linecap="square" stroke-linejoin="bevel" transform="matrix(1,0,0,1,293,27)"
font-family="Noto Sans [MONO]" font-size="13.3333" font-weight="400" font-style="normal" 
>
</g>

<g fill="none" stroke="#000000" stroke-opacity="1" stroke-width="1" stroke-linecap="square" stroke-linejoin="bevel" transform="matrix(1,0,0,1,293,27)"
font-family="Noto Sans [MONO]" font-size="13.3333" font-weight="400" font-style="normal" 
>
</g>

<g fill="none" stroke="#000000" stroke-opacity="1" stroke-width="2" stroke-linecap="butt" stroke-linejoin="miter" stroke-miterlimit="2" transform="matrix(1,0,0,1,293,27)"
font-family="Noto Sans [MONO]" font-size="13.3333" font-weight="400" font-style="normal" 
>
<polyline fill="none" vector-effect="non-scaling-stroke" points="11,16 43,16 " />
</g>

<g fill="none" stroke="#000000" stroke-opacity="1" stroke-width="1" stroke-linecap="square" stroke-linejoin="bevel" transform="matrix(1,0,0,1,293,27)"
font-family="Noto Sans [MONO]" font-size="13.3333" font-weight="400" font-style="normal" 
>
</g>

<g fill="none" stroke="#000000" stroke-opacity="1" stroke-width="1" stroke-linecap="square" stroke-linejoin="bevel" transform="matrix(1,0,0,1,293,27)"
font-family="Noto Sans UI" font-size="14.6667" font-weight="400" font-style="italic" 
>
<text fill="#000000" fill-opacity="1" stroke="none" xml:space="preserve" x="53" y="22" font-family="Noto Sans UI" font-size="14.6667" font-weight="400" font-style="italic" 
 >AP</text>
</g>

<g fill="none" stroke="#000000" stroke-opacity="1" stroke-width="1" stroke-linecap="square" stroke-linejoin="bevel" transform="matrix(1,0,0,1,293,27)"
font-family="Noto Sans [MONO]" font-size="13.3333" font-weight="400" font-style="normal" 
>
</g>

<g fill="none" stroke="#000000" stroke-opacity="1" stroke-width="1" stroke-linecap="square" stroke-linejoin="bevel" transform="matrix(1,0,0,1,293,27)"
font-family="Noto Sans [MONO]" font-size="13.3333" font-weight="400" font-style="normal" 
>
</g>

<g fill="none" stroke="#ff0000" stroke-opacity="1" stroke-width="2" stroke-linecap="butt" stroke-linejoin="miter" stroke-miterlimit="2" transform="matrix(1,0,0,1,293,27)"
font-family="Noto Sans [MONO]" font-size="13.3333" font-weight="400" font-style="normal" 
>
<polyline fill="none" vector-effect="non-scaling-stroke" points="11,37 43,37 " />
</g>

<g fill="none" stroke="#000000" stroke-opacity="1" stroke-width="1" stroke-linecap="square" stroke-linejoin="bevel" transform="matrix(1,0,0,1,293,27)"
font-family="Noto Sans [MONO]" font-size="13.3333" font-weight="400" font-style="normal" 
>
</g>

<g fill="none" stroke="#000000" stroke-opacity="1" stroke-width="1" stroke-linecap="square" stroke-linejoin="bevel" transform="matrix(1,0,0,1,293,27)"
font-family="Noto Sans UI" font-size="14.6667" font-weight="400" font-style="italic" 
>
<text fill="#000000" fill-opacity="1" stroke="none" xml:space="preserve" x="53" y="43" font-family="Noto Sans UI" font-size="14.6667" font-weight="400" font-style="italic" 
 >Ellipsoid [001] a/b=2</text>
</g>

<g fill="none" stroke="#000000" stroke-opacity="1" stroke-width="1" stroke-linecap="square" stroke-linejoin="bevel" transform="matrix(1,0,0,1,293,27)"
font-family="Noto Sans [MONO]" font-size="13.3333" font-weight="400" font-style="normal" 
>
</g>

<g fill="none" stroke="#000000" stroke-opacity="1" stroke-width="1" stroke-linecap="square" stroke-linejoin="bevel" transform="matrix(1,0,0,1,293,27)"
font-family="Noto Sans [MONO]" font-size="13.3333" font-weight="400" font-style="normal" 
>
</g>

<g fill="none" stroke="#00ff00" stroke-opacity="1" stroke-width="2" stroke-linecap="butt" stroke-linejoin="miter" stroke-miterlimit="2" transform="matrix(1,0,0,1,293,27)"
font-family="Noto Sans [MONO]" font-size="13.3333" font-weight="400" font-style="normal" 
>
<polyline fill="none" vector-effect="non-scaling-stroke" points="11,58 43,58 " />
</g>

<g fill="none" stroke="#000000" stroke-opacity="1" stroke-width="1" stroke-linecap="square" stroke-linejoin="bevel" transform="matrix(1,0,0,1,293,27)"
font-family="Noto Sans [MONO]" font-size="13.3333" font-weight="400" font-style="normal" 
>
</g>

<g fill="none" stroke="#000000" stroke-opacity="1" stroke-width="1" stroke-linecap="square" stroke-linejoin="bevel" transform="matrix(1,0,0,1,293,27)"
font-family="Noto Sans UI" font-size="14.6667" font-weight="400" font-style="italic" 
>
<text fill="#000000" fill-opacity="1" stroke="none" xml:space="preserve" x="53" y="64" font-family="Noto Sans UI" font-size="14.6667" font-weight="400" font-style="italic" 
 >Needle [001]</text>
</g>

<g fill="none" stroke="#000000" stroke-opacity="1" stroke-width="1" stroke-linecap="square" stroke-linejoin="bevel" transform="matrix(1,0,0,1,293,27)"
font-family="Noto Sans [MONO]" font-size="13.3333" font-weight="400" font-style="normal" 
>
</g>

<g fill="none" stroke="#000000" stroke-opacity="1" stroke-width="1" stroke-linecap="square" stroke-linejoin="bevel" transform="matrix(1,0,0,1,293,27)"
font-family="Noto Sans [MONO]" font-size="13.3333" font-weight="400" font-style="normal" 
>
</g>

<g fill="none" stroke="#0000ff" stroke-opacity="1" stroke-width="2" stroke-linecap="butt" stroke-linejoin="miter" stroke-miterlimit="2" transform="matrix(1,0,0,1,293,27)"
font-family="Noto Sans [MONO]" font-size="13.3333" font-weight="400" font-style="normal" 
>
<polyline fill="none" vector-effect="non-scaling-stroke" points="11,79 43,79 " />
</g>

<g fill="none" stroke="#000000" stroke-opacity="1" stroke-width="1" stroke-linecap="square" stroke-linejoin="bevel" transform="matrix(1,0,0,1,293,27)"
font-family="Noto Sans [MONO]" font-size="13.3333" font-weight="400" font-style="normal" 
>
</g>

<g fill="none" stroke="#000000" stroke-opacity="1" stroke-width="1" stroke-linecap="square" stroke-linejoin="bevel" transform="matrix(1,0,0,1,293,27)"
font-family="Noto Sans UI" font-size="14.6667" font-weight="400" font-style="italic" 
>
<text fill="#000000" fill-opacity="1" stroke="none" xml:space="preserve" x="53" y="85" font-family="Noto Sans UI" font-size="14.6667" font-weight="400" font-style="italic" 
 >Plate (100)</text>
</g>

<g fill="none" stroke="#000000" stroke-opacity="1" stroke-width="1" stroke-linecap="square" stroke-linejoin="bevel" transform="matrix(1,0,0,1,293,27)"
font-family="Noto Sans [MONO]" font-size="13.3333" font-weight="400" font-style="normal" 
>
</g>

<g fill="none" stroke="#000000" stroke-opacity="1" stroke-width="1" stroke-linecap="square" stroke-linejoin="bevel" transform="matrix(1,0,0,1,293,27)"
font-family="Noto Sans [MONO]" font-size="13.3333" font-weight="400" font-style="normal" 
>
</g>

<g fill="none" stroke="#ff00ff" stroke-opacity="1" stroke-width="2" stroke-linecap="butt" stroke-linejoin="miter" stroke-miterlimit="2" transform="matrix(1,0,0,1,293,27)"
font-family="Noto Sans [MONO]" font-size="13.3333" font-weight="400" font-style="normal" 
>
<polyline fill="none" vector-effect="non-scaling-stroke" points="11,100 43,100 " />
</g>

<g fill="none" stroke="#000000" stroke-opacity="1" stroke-width="1" stroke-linecap="square" stroke-linejoin="bevel" transform="matrix(1,0,0,1,293,27)"
font-family="Noto Sans [MONO]" font-size="13.3333" font-weight="400" font-style="normal" 
>
</g>

<g fill="none" stroke="#000000" stroke-opacity="1" stroke-width="1" stroke-linecap="square" stroke-linejoin="bevel" transform="matrix(1,0,0,1,293,27)"
font-family="Noto Sans UI" font-size="14.6667" font-weight="400" font-style="italic" 
>
<text fill="#000000" fill-opacity="1" stroke="none" xml:space="preserve" x="53" y="106" font-family="Noto Sans UI" font-size="14.6667" font-weight="400" font-style="italic" 
 >Sphere</text>
</g>

<g fill="none" stroke="#000000" stroke-opacity="1" stroke-width="1" stroke-linecap="square" stroke-linejoin="bevel" transform="matrix(1,0,0,1,293,27)"
font-family="Noto Sans [MONO]" font-size="13.3333" font-weight="400" font-style="normal" 
>
</g>

<g fill="none" stroke="#000000" stroke-opacity="1" stroke-width="1" stroke-linecap="square" stroke-linejoin="bevel" transform="matrix(1,0,0,1,0,0)"
font-family="Noto Sans [MONO]" font-size="13.3333" font-weight="400" font-style="normal" 
>
</g>

<g fill="none" stroke="#000000" stroke-opacity="1" stroke-width="1" stroke-linecap="square" stroke-linejoin="bevel" transform="matrix(1,0,0,1,0,0)"
font-family="Noto Sans [MONO]" font-size="13.3333" font-weight="400" font-style="normal" 
>
</g>
</g>
</svg>
