<?xml version="1.0" encoding="UTF-8" standalone="no"?>
<svg width="131.762mm" height="103.452mm"
 viewBox="0 0 497 390"
 xmlns="http://www.w3.org/2000/svg" xmlns:xlink="http://www.w3.org/1999/xlink"  version="1.2" baseProfile="tiny">
<title>Graph1</title>
<desc>Generated with QtiPlot</desc>
<defs>
</defs>
<g fill="none" stroke="black" stroke-width="1" fill-rule="evenodd" stroke-linecap="square" stroke-linejoin="bevel" >

<g fill="#ffffff" fill-opacity="1" stroke="none" transform="matrix(1,0,0,1,0,0)"
font-family="Noto Sans [MONO]" font-size="13.3333" font-weight="400" font-style="normal" 
>
<path vector-effect="non-scaling-stroke" fill-rule="evenodd" d="M0,0 L498,0 L498,391 L0,391 L0,0"/>
</g>

<g fill="none" stroke="#000000" stroke-opacity="1" stroke-width="1" stroke-linecap="square" stroke-linejoin="bevel" transform="matrix(1,0,0,1,0,0)"
font-family="Noto Sans [MONO]" font-size="13.3333" font-weight="400" font-style="normal" 
>
</g>

<g fill="#ffffff" fill-opacity="0" stroke="none" transform="matrix(1,0,0,1,0,0)"
font-family="Noto Sans [MONO]" font-size="13.3333" font-weight="400" font-style="normal" 
>
<path vector-effect="non-scaling-stroke" fill-rule="evenodd" d="M5,5 L493,5 L493,381 L5,381 L5,5"/>
</g>

<g fill="none" stroke="none" transform="matrix(1,0,0,1,0,0)"
font-family="Noto Sans [MONO]" font-size="13.3333" font-weight="400" font-style="normal" 
>
<path vector-effect="non-scaling-stroke" fill-rule="evenodd" d="M5,5 L493,5 L493,381 L5,381 L5,5"/>
</g>

<g fill="none" stroke="#000000" stroke-opacity="1" stroke-width="1" stroke-linecap="square" stroke-linejoin="bevel" transform="matrix(1,0,0,1,0,0)"
font-family="Noto Sans [MONO]" font-size="13.3333" font-weight="400" font-style="normal" 
>
</g>

<g fill="#ffffff" fill-opacity="0" stroke="none" transform="matrix(1,0,0,1,0,0)"
font-family="Noto Sans [MONO]" font-size="13.3333" font-weight="400" font-style="normal" 
>
<path vector-effect="non-scaling-stroke" fill-rule="evenodd" d="M67,15 L480,15 L480,323 L67,323 L67,15"/>
</g>

<g fill="none" stroke="#000000" stroke-opacity="1" stroke-width="1" stroke-linecap="square" stroke-linejoin="bevel" transform="matrix(1,0,0,1,0,0)"
font-family="Noto Sans [MONO]" font-size="13.3333" font-weight="400" font-style="normal" 
>
</g>

<g fill="#ffffff" fill-opacity="0" stroke="none" transform="matrix(1,0,0,1,0,0)"
font-family="Noto Sans [MONO]" font-size="13.3333" font-weight="400" font-style="normal" 
>
<path vector-effect="non-scaling-stroke" fill-rule="evenodd" d="M67,15 L480,15 L480,323 L67,323 L67,15"/>
</g>

<g fill="none" stroke="#000000" stroke-opacity="1" stroke-width="1" stroke-linecap="square" stroke-linejoin="bevel" transform="matrix(1,0,0,1,0,0)"
font-family="Noto Sans [MONO]" font-size="13.3333" font-weight="400" font-style="normal" 
>
</g>

<g fill="none" stroke="#000000" stroke-opacity="1" stroke-width="1" stroke-linecap="square" stroke-linejoin="bevel" transform="matrix(1,0,0,1,0,0)"
font-family="Noto Sans [MONO]" font-size="13.3333" font-weight="400" font-style="normal" 
>
</g>

<g fill="none" stroke="#000000" stroke-opacity="1" stroke-width="1" stroke-linecap="square" stroke-linejoin="bevel" transform="matrix(1,0,0,1,0,0)"
font-family="Noto Sans [MONO]" font-size="13.3333" font-weight="400" font-style="normal" 
>
</g>

<g fill="none" stroke="#000000" stroke-opacity="1" stroke-width="2" stroke-linecap="butt" stroke-linejoin="miter" stroke-miterlimit="2" transform="matrix(1,0,0,1,0,0)"
font-family="Noto Sans [MONO]" font-size="13.3333" font-weight="400" font-style="normal" 
>
<polyline fill="none" vector-effect="non-scaling-stroke" points="68,220 68.5138,219.992 69.5413,219.977 70.5687,219.961 71.5962,219.946 72.521,219.932 73.5485,219.916 74.576,219.901 75.5007,219.887 76.5282,219.871 77.5558,219.855 78.5833,219.84 79.508,219.825 80.5355,219.81 81.563,219.794 82.5905,219.778 83.5152,219.763 84.5427,219.747 85.5703,219.731 86.5978,219.715 87.5225,219.7 88.55,219.684 89.5775,219.667 90.5023,219.652 91.5298,219.636 92.5572,219.619 93.5847,219.602 94.5095,219.586 95.537,219.569 96.5645,219.552 97.592,219.534 98.5168,219.518 99.5443,219.5 99.647,219.499 100.572,219.482 101.599,219.464 102.524,219.448 103.552,219.429 104.579,219.41 105.504,219.393 106.531,219.374 107.559,219.355 108.586,219.335 109.511,219.317 110.538,219.297 111.566,219.277 112.594,219.256 113.518,219.238 114.546,219.217 115.573,219.195 116.601,219.173 117.526,219.154 118.553,219.131 119.581,219.109 120.505,219.088 121.533,219.065 122.56,219.041 123.588,219.017 124.513,218.995 125.54,218.97 126.567,218.945 127.595,218.92 128.52,218.896 129.547,218.87 130.575,218.843 131.602,218.815 132.527,218.79 133.555,218.762 134.582,218.733 135.507,218.706 136.534,218.676 137.562,218.645 138.589,218.614 139.514,218.585 140.541,218.553 141.569,218.52 142.185,218.5 142.596,218.486 143.521,218.455 144.549,218.419 145.576,218.383 146.501,218.35 147.529,218.313 148.556,218.274 149.584,218.235 150.508,218.198 151.536,218.157 152.563,218.115 153.591,218.072 154.516,218.032 155.543,217.987 156.571,217.94 157.598,217.893 158.523,217.849 159.55,217.799 160.578,217.748 161.502,217.7 162.53,217.646 163.558,217.591 164.585,217.534 165.202,217.499 165.51,217.481 166.537,217.421 167.565,217.359 168.592,217.295 169.517,217.237 170.544,217.169 171.572,217.1 172.6,217.028 173.524,216.962 174.552,216.886 175.579,216.808 176.504,216.736 177.531,216.652 178.559,216.567 179.381,216.496 179.587,216.478 180.511,216.396 181.539,216.301 182.566,216.203 183.594,216.102 184.519,216.008 185.546,215.9 186.574,215.788 187.601,215.671 188.526,215.563 189.142,215.489 189.553,215.438 190.581,215.309 191.506,215.188 192.533,215.049 193.561,214.904 194.588,214.753 195.513,214.612 196.232,214.499 196.54,214.449 197.568,214.28 198.595,214.103 199.52,213.937 200.548,213.745 201.575,213.545 201.883,213.483 202.603,213.335 203.527,213.138 204.555,212.91 205.582,212.671 206.302,212.497 206.507,212.446 207.535,212.184 208.562,211.909 209.59,211.621 210.103,211.471 210.514,211.349 211.542,211.031 212.569,210.697 213.186,210.488 213.597,210.345 214.522,210.012 215.549,209.622 215.96,209.46 216.577,209.21 217.501,208.819 218.323,208.455 218.529,208.361 219.556,207.875 220.378,207.466 220.584,207.36 221.509,206.87 222.228,206.469 222.536,206.292 223.564,205.678 223.872,205.486 224.591,205.023 225.413,204.468 225.516,204.397 226.543,203.656 226.852,203.424 227.571,202.865 228.085,202.448 228.598,202.018 229.215,201.48 229.523,201.203 230.345,200.435 230.55,200.236 231.373,199.41 231.578,199.196 232.297,198.421 232.503,198.193 233.119,197.485 233.53,196.996 233.941,196.491 234.558,195.704 234.763,195.434 235.483,194.453 235.585,194.308 236.202,193.416 236.51,192.954 236.818,192.481 237.435,191.498 237.538,191.329 238.051,190.466 238.565,189.566 238.668,189.381 239.181,188.434 239.593,187.647 239.695,187.447 240.209,186.416 240.517,185.776 240.723,185.34 241.134,184.444 241.545,183.517 241.648,183.28 242.059,182.311 242.47,181.307 242.572,181.05 242.881,180.266 243.189,179.461 243.6,178.352 243.908,177.494 244.319,176.313 244.525,175.705 244.627,175.397 244.935,174.457 245.244,173.49 245.552,172.495 245.86,171.472 246.169,170.421 246.477,169.339 246.58,168.972 246.785,168.227 246.99,167.468 247.299,166.302 247.504,165.506 247.607,165.102 247.812,164.284 248.018,163.449 248.326,162.168 248.532,161.293 248.737,160.402 248.943,159.494 249.251,158.099 249.457,157.147 249.559,156.665 249.662,156.177 249.868,155.189 250.073,154.182 250.279,153.156 250.484,152.11 250.587,151.58 250.69,151.045 250.895,149.961 250.998,149.411 251.203,148.295 251.409,147.159 251.512,146.583 251.614,146.002 251.717,145.416 251.923,144.227 252.128,143.017 252.231,142.403 252.436,141.16 252.539,140.53 252.642,139.895 252.745,139.254 252.95,137.955 253.053,137.297 253.258,135.964 253.361,135.289 253.567,133.921 253.669,133.229 253.875,131.827 253.978,131.117 254.08,130.401 254.286,128.953 254.389,128.22 254.491,127.481 254.594,126.736 254.697,125.986 254.8,125.23 254.902,124.468 255.108,122.927 255.21,122.147 255.313,121.363 255.519,119.776 255.621,118.974 255.724,118.167 255.827,117.354 256.033,115.712 256.135,114.883 256.238,114.048 256.341,113.208 256.444,112.364 256.546,111.514 256.649,110.659 256.752,109.798 256.855,108.934 256.957,108.064 257.06,107.189 257.163,106.31 257.265,105.427 257.471,103.647 257.574,102.751 257.677,101.85 257.779,100.946 257.882,100.038 257.985,99.1268 258.087,98.2119 258.19,97.2936 258.293,96.3723 258.396,95.448 258.601,93.5913 258.704,92.6592 258.807,91.725 258.91,90.7888 259.012,89.8509 259.115,88.9114 259.218,87.9705 259.321,87.0287 259.423,86.0859 259.526,85.1426 259.629,84.199 259.731,83.2553 259.834,82.3118 259.937,81.3688 260.04,80.4266 260.143,79.4855 260.348,77.6078 260.451,76.6718 260.553,75.7381 260.656,74.8072 260.759,73.8792 260.862,72.9546 260.965,72.0337 261.067,71.1169 261.17,70.2045 261.273,69.297 261.375,68.3947 261.478,67.4979 261.581,66.6071 261.684,65.7227 261.787,64.845 261.889,63.9745 261.992,63.1116 262.095,62.2568 262.197,61.4103 262.403,59.7443 262.506,58.9256 262.609,58.1171 262.711,57.3191 262.917,55.7565 263.019,54.9927 263.122,54.2413 263.328,52.777 263.43,52.065 263.533,51.367 263.739,50.0148 263.841,49.3614 264.047,48.1021 264.15,47.497 264.355,46.3378 264.561,45.2494 264.766,44.2345 264.972,43.2961 265.177,42.4368 265.486,41.3013 265.588,40.9649 265.794,40.3567 266.205,39.4046 266.513,38.9274 267.541,38.8379 268.054,39.6587 268.465,40.7195 268.568,41.0394 268.774,41.743 268.979,42.5302 269.287,43.8625 269.493,44.848 269.596,45.369 269.698,45.9083 269.904,47.0404 270.007,47.6324 270.212,48.8665 270.315,49.5078 270.52,50.8366 270.623,51.5234 270.829,52.9396 270.931,53.6681 271.137,55.1638 271.24,55.9302 271.342,56.7083 271.548,58.2981 271.65,59.1089 271.753,59.9297 271.856,60.7601 271.959,61.5996 272.164,63.3046 272.267,64.1691 272.37,65.0411 272.473,65.9202 272.575,66.806 272.678,67.698 272.781,68.5959 272.986,70.4078 273.089,71.3211 273.192,72.2387 273.295,73.1603 273.397,74.0855 273.5,75.014 273.603,75.9455 273.706,76.8795 273.808,77.8158 273.911,78.7541 274.014,79.694 274.116,80.6352 274.219,81.5774 274.322,82.5203 274.528,84.4072 274.63,85.3505 274.733,86.2935 274.836,87.2359 274.939,88.1774 275.041,89.1177 275.144,90.0567 275.247,90.994 275.35,91.9296 275.452,92.8631 275.555,93.7944 275.658,94.7233 275.76,95.6495 275.863,96.5729 276.069,98.4106 276.172,99.3246 276.274,100.235 276.377,101.142 276.48,102.045 276.582,102.944 276.685,103.839 276.788,104.73 276.891,105.617 277.096,107.377 277.199,108.25 277.302,109.118 277.405,109.982 277.507,110.841 277.61,111.694 277.713,112.543 277.918,114.225 278.021,115.058 278.124,115.885 278.226,116.708 278.329,117.524 278.535,119.142 278.638,119.942 278.74,120.737 278.843,121.526 279.048,123.087 279.151,123.858 279.254,124.625 279.46,126.14 279.562,126.888 279.665,127.632 279.87,129.1 279.973,129.826 280.076,130.546 280.282,131.968 280.384,132.67 280.59,134.058 280.692,134.743 280.898,136.096 281.001,136.763 281.206,138.082 281.309,138.733 281.514,140.018 281.617,140.652 281.823,141.903 281.925,142.52 282.131,143.739 282.337,144.935 282.439,145.525 282.542,146.11 282.645,146.69 282.85,147.834 283.056,148.956 283.159,149.51 283.364,150.602 283.57,151.674 283.775,152.727 283.981,153.76 284.186,154.774 284.392,155.769 284.597,156.745 284.803,157.704 285.008,158.644 285.214,159.567 285.522,160.92 285.727,161.8 285.933,162.664 286.138,163.512 286.447,164.754 286.549,165.161 286.652,165.563 286.96,166.748 287.166,167.519 287.474,168.65 287.577,169.02 287.782,169.749 288.091,170.817 288.296,171.513 288.502,172.196 288.604,172.533 288.913,173.525 289.324,174.805 289.529,175.427 289.632,175.734 289.94,176.639 290.248,177.518 290.557,178.374 290.659,178.654 291.07,179.749 291.379,180.545 291.584,181.064 291.79,181.574 292.201,182.566 292.509,183.288 292.611,183.524 293.125,184.674 293.536,185.559 294.05,186.623 294.564,187.642 295.077,188.618 295.591,189.554 296.208,190.627 296.516,191.143 296.824,191.647 297.441,192.619 297.543,192.776 298.057,193.544 298.571,194.282 298.776,194.569 299.496,195.539 299.599,195.673 300.318,196.585 300.523,196.836 301.14,197.568 301.551,198.038 302.065,198.606 302.578,199.153 302.989,199.576 303.503,200.089 304.017,200.583 304.531,201.059 305.044,201.52 305.558,201.964 306.277,202.561 306.586,202.808 307.51,203.519 308.538,204.262 308.949,204.545 309.565,204.957 310.49,205.545 310.593,205.608 311.518,206.16 312.134,206.511 312.545,206.738 313.572,207.282 314.086,207.542 314.6,207.795 315.525,208.23 316.141,208.508 316.552,208.689 317.58,209.121 318.505,209.491 318.607,209.531 319.532,209.88 320.56,210.249 321.382,210.53 321.587,210.598 322.512,210.897 323.539,211.214 324.567,211.514 325.594,211.8 326.519,212.046 327.547,212.306 328.369,212.506 328.574,212.554 329.601,212.791 330.526,212.995 331.554,213.211 332.581,213.418 333.095,213.518 333.506,213.597 334.534,213.787 335.561,213.969 336.589,214.144 337.513,214.294 338.541,214.455 338.849,214.502 339.568,214.61 340.596,214.758 341.521,214.886 342.548,215.024 343.576,215.156 344.5,215.27 345.528,215.393 346.555,215.511 347.583,215.624 348.508,215.723 349.535,215.829 350.562,215.931 351.59,216.03 352.515,216.116 353.542,216.208 354.57,216.297 355.597,216.383 356.522,216.458 357.139,216.507 357.55,216.539 358.577,216.617 359.502,216.685 360.529,216.758 361.557,216.829 362.584,216.898 363.509,216.958 364.537,217.023 365.564,217.085 366.592,217.146 367.516,217.199 368.544,217.257 369.571,217.312 370.599,217.367 371.524,217.414 372.551,217.465 373.27,217.5 373.579,217.515 374.503,217.558 375.531,217.606 376.558,217.651 377.586,217.696 378.511,217.735 379.538,217.777 380.565,217.818 381.593,217.858 382.518,217.894 383.545,217.932 384.573,217.969 385.6,218.005 386.525,218.037 387.553,218.071 388.58,218.104 389.505,218.134 390.532,218.166 391.56,218.197 392.587,218.228 393.512,218.254 394.54,218.283 395.567,218.312 396.595,218.339 397.519,218.364 398.547,218.39 399.574,218.416 400.602,218.441 401.527,218.464 402.554,218.488 403.171,218.502 403.582,218.511 404.506,218.532 405.534,218.555 406.561,218.577 407.589,218.599 408.514,218.618 409.541,218.639 410.569,218.659 411.596,218.679 412.521,218.696 413.548,218.715 414.576,218.734 415.5,218.751 416.528,218.769 417.555,218.786 418.583,218.804 419.508,218.819 420.535,218.835 421.563,218.852 422.59,218.868 423.515,218.882 424.543,218.897 425.57,218.912 426.598,218.927 427.522,218.94 428.55,218.954 429.577,218.968 430.502,218.98 431.53,218.994 432.557,219.007 433.585,219.02 434.509,219.031 435.537,219.044 436.564,219.056 437.592,219.068 438.517,219.079 439.544,219.091 440.572,219.102 441.599,219.113 442.524,219.123 443.551,219.134 444.579,219.145 445.504,219.154 446.531,219.164 447.558,219.175 448.586,219.184 449.511,219.193 450.538,219.203 451.566,219.212 452.593,219.222 453.518,219.23 454.546,219.239 455.573,219.248 456.601,219.257 457.525,219.264 458.553,219.273 459.58,219.281 460.505,219.288 461.533,219.297 462.56,219.304 463.588,219.312 464.512,219.319 465.54,219.327 466.567,219.334 467.595,219.342 468.52,219.348 469.547,219.355 470.575,219.362 471.602,219.369 472.527,219.375 473.554,219.382 474.582,219.389 475.507,219.394 476.534,219.401 477.562,219.407 478.589,219.413 " />
</g>

<g fill="none" stroke="#000000" stroke-opacity="1" stroke-width="1" stroke-linecap="square" stroke-linejoin="bevel" transform="matrix(1,0,0,1,0,0)"
font-family="Noto Sans [MONO]" font-size="13.3333" font-weight="400" font-style="normal" 
>
</g>

<g fill="none" stroke="#000000" stroke-opacity="1" stroke-width="1" stroke-linecap="square" stroke-linejoin="bevel" transform="matrix(1,0,0,1,0,0)"
font-family="Noto Sans [MONO]" font-size="13.3333" font-weight="400" font-style="normal" 
>
</g>

<g fill="none" stroke="#000000" stroke-opacity="1" stroke-width="1" stroke-linecap="square" stroke-linejoin="bevel" transform="matrix(1,0,0,1,0,0)"
font-family="Noto Sans [MONO]" font-size="13.3333" font-weight="400" font-style="normal" 
>
</g>

<g fill="none" stroke="#ff0000" stroke-opacity="1" stroke-width="2" stroke-linecap="butt" stroke-linejoin="miter" stroke-miterlimit="2" transform="matrix(1,0,0,1,0,0)"
font-family="Noto Sans [MONO]" font-size="13.3333" font-weight="400" font-style="normal" 
>
<polyline fill="none" vector-effect="non-scaling-stroke" points="68,185.989 68.5138,185.989 69.5413,185.987 70.5687,185.985 71.5962,185.981 72.521,185.977 73.5485,185.971 74.576,185.964 75.5007,185.956 76.5282,185.947 77.5558,185.936 78.5833,185.924 79.508,185.912 80.5355,185.898 81.563,185.882 82.5905,185.865 83.5152,185.849 84.5427,185.83 85.5703,185.809 86.5978,185.788 87.5225,185.767 88.55,185.743 89.5775,185.717 90.5023,185.693 91.5298,185.665 92.5572,185.636 93.5847,185.605 94.5095,185.576 95.537,185.543 96.5645,185.509 96.8727,185.498 97.592,185.473 98.5168,185.439 99.5443,185.401 100.572,185.361 101.599,185.319 102.524,185.281 103.552,185.237 104.579,185.191 105.504,185.149 106.531,185.101 107.559,185.051 108.586,184.999 109.511,184.952 110.538,184.897 111.566,184.841 112.594,184.784 113.518,184.731 114.546,184.67 115.573,184.608 116.601,184.544 117.32,184.498 117.526,184.485 118.553,184.417 119.581,184.349 120.505,184.285 121.533,184.213 122.56,184.138 123.588,184.062 124.513,183.992 125.54,183.913 126.567,183.831 127.595,183.747 128.52,183.671 129.547,183.583 130.575,183.494 131.602,183.402 132.527,183.318 133.555,183.222 134.582,183.124 135.507,183.034 136.534,182.932 137.562,182.827 138.589,182.72 139.514,182.622 140.541,182.51 140.644,182.499 141.569,182.396 142.596,182.28 143.521,182.172 144.549,182.05 145.576,181.926 146.501,181.812 147.529,181.682 148.556,181.549 148.967,181.495 149.584,181.413 150.508,181.288 151.536,181.147 152.563,181.002 153.591,180.854 154.516,180.718 155.543,180.563 156.057,180.485 156.571,180.405 157.598,180.244 158.523,180.095 159.55,179.927 160.578,179.754 161.502,179.596 162.119,179.488 162.53,179.416 163.558,179.232 164.585,179.044 165.51,178.87 166.537,178.674 167.462,178.493 167.565,178.472 168.592,178.267 169.517,178.077 170.544,177.862 171.572,177.641 172.291,177.484 172.6,177.416 173.524,177.208 174.552,176.972 175.579,176.731 176.504,176.508 176.607,176.483 177.531,176.255 178.559,175.996 179.587,175.73 180.511,175.485 181.539,175.207 182.566,174.922 183.594,174.629 184.108,174.48 184.519,174.359 185.546,174.052 186.574,173.737 187.396,173.479 187.601,173.414 188.526,173.115 189.553,172.776 190.375,172.497 190.581,172.427 191.506,172.105 192.533,171.738 193.252,171.475 193.561,171.361 194.588,170.973 195.513,170.615 195.821,170.494 196.54,170.207 197.568,169.786 198.287,169.485 198.595,169.354 199.52,168.955 200.548,168.498 201.575,168.029 202.603,167.545 202.705,167.496 203.527,167.097 204.555,166.585 204.76,166.481 205.582,166.058 206.507,165.569 206.713,165.459 207.535,165.01 208.459,164.492 208.562,164.433 209.59,163.838 210.206,163.472 210.514,163.286 211.542,162.654 211.85,162.46 212.569,162 213.391,161.462 213.597,161.326 214.522,160.699 214.83,160.486 215.549,159.98 216.268,159.463 216.577,159.237 217.501,158.546 217.604,158.468 218.529,157.753 218.94,157.428 219.556,156.932 220.173,156.426 220.584,156.082 221.303,155.469 221.509,155.291 222.433,154.475 222.536,154.382 223.564,153.44 224.591,152.464 225.516,151.554 225.619,151.451 226.543,150.508 226.646,150.401 227.571,149.423 228.495,148.412 228.598,148.297 229.318,147.484 229.523,147.248 230.242,146.408 230.55,146.041 231.064,145.421 231.578,144.79 231.886,144.405 232.503,143.624 232.606,143.492 233.428,142.419 233.53,142.283 234.147,141.455 234.558,140.893 234.866,140.467 235.585,139.455 236.305,138.418 236.51,138.117 237.024,137.356 237.538,136.583 237.64,136.427 238.257,135.481 238.565,135.001 238.976,134.354 239.593,133.37 240.209,132.37 240.517,131.864 240.826,131.354 241.339,130.497 241.545,130.151 241.956,129.456 242.572,128.402 243.189,127.339 243.6,126.625 243.703,126.446 244.319,125.37 244.525,125.01 244.833,124.471 245.449,123.392 245.552,123.212 245.963,122.496 246.58,121.429 247.196,120.375 247.504,119.855 247.812,119.341 248.429,118.336 248.532,118.171 249.046,117.366 249.559,116.593 249.662,116.443 250.381,115.44 250.587,115.171 251.203,114.418 251.512,114.076 252.128,113.472 252.539,113.137 253.567,112.581 253.978,112.492 254.491,112.504 254.594,112.524 255.519,113.011 256.033,113.545 256.546,114.295 256.752,114.66 257.163,115.51 257.574,116.53 257.985,117.732 258.293,118.762 258.499,119.511 258.601,119.905 258.807,120.734 259.012,121.618 259.218,122.558 259.423,123.555 259.526,124.076 259.629,124.611 259.834,125.728 260.04,126.906 260.143,127.519 260.348,128.791 260.553,130.128 260.656,130.82 260.759,131.529 260.965,132.997 261.067,133.756 261.17,134.531 261.375,136.132 261.478,136.958 261.581,137.801 261.684,138.66 261.787,139.537 261.992,141.341 262.095,142.268 262.197,143.213 262.3,144.174 262.403,145.151 262.506,146.146 262.609,147.157 262.711,148.185 262.814,149.229 262.917,150.289 263.019,151.365 263.122,152.458 263.225,153.566 263.328,154.69 263.43,155.829 263.533,156.984 263.636,158.153 263.739,159.338 263.841,160.537 263.944,161.75 264.047,162.977 264.15,164.218 264.253,165.472 264.355,166.74 264.458,168.02 264.561,169.312 264.663,170.616 264.766,171.933 264.869,173.26 264.972,174.598 265.075,175.946 265.177,177.305 265.28,178.673 265.383,180.05 265.486,181.436 265.588,182.83 265.691,184.231 265.794,185.64 265.897,187.056 265.999,188.477 266.102,189.905 266.205,191.337 266.308,192.774 266.41,194.215 266.513,195.66 266.616,197.108 266.719,198.558 266.821,200.01 266.924,201.463 267.027,202.917 267.13,204.371 267.232,205.825 267.335,207.278 267.438,208.73 267.541,210.179 267.643,211.626 267.746,213.07 267.849,214.51 267.952,215.946 268.054,217.378 268.157,218.804 268.26,220.224 268.363,221.638 268.465,223.045 268.568,224.445 268.671,225.837 268.774,227.221 268.876,228.596 268.979,229.961 269.082,231.318 269.185,232.664 269.287,233.999 269.39,235.324 269.493,236.637 269.596,237.939 269.698,239.228 269.801,240.505 269.904,241.769 270.007,243.02 270.109,244.258 270.212,245.482 270.315,246.692 270.418,247.887 270.52,249.068 270.623,250.234 270.726,251.385 270.829,252.521 270.931,253.641 271.034,254.745 271.137,255.834 271.24,256.907 271.342,257.963 271.445,259.003 271.548,260.027 271.65,261.034 271.753,262.024 271.856,262.998 271.959,263.955 272.062,264.895 272.164,265.819 272.267,266.725 272.37,267.615 272.575,269.343 272.678,270.181 272.781,271.003 272.884,271.808 272.986,272.596 273.192,274.122 273.295,274.86 273.397,275.582 273.5,276.287 273.603,276.976 273.706,277.648 273.911,278.945 274.014,279.569 274.219,280.771 274.425,281.911 274.528,282.458 274.63,282.99 274.733,283.507 275.041,284.971 275.247,285.875 275.452,286.725 275.555,287.129 275.658,287.52 275.966,288.616 276.274,289.599 276.582,290.474 276.685,290.743 277.096,291.709 277.507,292.508 278.226,293.542 278.535,293.856 279.562,294.415 280.59,294.343 281.514,293.851 282.028,293.435 282.542,292.935 282.953,292.481 283.57,291.723 283.775,291.453 284.494,290.445 284.597,290.294 285.214,289.359 285.522,288.874 285.83,288.38 286.447,287.366 286.549,287.194 287.063,286.326 287.577,285.444 288.193,284.375 288.502,283.836 288.707,283.477 289.324,282.396 289.529,282.036 289.837,281.495 290.454,280.417 290.557,280.238 291.07,279.345 291.584,278.458 292.201,277.402 292.509,276.879 292.817,276.359 293.433,275.33 293.536,275.159 293.947,274.483 294.564,273.481 295.18,272.495 295.591,271.847 295.899,271.366 296.516,270.417 297.133,269.486 297.543,268.875 297.852,268.423 298.571,267.383 299.29,266.368 299.599,265.941 300.01,265.378 300.523,264.685 300.729,264.411 301.448,263.468 301.551,263.335 302.27,262.418 302.578,262.033 303.092,261.399 303.503,260.9 303.914,260.408 304.531,259.684 304.736,259.446 305.558,258.512 305.661,258.397 306.483,257.492 306.586,257.381 307.51,256.398 308.435,255.446 308.538,255.342 309.462,254.424 309.565,254.324 310.49,253.439 310.593,253.342 311.518,252.487 312.545,251.569 312.648,251.479 313.572,250.682 313.881,250.422 314.6,249.825 315.011,249.491 315.525,249.079 316.347,248.435 316.552,248.276 317.58,247.5 317.683,247.424 318.505,246.824 319.018,246.456 319.532,246.095 320.457,245.459 320.56,245.39 321.587,244.707 321.998,244.44 322.512,244.111 323.539,243.468 324.567,242.845 325.183,242.481 325.594,242.242 326.519,241.714 326.93,241.484 327.547,241.144 328.574,240.59 328.78,240.482 329.601,240.054 330.526,239.583 330.732,239.481 331.554,239.075 332.581,238.582 332.787,238.485 333.506,238.149 334.534,237.681 334.945,237.497 335.561,237.226 336.589,236.783 337.308,236.48 337.513,236.395 338.541,235.974 339.568,235.564 339.774,235.483 340.596,235.165 341.521,234.815 342.445,234.472 342.548,234.435 343.576,234.064 344.5,233.739 345.22,233.491 345.528,233.386 346.555,233.041 347.583,232.705 348.302,232.474 348.508,232.409 349.535,232.088 350.562,231.774 351.487,231.498 351.59,231.468 352.515,231.198 353.542,230.905 354.57,230.618 355.084,230.477 355.597,230.338 356.522,230.091 357.55,229.823 358.577,229.56 358.885,229.482 359.502,229.329 360.529,229.076 361.557,228.83 362.584,228.588 362.995,228.493 363.509,228.375 364.537,228.143 365.564,227.916 366.592,227.693 367.516,227.496 368.544,227.282 369.571,227.071 370.599,226.865 371.524,226.683 372.551,226.485 373.579,226.29 374.503,226.118 375.531,225.93 376.558,225.746 377.586,225.565 377.997,225.494 378.511,225.405 379.538,225.231 380.565,225.059 381.593,224.891 382.518,224.742 383.545,224.579 384.059,224.499 384.573,224.419 385.6,224.262 386.525,224.123 387.553,223.971 388.58,223.822 389.505,223.689 390.532,223.545 390.943,223.488 391.56,223.403 392.587,223.263 393.512,223.139 394.54,223.003 395.567,222.87 396.595,222.739 397.519,222.623 398.547,222.495 399.574,222.37 400.602,222.247 401.527,222.138 402.554,222.018 403.582,221.9 404.506,221.796 405.534,221.682 406.561,221.569 407.281,221.491 407.589,221.458 408.514,221.36 409.541,221.252 410.569,221.145 411.596,221.041 412.521,220.948 413.548,220.846 414.576,220.746 415.5,220.657 416.528,220.559 417.247,220.491 417.555,220.463 418.583,220.368 419.508,220.283 420.535,220.191 421.563,220.1 422.59,220.01 423.515,219.93 424.543,219.843 425.57,219.756 426.598,219.671 427.522,219.595 428.55,219.512 428.755,219.496 429.577,219.43 430.502,219.357 431.53,219.277 432.557,219.198 433.585,219.121 434.509,219.051 435.537,218.975 436.564,218.9 437.592,218.826 438.517,218.76 439.544,218.688 440.572,218.616 441.599,218.546 442.318,218.497 442.524,218.483 443.551,218.414 444.579,218.346 445.504,218.286 446.531,218.219 447.558,218.153 448.586,218.088 449.511,218.031 450.538,217.967 451.566,217.905 452.593,217.843 453.518,217.787 454.546,217.727 455.573,217.667 456.601,217.608 457.525,217.555 458.553,217.497 459.58,217.44 460.505,217.389 461.533,217.333 462.56,217.277 463.588,217.223 464.512,217.174 465.54,217.12 466.567,217.067 467.595,217.015 468.52,216.968 469.547,216.916 470.575,216.866 471.602,216.815 472.527,216.77 473.554,216.721 474.582,216.672 475.507,216.629 476.534,216.581 477.562,216.534 478.384,216.496 478.589,216.487 " />
</g>

<g fill="none" stroke="#000000" stroke-opacity="1" stroke-width="1" stroke-linecap="square" stroke-linejoin="bevel" transform="matrix(1,0,0,1,0,0)"
font-family="Noto Sans [MONO]" font-size="13.3333" font-weight="400" font-style="normal" 
>
</g>

<g fill="none" stroke="#000000" stroke-opacity="1" stroke-width="1" stroke-linecap="square" stroke-linejoin="bevel" transform="matrix(1,0,0,1,0,0)"
font-family="Noto Sans [MONO]" font-size="13.3333" font-weight="400" font-style="normal" 
>
</g>

<g fill="none" stroke="#000000" stroke-opacity="1" stroke-width="1" stroke-linecap="square" stroke-linejoin="bevel" transform="matrix(1,0,0,1,0,0)"
font-family="Noto Sans [MONO]" font-size="13.3333" font-weight="400" font-style="normal" 
>
</g>

<g fill="none" stroke="#000000" stroke-opacity="1" stroke-width="1" stroke-linecap="square" stroke-linejoin="miter" stroke-miterlimit="2" transform="matrix(1,0,0,1,0,0)"
font-family="Noto Sans [MONO]" font-size="13.3333" font-weight="400" font-style="normal" 
>
<path vector-effect="none" fill-rule="evenodd" d="M67,15 L480,15 L480,323 L67,323 L67,15"/>
</g>

<g fill="none" stroke="#000000" stroke-opacity="1" stroke-width="1" stroke-linecap="square" stroke-linejoin="bevel" transform="matrix(1,0,0,1,0,0)"
font-family="Noto Sans [MONO]" font-size="13.3333" font-weight="400" font-style="normal" 
>
</g>

<g fill="none" stroke="#212121" stroke-opacity="1" stroke-width="1" stroke-linecap="square" stroke-linejoin="bevel" transform="matrix(0,-1,1,0,5,333)"
font-family="Noto Sans UI" font-size="16" font-weight="400" font-style="italic" 
>
</g>

<g fill="none" stroke="#000000" stroke-opacity="1" stroke-width="1" stroke-linecap="square" stroke-linejoin="bevel" transform="matrix(0,-1,1,0,5,333)"
font-family="Noto Sans UI" font-size="18.6667" font-weight="700" font-style="normal" 
>
<text fill="#000000" fill-opacity="1" stroke="none" xml:space="preserve" x="107" y="20" font-family="Noto Sans UI" font-size="18.6667" font-weight="700" font-style="normal" 
 >Permittivity</text>
</g>

<g fill="none" stroke="#212121" stroke-opacity="1" stroke-width="1" stroke-linecap="square" stroke-linejoin="bevel" transform="matrix(0,-1,1,0,5,333)"
font-family="Noto Sans UI" font-size="16" font-weight="400" font-style="italic" 
>
</g>

<g fill="none" stroke="#000000" stroke-opacity="1" stroke-width="1" stroke-linecap="square" stroke-linejoin="bevel" transform="matrix(1,0,0,1,0,0)"
font-family="Noto Sans [MONO]" font-size="13.3333" font-weight="400" font-style="normal" 
>
</g>

<g fill="none" stroke="#000000" stroke-opacity="1" stroke-width="1" stroke-linecap="square" stroke-linejoin="bevel" transform="matrix(1,0,0,1,0,0)"
font-family="Noto Sans UI" font-size="16" font-weight="400" font-style="italic" 
>
</g>

<g fill="none" stroke="#000000" stroke-opacity="1" stroke-width="1" stroke-linecap="square" stroke-linejoin="bevel" transform="matrix(1,0,0,1,0,0)"
font-family="Noto Sans UI" font-size="16" font-weight="400" font-style="italic" 
>
</g>

<g fill="none" stroke="#212121" stroke-opacity="1" stroke-width="1" stroke-linecap="square" stroke-linejoin="bevel" transform="matrix(1,0,0,1,0,0)"
font-family="Noto Sans UI" font-size="16" font-weight="400" font-style="italic" 
>
</g>

<g fill="none" stroke="#212121" stroke-opacity="1" stroke-width="1" stroke-linecap="square" stroke-linejoin="bevel" transform="matrix(1,0,0,1,34,310)"
font-family="Noto Sans UI" font-size="16" font-weight="400" font-style="italic" 
>
<text fill="#212121" fill-opacity="1" stroke="none" xml:space="preserve" x="0" y="18" font-family="Noto Sans UI" font-size="16" font-weight="400" font-style="italic" 
 >−30</text>
</g>

<g fill="none" stroke="#212121" stroke-opacity="1" stroke-width="1" stroke-linecap="square" stroke-linejoin="bevel" transform="matrix(1,0,0,1,34,310)"
font-family="Noto Sans UI" font-size="16" font-weight="400" font-style="italic" 
>
</g>

<g fill="none" stroke="#212121" stroke-opacity="1" stroke-width="1" stroke-linecap="square" stroke-linejoin="bevel" transform="matrix(1,0,0,1,0,0)"
font-family="Noto Sans UI" font-size="16" font-weight="400" font-style="italic" 
>
</g>

<g fill="none" stroke="#212121" stroke-opacity="1" stroke-width="1" stroke-linecap="square" stroke-linejoin="bevel" transform="matrix(1,0,0,1,34,276)"
font-family="Noto Sans UI" font-size="16" font-weight="400" font-style="italic" 
>
<text fill="#212121" fill-opacity="1" stroke="none" xml:space="preserve" x="0" y="18" font-family="Noto Sans UI" font-size="16" font-weight="400" font-style="italic" 
 >−20</text>
</g>

<g fill="none" stroke="#212121" stroke-opacity="1" stroke-width="1" stroke-linecap="square" stroke-linejoin="bevel" transform="matrix(1,0,0,1,34,276)"
font-family="Noto Sans UI" font-size="16" font-weight="400" font-style="italic" 
>
</g>

<g fill="none" stroke="#212121" stroke-opacity="1" stroke-width="1" stroke-linecap="square" stroke-linejoin="bevel" transform="matrix(1,0,0,1,0,0)"
font-family="Noto Sans UI" font-size="16" font-weight="400" font-style="italic" 
>
</g>

<g fill="none" stroke="#212121" stroke-opacity="1" stroke-width="1" stroke-linecap="square" stroke-linejoin="bevel" transform="matrix(1,0,0,1,34,242)"
font-family="Noto Sans UI" font-size="16" font-weight="400" font-style="italic" 
>
<text fill="#212121" fill-opacity="1" stroke="none" xml:space="preserve" x="0" y="18" font-family="Noto Sans UI" font-size="16" font-weight="400" font-style="italic" 
 >−10</text>
</g>

<g fill="none" stroke="#212121" stroke-opacity="1" stroke-width="1" stroke-linecap="square" stroke-linejoin="bevel" transform="matrix(1,0,0,1,34,242)"
font-family="Noto Sans UI" font-size="16" font-weight="400" font-style="italic" 
>
</g>

<g fill="none" stroke="#212121" stroke-opacity="1" stroke-width="1" stroke-linecap="square" stroke-linejoin="bevel" transform="matrix(1,0,0,1,0,0)"
font-family="Noto Sans UI" font-size="16" font-weight="400" font-style="italic" 
>
</g>

<g fill="none" stroke="#212121" stroke-opacity="1" stroke-width="1" stroke-linecap="square" stroke-linejoin="bevel" transform="matrix(1,0,0,1,52,208)"
font-family="Noto Sans UI" font-size="16" font-weight="400" font-style="italic" 
>
<text fill="#212121" fill-opacity="1" stroke="none" xml:space="preserve" x="0" y="18" font-family="Noto Sans UI" font-size="16" font-weight="400" font-style="italic" 
 >0</text>
</g>

<g fill="none" stroke="#212121" stroke-opacity="1" stroke-width="1" stroke-linecap="square" stroke-linejoin="bevel" transform="matrix(1,0,0,1,52,208)"
font-family="Noto Sans UI" font-size="16" font-weight="400" font-style="italic" 
>
</g>

<g fill="none" stroke="#212121" stroke-opacity="1" stroke-width="1" stroke-linecap="square" stroke-linejoin="bevel" transform="matrix(1,0,0,1,0,0)"
font-family="Noto Sans UI" font-size="16" font-weight="400" font-style="italic" 
>
</g>

<g fill="none" stroke="#212121" stroke-opacity="1" stroke-width="1" stroke-linecap="square" stroke-linejoin="bevel" transform="matrix(1,0,0,1,43,174)"
font-family="Noto Sans UI" font-size="16" font-weight="400" font-style="italic" 
>
<text fill="#212121" fill-opacity="1" stroke="none" xml:space="preserve" x="0" y="18" font-family="Noto Sans UI" font-size="16" font-weight="400" font-style="italic" 
 >10</text>
</g>

<g fill="none" stroke="#212121" stroke-opacity="1" stroke-width="1" stroke-linecap="square" stroke-linejoin="bevel" transform="matrix(1,0,0,1,43,174)"
font-family="Noto Sans UI" font-size="16" font-weight="400" font-style="italic" 
>
</g>

<g fill="none" stroke="#212121" stroke-opacity="1" stroke-width="1" stroke-linecap="square" stroke-linejoin="bevel" transform="matrix(1,0,0,1,0,0)"
font-family="Noto Sans UI" font-size="16" font-weight="400" font-style="italic" 
>
</g>

<g fill="none" stroke="#212121" stroke-opacity="1" stroke-width="1" stroke-linecap="square" stroke-linejoin="bevel" transform="matrix(1,0,0,1,43,140)"
font-family="Noto Sans UI" font-size="16" font-weight="400" font-style="italic" 
>
<text fill="#212121" fill-opacity="1" stroke="none" xml:space="preserve" x="0" y="18" font-family="Noto Sans UI" font-size="16" font-weight="400" font-style="italic" 
 >20</text>
</g>

<g fill="none" stroke="#212121" stroke-opacity="1" stroke-width="1" stroke-linecap="square" stroke-linejoin="bevel" transform="matrix(1,0,0,1,43,140)"
font-family="Noto Sans UI" font-size="16" font-weight="400" font-style="italic" 
>
</g>

<g fill="none" stroke="#212121" stroke-opacity="1" stroke-width="1" stroke-linecap="square" stroke-linejoin="bevel" transform="matrix(1,0,0,1,0,0)"
font-family="Noto Sans UI" font-size="16" font-weight="400" font-style="italic" 
>
</g>

<g fill="none" stroke="#212121" stroke-opacity="1" stroke-width="1" stroke-linecap="square" stroke-linejoin="bevel" transform="matrix(1,0,0,1,43,106)"
font-family="Noto Sans UI" font-size="16" font-weight="400" font-style="italic" 
>
<text fill="#212121" fill-opacity="1" stroke="none" xml:space="preserve" x="0" y="18" font-family="Noto Sans UI" font-size="16" font-weight="400" font-style="italic" 
 >30</text>
</g>

<g fill="none" stroke="#212121" stroke-opacity="1" stroke-width="1" stroke-linecap="square" stroke-linejoin="bevel" transform="matrix(1,0,0,1,43,106)"
font-family="Noto Sans UI" font-size="16" font-weight="400" font-style="italic" 
>
</g>

<g fill="none" stroke="#212121" stroke-opacity="1" stroke-width="1" stroke-linecap="square" stroke-linejoin="bevel" transform="matrix(1,0,0,1,0,0)"
font-family="Noto Sans UI" font-size="16" font-weight="400" font-style="italic" 
>
</g>

<g fill="none" stroke="#212121" stroke-opacity="1" stroke-width="1" stroke-linecap="square" stroke-linejoin="bevel" transform="matrix(1,0,0,1,43,72)"
font-family="Noto Sans UI" font-size="16" font-weight="400" font-style="italic" 
>
<text fill="#212121" fill-opacity="1" stroke="none" xml:space="preserve" x="0" y="18" font-family="Noto Sans UI" font-size="16" font-weight="400" font-style="italic" 
 >40</text>
</g>

<g fill="none" stroke="#212121" stroke-opacity="1" stroke-width="1" stroke-linecap="square" stroke-linejoin="bevel" transform="matrix(1,0,0,1,43,72)"
font-family="Noto Sans UI" font-size="16" font-weight="400" font-style="italic" 
>
</g>

<g fill="none" stroke="#212121" stroke-opacity="1" stroke-width="1" stroke-linecap="square" stroke-linejoin="bevel" transform="matrix(1,0,0,1,0,0)"
font-family="Noto Sans UI" font-size="16" font-weight="400" font-style="italic" 
>
</g>

<g fill="none" stroke="#212121" stroke-opacity="1" stroke-width="1" stroke-linecap="square" stroke-linejoin="bevel" transform="matrix(1,0,0,1,43,38)"
font-family="Noto Sans UI" font-size="16" font-weight="400" font-style="italic" 
>
<text fill="#212121" fill-opacity="1" stroke="none" xml:space="preserve" x="0" y="18" font-family="Noto Sans UI" font-size="16" font-weight="400" font-style="italic" 
 >50</text>
</g>

<g fill="none" stroke="#212121" stroke-opacity="1" stroke-width="1" stroke-linecap="square" stroke-linejoin="bevel" transform="matrix(1,0,0,1,43,38)"
font-family="Noto Sans UI" font-size="16" font-weight="400" font-style="italic" 
>
</g>

<g fill="none" stroke="#212121" stroke-opacity="1" stroke-width="1" stroke-linecap="square" stroke-linejoin="bevel" transform="matrix(1,0,0,1,0,0)"
font-family="Noto Sans UI" font-size="16" font-weight="400" font-style="italic" 
>
</g>

<g fill="none" stroke="#212121" stroke-opacity="1" stroke-width="1" stroke-linecap="square" stroke-linejoin="bevel" transform="matrix(1,0,0,1,43,4)"
font-family="Noto Sans UI" font-size="16" font-weight="400" font-style="italic" 
>
<text fill="#212121" fill-opacity="1" stroke="none" xml:space="preserve" x="0" y="18" font-family="Noto Sans UI" font-size="16" font-weight="400" font-style="italic" 
 >60</text>
</g>

<g fill="none" stroke="#212121" stroke-opacity="1" stroke-width="1" stroke-linecap="square" stroke-linejoin="bevel" transform="matrix(1,0,0,1,43,4)"
font-family="Noto Sans UI" font-size="16" font-weight="400" font-style="italic" 
>
</g>

<g fill="none" stroke="#212121" stroke-opacity="1" stroke-width="1" stroke-linecap="square" stroke-linejoin="bevel" transform="matrix(1,0,0,1,0,0)"
font-family="Noto Sans UI" font-size="16" font-weight="400" font-style="italic" 
>
</g>

<g fill="none" stroke="#000000" stroke-opacity="1" stroke-width="1" stroke-linecap="square" stroke-linejoin="bevel" transform="matrix(1,0,0,1,0,0)"
font-family="Noto Sans UI" font-size="16" font-weight="400" font-style="italic" 
>
<polyline fill="none" vector-effect="non-scaling-stroke" points="67,288 68,288 " />
<polyline fill="none" vector-effect="non-scaling-stroke" points="67,254 68,254 " />
<polyline fill="none" vector-effect="non-scaling-stroke" points="67,220 68,220 " />
<polyline fill="none" vector-effect="non-scaling-stroke" points="67,186 68,186 " />
<polyline fill="none" vector-effect="non-scaling-stroke" points="67,152 68,152 " />
<polyline fill="none" vector-effect="non-scaling-stroke" points="67,118 68,118 " />
<polyline fill="none" vector-effect="non-scaling-stroke" points="67,84 68,84 " />
<polyline fill="none" vector-effect="non-scaling-stroke" points="67,50 68,50 " />
</g>

<g fill="none" stroke="#000000" stroke-opacity="1" stroke-width="1" stroke-linecap="square" stroke-linejoin="bevel" transform="matrix(1,0,0,1,0,0)"
font-family="Noto Sans UI" font-size="16" font-weight="400" font-style="italic" 
>
<polyline fill="none" vector-effect="non-scaling-stroke" points="67,16 67,322 " />
</g>

<g fill="none" stroke="#000000" stroke-opacity="1" stroke-width="1" stroke-linecap="square" stroke-linejoin="bevel" transform="matrix(1,0,0,1,0,0)"
font-family="Noto Sans UI" font-size="16" font-weight="400" font-style="italic" 
>
<polyline fill="none" vector-effect="non-scaling-stroke" points="67,288 76,288 " />
<polyline fill="none" vector-effect="non-scaling-stroke" points="67,254 76,254 " />
<polyline fill="none" vector-effect="non-scaling-stroke" points="67,220 76,220 " />
<polyline fill="none" vector-effect="non-scaling-stroke" points="67,186 76,186 " />
<polyline fill="none" vector-effect="non-scaling-stroke" points="67,152 76,152 " />
<polyline fill="none" vector-effect="non-scaling-stroke" points="67,118 76,118 " />
<polyline fill="none" vector-effect="non-scaling-stroke" points="67,84 76,84 " />
<polyline fill="none" vector-effect="non-scaling-stroke" points="67,50 76,50 " />
<polyline fill="none" vector-effect="non-scaling-stroke" points="67,316 72,316 " />
<polyline fill="none" vector-effect="non-scaling-stroke" points="67,311 72,311 " />
<polyline fill="none" vector-effect="non-scaling-stroke" points="67,299 72,299 " />
<polyline fill="none" vector-effect="non-scaling-stroke" points="67,294 72,294 " />
<polyline fill="none" vector-effect="non-scaling-stroke" points="67,282 72,282 " />
<polyline fill="none" vector-effect="non-scaling-stroke" points="67,277 72,277 " />
<polyline fill="none" vector-effect="non-scaling-stroke" points="67,265 72,265 " />
<polyline fill="none" vector-effect="non-scaling-stroke" points="67,260 72,260 " />
<polyline fill="none" vector-effect="non-scaling-stroke" points="67,248 72,248 " />
<polyline fill="none" vector-effect="non-scaling-stroke" points="67,243 72,243 " />
<polyline fill="none" vector-effect="non-scaling-stroke" points="67,231 72,231 " />
<polyline fill="none" vector-effect="non-scaling-stroke" points="67,226 72,226 " />
<polyline fill="none" vector-effect="non-scaling-stroke" points="67,214 72,214 " />
<polyline fill="none" vector-effect="non-scaling-stroke" points="67,209 72,209 " />
<polyline fill="none" vector-effect="non-scaling-stroke" points="67,197 72,197 " />
<polyline fill="none" vector-effect="non-scaling-stroke" points="67,192 72,192 " />
<polyline fill="none" vector-effect="non-scaling-stroke" points="67,180 72,180 " />
<polyline fill="none" vector-effect="non-scaling-stroke" points="67,175 72,175 " />
<polyline fill="none" vector-effect="non-scaling-stroke" points="67,163 72,163 " />
<polyline fill="none" vector-effect="non-scaling-stroke" points="67,158 72,158 " />
<polyline fill="none" vector-effect="non-scaling-stroke" points="67,146 72,146 " />
<polyline fill="none" vector-effect="non-scaling-stroke" points="67,141 72,141 " />
<polyline fill="none" vector-effect="non-scaling-stroke" points="67,129 72,129 " />
<polyline fill="none" vector-effect="non-scaling-stroke" points="67,124 72,124 " />
<polyline fill="none" vector-effect="non-scaling-stroke" points="67,112 72,112 " />
<polyline fill="none" vector-effect="non-scaling-stroke" points="67,107 72,107 " />
<polyline fill="none" vector-effect="non-scaling-stroke" points="67,95 72,95 " />
<polyline fill="none" vector-effect="non-scaling-stroke" points="67,90 72,90 " />
<polyline fill="none" vector-effect="non-scaling-stroke" points="67,78 72,78 " />
<polyline fill="none" vector-effect="non-scaling-stroke" points="67,73 72,73 " />
<polyline fill="none" vector-effect="non-scaling-stroke" points="67,61 72,61 " />
<polyline fill="none" vector-effect="non-scaling-stroke" points="67,56 72,56 " />
<polyline fill="none" vector-effect="non-scaling-stroke" points="67,44 72,44 " />
<polyline fill="none" vector-effect="non-scaling-stroke" points="67,39 72,39 " />
<polyline fill="none" vector-effect="non-scaling-stroke" points="67,27 72,27 " />
<polyline fill="none" vector-effect="non-scaling-stroke" points="67,22 72,22 " />
<polyline fill="none" vector-effect="non-scaling-stroke" points="67,305 72,305 " />
<polyline fill="none" vector-effect="non-scaling-stroke" points="67,271 72,271 " />
<polyline fill="none" vector-effect="non-scaling-stroke" points="67,237 72,237 " />
<polyline fill="none" vector-effect="non-scaling-stroke" points="67,203 72,203 " />
<polyline fill="none" vector-effect="non-scaling-stroke" points="67,169 72,169 " />
<polyline fill="none" vector-effect="non-scaling-stroke" points="67,135 72,135 " />
<polyline fill="none" vector-effect="non-scaling-stroke" points="67,101 72,101 " />
<polyline fill="none" vector-effect="non-scaling-stroke" points="67,67 72,67 " />
<polyline fill="none" vector-effect="non-scaling-stroke" points="67,33 72,33 " />
</g>

<g fill="none" stroke="#000000" stroke-opacity="1" stroke-width="1" stroke-linecap="square" stroke-linejoin="bevel" transform="matrix(1,0,0,1,0,0)"
font-family="Noto Sans UI" font-size="16" font-weight="400" font-style="italic" 
>
</g>

<g fill="none" stroke="#000000" stroke-opacity="1" stroke-width="1" stroke-linecap="square" stroke-linejoin="bevel" transform="matrix(1,0,0,1,0,0)"
font-family="Noto Sans [MONO]" font-size="13.3333" font-weight="400" font-style="normal" 
>
</g>

<g fill="none" stroke="#212121" stroke-opacity="1" stroke-width="1" stroke-linecap="square" stroke-linejoin="bevel" transform="matrix(1,0,0,1,63,354)"
font-family="Noto Sans UI" font-size="16" font-weight="400" font-style="italic" 
>
</g>

<g fill="none" stroke="#000000" stroke-opacity="1" stroke-width="1" stroke-linecap="square" stroke-linejoin="bevel" transform="matrix(1,0,0,1,63,354)"
font-family="Noto Sans UI" font-size="18.6667" font-weight="700" font-style="normal" 
>
</g>

<g fill="none" stroke="#000000" stroke-opacity="1" stroke-width="1" stroke-linecap="square" stroke-linejoin="bevel" transform="matrix(1,0,0,1,63,355)"
font-family="Noto Sans UI" font-size="18.6667" font-weight="700" font-style="normal" 
>
<text fill="#000000" fill-opacity="1" stroke="none" xml:space="preserve" x="123.5" y="20" font-family="Noto Sans UI" font-size="18.6667" font-weight="700" font-style="normal" 
 >Wavenumber (cm</text>
<text fill="#000000" fill-opacity="1" stroke="none" xml:space="preserve" x="289.5" y="12" font-family="Noto Sans UI" font-size="12" font-weight="700" font-style="normal" 
 >-1</text>
<text fill="#000000" fill-opacity="1" stroke="none" xml:space="preserve" x="300.5" y="20" font-family="Noto Sans UI" font-size="18.6667" font-weight="700" font-style="normal" 
 >)</text>
</g>

<g fill="none" stroke="#000000" stroke-opacity="1" stroke-width="1" stroke-linecap="square" stroke-linejoin="bevel" transform="matrix(1,0,0,1,63,354)"
font-family="Noto Sans UI" font-size="18.6667" font-weight="700" font-style="normal" 
>
</g>

<g fill="none" stroke="#212121" stroke-opacity="1" stroke-width="1" stroke-linecap="square" stroke-linejoin="bevel" transform="matrix(1,0,0,1,63,354)"
font-family="Noto Sans UI" font-size="16" font-weight="400" font-style="italic" 
>
</g>

<g fill="none" stroke="#000000" stroke-opacity="1" stroke-width="1" stroke-linecap="square" stroke-linejoin="bevel" transform="matrix(1,0,0,1,0,0)"
font-family="Noto Sans [MONO]" font-size="13.3333" font-weight="400" font-style="normal" 
>
</g>

<g fill="none" stroke="#000000" stroke-opacity="1" stroke-width="1" stroke-linecap="square" stroke-linejoin="bevel" transform="matrix(1,0,0,1,0,0)"
font-family="Noto Sans UI" font-size="16" font-weight="400" font-style="italic" 
>
</g>

<g fill="none" stroke="#000000" stroke-opacity="1" stroke-width="1" stroke-linecap="square" stroke-linejoin="bevel" transform="matrix(1,0,0,1,0,0)"
font-family="Noto Sans UI" font-size="16" font-weight="400" font-style="italic" 
>
</g>

<g fill="none" stroke="#212121" stroke-opacity="1" stroke-width="1" stroke-linecap="square" stroke-linejoin="bevel" transform="matrix(1,0,0,1,0,0)"
font-family="Noto Sans UI" font-size="16" font-weight="400" font-style="italic" 
>
</g>

<g fill="none" stroke="#212121" stroke-opacity="1" stroke-width="1" stroke-linecap="square" stroke-linejoin="bevel" transform="matrix(1,0,0,1,63,329)"
font-family="Noto Sans UI" font-size="16" font-weight="400" font-style="italic" 
>
<text fill="#212121" fill-opacity="1" stroke="none" xml:space="preserve" x="0" y="18" font-family="Noto Sans UI" font-size="16" font-weight="400" font-style="italic" 
 >0</text>
</g>

<g fill="none" stroke="#212121" stroke-opacity="1" stroke-width="1" stroke-linecap="square" stroke-linejoin="bevel" transform="matrix(1,0,0,1,63,329)"
font-family="Noto Sans UI" font-size="16" font-weight="400" font-style="italic" 
>
</g>

<g fill="none" stroke="#212121" stroke-opacity="1" stroke-width="1" stroke-linecap="square" stroke-linejoin="bevel" transform="matrix(1,0,0,1,0,0)"
font-family="Noto Sans UI" font-size="16" font-weight="400" font-style="italic" 
>
</g>

<g fill="none" stroke="#212121" stroke-opacity="1" stroke-width="1" stroke-linecap="square" stroke-linejoin="bevel" transform="matrix(1,0,0,1,105,329)"
font-family="Noto Sans UI" font-size="16" font-weight="400" font-style="italic" 
>
<text fill="#212121" fill-opacity="1" stroke="none" xml:space="preserve" x="0" y="18" font-family="Noto Sans UI" font-size="16" font-weight="400" font-style="italic" 
 >100</text>
</g>

<g fill="none" stroke="#212121" stroke-opacity="1" stroke-width="1" stroke-linecap="square" stroke-linejoin="bevel" transform="matrix(1,0,0,1,105,329)"
font-family="Noto Sans UI" font-size="16" font-weight="400" font-style="italic" 
>
</g>

<g fill="none" stroke="#212121" stroke-opacity="1" stroke-width="1" stroke-linecap="square" stroke-linejoin="bevel" transform="matrix(1,0,0,1,0,0)"
font-family="Noto Sans UI" font-size="16" font-weight="400" font-style="italic" 
>
</g>

<g fill="none" stroke="#212121" stroke-opacity="1" stroke-width="1" stroke-linecap="square" stroke-linejoin="bevel" transform="matrix(1,0,0,1,157,329)"
font-family="Noto Sans UI" font-size="16" font-weight="400" font-style="italic" 
>
<text fill="#212121" fill-opacity="1" stroke="none" xml:space="preserve" x="0" y="18" font-family="Noto Sans UI" font-size="16" font-weight="400" font-style="italic" 
 >200</text>
</g>

<g fill="none" stroke="#212121" stroke-opacity="1" stroke-width="1" stroke-linecap="square" stroke-linejoin="bevel" transform="matrix(1,0,0,1,157,329)"
font-family="Noto Sans UI" font-size="16" font-weight="400" font-style="italic" 
>
</g>

<g fill="none" stroke="#212121" stroke-opacity="1" stroke-width="1" stroke-linecap="square" stroke-linejoin="bevel" transform="matrix(1,0,0,1,0,0)"
font-family="Noto Sans UI" font-size="16" font-weight="400" font-style="italic" 
>
</g>

<g fill="none" stroke="#212121" stroke-opacity="1" stroke-width="1" stroke-linecap="square" stroke-linejoin="bevel" transform="matrix(1,0,0,1,208,329)"
font-family="Noto Sans UI" font-size="16" font-weight="400" font-style="italic" 
>
<text fill="#212121" fill-opacity="1" stroke="none" xml:space="preserve" x="0" y="18" font-family="Noto Sans UI" font-size="16" font-weight="400" font-style="italic" 
 >300</text>
</g>

<g fill="none" stroke="#212121" stroke-opacity="1" stroke-width="1" stroke-linecap="square" stroke-linejoin="bevel" transform="matrix(1,0,0,1,208,329)"
font-family="Noto Sans UI" font-size="16" font-weight="400" font-style="italic" 
>
</g>

<g fill="none" stroke="#212121" stroke-opacity="1" stroke-width="1" stroke-linecap="square" stroke-linejoin="bevel" transform="matrix(1,0,0,1,0,0)"
font-family="Noto Sans UI" font-size="16" font-weight="400" font-style="italic" 
>
</g>

<g fill="none" stroke="#212121" stroke-opacity="1" stroke-width="1" stroke-linecap="square" stroke-linejoin="bevel" transform="matrix(1,0,0,1,260,329)"
font-family="Noto Sans UI" font-size="16" font-weight="400" font-style="italic" 
>
<text fill="#212121" fill-opacity="1" stroke="none" xml:space="preserve" x="0" y="18" font-family="Noto Sans UI" font-size="16" font-weight="400" font-style="italic" 
 >400</text>
</g>

<g fill="none" stroke="#212121" stroke-opacity="1" stroke-width="1" stroke-linecap="square" stroke-linejoin="bevel" transform="matrix(1,0,0,1,260,329)"
font-family="Noto Sans UI" font-size="16" font-weight="400" font-style="italic" 
>
</g>

<g fill="none" stroke="#212121" stroke-opacity="1" stroke-width="1" stroke-linecap="square" stroke-linejoin="bevel" transform="matrix(1,0,0,1,0,0)"
font-family="Noto Sans UI" font-size="16" font-weight="400" font-style="italic" 
>
</g>

<g fill="none" stroke="#212121" stroke-opacity="1" stroke-width="1" stroke-linecap="square" stroke-linejoin="bevel" transform="matrix(1,0,0,1,311,329)"
font-family="Noto Sans UI" font-size="16" font-weight="400" font-style="italic" 
>
<text fill="#212121" fill-opacity="1" stroke="none" xml:space="preserve" x="0" y="18" font-family="Noto Sans UI" font-size="16" font-weight="400" font-style="italic" 
 >500</text>
</g>

<g fill="none" stroke="#212121" stroke-opacity="1" stroke-width="1" stroke-linecap="square" stroke-linejoin="bevel" transform="matrix(1,0,0,1,311,329)"
font-family="Noto Sans UI" font-size="16" font-weight="400" font-style="italic" 
>
</g>

<g fill="none" stroke="#212121" stroke-opacity="1" stroke-width="1" stroke-linecap="square" stroke-linejoin="bevel" transform="matrix(1,0,0,1,0,0)"
font-family="Noto Sans UI" font-size="16" font-weight="400" font-style="italic" 
>
</g>

<g fill="none" stroke="#212121" stroke-opacity="1" stroke-width="1" stroke-linecap="square" stroke-linejoin="bevel" transform="matrix(1,0,0,1,362,329)"
font-family="Noto Sans UI" font-size="16" font-weight="400" font-style="italic" 
>
<text fill="#212121" fill-opacity="1" stroke="none" xml:space="preserve" x="0" y="18" font-family="Noto Sans UI" font-size="16" font-weight="400" font-style="italic" 
 >600</text>
</g>

<g fill="none" stroke="#212121" stroke-opacity="1" stroke-width="1" stroke-linecap="square" stroke-linejoin="bevel" transform="matrix(1,0,0,1,362,329)"
font-family="Noto Sans UI" font-size="16" font-weight="400" font-style="italic" 
>
</g>

<g fill="none" stroke="#212121" stroke-opacity="1" stroke-width="1" stroke-linecap="square" stroke-linejoin="bevel" transform="matrix(1,0,0,1,0,0)"
font-family="Noto Sans UI" font-size="16" font-weight="400" font-style="italic" 
>
</g>

<g fill="none" stroke="#212121" stroke-opacity="1" stroke-width="1" stroke-linecap="square" stroke-linejoin="bevel" transform="matrix(1,0,0,1,414,329)"
font-family="Noto Sans UI" font-size="16" font-weight="400" font-style="italic" 
>
<text fill="#212121" fill-opacity="1" stroke="none" xml:space="preserve" x="0" y="18" font-family="Noto Sans UI" font-size="16" font-weight="400" font-style="italic" 
 >700</text>
</g>

<g fill="none" stroke="#212121" stroke-opacity="1" stroke-width="1" stroke-linecap="square" stroke-linejoin="bevel" transform="matrix(1,0,0,1,414,329)"
font-family="Noto Sans UI" font-size="16" font-weight="400" font-style="italic" 
>
</g>

<g fill="none" stroke="#212121" stroke-opacity="1" stroke-width="1" stroke-linecap="square" stroke-linejoin="bevel" transform="matrix(1,0,0,1,0,0)"
font-family="Noto Sans UI" font-size="16" font-weight="400" font-style="italic" 
>
</g>

<g fill="none" stroke="#212121" stroke-opacity="1" stroke-width="1" stroke-linecap="square" stroke-linejoin="bevel" transform="matrix(1,0,0,1,465,329)"
font-family="Noto Sans UI" font-size="16" font-weight="400" font-style="italic" 
>
<text fill="#212121" fill-opacity="1" stroke="none" xml:space="preserve" x="0" y="18" font-family="Noto Sans UI" font-size="16" font-weight="400" font-style="italic" 
 >800</text>
</g>

<g fill="none" stroke="#212121" stroke-opacity="1" stroke-width="1" stroke-linecap="square" stroke-linejoin="bevel" transform="matrix(1,0,0,1,465,329)"
font-family="Noto Sans UI" font-size="16" font-weight="400" font-style="italic" 
>
</g>

<g fill="none" stroke="#212121" stroke-opacity="1" stroke-width="1" stroke-linecap="square" stroke-linejoin="bevel" transform="matrix(1,0,0,1,0,0)"
font-family="Noto Sans UI" font-size="16" font-weight="400" font-style="italic" 
>
</g>

<g fill="none" stroke="#000000" stroke-opacity="1" stroke-width="1" stroke-linecap="square" stroke-linejoin="bevel" transform="matrix(1,0,0,1,0,0)"
font-family="Noto Sans UI" font-size="16" font-weight="400" font-style="italic" 
>
<polyline fill="none" vector-effect="non-scaling-stroke" points="119,323 119,322 " />
<polyline fill="none" vector-effect="non-scaling-stroke" points="171,323 171,322 " />
<polyline fill="none" vector-effect="non-scaling-stroke" points="222,323 222,322 " />
<polyline fill="none" vector-effect="non-scaling-stroke" points="274,323 274,322 " />
<polyline fill="none" vector-effect="non-scaling-stroke" points="325,323 325,322 " />
<polyline fill="none" vector-effect="non-scaling-stroke" points="376,323 376,322 " />
<polyline fill="none" vector-effect="non-scaling-stroke" points="428,323 428,322 " />
</g>

<g fill="none" stroke="#000000" stroke-opacity="1" stroke-width="1" stroke-linecap="square" stroke-linejoin="bevel" transform="matrix(1,0,0,1,0,0)"
font-family="Noto Sans UI" font-size="16" font-weight="400" font-style="italic" 
>
<polyline fill="none" vector-effect="non-scaling-stroke" points="68,323 479,323 " />
</g>

<g fill="none" stroke="#000000" stroke-opacity="1" stroke-width="1" stroke-linecap="square" stroke-linejoin="bevel" transform="matrix(1,0,0,1,0,0)"
font-family="Noto Sans UI" font-size="16" font-weight="400" font-style="italic" 
>
<polyline fill="none" vector-effect="non-scaling-stroke" points="119,323 119,314 " />
<polyline fill="none" vector-effect="non-scaling-stroke" points="171,323 171,314 " />
<polyline fill="none" vector-effect="non-scaling-stroke" points="222,323 222,314 " />
<polyline fill="none" vector-effect="non-scaling-stroke" points="274,323 274,314 " />
<polyline fill="none" vector-effect="non-scaling-stroke" points="325,323 325,314 " />
<polyline fill="none" vector-effect="non-scaling-stroke" points="376,323 376,314 " />
<polyline fill="none" vector-effect="non-scaling-stroke" points="428,323 428,314 " />
<polyline fill="none" vector-effect="non-scaling-stroke" points="78,323 78,318 " />
<polyline fill="none" vector-effect="non-scaling-stroke" points="89,323 89,318 " />
<polyline fill="none" vector-effect="non-scaling-stroke" points="99,323 99,318 " />
<polyline fill="none" vector-effect="non-scaling-stroke" points="109,323 109,318 " />
<polyline fill="none" vector-effect="non-scaling-stroke" points="130,323 130,318 " />
<polyline fill="none" vector-effect="non-scaling-stroke" points="140,323 140,318 " />
<polyline fill="none" vector-effect="non-scaling-stroke" points="150,323 150,318 " />
<polyline fill="none" vector-effect="non-scaling-stroke" points="160,323 160,318 " />
<polyline fill="none" vector-effect="non-scaling-stroke" points="181,323 181,318 " />
<polyline fill="none" vector-effect="non-scaling-stroke" points="191,323 191,318 " />
<polyline fill="none" vector-effect="non-scaling-stroke" points="202,323 202,318 " />
<polyline fill="none" vector-effect="non-scaling-stroke" points="212,323 212,318 " />
<polyline fill="none" vector-effect="non-scaling-stroke" points="232,323 232,318 " />
<polyline fill="none" vector-effect="non-scaling-stroke" points="243,323 243,318 " />
<polyline fill="none" vector-effect="non-scaling-stroke" points="253,323 253,318 " />
<polyline fill="none" vector-effect="non-scaling-stroke" points="263,323 263,318 " />
<polyline fill="none" vector-effect="non-scaling-stroke" points="284,323 284,318 " />
<polyline fill="none" vector-effect="non-scaling-stroke" points="294,323 294,318 " />
<polyline fill="none" vector-effect="non-scaling-stroke" points="304,323 304,318 " />
<polyline fill="none" vector-effect="non-scaling-stroke" points="315,323 315,318 " />
<polyline fill="none" vector-effect="non-scaling-stroke" points="335,323 335,318 " />
<polyline fill="none" vector-effect="non-scaling-stroke" points="345,323 345,318 " />
<polyline fill="none" vector-effect="non-scaling-stroke" points="356,323 356,318 " />
<polyline fill="none" vector-effect="non-scaling-stroke" points="366,323 366,318 " />
<polyline fill="none" vector-effect="non-scaling-stroke" points="387,323 387,318 " />
<polyline fill="none" vector-effect="non-scaling-stroke" points="397,323 397,318 " />
<polyline fill="none" vector-effect="non-scaling-stroke" points="407,323 407,318 " />
<polyline fill="none" vector-effect="non-scaling-stroke" points="417,323 417,318 " />
<polyline fill="none" vector-effect="non-scaling-stroke" points="438,323 438,318 " />
<polyline fill="none" vector-effect="non-scaling-stroke" points="448,323 448,318 " />
<polyline fill="none" vector-effect="non-scaling-stroke" points="458,323 458,318 " />
<polyline fill="none" vector-effect="non-scaling-stroke" points="469,323 469,318 " />
</g>

<g fill="none" stroke="#000000" stroke-opacity="1" stroke-width="1" stroke-linecap="square" stroke-linejoin="bevel" transform="matrix(1,0,0,1,0,0)"
font-family="Noto Sans UI" font-size="16" font-weight="400" font-style="italic" 
>
</g>

<g fill="none" stroke="#000000" stroke-opacity="1" stroke-width="1" stroke-linecap="square" stroke-linejoin="bevel" transform="matrix(1,0,0,1,0,0)"
font-family="Noto Sans [MONO]" font-size="13.3333" font-weight="400" font-style="normal" 
>
</g>

<g fill="none" stroke="#000000" stroke-opacity="1" stroke-width="1" stroke-linecap="square" stroke-linejoin="bevel" transform="matrix(1,0,0,1,0,0)"
font-family="Noto Sans [MONO]" font-size="13.3333" font-weight="400" font-style="normal" 
>
</g>

<g fill="none" stroke="#000000" stroke-opacity="1" stroke-width="1" stroke-linecap="square" stroke-linejoin="bevel" transform="matrix(1,0,0,1,91,26)"
font-family="Noto Sans [MONO]" font-size="13.3333" font-weight="400" font-style="normal" 
>
</g>

<g fill="none" stroke="#000000" stroke-opacity="1" stroke-width="1" stroke-linecap="square" stroke-linejoin="bevel" transform="matrix(1,0,0,1,91,26)"
font-family="Noto Sans [MONO]" font-size="13.3333" font-weight="400" font-style="normal" 
>
</g>

<g fill="none" stroke="#000000" stroke-opacity="1" stroke-width="2" stroke-linecap="butt" stroke-linejoin="miter" stroke-miterlimit="2" transform="matrix(1,0,0,1,91,26)"
font-family="Noto Sans [MONO]" font-size="13.3333" font-weight="400" font-style="normal" 
>
<polyline fill="none" vector-effect="non-scaling-stroke" points="11,16 43,16 " />
</g>

<g fill="none" stroke="#000000" stroke-opacity="1" stroke-width="1" stroke-linecap="square" stroke-linejoin="bevel" transform="matrix(1,0,0,1,91,26)"
font-family="Noto Sans [MONO]" font-size="13.3333" font-weight="400" font-style="normal" 
>
</g>

<g fill="none" stroke="#000000" stroke-opacity="1" stroke-width="1" stroke-linecap="square" stroke-linejoin="bevel" transform="matrix(1,0,0,1,91,26)"
font-family="Noto Sans UI" font-size="14.6667" font-weight="400" font-style="italic" 
>
<text fill="#000000" fill-opacity="1" stroke="none" xml:space="preserve" x="53" y="22" font-family="Noto Sans UI" font-size="14.6667" font-weight="400" font-style="italic" 
 >Imaginary</text>
</g>

<g fill="none" stroke="#000000" stroke-opacity="1" stroke-width="1" stroke-linecap="square" stroke-linejoin="bevel" transform="matrix(1,0,0,1,91,26)"
font-family="Noto Sans [MONO]" font-size="13.3333" font-weight="400" font-style="normal" 
>
</g>

<g fill="none" stroke="#000000" stroke-opacity="1" stroke-width="1" stroke-linecap="square" stroke-linejoin="bevel" transform="matrix(1,0,0,1,91,26)"
font-family="Noto Sans [MONO]" font-size="13.3333" font-weight="400" font-style="normal" 
>
</g>

<g fill="none" stroke="#ff0000" stroke-opacity="1" stroke-width="2" stroke-linecap="butt" stroke-linejoin="miter" stroke-miterlimit="2" transform="matrix(1,0,0,1,91,26)"
font-family="Noto Sans [MONO]" font-size="13.3333" font-weight="400" font-style="normal" 
>
<polyline fill="none" vector-effect="non-scaling-stroke" points="11,37 43,37 " />
</g>

<g fill="none" stroke="#000000" stroke-opacity="1" stroke-width="1" stroke-linecap="square" stroke-linejoin="bevel" transform="matrix(1,0,0,1,91,26)"
font-family="Noto Sans [MONO]" font-size="13.3333" font-weight="400" font-style="normal" 
>
</g>

<g fill="none" stroke="#000000" stroke-opacity="1" stroke-width="1" stroke-linecap="square" stroke-linejoin="bevel" transform="matrix(1,0,0,1,91,26)"
font-family="Noto Sans UI" font-size="14.6667" font-weight="400" font-style="italic" 
>
<text fill="#000000" fill-opacity="1" stroke="none" xml:space="preserve" x="53" y="43" font-family="Noto Sans UI" font-size="14.6667" font-weight="400" font-style="italic" 
 >Real</text>
</g>

<g fill="none" stroke="#000000" stroke-opacity="1" stroke-width="1" stroke-linecap="square" stroke-linejoin="bevel" transform="matrix(1,0,0,1,91,26)"
font-family="Noto Sans [MONO]" font-size="13.3333" font-weight="400" font-style="normal" 
>
</g>

<g fill="none" stroke="#000000" stroke-opacity="1" stroke-width="1" stroke-linecap="square" stroke-linejoin="bevel" transform="matrix(1,0,0,1,0,0)"
font-family="Noto Sans [MONO]" font-size="13.3333" font-weight="400" font-style="normal" 
>
</g>

<g fill="none" stroke="#000000" stroke-opacity="1" stroke-width="1" stroke-linecap="square" stroke-linejoin="bevel" transform="matrix(1,0,0,1,0,0)"
font-family="Noto Sans [MONO]" font-size="13.3333" font-weight="400" font-style="normal" 
>
</g>
</g>
</svg>
