<?xml version="1.0" encoding="UTF-8" standalone="no"?>
<svg width="136.525mm" height="103.452mm"
 viewBox="0 0 515 390"
 xmlns="http://www.w3.org/2000/svg" xmlns:xlink="http://www.w3.org/1999/xlink"  version="1.2" baseProfile="tiny">
<title>ZnO_Needle_Plate_Sphere</title>
<desc>Generated with QtiPlot</desc>
<defs>
</defs>
<g fill="none" stroke="black" stroke-width="1" fill-rule="evenodd" stroke-linecap="square" stroke-linejoin="bevel" >

<g fill="#ffffff" fill-opacity="1" stroke="none" transform="matrix(1,0,0,1,0,0)"
font-family="Noto Sans [MONO]" font-size="13.3333" font-weight="400" font-style="normal" 
>
<path vector-effect="non-scaling-stroke" fill-rule="evenodd" d="M0,0 L516,0 L516,391 L0,391 L0,0"/>
</g>

<g fill="none" stroke="#000000" stroke-opacity="1" stroke-width="1" stroke-linecap="square" stroke-linejoin="bevel" transform="matrix(1,0,0,1,0,0)"
font-family="Noto Sans [MONO]" font-size="13.3333" font-weight="400" font-style="normal" 
>
</g>

<g fill="#ffffff" fill-opacity="0" stroke="none" transform="matrix(1,0,0,1,0,0)"
font-family="Noto Sans [MONO]" font-size="13.3333" font-weight="400" font-style="normal" 
>
<path vector-effect="non-scaling-stroke" fill-rule="evenodd" d="M5,5 L511,5 L511,381 L5,381 L5,5"/>
</g>

<g fill="none" stroke="none" transform="matrix(1,0,0,1,0,0)"
font-family="Noto Sans [MONO]" font-size="13.3333" font-weight="400" font-style="normal" 
>
<path vector-effect="non-scaling-stroke" fill-rule="evenodd" d="M5,5 L511,5 L511,381 L5,381 L5,5"/>
</g>

<g fill="none" stroke="#000000" stroke-opacity="1" stroke-width="1" stroke-linecap="square" stroke-linejoin="bevel" transform="matrix(1,0,0,1,0,0)"
font-family="Noto Sans [MONO]" font-size="13.3333" font-weight="400" font-style="normal" 
>
</g>

<g fill="#ffffff" fill-opacity="0" stroke="none" transform="matrix(1,0,0,1,0,0)"
font-family="Noto Sans [MONO]" font-size="13.3333" font-weight="400" font-style="normal" 
>
<path vector-effect="non-scaling-stroke" fill-rule="evenodd" d="M80,15 L498,15 L498,323 L80,323 L80,15"/>
</g>

<g fill="none" stroke="#000000" stroke-opacity="1" stroke-width="1" stroke-linecap="square" stroke-linejoin="bevel" transform="matrix(1,0,0,1,0,0)"
font-family="Noto Sans [MONO]" font-size="13.3333" font-weight="400" font-style="normal" 
>
</g>

<g fill="#ffffff" fill-opacity="0" stroke="none" transform="matrix(1,0,0,1,0,0)"
font-family="Noto Sans [MONO]" font-size="13.3333" font-weight="400" font-style="normal" 
>
<path vector-effect="non-scaling-stroke" fill-rule="evenodd" d="M80,15 L498,15 L498,323 L80,323 L80,15"/>
</g>

<g fill="none" stroke="#000000" stroke-opacity="1" stroke-width="1" stroke-linecap="square" stroke-linejoin="bevel" transform="matrix(1,0,0,1,0,0)"
font-family="Noto Sans [MONO]" font-size="13.3333" font-weight="400" font-style="normal" 
>
</g>

<g fill="none" stroke="#000000" stroke-opacity="1" stroke-width="1" stroke-linecap="square" stroke-linejoin="bevel" transform="matrix(1,0,0,1,0,0)"
font-family="Noto Sans [MONO]" font-size="13.3333" font-weight="400" font-style="normal" 
>
</g>

<g fill="none" stroke="#000000" stroke-opacity="1" stroke-width="1" stroke-linecap="square" stroke-linejoin="bevel" transform="matrix(1,0,0,1,0,0)"
font-family="Noto Sans [MONO]" font-size="13.3333" font-weight="400" font-style="normal" 
>
</g>

<g fill="none" stroke="#000000" stroke-opacity="1" stroke-width="2" stroke-linecap="butt" stroke-linejoin="miter" stroke-miterlimit="2" transform="matrix(1,0,0,1,0,0)"
font-family="Noto Sans [MONO]" font-size="13.3333" font-weight="400" font-style="normal" 
>
<polyline fill="none" vector-effect="non-scaling-stroke" points="80,321.704 80.7227,321.694 81.5547,321.686 82.664,321.675 83.7733,321.663 84.6053,321.654 85.7147,321.641 86.5467,321.632 87.656,321.618 88.7653,321.603 89.5973,321.592 90.7067,321.576 91.5387,321.563 92.648,321.545 93.7573,321.526 94.5893,321.511 95.4213,321.496 95.6987,321.491 96.5307,321.474 97.64,321.451 98.7493,321.426 99.5813,321.407 100.691,321.379 101.523,321.357 102.632,321.326 103.741,321.292 104.573,321.266 105.683,321.228 106.515,321.197 107.624,321.154 108.733,321.108 109.565,321.07 110.675,321.016 111.507,320.973 112.616,320.911 113.725,320.843 114.557,320.788 115.667,320.709 116.776,320.621 117.608,320.55 118.163,320.499 118.717,320.446 119.549,320.361 120.659,320.236 121.768,320.097 122.6,319.982 123.709,319.812 124.541,319.671 125.651,319.46 126.76,319.22 127.592,319.017 128.701,318.711 129.533,318.451 130.643,318.054 131.752,317.588 132.029,317.458 132.584,317.183 133.693,316.554 133.971,316.377 134.525,315.999 135.357,315.358 135.635,315.122 136.467,314.335 136.744,314.043 137.299,313.41 137.576,313.065 138.131,312.312 138.685,311.464 139.517,309.975 139.795,309.411 140.349,308.162 140.627,307.47 141.181,305.928 141.459,305.069 141.736,304.142 142.013,303.142 142.291,302.061 142.568,300.89 142.845,299.62 143.123,298.241 143.4,296.74 143.677,295.105 143.955,293.32 144.232,291.371 144.509,289.237 144.787,286.899 145.064,284.334 145.341,281.519 145.619,278.427 145.896,275.029 146.173,271.298 146.451,267.205 146.728,262.721 147.005,257.825 147.283,252.5 147.56,246.742 147.837,240.564 148.115,234.005 148.392,227.137 148.669,220.07 148.947,212.961 149.224,206.015 149.501,199.479 149.779,193.627 150.056,188.741 150.333,185.074 150.611,182.826 150.888,182.116 151.165,182.969 151.443,185.314 151.72,189.001 151.997,193.817 152.275,199.519 152.552,205.85 152.829,212.567 153.107,219.451 153.384,226.317 153.661,233.021 153.939,239.455 154.216,245.547 154.493,251.253 154.771,256.553 155.048,261.446 155.325,265.941 155.603,270.058 155.88,273.818 156.157,277.249 156.435,280.378 156.712,283.23 156.989,285.831 157.267,288.205 157.544,290.374 157.821,292.357 158.099,294.173 158.376,295.839 158.653,297.368 158.931,298.774 159.208,300.07 159.485,301.265 159.763,302.369 160.04,303.391 160.317,304.338 160.595,305.217 160.872,306.034 161.149,306.794 161.427,307.503 161.704,308.165 161.981,308.783 162.536,309.904 163.091,310.89 163.645,311.762 164.2,312.536 164.755,313.226 165.032,313.544 165.587,314.129 166.141,314.656 166.696,315.132 167.251,315.563 167.528,315.763 168.637,316.478 168.915,316.637 169.747,317.076 170.579,317.462 170.856,317.581 171.688,317.91 172.52,318.203 173.629,318.547 174.739,318.845 175.571,319.044 176.68,319.28 177.512,319.439 178.067,319.537 178.621,319.629 179.731,319.798 180.563,319.913 181.672,320.053 182.504,320.148 183.613,320.264 184.723,320.369 185.555,320.441 186.387,320.509 186.664,320.53 187.773,320.611 188.605,320.667 189.715,320.737 190.547,320.785 191.656,320.845 192.765,320.9 193.597,320.939 194.707,320.987 195.539,321.021 196.648,321.063 197.757,321.102 198.589,321.13 199.699,321.165 200.531,321.189 201.64,321.22 202.749,321.249 203.581,321.269 204.691,321.295 205.523,321.313 206.632,321.336 207.741,321.358 208.573,321.373 209.683,321.392 210.515,321.406 211.624,321.424 212.733,321.44 213.565,321.452 214.675,321.467 215.507,321.477 216.616,321.491 217.448,321.5 217.725,321.504 218.557,321.513 219.667,321.524 220.776,321.535 221.608,321.543 222.717,321.553 223.549,321.56 224.659,321.568 225.768,321.577 226.6,321.583 227.709,321.59 228.541,321.596 229.651,321.603 230.76,321.609 231.592,321.614 232.701,321.619 233.533,321.623 234.643,321.628 235.752,321.633 236.584,321.636 237.693,321.641 238.525,321.643 239.635,321.647 240.744,321.65 241.576,321.652 242.685,321.655 243.517,321.657 244.627,321.659 245.736,321.661 246.568,321.662 247.677,321.664 248.509,321.664 249.619,321.665 250.728,321.666 251.56,321.666 252.669,321.666 253.501,321.666 254.611,321.665 255.72,321.664 256.552,321.664 257.661,321.662 258.771,321.66 259.603,321.659 260.712,321.656 261.544,321.654 262.653,321.651 263.763,321.648 264.595,321.645 265.704,321.64 266.536,321.637 267.645,321.632 268.755,321.626 269.587,321.622 270.696,321.615 271.528,321.61 272.637,321.602 273.747,321.594 274.579,321.587 275.688,321.577 276.52,321.569 277.629,321.558 278.739,321.546 279.571,321.536 280.68,321.522 281.512,321.511 282.344,321.499 282.621,321.494 283.731,321.477 284.563,321.463 285.672,321.442 286.504,321.426 287.613,321.402 288.723,321.376 289.555,321.355 290.664,321.325 291.773,321.292 292.605,321.265 293.715,321.226 294.547,321.194 295.656,321.147 296.765,321.096 297.597,321.054 298.707,320.991 299.539,320.94 300.648,320.864 301.757,320.779 302.589,320.708 303.699,320.603 304.531,320.514 304.808,320.482 305.64,320.381 306.749,320.228 307.581,320.097 308.691,319.898 309.523,319.727 310.632,319.463 311.741,319.149 312.573,318.873 313.683,318.437 314.515,318.047 315.624,317.419 316.733,316.63 317.011,316.401 317.565,315.899 318.12,315.327 318.675,314.674 318.952,314.312 319.507,313.506 319.784,313.056 320.339,312.048 320.616,311.482 321.171,310.205 321.448,309.484 321.725,308.699 322.003,307.843 322.28,306.91 322.557,305.889 322.835,304.773 323.112,303.549 323.389,302.207 323.667,300.733 323.944,299.113 324.221,297.333 324.499,295.377 324.776,293.229 325.053,290.873 325.331,288.297 325.608,285.49 325.885,282.448 326.163,279.175 326.44,275.689 326.717,272.024 326.995,268.236 327.272,264.409 327.549,260.655 327.827,257.113 328.104,253.943 328.381,251.315 328.659,249.387 328.936,248.288 329.491,248.815 329.768,250.4 330.045,252.739 330.323,255.683 330.6,259.065 330.877,262.722 331.155,266.505 331.432,270.294 331.709,273.994 331.987,277.538 332.264,280.885 332.541,284.01 332.819,286.903 333.096,289.566 333.373,292.006 333.651,294.234 333.928,296.267 334.205,298.117 334.483,299.803 334.76,301.337 335.037,302.735 335.315,304.009 335.592,305.172 335.869,306.235 336.147,307.208 336.424,308.099 336.701,308.917 336.979,309.669 337.533,310.999 337.811,311.589 338.365,312.639 338.643,313.107 338.92,313.542 339.752,314.676 340.584,315.6 341.693,316.586 342.525,317.185 343.08,317.531 343.635,317.84 344.744,318.37 345.299,318.598 345.576,318.704 346.685,319.081 347.517,319.322 348.349,319.535 348.627,319.6 349.736,319.835 350.568,319.99 351.677,320.17 352.509,320.29 353.619,320.432 354.451,320.526 354.728,320.556 355.56,320.639 356.669,320.739 357.501,320.807 358.611,320.888 359.72,320.962 360.552,321.012 361.661,321.073 362.771,321.128 363.603,321.166 364.712,321.213 365.544,321.245 366.653,321.285 367.763,321.322 368.595,321.348 369.704,321.379 370.536,321.402 371.645,321.429 372.755,321.455 373.587,321.473 374.696,321.496 374.973,321.501 375.528,321.512 376.637,321.532 377.747,321.55 378.579,321.563 379.688,321.58 380.52,321.592 381.629,321.607 382.739,321.621 383.571,321.631 384.68,321.644 385.512,321.653 386.621,321.664 387.731,321.675 388.563,321.683 389.672,321.693 390.504,321.7 391.613,321.709 392.723,321.717 393.555,321.723 394.664,321.731 395.773,321.739 396.605,321.744 397.715,321.751 398.547,321.756 399.656,321.762 400.765,321.768 401.597,321.773 402.707,321.778 403.539,321.782 404.648,321.788 405.757,321.793 406.589,321.796 407.699,321.801 408.531,321.804 409.64,321.809 410.749,321.813 411.581,321.816 412.691,321.82 413.523,321.823 414.632,321.826 415.741,321.83 416.573,321.833 417.683,321.836 418.515,321.838 419.624,321.842 420.733,321.845 421.565,321.847 422.675,321.85 423.507,321.852 424.616,321.854 425.725,321.857 426.557,321.859 427.667,321.862 428.776,321.864 429.608,321.866 430.717,321.868 431.549,321.87 432.659,321.872 433.768,321.874 434.6,321.875 435.709,321.877 436.541,321.879 437.651,321.881 438.76,321.883 439.592,321.884 440.701,321.886 441.533,321.887 442.643,321.889 443.752,321.89 444.584,321.892 445.693,321.893 446.525,321.894 447.635,321.896 448.744,321.897 449.576,321.898 450.685,321.9 451.517,321.901 452.627,321.902 453.736,321.904 454.568,321.904 455.677,321.906 456.509,321.907 457.619,321.908 458.728,321.909 459.56,321.91 460.669,321.911 461.501,321.912 462.611,321.913 463.72,321.914 464.552,321.915 465.661,321.916 466.771,321.917 467.603,321.918 468.712,321.919 469.544,321.919 470.653,321.92 471.763,321.921 472.595,321.922 473.704,321.923 474.536,321.923 475.645,321.924 476.755,321.925 477.587,321.926 478.696,321.926 479.528,321.927 480.637,321.928 481.747,321.929 482.579,321.929 483.688,321.93 484.52,321.93 485.629,321.931 486.739,321.932 487.571,321.932 488.68,321.933 489.512,321.934 490.621,321.934 491.731,321.935 492.563,321.935 493.672,321.936 494.504,321.937 495.613,321.937 496.723,321.938 497.555,321.938 498,321.938 " />
</g>

<g fill="none" stroke="#000000" stroke-opacity="1" stroke-width="1" stroke-linecap="square" stroke-linejoin="bevel" transform="matrix(1,0,0,1,0,0)"
font-family="Noto Sans [MONO]" font-size="13.3333" font-weight="400" font-style="normal" 
>
</g>

<g fill="none" stroke="#000000" stroke-opacity="1" stroke-width="1" stroke-linecap="square" stroke-linejoin="bevel" transform="matrix(1,0,0,1,0,0)"
font-family="Noto Sans [MONO]" font-size="13.3333" font-weight="400" font-style="normal" 
>
</g>

<g fill="none" stroke="#000000" stroke-opacity="1" stroke-width="1" stroke-linecap="square" stroke-linejoin="bevel" transform="matrix(1,0,0,1,0,0)"
font-family="Noto Sans [MONO]" font-size="13.3333" font-weight="400" font-style="normal" 
>
</g>

<g fill="none" stroke="#ff0000" stroke-opacity="1" stroke-width="2" stroke-linecap="butt" stroke-linejoin="miter" stroke-miterlimit="2" transform="matrix(1,0,0,1,0,0)"
font-family="Noto Sans [MONO]" font-size="13.3333" font-weight="400" font-style="normal" 
>
<polyline fill="none" vector-effect="non-scaling-stroke" points="80,321.748 80.7227,321.742 81.5547,321.737 82.664,321.731 83.7733,321.724 84.6053,321.718 85.7147,321.711 86.5467,321.705 87.656,321.698 88.7653,321.69 89.5973,321.683 90.7067,321.675 91.5387,321.668 92.648,321.659 93.7573,321.649 94.5893,321.642 95.6987,321.631 96.5307,321.623 97.64,321.612 98.7493,321.601 99.5813,321.592 100.691,321.58 101.523,321.57 102.632,321.557 103.741,321.543 104.573,321.532 105.683,321.517 106.515,321.506 107.069,321.498 107.624,321.489 108.733,321.473 109.565,321.459 110.675,321.441 111.507,321.427 112.616,321.407 113.725,321.386 114.557,321.369 115.667,321.346 116.776,321.322 117.608,321.303 118.717,321.277 119.549,321.256 120.659,321.227 121.768,321.196 122.6,321.172 123.709,321.138 124.541,321.112 125.651,321.074 126.76,321.034 127.592,321.003 128.701,320.959 129.533,320.923 130.643,320.874 131.752,320.821 132.584,320.779 133.693,320.719 134.525,320.672 135.635,320.604 136.744,320.532 137.299,320.494 137.576,320.474 138.685,320.391 139.517,320.325 140.627,320.23 141.736,320.128 142.568,320.045 143.677,319.926 144.509,319.83 145.619,319.691 146.728,319.539 147.005,319.498 147.56,319.415 148.669,319.235 149.501,319.088 150.611,318.873 151.72,318.634 152.552,318.438 153.661,318.148 154.771,317.822 155.603,317.55 155.88,317.454 156.712,317.146 157.544,316.807 158.376,316.431 158.653,316.297 159.763,315.711 160.317,315.384 160.595,315.211 161.704,314.448 162.536,313.791 163.091,313.305 163.645,312.776 163.923,312.494 164.755,311.566 165.032,311.227 165.587,310.499 166.419,309.264 166.696,308.81 166.973,308.331 167.528,307.293 168.083,306.137 168.637,304.843 168.915,304.137 169.192,303.389 169.747,301.748 170.024,300.848 170.301,299.889 170.579,298.866 170.856,297.773 171.133,296.603 171.411,295.35 171.688,294.007 171.965,292.564 172.243,291.012 172.52,289.34 172.797,287.537 173.075,285.589 173.352,283.481 173.629,281.197 173.907,278.718 174.184,276.024 174.461,273.09 174.739,269.892 175.016,266.399 175.293,262.581 175.571,258.4 175.848,253.819 176.125,248.795 176.403,243.281 176.68,237.229 176.957,230.589 177.235,223.311 177.512,215.348 177.789,206.661 178.067,197.224 178.344,187.03 178.621,176.105 178.899,164.516 179.176,152.384 179.453,139.895 179.731,127.31 180.008,114.958 180.285,103.233 180.563,92.5598 180.84,83.3626 181.117,76.0202 181.395,70.8254 181.672,67.9549 181.949,67.4583 182.227,69.2644 182.504,73.2021 182.781,79.0294 183.059,86.4626 183.336,95.2018 183.613,104.95 183.891,115.425 184.168,126.369 184.445,137.549 184.723,148.76 185,159.829 185.277,170.607 185.555,180.979 185.832,190.855 186.109,200.174 186.387,208.9 186.664,217.017 186.941,224.529 187.219,231.453 187.496,237.815 187.773,243.648 188.051,248.988 188.328,253.874 188.605,258.344 188.883,262.433 189.16,266.178 189.437,269.608 189.715,272.755 189.992,275.646 190.269,278.304 190.547,280.751 190.824,283.009 191.101,285.094 191.379,287.022 191.656,288.809 191.933,290.466 192.211,292.006 192.488,293.439 192.765,294.774 193.043,296.02 193.32,297.184 193.597,298.273 193.875,299.293 194.152,300.249 194.429,301.147 194.707,301.991 194.984,302.786 195.261,303.535 195.539,304.241 195.816,304.908 196.093,305.538 196.648,306.699 197.203,307.741 197.757,308.681 198.312,309.532 198.589,309.926 199.144,310.662 199.699,311.332 199.976,311.645 200.531,312.231 200.808,312.506 201.64,313.263 202.195,313.718 202.749,314.138 203.304,314.527 203.581,314.711 204.691,315.382 204.968,315.535 205.523,315.825 206.632,316.35 207.187,316.587 207.741,316.809 208.573,317.118 209.683,317.488 209.96,317.573 210.515,317.738 211.624,318.04 212.733,318.31 213.565,318.495 213.843,318.553 214.675,318.72 215.507,318.875 216.616,319.064 217.725,319.237 218.557,319.356 219.667,319.503 220.776,319.638 221.608,319.732 222.717,319.849 223.549,319.93 224.659,320.032 225.768,320.126 226.6,320.192 227.709,320.274 228.541,320.332 229.651,320.405 230.76,320.473 231.315,320.505 231.592,320.521 232.701,320.582 233.533,320.625 234.643,320.679 235.752,320.73 236.584,320.766 237.693,320.811 238.525,320.844 239.635,320.885 240.744,320.924 241.576,320.952 242.685,320.987 243.517,321.013 244.627,321.045 245.736,321.075 246.568,321.097 247.677,321.125 248.509,321.145 249.619,321.171 250.728,321.195 251.56,321.213 252.669,321.235 253.501,321.251 254.611,321.272 255.72,321.291 256.552,321.305 257.661,321.324 258.771,321.341 259.603,321.353 260.712,321.37 261.544,321.381 262.653,321.396 263.763,321.41 264.595,321.421 265.704,321.434 266.536,321.444 267.645,321.456 268.755,321.468 269.587,321.476 270.696,321.487 271.528,321.495 272.083,321.501 272.637,321.506 273.747,321.516 274.579,321.523 275.688,321.532 276.52,321.538 277.629,321.547 278.739,321.555 279.571,321.561 280.68,321.569 281.512,321.574 282.621,321.582 283.731,321.588 284.563,321.593 285.672,321.6 286.504,321.604 287.613,321.61 288.723,321.616 289.555,321.62 290.664,321.625 291.773,321.63 292.605,321.633 293.715,321.638 294.547,321.641 295.656,321.645 296.765,321.649 297.597,321.651 298.707,321.655 299.539,321.657 300.648,321.66 301.757,321.663 302.589,321.665 303.699,321.667 304.531,321.668 305.64,321.67 306.749,321.672 307.581,321.673 308.691,321.674 309.523,321.674 310.632,321.675 311.741,321.675 312.573,321.675 313.683,321.674 314.515,321.674 315.624,321.672 316.733,321.671 317.565,321.669 318.675,321.667 319.507,321.664 320.616,321.661 321.725,321.657 322.557,321.653 323.667,321.647 324.776,321.641 325.608,321.636 326.717,321.628 327.549,321.621 328.659,321.611 329.768,321.599 330.6,321.589 331.709,321.574 332.541,321.562 333.651,321.543 334.76,321.522 335.592,321.504 335.869,321.497 336.701,321.477 337.533,321.453 338.643,321.418 339.752,321.376 340.584,321.34 341.693,321.285 342.525,321.237 343.635,321.162 344.744,321.071 345.576,320.99 346.685,320.861 347.517,320.743 348.627,320.551 348.904,320.495 349.736,320.304 350.568,320.071 351.677,319.673 352.232,319.425 352.509,319.285 353.619,318.597 353.896,318.386 354.728,317.625 355.005,317.321 355.56,316.622 355.837,316.22 356.392,315.292 356.669,314.759 356.947,314.174 357.501,312.839 357.779,312.085 358.056,311.276 358.333,310.417 358.611,309.516 358.888,308.59 359.165,307.661 359.443,306.757 359.72,305.916 359.997,305.177 360.552,304.174 361.661,304.713 362.216,306.109 362.493,306.965 362.771,307.874 363.048,308.801 363.325,309.718 363.603,310.605 364.157,312.241 364.435,312.977 364.712,313.657 365.267,314.852 365.544,315.372 365.821,315.847 366.376,316.672 366.653,317.03 367.208,317.654 367.763,318.174 368.317,318.61 368.595,318.801 369.704,319.428 369.981,319.556 370.536,319.785 371.645,320.155 372.755,320.438 373.309,320.555 373.587,320.608 374.696,320.792 375.528,320.906 376.637,321.033 377.747,321.137 378.579,321.203 379.688,321.279 380.52,321.328 381.629,321.385 382.739,321.434 383.571,321.466 384.68,321.505 385.512,321.53 386.621,321.561 387.731,321.588 388.563,321.606 389.672,321.628 390.504,321.643 391.613,321.662 392.723,321.678 393.555,321.69 394.664,321.704 395.773,321.716 396.605,321.725 397.715,321.736 398.547,321.744 399.656,321.754 400.765,321.762 401.597,321.769 402.707,321.776 403.539,321.782 404.648,321.789 405.757,321.795 406.589,321.8 407.699,321.805 408.531,321.809 409.64,321.815 410.749,321.819 411.581,321.823 412.691,321.827 413.523,321.83 414.632,321.834 415.741,321.838 416.573,321.841 417.683,321.844 418.515,321.847 419.624,321.85 420.733,321.853 421.565,321.855 422.675,321.858 423.507,321.86 424.616,321.863 425.725,321.865 426.557,321.867 427.667,321.869 428.776,321.872 429.608,321.873 430.717,321.875 431.549,321.877 432.659,321.879 433.768,321.881 434.6,321.882 435.709,321.884 436.541,321.885 437.651,321.887 438.76,321.888 439.592,321.89 440.701,321.891 441.533,321.892 442.643,321.894 443.752,321.895 444.584,321.896 445.693,321.898 446.525,321.899 447.635,321.9 448.744,321.901 449.576,321.902 450.685,321.903 451.517,321.904 452.627,321.905 453.736,321.906 454.568,321.907 455.677,321.908 456.509,321.909 457.619,321.91 458.728,321.911 459.56,321.912 460.669,321.913 461.501,321.913 462.611,321.914 463.72,321.915 464.552,321.916 465.661,321.917 466.771,321.918 467.603,321.918 468.712,321.919 469.544,321.92 470.653,321.92 471.763,321.921 472.595,321.922 473.704,321.923 474.536,321.923 475.645,321.924 476.755,321.925 477.587,321.925 478.696,321.926 479.528,321.926 480.637,321.927 481.747,321.928 482.579,321.928 483.688,321.929 484.52,321.929 485.629,321.93 486.739,321.93 487.571,321.931 488.68,321.931 489.512,321.932 490.621,321.932 491.731,321.933 492.563,321.933 493.672,321.934 494.504,321.934 495.613,321.935 496.723,321.935 497.555,321.936 498,321.936 " />
</g>

<g fill="none" stroke="#000000" stroke-opacity="1" stroke-width="1" stroke-linecap="square" stroke-linejoin="bevel" transform="matrix(1,0,0,1,0,0)"
font-family="Noto Sans [MONO]" font-size="13.3333" font-weight="400" font-style="normal" 
>
</g>

<g fill="none" stroke="#000000" stroke-opacity="1" stroke-width="1" stroke-linecap="square" stroke-linejoin="bevel" transform="matrix(1,0,0,1,0,0)"
font-family="Noto Sans [MONO]" font-size="13.3333" font-weight="400" font-style="normal" 
>
</g>

<g fill="none" stroke="#000000" stroke-opacity="1" stroke-width="1" stroke-linecap="square" stroke-linejoin="bevel" transform="matrix(1,0,0,1,0,0)"
font-family="Noto Sans [MONO]" font-size="13.3333" font-weight="400" font-style="normal" 
>
</g>

<g fill="none" stroke="#00ff00" stroke-opacity="1" stroke-width="2" stroke-linecap="butt" stroke-linejoin="miter" stroke-miterlimit="2" transform="matrix(1,0,0,1,0,0)"
font-family="Noto Sans [MONO]" font-size="13.3333" font-weight="400" font-style="normal" 
>
<polyline fill="none" vector-effect="non-scaling-stroke" points="80,321.974 80.7227,321.973 81.5547,321.973 82.664,321.973 83.7733,321.972 84.6053,321.972 85.7147,321.971 86.5467,321.971 87.656,321.971 88.7653,321.97 89.5973,321.97 90.7067,321.97 91.5387,321.969 92.648,321.969 93.7573,321.968 94.5893,321.968 95.6987,321.968 96.5307,321.967 97.64,321.967 98.7493,321.966 99.5813,321.966 100.691,321.965 101.523,321.965 102.632,321.965 103.741,321.964 104.573,321.964 105.683,321.963 106.515,321.963 107.624,321.962 108.733,321.962 109.565,321.961 110.675,321.961 111.507,321.96 112.616,321.959 113.725,321.959 114.557,321.958 115.667,321.958 116.776,321.957 117.608,321.957 118.717,321.956 119.549,321.955 120.659,321.955 121.768,321.954 122.6,321.953 123.709,321.953 124.541,321.952 125.651,321.951 126.76,321.951 127.592,321.95 128.701,321.949 129.533,321.949 130.643,321.948 131.752,321.947 132.584,321.946 133.693,321.945 134.525,321.945 135.635,321.944 136.744,321.943 137.576,321.942 138.685,321.941 139.517,321.94 140.627,321.939 141.736,321.938 142.568,321.937 143.677,321.936 144.509,321.935 145.619,321.934 146.728,321.933 147.56,321.932 148.669,321.931 149.501,321.93 150.611,321.929 151.72,321.927 152.552,321.926 153.661,321.925 154.771,321.924 155.603,321.923 156.712,321.921 157.544,321.92 158.653,321.918 159.763,321.917 160.595,321.916 161.704,321.914 162.536,321.913 163.645,321.911 164.755,321.909 165.587,321.908 166.696,321.906 167.528,321.905 168.637,321.903 169.747,321.901 170.579,321.899 171.688,321.897 172.52,321.895 173.629,321.893 174.739,321.891 175.571,321.889 176.68,321.887 177.512,321.885 178.621,321.882 179.731,321.88 180.563,321.878 181.672,321.875 182.504,321.873 183.613,321.87 184.723,321.867 185.555,321.865 186.664,321.861 187.773,321.858 188.605,321.856 189.715,321.852 190.547,321.849 191.656,321.846 192.765,321.842 193.597,321.839 194.707,321.835 195.539,321.832 196.648,321.827 197.757,321.823 198.589,321.819 199.699,321.815 200.531,321.811 201.64,321.806 202.749,321.801 203.581,321.796 204.691,321.791 205.523,321.786 206.632,321.78 207.741,321.774 208.573,321.769 209.683,321.762 210.515,321.757 211.624,321.75 212.733,321.742 213.565,321.736 214.675,321.728 215.507,321.721 216.616,321.712 217.725,321.703 218.557,321.696 219.667,321.686 220.776,321.675 221.608,321.667 222.717,321.655 223.549,321.646 224.659,321.633 225.768,321.62 226.6,321.609 227.709,321.595 228.541,321.583 229.651,321.567 230.76,321.55 231.592,321.536 232.701,321.517 233.533,321.502 233.811,321.497 234.643,321.481 235.752,321.459 236.584,321.441 237.693,321.416 238.525,321.396 239.635,321.368 240.744,321.338 241.576,321.314 242.685,321.28 243.517,321.253 244.627,321.214 245.736,321.172 246.568,321.138 247.677,321.09 248.509,321.051 249.619,320.995 250.728,320.933 251.56,320.883 252.669,320.811 253.501,320.752 254.611,320.667 255.72,320.571 256.552,320.493 257.661,320.377 258.771,320.247 259.603,320.139 260.712,319.977 261.544,319.841 262.653,319.637 263.485,319.462 263.763,319.4 264.595,319.197 265.704,318.885 266.536,318.613 267.091,318.411 267.645,318.189 268.755,317.674 269.309,317.375 269.587,317.213 270.696,316.467 271.528,315.782 272.083,315.248 272.637,314.64 272.915,314.303 273.747,313.14 274.301,312.208 274.579,311.686 274.856,311.121 275.411,309.844 275.688,309.121 275.965,308.333 276.243,307.474 276.52,306.536 276.797,305.509 277.075,304.385 277.352,303.153 277.629,301.802 277.907,300.32 278.184,298.694 278.461,296.914 278.739,294.968 279.016,292.846 279.293,290.543 279.571,288.061 279.848,285.406 280.125,282.6 280.403,279.679 280.68,276.697 280.957,273.731 281.235,270.879 281.512,268.26 281.789,266.002 282.067,264.232 282.344,263.06 282.621,262.56 283.176,263.641 283.453,265.128 283.731,267.115 284.008,269.478 284.285,272.087 284.563,274.823 284.84,277.586 285.117,280.295 285.395,282.893 285.672,285.342 285.949,287.618 286.227,289.71 286.504,291.617 286.781,293.342 287.059,294.893 287.336,296.279 287.613,297.513 287.891,298.603 288.168,299.563 288.723,301.125 289,301.745 289.555,302.702 290.387,303.508 290.664,303.624 291.773,303.381 292.605,302.451 293.16,301.448 293.715,300.098 293.992,299.279 294.269,298.354 294.547,297.313 294.824,296.147 295.101,294.844 295.379,293.391 295.656,291.773 295.933,289.974 296.211,287.975 296.488,285.758 296.765,283.301 297.043,280.584 297.32,277.585 297.597,274.284 297.875,270.664 298.152,266.714 298.429,262.432 298.707,257.833 298.984,252.947 299.261,247.835 299.539,242.587 299.816,237.333 300.093,232.242 300.371,227.516 300.648,223.38 300.925,220.061 301.203,217.765 301.48,216.641 301.757,216.768 302.035,218.135 302.312,220.65 302.589,224.149 302.867,228.426 303.144,233.257 303.421,238.426 303.699,243.738 303.976,249.035 304.253,254.194 304.531,259.129 304.808,263.785 305.085,268.131 305.363,272.155 305.64,275.86 305.917,279.256 306.195,282.361 306.472,285.193 306.749,287.775 307.027,290.128 307.304,292.273 307.581,294.228 307.859,296.013 308.136,297.644 308.413,299.136 308.691,300.503 308.968,301.757 309.245,302.909 309.523,303.969 309.8,304.947 310.077,305.849 310.355,306.684 310.632,307.456 310.909,308.173 311.187,308.839 311.741,310.035 312.019,310.574 312.573,311.547 313.405,312.79 313.683,313.155 314.237,313.822 314.515,314.127 315.069,314.688 315.624,315.191 316.179,315.642 316.733,316.05 317.565,316.59 318.675,317.2 319.507,317.591 320.616,318.041 321.725,318.424 322.003,318.51 322.557,318.674 323.667,318.968 324.776,319.224 325.608,319.395 326.44,319.549 326.717,319.598 327.549,319.735 328.659,319.899 329.768,320.045 330.6,320.145 331.709,320.266 332.541,320.349 333.651,320.451 334.483,320.521 334.76,320.543 335.592,320.606 336.701,320.685 337.533,320.739 338.643,320.806 339.752,320.868 340.584,320.911 341.693,320.964 342.525,321.002 343.635,321.049 344.744,321.092 345.576,321.123 346.685,321.162 347.517,321.189 348.627,321.223 349.736,321.255 350.568,321.277 351.677,321.306 352.509,321.326 353.619,321.352 354.728,321.376 355.56,321.393 356.669,321.415 357.501,321.43 358.611,321.45 359.72,321.469 360.552,321.482 361.661,321.499 361.939,321.503 362.771,321.515 363.603,321.527 364.712,321.542 365.544,321.553 366.653,321.566 367.763,321.579 368.595,321.588 369.704,321.6 370.536,321.609 371.645,321.62 372.755,321.631 373.587,321.638 374.696,321.648 375.528,321.655 376.637,321.664 377.747,321.673 378.579,321.679 379.688,321.687 380.52,321.693 381.629,321.701 382.739,321.708 383.571,321.713 384.68,321.72 385.512,321.725 386.621,321.731 387.731,321.738 388.563,321.742 389.672,321.748 390.504,321.752 391.613,321.757 392.723,321.763 393.555,321.767 394.664,321.772 395.773,321.776 396.605,321.78 397.715,321.784 398.547,321.788 399.656,321.792 400.765,321.796 401.597,321.799 402.707,321.803 403.539,321.806 404.648,321.809 405.757,321.813 406.589,321.816 407.699,321.819 408.531,321.822 409.64,321.825 410.749,321.828 411.581,321.83 412.691,321.833 413.523,321.836 414.632,321.838 415.741,321.841 416.573,321.843 417.683,321.846 418.515,321.848 419.624,321.85 420.733,321.853 421.565,321.855 422.675,321.857 423.507,321.859 424.616,321.861 425.725,321.863 426.557,321.865 427.667,321.867 428.776,321.869 429.608,321.87 430.717,321.872 431.549,321.874 432.659,321.876 433.768,321.878 434.6,321.879 435.709,321.881 436.541,321.882 437.651,321.884 438.76,321.885 439.592,321.887 440.701,321.888 441.533,321.889 442.643,321.891 443.752,321.892 444.584,321.893 445.693,321.895 446.525,321.896 447.635,321.897 448.744,321.899 449.576,321.9 450.685,321.901 451.517,321.902 452.627,321.903 453.736,321.904 454.568,321.905 455.677,321.907 456.509,321.907 457.619,321.909 458.728,321.91 459.56,321.911 460.669,321.912 461.501,321.912 462.611,321.914 463.72,321.915 464.552,321.915 465.661,321.916 466.771,321.917 467.603,321.918 468.712,321.919 469.544,321.92 470.653,321.921 471.763,321.922 472.595,321.922 473.704,321.923 474.536,321.924 475.645,321.925 476.755,321.925 477.587,321.926 478.696,321.927 479.528,321.927 480.637,321.928 481.747,321.929 482.579,321.93 483.688,321.93 484.52,321.931 485.629,321.932 486.739,321.932 487.571,321.933 488.68,321.934 489.512,321.934 490.621,321.935 491.731,321.935 492.563,321.936 493.672,321.936 494.504,321.937 495.613,321.938 496.723,321.938 497.555,321.939 498,321.939 " />
</g>

<g fill="none" stroke="#000000" stroke-opacity="1" stroke-width="1" stroke-linecap="square" stroke-linejoin="bevel" transform="matrix(1,0,0,1,0,0)"
font-family="Noto Sans [MONO]" font-size="13.3333" font-weight="400" font-style="normal" 
>
</g>

<g fill="none" stroke="#000000" stroke-opacity="1" stroke-width="1" stroke-linecap="square" stroke-linejoin="bevel" transform="matrix(1,0,0,1,0,0)"
font-family="Noto Sans [MONO]" font-size="13.3333" font-weight="400" font-style="normal" 
>
</g>

<g fill="none" stroke="#000000" stroke-opacity="1" stroke-width="1" stroke-linecap="square" stroke-linejoin="bevel" transform="matrix(1,0,0,1,0,0)"
font-family="Noto Sans [MONO]" font-size="13.3333" font-weight="400" font-style="normal" 
>
</g>

<g fill="none" stroke="#000000" stroke-opacity="1" stroke-width="1" stroke-linecap="square" stroke-linejoin="miter" stroke-miterlimit="2" transform="matrix(1,0,0,1,0,0)"
font-family="Noto Sans [MONO]" font-size="13.3333" font-weight="400" font-style="normal" 
>
<path vector-effect="none" fill-rule="evenodd" d="M80,15 L498,15 L498,323 L80,323 L80,15"/>
</g>

<g fill="none" stroke="#000000" stroke-opacity="1" stroke-width="1" stroke-linecap="square" stroke-linejoin="bevel" transform="matrix(1,0,0,1,0,0)"
font-family="Noto Sans [MONO]" font-size="13.3333" font-weight="400" font-style="normal" 
>
</g>

<g fill="none" stroke="#212121" stroke-opacity="1" stroke-width="1" stroke-linecap="square" stroke-linejoin="bevel" transform="matrix(0,-1,1,0,5,333)"
font-family="Noto Sans UI" font-size="16" font-weight="400" font-style="italic" 
>
</g>

<g fill="none" stroke="#000000" stroke-opacity="1" stroke-width="1" stroke-linecap="square" stroke-linejoin="bevel" transform="matrix(0,-1,1,0,5,333)"
font-family="Noto Sans UI" font-size="18.6667" font-weight="700" font-style="normal" 
>
<text fill="#000000" fill-opacity="1" stroke="none" xml:space="preserve" x="27.5" y="20" font-family="Noto Sans UI" font-size="18.6667" font-weight="700" font-style="normal" 
 >Molar absorption (L/mol/cm)</text>
</g>

<g fill="none" stroke="#212121" stroke-opacity="1" stroke-width="1" stroke-linecap="square" stroke-linejoin="bevel" transform="matrix(0,-1,1,0,5,333)"
font-family="Noto Sans UI" font-size="16" font-weight="400" font-style="italic" 
>
</g>

<g fill="none" stroke="#000000" stroke-opacity="1" stroke-width="1" stroke-linecap="square" stroke-linejoin="bevel" transform="matrix(1,0,0,1,0,0)"
font-family="Noto Sans [MONO]" font-size="13.3333" font-weight="400" font-style="normal" 
>
</g>

<g fill="none" stroke="#000000" stroke-opacity="1" stroke-width="1" stroke-linecap="square" stroke-linejoin="bevel" transform="matrix(1,0,0,1,0,0)"
font-family="Noto Sans UI" font-size="16" font-weight="400" font-style="italic" 
>
</g>

<g fill="none" stroke="#000000" stroke-opacity="1" stroke-width="1" stroke-linecap="square" stroke-linejoin="bevel" transform="matrix(1,0,0,1,0,0)"
font-family="Noto Sans UI" font-size="16" font-weight="400" font-style="italic" 
>
</g>

<g fill="none" stroke="#212121" stroke-opacity="1" stroke-width="1" stroke-linecap="square" stroke-linejoin="bevel" transform="matrix(1,0,0,1,0,0)"
font-family="Noto Sans UI" font-size="16" font-weight="400" font-style="italic" 
>
</g>

<g fill="none" stroke="#212121" stroke-opacity="1" stroke-width="1" stroke-linecap="square" stroke-linejoin="bevel" transform="matrix(1,0,0,1,65,310)"
font-family="Noto Sans UI" font-size="16" font-weight="400" font-style="italic" 
>
<text fill="#212121" fill-opacity="1" stroke="none" xml:space="preserve" x="0" y="18" font-family="Noto Sans UI" font-size="16" font-weight="400" font-style="italic" 
 >0</text>
</g>

<g fill="none" stroke="#212121" stroke-opacity="1" stroke-width="1" stroke-linecap="square" stroke-linejoin="bevel" transform="matrix(1,0,0,1,65,310)"
font-family="Noto Sans UI" font-size="16" font-weight="400" font-style="italic" 
>
</g>

<g fill="none" stroke="#212121" stroke-opacity="1" stroke-width="1" stroke-linecap="square" stroke-linejoin="bevel" transform="matrix(1,0,0,1,0,0)"
font-family="Noto Sans UI" font-size="16" font-weight="400" font-style="italic" 
>
</g>

<g fill="none" stroke="#212121" stroke-opacity="1" stroke-width="1" stroke-linecap="square" stroke-linejoin="bevel" transform="matrix(1,0,0,1,34,259)"
font-family="Noto Sans UI" font-size="16" font-weight="400" font-style="italic" 
>
<text fill="#212121" fill-opacity="1" stroke="none" xml:space="preserve" x="0" y="18" font-family="Noto Sans UI" font-size="16" font-weight="400" font-style="italic" 
 >1,000</text>
</g>

<g fill="none" stroke="#212121" stroke-opacity="1" stroke-width="1" stroke-linecap="square" stroke-linejoin="bevel" transform="matrix(1,0,0,1,34,259)"
font-family="Noto Sans UI" font-size="16" font-weight="400" font-style="italic" 
>
</g>

<g fill="none" stroke="#212121" stroke-opacity="1" stroke-width="1" stroke-linecap="square" stroke-linejoin="bevel" transform="matrix(1,0,0,1,0,0)"
font-family="Noto Sans UI" font-size="16" font-weight="400" font-style="italic" 
>
</g>

<g fill="none" stroke="#212121" stroke-opacity="1" stroke-width="1" stroke-linecap="square" stroke-linejoin="bevel" transform="matrix(1,0,0,1,34,208)"
font-family="Noto Sans UI" font-size="16" font-weight="400" font-style="italic" 
>
<text fill="#212121" fill-opacity="1" stroke="none" xml:space="preserve" x="0" y="18" font-family="Noto Sans UI" font-size="16" font-weight="400" font-style="italic" 
 >2,000</text>
</g>

<g fill="none" stroke="#212121" stroke-opacity="1" stroke-width="1" stroke-linecap="square" stroke-linejoin="bevel" transform="matrix(1,0,0,1,34,208)"
font-family="Noto Sans UI" font-size="16" font-weight="400" font-style="italic" 
>
</g>

<g fill="none" stroke="#212121" stroke-opacity="1" stroke-width="1" stroke-linecap="square" stroke-linejoin="bevel" transform="matrix(1,0,0,1,0,0)"
font-family="Noto Sans UI" font-size="16" font-weight="400" font-style="italic" 
>
</g>

<g fill="none" stroke="#212121" stroke-opacity="1" stroke-width="1" stroke-linecap="square" stroke-linejoin="bevel" transform="matrix(1,0,0,1,34,157)"
font-family="Noto Sans UI" font-size="16" font-weight="400" font-style="italic" 
>
<text fill="#212121" fill-opacity="1" stroke="none" xml:space="preserve" x="0" y="18" font-family="Noto Sans UI" font-size="16" font-weight="400" font-style="italic" 
 >3,000</text>
</g>

<g fill="none" stroke="#212121" stroke-opacity="1" stroke-width="1" stroke-linecap="square" stroke-linejoin="bevel" transform="matrix(1,0,0,1,34,157)"
font-family="Noto Sans UI" font-size="16" font-weight="400" font-style="italic" 
>
</g>

<g fill="none" stroke="#212121" stroke-opacity="1" stroke-width="1" stroke-linecap="square" stroke-linejoin="bevel" transform="matrix(1,0,0,1,0,0)"
font-family="Noto Sans UI" font-size="16" font-weight="400" font-style="italic" 
>
</g>

<g fill="none" stroke="#212121" stroke-opacity="1" stroke-width="1" stroke-linecap="square" stroke-linejoin="bevel" transform="matrix(1,0,0,1,34,106)"
font-family="Noto Sans UI" font-size="16" font-weight="400" font-style="italic" 
>
<text fill="#212121" fill-opacity="1" stroke="none" xml:space="preserve" x="0" y="18" font-family="Noto Sans UI" font-size="16" font-weight="400" font-style="italic" 
 >4,000</text>
</g>

<g fill="none" stroke="#212121" stroke-opacity="1" stroke-width="1" stroke-linecap="square" stroke-linejoin="bevel" transform="matrix(1,0,0,1,34,106)"
font-family="Noto Sans UI" font-size="16" font-weight="400" font-style="italic" 
>
</g>

<g fill="none" stroke="#212121" stroke-opacity="1" stroke-width="1" stroke-linecap="square" stroke-linejoin="bevel" transform="matrix(1,0,0,1,0,0)"
font-family="Noto Sans UI" font-size="16" font-weight="400" font-style="italic" 
>
</g>

<g fill="none" stroke="#212121" stroke-opacity="1" stroke-width="1" stroke-linecap="square" stroke-linejoin="bevel" transform="matrix(1,0,0,1,34,55)"
font-family="Noto Sans UI" font-size="16" font-weight="400" font-style="italic" 
>
<text fill="#212121" fill-opacity="1" stroke="none" xml:space="preserve" x="0" y="18" font-family="Noto Sans UI" font-size="16" font-weight="400" font-style="italic" 
 >5,000</text>
</g>

<g fill="none" stroke="#212121" stroke-opacity="1" stroke-width="1" stroke-linecap="square" stroke-linejoin="bevel" transform="matrix(1,0,0,1,34,55)"
font-family="Noto Sans UI" font-size="16" font-weight="400" font-style="italic" 
>
</g>

<g fill="none" stroke="#212121" stroke-opacity="1" stroke-width="1" stroke-linecap="square" stroke-linejoin="bevel" transform="matrix(1,0,0,1,0,0)"
font-family="Noto Sans UI" font-size="16" font-weight="400" font-style="italic" 
>
</g>

<g fill="none" stroke="#212121" stroke-opacity="1" stroke-width="1" stroke-linecap="square" stroke-linejoin="bevel" transform="matrix(1,0,0,1,34,4)"
font-family="Noto Sans UI" font-size="16" font-weight="400" font-style="italic" 
>
<text fill="#212121" fill-opacity="1" stroke="none" xml:space="preserve" x="0" y="18" font-family="Noto Sans UI" font-size="16" font-weight="400" font-style="italic" 
 >6,000</text>
</g>

<g fill="none" stroke="#212121" stroke-opacity="1" stroke-width="1" stroke-linecap="square" stroke-linejoin="bevel" transform="matrix(1,0,0,1,34,4)"
font-family="Noto Sans UI" font-size="16" font-weight="400" font-style="italic" 
>
</g>

<g fill="none" stroke="#212121" stroke-opacity="1" stroke-width="1" stroke-linecap="square" stroke-linejoin="bevel" transform="matrix(1,0,0,1,0,0)"
font-family="Noto Sans UI" font-size="16" font-weight="400" font-style="italic" 
>
</g>

<g fill="none" stroke="#000000" stroke-opacity="1" stroke-width="1" stroke-linecap="square" stroke-linejoin="bevel" transform="matrix(1,0,0,1,0,0)"
font-family="Noto Sans UI" font-size="16" font-weight="400" font-style="italic" 
>
<polyline fill="none" vector-effect="non-scaling-stroke" points="80,271 81,271 " />
<polyline fill="none" vector-effect="non-scaling-stroke" points="80,220 81,220 " />
<polyline fill="none" vector-effect="non-scaling-stroke" points="80,169 81,169 " />
<polyline fill="none" vector-effect="non-scaling-stroke" points="80,118 81,118 " />
<polyline fill="none" vector-effect="non-scaling-stroke" points="80,67 81,67 " />
</g>

<g fill="none" stroke="#000000" stroke-opacity="1" stroke-width="1" stroke-linecap="square" stroke-linejoin="bevel" transform="matrix(1,0,0,1,0,0)"
font-family="Noto Sans UI" font-size="16" font-weight="400" font-style="italic" 
>
<polyline fill="none" vector-effect="non-scaling-stroke" points="80,16 80,322 " />
</g>

<g fill="none" stroke="#000000" stroke-opacity="1" stroke-width="1" stroke-linecap="square" stroke-linejoin="bevel" transform="matrix(1,0,0,1,0,0)"
font-family="Noto Sans UI" font-size="16" font-weight="400" font-style="italic" 
>
<polyline fill="none" vector-effect="non-scaling-stroke" points="80,271 89,271 " />
<polyline fill="none" vector-effect="non-scaling-stroke" points="80,220 89,220 " />
<polyline fill="none" vector-effect="non-scaling-stroke" points="80,169 89,169 " />
<polyline fill="none" vector-effect="non-scaling-stroke" points="80,118 89,118 " />
<polyline fill="none" vector-effect="non-scaling-stroke" points="80,67 89,67 " />
<polyline fill="none" vector-effect="non-scaling-stroke" points="80,314 85,314 " />
<polyline fill="none" vector-effect="non-scaling-stroke" points="80,305 85,305 " />
<polyline fill="none" vector-effect="non-scaling-stroke" points="80,288 85,288 " />
<polyline fill="none" vector-effect="non-scaling-stroke" points="80,280 85,280 " />
<polyline fill="none" vector-effect="non-scaling-stroke" points="80,263 85,263 " />
<polyline fill="none" vector-effect="non-scaling-stroke" points="80,254 85,254 " />
<polyline fill="none" vector-effect="non-scaling-stroke" points="80,237 85,237 " />
<polyline fill="none" vector-effect="non-scaling-stroke" points="80,229 85,229 " />
<polyline fill="none" vector-effect="non-scaling-stroke" points="80,212 85,212 " />
<polyline fill="none" vector-effect="non-scaling-stroke" points="80,203 85,203 " />
<polyline fill="none" vector-effect="non-scaling-stroke" points="80,186 85,186 " />
<polyline fill="none" vector-effect="non-scaling-stroke" points="80,178 85,178 " />
<polyline fill="none" vector-effect="non-scaling-stroke" points="80,161 85,161 " />
<polyline fill="none" vector-effect="non-scaling-stroke" points="80,152 85,152 " />
<polyline fill="none" vector-effect="non-scaling-stroke" points="80,135 85,135 " />
<polyline fill="none" vector-effect="non-scaling-stroke" points="80,127 85,127 " />
<polyline fill="none" vector-effect="non-scaling-stroke" points="80,110 85,110 " />
<polyline fill="none" vector-effect="non-scaling-stroke" points="80,101 85,101 " />
<polyline fill="none" vector-effect="non-scaling-stroke" points="80,84 85,84 " />
<polyline fill="none" vector-effect="non-scaling-stroke" points="80,76 85,76 " />
<polyline fill="none" vector-effect="non-scaling-stroke" points="80,59 85,59 " />
<polyline fill="none" vector-effect="non-scaling-stroke" points="80,50 85,50 " />
<polyline fill="none" vector-effect="non-scaling-stroke" points="80,33 85,33 " />
<polyline fill="none" vector-effect="non-scaling-stroke" points="80,25 85,25 " />
<polyline fill="none" vector-effect="non-scaling-stroke" points="80,297 85,297 " />
<polyline fill="none" vector-effect="non-scaling-stroke" points="80,246 85,246 " />
<polyline fill="none" vector-effect="non-scaling-stroke" points="80,195 85,195 " />
<polyline fill="none" vector-effect="non-scaling-stroke" points="80,144 85,144 " />
<polyline fill="none" vector-effect="non-scaling-stroke" points="80,93 85,93 " />
<polyline fill="none" vector-effect="non-scaling-stroke" points="80,42 85,42 " />
</g>

<g fill="none" stroke="#000000" stroke-opacity="1" stroke-width="1" stroke-linecap="square" stroke-linejoin="bevel" transform="matrix(1,0,0,1,0,0)"
font-family="Noto Sans UI" font-size="16" font-weight="400" font-style="italic" 
>
</g>

<g fill="none" stroke="#000000" stroke-opacity="1" stroke-width="1" stroke-linecap="square" stroke-linejoin="bevel" transform="matrix(1,0,0,1,0,0)"
font-family="Noto Sans [MONO]" font-size="13.3333" font-weight="400" font-style="normal" 
>
</g>

<g fill="none" stroke="#212121" stroke-opacity="1" stroke-width="1" stroke-linecap="square" stroke-linejoin="bevel" transform="matrix(1,0,0,1,67,354)"
font-family="Noto Sans UI" font-size="16" font-weight="400" font-style="italic" 
>
</g>

<g fill="none" stroke="#000000" stroke-opacity="1" stroke-width="1" stroke-linecap="square" stroke-linejoin="bevel" transform="matrix(1,0,0,1,67,354)"
font-family="Noto Sans UI" font-size="18.6667" font-weight="700" font-style="normal" 
>
</g>

<g fill="none" stroke="#000000" stroke-opacity="1" stroke-width="1" stroke-linecap="square" stroke-linejoin="bevel" transform="matrix(1,0,0,1,67,355)"
font-family="Noto Sans UI" font-size="18.6667" font-weight="700" font-style="normal" 
>
<text fill="#000000" fill-opacity="1" stroke="none" xml:space="preserve" x="130.5" y="20" font-family="Noto Sans UI" font-size="18.6667" font-weight="700" font-style="normal" 
 >Wavenumber (cm</text>
<text fill="#000000" fill-opacity="1" stroke="none" xml:space="preserve" x="296.5" y="12" font-family="Noto Sans UI" font-size="12" font-weight="700" font-style="normal" 
 >-1</text>
<text fill="#000000" fill-opacity="1" stroke="none" xml:space="preserve" x="307.5" y="20" font-family="Noto Sans UI" font-size="18.6667" font-weight="700" font-style="normal" 
 >)</text>
</g>

<g fill="none" stroke="#000000" stroke-opacity="1" stroke-width="1" stroke-linecap="square" stroke-linejoin="bevel" transform="matrix(1,0,0,1,67,354)"
font-family="Noto Sans UI" font-size="18.6667" font-weight="700" font-style="normal" 
>
</g>

<g fill="none" stroke="#212121" stroke-opacity="1" stroke-width="1" stroke-linecap="square" stroke-linejoin="bevel" transform="matrix(1,0,0,1,67,354)"
font-family="Noto Sans UI" font-size="16" font-weight="400" font-style="italic" 
>
</g>

<g fill="none" stroke="#000000" stroke-opacity="1" stroke-width="1" stroke-linecap="square" stroke-linejoin="bevel" transform="matrix(1,0,0,1,0,0)"
font-family="Noto Sans [MONO]" font-size="13.3333" font-weight="400" font-style="normal" 
>
</g>

<g fill="none" stroke="#000000" stroke-opacity="1" stroke-width="1" stroke-linecap="square" stroke-linejoin="bevel" transform="matrix(1,0,0,1,0,0)"
font-family="Noto Sans UI" font-size="16" font-weight="400" font-style="italic" 
>
</g>

<g fill="none" stroke="#000000" stroke-opacity="1" stroke-width="1" stroke-linecap="square" stroke-linejoin="bevel" transform="matrix(1,0,0,1,0,0)"
font-family="Noto Sans UI" font-size="16" font-weight="400" font-style="italic" 
>
</g>

<g fill="none" stroke="#212121" stroke-opacity="1" stroke-width="1" stroke-linecap="square" stroke-linejoin="bevel" transform="matrix(1,0,0,1,0,0)"
font-family="Noto Sans UI" font-size="16" font-weight="400" font-style="italic" 
>
</g>

<g fill="none" stroke="#212121" stroke-opacity="1" stroke-width="1" stroke-linecap="square" stroke-linejoin="bevel" transform="matrix(1,0,0,1,67,329)"
font-family="Noto Sans UI" font-size="16" font-weight="400" font-style="italic" 
>
<text fill="#212121" fill-opacity="1" stroke="none" xml:space="preserve" x="0" y="18" font-family="Noto Sans UI" font-size="16" font-weight="400" font-style="italic" 
 >300</text>
</g>

<g fill="none" stroke="#212121" stroke-opacity="1" stroke-width="1" stroke-linecap="square" stroke-linejoin="bevel" transform="matrix(1,0,0,1,67,329)"
font-family="Noto Sans UI" font-size="16" font-weight="400" font-style="italic" 
>
</g>

<g fill="none" stroke="#212121" stroke-opacity="1" stroke-width="1" stroke-linecap="square" stroke-linejoin="bevel" transform="matrix(1,0,0,1,0,0)"
font-family="Noto Sans UI" font-size="16" font-weight="400" font-style="italic" 
>
</g>

<g fill="none" stroke="#212121" stroke-opacity="1" stroke-width="1" stroke-linecap="square" stroke-linejoin="bevel" transform="matrix(1,0,0,1,136,329)"
font-family="Noto Sans UI" font-size="16" font-weight="400" font-style="italic" 
>
<text fill="#212121" fill-opacity="1" stroke="none" xml:space="preserve" x="0" y="18" font-family="Noto Sans UI" font-size="16" font-weight="400" font-style="italic" 
 >350</text>
</g>

<g fill="none" stroke="#212121" stroke-opacity="1" stroke-width="1" stroke-linecap="square" stroke-linejoin="bevel" transform="matrix(1,0,0,1,136,329)"
font-family="Noto Sans UI" font-size="16" font-weight="400" font-style="italic" 
>
</g>

<g fill="none" stroke="#212121" stroke-opacity="1" stroke-width="1" stroke-linecap="square" stroke-linejoin="bevel" transform="matrix(1,0,0,1,0,0)"
font-family="Noto Sans UI" font-size="16" font-weight="400" font-style="italic" 
>
</g>

<g fill="none" stroke="#212121" stroke-opacity="1" stroke-width="1" stroke-linecap="square" stroke-linejoin="bevel" transform="matrix(1,0,0,1,206,329)"
font-family="Noto Sans UI" font-size="16" font-weight="400" font-style="italic" 
>
<text fill="#212121" fill-opacity="1" stroke="none" xml:space="preserve" x="0" y="18" font-family="Noto Sans UI" font-size="16" font-weight="400" font-style="italic" 
 >400</text>
</g>

<g fill="none" stroke="#212121" stroke-opacity="1" stroke-width="1" stroke-linecap="square" stroke-linejoin="bevel" transform="matrix(1,0,0,1,206,329)"
font-family="Noto Sans UI" font-size="16" font-weight="400" font-style="italic" 
>
</g>

<g fill="none" stroke="#212121" stroke-opacity="1" stroke-width="1" stroke-linecap="square" stroke-linejoin="bevel" transform="matrix(1,0,0,1,0,0)"
font-family="Noto Sans UI" font-size="16" font-weight="400" font-style="italic" 
>
</g>

<g fill="none" stroke="#212121" stroke-opacity="1" stroke-width="1" stroke-linecap="square" stroke-linejoin="bevel" transform="matrix(1,0,0,1,275,329)"
font-family="Noto Sans UI" font-size="16" font-weight="400" font-style="italic" 
>
<text fill="#212121" fill-opacity="1" stroke="none" xml:space="preserve" x="0" y="18" font-family="Noto Sans UI" font-size="16" font-weight="400" font-style="italic" 
 >450</text>
</g>

<g fill="none" stroke="#212121" stroke-opacity="1" stroke-width="1" stroke-linecap="square" stroke-linejoin="bevel" transform="matrix(1,0,0,1,275,329)"
font-family="Noto Sans UI" font-size="16" font-weight="400" font-style="italic" 
>
</g>

<g fill="none" stroke="#212121" stroke-opacity="1" stroke-width="1" stroke-linecap="square" stroke-linejoin="bevel" transform="matrix(1,0,0,1,0,0)"
font-family="Noto Sans UI" font-size="16" font-weight="400" font-style="italic" 
>
</g>

<g fill="none" stroke="#212121" stroke-opacity="1" stroke-width="1" stroke-linecap="square" stroke-linejoin="bevel" transform="matrix(1,0,0,1,344,329)"
font-family="Noto Sans UI" font-size="16" font-weight="400" font-style="italic" 
>
<text fill="#212121" fill-opacity="1" stroke="none" xml:space="preserve" x="0" y="18" font-family="Noto Sans UI" font-size="16" font-weight="400" font-style="italic" 
 >500</text>
</g>

<g fill="none" stroke="#212121" stroke-opacity="1" stroke-width="1" stroke-linecap="square" stroke-linejoin="bevel" transform="matrix(1,0,0,1,344,329)"
font-family="Noto Sans UI" font-size="16" font-weight="400" font-style="italic" 
>
</g>

<g fill="none" stroke="#212121" stroke-opacity="1" stroke-width="1" stroke-linecap="square" stroke-linejoin="bevel" transform="matrix(1,0,0,1,0,0)"
font-family="Noto Sans UI" font-size="16" font-weight="400" font-style="italic" 
>
</g>

<g fill="none" stroke="#212121" stroke-opacity="1" stroke-width="1" stroke-linecap="square" stroke-linejoin="bevel" transform="matrix(1,0,0,1,414,329)"
font-family="Noto Sans UI" font-size="16" font-weight="400" font-style="italic" 
>
<text fill="#212121" fill-opacity="1" stroke="none" xml:space="preserve" x="0" y="18" font-family="Noto Sans UI" font-size="16" font-weight="400" font-style="italic" 
 >550</text>
</g>

<g fill="none" stroke="#212121" stroke-opacity="1" stroke-width="1" stroke-linecap="square" stroke-linejoin="bevel" transform="matrix(1,0,0,1,414,329)"
font-family="Noto Sans UI" font-size="16" font-weight="400" font-style="italic" 
>
</g>

<g fill="none" stroke="#212121" stroke-opacity="1" stroke-width="1" stroke-linecap="square" stroke-linejoin="bevel" transform="matrix(1,0,0,1,0,0)"
font-family="Noto Sans UI" font-size="16" font-weight="400" font-style="italic" 
>
</g>

<g fill="none" stroke="#212121" stroke-opacity="1" stroke-width="1" stroke-linecap="square" stroke-linejoin="bevel" transform="matrix(1,0,0,1,483,329)"
font-family="Noto Sans UI" font-size="16" font-weight="400" font-style="italic" 
>
<text fill="#212121" fill-opacity="1" stroke="none" xml:space="preserve" x="0" y="18" font-family="Noto Sans UI" font-size="16" font-weight="400" font-style="italic" 
 >600</text>
</g>

<g fill="none" stroke="#212121" stroke-opacity="1" stroke-width="1" stroke-linecap="square" stroke-linejoin="bevel" transform="matrix(1,0,0,1,483,329)"
font-family="Noto Sans UI" font-size="16" font-weight="400" font-style="italic" 
>
</g>

<g fill="none" stroke="#212121" stroke-opacity="1" stroke-width="1" stroke-linecap="square" stroke-linejoin="bevel" transform="matrix(1,0,0,1,0,0)"
font-family="Noto Sans UI" font-size="16" font-weight="400" font-style="italic" 
>
</g>

<g fill="none" stroke="#000000" stroke-opacity="1" stroke-width="1" stroke-linecap="square" stroke-linejoin="bevel" transform="matrix(1,0,0,1,0,0)"
font-family="Noto Sans UI" font-size="16" font-weight="400" font-style="italic" 
>
<polyline fill="none" vector-effect="non-scaling-stroke" points="150,323 150,322 " />
<polyline fill="none" vector-effect="non-scaling-stroke" points="220,323 220,322 " />
<polyline fill="none" vector-effect="non-scaling-stroke" points="289,323 289,322 " />
<polyline fill="none" vector-effect="non-scaling-stroke" points="358,323 358,322 " />
<polyline fill="none" vector-effect="non-scaling-stroke" points="428,323 428,322 " />
</g>

<g fill="none" stroke="#000000" stroke-opacity="1" stroke-width="1" stroke-linecap="square" stroke-linejoin="bevel" transform="matrix(1,0,0,1,0,0)"
font-family="Noto Sans UI" font-size="16" font-weight="400" font-style="italic" 
>
<polyline fill="none" vector-effect="non-scaling-stroke" points="81,323 497,323 " />
</g>

<g fill="none" stroke="#000000" stroke-opacity="1" stroke-width="1" stroke-linecap="square" stroke-linejoin="bevel" transform="matrix(1,0,0,1,0,0)"
font-family="Noto Sans UI" font-size="16" font-weight="400" font-style="italic" 
>
<polyline fill="none" vector-effect="non-scaling-stroke" points="150,323 150,314 " />
<polyline fill="none" vector-effect="non-scaling-stroke" points="220,323 220,314 " />
<polyline fill="none" vector-effect="non-scaling-stroke" points="289,323 289,314 " />
<polyline fill="none" vector-effect="non-scaling-stroke" points="358,323 358,314 " />
<polyline fill="none" vector-effect="non-scaling-stroke" points="428,323 428,314 " />
<polyline fill="none" vector-effect="non-scaling-stroke" points="93,323 93,318 " />
<polyline fill="none" vector-effect="non-scaling-stroke" points="104,323 104,318 " />
<polyline fill="none" vector-effect="non-scaling-stroke" points="127,323 127,318 " />
<polyline fill="none" vector-effect="non-scaling-stroke" points="139,323 139,318 " />
<polyline fill="none" vector-effect="non-scaling-stroke" points="162,323 162,318 " />
<polyline fill="none" vector-effect="non-scaling-stroke" points="173,323 173,318 " />
<polyline fill="none" vector-effect="non-scaling-stroke" points="197,323 197,318 " />
<polyline fill="none" vector-effect="non-scaling-stroke" points="208,323 208,318 " />
<polyline fill="none" vector-effect="non-scaling-stroke" points="231,323 231,318 " />
<polyline fill="none" vector-effect="non-scaling-stroke" points="243,323 243,318 " />
<polyline fill="none" vector-effect="non-scaling-stroke" points="266,323 266,318 " />
<polyline fill="none" vector-effect="non-scaling-stroke" points="277,323 277,318 " />
<polyline fill="none" vector-effect="non-scaling-stroke" points="301,323 301,318 " />
<polyline fill="none" vector-effect="non-scaling-stroke" points="312,323 312,318 " />
<polyline fill="none" vector-effect="non-scaling-stroke" points="335,323 335,318 " />
<polyline fill="none" vector-effect="non-scaling-stroke" points="347,323 347,318 " />
<polyline fill="none" vector-effect="non-scaling-stroke" points="370,323 370,318 " />
<polyline fill="none" vector-effect="non-scaling-stroke" points="381,323 381,318 " />
<polyline fill="none" vector-effect="non-scaling-stroke" points="405,323 405,318 " />
<polyline fill="none" vector-effect="non-scaling-stroke" points="416,323 416,318 " />
<polyline fill="none" vector-effect="non-scaling-stroke" points="439,323 439,318 " />
<polyline fill="none" vector-effect="non-scaling-stroke" points="451,323 451,318 " />
<polyline fill="none" vector-effect="non-scaling-stroke" points="474,323 474,318 " />
<polyline fill="none" vector-effect="non-scaling-stroke" points="485,323 485,318 " />
<polyline fill="none" vector-effect="non-scaling-stroke" points="116,323 116,318 " />
<polyline fill="none" vector-effect="non-scaling-stroke" points="185,323 185,318 " />
<polyline fill="none" vector-effect="non-scaling-stroke" points="254,323 254,318 " />
<polyline fill="none" vector-effect="non-scaling-stroke" points="324,323 324,318 " />
<polyline fill="none" vector-effect="non-scaling-stroke" points="393,323 393,318 " />
<polyline fill="none" vector-effect="non-scaling-stroke" points="462,323 462,318 " />
</g>

<g fill="none" stroke="#000000" stroke-opacity="1" stroke-width="1" stroke-linecap="square" stroke-linejoin="bevel" transform="matrix(1,0,0,1,0,0)"
font-family="Noto Sans UI" font-size="16" font-weight="400" font-style="italic" 
>
</g>

<g fill="none" stroke="#000000" stroke-opacity="1" stroke-width="1" stroke-linecap="square" stroke-linejoin="bevel" transform="matrix(1,0,0,1,0,0)"
font-family="Noto Sans [MONO]" font-size="13.3333" font-weight="400" font-style="normal" 
>
</g>

<g fill="none" stroke="#000000" stroke-opacity="1" stroke-width="1" stroke-linecap="square" stroke-linejoin="bevel" transform="matrix(1,0,0,1,0,0)"
font-family="Noto Sans [MONO]" font-size="13.3333" font-weight="400" font-style="normal" 
>
</g>

<g fill="none" stroke="#000000" stroke-opacity="1" stroke-width="1" stroke-linecap="square" stroke-linejoin="bevel" transform="matrix(1,0,0,1,238,28)"
font-family="Noto Sans [MONO]" font-size="13.3333" font-weight="400" font-style="normal" 
>
</g>

<g fill="none" stroke="#000000" stroke-opacity="1" stroke-width="1" stroke-linecap="square" stroke-linejoin="bevel" transform="matrix(1,0,0,1,238,28)"
font-family="Noto Sans [MONO]" font-size="13.3333" font-weight="400" font-style="normal" 
>
</g>

<g fill="none" stroke="#000000" stroke-opacity="1" stroke-width="2" stroke-linecap="butt" stroke-linejoin="miter" stroke-miterlimit="2" transform="matrix(1,0,0,1,238,28)"
font-family="Noto Sans [MONO]" font-size="13.3333" font-weight="400" font-style="normal" 
>
<polyline fill="none" vector-effect="non-scaling-stroke" points="11,16 43,16 " />
</g>

<g fill="none" stroke="#000000" stroke-opacity="1" stroke-width="1" stroke-linecap="square" stroke-linejoin="bevel" transform="matrix(1,0,0,1,238,28)"
font-family="Noto Sans [MONO]" font-size="13.3333" font-weight="400" font-style="normal" 
>
</g>

<g fill="none" stroke="#000000" stroke-opacity="1" stroke-width="1" stroke-linecap="square" stroke-linejoin="bevel" transform="matrix(1,0,0,1,238,28)"
font-family="Noto Sans UI" font-size="14.6667" font-weight="400" font-style="italic" 
>
<text fill="#000000" fill-opacity="1" stroke="none" xml:space="preserve" x="53" y="22" font-family="Noto Sans UI" font-size="14.6667" font-weight="400" font-style="italic" 
 >Needle [001]</text>
</g>

<g fill="none" stroke="#000000" stroke-opacity="1" stroke-width="1" stroke-linecap="square" stroke-linejoin="bevel" transform="matrix(1,0,0,1,238,28)"
font-family="Noto Sans [MONO]" font-size="13.3333" font-weight="400" font-style="normal" 
>
</g>

<g fill="none" stroke="#000000" stroke-opacity="1" stroke-width="1" stroke-linecap="square" stroke-linejoin="bevel" transform="matrix(1,0,0,1,238,28)"
font-family="Noto Sans [MONO]" font-size="13.3333" font-weight="400" font-style="normal" 
>
</g>

<g fill="none" stroke="#ff0000" stroke-opacity="1" stroke-width="2" stroke-linecap="butt" stroke-linejoin="miter" stroke-miterlimit="2" transform="matrix(1,0,0,1,238,28)"
font-family="Noto Sans [MONO]" font-size="13.3333" font-weight="400" font-style="normal" 
>
<polyline fill="none" vector-effect="non-scaling-stroke" points="11,37 43,37 " />
</g>

<g fill="none" stroke="#000000" stroke-opacity="1" stroke-width="1" stroke-linecap="square" stroke-linejoin="bevel" transform="matrix(1,0,0,1,238,28)"
font-family="Noto Sans [MONO]" font-size="13.3333" font-weight="400" font-style="normal" 
>
</g>

<g fill="none" stroke="#000000" stroke-opacity="1" stroke-width="1" stroke-linecap="square" stroke-linejoin="bevel" transform="matrix(1,0,0,1,238,28)"
font-family="Noto Sans UI" font-size="14.6667" font-weight="400" font-style="italic" 
>
<text fill="#000000" fill-opacity="1" stroke="none" xml:space="preserve" x="53" y="43" font-family="Noto Sans UI" font-size="14.6667" font-weight="400" font-style="italic" 
 >Plate (001)</text>
</g>

<g fill="none" stroke="#000000" stroke-opacity="1" stroke-width="1" stroke-linecap="square" stroke-linejoin="bevel" transform="matrix(1,0,0,1,238,28)"
font-family="Noto Sans [MONO]" font-size="13.3333" font-weight="400" font-style="normal" 
>
</g>

<g fill="none" stroke="#000000" stroke-opacity="1" stroke-width="1" stroke-linecap="square" stroke-linejoin="bevel" transform="matrix(1,0,0,1,238,28)"
font-family="Noto Sans [MONO]" font-size="13.3333" font-weight="400" font-style="normal" 
>
</g>

<g fill="none" stroke="#00ff00" stroke-opacity="1" stroke-width="2" stroke-linecap="butt" stroke-linejoin="miter" stroke-miterlimit="2" transform="matrix(1,0,0,1,238,28)"
font-family="Noto Sans [MONO]" font-size="13.3333" font-weight="400" font-style="normal" 
>
<polyline fill="none" vector-effect="non-scaling-stroke" points="11,58 43,58 " />
</g>

<g fill="none" stroke="#000000" stroke-opacity="1" stroke-width="1" stroke-linecap="square" stroke-linejoin="bevel" transform="matrix(1,0,0,1,238,28)"
font-family="Noto Sans [MONO]" font-size="13.3333" font-weight="400" font-style="normal" 
>
</g>

<g fill="none" stroke="#000000" stroke-opacity="1" stroke-width="1" stroke-linecap="square" stroke-linejoin="bevel" transform="matrix(1,0,0,1,238,28)"
font-family="Noto Sans UI" font-size="14.6667" font-weight="400" font-style="italic" 
>
<text fill="#000000" fill-opacity="1" stroke="none" xml:space="preserve" x="53" y="64" font-family="Noto Sans UI" font-size="14.6667" font-weight="400" font-style="italic" 
 >Sphere</text>
</g>

<g fill="none" stroke="#000000" stroke-opacity="1" stroke-width="1" stroke-linecap="square" stroke-linejoin="bevel" transform="matrix(1,0,0,1,238,28)"
font-family="Noto Sans [MONO]" font-size="13.3333" font-weight="400" font-style="normal" 
>
</g>

<g fill="none" stroke="#000000" stroke-opacity="1" stroke-width="1" stroke-linecap="square" stroke-linejoin="bevel" transform="matrix(1,0,0,1,0,0)"
font-family="Noto Sans [MONO]" font-size="13.3333" font-weight="400" font-style="normal" 
>
</g>

<g fill="none" stroke="#000000" stroke-opacity="1" stroke-width="1" stroke-linecap="square" stroke-linejoin="bevel" transform="matrix(1,0,0,1,0,0)"
font-family="Noto Sans [MONO]" font-size="13.3333" font-weight="400" font-style="normal" 
>
</g>
</g>
</svg>
