<?xml version="1.0" encoding="UTF-8" standalone="no"?>
<svg width="128.058mm" height="101.071mm"
 viewBox="0 0 483 381"
 xmlns="http://www.w3.org/2000/svg" xmlns:xlink="http://www.w3.org/1999/xlink"  version="1.2" baseProfile="tiny">
<title>Aspartic_thz_a</title>
<desc>Generated with QtiPlot</desc>
<defs>
</defs>
<g fill="none" stroke="black" stroke-width="1" fill-rule="evenodd" stroke-linecap="square" stroke-linejoin="bevel" >

<g fill="#ffffff" fill-opacity="1" stroke="none" transform="matrix(1,0,0,1,0,0)"
font-family="Noto Sans [MONO]" font-size="13.3333" font-weight="400" font-style="normal" 
>
<path vector-effect="non-scaling-stroke" fill-rule="evenodd" d="M0,0 L484,0 L484,382 L0,382 L0,0"/>
</g>

<g fill="none" stroke="#000000" stroke-opacity="1" stroke-width="1" stroke-linecap="square" stroke-linejoin="bevel" transform="matrix(1,0,0,1,0,0)"
font-family="Noto Sans [MONO]" font-size="13.3333" font-weight="400" font-style="normal" 
>
</g>

<g fill="#ffffff" fill-opacity="0" stroke="none" transform="matrix(1,0,0,1,0,0)"
font-family="Noto Sans [MONO]" font-size="13.3333" font-weight="400" font-style="normal" 
>
<path vector-effect="non-scaling-stroke" fill-rule="evenodd" d="M5,5 L479,5 L479,372 L5,372 L5,5"/>
</g>

<g fill="none" stroke="none" transform="matrix(1,0,0,1,0,0)"
font-family="Noto Sans [MONO]" font-size="13.3333" font-weight="400" font-style="normal" 
>
<path vector-effect="non-scaling-stroke" fill-rule="evenodd" d="M5,5 L479,5 L479,372 L5,372 L5,5"/>
</g>

<g fill="none" stroke="#000000" stroke-opacity="1" stroke-width="1" stroke-linecap="square" stroke-linejoin="bevel" transform="matrix(1,0,0,1,0,0)"
font-family="Noto Sans [MONO]" font-size="13.3333" font-weight="400" font-style="normal" 
>
</g>

<g fill="#ffffff" fill-opacity="0" stroke="none" transform="matrix(1,0,0,1,0,0)"
font-family="Noto Sans [MONO]" font-size="13.3333" font-weight="400" font-style="normal" 
>
<path vector-effect="non-scaling-stroke" fill-rule="evenodd" d="M67,15 L466,15 L466,314 L67,314 L67,15"/>
</g>

<g fill="none" stroke="#000000" stroke-opacity="1" stroke-width="1" stroke-linecap="square" stroke-linejoin="bevel" transform="matrix(1,0,0,1,0,0)"
font-family="Noto Sans [MONO]" font-size="13.3333" font-weight="400" font-style="normal" 
>
</g>

<g fill="#ffffff" fill-opacity="0" stroke="none" transform="matrix(1,0,0,1,0,0)"
font-family="Noto Sans [MONO]" font-size="13.3333" font-weight="400" font-style="normal" 
>
<path vector-effect="non-scaling-stroke" fill-rule="evenodd" d="M67,15 L466,15 L466,314 L67,314 L67,15"/>
</g>

<g fill="none" stroke="#000000" stroke-opacity="1" stroke-width="1" stroke-linecap="square" stroke-linejoin="bevel" transform="matrix(1,0,0,1,0,0)"
font-family="Noto Sans [MONO]" font-size="13.3333" font-weight="400" font-style="normal" 
>
</g>

<g fill="none" stroke="#000000" stroke-opacity="1" stroke-width="1" stroke-linecap="square" stroke-linejoin="bevel" transform="matrix(1,0,0,1,0,0)"
font-family="Noto Sans [MONO]" font-size="13.3333" font-weight="400" font-style="normal" 
>
</g>

<g fill="none" stroke="#000000" stroke-opacity="1" stroke-width="1" stroke-linecap="square" stroke-linejoin="bevel" transform="matrix(1,0,0,1,0,0)"
font-family="Noto Sans [MONO]" font-size="13.3333" font-weight="400" font-style="normal" 
>
</g>

<g fill="none" stroke="#000000" stroke-opacity="1" stroke-width="4" stroke-linecap="butt" stroke-linejoin="miter" stroke-miterlimit="2" transform="matrix(1,0,0,1,0,0)"
font-family="Noto Sans [MONO]" font-size="13.3333" font-weight="400" font-style="normal" 
>
<polyline fill="none" vector-effect="non-scaling-stroke" points="67,312.731 68,312.728 69.1343,312.724 70.2686,312.72 71.4029,312.716 72.5371,312.712 73.6714,312.708 74.8057,312.704 75.94,312.7 77.0743,312.696 78.2086,312.691 79.3429,312.687 80.4771,312.682 81.6114,312.678 82.7457,312.673 83.88,312.668 85.0143,312.663 86.1486,312.658 87.2829,312.653 88.4171,312.648 89.5514,312.642 90.6857,312.637 91.82,312.631 92.9543,312.626 94.0886,312.62 95.2229,312.614 96.3571,312.608 97.4914,312.601 98.6257,312.595 99.76,312.588 100.894,312.581 102.029,312.574 103.163,312.567 104.297,312.56 105.431,312.552 106.566,312.545 107.7,312.537 108.834,312.528 109.969,312.52 111.103,312.511 112.237,312.503 113.371,312.493 114.506,312.484 115.64,312.474 116.774,312.464 117.909,312.454 119.043,312.443 120.177,312.432 121.311,312.42 122.446,312.409 123.58,312.396 124.714,312.384 125.849,312.37 126.983,312.357 128.117,312.343 129.251,312.328 130.386,312.312 131.52,312.296 132.654,312.279 133.789,312.262 134.923,312.244 136.057,312.224 137.191,312.204 138.326,312.183 139.46,312.161 140.594,312.137 141.729,312.112 142.863,312.086 143.997,312.057 145.131,312.027 146.266,311.995 147.4,311.96 148.534,311.922 149.669,311.881 150.803,311.836 151.937,311.785 153.071,311.729 154.206,311.665 155.34,311.593 156.474,311.508 157.609,311.41 158.743,311.295 159.877,311.161 161.011,311.012 162.146,310.858 163.28,310.721 164.414,310.626 165.549,310.585 166.683,310.585 167.817,310.601 168.951,310.609 170.086,310.598 171.22,310.564 172.354,310.506 173.489,310.426 174.623,310.326 175.757,310.204 176.891,310.061 178.026,309.896 179.16,309.707 180.294,309.491 181.429,309.244 182.563,308.963 183.697,308.641 184.831,308.271 185.966,307.845 187.1,307.351 188.234,306.774 189.369,306.096 190.503,305.294 191.637,304.337 192.771,303.184 193.906,301.784 195.04,300.066 196.174,297.937 197.309,295.274 198.443,291.917 199.577,287.666 200.711,282.293 201.846,275.601 202.98,267.57 204.114,258.66 205.249,250.19 206.383,244.377 207.517,243.334 208.651,247.463 209.786,255.096 210.92,263.899 212.054,272.212 213.189,279.31 214.323,285.079 215.457,289.668 216.591,293.297 217.726,296.172 218.86,298.465 219.994,300.309 221.129,301.805 222.263,303.029 223.397,304.04 224.531,304.882 225.666,305.588 226.8,306.184 227.934,306.69 229.069,307.122 230.203,307.493 231.337,307.812 232.471,308.087 233.606,308.326 234.74,308.532 235.874,308.712 237.009,308.867 238.143,309.002 239.277,309.118 240.411,309.218 241.546,309.303 242.68,309.375 243.814,309.436 244.949,309.485 246.083,309.525 247.217,309.555 248.351,309.577 249.486,309.59 250.62,309.596 251.754,309.595 252.889,309.586 254.023,309.571 255.157,309.549 256.291,309.52 257.426,309.484 258.56,309.442 259.694,309.393 260.829,309.337 261.963,309.274 263.097,309.204 264.231,309.126 265.366,309.04 266.5,308.946 267.634,308.842 268.769,308.729 269.903,308.606 271.037,308.471 272.171,308.325 273.306,308.164 274.44,307.99 275.574,307.799 276.709,307.59 277.843,307.361 278.977,307.11 280.111,306.833 281.246,306.527 282.38,306.187 283.514,305.808 284.649,305.383 285.783,304.905 286.917,304.363 288.051,303.743 289.186,303.029 290.32,302.199 291.454,301.224 292.589,300.069 293.723,298.686 294.857,297.018 295.991,295.003 297.126,292.594 298.26,289.797 299.394,286.76 300.529,283.845 301.663,281.573 302.797,280.313 303.931,279.946 305.066,279.939 306.2,279.716 307.334,278.884 308.469,277.227 309.603,274.61 310.737,270.894 311.871,265.893 313.006,259.343 314.14,250.892 315.274,240.11 316.409,226.577 317.543,210.1 318.677,191.174 319.811,171.588 320.946,154.499 322.08,142.908 323.214,137.119 324.349,134.222 325.483,130.68 326.617,125.272 327.751,120.276 328.886,120.412 330.02,129.465 331.154,147.032 332.289,169.085 333.423,191.26 334.557,210.962 335.691,227.344 336.826,240.532 337.96,251.016 339.094,259.329 340.229,265.941 341.363,271.226 342.497,275.471 343.631,278.896 344.766,281.665 345.9,283.904 347.034,285.704 348.169,287.138 349.303,288.259 350.437,289.107 351.571,289.71 352.706,290.088 353.84,290.255 354.974,290.216 356.109,289.97 357.243,289.512 358.377,288.829 359.511,287.898 360.646,286.693 361.78,285.174 362.914,283.288 364.049,280.967 365.183,278.12 366.317,274.63 367.451,270.34 368.586,265.044 369.72,258.467 370.854,250.242 371.989,239.884 373.123,226.761 374.257,210.081 375.391,188.944 376.526,162.554 377.66,130.802 378.794,95.4182 379.929,61.4739 381.063,37.5751 382.197,32.1992 383.331,47.4769 384.466,77.3811 385.6,112.723 386.734,146.586 387.869,175.754 389.003,199.58 390.137,218.588 391.271,233.646 392.406,245.596 393.54,255.141 394.674,262.832 395.809,269.087 396.943,274.226 398.077,278.486 399.211,282.049 400.346,285.056 401.48,287.612 402.614,289.801 403.749,291.689 404.883,293.326 406.017,294.754 407.151,296.007 408.286,297.112 409.42,298.09 410.554,298.958 411.689,299.733 412.823,300.426 413.957,301.048 415.091,301.607 416.226,302.111 417.36,302.565 418.494,302.977 419.629,303.35 420.763,303.687 421.897,303.994 423.031,304.272 424.166,304.524 425.3,304.753 426.434,304.96 427.569,305.147 428.703,305.315 429.837,305.467 430.971,305.602 432.106,305.723 433.24,305.829 434.374,305.922 435.509,306.002 436.643,306.07 437.777,306.126 438.911,306.171 440.046,306.204 441.18,306.227 442.314,306.238 443.449,306.239 444.583,306.229 445.717,306.209 446.851,306.177 447.986,306.134 449.12,306.08 450.254,306.015 451.389,305.937 452.523,305.846 453.657,305.743 454.791,305.625 455.926,305.493 457.06,305.345 458.194,305.18 459.329,304.998 460.463,304.796 461.597,304.573 462.731,304.328 463.866,304.058 465,303.761 466,303.761 " />
</g>

<g fill="none" stroke="#000000" stroke-opacity="1" stroke-width="1" stroke-linecap="square" stroke-linejoin="bevel" transform="matrix(1,0,0,1,0,0)"
font-family="Noto Sans [MONO]" font-size="13.3333" font-weight="400" font-style="normal" 
>
</g>

<g fill="none" stroke="#000000" stroke-opacity="1" stroke-width="1" stroke-linecap="square" stroke-linejoin="bevel" transform="matrix(1,0,0,1,0,0)"
font-family="Noto Sans [MONO]" font-size="13.3333" font-weight="400" font-style="normal" 
>
</g>

<g fill="none" stroke="#000000" stroke-opacity="1" stroke-width="1" stroke-linecap="square" stroke-linejoin="bevel" transform="matrix(1,0,0,1,0,0)"
font-family="Noto Sans [MONO]" font-size="13.3333" font-weight="400" font-style="normal" 
>
</g>

<g fill="none" stroke="#ff0000" stroke-opacity="1" stroke-width="2" stroke-linecap="butt" stroke-linejoin="miter" stroke-miterlimit="2" transform="matrix(1,0,0,1,0,0)"
font-family="Noto Sans [MONO]" font-size="13.3333" font-weight="400" font-style="normal" 
>
<polyline fill="none" vector-effect="non-scaling-stroke" points="67,312.794 68,312.791 69.1343,312.788 70.2686,312.785 71.4029,312.782 72.5371,312.779 73.6714,312.776 74.8057,312.773 75.94,312.769 77.0743,312.766 78.2086,312.762 79.3429,312.759 80.4771,312.755 81.6114,312.751 82.7457,312.747 83.88,312.743 85.0143,312.739 86.1486,312.735 87.2829,312.731 88.4171,312.727 89.5514,312.722 90.6857,312.718 91.82,312.713 92.9543,312.709 94.0886,312.704 95.2229,312.699 96.3571,312.694 97.4914,312.688 98.6257,312.683 99.76,312.678 100.894,312.672 102.029,312.666 103.163,312.66 104.297,312.654 105.431,312.648 106.566,312.641 107.7,312.635 108.834,312.628 109.969,312.621 111.103,312.613 112.237,312.606 113.371,312.598 114.506,312.59 115.64,312.582 116.774,312.573 117.909,312.565 119.043,312.555 120.177,312.546 121.311,312.536 122.446,312.526 123.58,312.516 124.714,312.505 125.849,312.494 126.983,312.482 128.117,312.47 129.251,312.457 130.386,312.444 131.52,312.43 132.654,312.416 133.789,312.401 134.923,312.386 136.057,312.37 137.191,312.353 138.326,312.335 139.46,312.316 140.594,312.297 141.729,312.276 142.863,312.254 143.997,312.231 145.131,312.207 146.266,312.182 147.4,312.154 148.534,312.125 149.669,312.094 150.803,312.061 151.937,312.026 153.071,311.987 154.206,311.945 155.34,311.899 156.474,311.848 157.609,311.792 158.743,311.73 159.877,311.66 161.011,311.583 162.146,311.502 163.28,311.422 164.414,311.35 165.549,311.288 166.683,311.234 167.817,311.18 168.951,311.119 170.086,311.047 171.22,310.963 172.354,310.866 173.489,310.755 174.623,310.629 175.757,310.487 176.891,310.327 178.026,310.148 179.16,309.946 180.294,309.719 181.429,309.462 182.563,309.171 183.697,308.84 184.831,308.46 185.966,308.022 187.1,307.516 188.234,306.925 189.369,306.231 190.503,305.41 191.637,304.431 192.771,303.251 193.906,301.817 195.04,300.057 196.174,297.876 197.309,295.147 198.443,291.706 199.577,287.347 200.711,281.837 201.846,274.973 202.98,266.733 204.114,257.587 205.249,248.887 206.383,242.907 207.517,241.822 208.651,246.052 209.786,253.892 210.92,262.942 212.054,271.492 213.189,278.797 214.323,284.737 215.457,289.464 216.591,293.205 217.726,296.17 218.86,298.537 219.994,300.442 221.129,301.99 222.263,303.259 223.397,304.309 224.531,305.185 225.666,305.922 226.8,306.546 227.934,307.079 229.069,307.535 230.203,307.929 231.337,308.27 232.471,308.567 233.606,308.827 234.74,309.054 235.874,309.254 237.009,309.429 238.143,309.584 239.277,309.721 240.411,309.841 241.546,309.947 242.68,310.041 243.814,310.123 244.949,310.194 246.083,310.257 247.217,310.31 248.351,310.356 249.486,310.394 250.62,310.426 251.754,310.451 252.889,310.47 254.023,310.484 255.157,310.491 256.291,310.494 257.426,310.491 258.56,310.483 259.694,310.469 260.829,310.451 261.963,310.427 263.097,310.398 264.231,310.363 265.366,310.323 266.5,310.276 267.634,310.223 268.769,310.164 269.903,310.097 271.037,310.022 272.171,309.939 273.306,309.847 274.44,309.744 275.574,309.63 276.709,309.504 277.843,309.363 278.977,309.205 280.111,309.029 281.246,308.831 282.38,308.608 283.514,308.356 284.649,308.067 285.783,307.737 286.917,307.355 288.051,306.909 289.186,306.385 290.32,305.762 291.454,305.013 292.589,304.105 293.723,302.992 294.857,301.621 295.991,299.934 297.126,297.886 298.26,295.498 299.394,292.934 300.529,290.588 301.663,289.027 302.797,288.661 303.931,289.397 305.066,290.716 306.2,292.061 307.334,293.089 308.469,293.658 309.603,293.74 310.737,293.345 311.871,292.479 313.006,291.127 314.14,289.251 315.274,286.774 316.409,283.583 317.543,279.512 318.677,274.333 319.811,267.736 320.946,259.319 322.08,248.587 323.214,235.013 324.349,218.228 325.483,198.487 326.617,177.486 327.751,159.155 328.886,149.018 330.02,151.029 331.154,164.299 332.289,183.911 333.423,204.684 334.557,223.493 335.691,239.224 336.826,251.893 337.96,261.943 339.094,269.896 340.229,276.214 341.363,281.271 342.497,285.355 343.631,288.684 344.766,291.422 345.9,293.694 347.034,295.595 348.169,297.197 349.303,298.556 350.437,299.716 351.571,300.712 352.706,301.57 353.84,302.313 354.974,302.957 356.109,303.518 357.243,304.006 358.377,304.432 359.511,304.803 360.646,305.125 361.78,305.403 362.914,305.643 364.049,305.847 365.183,306.019 366.317,306.16 367.451,306.273 368.586,306.359 369.72,306.42 370.854,306.454 371.989,306.464 373.123,306.449 374.257,306.407 375.391,306.339 376.526,306.244 377.66,306.118 378.794,305.96 379.929,305.768 381.063,305.536 382.197,305.262 383.331,304.938 384.466,304.558 385.6,304.114 386.734,303.595 387.869,302.987 389.003,302.275 390.137,301.437 391.271,300.446 392.406,299.269 393.54,297.863 394.674,296.17 395.809,294.116 396.943,291.602 398.077,288.499 399.211,284.632 400.346,279.774 401.48,273.631 402.614,265.844 403.749,256.031 404.883,243.92 406.017,229.679 407.151,214.503 408.286,201.18 409.42,193.687 410.554,194.934 411.689,204.358 412.823,218.44 413.957,233.416 415.091,246.998 416.226,258.363 417.36,267.513 418.494,274.768 419.629,280.502 420.763,285.053 421.897,288.69 423.031,291.622 424.166,294.007 425.3,295.964 426.434,297.583 427.569,298.932 428.703,300.065 429.837,301.022 430.971,301.834 432.106,302.526 433.24,303.117 434.374,303.625 435.509,304.06 436.643,304.434 437.777,304.755 438.911,305.028 440.046,305.261 441.18,305.458 442.314,305.622 443.449,305.756 444.583,305.864 445.717,305.946 446.851,306.006 447.986,306.044 449.12,306.061 450.254,306.058 451.389,306.036 452.523,305.995 453.657,305.935 454.791,305.856 455.926,305.758 457.06,305.641 458.194,305.503 459.329,305.344 460.463,305.163 461.597,304.958 462.731,304.728 463.866,304.472 465,304.186 466,304.186 " />
</g>

<g fill="none" stroke="#000000" stroke-opacity="1" stroke-width="1" stroke-linecap="square" stroke-linejoin="bevel" transform="matrix(1,0,0,1,0,0)"
font-family="Noto Sans [MONO]" font-size="13.3333" font-weight="400" font-style="normal" 
>
</g>

<g fill="none" stroke="#000000" stroke-opacity="1" stroke-width="1" stroke-linecap="square" stroke-linejoin="bevel" transform="matrix(1,0,0,1,0,0)"
font-family="Noto Sans [MONO]" font-size="13.3333" font-weight="400" font-style="normal" 
>
</g>

<g fill="none" stroke="#000000" stroke-opacity="1" stroke-width="1" stroke-linecap="square" stroke-linejoin="bevel" transform="matrix(1,0,0,1,0,0)"
font-family="Noto Sans [MONO]" font-size="13.3333" font-weight="400" font-style="normal" 
>
</g>

<g fill="none" stroke="#00ff00" stroke-opacity="1" stroke-width="2" stroke-linecap="butt" stroke-linejoin="miter" stroke-miterlimit="2" transform="matrix(1,0,0,1,0,0)"
font-family="Noto Sans [MONO]" font-size="13.3333" font-weight="400" font-style="normal" 
>
<polyline fill="none" vector-effect="non-scaling-stroke" points="67,312.814 68,312.812 69.1343,312.81 70.2686,312.807 71.4029,312.805 72.5371,312.802 73.6714,312.8 74.8057,312.797 75.94,312.795 77.0743,312.792 78.2086,312.789 79.3429,312.786 80.4771,312.784 81.6114,312.781 82.7457,312.778 83.88,312.775 85.0143,312.772 86.1486,312.769 87.2829,312.766 88.4171,312.762 89.5514,312.759 90.6857,312.756 91.82,312.752 92.9543,312.749 94.0886,312.746 95.2229,312.742 96.3571,312.738 97.4914,312.735 98.6257,312.731 99.76,312.727 100.894,312.723 102.029,312.719 103.163,312.715 104.297,312.71 105.431,312.706 106.566,312.702 107.7,312.697 108.834,312.692 109.969,312.688 111.103,312.683 112.237,312.678 113.371,312.672 114.506,312.667 115.64,312.662 116.774,312.656 117.909,312.65 119.043,312.644 120.177,312.638 121.311,312.632 122.446,312.626 123.58,312.619 124.714,312.612 125.849,312.605 126.983,312.598 128.117,312.59 129.251,312.582 130.386,312.574 131.52,312.565 132.654,312.556 133.789,312.547 134.923,312.537 136.057,312.527 137.191,312.516 138.326,312.505 139.46,312.493 140.594,312.48 141.729,312.467 142.863,312.452 143.997,312.437 145.131,312.42 146.266,312.402 147.4,312.382 148.534,312.36 149.669,312.335 150.803,312.308 151.937,312.276 153.071,312.239 154.206,312.197 155.34,312.146 156.474,312.085 157.609,312.012 158.743,311.923 159.877,311.817 161.011,311.698 162.146,311.576 163.28,311.475 164.414,311.421 165.549,311.426 166.683,311.478 167.817,311.55 168.951,311.62 170.086,311.676 171.22,311.714 172.354,311.736 173.489,311.743 174.623,311.738 175.757,311.723 176.891,311.698 178.026,311.665 179.16,311.624 180.294,311.575 181.429,311.518 182.563,311.452 183.697,311.377 184.831,311.292 185.966,311.196 187.1,311.087 188.234,310.963 189.369,310.821 190.503,310.658 191.637,310.471 192.771,310.255 193.906,310.002 195.04,309.706 196.174,309.355 197.309,308.936 198.443,308.432 199.577,307.818 200.711,307.065 201.846,306.13 202.98,304.96 204.114,303.484 205.249,301.615 206.383,299.261 207.517,296.353 208.651,292.921 209.786,289.237 210.92,285.96 212.054,284.048 213.189,284.234 214.323,286.419 215.457,289.767 216.591,293.36 217.726,296.632 218.86,299.373 219.994,301.58 221.129,303.328 222.263,304.708 223.397,305.799 224.531,306.669 225.666,307.367 226.8,307.932 227.934,308.392 229.069,308.771 230.203,309.084 231.337,309.344 232.471,309.56 233.606,309.742 234.74,309.894 235.874,310.022 237.009,310.129 238.143,310.218 239.277,310.291 240.411,310.352 241.546,310.401 242.68,310.44 243.814,310.469 244.949,310.491 246.083,310.505 247.217,310.512 248.351,310.513 249.486,310.508 250.62,310.497 251.754,310.481 252.889,310.46 254.023,310.434 255.157,310.403 256.291,310.367 257.426,310.327 258.56,310.281 259.694,310.231 260.829,310.176 261.963,310.116 263.097,310.05 264.231,309.98 265.366,309.903 266.5,309.82 267.634,309.731 268.769,309.636 269.903,309.533 271.037,309.423 272.171,309.304 273.306,309.177 274.44,309.039 275.574,308.892 276.709,308.733 277.843,308.561 278.977,308.376 280.111,308.176 281.246,307.959 282.38,307.723 283.514,307.466 284.649,307.185 285.783,306.878 286.917,306.54 288.051,306.167 289.186,305.754 290.32,305.293 291.454,304.776 292.589,304.194 293.723,303.532 294.857,302.775 295.991,301.904 297.126,300.895 298.26,299.727 299.394,298.387 300.529,296.89 301.663,295.294 302.797,293.692 303.931,292.149 305.066,290.611 306.2,288.916 307.334,286.867 308.469,284.286 309.603,281.015 310.737,276.879 311.871,271.66 313.006,265.075 314.14,256.765 315.274,246.311 316.409,233.322 317.543,217.672 318.677,199.98 319.811,182.255 320.946,167.979 322.08,160.52 323.214,160.404 324.349,164.563 325.483,168.615 326.617,169.295 327.751,165.274 328.886,157.215 330.02,147.953 331.154,142.243 332.289,144.696 333.423,156.52 334.557,174.713 335.691,194.777 336.826,213.46 337.96,229.354 339.094,242.274 340.229,252.565 341.363,260.707 342.497,267.15 343.631,272.265 344.766,276.338 345.9,279.59 347.034,282.184 348.169,284.244 349.303,285.863 350.437,287.108 351.571,288.03 352.706,288.665 353.84,289.039 354.974,289.166 356.109,289.053 357.243,288.699 358.377,288.094 359.511,287.221 360.646,286.053 361.78,284.551 362.914,282.664 364.049,280.322 365.183,277.434 366.317,273.879 367.451,269.497 368.586,264.077 369.72,257.336 370.854,248.897 371.989,238.264 373.123,224.785 374.257,207.646 375.391,185.919 376.526,158.783 377.66,126.112 378.794,89.662 379.929,54.6141 381.063,29.8001 382.197,23.9831 383.331,39.4681 384.466,70.1505 385.6,106.578 386.734,141.569 387.869,171.754 389.003,196.429 390.137,216.125 391.271,231.732 392.406,244.121 393.54,254.018 394.674,261.994 395.809,268.485 396.943,273.818 398.077,278.242 399.211,281.946 400.346,285.074 401.48,287.736 402.614,290.018 403.749,291.989 404.883,293.701 406.017,295.199 407.151,296.515 408.286,297.678 409.42,298.711 410.554,299.633 411.689,300.458 412.823,301.199 413.957,301.867 415.091,302.472 416.226,303.021 417.36,303.52 418.494,303.976 419.629,304.392 420.763,304.774 421.897,305.125 423.031,305.448 424.166,305.746 425.3,306.021 426.434,306.276 427.569,306.512 428.703,306.73 429.837,306.933 430.971,307.122 432.106,307.298 433.24,307.461 434.374,307.613 435.509,307.755 436.643,307.887 437.777,308.01 438.911,308.125 440.046,308.232 441.18,308.331 442.314,308.424 443.449,308.509 444.583,308.589 445.717,308.663 446.851,308.731 447.986,308.793 449.12,308.851 450.254,308.904 451.389,308.951 452.523,308.994 453.657,309.033 454.791,309.067 455.926,309.097 457.06,309.122 458.194,309.143 459.329,309.16 460.463,309.172 461.597,309.181 462.731,309.185 463.866,309.184 465,309.18 466,309.18 " />
</g>

<g fill="none" stroke="#000000" stroke-opacity="1" stroke-width="1" stroke-linecap="square" stroke-linejoin="bevel" transform="matrix(1,0,0,1,0,0)"
font-family="Noto Sans [MONO]" font-size="13.3333" font-weight="400" font-style="normal" 
>
</g>

<g fill="none" stroke="#000000" stroke-opacity="1" stroke-width="1" stroke-linecap="square" stroke-linejoin="bevel" transform="matrix(1,0,0,1,0,0)"
font-family="Noto Sans [MONO]" font-size="13.3333" font-weight="400" font-style="normal" 
>
</g>

<g fill="none" stroke="#000000" stroke-opacity="1" stroke-width="1" stroke-linecap="square" stroke-linejoin="bevel" transform="matrix(1,0,0,1,0,0)"
font-family="Noto Sans [MONO]" font-size="13.3333" font-weight="400" font-style="normal" 
>
</g>

<g fill="none" stroke="#0000ff" stroke-opacity="1" stroke-width="2" stroke-linecap="butt" stroke-linejoin="miter" stroke-miterlimit="2" transform="matrix(1,0,0,1,0,0)"
font-family="Noto Sans [MONO]" font-size="13.3333" font-weight="400" font-style="normal" 
>
<polyline fill="none" vector-effect="non-scaling-stroke" points="67,312.765 68,312.761 69.1343,312.758 70.2686,312.755 71.4029,312.751 72.5371,312.748 73.6714,312.744 74.8057,312.74 75.94,312.737 77.0743,312.733 78.2086,312.729 79.3429,312.725 80.4771,312.721 81.6114,312.717 82.7457,312.712 83.88,312.708 85.0143,312.704 86.1486,312.699 87.2829,312.694 88.4171,312.69 89.5514,312.685 90.6857,312.68 91.82,312.675 92.9543,312.67 94.0886,312.664 95.2229,312.659 96.3571,312.653 97.4914,312.648 98.6257,312.642 99.76,312.636 100.894,312.63 102.029,312.623 103.163,312.617 104.297,312.61 105.431,312.603 106.566,312.596 107.7,312.589 108.834,312.581 109.969,312.574 111.103,312.566 112.237,312.558 113.371,312.549 114.506,312.541 115.64,312.532 116.774,312.522 117.909,312.513 119.043,312.503 120.177,312.493 121.311,312.482 122.446,312.471 123.58,312.46 124.714,312.448 125.849,312.436 126.983,312.424 128.117,312.41 129.251,312.397 130.386,312.382 131.52,312.368 132.654,312.352 133.789,312.336 134.923,312.319 136.057,312.301 137.191,312.282 138.326,312.262 139.46,312.241 140.594,312.219 141.729,312.196 142.863,312.171 143.997,312.144 145.131,312.116 146.266,312.085 147.4,312.052 148.534,312.016 149.669,311.976 150.803,311.933 151.937,311.885 153.071,311.83 154.206,311.768 155.34,311.697 156.474,311.615 157.609,311.518 158.743,311.404 159.877,311.271 161.011,311.123 162.146,310.97 163.28,310.835 164.414,310.744 165.549,310.709 166.683,310.717 167.817,310.742 168.951,310.76 170.086,310.759 171.22,310.735 172.354,310.688 173.489,310.62 174.623,310.531 175.757,310.423 176.891,310.294 178.026,310.145 179.16,309.974 180.294,309.778 181.429,309.555 182.563,309.3 183.697,309.009 184.831,308.675 185.966,308.291 187.1,307.846 188.234,307.329 189.369,306.724 190.503,306.01 191.637,305.161 192.771,304.144 193.906,302.914 195.04,301.411 196.174,299.559 197.309,297.251 198.443,294.353 199.577,290.688 200.711,286.047 201.846,280.21 202.98,273.046 204.114,264.719 205.249,256.049 206.383,248.796 207.517,245.256 208.651,246.824 209.786,252.809 210.92,261.054 212.054,269.517 213.189,277.056 214.323,283.311 215.457,288.328 216.591,292.302 217.726,295.446 218.86,297.945 219.994,299.946 221.129,301.563 222.263,302.881 223.397,303.966 224.531,304.865 225.666,305.618 226.8,306.251 227.934,306.788 229.069,307.246 230.203,307.639 231.337,307.977 232.471,308.268 233.606,308.522 234.74,308.741 235.874,308.933 237.009,309.099 238.143,309.244 239.277,309.37 240.411,309.48 241.546,309.575 242.68,309.656 243.814,309.726 244.949,309.784 246.083,309.833 247.217,309.873 248.351,309.904 249.486,309.927 250.62,309.943 251.754,309.952 252.889,309.955 254.023,309.95 255.157,309.94 256.291,309.923 257.426,309.9 258.56,309.871 259.694,309.836 260.829,309.795 261.963,309.747 263.097,309.692 264.231,309.631 265.366,309.563 266.5,309.487 267.634,309.404 268.769,309.312 269.903,309.21 271.037,309.099 272.171,308.978 273.306,308.844 274.44,308.698 275.574,308.537 276.709,308.361 277.843,308.166 278.977,307.952 280.111,307.714 281.246,307.451 282.38,307.157 283.514,306.827 284.649,306.456 285.783,306.036 286.917,305.556 288.051,305.004 289.186,304.365 290.32,303.616 291.454,302.73 292.589,301.673 293.723,300.397 294.857,298.847 295.991,296.962 297.126,294.693 298.26,292.044 299.394,289.156 300.529,286.386 301.663,284.265 302.797,283.193 303.931,283.087 305.066,283.427 306.2,283.626 307.334,283.284 308.469,282.183 309.603,280.196 310.737,277.202 311.871,273.038 313.006,267.467 314.14,260.175 315.274,250.789 316.409,238.967 317.543,224.647 318.677,208.55 319.811,192.843 320.946,181.245 322.08,177.422 323.214,182.191 324.349,192.726 325.483,204.854 326.617,215.434 327.751,222.905 328.886,226.748 330.02,226.927 331.154,223.668 332.289,217.606 333.423,210.219 334.557,204.157 335.691,202.595 336.826,207.292 337.96,217.192 339.094,229.473 340.229,241.591 341.363,252.2 342.497,260.926 343.631,267.887 344.766,273.365 345.9,277.651 347.034,280.996 348.169,283.595 349.303,285.597 350.437,287.114 351.571,288.227 352.706,288.994 353.84,289.457 354.974,289.642 356.109,289.565 357.243,289.23 358.377,288.632 359.511,287.758 360.646,286.583 361.78,285.07 362.914,283.169 364.049,280.812 365.183,277.908 366.317,274.337 367.451,269.94 368.586,264.505 369.72,257.752 370.854,249.303 371.989,238.663 373.123,225.18 374.257,208.043 375.391,186.325 376.526,159.205 377.66,126.557 378.794,90.1382 379.929,55.1241 381.063,30.3371 382.197,24.5272 383.331,39.9907 384.466,70.6258 385.6,106.992 386.734,141.919 387.869,172.045 389.003,196.669 390.137,216.321 391.271,231.891 392.406,244.248 393.54,254.118 394.674,262.071 395.809,268.54 396.943,273.854 398.077,278.26 399.211,281.947 400.346,285.059 401.48,287.707 402.614,289.975 403.749,291.932 404.883,293.632 406.017,295.116 407.151,296.42 408.286,297.572 409.42,298.593 410.554,299.502 411.689,300.316 412.823,301.045 413.957,301.702 415.091,302.295 416.226,302.832 417.36,303.32 418.494,303.763 419.629,304.168 420.763,304.538 421.897,304.877 423.031,305.187 424.166,305.472 425.3,305.735 426.434,305.976 427.569,306.198 428.703,306.403 429.837,306.592 430.971,306.766 432.106,306.926 433.24,307.074 434.374,307.21 435.509,307.335 436.643,307.45 437.777,307.555 438.911,307.651 440.046,307.738 441.18,307.818 442.314,307.889 443.449,307.953 444.583,308.01 445.717,308.059 446.851,308.102 447.986,308.138 449.12,308.168 450.254,308.191 451.389,308.208 452.523,308.219 453.657,308.223 454.791,308.221 455.926,308.212 457.06,308.196 458.194,308.174 459.329,308.145 460.463,308.108 461.597,308.064 462.731,308.012 463.866,307.951 465,307.882 466,307.882 " />
</g>

<g fill="none" stroke="#000000" stroke-opacity="1" stroke-width="1" stroke-linecap="square" stroke-linejoin="bevel" transform="matrix(1,0,0,1,0,0)"
font-family="Noto Sans [MONO]" font-size="13.3333" font-weight="400" font-style="normal" 
>
</g>

<g fill="none" stroke="#000000" stroke-opacity="1" stroke-width="1" stroke-linecap="square" stroke-linejoin="bevel" transform="matrix(1,0,0,1,0,0)"
font-family="Noto Sans [MONO]" font-size="13.3333" font-weight="400" font-style="normal" 
>
</g>

<g fill="none" stroke="#000000" stroke-opacity="1" stroke-width="1" stroke-linecap="square" stroke-linejoin="bevel" transform="matrix(1,0,0,1,0,0)"
font-family="Noto Sans [MONO]" font-size="13.3333" font-weight="400" font-style="normal" 
>
</g>

<g fill="none" stroke="#ff00ff" stroke-opacity="1" stroke-width="2" stroke-linecap="butt" stroke-linejoin="miter" stroke-miterlimit="2" transform="matrix(1,0,0,1,0,0)"
font-family="Noto Sans [MONO]" font-size="13.3333" font-weight="400" font-style="normal" 
>
<polyline fill="none" vector-effect="non-scaling-stroke" points="67,312.849 68,312.847 69.1343,312.845 70.2686,312.843 71.4029,312.841 72.5371,312.839 73.6714,312.837 74.8057,312.835 75.94,312.833 77.0743,312.83 78.2086,312.828 79.3429,312.826 80.4771,312.823 81.6114,312.821 82.7457,312.818 83.88,312.816 85.0143,312.813 86.1486,312.81 87.2829,312.808 88.4171,312.805 89.5514,312.802 90.6857,312.799 91.82,312.796 92.9543,312.793 94.0886,312.79 95.2229,312.787 96.3571,312.784 97.4914,312.781 98.6257,312.777 99.76,312.774 100.894,312.77 102.029,312.767 103.163,312.763 104.297,312.759 105.431,312.755 106.566,312.751 107.7,312.747 108.834,312.743 109.969,312.739 111.103,312.734 112.237,312.73 113.371,312.725 114.506,312.72 115.64,312.715 116.774,312.71 117.909,312.705 119.043,312.7 120.177,312.694 121.311,312.688 122.446,312.682 123.58,312.676 124.714,312.67 125.849,312.663 126.983,312.656 128.117,312.649 129.251,312.642 130.386,312.634 131.52,312.626 132.654,312.618 133.789,312.609 134.923,312.6 136.057,312.59 137.191,312.58 138.326,312.57 139.46,312.559 140.594,312.547 141.729,312.535 142.863,312.522 143.997,312.508 145.131,312.493 146.266,312.477 147.4,312.46 148.534,312.441 149.669,312.42 150.803,312.397 151.937,312.372 153.071,312.344 154.206,312.311 155.34,312.274 156.474,312.23 157.609,312.178 158.743,312.117 159.877,312.046 161.011,311.966 162.146,311.884 163.28,311.812 164.414,311.764 165.549,311.75 166.683,311.761 167.817,311.783 168.951,311.802 170.086,311.812 171.22,311.809 172.354,311.795 173.489,311.771 174.623,311.736 175.757,311.693 176.891,311.641 178.026,311.579 179.16,311.509 180.294,311.429 181.429,311.338 182.563,311.235 183.697,311.119 184.831,310.987 185.966,310.837 187.1,310.666 188.234,310.47 189.369,310.245 190.503,309.985 191.637,309.682 192.771,309.326 193.906,308.906 195.04,308.405 196.174,307.803 197.309,307.073 198.443,306.179 199.577,305.072 200.711,303.69 201.846,301.95 202.98,299.746 204.114,296.96 205.249,293.477 206.383,289.264 207.517,284.516 208.651,279.863 209.786,276.439 210.92,275.451 212.054,277.291 213.189,281.195 214.323,285.901 215.457,290.441 216.591,294.36 217.726,297.56 218.86,300.112 219.994,302.129 221.129,303.727 222.263,304.999 223.397,306.021 224.531,306.849 225.666,307.526 226.8,308.084 227.934,308.548 229.069,308.937 230.203,309.265 231.337,309.543 232.471,309.781 233.606,309.984 234.74,310.159 235.874,310.31 237.009,310.441 238.143,310.555 239.277,310.653 240.411,310.739 241.546,310.813 242.68,310.877 243.814,310.932 244.949,310.979 246.083,311.019 247.217,311.052 248.351,311.08 249.486,311.102 250.62,311.12 251.754,311.133 252.889,311.141 254.023,311.145 255.157,311.145 256.291,311.142 257.426,311.135 258.56,311.124 259.694,311.11 260.829,311.092 261.963,311.071 263.097,311.046 264.231,311.017 265.366,310.985 266.5,310.949 267.634,310.908 268.769,310.863 269.903,310.814 271.037,310.76 272.171,310.701 273.306,310.636 274.44,310.565 275.574,310.487 276.709,310.401 277.843,310.308 278.977,310.205 280.111,310.091 281.246,309.966 282.38,309.827 283.514,309.672 284.649,309.499 285.783,309.304 286.917,309.083 288.051,308.831 289.186,308.54 290.32,308.203 291.454,307.807 292.589,307.338 293.723,306.775 294.857,306.094 295.991,305.265 297.126,304.261 298.26,303.066 299.394,301.712 300.529,300.319 301.663,299.125 302.797,298.403 303.931,298.268 305.066,298.569 306.2,299.013 307.334,299.352 308.469,299.451 309.603,299.257 310.737,298.755 311.871,297.93 313.006,296.76 314.14,295.201 315.274,293.185 316.409,290.614 317.543,287.353 318.677,283.225 319.811,278.025 320.946,271.555 322.08,263.738 323.214,254.838 324.349,245.757 325.483,238.054 326.617,233.189 327.751,231.257 328.886,230.708 330.02,229.486 331.154,226.253 332.289,220.961 333.423,215.061 334.557,211.321 335.691,212.537 336.826,219.494 337.96,230.395 339.094,242.495 340.229,253.79 341.363,263.412 342.497,271.239 343.631,277.479 344.766,282.423 345.9,286.347 347.034,289.474 348.169,291.982 349.303,294.004 350.437,295.642 351.571,296.972 352.706,298.052 353.84,298.926 354.974,299.628 356.109,300.183 357.243,300.61 358.377,300.926 359.511,301.139 360.646,301.258 361.78,301.288 362.914,301.232 364.049,301.088 365.183,300.857 366.317,300.534 367.451,300.112 368.586,299.582 369.72,298.933 370.854,298.148 371.989,297.208 373.123,296.087 374.257,294.753 375.391,293.162 376.526,291.263 377.66,288.985 378.794,286.239 379.929,282.908 381.063,278.835 382.197,273.815 383.331,267.575 384.466,259.752 385.6,249.875 386.734,237.347 387.869,221.485 389.003,201.657 390.137,177.7 391.271,150.76 392.406,124.46 393.54,105.241 394.674,99.8401 395.809,110.428 396.943,132.722 398.077,159.629 399.211,185.64 400.346,208.134 401.48,226.534 402.614,241.218 403.749,252.845 404.883,262.064 406.017,269.422 407.151,275.344 408.286,280.157 409.42,284.107 410.554,287.379 411.689,290.114 412.823,292.42 413.957,294.378 415.091,296.054 416.226,297.497 417.36,298.749 418.494,299.84 419.629,300.797 420.763,301.639 421.897,302.385 423.031,303.047 424.166,303.638 425.3,304.166 426.434,304.641 427.569,305.068 428.703,305.453 429.837,305.802 430.971,306.118 432.106,306.406 433.24,306.667 434.374,306.905 435.509,307.121 436.643,307.319 437.777,307.5 438.911,307.664 440.046,307.814 441.18,307.951 442.314,308.076 443.449,308.189 444.583,308.291 445.717,308.384 446.851,308.467 447.986,308.541 449.12,308.607 450.254,308.665 451.389,308.716 452.523,308.759 453.657,308.795 454.791,308.824 455.926,308.846 457.06,308.861 458.194,308.87 459.329,308.872 460.463,308.867 461.597,308.856 462.731,308.837 463.866,308.811 465,308.778 466,308.778 " />
</g>

<g fill="none" stroke="#000000" stroke-opacity="1" stroke-width="1" stroke-linecap="square" stroke-linejoin="bevel" transform="matrix(1,0,0,1,0,0)"
font-family="Noto Sans [MONO]" font-size="13.3333" font-weight="400" font-style="normal" 
>
</g>

<g fill="none" stroke="#000000" stroke-opacity="1" stroke-width="1" stroke-linecap="square" stroke-linejoin="bevel" transform="matrix(1,0,0,1,0,0)"
font-family="Noto Sans [MONO]" font-size="13.3333" font-weight="400" font-style="normal" 
>
</g>

<g fill="none" stroke="#000000" stroke-opacity="1" stroke-width="1" stroke-linecap="square" stroke-linejoin="bevel" transform="matrix(1,0,0,1,0,0)"
font-family="Noto Sans [MONO]" font-size="13.3333" font-weight="400" font-style="normal" 
>
</g>

<g fill="none" stroke="#000000" stroke-opacity="1" stroke-width="1" stroke-linecap="square" stroke-linejoin="miter" stroke-miterlimit="2" transform="matrix(1,0,0,1,0,0)"
font-family="Noto Sans [MONO]" font-size="13.3333" font-weight="400" font-style="normal" 
>
<path vector-effect="none" fill-rule="evenodd" d="M67,15 L466,15 L466,314 L67,314 L67,15"/>
</g>

<g fill="none" stroke="#000000" stroke-opacity="1" stroke-width="1" stroke-linecap="square" stroke-linejoin="bevel" transform="matrix(1,0,0,1,0,0)"
font-family="Noto Sans [MONO]" font-size="13.3333" font-weight="400" font-style="normal" 
>
</g>

<g fill="none" stroke="#212121" stroke-opacity="1" stroke-width="1" stroke-linecap="square" stroke-linejoin="bevel" transform="matrix(0,-1,1,0,5,324)"
font-family="Noto Sans UI" font-size="16" font-weight="400" font-style="italic" 
>
</g>

<g fill="none" stroke="#000000" stroke-opacity="1" stroke-width="1" stroke-linecap="square" stroke-linejoin="bevel" transform="matrix(0,-1,1,0,5,324)"
font-family="Noto Sans UI" font-size="18.6667" font-weight="700" font-style="normal" 
>
<text fill="#000000" fill-opacity="1" stroke="none" xml:space="preserve" x="23" y="20" font-family="Noto Sans UI" font-size="18.6667" font-weight="700" font-style="normal" 
 >Molar absorption (L/mol/cm)</text>
</g>

<g fill="none" stroke="#212121" stroke-opacity="1" stroke-width="1" stroke-linecap="square" stroke-linejoin="bevel" transform="matrix(0,-1,1,0,5,324)"
font-family="Noto Sans UI" font-size="16" font-weight="400" font-style="italic" 
>
</g>

<g fill="none" stroke="#000000" stroke-opacity="1" stroke-width="1" stroke-linecap="square" stroke-linejoin="bevel" transform="matrix(1,0,0,1,0,0)"
font-family="Noto Sans [MONO]" font-size="13.3333" font-weight="400" font-style="normal" 
>
</g>

<g fill="none" stroke="#000000" stroke-opacity="1" stroke-width="1" stroke-linecap="square" stroke-linejoin="bevel" transform="matrix(1,0,0,1,0,0)"
font-family="Noto Sans UI" font-size="16" font-weight="400" font-style="italic" 
>
</g>

<g fill="none" stroke="#000000" stroke-opacity="1" stroke-width="1" stroke-linecap="square" stroke-linejoin="bevel" transform="matrix(1,0,0,1,0,0)"
font-family="Noto Sans UI" font-size="16" font-weight="400" font-style="italic" 
>
</g>

<g fill="none" stroke="#212121" stroke-opacity="1" stroke-width="1" stroke-linecap="square" stroke-linejoin="bevel" transform="matrix(1,0,0,1,0,0)"
font-family="Noto Sans UI" font-size="16" font-weight="400" font-style="italic" 
>
</g>

<g fill="none" stroke="#212121" stroke-opacity="1" stroke-width="1" stroke-linecap="square" stroke-linejoin="bevel" transform="matrix(1,0,0,1,52,301)"
font-family="Noto Sans UI" font-size="16" font-weight="400" font-style="italic" 
>
<text fill="#212121" fill-opacity="1" stroke="none" xml:space="preserve" x="0" y="18" font-family="Noto Sans UI" font-size="16" font-weight="400" font-style="italic" 
 >0</text>
</g>

<g fill="none" stroke="#212121" stroke-opacity="1" stroke-width="1" stroke-linecap="square" stroke-linejoin="bevel" transform="matrix(1,0,0,1,52,301)"
font-family="Noto Sans UI" font-size="16" font-weight="400" font-style="italic" 
>
</g>

<g fill="none" stroke="#212121" stroke-opacity="1" stroke-width="1" stroke-linecap="square" stroke-linejoin="bevel" transform="matrix(1,0,0,1,0,0)"
font-family="Noto Sans UI" font-size="16" font-weight="400" font-style="italic" 
>
</g>

<g fill="none" stroke="#212121" stroke-opacity="1" stroke-width="1" stroke-linecap="square" stroke-linejoin="bevel" transform="matrix(1,0,0,1,43,227)"
font-family="Noto Sans UI" font-size="16" font-weight="400" font-style="italic" 
>
<text fill="#212121" fill-opacity="1" stroke="none" xml:space="preserve" x="0" y="18" font-family="Noto Sans UI" font-size="16" font-weight="400" font-style="italic" 
 >50</text>
</g>

<g fill="none" stroke="#212121" stroke-opacity="1" stroke-width="1" stroke-linecap="square" stroke-linejoin="bevel" transform="matrix(1,0,0,1,43,227)"
font-family="Noto Sans UI" font-size="16" font-weight="400" font-style="italic" 
>
</g>

<g fill="none" stroke="#212121" stroke-opacity="1" stroke-width="1" stroke-linecap="square" stroke-linejoin="bevel" transform="matrix(1,0,0,1,0,0)"
font-family="Noto Sans UI" font-size="16" font-weight="400" font-style="italic" 
>
</g>

<g fill="none" stroke="#212121" stroke-opacity="1" stroke-width="1" stroke-linecap="square" stroke-linejoin="bevel" transform="matrix(1,0,0,1,34,153)"
font-family="Noto Sans UI" font-size="16" font-weight="400" font-style="italic" 
>
<text fill="#212121" fill-opacity="1" stroke="none" xml:space="preserve" x="0" y="18" font-family="Noto Sans UI" font-size="16" font-weight="400" font-style="italic" 
 >100</text>
</g>

<g fill="none" stroke="#212121" stroke-opacity="1" stroke-width="1" stroke-linecap="square" stroke-linejoin="bevel" transform="matrix(1,0,0,1,34,153)"
font-family="Noto Sans UI" font-size="16" font-weight="400" font-style="italic" 
>
</g>

<g fill="none" stroke="#212121" stroke-opacity="1" stroke-width="1" stroke-linecap="square" stroke-linejoin="bevel" transform="matrix(1,0,0,1,0,0)"
font-family="Noto Sans UI" font-size="16" font-weight="400" font-style="italic" 
>
</g>

<g fill="none" stroke="#212121" stroke-opacity="1" stroke-width="1" stroke-linecap="square" stroke-linejoin="bevel" transform="matrix(1,0,0,1,34,78)"
font-family="Noto Sans UI" font-size="16" font-weight="400" font-style="italic" 
>
<text fill="#212121" fill-opacity="1" stroke="none" xml:space="preserve" x="0" y="18" font-family="Noto Sans UI" font-size="16" font-weight="400" font-style="italic" 
 >150</text>
</g>

<g fill="none" stroke="#212121" stroke-opacity="1" stroke-width="1" stroke-linecap="square" stroke-linejoin="bevel" transform="matrix(1,0,0,1,34,78)"
font-family="Noto Sans UI" font-size="16" font-weight="400" font-style="italic" 
>
</g>

<g fill="none" stroke="#212121" stroke-opacity="1" stroke-width="1" stroke-linecap="square" stroke-linejoin="bevel" transform="matrix(1,0,0,1,0,0)"
font-family="Noto Sans UI" font-size="16" font-weight="400" font-style="italic" 
>
</g>

<g fill="none" stroke="#212121" stroke-opacity="1" stroke-width="1" stroke-linecap="square" stroke-linejoin="bevel" transform="matrix(1,0,0,1,34,4)"
font-family="Noto Sans UI" font-size="16" font-weight="400" font-style="italic" 
>
<text fill="#212121" fill-opacity="1" stroke="none" xml:space="preserve" x="0" y="18" font-family="Noto Sans UI" font-size="16" font-weight="400" font-style="italic" 
 >200</text>
</g>

<g fill="none" stroke="#212121" stroke-opacity="1" stroke-width="1" stroke-linecap="square" stroke-linejoin="bevel" transform="matrix(1,0,0,1,34,4)"
font-family="Noto Sans UI" font-size="16" font-weight="400" font-style="italic" 
>
</g>

<g fill="none" stroke="#212121" stroke-opacity="1" stroke-width="1" stroke-linecap="square" stroke-linejoin="bevel" transform="matrix(1,0,0,1,0,0)"
font-family="Noto Sans UI" font-size="16" font-weight="400" font-style="italic" 
>
</g>

<g fill="none" stroke="#000000" stroke-opacity="1" stroke-width="1" stroke-linecap="square" stroke-linejoin="bevel" transform="matrix(1,0,0,1,0,0)"
font-family="Noto Sans UI" font-size="16" font-weight="400" font-style="italic" 
>
<polyline fill="none" vector-effect="non-scaling-stroke" points="67,239 68,239 " />
<polyline fill="none" vector-effect="non-scaling-stroke" points="67,165 68,165 " />
<polyline fill="none" vector-effect="non-scaling-stroke" points="67,90 68,90 " />
</g>

<g fill="none" stroke="#000000" stroke-opacity="1" stroke-width="1" stroke-linecap="square" stroke-linejoin="bevel" transform="matrix(1,0,0,1,0,0)"
font-family="Noto Sans UI" font-size="16" font-weight="400" font-style="italic" 
>
<polyline fill="none" vector-effect="non-scaling-stroke" points="67,16 67,313 " />
</g>

<g fill="none" stroke="#000000" stroke-opacity="1" stroke-width="1" stroke-linecap="square" stroke-linejoin="bevel" transform="matrix(1,0,0,1,0,0)"
font-family="Noto Sans UI" font-size="16" font-weight="400" font-style="italic" 
>
<polyline fill="none" vector-effect="non-scaling-stroke" points="67,239 76,239 " />
<polyline fill="none" vector-effect="non-scaling-stroke" points="67,165 76,165 " />
<polyline fill="none" vector-effect="non-scaling-stroke" points="67,90 76,90 " />
<polyline fill="none" vector-effect="non-scaling-stroke" points="67,301 72,301 " />
<polyline fill="none" vector-effect="non-scaling-stroke" points="67,288 72,288 " />
<polyline fill="none" vector-effect="non-scaling-stroke" points="67,264 72,264 " />
<polyline fill="none" vector-effect="non-scaling-stroke" points="67,251 72,251 " />
<polyline fill="none" vector-effect="non-scaling-stroke" points="67,226 72,226 " />
<polyline fill="none" vector-effect="non-scaling-stroke" points="67,214 72,214 " />
<polyline fill="none" vector-effect="non-scaling-stroke" points="67,189 72,189 " />
<polyline fill="none" vector-effect="non-scaling-stroke" points="67,177 72,177 " />
<polyline fill="none" vector-effect="non-scaling-stroke" points="67,152 72,152 " />
<polyline fill="none" vector-effect="non-scaling-stroke" points="67,140 72,140 " />
<polyline fill="none" vector-effect="non-scaling-stroke" points="67,115 72,115 " />
<polyline fill="none" vector-effect="non-scaling-stroke" points="67,103 72,103 " />
<polyline fill="none" vector-effect="non-scaling-stroke" points="67,78 72,78 " />
<polyline fill="none" vector-effect="non-scaling-stroke" points="67,66 72,66 " />
<polyline fill="none" vector-effect="non-scaling-stroke" points="67,41 72,41 " />
<polyline fill="none" vector-effect="non-scaling-stroke" points="67,28 72,28 " />
<polyline fill="none" vector-effect="non-scaling-stroke" points="67,276 72,276 " />
<polyline fill="none" vector-effect="non-scaling-stroke" points="67,202 72,202 " />
<polyline fill="none" vector-effect="non-scaling-stroke" points="67,127 72,127 " />
<polyline fill="none" vector-effect="non-scaling-stroke" points="67,53 72,53 " />
</g>

<g fill="none" stroke="#000000" stroke-opacity="1" stroke-width="1" stroke-linecap="square" stroke-linejoin="bevel" transform="matrix(1,0,0,1,0,0)"
font-family="Noto Sans UI" font-size="16" font-weight="400" font-style="italic" 
>
</g>

<g fill="none" stroke="#000000" stroke-opacity="1" stroke-width="1" stroke-linecap="square" stroke-linejoin="bevel" transform="matrix(1,0,0,1,0,0)"
font-family="Noto Sans [MONO]" font-size="13.3333" font-weight="400" font-style="normal" 
>
</g>

<g fill="none" stroke="#212121" stroke-opacity="1" stroke-width="1" stroke-linecap="square" stroke-linejoin="bevel" transform="matrix(1,0,0,1,59,345)"
font-family="Noto Sans UI" font-size="16" font-weight="400" font-style="italic" 
>
</g>

<g fill="none" stroke="#000000" stroke-opacity="1" stroke-width="1" stroke-linecap="square" stroke-linejoin="bevel" transform="matrix(1,0,0,1,59,345)"
font-family="Noto Sans UI" font-size="18.6667" font-weight="700" font-style="normal" 
>
</g>

<g fill="none" stroke="#000000" stroke-opacity="1" stroke-width="1" stroke-linecap="square" stroke-linejoin="bevel" transform="matrix(1,0,0,1,59,346)"
font-family="Noto Sans UI" font-size="18.6667" font-weight="700" font-style="normal" 
>
<text fill="#000000" fill-opacity="1" stroke="none" xml:space="preserve" x="118.5" y="20" font-family="Noto Sans UI" font-size="18.6667" font-weight="700" font-style="normal" 
 >Wavenumber (cm</text>
<text fill="#000000" fill-opacity="1" stroke="none" xml:space="preserve" x="284.5" y="12" font-family="Noto Sans UI" font-size="12" font-weight="700" font-style="normal" 
 >-1</text>
<text fill="#000000" fill-opacity="1" stroke="none" xml:space="preserve" x="295.5" y="20" font-family="Noto Sans UI" font-size="18.6667" font-weight="700" font-style="normal" 
 >)</text>
</g>

<g fill="none" stroke="#000000" stroke-opacity="1" stroke-width="1" stroke-linecap="square" stroke-linejoin="bevel" transform="matrix(1,0,0,1,59,345)"
font-family="Noto Sans UI" font-size="18.6667" font-weight="700" font-style="normal" 
>
</g>

<g fill="none" stroke="#212121" stroke-opacity="1" stroke-width="1" stroke-linecap="square" stroke-linejoin="bevel" transform="matrix(1,0,0,1,59,345)"
font-family="Noto Sans UI" font-size="16" font-weight="400" font-style="italic" 
>
</g>

<g fill="none" stroke="#000000" stroke-opacity="1" stroke-width="1" stroke-linecap="square" stroke-linejoin="bevel" transform="matrix(1,0,0,1,0,0)"
font-family="Noto Sans [MONO]" font-size="13.3333" font-weight="400" font-style="normal" 
>
</g>

<g fill="none" stroke="#000000" stroke-opacity="1" stroke-width="1" stroke-linecap="square" stroke-linejoin="bevel" transform="matrix(1,0,0,1,0,0)"
font-family="Noto Sans UI" font-size="16" font-weight="400" font-style="italic" 
>
</g>

<g fill="none" stroke="#000000" stroke-opacity="1" stroke-width="1" stroke-linecap="square" stroke-linejoin="bevel" transform="matrix(1,0,0,1,0,0)"
font-family="Noto Sans UI" font-size="16" font-weight="400" font-style="italic" 
>
</g>

<g fill="none" stroke="#212121" stroke-opacity="1" stroke-width="1" stroke-linecap="square" stroke-linejoin="bevel" transform="matrix(1,0,0,1,0,0)"
font-family="Noto Sans UI" font-size="16" font-weight="400" font-style="italic" 
>
</g>

<g fill="none" stroke="#212121" stroke-opacity="1" stroke-width="1" stroke-linecap="square" stroke-linejoin="bevel" transform="matrix(1,0,0,1,59,320)"
font-family="Noto Sans UI" font-size="16" font-weight="400" font-style="italic" 
>
<text fill="#212121" fill-opacity="1" stroke="none" xml:space="preserve" x="0" y="18" font-family="Noto Sans UI" font-size="16" font-weight="400" font-style="italic" 
 >60</text>
</g>

<g fill="none" stroke="#212121" stroke-opacity="1" stroke-width="1" stroke-linecap="square" stroke-linejoin="bevel" transform="matrix(1,0,0,1,59,320)"
font-family="Noto Sans UI" font-size="16" font-weight="400" font-style="italic" 
>
</g>

<g fill="none" stroke="#212121" stroke-opacity="1" stroke-width="1" stroke-linecap="square" stroke-linejoin="bevel" transform="matrix(1,0,0,1,0,0)"
font-family="Noto Sans UI" font-size="16" font-weight="400" font-style="italic" 
>
</g>

<g fill="none" stroke="#212121" stroke-opacity="1" stroke-width="1" stroke-linecap="square" stroke-linejoin="bevel" transform="matrix(1,0,0,1,116,320)"
font-family="Noto Sans UI" font-size="16" font-weight="400" font-style="italic" 
>
<text fill="#212121" fill-opacity="1" stroke="none" xml:space="preserve" x="0" y="18" font-family="Noto Sans UI" font-size="16" font-weight="400" font-style="italic" 
 >70</text>
</g>

<g fill="none" stroke="#212121" stroke-opacity="1" stroke-width="1" stroke-linecap="square" stroke-linejoin="bevel" transform="matrix(1,0,0,1,116,320)"
font-family="Noto Sans UI" font-size="16" font-weight="400" font-style="italic" 
>
</g>

<g fill="none" stroke="#212121" stroke-opacity="1" stroke-width="1" stroke-linecap="square" stroke-linejoin="bevel" transform="matrix(1,0,0,1,0,0)"
font-family="Noto Sans UI" font-size="16" font-weight="400" font-style="italic" 
>
</g>

<g fill="none" stroke="#212121" stroke-opacity="1" stroke-width="1" stroke-linecap="square" stroke-linejoin="bevel" transform="matrix(1,0,0,1,172,320)"
font-family="Noto Sans UI" font-size="16" font-weight="400" font-style="italic" 
>
<text fill="#212121" fill-opacity="1" stroke="none" xml:space="preserve" x="0" y="18" font-family="Noto Sans UI" font-size="16" font-weight="400" font-style="italic" 
 >80</text>
</g>

<g fill="none" stroke="#212121" stroke-opacity="1" stroke-width="1" stroke-linecap="square" stroke-linejoin="bevel" transform="matrix(1,0,0,1,172,320)"
font-family="Noto Sans UI" font-size="16" font-weight="400" font-style="italic" 
>
</g>

<g fill="none" stroke="#212121" stroke-opacity="1" stroke-width="1" stroke-linecap="square" stroke-linejoin="bevel" transform="matrix(1,0,0,1,0,0)"
font-family="Noto Sans UI" font-size="16" font-weight="400" font-style="italic" 
>
</g>

<g fill="none" stroke="#212121" stroke-opacity="1" stroke-width="1" stroke-linecap="square" stroke-linejoin="bevel" transform="matrix(1,0,0,1,229,320)"
font-family="Noto Sans UI" font-size="16" font-weight="400" font-style="italic" 
>
<text fill="#212121" fill-opacity="1" stroke="none" xml:space="preserve" x="0" y="18" font-family="Noto Sans UI" font-size="16" font-weight="400" font-style="italic" 
 >90</text>
</g>

<g fill="none" stroke="#212121" stroke-opacity="1" stroke-width="1" stroke-linecap="square" stroke-linejoin="bevel" transform="matrix(1,0,0,1,229,320)"
font-family="Noto Sans UI" font-size="16" font-weight="400" font-style="italic" 
>
</g>

<g fill="none" stroke="#212121" stroke-opacity="1" stroke-width="1" stroke-linecap="square" stroke-linejoin="bevel" transform="matrix(1,0,0,1,0,0)"
font-family="Noto Sans UI" font-size="16" font-weight="400" font-style="italic" 
>
</g>

<g fill="none" stroke="#212121" stroke-opacity="1" stroke-width="1" stroke-linecap="square" stroke-linejoin="bevel" transform="matrix(1,0,0,1,281,320)"
font-family="Noto Sans UI" font-size="16" font-weight="400" font-style="italic" 
>
<text fill="#212121" fill-opacity="1" stroke="none" xml:space="preserve" x="0" y="18" font-family="Noto Sans UI" font-size="16" font-weight="400" font-style="italic" 
 >100</text>
</g>

<g fill="none" stroke="#212121" stroke-opacity="1" stroke-width="1" stroke-linecap="square" stroke-linejoin="bevel" transform="matrix(1,0,0,1,281,320)"
font-family="Noto Sans UI" font-size="16" font-weight="400" font-style="italic" 
>
</g>

<g fill="none" stroke="#212121" stroke-opacity="1" stroke-width="1" stroke-linecap="square" stroke-linejoin="bevel" transform="matrix(1,0,0,1,0,0)"
font-family="Noto Sans UI" font-size="16" font-weight="400" font-style="italic" 
>
</g>

<g fill="none" stroke="#212121" stroke-opacity="1" stroke-width="1" stroke-linecap="square" stroke-linejoin="bevel" transform="matrix(1,0,0,1,338,320)"
font-family="Noto Sans UI" font-size="16" font-weight="400" font-style="italic" 
>
<text fill="#212121" fill-opacity="1" stroke="none" xml:space="preserve" x="0" y="18" font-family="Noto Sans UI" font-size="16" font-weight="400" font-style="italic" 
 >110</text>
</g>

<g fill="none" stroke="#212121" stroke-opacity="1" stroke-width="1" stroke-linecap="square" stroke-linejoin="bevel" transform="matrix(1,0,0,1,338,320)"
font-family="Noto Sans UI" font-size="16" font-weight="400" font-style="italic" 
>
</g>

<g fill="none" stroke="#212121" stroke-opacity="1" stroke-width="1" stroke-linecap="square" stroke-linejoin="bevel" transform="matrix(1,0,0,1,0,0)"
font-family="Noto Sans UI" font-size="16" font-weight="400" font-style="italic" 
>
</g>

<g fill="none" stroke="#212121" stroke-opacity="1" stroke-width="1" stroke-linecap="square" stroke-linejoin="bevel" transform="matrix(1,0,0,1,394,320)"
font-family="Noto Sans UI" font-size="16" font-weight="400" font-style="italic" 
>
<text fill="#212121" fill-opacity="1" stroke="none" xml:space="preserve" x="0" y="18" font-family="Noto Sans UI" font-size="16" font-weight="400" font-style="italic" 
 >120</text>
</g>

<g fill="none" stroke="#212121" stroke-opacity="1" stroke-width="1" stroke-linecap="square" stroke-linejoin="bevel" transform="matrix(1,0,0,1,394,320)"
font-family="Noto Sans UI" font-size="16" font-weight="400" font-style="italic" 
>
</g>

<g fill="none" stroke="#212121" stroke-opacity="1" stroke-width="1" stroke-linecap="square" stroke-linejoin="bevel" transform="matrix(1,0,0,1,0,0)"
font-family="Noto Sans UI" font-size="16" font-weight="400" font-style="italic" 
>
</g>

<g fill="none" stroke="#212121" stroke-opacity="1" stroke-width="1" stroke-linecap="square" stroke-linejoin="bevel" transform="matrix(1,0,0,1,451,320)"
font-family="Noto Sans UI" font-size="16" font-weight="400" font-style="italic" 
>
<text fill="#212121" fill-opacity="1" stroke="none" xml:space="preserve" x="0" y="18" font-family="Noto Sans UI" font-size="16" font-weight="400" font-style="italic" 
 >130</text>
</g>

<g fill="none" stroke="#212121" stroke-opacity="1" stroke-width="1" stroke-linecap="square" stroke-linejoin="bevel" transform="matrix(1,0,0,1,451,320)"
font-family="Noto Sans UI" font-size="16" font-weight="400" font-style="italic" 
>
</g>

<g fill="none" stroke="#212121" stroke-opacity="1" stroke-width="1" stroke-linecap="square" stroke-linejoin="bevel" transform="matrix(1,0,0,1,0,0)"
font-family="Noto Sans UI" font-size="16" font-weight="400" font-style="italic" 
>
</g>

<g fill="none" stroke="#000000" stroke-opacity="1" stroke-width="1" stroke-linecap="square" stroke-linejoin="bevel" transform="matrix(1,0,0,1,0,0)"
font-family="Noto Sans UI" font-size="16" font-weight="400" font-style="italic" 
>
<polyline fill="none" vector-effect="non-scaling-stroke" points="125,314 125,313 " />
<polyline fill="none" vector-effect="non-scaling-stroke" points="181,314 181,313 " />
<polyline fill="none" vector-effect="non-scaling-stroke" points="238,314 238,313 " />
<polyline fill="none" vector-effect="non-scaling-stroke" points="295,314 295,313 " />
<polyline fill="none" vector-effect="non-scaling-stroke" points="352,314 352,313 " />
<polyline fill="none" vector-effect="non-scaling-stroke" points="408,314 408,313 " />
</g>

<g fill="none" stroke="#000000" stroke-opacity="1" stroke-width="1" stroke-linecap="square" stroke-linejoin="bevel" transform="matrix(1,0,0,1,0,0)"
font-family="Noto Sans UI" font-size="16" font-weight="400" font-style="italic" 
>
<polyline fill="none" vector-effect="non-scaling-stroke" points="68,314 465,314 " />
</g>

<g fill="none" stroke="#000000" stroke-opacity="1" stroke-width="1" stroke-linecap="square" stroke-linejoin="bevel" transform="matrix(1,0,0,1,0,0)"
font-family="Noto Sans UI" font-size="16" font-weight="400" font-style="italic" 
>
<polyline fill="none" vector-effect="non-scaling-stroke" points="125,314 125,305 " />
<polyline fill="none" vector-effect="non-scaling-stroke" points="181,314 181,305 " />
<polyline fill="none" vector-effect="non-scaling-stroke" points="238,314 238,305 " />
<polyline fill="none" vector-effect="non-scaling-stroke" points="295,314 295,305 " />
<polyline fill="none" vector-effect="non-scaling-stroke" points="352,314 352,305 " />
<polyline fill="none" vector-effect="non-scaling-stroke" points="408,314 408,305 " />
<polyline fill="none" vector-effect="non-scaling-stroke" points="77,314 77,309 " />
<polyline fill="none" vector-effect="non-scaling-stroke" points="87,314 87,309 " />
<polyline fill="none" vector-effect="non-scaling-stroke" points="106,314 106,309 " />
<polyline fill="none" vector-effect="non-scaling-stroke" points="115,314 115,309 " />
<polyline fill="none" vector-effect="non-scaling-stroke" points="134,314 134,309 " />
<polyline fill="none" vector-effect="non-scaling-stroke" points="144,314 144,309 " />
<polyline fill="none" vector-effect="non-scaling-stroke" points="163,314 163,309 " />
<polyline fill="none" vector-effect="non-scaling-stroke" points="172,314 172,309 " />
<polyline fill="none" vector-effect="non-scaling-stroke" points="191,314 191,309 " />
<polyline fill="none" vector-effect="non-scaling-stroke" points="200,314 200,309 " />
<polyline fill="none" vector-effect="non-scaling-stroke" points="219,314 219,309 " />
<polyline fill="none" vector-effect="non-scaling-stroke" points="229,314 229,309 " />
<polyline fill="none" vector-effect="non-scaling-stroke" points="248,314 248,309 " />
<polyline fill="none" vector-effect="non-scaling-stroke" points="257,314 257,309 " />
<polyline fill="none" vector-effect="non-scaling-stroke" points="276,314 276,309 " />
<polyline fill="none" vector-effect="non-scaling-stroke" points="285,314 285,309 " />
<polyline fill="none" vector-effect="non-scaling-stroke" points="304,314 304,309 " />
<polyline fill="none" vector-effect="non-scaling-stroke" points="314,314 314,309 " />
<polyline fill="none" vector-effect="non-scaling-stroke" points="333,314 333,309 " />
<polyline fill="none" vector-effect="non-scaling-stroke" points="342,314 342,309 " />
<polyline fill="none" vector-effect="non-scaling-stroke" points="361,314 361,309 " />
<polyline fill="none" vector-effect="non-scaling-stroke" points="370,314 370,309 " />
<polyline fill="none" vector-effect="non-scaling-stroke" points="389,314 389,309 " />
<polyline fill="none" vector-effect="non-scaling-stroke" points="399,314 399,309 " />
<polyline fill="none" vector-effect="non-scaling-stroke" points="418,314 418,309 " />
<polyline fill="none" vector-effect="non-scaling-stroke" points="427,314 427,309 " />
<polyline fill="none" vector-effect="non-scaling-stroke" points="446,314 446,309 " />
<polyline fill="none" vector-effect="non-scaling-stroke" points="456,314 456,309 " />
<polyline fill="none" vector-effect="non-scaling-stroke" points="96,314 96,309 " />
<polyline fill="none" vector-effect="non-scaling-stroke" points="153,314 153,309 " />
<polyline fill="none" vector-effect="non-scaling-stroke" points="210,314 210,309 " />
<polyline fill="none" vector-effect="non-scaling-stroke" points="266,314 266,309 " />
<polyline fill="none" vector-effect="non-scaling-stroke" points="323,314 323,309 " />
<polyline fill="none" vector-effect="non-scaling-stroke" points="380,314 380,309 " />
<polyline fill="none" vector-effect="non-scaling-stroke" points="437,314 437,309 " />
</g>

<g fill="none" stroke="#000000" stroke-opacity="1" stroke-width="1" stroke-linecap="square" stroke-linejoin="bevel" transform="matrix(1,0,0,1,0,0)"
font-family="Noto Sans UI" font-size="16" font-weight="400" font-style="italic" 
>
</g>

<g fill="none" stroke="#000000" stroke-opacity="1" stroke-width="1" stroke-linecap="square" stroke-linejoin="bevel" transform="matrix(1,0,0,1,0,0)"
font-family="Noto Sans [MONO]" font-size="13.3333" font-weight="400" font-style="normal" 
>
</g>

<g fill="none" stroke="#000000" stroke-opacity="1" stroke-width="1" stroke-linecap="square" stroke-linejoin="bevel" transform="matrix(1,0,0,1,0,0)"
font-family="Noto Sans [MONO]" font-size="13.3333" font-weight="400" font-style="normal" 
>
</g>

<g fill="none" stroke="#000000" stroke-opacity="1" stroke-width="1" stroke-linecap="square" stroke-linejoin="bevel" transform="matrix(1,0,0,1,106,40)"
font-family="Noto Sans [MONO]" font-size="13.3333" font-weight="400" font-style="normal" 
>
</g>

<g fill="none" stroke="#000000" stroke-opacity="1" stroke-width="1" stroke-linecap="square" stroke-linejoin="bevel" transform="matrix(1,0,0,1,106,40)"
font-family="Noto Sans [MONO]" font-size="13.3333" font-weight="400" font-style="normal" 
>
</g>

<g fill="none" stroke="#000000" stroke-opacity="1" stroke-width="4" stroke-linecap="butt" stroke-linejoin="miter" stroke-miterlimit="2" transform="matrix(1,0,0,1,106,40)"
font-family="Noto Sans [MONO]" font-size="13.3333" font-weight="400" font-style="normal" 
>
<polyline fill="none" vector-effect="non-scaling-stroke" points="11,16 43,16 " />
</g>

<g fill="none" stroke="#000000" stroke-opacity="1" stroke-width="1" stroke-linecap="square" stroke-linejoin="bevel" transform="matrix(1,0,0,1,106,40)"
font-family="Noto Sans [MONO]" font-size="13.3333" font-weight="400" font-style="normal" 
>
</g>

<g fill="none" stroke="#000000" stroke-opacity="1" stroke-width="1" stroke-linecap="square" stroke-linejoin="bevel" transform="matrix(1,0,0,1,106,40)"
font-family="Noto Sans UI" font-size="14.6667" font-weight="400" font-style="italic" 
>
<text fill="#000000" fill-opacity="1" stroke="none" xml:space="preserve" x="53" y="22" font-family="Noto Sans UI" font-size="14.6667" font-weight="400" font-style="italic" 
 >AP</text>
</g>

<g fill="none" stroke="#000000" stroke-opacity="1" stroke-width="1" stroke-linecap="square" stroke-linejoin="bevel" transform="matrix(1,0,0,1,106,40)"
font-family="Noto Sans [MONO]" font-size="13.3333" font-weight="400" font-style="normal" 
>
</g>

<g fill="none" stroke="#000000" stroke-opacity="1" stroke-width="1" stroke-linecap="square" stroke-linejoin="bevel" transform="matrix(1,0,0,1,106,40)"
font-family="Noto Sans [MONO]" font-size="13.3333" font-weight="400" font-style="normal" 
>
</g>

<g fill="none" stroke="#ff0000" stroke-opacity="1" stroke-width="2" stroke-linecap="butt" stroke-linejoin="miter" stroke-miterlimit="2" transform="matrix(1,0,0,1,106,40)"
font-family="Noto Sans [MONO]" font-size="13.3333" font-weight="400" font-style="normal" 
>
<polyline fill="none" vector-effect="non-scaling-stroke" points="11,37 43,37 " />
</g>

<g fill="none" stroke="#000000" stroke-opacity="1" stroke-width="1" stroke-linecap="square" stroke-linejoin="bevel" transform="matrix(1,0,0,1,106,40)"
font-family="Noto Sans [MONO]" font-size="13.3333" font-weight="400" font-style="normal" 
>
</g>

<g fill="none" stroke="#000000" stroke-opacity="1" stroke-width="1" stroke-linecap="square" stroke-linejoin="bevel" transform="matrix(1,0,0,1,106,40)"
font-family="Noto Sans UI" font-size="14.6667" font-weight="400" font-style="italic" 
>
<text fill="#000000" fill-opacity="1" stroke="none" xml:space="preserve" x="53" y="43" font-family="Noto Sans UI" font-size="14.6667" font-weight="400" font-style="italic" 
 >Plate (010)</text>
</g>

<g fill="none" stroke="#000000" stroke-opacity="1" stroke-width="1" stroke-linecap="square" stroke-linejoin="bevel" transform="matrix(1,0,0,1,106,40)"
font-family="Noto Sans [MONO]" font-size="13.3333" font-weight="400" font-style="normal" 
>
</g>

<g fill="none" stroke="#000000" stroke-opacity="1" stroke-width="1" stroke-linecap="square" stroke-linejoin="bevel" transform="matrix(1,0,0,1,106,40)"
font-family="Noto Sans [MONO]" font-size="13.3333" font-weight="400" font-style="normal" 
>
</g>

<g fill="none" stroke="#00ff00" stroke-opacity="1" stroke-width="2" stroke-linecap="butt" stroke-linejoin="miter" stroke-miterlimit="2" transform="matrix(1,0,0,1,106,40)"
font-family="Noto Sans [MONO]" font-size="13.3333" font-weight="400" font-style="normal" 
>
<polyline fill="none" vector-effect="non-scaling-stroke" points="11,58 43,58 " />
</g>

<g fill="none" stroke="#000000" stroke-opacity="1" stroke-width="1" stroke-linecap="square" stroke-linejoin="bevel" transform="matrix(1,0,0,1,106,40)"
font-family="Noto Sans [MONO]" font-size="13.3333" font-weight="400" font-style="normal" 
>
</g>

<g fill="none" stroke="#000000" stroke-opacity="1" stroke-width="1" stroke-linecap="square" stroke-linejoin="bevel" transform="matrix(1,0,0,1,106,40)"
font-family="Noto Sans UI" font-size="14.6667" font-weight="400" font-style="italic" 
>
<text fill="#000000" fill-opacity="1" stroke="none" xml:space="preserve" x="53" y="64" font-family="Noto Sans UI" font-size="14.6667" font-weight="400" font-style="italic" 
 >Plate (001)</text>
</g>

<g fill="none" stroke="#000000" stroke-opacity="1" stroke-width="1" stroke-linecap="square" stroke-linejoin="bevel" transform="matrix(1,0,0,1,106,40)"
font-family="Noto Sans [MONO]" font-size="13.3333" font-weight="400" font-style="normal" 
>
</g>

<g fill="none" stroke="#000000" stroke-opacity="1" stroke-width="1" stroke-linecap="square" stroke-linejoin="bevel" transform="matrix(1,0,0,1,106,40)"
font-family="Noto Sans [MONO]" font-size="13.3333" font-weight="400" font-style="normal" 
>
</g>

<g fill="none" stroke="#0000ff" stroke-opacity="1" stroke-width="2" stroke-linecap="butt" stroke-linejoin="miter" stroke-miterlimit="2" transform="matrix(1,0,0,1,106,40)"
font-family="Noto Sans [MONO]" font-size="13.3333" font-weight="400" font-style="normal" 
>
<polyline fill="none" vector-effect="non-scaling-stroke" points="11,79 43,79 " />
</g>

<g fill="none" stroke="#000000" stroke-opacity="1" stroke-width="1" stroke-linecap="square" stroke-linejoin="bevel" transform="matrix(1,0,0,1,106,40)"
font-family="Noto Sans [MONO]" font-size="13.3333" font-weight="400" font-style="normal" 
>
</g>

<g fill="none" stroke="#000000" stroke-opacity="1" stroke-width="1" stroke-linecap="square" stroke-linejoin="bevel" transform="matrix(1,0,0,1,106,40)"
font-family="Noto Sans UI" font-size="14.6667" font-weight="400" font-style="italic" 
>
<text fill="#000000" fill-opacity="1" stroke="none" xml:space="preserve" x="53" y="85" font-family="Noto Sans UI" font-size="14.6667" font-weight="400" font-style="italic" 
 >Plate (100)</text>
</g>

<g fill="none" stroke="#000000" stroke-opacity="1" stroke-width="1" stroke-linecap="square" stroke-linejoin="bevel" transform="matrix(1,0,0,1,106,40)"
font-family="Noto Sans [MONO]" font-size="13.3333" font-weight="400" font-style="normal" 
>
</g>

<g fill="none" stroke="#000000" stroke-opacity="1" stroke-width="1" stroke-linecap="square" stroke-linejoin="bevel" transform="matrix(1,0,0,1,106,40)"
font-family="Noto Sans [MONO]" font-size="13.3333" font-weight="400" font-style="normal" 
>
</g>

<g fill="none" stroke="#ff00ff" stroke-opacity="1" stroke-width="2" stroke-linecap="butt" stroke-linejoin="miter" stroke-miterlimit="2" transform="matrix(1,0,0,1,106,40)"
font-family="Noto Sans [MONO]" font-size="13.3333" font-weight="400" font-style="normal" 
>
<polyline fill="none" vector-effect="non-scaling-stroke" points="11,100 43,100 " />
</g>

<g fill="none" stroke="#000000" stroke-opacity="1" stroke-width="1" stroke-linecap="square" stroke-linejoin="bevel" transform="matrix(1,0,0,1,106,40)"
font-family="Noto Sans [MONO]" font-size="13.3333" font-weight="400" font-style="normal" 
>
</g>

<g fill="none" stroke="#000000" stroke-opacity="1" stroke-width="1" stroke-linecap="square" stroke-linejoin="bevel" transform="matrix(1,0,0,1,106,40)"
font-family="Noto Sans UI" font-size="14.6667" font-weight="400" font-style="italic" 
>
<text fill="#000000" fill-opacity="1" stroke="none" xml:space="preserve" x="53" y="106" font-family="Noto Sans UI" font-size="14.6667" font-weight="400" font-style="italic" 
 >Sphere</text>
</g>

<g fill="none" stroke="#000000" stroke-opacity="1" stroke-width="1" stroke-linecap="square" stroke-linejoin="bevel" transform="matrix(1,0,0,1,106,40)"
font-family="Noto Sans [MONO]" font-size="13.3333" font-weight="400" font-style="normal" 
>
</g>

<g fill="none" stroke="#000000" stroke-opacity="1" stroke-width="1" stroke-linecap="square" stroke-linejoin="bevel" transform="matrix(1,0,0,1,0,0)"
font-family="Noto Sans [MONO]" font-size="13.3333" font-weight="400" font-style="normal" 
>
</g>

<g fill="none" stroke="#000000" stroke-opacity="1" stroke-width="1" stroke-linecap="square" stroke-linejoin="bevel" transform="matrix(1,0,0,1,0,0)"
font-family="Noto Sans [MONO]" font-size="13.3333" font-weight="400" font-style="normal" 
>
</g>
</g>
</svg>
