<?xml version="1.0" encoding="UTF-8" standalone="no"?>
<!-- Created with Inkscape (http://www.inkscape.org/) -->

<svg
   version="1.1"
   id="svg2"
   xml:space="preserve"
   width="478"
   height="373"
   viewBox="0 0 478 373"
   xmlns="http://www.w3.org/2000/svg"
   xmlns:svg="http://www.w3.org/2000/svg"><defs
     id="defs6"><clipPath
       clipPathUnits="userSpaceOnUse"
       id="clipPath20"><path
         d="M 43.5,264 H 342 V 39.75 H 43.5 Z"
         clip-rule="evenodd"
         id="path18" /></clipPath><clipPath
       clipPathUnits="userSpaceOnUse"
       id="clipPath30"><path
         d="M 43.5,264 H 342 V 39.75 H 43.5 Z"
         clip-rule="evenodd"
         id="path28" /></clipPath><clipPath
       clipPathUnits="userSpaceOnUse"
       id="clipPath40"><path
         d="M 43.5,264 H 342 V 39.75 H 43.5 Z"
         clip-rule="evenodd"
         id="path38" /></clipPath><clipPath
       clipPathUnits="userSpaceOnUse"
       id="clipPath50"><path
         d="M 43.5,264 H 342 V 39.75 H 43.5 Z"
         clip-rule="evenodd"
         id="path48" /></clipPath><clipPath
       clipPathUnits="userSpaceOnUse"
       id="clipPath60"><path
         d="M 43.5,264 H 342 V 39.75 H 43.5 Z"
         clip-rule="evenodd"
         id="path58" /></clipPath></defs><g
     id="g8"
     transform="matrix(1.3333333,0,0,-1.3333333,0,373)"><g
       id="g10"><path
         d="M 0,279.75 H 358.5 V 0 H 0 Z"
         style="fill:#ffffff;fill-opacity:1;fill-rule:nonzero;stroke:none"
         id="path12" /></g><g
       id="g14"><g
         id="g16"
         clip-path="url(#clipPath20)"><path
           d="m 43.5,39.956 0.853,0.003 0.853,0.002 0.853,0.003 0.852,0.003 0.853,0.003 0.853,0.003 0.853,0.004 0.853,0.003 0.853,0.003 0.853,0.003 0.852,0.004 0.853,0.003 0.853,0.004 0.853,0.004 0.853,0.003 0.853,0.004 0.853,0.004 0.852,0.004 0.853,0.004 0.853,0.004 0.853,0.004 0.853,0.005 0.853,0.004 0.853,0.005 0.852,0.004 0.853,0.005 0.853,0.005 0.853,0.005 0.853,0.005 0.853,0.005 0.853,0.006 0.852,0.005 0.853,0.006 0.853,0.006 0.853,0.006 0.853,0.006 0.853,0.006 0.853,0.007 0.852,0.007 0.853,0.007 0.853,0.007 0.853,0.007 0.853,0.008 0.853,0.007 0.853,0.009 0.852,0.008 0.853,0.009 0.853,0.009 0.853,0.009 0.853,0.009 0.853,0.01 0.853,0.011 0.852,0.01 0.853,0.012 0.853,0.011 0.853,0.012 0.853,0.013 0.853,0.013 0.853,0.014 0.852,0.015 0.853,0.015 0.853,0.016 0.853,0.017 0.853,0.017 0.853,0.019 0.853,0.02 0.852,0.022 0.853,0.022 0.853,0.025 0.853,0.026 0.853,0.029 0.853,0.031 0.853,0.034 0.852,0.038 0.853,0.043 0.853,0.048 0.853,0.055 0.853,0.063 0.853,0.075 0.853,0.087 0.852,0.1 0.853,0.113 0.853,0.116 0.853,0.104 0.853,0.072 0.853,0.03 h 0.853 l 0.852,-0.012 0.853,-0.006 0.853,0.009 0.853,0.026 0.853,0.043 0.853,0.06 0.853,0.076 0.852,0.092 0.853,0.108 0.853,0.125 0.853,0.142 0.853,0.164 0.853,0.186 0.853,0.212 0.852,0.243 0.853,0.279 0.853,0.322 0.853,0.374 0.853,0.435 0.853,0.512 0.853,0.606 0.852,0.722 0.853,0.87 0.853,1.057 0.853,1.298 0.853,1.607 0.853,2.011 0.853,2.534 0.852,3.21 0.853,4.057 0.853,5.053 0.853,6.064 0.853,6.728 0.853,6.394 0.853,4.39 0.852,0.787 0.853,-3.117 0.853,-5.764 0.853,-6.646 0.853,-6.277 0.853,-5.359 0.853,-4.356 0.852,-3.465 0.853,-2.74 0.853,-2.171 0.853,-1.731 0.853,-1.392 0.853,-1.13 0.853,-0.924 0.852,-0.764 0.853,-0.635 0.853,-0.533 0.853,-0.45 0.853,-0.383 0.853,-0.326 0.853,-0.28 0.852,-0.241 0.853,-0.208 0.853,-0.18 0.853,-0.156 0.853,-0.135 0.853,-0.117 0.853,-0.102 0.852,-0.088 0.853,-0.075 0.853,-0.065 0.853,-0.054 0.853,-0.046 0.853,-0.037 0.853,-0.03 0.852,-0.023 0.853,-0.016 0.853,-0.01 0.853,-0.005 0.853,10e-4 0.853,0.007 0.853,0.011 0.852,0.017 0.853,0.022 0.853,0.027 0.853,0.031 0.853,0.037 0.853,0.042 0.853,0.048 0.852,0.053 0.853,0.059 0.853,0.065 0.853,0.071 0.853,0.078 0.853,0.086 0.853,0.093 0.852,0.101 0.853,0.111 0.853,0.121 0.853,0.132 0.853,0.144 0.853,0.158 0.853,0.172 0.852,0.19 0.853,0.209 0.853,0.232 0.853,0.256 0.853,0.286 0.853,0.321 0.853,0.361 0.852,0.41 0.853,0.468 0.853,0.539 0.853,0.626 0.853,0.736 0.853,0.873 0.853,1.044 0.852,1.259 0.853,1.521 0.853,1.82 0.853,2.111 0.853,2.293 0.853,2.202 0.853,1.715 0.852,0.952 0.853,0.276 0.853,0.005 0.853,0.169 0.853,0.628 0.853,1.251 0.853,1.977 0.852,2.805 0.853,3.776 0.853,4.945 0.853,6.382 0.853,8.14 0.853,10.218 0.853,12.441 0.852,14.29 0.853,14.788 0.853,12.904 0.853,8.752 0.853,4.371 0.853,2.187 0.853,2.674 0.852,4.084 0.853,3.772 0.853,-0.102 0.853,-6.835 0.853,-13.264 0.853,-16.65 0.853,-16.744 0.852,-14.876 0.853,-12.369 0.853,-9.958 0.853,-7.916 0.853,-6.277 0.853,-4.993 0.853,-3.99 0.852,-3.206 0.853,-2.586 0.853,-2.091 0.853,-1.69 0.853,-1.359 0.853,-1.083 0.853,-0.847 0.852,-0.639 0.853,-0.456 0.853,-0.286 0.853,-0.125 0.853,0.029 0.853,0.185 0.853,0.346 0.852,0.517 0.853,0.702 0.853,0.91 0.853,1.147 0.853,1.424 0.853,1.753 0.853,2.149 0.852,2.635 0.853,3.239 0.853,3.998 0.853,4.967 0.853,6.21 0.853,7.82 0.853,9.909 0.852,12.594 0.853,15.959 0.853,19.925 0.853,23.974 0.853,26.716 0.853,25.63 0.853,18.046 0.852,4.061 0.853,-11.534 0.853,-22.578 0.853,-26.686 0.853,-25.568 0.853,-22.024 0.853,-17.989 0.852,-14.353 0.853,-11.37 0.853,-9.023 0.853,-7.207 0.853,-5.807 0.853,-4.723 0.853,-3.88 0.852,-3.217 0.853,-2.691 0.853,-2.27 0.853,-1.93 0.853,-1.653 0.853,-1.425 0.853,-1.236 0.852,-1.079 0.853,-0.946 0.853,-0.834 0.853,-0.738 0.853,-0.656 0.853,-0.585 0.853,-0.523 0.852,-0.469 0.853,-0.422 0.853,-0.381 0.853,-0.343 0.853,-0.311 0.853,-0.281 0.853,-0.256 0.852,-0.231 0.853,-0.21 0.853,-0.19 0.853,-0.173 0.853,-0.156 0.853,-0.141 0.853,-0.128 0.852,-0.114 0.853,-0.102 0.853,-0.091 0.853,-0.081 0.853,-0.07 0.853,-0.06 0.853,-0.052 0.852,-0.042 0.853,-0.034 0.853,-0.025 0.853,-0.017 0.853,-0.008 0.853,-0.001 0.853,0.007 0.852,0.016 0.853,0.024 0.853,0.032 0.853,0.041 0.853,0.049 0.853,0.059 0.853,0.068 0.852,0.079 0.853,0.088 0.853,0.1 0.853,0.112 0.853,0.124 0.853,0.138 0.853,0.152 0.852,0.169 0.853,0.185 0.853,0.204 H 342"
           style="fill:none;stroke:#000000;stroke-width:2;stroke-linecap:butt;stroke-linejoin:miter;stroke-miterlimit:10;stroke-dasharray:none;stroke-opacity:1"
           id="path22" /></g></g><g
       id="g24"><g
         id="g26"
         clip-path="url(#clipPath30)"><path
           d="m 43.5,39.907 0.853,0.003 0.853,0.002 0.853,0.002 0.852,0.003 0.853,0.002 0.853,0.003 0.853,0.002 0.853,0.003 0.853,0.003 0.853,0.002 0.852,0.003 0.853,0.003 0.853,0.003 0.853,0.003 0.853,0.003 0.853,0.003 0.853,0.003 0.852,0.003 0.853,0.004 0.853,0.003 0.853,0.004 0.853,0.003 0.853,0.004 0.853,0.003 0.852,0.004 0.853,0.004 0.853,0.004 0.853,0.004 0.853,0.005 0.853,0.004 0.853,0.005 0.852,0.004 0.853,0.005 0.853,0.005 0.853,0.005 0.853,0.005 0.853,0.005 0.853,0.006 0.852,0.006 0.853,0.005 0.853,0.007 0.853,0.006 0.853,0.006 0.853,0.007 0.853,0.007 0.852,0.007 0.853,0.007 0.853,0.008 0.853,0.008 0.853,0.008 0.853,0.008 0.853,0.009 0.852,0.009 0.853,0.01 0.853,0.01 0.853,0.01 0.853,0.011 0.853,0.011 0.853,0.012 0.852,0.012 0.853,0.013 0.853,0.013 0.853,0.014 0.853,0.015 0.853,0.016 0.853,0.016 0.852,0.017 0.853,0.019 0.853,0.019 0.853,0.021 0.853,0.021 0.853,0.024 0.853,0.025 0.852,0.027 0.853,0.029 0.853,0.032 0.853,0.034 0.853,0.038 0.853,0.043 0.853,0.047 0.852,0.053 0.853,0.058 0.853,0.061 0.853,0.06 0.853,0.055 0.853,0.046 0.853,0.042 0.852,0.04 0.853,0.046 0.853,0.054 0.853,0.064 0.853,0.073 0.853,0.084 0.853,0.095 0.852,0.108 0.853,0.12 0.853,0.136 0.853,0.152 0.853,0.171 0.853,0.194 0.853,0.22 0.852,0.25 0.853,0.287 0.853,0.33 0.853,0.383 0.853,0.446 0.853,0.524 0.853,0.62 0.852,0.739 0.853,0.891 0.853,1.083 0.853,1.328 0.853,1.647 0.853,2.061 0.853,2.598 0.852,3.291 0.853,4.16 0.853,5.183 0.853,6.222 0.853,6.906 0.853,6.568 0.853,4.516 0.852,0.819 0.853,-3.194 0.853,-5.919 0.853,-6.833 0.853,-6.456 0.853,-5.516 0.853,-4.485 0.852,-3.569 0.853,-2.824 0.853,-2.24 0.853,-1.787 0.853,-1.438 0.853,-1.169 0.853,-0.958 0.852,-0.793 0.853,-0.662 0.853,-0.556 0.853,-0.471 0.853,-0.402 0.853,-0.345 0.853,-0.297 0.852,-0.258 0.853,-0.224 0.853,-0.196 0.853,-0.172 0.853,-0.15 0.853,-0.133 0.853,-0.117 0.852,-0.103 0.853,-0.091 0.853,-0.08 0.853,-0.071 0.853,-0.061 0.853,-0.055 0.853,-0.047 0.852,-0.04 0.853,-0.035 0.853,-0.029 0.853,-0.024 0.853,-0.019 0.853,-0.014 0.853,-0.01 0.852,-0.006 0.853,-0.002 0.853,0.003 0.853,0.006 0.853,0.01 0.853,0.014 0.853,0.018 0.852,0.022 0.853,0.026 0.853,0.031 0.853,0.035 0.853,0.04 0.853,0.045 0.853,0.05 0.852,0.056 0.853,0.063 0.853,0.07 0.853,0.077 0.853,0.086 0.853,0.096 0.853,0.106 0.852,0.119 0.853,0.133 0.853,0.15 0.853,0.168 0.853,0.191 0.853,0.217 0.853,0.25 0.852,0.289 0.853,0.336 0.853,0.396 0.853,0.47 0.853,0.565 0.853,0.686 0.853,0.84 0.852,1.036 0.853,1.274 0.853,1.546 0.853,1.803 0.853,1.936 0.853,1.771 0.853,1.179 0.852,0.276 0.853,-0.556 0.853,-0.995 0.853,-1.016 0.853,-0.776 0.853,-0.43 0.853,-0.062 0.852,0.298 0.853,0.655 0.853,1.02 0.853,1.417 0.853,1.87 0.853,2.409 0.853,3.074 0.852,3.91 0.853,4.981 0.853,6.356 0.853,8.102 0.853,10.249 0.853,12.673 0.853,14.906 0.852,15.857 0.853,13.841 0.853,7.655 0.853,-1.518 0.853,-10.019 0.853,-14.808 0.853,-15.685 0.852,-14.202 0.853,-11.878 0.853,-9.565 0.853,-7.589 0.853,-6.005 0.853,-4.77 0.853,-3.819 0.852,-3.084 0.853,-2.513 0.853,-2.068 0.853,-1.715 0.853,-1.435 0.853,-1.21 0.853,-1.026 0.852,-0.876 0.853,-0.752 0.853,-0.648 0.853,-0.56 0.853,-0.487 0.853,-0.424 0.853,-0.368 0.852,-0.322 0.853,-0.28 0.853,-0.243 0.853,-0.21 0.853,-0.181 0.853,-0.154 0.853,-0.13 0.852,-0.106 0.853,-0.086 0.853,-0.065 0.853,-0.045 0.853,-0.027 0.853,-0.007 0.853,0.012 0.852,0.031 0.853,0.051 0.853,0.072 0.853,0.095 0.853,0.119 0.853,0.146 0.853,0.174 0.852,0.208 0.853,0.244 0.853,0.287 0.853,0.335 0.853,0.392 0.853,0.459 0.853,0.538 0.852,0.633 0.853,0.748 0.853,0.888 0.853,1.062 0.853,1.278 0.853,1.551 0.853,1.898 0.852,2.344 0.853,2.919 0.853,3.668 0.853,4.638 0.853,5.88 0.853,7.409 0.853,9.145 0.852,10.752 0.853,11.459 0.853,10.059 0.853,5.658 0.853,-0.941 0.853,-7.116 0.853,-10.632 0.852,-11.307 0.853,-10.255 0.853,-8.582 0.853,-6.909 0.853,-5.477 0.853,-4.33 0.853,-3.437 0.852,-2.746 0.853,-2.214 0.853,-1.8 0.853,-1.478 0.853,-1.222 0.853,-1.019 0.853,-0.856 0.852,-0.722 0.853,-0.613 0.853,-0.522 0.853,-0.447 0.853,-0.383 0.853,-0.329 0.853,-0.282 0.852,-0.242 0.853,-0.207 0.853,-0.176 0.853,-0.148 0.853,-0.124 0.853,-0.101 0.853,-0.082 0.852,-0.062 0.853,-0.045 0.853,-0.029 0.853,-0.012 0.853,0.002 0.853,0.016 0.853,0.031 0.852,0.046 0.853,0.059 0.853,0.074 0.853,0.089 0.853,0.104 0.853,0.12 0.853,0.137 0.852,0.154 0.853,0.173 0.853,0.194 H 342"
           style="fill:none;stroke:#ff0000;stroke-width:2;stroke-linecap:butt;stroke-linejoin:miter;stroke-miterlimit:10;stroke-dasharray:none;stroke-opacity:1"
           id="path32" /></g></g><g
       id="g34"><g
         id="g36"
         clip-path="url(#clipPath40)"><path
           d="m 43.5,39.892 0.853,0.002 0.853,0.002 0.853,10e-4 0.852,0.002 0.853,0.002 0.853,0.002 0.853,0.002 0.853,0.002 0.853,0.002 0.853,0.002 0.852,0.002 0.853,0.003 0.853,0.002 0.853,0.002 0.853,0.002 0.853,0.003 0.853,0.002 0.852,0.002 0.853,0.003 0.853,0.002 0.853,0.003 0.853,0.002 0.853,0.003 0.853,0.003 0.852,0.003 0.853,0.002 0.853,0.003 0.853,0.003 0.853,0.003 0.853,0.003 0.853,0.003 0.852,0.004 0.853,0.003 0.853,0.003 0.853,0.004 0.853,0.003 0.853,0.004 0.853,0.004 0.852,0.003 0.853,0.004 0.853,0.004 0.853,0.004 0.853,0.005 0.853,0.004 0.853,0.004 0.852,0.005 0.853,0.005 0.853,0.005 0.853,0.005 0.853,0.005 0.853,0.005 0.853,0.006 0.852,0.006 0.853,0.006 0.853,0.006 0.853,0.006 0.853,0.007 0.853,0.007 0.853,0.007 0.852,0.008 0.853,0.008 0.853,0.009 0.853,0.009 0.853,0.009 0.853,0.011 0.853,0.011 0.852,0.011 0.853,0.013 0.853,0.014 0.853,0.015 0.853,0.016 0.853,0.019 0.853,0.021 0.852,0.024 0.853,0.027 0.853,0.033 0.853,0.038 0.853,0.046 0.853,0.055 0.853,0.067 0.852,0.08 0.853,0.09 0.853,0.092 0.853,0.076 0.853,0.041 0.853,-0.003 0.853,-0.04 0.852,-0.054 0.853,-0.053 0.853,-0.042 0.853,-0.029 0.853,-0.017 0.853,-0.005 0.853,0.004 0.852,0.011 0.853,0.019 0.853,0.025 0.853,0.031 0.853,0.037 0.853,0.043 0.853,0.05 0.852,0.056 0.853,0.064 0.853,0.073 0.853,0.082 0.853,0.094 0.853,0.107 0.853,0.123 0.852,0.141 0.853,0.164 0.853,0.191 0.853,0.223 0.853,0.265 0.853,0.317 0.853,0.38 0.852,0.463 0.853,0.569 0.853,0.706 0.853,0.884 0.853,1.114 0.853,1.411 0.853,1.777 0.852,2.197 0.853,2.591 0.853,2.781 0.853,2.475 0.853,1.443 0.853,-0.14 0.853,-1.65 0.852,-2.528 0.853,-2.713 0.853,-2.47 0.853,-2.07 0.853,-1.667 0.853,-1.319 0.853,-1.042 0.852,-0.824 0.853,-0.657 0.853,-0.527 0.853,-0.426 0.853,-0.348 0.853,-0.286 0.853,-0.236 0.852,-0.196 0.853,-0.164 0.853,-0.137 0.853,-0.115 0.853,-0.096 0.853,-0.081 0.853,-0.067 0.852,-0.056 0.853,-0.046 0.853,-0.037 0.853,-0.029 0.853,-0.022 0.853,-0.017 0.853,-0.01 0.852,-0.005 0.853,-10e-4 0.853,0.004 0.853,0.008 0.853,0.012 0.853,0.016 0.853,0.02 0.852,0.023 0.853,0.027 0.853,0.031 0.853,0.034 0.853,0.038 0.853,0.041 0.853,0.046 0.852,0.049 0.853,0.054 0.853,0.057 0.853,0.063 0.853,0.067 0.853,0.072 0.853,0.078 0.852,0.083 0.853,0.09 0.853,0.096 0.853,0.103 0.853,0.112 0.853,0.12 0.853,0.129 0.852,0.14 0.853,0.151 0.853,0.164 0.853,0.178 0.853,0.194 0.853,0.212 0.853,0.232 0.852,0.256 0.853,0.281 0.853,0.312 0.853,0.348 0.853,0.39 0.853,0.44 0.853,0.5 0.852,0.571 0.853,0.658 0.853,0.762 0.853,0.882 0.853,1.011 0.853,1.131 0.853,1.205 0.852,1.209 0.853,1.166 0.853,1.161 0.853,1.28 0.853,1.547 0.853,1.948 0.853,2.47 0.852,3.123 0.853,3.94 0.853,4.972 0.853,6.275 0.853,7.893 0.853,9.807 0.853,11.817 0.852,13.358 0.853,13.384 0.853,10.779 0.853,5.632 0.853,0.088 0.853,-3.14 0.853,-3.06 0.852,-0.514 0.853,3.036 0.853,6.085 0.853,6.994 0.853,4.311 0.853,-1.852 0.853,-8.927 0.852,-13.736 0.853,-15.15 0.853,-14.106 0.853,-12.001 0.853,-9.756 0.853,-7.77 0.853,-6.148 0.852,-4.865 0.853,-3.861 0.853,-3.076 0.853,-2.456 0.853,-1.958 0.853,-1.556 0.853,-1.222 0.852,-0.94 0.853,-0.696 0.853,-0.48 0.853,-0.282 0.853,-0.096 0.853,0.085 0.853,0.267 0.852,0.457 0.853,0.659 0.853,0.882 0.853,1.134 0.853,1.425 0.853,1.768 0.853,2.181 0.852,2.684 0.853,3.308 0.853,4.093 0.853,5.09 0.853,6.371 0.853,8.029 0.853,10.177 0.852,12.94 0.853,16.404 0.853,20.489 0.853,24.668 0.853,27.521 0.853,26.464 0.853,18.737 0.852,4.393 0.853,-11.69 0.853,-23.166 0.853,-27.504 0.853,-26.421 0.853,-22.791 0.853,-18.632 0.852,-14.871 0.853,-11.785 0.853,-9.354 0.853,-7.473 0.853,-6.023 0.853,-4.9 0.853,-4.027 0.852,-3.341 0.853,-2.797 0.853,-2.361 0.853,-2.01 0.853,-1.723 0.853,-1.488 0.853,-1.293 0.852,-1.131 0.853,-0.994 0.853,-0.878 0.853,-0.78 0.853,-0.696 0.853,-0.623 0.853,-0.56 0.852,-0.504 0.853,-0.457 0.853,-0.414 0.853,-0.377 0.853,-0.344 0.853,-0.315 0.853,-0.288 0.852,-0.265 0.853,-0.244 0.853,-0.225 0.853,-0.208 0.853,-0.192 0.853,-0.178 0.853,-0.165 0.852,-0.153 0.853,-0.143 0.853,-0.132 0.853,-0.124 0.853,-0.115 0.853,-0.107 0.853,-0.099 0.852,-0.093 0.853,-0.087 0.853,-0.081 0.853,-0.075 0.853,-0.07 0.853,-0.064 0.853,-0.06 0.852,-0.056 0.853,-0.052 0.853,-0.047 0.853,-0.043 0.853,-0.04 0.853,-0.036 0.853,-0.032 0.852,-0.03 0.853,-0.025 0.853,-0.023 0.853,-0.019 0.853,-0.016 0.853,-0.012 0.853,-0.01 0.852,-0.006 0.853,-0.003 h 0.853 0.853"
           style="fill:none;stroke:#00ff00;stroke-width:2;stroke-linecap:butt;stroke-linejoin:miter;stroke-miterlimit:10;stroke-dasharray:none;stroke-opacity:1"
           id="path42" /></g></g><g
       id="g44"><g
         id="g46"
         clip-path="url(#clipPath50)"><path
           d="m 43.5,39.93 0.853,0.003 0.853,0.002 0.853,0.003 0.852,0.003 0.853,0.002 0.853,0.003 0.853,0.003 0.853,0.003 0.853,0.003 0.853,0.003 0.852,0.003 0.853,0.003 0.853,0.003 0.853,0.003 0.853,0.004 0.853,0.003 0.853,0.004 0.852,0.003 0.853,0.004 0.853,0.004 0.853,0.004 0.853,0.003 0.853,0.004 0.853,0.005 0.852,0.004 0.853,0.004 0.853,0.005 0.853,0.004 0.853,0.005 0.853,0.005 0.853,0.004 0.852,0.005 0.853,0.006 0.853,0.005 0.853,0.005 0.853,0.006 0.853,0.006 0.853,0.006 0.852,0.006 0.853,0.006 0.853,0.007 0.853,0.007 0.853,0.007 0.853,0.007 0.853,0.007 0.852,0.008 0.853,0.008 0.853,0.008 0.853,0.009 0.853,0.008 0.853,0.01 0.853,0.009 0.852,0.01 0.853,0.011 0.853,0.01 0.853,0.012 0.853,0.011 0.853,0.013 0.853,0.012 0.852,0.014 0.853,0.014 0.853,0.015 0.853,0.016 0.853,0.017 0.853,0.017 0.853,0.019 0.852,0.02 0.853,0.022 0.853,0.023 0.853,0.025 0.853,0.027 0.853,0.03 0.853,0.033 0.852,0.036 0.853,0.041 0.853,0.047 0.853,0.054 0.853,0.062 0.853,0.073 0.853,0.086 0.852,0.1 0.853,0.112 0.853,0.116 0.853,0.102 0.853,0.069 0.853,0.026 0.853,-0.006 0.852,-0.019 0.853,-0.014 0.853,10e-4 0.853,0.018 0.853,0.036 0.853,0.051 0.853,0.067 0.852,0.082 0.853,0.097 0.853,0.113 0.853,0.129 0.853,0.148 0.853,0.168 0.853,0.193 0.852,0.22 0.853,0.252 0.853,0.29 0.853,0.335 0.853,0.391 0.853,0.457 0.853,0.539 0.852,0.64 0.853,0.768 0.853,0.929 0.853,1.135 0.853,1.399 0.853,1.742 0.853,2.188 0.852,2.767 0.853,3.505 0.853,4.407 0.853,5.409 0.853,6.287 0.853,6.546 0.853,5.477 0.852,2.673 0.853,-1.184 0.853,-4.518 0.853,-6.226 0.853,-6.39 0.853,-5.693 0.853,-4.722 0.852,-3.788 0.853,-3.001 0.853,-2.374 0.853,-1.887 0.853,-1.511 0.853,-1.221 0.853,-0.995 0.852,-0.819 0.853,-0.679 0.853,-0.568 0.853,-0.478 0.853,-0.406 0.853,-0.346 0.853,-0.296 0.852,-0.255 0.853,-0.22 0.853,-0.192 0.853,-0.166 0.853,-0.144 0.853,-0.126 0.853,-0.109 0.852,-0.096 0.853,-0.082 0.853,-0.072 0.853,-0.061 0.853,-0.053 0.853,-0.044 0.853,-0.037 0.852,-0.03 0.853,-0.023 0.853,-0.018 0.853,-0.012 0.853,-0.007 0.853,-0.002 0.853,0.004 0.852,0.008 0.853,0.012 0.853,0.018 0.853,0.022 0.853,0.026 0.853,0.031 0.853,0.036 0.852,0.041 0.853,0.046 0.853,0.052 0.853,0.057 0.853,0.063 0.853,0.07 0.853,0.076 0.852,0.084 0.853,0.092 0.853,0.101 0.853,0.11 0.853,0.122 0.853,0.133 0.853,0.147 0.852,0.162 0.853,0.179 0.853,0.199 0.853,0.222 0.853,0.249 0.853,0.28 0.853,0.317 0.852,0.363 0.853,0.416 0.853,0.483 0.853,0.566 0.853,0.668 0.853,0.799 0.853,0.963 0.852,1.17 0.853,1.423 0.853,1.714 0.853,2 0.853,2.18 0.853,2.092 0.853,1.601 0.852,0.81 0.853,0.08 0.853,-0.257 0.853,-0.15 0.853,0.258 0.853,0.831 0.853,1.5 0.852,2.261 0.853,3.144 0.853,4.207 0.853,5.505 0.853,7.087 0.853,8.926 0.853,10.812 0.852,12.154 0.853,11.86 0.853,8.757 0.853,2.887 0.853,-3.6 0.853,-7.955 0.853,-9.157 0.852,-7.988 0.853,-5.641 0.853,-2.902 0.853,-0.136 0.853,2.461 0.853,4.577 0.853,5.578 0.852,4.577 0.853,1.179 0.853,-3.546 0.853,-7.475 0.853,-9.272 0.853,-9.15 0.853,-8.011 0.852,-6.588 0.853,-5.256 0.853,-4.136 0.853,-3.237 0.853,-2.525 0.853,-1.962 0.853,-1.512 0.852,-1.146 0.853,-0.84 0.853,-0.579 0.853,-0.35 0.853,-0.14 0.853,0.059 0.853,0.253 0.852,0.451 0.853,0.66 0.853,0.887 0.853,1.142 0.853,1.436 0.853,1.779 0.853,2.193 0.852,2.696 0.853,3.32 0.853,4.103 0.853,5.1 0.853,6.378 0.853,8.034 0.853,10.18 0.852,12.939 0.853,16.398 0.853,20.477 0.853,24.65 0.853,27.498 0.853,26.437 0.853,18.717 0.852,4.389 0.853,-11.675 0.853,-23.13 0.853,-27.458 0.853,-26.372 0.853,-22.747 0.853,-18.593 0.852,-14.838 0.853,-11.757 0.853,-9.33 0.853,-7.453 0.853,-6.004 0.853,-4.885 0.853,-4.012 0.852,-3.327 0.853,-2.785 0.853,-2.349 0.853,-1.999 0.853,-1.713 0.853,-1.478 0.853,-1.283 0.852,-1.121 0.853,-0.984 0.853,-0.87 0.853,-0.771 0.853,-0.687 0.853,-0.614 0.853,-0.551 0.852,-0.495 0.853,-0.448 0.853,-0.406 0.853,-0.368 0.853,-0.335 0.853,-0.305 0.853,-0.28 0.852,-0.255 0.853,-0.235 0.853,-0.215 0.853,-0.198 0.853,-0.182 0.853,-0.168 0.853,-0.155 0.852,-0.142 0.853,-0.132 0.853,-0.121 0.853,-0.112 0.853,-0.102 0.853,-0.095 0.853,-0.086 0.852,-0.08 0.853,-0.072 0.853,-0.066 0.853,-0.06 0.853,-0.054 0.853,-0.048 0.853,-0.043 0.852,-0.038 0.853,-0.032 0.853,-0.027 0.853,-0.023 0.853,-0.017 0.853,-0.013 0.853,-0.008 0.852,-0.003 0.853,0.002 0.853,0.006 0.853,0.012 0.853,0.017 0.853,0.022 0.853,0.028 0.852,0.033 0.853,0.039 0.853,0.046 H 342"
           style="fill:none;stroke:#0000ff;stroke-width:2;stroke-linecap:butt;stroke-linejoin:miter;stroke-miterlimit:10;stroke-dasharray:none;stroke-opacity:1"
           id="path52" /></g></g><g
       id="g54"><g
         id="g56"
         clip-path="url(#clipPath60)"><path
           d="m 43.5,39.865 0.853,0.002 0.853,0.001 0.853,0.002 0.852,0.001 0.853,0.002 0.853,0.002 0.853,10e-4 0.853,0.002 0.853,0.002 0.853,0.002 0.852,0.001 0.853,0.002 0.853,0.002 0.853,0.002 0.853,0.002 0.853,0.002 0.853,0.002 0.852,0.002 0.853,0.002 0.853,0.003 0.853,0.002 0.853,0.002 0.853,0.002 0.853,0.003 0.852,0.002 0.853,0.003 0.853,0.002 0.853,0.003 0.853,0.002 0.853,0.003 0.853,0.003 0.852,0.003 0.853,0.003 0.853,0.003 0.853,0.003 0.853,0.003 0.853,0.003 0.853,0.004 0.852,0.003 0.853,0.004 0.853,0.003 0.853,0.004 0.853,0.004 0.853,0.004 0.853,0.004 0.852,0.004 0.853,0.004 0.853,0.005 0.853,0.005 0.853,0.004 0.853,0.005 0.853,0.006 0.852,0.005 0.853,0.006 0.853,0.005 0.853,0.006 0.853,0.007 0.853,0.006 0.853,0.007 0.852,0.007 0.853,0.008 0.853,0.008 0.853,0.008 0.853,0.009 0.853,0.009 0.853,0.01 0.852,0.011 0.853,0.011 0.853,0.012 0.853,0.013 0.853,0.014 0.853,0.016 0.853,0.017 0.852,0.019 0.853,0.022 0.853,0.024 0.853,0.029 0.853,0.033 0.853,0.039 0.853,0.046 0.852,0.053 0.853,0.06 0.853,0.063 0.853,0.054 0.853,0.036 0.853,0.011 0.853,-0.008 0.852,-0.017 0.853,-0.014 0.853,-0.008 0.853,0.002 0.853,0.011 0.853,0.018 0.853,0.026 0.852,0.033 0.853,0.039 0.853,0.047 0.853,0.053 0.853,0.06 0.853,0.069 0.853,0.078 0.852,0.088 0.853,0.099 0.853,0.113 0.853,0.129 0.853,0.148 0.853,0.17 0.853,0.196 0.852,0.23 0.853,0.268 0.853,0.317 0.853,0.379 0.853,0.454 0.853,0.551 0.853,0.676 0.852,0.835 0.853,1.044 0.853,1.314 0.853,1.663 0.853,2.104 0.853,2.63 0.853,3.181 0.852,3.584 0.853,3.514 0.853,2.585 0.853,0.746 0.853,-1.389 0.853,-2.948 0.853,-3.553 0.852,-3.428 0.853,-2.959 0.853,-2.416 0.853,-1.927 0.853,-1.523 0.853,-1.206 0.853,-0.961 0.852,-0.771 0.853,-0.626 0.853,-0.511 0.853,-0.421 0.853,-0.351 0.853,-0.293 0.853,-0.248 0.852,-0.21 0.853,-0.179 0.853,-0.154 0.853,-0.132 0.853,-0.114 0.853,-0.099 0.853,-0.086 0.852,-0.074 0.853,-0.065 0.853,-0.055 0.853,-0.049 0.853,-0.041 0.853,-0.036 0.853,-0.03 0.852,-0.025 0.853,-0.021 0.853,-0.017 0.853,-0.013 0.853,-0.01 0.853,-0.006 0.853,-0.004 h 0.852 l 0.853,0.003 0.853,0.005 0.853,0.008 0.853,0.011 0.853,0.014 0.853,0.016 0.852,0.019 0.853,0.021 0.853,0.025 0.853,0.027 0.853,0.03 0.853,0.034 0.853,0.037 0.852,0.041 0.853,0.045 0.853,0.049 0.853,0.054 0.853,0.059 0.853,0.064 0.853,0.071 0.852,0.078 0.853,0.085 0.853,0.095 0.853,0.105 0.853,0.117 0.853,0.131 0.853,0.147 0.852,0.167 0.853,0.19 0.853,0.219 0.853,0.255 0.853,0.299 0.853,0.354 0.853,0.425 0.852,0.515 0.853,0.625 0.853,0.758 0.853,0.902 0.853,1.023 0.853,1.052 0.853,0.902 0.852,0.545 0.853,0.101 0.853,-0.227 0.853,-0.335 0.853,-0.256 0.853,-0.075 0.853,0.146 0.852,0.38 0.853,0.623 0.853,0.883 0.853,1.177 0.853,1.522 0.853,1.941 0.853,2.463 0.852,3.117 0.853,3.926 0.853,4.884 0.853,5.903 0.853,6.72 0.853,6.857 0.853,5.816 0.852,3.673 0.853,1.459 0.853,0.415 0.853,0.923 0.853,2.44 0.853,3.996 0.853,4.455 0.852,2.823 0.853,-0.917 0.853,-5.252 0.853,-8.231 0.853,-9.136 0.853,-8.529 0.853,-7.265 0.852,-5.91 0.853,-4.711 0.853,-3.734 0.853,-2.962 0.853,-2.362 0.853,-1.893 0.853,-1.527 0.852,-1.237 0.853,-1.004 0.853,-0.815 0.853,-0.66 0.853,-0.53 0.853,-0.419 0.853,-0.323 0.852,-0.238 0.853,-0.161 0.853,-0.09 0.853,-0.023 0.853,0.043 0.853,0.108 0.853,0.174 0.852,0.245 0.853,0.318 0.853,0.4 0.853,0.491 0.853,0.592 0.853,0.709 0.853,0.847 0.852,1.008 0.853,1.2 0.853,1.434 0.853,1.72 0.853,2.073 0.853,2.516 0.853,3.075 0.852,3.791 0.853,4.711 0.853,5.906 0.853,7.458 0.853,9.459 0.853,11.977 0.853,14.97 0.852,18.088 0.853,20.341 0.853,19.859 0.853,14.512 0.853,4.078 0.853,-7.993 0.853,-16.833 0.852,-20.315 0.853,-19.64 0.853,-16.985 0.853,-13.893 0.853,-11.087 0.853,-8.779 0.853,-6.962 0.852,-5.555 0.853,-4.471 0.853,-3.634 0.853,-2.983 0.853,-2.471 0.853,-2.065 0.853,-1.741 0.852,-1.478 0.853,-1.266 0.853,-1.09 0.853,-0.945 0.853,-0.824 0.853,-0.722 0.853,-0.636 0.852,-0.563 0.853,-0.5 0.853,-0.446 0.853,-0.399 0.853,-0.358 0.853,-0.323 0.853,-0.291 0.852,-0.263 0.853,-0.239 0.853,-0.217 0.853,-0.197 0.853,-0.18 0.853,-0.163 0.853,-0.15 0.852,-0.136 0.853,-0.124 0.853,-0.113 0.853,-0.104 0.853,-0.094 0.853,-0.085 0.853,-0.078 0.852,-0.069 0.853,-0.063 0.853,-0.056 0.853,-0.05 0.853,-0.044 0.853,-0.038 0.853,-0.033 0.852,-0.027 0.853,-0.022 0.853,-0.017 0.853,-0.011 0.853,-0.007 0.853,-0.001 0.853,0.003 0.852,0.009 0.853,0.014 0.853,0.02 H 342"
           style="fill:none;stroke:#00ffff;stroke-width:2;stroke-linecap:butt;stroke-linejoin:miter;stroke-miterlimit:10;stroke-dasharray:none;stroke-opacity:1"
           id="path62" /></g></g><g
       id="g64"><path
         d="m 11.25,62.016 v 1.371 H 5.566 l 0.153,-0.211 4.347,2.238 v 1.09 L 5.719,68.672 5.59,68.543 h 5.66 v 1.371 H 3.609 v -1.371 l 5.59,-2.848 v 0.668 l -5.59,-2.941 v -1.406 h 7.641 m 0.105,12.726 c 0,1.688 -1.148,2.824 -2.859,2.824 -1.641,0 -2.707,-1.043 -2.707,-2.648 0,-1.699 1.149,-2.824 2.871,-2.824 1.629,0 2.695,1.031 2.695,2.648 m -1.183,0.129 c 0,-0.832 -0.633,-1.359 -1.629,-1.359 -0.961,0 -1.57,0.492 -1.57,1.277 0,0.82 0.656,1.359 1.652,1.359 0.949,0 1.547,-0.492 1.547,-1.277 m 1.16,6.551 c 0,0.34 -0.082,0.726 -0.199,1.019 l -0.938,-0.293 c 0.035,-0.117 0.059,-0.234 0.059,-0.339 0,-0.329 -0.211,-0.504 -0.586,-0.504 H 3.117 v -1.383 h 6.727 c 0.926,0 1.488,0.562 1.488,1.5 m -0.082,5.613 v 0.996 H 8.027 c -1.441,0 -2.238,-0.82 -2.238,-2.402 0,-0.762 0.188,-1.582 0.516,-2.215 l 0.972,0.34 c -0.211,0.551 -0.328,1.09 -0.328,1.582 0,0.855 0.328,1.312 0.973,1.312 h 2.297 l 1.031,0.387 m 0.105,-1.875 c 0,1.184 -0.667,2.028 -1.828,2.297 L 9.316,87 c 0.575,-0.188 0.938,-0.727 0.938,-1.371 0,-0.539 -0.27,-0.902 -0.68,-0.902 -0.515,0 -0.726,0.609 -0.726,2.168 H 8.074 c 0,-2.485 0.516,-3.586 1.699,-3.586 0.961,0 1.582,0.726 1.582,1.851 m -0.105,5.262 v 1.406 H 7.57 L 5.895,91.535 v -1.113 h 5.355 m -3.047,1.137 c -0.656,0.293 -1.043,0.879 -1.043,1.535 0,0.222 0.047,0.48 0.117,0.679 l -1.289,0.329 c -0.093,-0.235 -0.14,-0.516 -0.14,-0.797 0,-0.703 0.375,-1.36 1.019,-1.746 h 1.336 m 3.047,6.316 v 1.512 l -6.914,2.25 v -0.317 l 6.914,2.239 v 1.57 l -7.641,-2.637 v -1.828 l 7.641,-2.789 m -1.91,1.793 v 3.656 L 8.074,103.113 V 99.855 L 9.34,99.668 m 2.015,9.902 c 0,1.5 -1.136,2.508 -2.835,2.508 -1.641,0 -2.731,-0.949 -2.731,-2.355 0,-0.985 0.527,-1.7 1.418,-2.051 l 0.527,0.422 c -0.504,0.199 -0.761,0.644 -0.761,1.172 0,0.867 0.632,1.394 1.64,1.394 0.961,0 1.559,-0.48 1.559,-1.277 0,-0.563 -0.293,-1.02 -0.785,-1.254 l 0.715,-0.481 c 0.82,0.329 1.253,0.985 1.253,1.922 m -0.105,-2.648 v 0.89 l -0.973,0.469 h -7.16 v -1.359 h 8.133 m 0.105,9.258 c 0,1.465 -0.644,2.332 -1.71,2.332 -2.004,0 -1.336,-3.024 -2.239,-3.024 -0.316,0 -0.515,0.375 -0.515,1.032 0,0.445 0.082,0.972 0.222,1.464 l -1.043,0.293 c -0.187,-0.492 -0.281,-1.125 -0.281,-1.722 0,-1.535 0.621,-2.426 1.711,-2.426 1.992,0 1.242,2.988 2.215,2.988 0.34,0 0.551,-0.363 0.551,-0.961 0,-0.515 -0.141,-1.23 -0.364,-1.793 l 1.043,-0.316 c 0.258,0.621 0.41,1.394 0.41,2.133 m 0,6.562 c 0,1.688 -1.148,2.824 -2.859,2.824 -1.641,0 -2.707,-1.043 -2.707,-2.648 0,-1.699 1.149,-2.824 2.871,-2.824 1.629,0 2.695,1.031 2.695,2.648 m -1.183,0.129 c 0,-0.832 -0.633,-1.359 -1.629,-1.359 -0.961,0 -1.57,0.492 -1.57,1.277 0,0.82 0.656,1.359 1.652,1.359 0.949,0 1.547,-0.492 1.547,-1.277 m 1.078,5.051 v 1.406 H 7.57 l -1.675,-0.293 v -1.113 h 5.355 m -3.047,1.137 c -0.656,0.293 -1.043,0.879 -1.043,1.535 0,0.222 0.047,0.48 0.117,0.679 l -1.289,0.329 c -0.093,-0.235 -0.14,-0.516 -0.14,-0.797 0,-0.703 0.375,-1.36 1.019,-1.746 h 1.336 m 3.152,6.796 c 0,1.442 -1.183,2.473 -2.859,2.473 -1.594,0 -2.707,-0.961 -2.707,-2.332 0,-0.844 0.434,-1.558 1.16,-1.957 l 0.645,0.352 c -0.387,0.281 -0.621,0.726 -0.621,1.207 0,0.808 0.632,1.312 1.629,1.312 0.96,0 1.57,-0.469 1.57,-1.242 0,-0.586 -0.352,-1.09 -0.902,-1.277 l 0.82,-0.399 c 0.808,0.305 1.265,0.985 1.265,1.863 m 2.286,-2.683 v 1.359 H 6.879 l -0.984,-0.41 v -0.949 h 7.746 m -2.309,9.621 c 0,0.363 -0.07,0.762 -0.187,1.102 l -1.008,-0.282 c 0.07,-0.152 0.105,-0.351 0.105,-0.515 0,-0.504 -0.293,-0.821 -0.762,-0.821 H 4.348 v -1.394 h 5.226 c 1.078,0 1.758,0.715 1.758,1.91 M 7.02,140.145 v 3.468 H 5.895 v -3.468 H 7.02 m 4.23,5.027 v 1.406 H 5.895 v -1.406 h 5.355 m -6.34,0.703 c 0,0.527 -0.34,0.867 -0.855,0.867 -0.539,0 -0.879,-0.34 -0.879,-0.867 0,-0.516 0.34,-0.855 0.879,-0.855 0.515,0 0.855,0.339 0.855,0.855 m 6.445,5.367 c 0,1.688 -1.148,2.824 -2.859,2.824 -1.641,0 -2.707,-1.043 -2.707,-2.648 0,-1.699 1.149,-2.824 2.871,-2.824 1.629,0 2.695,1.031 2.695,2.648 m -1.183,0.129 c 0,-0.832 -0.633,-1.359 -1.629,-1.359 -0.961,0 -1.57,0.492 -1.57,1.277 0,0.82 0.656,1.359 1.652,1.359 0.949,0 1.547,-0.492 1.547,-1.277 m 1.078,8.578 v 1.406 H 7.957 c -1.336,0 -2.145,-0.75 -2.145,-1.957 0,-0.773 0.34,-1.488 0.938,-1.98 l 0.855,0.199 c -0.375,0.363 -0.574,0.809 -0.574,1.301 0,0.68 0.387,1.031 1.114,1.031 h 3.105 m 0,-3.527 v 1.406 H 6.844 L 5.895,157.43 v -1.008 h 5.355 m 2.086,11.883 -0.598,0.996 c -1.254,-0.821 -2.812,-1.242 -4.617,-1.242 -1.605,0 -3.082,0.398 -4.559,1.23 L 3,168.27 c 1.582,-1.043 3.375,-1.571 5.191,-1.571 1.993,0 3.704,0.539 5.145,1.606 m -2.086,3.211 v 4.711 H 9.996 v -3.282 H 3.609 v -1.429 h 7.641 m 0.105,7.347 c 0,0.575 -0.398,0.949 -0.937,0.949 -0.563,0 -0.961,-0.374 -0.961,-0.949 0,-0.562 0.398,-0.937 0.961,-0.937 0.539,0 0.937,0.375 0.937,0.937 m -0.105,10.805 v 1.406 H 7.957 c -1.336,0 -2.145,-0.738 -2.145,-1.945 0,-0.762 0.34,-1.477 0.938,-1.969 l 0.855,0.211 c -0.375,0.352 -0.574,0.785 -0.574,1.277 0,0.68 0.387,1.02 1.114,1.02 h 3.105 m 0,-6.996 v 1.406 H 6.844 L 5.895,183.68 v -1.008 h 5.355 m 0,3.504 v 1.394 H 7.957 c -1.336,0 -2.145,-0.738 -2.145,-1.933 0,-0.774 0.34,-1.477 0.938,-1.969 l 0.855,0.199 c -0.375,0.352 -0.574,0.797 -0.574,1.278 0,0.679 0.387,1.031 1.114,1.031 h 3.105 m 0.105,10.066 c 0,1.688 -1.148,2.824 -2.859,2.824 -1.641,0 -2.707,-1.043 -2.707,-2.648 0,-1.699 1.149,-2.824 2.871,-2.824 1.629,0 2.695,1.031 2.695,2.648 m -1.183,0.129 c 0,-0.832 -0.633,-1.359 -1.629,-1.359 -0.961,0 -1.57,0.492 -1.57,1.277 0,0.82 0.656,1.359 1.652,1.359 0.949,0 1.547,-0.492 1.547,-1.277 m 1.16,6.551 c 0,0.34 -0.082,0.726 -0.199,1.019 l -0.938,-0.293 c 0.035,-0.117 0.059,-0.234 0.059,-0.339 0,-0.329 -0.211,-0.504 -0.586,-0.504 H 3.117 v -1.383 h 6.727 c 0.926,0 1.488,0.562 1.488,1.5"
         style="fill:#000000;fill-opacity:1;fill-rule:nonzero;stroke:none"
         id="path66" /></g><g
       id="g68"><path
         d="m 5.32,204.773 v 2.075 H 4.582 v -2.075 H 5.32 m 1.442,4.149 v 0.89 H 1.898 v -0.527 l 0.938,-1.851 0.633,0.339 -0.645,1.43 -0.281,-0.281 h 4.219"
         style="fill:#000000;fill-opacity:1;fill-rule:nonzero;stroke:none"
         id="path70" /></g><g
       id="g72"><path
         d="m 11.355,211.863 c 0,0.575 -0.398,0.949 -0.937,0.949 -0.563,0 -0.961,-0.374 -0.961,-0.949 0,-0.562 0.398,-0.937 0.961,-0.937 0.539,0 0.937,0.375 0.937,0.937 m 0,6.153 c 0,0.656 -0.14,1.265 -0.41,1.769 l -0.972,-0.316 c 0.164,-0.375 0.257,-0.785 0.257,-1.137 0,-0.996 -0.621,-1.559 -1.687,-1.559 -1.008,0 -1.57,0.504 -1.57,1.465 0,0.387 0.093,0.844 0.246,1.231 l -1.102,0.293 c -0.211,-0.457 -0.328,-1.02 -0.328,-1.571 0,-1.722 1.149,-2.847 2.906,-2.847 1.676,0 2.66,0.996 2.66,2.672 m -0.105,10.652 v 1.406 H 7.957 c -1.336,0 -2.145,-0.738 -2.145,-1.945 0,-0.762 0.34,-1.477 0.938,-1.969 l 0.855,0.211 c -0.375,0.352 -0.574,0.785 -0.574,1.277 0,0.68 0.387,1.02 1.114,1.02 h 3.105 m 0,-6.996 v 1.406 H 6.844 L 5.895,222.68 v -1.008 h 5.355 m 0,3.504 v 1.394 H 7.957 c -1.336,0 -2.145,-0.738 -2.145,-1.933 0,-0.774 0.34,-1.477 0.938,-1.969 l 0.855,0.199 c -0.375,0.352 -0.574,0.797 -0.574,1.278 0,0.679 0.387,1.031 1.114,1.031 h 3.105"
         style="fill:#000000;fill-opacity:1;fill-rule:nonzero;stroke:none"
         id="path74" /></g><g
       id="g76"><path
         d="m 5.32,232.523 v 2.075 H 4.582 v -2.075 H 5.32 m 1.442,4.149 v 0.89 H 1.898 v -0.527 l 0.938,-1.851 0.633,0.339 -0.645,1.43 -0.281,-0.281 h 4.219"
         style="fill:#000000;fill-opacity:1;fill-rule:nonzero;stroke:none"
         id="path78" /></g><g
       id="g80"><path
         d="m 13.336,239.484 c -1.441,1.067 -3.152,1.606 -5.145,1.606 -1.816,0 -3.609,-0.528 -5.191,-1.57 l 0.562,-1.02 c 1.477,0.832 2.954,1.23 4.559,1.23 1.805,0 3.363,-0.421 4.617,-1.242 z"
         style="fill:#000000;fill-opacity:1;fill-rule:nonzero;stroke:none"
         id="path82" /></g><g
       id="g84"><path
         d="m 36.363,35.895 c 1.699,0 2.754,1.488 2.754,3.984 0,2.391 -1.019,3.867 -2.683,3.867 -1.723,0 -2.801,-1.5 -2.801,-3.984 0,-2.403 1.043,-3.867 2.73,-3.867 m 0.059,0.773 c -1.149,0 -1.863,1.207 -1.863,3.211 0,1.922 0.703,3.094 1.804,3.094 1.125,0 1.828,-1.219 1.828,-3.211 0,-1.922 -0.668,-3.094 -1.769,-3.094"
         style="fill:#000000;fill-opacity:1;fill-rule:nonzero;stroke:none"
         id="path86" /></g><g
       id="g88"><path
         d="m 29.684,92.145 c 1.699,0 2.847,0.96 2.847,2.46 0,1.43 -1.043,2.333 -2.754,2.333 -0.422,0 -0.843,-0.047 -1.23,-0.141 l 0.223,-0.281 0.128,2.589 h 3.27 v 0.786 h -4.102 l -0.187,-3.914 c 0.492,0.117 1.137,0.187 1.617,0.187 1.301,0 2.098,-0.598 2.098,-1.641 0,-0.984 -0.727,-1.582 -1.852,-1.582 -0.656,0 -1.383,0.188 -1.957,0.493 l -0.269,-0.727 c 0.679,-0.363 1.394,-0.562 2.168,-0.562 m 6.679,0 c 1.699,0 2.754,1.488 2.754,3.984 0,2.391 -1.019,3.867 -2.683,3.867 -1.723,0 -2.801,-1.5 -2.801,-3.984 0,-2.403 1.043,-3.867 2.73,-3.867 m 0.059,0.773 c -1.149,0 -1.863,1.207 -1.863,3.211 0,1.922 0.703,3.094 1.804,3.094 1.125,0 1.828,-1.219 1.828,-3.211 0,-1.922 -0.668,-3.094 -1.769,-3.094"
         style="fill:#000000;fill-opacity:1;fill-rule:nonzero;stroke:none"
         id="path90" /></g><g
       id="g92"><path
         d="m 24.199,147.691 h 0.879 v 7.7 h -0.527 l -2.719,-1.407 0.328,-0.632 2.332,1.113 -0.293,0.281 v -7.055 m 5.414,-0.046 c 1.699,0 2.754,1.488 2.754,3.984 0,2.391 -1.019,3.867 -2.683,3.867 -1.723,0 -2.801,-1.5 -2.801,-3.984 0,-2.403 1.043,-3.867 2.73,-3.867 m 0.059,0.773 c -1.149,0 -1.863,1.207 -1.863,3.211 0,1.922 0.703,3.094 1.804,3.094 1.125,0 1.828,-1.219 1.828,-3.211 0,-1.922 -0.668,-3.094 -1.769,-3.094 m 6.691,-0.773 c 1.699,0 2.754,1.488 2.754,3.984 0,2.391 -1.019,3.867 -2.683,3.867 -1.723,0 -2.801,-1.5 -2.801,-3.984 0,-2.403 1.043,-3.867 2.73,-3.867 m 0.059,0.773 c -1.149,0 -1.863,1.207 -1.863,3.211 0,1.922 0.703,3.094 1.804,3.094 1.125,0 1.828,-1.219 1.828,-3.211 0,-1.922 -0.668,-3.094 -1.769,-3.094"
         style="fill:#000000;fill-opacity:1;fill-rule:nonzero;stroke:none"
         id="path94" /></g><g
       id="g96"><path
         d="m 24.949,203.941 h 0.879 v 7.7 h -0.527 l -2.719,-1.407 0.328,-0.632 2.332,1.113 -0.293,0.281 v -7.055 m 4.735,-0.046 c 1.699,0 2.847,0.96 2.847,2.46 0,1.43 -1.043,2.333 -2.754,2.333 -0.422,0 -0.843,-0.047 -1.23,-0.141 l 0.223,-0.281 0.128,2.589 h 3.27 v 0.786 h -4.102 l -0.187,-3.914 c 0.492,0.117 1.137,0.187 1.617,0.187 1.301,0 2.098,-0.598 2.098,-1.641 0,-0.984 -0.727,-1.582 -1.852,-1.582 -0.656,0 -1.383,0.188 -1.957,0.493 l -0.269,-0.727 c 0.679,-0.363 1.394,-0.562 2.168,-0.562 m 6.679,0 c 1.699,0 2.754,1.488 2.754,3.984 0,2.391 -1.019,3.867 -2.683,3.867 -1.723,0 -2.801,-1.5 -2.801,-3.984 0,-2.403 1.043,-3.867 2.73,-3.867 m 0.059,0.773 c -1.149,0 -1.863,1.207 -1.863,3.211 0,1.922 0.703,3.094 1.804,3.094 1.125,0 1.828,-1.219 1.828,-3.211 0,-1.922 -0.668,-3.094 -1.769,-3.094"
         style="fill:#000000;fill-opacity:1;fill-rule:nonzero;stroke:none"
         id="path98" /></g><g
       id="g100"><path
         d="m 20.754,260.25 h 4.851 v 0.797 h -3.914 l 0.118,-0.27 c 2.613,2.461 3.492,3.739 3.492,5.063 0,1.348 -0.914,2.156 -2.321,2.156 -0.914,0 -1.781,-0.328 -2.343,-0.867 l 0.246,-0.633 c 0.586,0.469 1.312,0.703 1.91,0.703 0.984,0 1.582,-0.586 1.582,-1.5 0,-1.113 -0.891,-2.261 -3.621,-4.84 v -0.609 m 8.859,-0.105 c 1.699,0 2.754,1.488 2.754,3.984 0,2.391 -1.019,3.867 -2.683,3.867 -1.723,0 -2.801,-1.5 -2.801,-3.984 0,-2.403 1.043,-3.867 2.73,-3.867 m 0.059,0.773 c -1.149,0 -1.863,1.207 -1.863,3.211 0,1.922 0.703,3.094 1.804,3.094 1.125,0 1.828,-1.219 1.828,-3.211 0,-1.922 -0.668,-3.094 -1.769,-3.094 m 6.691,-0.773 c 1.699,0 2.754,1.488 2.754,3.984 0,2.391 -1.019,3.867 -2.683,3.867 -1.723,0 -2.801,-1.5 -2.801,-3.984 0,-2.403 1.043,-3.867 2.73,-3.867 m 0.059,0.773 c -1.149,0 -1.863,1.207 -1.863,3.211 0,1.922 0.703,3.094 1.804,3.094 1.125,0 1.828,-1.219 1.828,-3.211 0,-1.922 -0.668,-3.094 -1.769,-3.094"
         style="fill:#000000;fill-opacity:1;fill-rule:nonzero;stroke:none"
         id="path102" /></g><g
       id="g104"><path
         d="m 43.5,95.812 h 0.75"
         style="fill:none;stroke:#000000;stroke-width:1;stroke-linecap:square;stroke-linejoin:bevel;stroke-miterlimit:10;stroke-dasharray:none;stroke-opacity:1"
         id="path106" /></g><g
       id="g108"><path
         d="m 43.5,151.875 h 0.75"
         style="fill:none;stroke:#000000;stroke-width:1;stroke-linecap:square;stroke-linejoin:bevel;stroke-miterlimit:10;stroke-dasharray:none;stroke-opacity:1"
         id="path110" /></g><g
       id="g112"><path
         d="m 43.5,207.938 h 0.75"
         style="fill:none;stroke:#000000;stroke-width:1;stroke-linecap:square;stroke-linejoin:bevel;stroke-miterlimit:10;stroke-dasharray:none;stroke-opacity:1"
         id="path114" /></g><g
       id="g116"><path
         d="M 43.5,264 V 39.75"
         style="fill:none;stroke:#000000;stroke-width:1;stroke-linecap:square;stroke-linejoin:bevel;stroke-miterlimit:10;stroke-dasharray:none;stroke-opacity:1"
         id="path118" /></g><g
       id="g120"><path
         d="m 43.5,95.812 h 6.75"
         style="fill:none;stroke:#000000;stroke-width:1;stroke-linecap:square;stroke-linejoin:bevel;stroke-miterlimit:10;stroke-dasharray:none;stroke-opacity:1"
         id="path122" /></g><g
       id="g124"><path
         d="m 43.5,151.875 h 6.75"
         style="fill:none;stroke:#000000;stroke-width:1;stroke-linecap:square;stroke-linejoin:bevel;stroke-miterlimit:10;stroke-dasharray:none;stroke-opacity:1"
         id="path126" /></g><g
       id="g128"><path
         d="m 43.5,207.938 h 6.75"
         style="fill:none;stroke:#000000;stroke-width:1;stroke-linecap:square;stroke-linejoin:bevel;stroke-miterlimit:10;stroke-dasharray:none;stroke-opacity:1"
         id="path130" /></g><g
       id="g132"><path
         d="m 43.5,50.962 h 3.75"
         style="fill:none;stroke:#000000;stroke-width:1;stroke-linecap:square;stroke-linejoin:bevel;stroke-miterlimit:10;stroke-dasharray:none;stroke-opacity:1"
         id="path134" /></g><g
       id="g136"><path
         d="m 43.5,62.175 h 3.75"
         style="fill:none;stroke:#000000;stroke-width:1;stroke-linecap:square;stroke-linejoin:bevel;stroke-miterlimit:10;stroke-dasharray:none;stroke-opacity:1"
         id="path138" /></g><g
       id="g140"><path
         d="m 43.5,73.387 h 3.75"
         style="fill:none;stroke:#000000;stroke-width:1;stroke-linecap:square;stroke-linejoin:bevel;stroke-miterlimit:10;stroke-dasharray:none;stroke-opacity:1"
         id="path142" /></g><g
       id="g144"><path
         d="m 43.5,84.6 h 3.75"
         style="fill:none;stroke:#000000;stroke-width:1;stroke-linecap:square;stroke-linejoin:bevel;stroke-miterlimit:10;stroke-dasharray:none;stroke-opacity:1"
         id="path146" /></g><g
       id="g148"><path
         d="m 43.5,107.025 h 3.75"
         style="fill:none;stroke:#000000;stroke-width:1;stroke-linecap:square;stroke-linejoin:bevel;stroke-miterlimit:10;stroke-dasharray:none;stroke-opacity:1"
         id="path150" /></g><g
       id="g152"><path
         d="m 43.5,118.237 h 3.75"
         style="fill:none;stroke:#000000;stroke-width:1;stroke-linecap:square;stroke-linejoin:bevel;stroke-miterlimit:10;stroke-dasharray:none;stroke-opacity:1"
         id="path154" /></g><g
       id="g156"><path
         d="m 43.5,129.45 h 3.75"
         style="fill:none;stroke:#000000;stroke-width:1;stroke-linecap:square;stroke-linejoin:bevel;stroke-miterlimit:10;stroke-dasharray:none;stroke-opacity:1"
         id="path158" /></g><g
       id="g160"><path
         d="m 43.5,140.662 h 3.75"
         style="fill:none;stroke:#000000;stroke-width:1;stroke-linecap:square;stroke-linejoin:bevel;stroke-miterlimit:10;stroke-dasharray:none;stroke-opacity:1"
         id="path162" /></g><g
       id="g164"><path
         d="m 43.5,163.087 h 3.75"
         style="fill:none;stroke:#000000;stroke-width:1;stroke-linecap:square;stroke-linejoin:bevel;stroke-miterlimit:10;stroke-dasharray:none;stroke-opacity:1"
         id="path166" /></g><g
       id="g168"><path
         d="m 43.5,174.3 h 3.75"
         style="fill:none;stroke:#000000;stroke-width:1;stroke-linecap:square;stroke-linejoin:bevel;stroke-miterlimit:10;stroke-dasharray:none;stroke-opacity:1"
         id="path170" /></g><g
       id="g172"><path
         d="m 43.5,185.512 h 3.75"
         style="fill:none;stroke:#000000;stroke-width:1;stroke-linecap:square;stroke-linejoin:bevel;stroke-miterlimit:10;stroke-dasharray:none;stroke-opacity:1"
         id="path174" /></g><g
       id="g176"><path
         d="m 43.5,196.725 h 3.75"
         style="fill:none;stroke:#000000;stroke-width:1;stroke-linecap:square;stroke-linejoin:bevel;stroke-miterlimit:10;stroke-dasharray:none;stroke-opacity:1"
         id="path178" /></g><g
       id="g180"><path
         d="m 43.5,219.15 h 3.75"
         style="fill:none;stroke:#000000;stroke-width:1;stroke-linecap:square;stroke-linejoin:bevel;stroke-miterlimit:10;stroke-dasharray:none;stroke-opacity:1"
         id="path182" /></g><g
       id="g184"><path
         d="m 43.5,230.362 h 3.75"
         style="fill:none;stroke:#000000;stroke-width:1;stroke-linecap:square;stroke-linejoin:bevel;stroke-miterlimit:10;stroke-dasharray:none;stroke-opacity:1"
         id="path186" /></g><g
       id="g188"><path
         d="m 43.5,241.575 h 3.75"
         style="fill:none;stroke:#000000;stroke-width:1;stroke-linecap:square;stroke-linejoin:bevel;stroke-miterlimit:10;stroke-dasharray:none;stroke-opacity:1"
         id="path190" /></g><g
       id="g192"><path
         d="m 43.5,252.787 h 3.75"
         style="fill:none;stroke:#000000;stroke-width:1;stroke-linecap:square;stroke-linejoin:bevel;stroke-miterlimit:10;stroke-dasharray:none;stroke-opacity:1"
         id="path194" /></g><g
       id="g196"><path
         d="m 342,95.812 h -0.75"
         style="fill:none;stroke:#000000;stroke-width:1;stroke-linecap:square;stroke-linejoin:bevel;stroke-miterlimit:10;stroke-dasharray:none;stroke-opacity:1"
         id="path198" /></g><g
       id="g200"><path
         d="m 342,151.875 h -0.75"
         style="fill:none;stroke:#000000;stroke-width:1;stroke-linecap:square;stroke-linejoin:bevel;stroke-miterlimit:10;stroke-dasharray:none;stroke-opacity:1"
         id="path202" /></g><g
       id="g204"><path
         d="m 342,207.938 h -0.75"
         style="fill:none;stroke:#000000;stroke-width:1;stroke-linecap:square;stroke-linejoin:bevel;stroke-miterlimit:10;stroke-dasharray:none;stroke-opacity:1"
         id="path206" /></g><g
       id="g208"><path
         d="M 342,264 V 39.75"
         style="fill:none;stroke:#000000;stroke-width:1;stroke-linecap:square;stroke-linejoin:bevel;stroke-miterlimit:10;stroke-dasharray:none;stroke-opacity:1"
         id="path210" /></g><g
       id="g212"><path
         d="m 342,95.812 h -6.75"
         style="fill:none;stroke:#000000;stroke-width:1;stroke-linecap:square;stroke-linejoin:bevel;stroke-miterlimit:10;stroke-dasharray:none;stroke-opacity:1"
         id="path214" /></g><g
       id="g216"><path
         d="m 342,151.875 h -6.75"
         style="fill:none;stroke:#000000;stroke-width:1;stroke-linecap:square;stroke-linejoin:bevel;stroke-miterlimit:10;stroke-dasharray:none;stroke-opacity:1"
         id="path218" /></g><g
       id="g220"><path
         d="m 342,207.938 h -6.75"
         style="fill:none;stroke:#000000;stroke-width:1;stroke-linecap:square;stroke-linejoin:bevel;stroke-miterlimit:10;stroke-dasharray:none;stroke-opacity:1"
         id="path222" /></g><g
       id="g224"><path
         d="m 342,50.962 h -3.75"
         style="fill:none;stroke:#000000;stroke-width:1;stroke-linecap:square;stroke-linejoin:bevel;stroke-miterlimit:10;stroke-dasharray:none;stroke-opacity:1"
         id="path226" /></g><g
       id="g228"><path
         d="m 342,62.175 h -3.75"
         style="fill:none;stroke:#000000;stroke-width:1;stroke-linecap:square;stroke-linejoin:bevel;stroke-miterlimit:10;stroke-dasharray:none;stroke-opacity:1"
         id="path230" /></g><g
       id="g232"><path
         d="m 342,73.387 h -3.75"
         style="fill:none;stroke:#000000;stroke-width:1;stroke-linecap:square;stroke-linejoin:bevel;stroke-miterlimit:10;stroke-dasharray:none;stroke-opacity:1"
         id="path234" /></g><g
       id="g236"><path
         d="m 342,84.6 h -3.75"
         style="fill:none;stroke:#000000;stroke-width:1;stroke-linecap:square;stroke-linejoin:bevel;stroke-miterlimit:10;stroke-dasharray:none;stroke-opacity:1"
         id="path238" /></g><g
       id="g240"><path
         d="m 342,107.025 h -3.75"
         style="fill:none;stroke:#000000;stroke-width:1;stroke-linecap:square;stroke-linejoin:bevel;stroke-miterlimit:10;stroke-dasharray:none;stroke-opacity:1"
         id="path242" /></g><g
       id="g244"><path
         d="m 342,118.237 h -3.75"
         style="fill:none;stroke:#000000;stroke-width:1;stroke-linecap:square;stroke-linejoin:bevel;stroke-miterlimit:10;stroke-dasharray:none;stroke-opacity:1"
         id="path246" /></g><g
       id="g248"><path
         d="m 342,129.45 h -3.75"
         style="fill:none;stroke:#000000;stroke-width:1;stroke-linecap:square;stroke-linejoin:bevel;stroke-miterlimit:10;stroke-dasharray:none;stroke-opacity:1"
         id="path250" /></g><g
       id="g252"><path
         d="m 342,140.662 h -3.75"
         style="fill:none;stroke:#000000;stroke-width:1;stroke-linecap:square;stroke-linejoin:bevel;stroke-miterlimit:10;stroke-dasharray:none;stroke-opacity:1"
         id="path254" /></g><g
       id="g256"><path
         d="m 342,163.087 h -3.75"
         style="fill:none;stroke:#000000;stroke-width:1;stroke-linecap:square;stroke-linejoin:bevel;stroke-miterlimit:10;stroke-dasharray:none;stroke-opacity:1"
         id="path258" /></g><g
       id="g260"><path
         d="m 342,174.3 h -3.75"
         style="fill:none;stroke:#000000;stroke-width:1;stroke-linecap:square;stroke-linejoin:bevel;stroke-miterlimit:10;stroke-dasharray:none;stroke-opacity:1"
         id="path262" /></g><g
       id="g264"><path
         d="m 342,185.512 h -3.75"
         style="fill:none;stroke:#000000;stroke-width:1;stroke-linecap:square;stroke-linejoin:bevel;stroke-miterlimit:10;stroke-dasharray:none;stroke-opacity:1"
         id="path266" /></g><g
       id="g268"><path
         d="m 342,196.725 h -3.75"
         style="fill:none;stroke:#000000;stroke-width:1;stroke-linecap:square;stroke-linejoin:bevel;stroke-miterlimit:10;stroke-dasharray:none;stroke-opacity:1"
         id="path270" /></g><g
       id="g272"><path
         d="m 342,219.15 h -3.75"
         style="fill:none;stroke:#000000;stroke-width:1;stroke-linecap:square;stroke-linejoin:bevel;stroke-miterlimit:10;stroke-dasharray:none;stroke-opacity:1"
         id="path274" /></g><g
       id="g276"><path
         d="m 342,230.362 h -3.75"
         style="fill:none;stroke:#000000;stroke-width:1;stroke-linecap:square;stroke-linejoin:bevel;stroke-miterlimit:10;stroke-dasharray:none;stroke-opacity:1"
         id="path278" /></g><g
       id="g280"><path
         d="m 342,241.575 h -3.75"
         style="fill:none;stroke:#000000;stroke-width:1;stroke-linecap:square;stroke-linejoin:bevel;stroke-miterlimit:10;stroke-dasharray:none;stroke-opacity:1"
         id="path282" /></g><g
       id="g284"><path
         d="m 342,252.787 h -3.75"
         style="fill:none;stroke:#000000;stroke-width:1;stroke-linecap:square;stroke-linejoin:bevel;stroke-miterlimit:10;stroke-dasharray:none;stroke-opacity:1"
         id="path286" /></g><g
       id="g288"><path
         d="m 139.547,3 h 1.512 l 1.992,6.902 h -0.68 L 144.516,3 h 1.476 l 2.227,7.641 h -1.43 l -1.805,-6.95 0.621,0.129 -2.027,6.774 h -1.558 l -1.922,-6.797 h 0.504 l -1.688,6.844 h -1.617 L 139.547,3 m 13.863,0 h 0.996 v 3.223 c 0,1.441 -0.82,2.238 -2.402,2.238 -0.762,0 -1.582,-0.188 -2.215,-0.516 l 0.34,-0.972 c 0.551,0.211 1.09,0.328 1.582,0.328 0.855,0 1.312,-0.328 1.312,-0.973 V 4.031 L 153.41,3 m -1.875,-0.105 c 1.184,0 2.027,0.667 2.297,1.828 l -0.457,0.211 c -0.187,-0.575 -0.727,-0.938 -1.371,-0.938 -0.539,0 -0.902,0.27 -0.902,0.68 0,0.515 0.609,0.726 2.168,0.726 v 0.774 c -2.485,0 -3.586,-0.516 -3.586,-1.699 0,-0.961 0.726,-1.582 1.851,-1.582 M 158.121,3 h 1.395 l 2.074,5.355 h -1.406 l -1.524,-4.57 h 0.363 l -1.441,4.57 h -1.547 L 158.121,3 m 8.039,-0.105 c 0.633,0 1.313,0.128 1.887,0.375 l -0.305,0.96 c -0.433,-0.175 -0.902,-0.269 -1.359,-0.269 -1.149,0 -1.77,0.644 -1.77,1.887 0,0.996 0.41,1.535 1.16,1.535 0.704,0 1.102,-0.445 1.102,-1.231 h -2.449 V 5.285 h 3.715 c 0.035,0.223 0.058,0.551 0.058,0.809 0,1.453 -0.89,2.367 -2.32,2.367 -1.594,0 -2.66,-1.137 -2.66,-2.801 0,-1.722 1.113,-2.765 2.941,-2.765 M 174.574,3 h 1.406 v 3.293 c 0,1.336 -0.75,2.145 -1.957,2.145 -0.773,0 -1.488,-0.34 -1.98,-0.938 l 0.199,-0.855 c 0.363,0.375 0.809,0.574 1.301,0.574 0.68,0 1.031,-0.387 1.031,-1.114 V 3 m -3.527,0 h 1.406 v 4.406 l -0.398,0.949 h -1.008 V 3 m 9.269,-0.094 c 0.739,0 1.442,0.34 1.934,0.949 l -0.211,0.856 c -0.328,-0.363 -0.762,-0.574 -1.207,-0.574 -0.762,0 -0.984,0.574 -0.984,1.113 v 3.105 h -1.407 V 4.934 c 0,-1.231 0.762,-2.028 1.875,-2.028 M 182.238,3 h 1.008 V 8.355 H 181.84 V 3.938 L 182.238,3 m 10.055,0 h 1.406 v 3.293 c 0,1.336 -0.738,2.145 -1.945,2.145 -0.762,0 -1.477,-0.34 -1.969,-0.938 l 0.211,-0.855 c 0.352,0.375 0.785,0.574 1.277,0.574 0.68,0 1.02,-0.387 1.02,-1.114 V 3 m -6.996,0 h 1.406 v 4.406 l -0.398,0.949 h -1.008 V 3 m 3.504,0 h 1.394 v 3.293 c 0,1.336 -0.738,2.145 -1.933,2.145 -0.774,0 -1.477,-0.34 -1.969,-0.938 l 0.199,-0.855 c 0.352,0.375 0.797,0.574 1.278,0.574 0.679,0 1.031,-0.387 1.031,-1.114 V 3 m 10.394,-0.105 c 1.5,0 2.508,1.136 2.508,2.835 0,1.641 -0.949,2.731 -2.355,2.731 -0.985,0 -1.7,-0.527 -2.051,-1.418 l 0.422,-0.527 c 0.199,0.504 0.644,0.761 1.172,0.761 0.867,0 1.394,-0.632 1.394,-1.64 0,-0.961 -0.48,-1.559 -1.277,-1.559 -0.563,0 -1.02,0.293 -1.254,0.785 l -0.481,-0.715 c 0.329,-0.82 0.985,-1.253 1.922,-1.253 M 196.547,3 h 0.891 l 0.468,0.973 v 7.16 h -1.359 V 3 M 206.66,2.895 c 0.633,0 1.313,0.128 1.887,0.375 l -0.305,0.96 c -0.433,-0.175 -0.902,-0.269 -1.359,-0.269 -1.149,0 -1.77,0.644 -1.77,1.887 0,0.996 0.41,1.535 1.16,1.535 0.704,0 1.102,-0.445 1.102,-1.231 h -2.449 V 5.285 h 3.715 c 0.035,0.223 0.058,0.551 0.058,0.809 0,1.453 -0.89,2.367 -2.32,2.367 -1.594,0 -2.66,-1.137 -2.66,-2.801 0,-1.722 1.113,-2.765 2.941,-2.765 M 211.547,3 h 1.406 v 3.68 l -0.293,1.675 h -1.113 V 3 m 1.137,3.047 c 0.293,0.656 0.878,1.043 1.535,1.043 0.222,0 0.48,-0.047 0.679,-0.117 l 0.329,1.289 c -0.235,0.093 -0.516,0.14 -0.797,0.14 -0.703,0 -1.36,-0.375 -1.746,-1.019 V 6.047 m 8.496,-5.133 0.996,0.598 c -0.821,1.254 -1.242,2.812 -1.242,4.617 0,1.605 0.398,3.082 1.23,4.559 l -1.019,0.562 c -1.043,-1.582 -1.571,-3.375 -1.571,-5.191 0,-1.993 0.539,-3.704 1.606,-5.145 m 5.461,1.981 c 0.656,0 1.265,0.14 1.769,0.41 l -0.316,0.972 c -0.375,-0.164 -0.785,-0.257 -1.137,-0.257 -0.996,0 -1.559,0.621 -1.559,1.687 0,1.008 0.504,1.57 1.465,1.57 0.387,0 0.844,-0.093 1.231,-0.246 l 0.293,1.102 c -0.457,0.211 -1.02,0.328 -1.571,0.328 -1.722,0 -2.847,-1.149 -2.847,-2.906 0,-1.676 0.996,-2.66 2.672,-2.66 M 237.293,3 h 1.406 v 3.293 c 0,1.336 -0.738,2.145 -1.945,2.145 -0.762,0 -1.477,-0.34 -1.969,-0.938 l 0.211,-0.855 c 0.352,0.375 0.785,0.574 1.277,0.574 0.68,0 1.02,-0.387 1.02,-1.114 V 3 m -6.996,0 h 1.406 v 4.406 l -0.398,0.949 h -1.008 V 3 m 3.504,0 h 1.394 v 3.293 c 0,1.336 -0.738,2.145 -1.933,2.145 -0.774,0 -1.477,-0.34 -1.969,-0.938 l 0.199,-0.855 c 0.352,0.375 0.797,0.574 1.278,0.574 0.679,0 1.031,-0.387 1.031,-1.114 V 3"
         style="fill:#000000;fill-opacity:1;fill-rule:nonzero;stroke:none"
         id="path290" /></g><g
       id="g292"><path
         d="m 241.148,8.93 h 2.075 v 0.738 h -2.075 V 8.93 m 4.149,-1.442 h 0.891 v 4.864 h -0.528 l -1.851,-0.938 0.339,-0.633 1.43,0.645 -0.281,0.281 V 7.488"
         style="fill:#000000;fill-opacity:1;fill-rule:nonzero;stroke:none"
         id="path294" /></g><g
       id="g296"><path
         d="m 248.109,0.914 c 1.067,1.441 1.606,3.152 1.606,5.145 0,1.816 -0.527,3.609 -1.57,5.191 l -1.02,-0.562 c 0.832,-1.477 1.23,-2.954 1.23,-4.559 0,-1.805 -0.421,-3.363 -1.242,-4.617 z"
         style="fill:#000000;fill-opacity:1;fill-rule:nonzero;stroke:none"
         id="path298" /></g><g
       id="g300"><path
         d="m 40.09,23.895 c 1.476,0 2.519,1.031 2.519,2.519 0,1.371 -0.902,2.285 -2.226,2.285 -1.149,0 -2.051,-0.668 -2.309,-1.734 l 0.188,-0.469 c 0.234,0.914 0.949,1.442 1.863,1.442 0.996,0 1.617,-0.633 1.617,-1.641 0,-0.961 -0.586,-1.617 -1.547,-1.617 -1.254,0 -1.922,1.054 -1.922,3.047 0,2.144 0.774,3.222 2.391,3.222 0.539,0 1.09,-0.129 1.582,-0.375 l 0.258,0.715 c -0.598,0.316 -1.172,0.457 -1.793,0.457 -2.109,0 -3.328,-1.547 -3.328,-4.148 0,-2.344 0.984,-3.703 2.707,-3.703 m 6.773,0 c 1.699,0 2.754,1.488 2.754,3.984 0,2.391 -1.019,3.867 -2.683,3.867 -1.723,0 -2.801,-1.5 -2.801,-3.984 0,-2.403 1.043,-3.867 2.73,-3.867 m 0.059,0.773 c -1.149,0 -1.863,1.207 -1.863,3.211 0,1.922 0.703,3.094 1.804,3.094 1.125,0 1.828,-1.219 1.828,-3.211 0,-1.922 -0.668,-3.094 -1.769,-3.094"
         style="fill:#000000;fill-opacity:1;fill-rule:nonzero;stroke:none"
         id="path302" /></g><g
       id="g304"><path
         d="m 80.812,24 h 0.938 l 3.164,7.195 v 0.446 h -5.121 v -0.797 h 4.383 L 83.988,31.184 80.812,24 m 8.801,-0.105 c 1.699,0 2.754,1.488 2.754,3.984 0,2.391 -1.019,3.867 -2.683,3.867 -1.723,0 -2.801,-1.5 -2.801,-3.984 0,-2.403 1.043,-3.867 2.73,-3.867 m 0.059,0.773 c -1.149,0 -1.863,1.207 -1.863,3.211 0,1.922 0.703,3.094 1.804,3.094 1.125,0 1.828,-1.219 1.828,-3.211 0,-1.922 -0.668,-3.094 -1.769,-3.094"
         style="fill:#000000;fill-opacity:1;fill-rule:nonzero;stroke:none"
         id="path306" /></g><g
       id="g308"><path
         d="m 125.449,23.895 c 1.606,0 2.672,0.82 2.672,2.027 0,2.449 -4.148,1.98 -4.148,3.914 0,0.691 0.539,1.148 1.382,1.148 0.903,0 1.547,-0.504 1.547,-1.23 0,-0.703 -0.609,-1.301 -1.511,-1.488 l 0.679,-0.352 c 1.055,0.316 1.711,1.102 1.711,1.992 0,1.102 -0.961,1.84 -2.32,1.84 -1.418,0 -2.379,-0.808 -2.379,-1.992 0,-2.508 4.102,-1.922 4.102,-3.867 0,-0.739 -0.586,-1.207 -1.582,-1.207 -1.09,0 -1.864,0.539 -1.864,1.359 0,0.785 0.668,1.418 1.7,1.559 l -0.586,0.375 c -1.231,-0.164 -2.051,-1.02 -2.051,-2.063 0,-1.207 1.078,-2.015 2.648,-2.015 m 6.914,0 c 1.699,0 2.754,1.488 2.754,3.984 0,2.391 -1.019,3.867 -2.683,3.867 -1.723,0 -2.801,-1.5 -2.801,-3.984 0,-2.403 1.043,-3.867 2.73,-3.867 m 0.059,0.773 c -1.149,0 -1.863,1.207 -1.863,3.211 0,1.922 0.703,3.094 1.804,3.094 1.125,0 1.828,-1.219 1.828,-3.211 0,-1.922 -0.668,-3.094 -1.769,-3.094"
         style="fill:#000000;fill-opacity:1;fill-rule:nonzero;stroke:none"
         id="path310" /></g><g
       id="g312"><path
         d="m 168.082,31.746 c -1.477,0 -2.52,-1.031 -2.52,-2.519 0,-1.372 0.903,-2.286 2.227,-2.286 1.137,0 2.039,0.668 2.309,1.735 l -0.188,0.469 c -0.246,-0.915 -0.961,-1.442 -1.875,-1.442 -0.984,0 -1.605,0.633 -1.605,1.641 0,0.961 0.586,1.617 1.547,1.617 1.253,0 1.921,-1.055 1.921,-3.047 0,-2.144 -0.785,-3.223 -2.402,-3.223 -0.527,0 -1.09,0.129 -1.57,0.375 l -0.27,-0.714 c 0.61,-0.317 1.184,-0.457 1.793,-0.457 2.121,0 3.34,1.546 3.34,4.148 0,2.344 -0.984,3.703 -2.707,3.703 m 7.031,-7.851 c 1.699,0 2.754,1.488 2.754,3.984 0,2.391 -1.019,3.867 -2.683,3.867 -1.723,0 -2.801,-1.5 -2.801,-3.984 0,-2.403 1.043,-3.867 2.73,-3.867 m 0.059,0.773 c -1.149,0 -1.863,1.207 -1.863,3.211 0,1.922 0.703,3.094 1.804,3.094 1.125,0 1.828,-1.219 1.828,-3.211 0,-1.922 -0.668,-3.094 -1.769,-3.094"
         style="fill:#000000;fill-opacity:1;fill-rule:nonzero;stroke:none"
         id="path314" /></g><g
       id="g316"><path
         d="m 207.199,23.941 h 0.879 v 7.7 h -0.527 l -2.719,-1.407 0.328,-0.632 2.332,1.113 -0.293,0.281 v -7.055 m 5.414,-0.046 c 1.699,0 2.754,1.488 2.754,3.984 0,2.391 -1.019,3.867 -2.683,3.867 -1.723,0 -2.801,-1.5 -2.801,-3.984 0,-2.403 1.043,-3.867 2.73,-3.867 m 0.059,0.773 c -1.149,0 -1.863,1.207 -1.863,3.211 0,1.922 0.703,3.094 1.804,3.094 1.125,0 1.828,-1.219 1.828,-3.211 0,-1.922 -0.668,-3.094 -1.769,-3.094 m 6.691,-0.773 c 1.699,0 2.754,1.488 2.754,3.984 0,2.391 -1.019,3.867 -2.683,3.867 -1.723,0 -2.801,-1.5 -2.801,-3.984 0,-2.403 1.043,-3.867 2.73,-3.867 m 0.059,0.773 c -1.149,0 -1.863,1.207 -1.863,3.211 0,1.922 0.703,3.094 1.804,3.094 1.125,0 1.828,-1.219 1.828,-3.211 0,-1.922 -0.668,-3.094 -1.769,-3.094"
         style="fill:#000000;fill-opacity:1;fill-rule:nonzero;stroke:none"
         id="path318" /></g><g
       id="g320"><path
         d="m 251.449,23.941 h 0.879 v 7.7 h -0.527 l -2.719,-1.407 0.328,-0.632 2.332,1.113 -0.293,0.281 v -7.055 m 4.5,0 h 0.879 v 7.7 h -0.527 l -2.719,-1.407 0.328,-0.632 2.332,1.113 -0.293,0.281 v -7.055 m 5.414,-0.046 c 1.699,0 2.754,1.488 2.754,3.984 0,2.391 -1.019,3.867 -2.683,3.867 -1.723,0 -2.801,-1.5 -2.801,-3.984 0,-2.403 1.043,-3.867 2.73,-3.867 m 0.059,0.773 c -1.149,0 -1.863,1.207 -1.863,3.211 0,1.922 0.703,3.094 1.804,3.094 1.125,0 1.828,-1.219 1.828,-3.211 0,-1.922 -0.668,-3.094 -1.769,-3.094"
         style="fill:#000000;fill-opacity:1;fill-rule:nonzero;stroke:none"
         id="path322" /></g><g
       id="g324"><path
         d="m 293.449,23.941 h 0.879 v 7.7 h -0.527 l -2.719,-1.407 0.328,-0.632 2.332,1.113 -0.293,0.281 V 23.941 M 296.004,24 h 4.851 v 0.797 h -3.914 l 0.118,-0.27 c 2.613,2.461 3.492,3.739 3.492,5.063 0,1.348 -0.914,2.156 -2.321,2.156 -0.914,0 -1.781,-0.328 -2.343,-0.867 l 0.246,-0.633 c 0.586,0.469 1.312,0.703 1.91,0.703 0.984,0 1.582,-0.586 1.582,-1.5 0,-1.113 -0.891,-2.261 -3.621,-4.84 V 24 m 8.859,-0.105 c 1.699,0 2.754,1.488 2.754,3.984 0,2.391 -1.019,3.867 -2.683,3.867 -1.723,0 -2.801,-1.5 -2.801,-3.984 0,-2.403 1.043,-3.867 2.73,-3.867 m 0.059,0.773 c -1.149,0 -1.863,1.207 -1.863,3.211 0,1.922 0.703,3.094 1.804,3.094 1.125,0 1.828,-1.219 1.828,-3.211 0,-1.922 -0.668,-3.094 -1.769,-3.094"
         style="fill:#000000;fill-opacity:1;fill-rule:nonzero;stroke:none"
         id="path326" /></g><g
       id="g328"><path
         d="m 336.199,23.941 h 0.879 v 7.7 h -0.527 l -2.719,-1.407 0.328,-0.632 2.332,1.113 -0.293,0.281 v -7.055 m 4.887,-0.058 c 1.676,0 2.836,0.879 2.836,2.203 0,1.113 -0.856,1.898 -2.156,1.934 l -0.164,-0.129 c 1.136,0.023 1.921,0.797 1.921,1.851 0,1.219 -0.984,1.992 -2.402,1.992 -0.785,0 -1.676,-0.246 -2.32,-0.621 l 0.211,-0.679 c 0.679,0.339 1.394,0.515 1.957,0.515 0.984,0 1.699,-0.504 1.699,-1.289 0,-0.844 -0.82,-1.394 -1.945,-1.394 h -0.586 V 27.48 h 0.785 c 1.277,0 2.086,-0.55 2.086,-1.453 0,-0.855 -0.75,-1.336 -1.887,-1.336 -0.668,0 -1.559,0.164 -2.273,0.516 l -0.2,-0.738 c 0.739,-0.375 1.641,-0.586 2.438,-0.586 m 6.527,0.012 c 1.699,0 2.754,1.488 2.754,3.984 0,2.391 -1.019,3.867 -2.683,3.867 -1.723,0 -2.801,-1.5 -2.801,-3.984 0,-2.403 1.043,-3.867 2.73,-3.867 m 0.059,0.773 c -1.149,0 -1.863,1.207 -1.863,3.211 0,1.922 0.703,3.094 1.804,3.094 1.125,0 1.828,-1.219 1.828,-3.211 0,-1.922 -0.668,-3.094 -1.769,-3.094"
         style="fill:#000000;fill-opacity:1;fill-rule:nonzero;stroke:none"
         id="path330" /></g><g
       id="g332"><path
         d="M 86.143,39.75 V 40.5"
         style="fill:none;stroke:#000000;stroke-width:1;stroke-linecap:square;stroke-linejoin:bevel;stroke-miterlimit:10;stroke-dasharray:none;stroke-opacity:1"
         id="path334" /></g><g
       id="g336"><path
         d="M 128.786,39.75 V 40.5"
         style="fill:none;stroke:#000000;stroke-width:1;stroke-linecap:square;stroke-linejoin:bevel;stroke-miterlimit:10;stroke-dasharray:none;stroke-opacity:1"
         id="path338" /></g><g
       id="g340"><path
         d="M 171.429,39.75 V 40.5"
         style="fill:none;stroke:#000000;stroke-width:1;stroke-linecap:square;stroke-linejoin:bevel;stroke-miterlimit:10;stroke-dasharray:none;stroke-opacity:1"
         id="path342" /></g><g
       id="g344"><path
         d="M 214.071,39.75 V 40.5"
         style="fill:none;stroke:#000000;stroke-width:1;stroke-linecap:square;stroke-linejoin:bevel;stroke-miterlimit:10;stroke-dasharray:none;stroke-opacity:1"
         id="path346" /></g><g
       id="g348"><path
         d="M 256.714,39.75 V 40.5"
         style="fill:none;stroke:#000000;stroke-width:1;stroke-linecap:square;stroke-linejoin:bevel;stroke-miterlimit:10;stroke-dasharray:none;stroke-opacity:1"
         id="path350" /></g><g
       id="g352"><path
         d="M 299.357,39.75 V 40.5"
         style="fill:none;stroke:#000000;stroke-width:1;stroke-linecap:square;stroke-linejoin:bevel;stroke-miterlimit:10;stroke-dasharray:none;stroke-opacity:1"
         id="path354" /></g><g
       id="g356"><path
         d="M 43.5,39.75 H 342"
         style="fill:none;stroke:#000000;stroke-width:1;stroke-linecap:square;stroke-linejoin:bevel;stroke-miterlimit:10;stroke-dasharray:none;stroke-opacity:1"
         id="path358" /></g><g
       id="g360"><path
         d="M 86.143,39.75 V 46.5"
         style="fill:none;stroke:#000000;stroke-width:1;stroke-linecap:square;stroke-linejoin:bevel;stroke-miterlimit:10;stroke-dasharray:none;stroke-opacity:1"
         id="path362" /></g><g
       id="g364"><path
         d="M 128.786,39.75 V 46.5"
         style="fill:none;stroke:#000000;stroke-width:1;stroke-linecap:square;stroke-linejoin:bevel;stroke-miterlimit:10;stroke-dasharray:none;stroke-opacity:1"
         id="path366" /></g><g
       id="g368"><path
         d="M 171.429,39.75 V 46.5"
         style="fill:none;stroke:#000000;stroke-width:1;stroke-linecap:square;stroke-linejoin:bevel;stroke-miterlimit:10;stroke-dasharray:none;stroke-opacity:1"
         id="path370" /></g><g
       id="g372"><path
         d="M 214.071,39.75 V 46.5"
         style="fill:none;stroke:#000000;stroke-width:1;stroke-linecap:square;stroke-linejoin:bevel;stroke-miterlimit:10;stroke-dasharray:none;stroke-opacity:1"
         id="path374" /></g><g
       id="g376"><path
         d="M 256.714,39.75 V 46.5"
         style="fill:none;stroke:#000000;stroke-width:1;stroke-linecap:square;stroke-linejoin:bevel;stroke-miterlimit:10;stroke-dasharray:none;stroke-opacity:1"
         id="path378" /></g><g
       id="g380"><path
         d="M 299.357,39.75 V 46.5"
         style="fill:none;stroke:#000000;stroke-width:1;stroke-linecap:square;stroke-linejoin:bevel;stroke-miterlimit:10;stroke-dasharray:none;stroke-opacity:1"
         id="path382" /></g><g
       id="g384"><path
         d="M 52.029,39.75 V 43.5"
         style="fill:none;stroke:#000000;stroke-width:1;stroke-linecap:square;stroke-linejoin:bevel;stroke-miterlimit:10;stroke-dasharray:none;stroke-opacity:1"
         id="path386" /></g><g
       id="g388"><path
         d="M 60.557,39.75 V 43.5"
         style="fill:none;stroke:#000000;stroke-width:1;stroke-linecap:square;stroke-linejoin:bevel;stroke-miterlimit:10;stroke-dasharray:none;stroke-opacity:1"
         id="path390" /></g><g
       id="g392"><path
         d="M 69.086,39.75 V 43.5"
         style="fill:none;stroke:#000000;stroke-width:1;stroke-linecap:square;stroke-linejoin:bevel;stroke-miterlimit:10;stroke-dasharray:none;stroke-opacity:1"
         id="path394" /></g><g
       id="g396"><path
         d="M 77.614,39.75 V 43.5"
         style="fill:none;stroke:#000000;stroke-width:1;stroke-linecap:square;stroke-linejoin:bevel;stroke-miterlimit:10;stroke-dasharray:none;stroke-opacity:1"
         id="path398" /></g><g
       id="g400"><path
         d="M 94.671,39.75 V 43.5"
         style="fill:none;stroke:#000000;stroke-width:1;stroke-linecap:square;stroke-linejoin:bevel;stroke-miterlimit:10;stroke-dasharray:none;stroke-opacity:1"
         id="path402" /></g><g
       id="g404"><path
         d="M 103.2,39.75 V 43.5"
         style="fill:none;stroke:#000000;stroke-width:1;stroke-linecap:square;stroke-linejoin:bevel;stroke-miterlimit:10;stroke-dasharray:none;stroke-opacity:1"
         id="path406" /></g><g
       id="g408"><path
         d="M 111.729,39.75 V 43.5"
         style="fill:none;stroke:#000000;stroke-width:1;stroke-linecap:square;stroke-linejoin:bevel;stroke-miterlimit:10;stroke-dasharray:none;stroke-opacity:1"
         id="path410" /></g><g
       id="g412"><path
         d="M 120.257,39.75 V 43.5"
         style="fill:none;stroke:#000000;stroke-width:1;stroke-linecap:square;stroke-linejoin:bevel;stroke-miterlimit:10;stroke-dasharray:none;stroke-opacity:1"
         id="path414" /></g><g
       id="g416"><path
         d="M 137.314,39.75 V 43.5"
         style="fill:none;stroke:#000000;stroke-width:1;stroke-linecap:square;stroke-linejoin:bevel;stroke-miterlimit:10;stroke-dasharray:none;stroke-opacity:1"
         id="path418" /></g><g
       id="g420"><path
         d="M 145.843,39.75 V 43.5"
         style="fill:none;stroke:#000000;stroke-width:1;stroke-linecap:square;stroke-linejoin:bevel;stroke-miterlimit:10;stroke-dasharray:none;stroke-opacity:1"
         id="path422" /></g><g
       id="g424"><path
         d="M 154.371,39.75 V 43.5"
         style="fill:none;stroke:#000000;stroke-width:1;stroke-linecap:square;stroke-linejoin:bevel;stroke-miterlimit:10;stroke-dasharray:none;stroke-opacity:1"
         id="path426" /></g><g
       id="g428"><path
         d="M 162.9,39.75 V 43.5"
         style="fill:none;stroke:#000000;stroke-width:1;stroke-linecap:square;stroke-linejoin:bevel;stroke-miterlimit:10;stroke-dasharray:none;stroke-opacity:1"
         id="path430" /></g><g
       id="g432"><path
         d="M 179.957,39.75 V 43.5"
         style="fill:none;stroke:#000000;stroke-width:1;stroke-linecap:square;stroke-linejoin:bevel;stroke-miterlimit:10;stroke-dasharray:none;stroke-opacity:1"
         id="path434" /></g><g
       id="g436"><path
         d="M 188.486,39.75 V 43.5"
         style="fill:none;stroke:#000000;stroke-width:1;stroke-linecap:square;stroke-linejoin:bevel;stroke-miterlimit:10;stroke-dasharray:none;stroke-opacity:1"
         id="path438" /></g><g
       id="g440"><path
         d="M 197.014,39.75 V 43.5"
         style="fill:none;stroke:#000000;stroke-width:1;stroke-linecap:square;stroke-linejoin:bevel;stroke-miterlimit:10;stroke-dasharray:none;stroke-opacity:1"
         id="path442" /></g><g
       id="g444"><path
         d="M 205.543,39.75 V 43.5"
         style="fill:none;stroke:#000000;stroke-width:1;stroke-linecap:square;stroke-linejoin:bevel;stroke-miterlimit:10;stroke-dasharray:none;stroke-opacity:1"
         id="path446" /></g><g
       id="g448"><path
         d="M 222.6,39.75 V 43.5"
         style="fill:none;stroke:#000000;stroke-width:1;stroke-linecap:square;stroke-linejoin:bevel;stroke-miterlimit:10;stroke-dasharray:none;stroke-opacity:1"
         id="path450" /></g><g
       id="g452"><path
         d="M 231.129,39.75 V 43.5"
         style="fill:none;stroke:#000000;stroke-width:1;stroke-linecap:square;stroke-linejoin:bevel;stroke-miterlimit:10;stroke-dasharray:none;stroke-opacity:1"
         id="path454" /></g><g
       id="g456"><path
         d="M 239.657,39.75 V 43.5"
         style="fill:none;stroke:#000000;stroke-width:1;stroke-linecap:square;stroke-linejoin:bevel;stroke-miterlimit:10;stroke-dasharray:none;stroke-opacity:1"
         id="path458" /></g><g
       id="g460"><path
         d="M 248.186,39.75 V 43.5"
         style="fill:none;stroke:#000000;stroke-width:1;stroke-linecap:square;stroke-linejoin:bevel;stroke-miterlimit:10;stroke-dasharray:none;stroke-opacity:1"
         id="path462" /></g><g
       id="g464"><path
         d="M 265.243,39.75 V 43.5"
         style="fill:none;stroke:#000000;stroke-width:1;stroke-linecap:square;stroke-linejoin:bevel;stroke-miterlimit:10;stroke-dasharray:none;stroke-opacity:1"
         id="path466" /></g><g
       id="g468"><path
         d="M 273.771,39.75 V 43.5"
         style="fill:none;stroke:#000000;stroke-width:1;stroke-linecap:square;stroke-linejoin:bevel;stroke-miterlimit:10;stroke-dasharray:none;stroke-opacity:1"
         id="path470" /></g><g
       id="g472"><path
         d="M 282.3,39.75 V 43.5"
         style="fill:none;stroke:#000000;stroke-width:1;stroke-linecap:square;stroke-linejoin:bevel;stroke-miterlimit:10;stroke-dasharray:none;stroke-opacity:1"
         id="path474" /></g><g
       id="g476"><path
         d="M 290.829,39.75 V 43.5"
         style="fill:none;stroke:#000000;stroke-width:1;stroke-linecap:square;stroke-linejoin:bevel;stroke-miterlimit:10;stroke-dasharray:none;stroke-opacity:1"
         id="path478" /></g><g
       id="g480"><path
         d="M 307.886,39.75 V 43.5"
         style="fill:none;stroke:#000000;stroke-width:1;stroke-linecap:square;stroke-linejoin:bevel;stroke-miterlimit:10;stroke-dasharray:none;stroke-opacity:1"
         id="path482" /></g><g
       id="g484"><path
         d="M 316.414,39.75 V 43.5"
         style="fill:none;stroke:#000000;stroke-width:1;stroke-linecap:square;stroke-linejoin:bevel;stroke-miterlimit:10;stroke-dasharray:none;stroke-opacity:1"
         id="path486" /></g><g
       id="g488"><path
         d="M 324.943,39.75 V 43.5"
         style="fill:none;stroke:#000000;stroke-width:1;stroke-linecap:square;stroke-linejoin:bevel;stroke-miterlimit:10;stroke-dasharray:none;stroke-opacity:1"
         id="path490" /></g><g
       id="g492"><path
         d="M 333.471,39.75 V 43.5"
         style="fill:none;stroke:#000000;stroke-width:1;stroke-linecap:square;stroke-linejoin:bevel;stroke-miterlimit:10;stroke-dasharray:none;stroke-opacity:1"
         id="path494" /></g><g
       id="g496"><path
         d="m 86.143,264 v -0.75"
         style="fill:none;stroke:#000000;stroke-width:1;stroke-linecap:square;stroke-linejoin:bevel;stroke-miterlimit:10;stroke-dasharray:none;stroke-opacity:1"
         id="path498" /></g><g
       id="g500"><path
         d="m 128.786,264 v -0.75"
         style="fill:none;stroke:#000000;stroke-width:1;stroke-linecap:square;stroke-linejoin:bevel;stroke-miterlimit:10;stroke-dasharray:none;stroke-opacity:1"
         id="path502" /></g><g
       id="g504"><path
         d="m 171.429,264 v -0.75"
         style="fill:none;stroke:#000000;stroke-width:1;stroke-linecap:square;stroke-linejoin:bevel;stroke-miterlimit:10;stroke-dasharray:none;stroke-opacity:1"
         id="path506" /></g><g
       id="g508"><path
         d="m 214.071,264 v -0.75"
         style="fill:none;stroke:#000000;stroke-width:1;stroke-linecap:square;stroke-linejoin:bevel;stroke-miterlimit:10;stroke-dasharray:none;stroke-opacity:1"
         id="path510" /></g><g
       id="g512"><path
         d="m 256.714,264 v -0.75"
         style="fill:none;stroke:#000000;stroke-width:1;stroke-linecap:square;stroke-linejoin:bevel;stroke-miterlimit:10;stroke-dasharray:none;stroke-opacity:1"
         id="path514" /></g><g
       id="g516"><path
         d="m 299.357,264 v -0.75"
         style="fill:none;stroke:#000000;stroke-width:1;stroke-linecap:square;stroke-linejoin:bevel;stroke-miterlimit:10;stroke-dasharray:none;stroke-opacity:1"
         id="path518" /></g><g
       id="g520"><path
         d="M 43.5,264 H 342"
         style="fill:none;stroke:#000000;stroke-width:1;stroke-linecap:square;stroke-linejoin:bevel;stroke-miterlimit:10;stroke-dasharray:none;stroke-opacity:1"
         id="path522" /></g><g
       id="g524"><path
         d="m 86.143,264 v -6.75"
         style="fill:none;stroke:#000000;stroke-width:1;stroke-linecap:square;stroke-linejoin:bevel;stroke-miterlimit:10;stroke-dasharray:none;stroke-opacity:1"
         id="path526" /></g><g
       id="g528"><path
         d="m 128.786,264 v -6.75"
         style="fill:none;stroke:#000000;stroke-width:1;stroke-linecap:square;stroke-linejoin:bevel;stroke-miterlimit:10;stroke-dasharray:none;stroke-opacity:1"
         id="path530" /></g><g
       id="g532"><path
         d="m 171.429,264 v -6.75"
         style="fill:none;stroke:#000000;stroke-width:1;stroke-linecap:square;stroke-linejoin:bevel;stroke-miterlimit:10;stroke-dasharray:none;stroke-opacity:1"
         id="path534" /></g><g
       id="g536"><path
         d="m 214.071,264 v -6.75"
         style="fill:none;stroke:#000000;stroke-width:1;stroke-linecap:square;stroke-linejoin:bevel;stroke-miterlimit:10;stroke-dasharray:none;stroke-opacity:1"
         id="path538" /></g><g
       id="g540"><path
         d="m 256.714,264 v -6.75"
         style="fill:none;stroke:#000000;stroke-width:1;stroke-linecap:square;stroke-linejoin:bevel;stroke-miterlimit:10;stroke-dasharray:none;stroke-opacity:1"
         id="path542" /></g><g
       id="g544"><path
         d="m 299.357,264 v -6.75"
         style="fill:none;stroke:#000000;stroke-width:1;stroke-linecap:square;stroke-linejoin:bevel;stroke-miterlimit:10;stroke-dasharray:none;stroke-opacity:1"
         id="path546" /></g><g
       id="g548"><path
         d="m 52.029,264 v -3.75"
         style="fill:none;stroke:#000000;stroke-width:1;stroke-linecap:square;stroke-linejoin:bevel;stroke-miterlimit:10;stroke-dasharray:none;stroke-opacity:1"
         id="path550" /></g><g
       id="g552"><path
         d="m 60.557,264 v -3.75"
         style="fill:none;stroke:#000000;stroke-width:1;stroke-linecap:square;stroke-linejoin:bevel;stroke-miterlimit:10;stroke-dasharray:none;stroke-opacity:1"
         id="path554" /></g><g
       id="g556"><path
         d="m 69.086,264 v -3.75"
         style="fill:none;stroke:#000000;stroke-width:1;stroke-linecap:square;stroke-linejoin:bevel;stroke-miterlimit:10;stroke-dasharray:none;stroke-opacity:1"
         id="path558" /></g><g
       id="g560"><path
         d="m 77.614,264 v -3.75"
         style="fill:none;stroke:#000000;stroke-width:1;stroke-linecap:square;stroke-linejoin:bevel;stroke-miterlimit:10;stroke-dasharray:none;stroke-opacity:1"
         id="path562" /></g><g
       id="g564"><path
         d="m 94.671,264 v -3.75"
         style="fill:none;stroke:#000000;stroke-width:1;stroke-linecap:square;stroke-linejoin:bevel;stroke-miterlimit:10;stroke-dasharray:none;stroke-opacity:1"
         id="path566" /></g><g
       id="g568"><path
         d="m 103.2,264 v -3.75"
         style="fill:none;stroke:#000000;stroke-width:1;stroke-linecap:square;stroke-linejoin:bevel;stroke-miterlimit:10;stroke-dasharray:none;stroke-opacity:1"
         id="path570" /></g><g
       id="g572"><path
         d="m 111.729,264 v -3.75"
         style="fill:none;stroke:#000000;stroke-width:1;stroke-linecap:square;stroke-linejoin:bevel;stroke-miterlimit:10;stroke-dasharray:none;stroke-opacity:1"
         id="path574" /></g><g
       id="g576"><path
         d="m 120.257,264 v -3.75"
         style="fill:none;stroke:#000000;stroke-width:1;stroke-linecap:square;stroke-linejoin:bevel;stroke-miterlimit:10;stroke-dasharray:none;stroke-opacity:1"
         id="path578" /></g><g
       id="g580"><path
         d="m 137.314,264 v -3.75"
         style="fill:none;stroke:#000000;stroke-width:1;stroke-linecap:square;stroke-linejoin:bevel;stroke-miterlimit:10;stroke-dasharray:none;stroke-opacity:1"
         id="path582" /></g><g
       id="g584"><path
         d="m 145.843,264 v -3.75"
         style="fill:none;stroke:#000000;stroke-width:1;stroke-linecap:square;stroke-linejoin:bevel;stroke-miterlimit:10;stroke-dasharray:none;stroke-opacity:1"
         id="path586" /></g><g
       id="g588"><path
         d="m 154.371,264 v -3.75"
         style="fill:none;stroke:#000000;stroke-width:1;stroke-linecap:square;stroke-linejoin:bevel;stroke-miterlimit:10;stroke-dasharray:none;stroke-opacity:1"
         id="path590" /></g><g
       id="g592"><path
         d="m 162.9,264 v -3.75"
         style="fill:none;stroke:#000000;stroke-width:1;stroke-linecap:square;stroke-linejoin:bevel;stroke-miterlimit:10;stroke-dasharray:none;stroke-opacity:1"
         id="path594" /></g><g
       id="g596"><path
         d="m 179.957,264 v -3.75"
         style="fill:none;stroke:#000000;stroke-width:1;stroke-linecap:square;stroke-linejoin:bevel;stroke-miterlimit:10;stroke-dasharray:none;stroke-opacity:1"
         id="path598" /></g><g
       id="g600"><path
         d="m 188.486,264 v -3.75"
         style="fill:none;stroke:#000000;stroke-width:1;stroke-linecap:square;stroke-linejoin:bevel;stroke-miterlimit:10;stroke-dasharray:none;stroke-opacity:1"
         id="path602" /></g><g
       id="g604"><path
         d="m 197.014,264 v -3.75"
         style="fill:none;stroke:#000000;stroke-width:1;stroke-linecap:square;stroke-linejoin:bevel;stroke-miterlimit:10;stroke-dasharray:none;stroke-opacity:1"
         id="path606" /></g><g
       id="g608"><path
         d="m 205.543,264 v -3.75"
         style="fill:none;stroke:#000000;stroke-width:1;stroke-linecap:square;stroke-linejoin:bevel;stroke-miterlimit:10;stroke-dasharray:none;stroke-opacity:1"
         id="path610" /></g><g
       id="g612"><path
         d="m 222.6,264 v -3.75"
         style="fill:none;stroke:#000000;stroke-width:1;stroke-linecap:square;stroke-linejoin:bevel;stroke-miterlimit:10;stroke-dasharray:none;stroke-opacity:1"
         id="path614" /></g><g
       id="g616"><path
         d="m 231.129,264 v -3.75"
         style="fill:none;stroke:#000000;stroke-width:1;stroke-linecap:square;stroke-linejoin:bevel;stroke-miterlimit:10;stroke-dasharray:none;stroke-opacity:1"
         id="path618" /></g><g
       id="g620"><path
         d="m 239.657,264 v -3.75"
         style="fill:none;stroke:#000000;stroke-width:1;stroke-linecap:square;stroke-linejoin:bevel;stroke-miterlimit:10;stroke-dasharray:none;stroke-opacity:1"
         id="path622" /></g><g
       id="g624"><path
         d="m 248.186,264 v -3.75"
         style="fill:none;stroke:#000000;stroke-width:1;stroke-linecap:square;stroke-linejoin:bevel;stroke-miterlimit:10;stroke-dasharray:none;stroke-opacity:1"
         id="path626" /></g><g
       id="g628"><path
         d="m 265.243,264 v -3.75"
         style="fill:none;stroke:#000000;stroke-width:1;stroke-linecap:square;stroke-linejoin:bevel;stroke-miterlimit:10;stroke-dasharray:none;stroke-opacity:1"
         id="path630" /></g><g
       id="g632"><path
         d="m 273.771,264 v -3.75"
         style="fill:none;stroke:#000000;stroke-width:1;stroke-linecap:square;stroke-linejoin:bevel;stroke-miterlimit:10;stroke-dasharray:none;stroke-opacity:1"
         id="path634" /></g><g
       id="g636"><path
         d="m 282.3,264 v -3.75"
         style="fill:none;stroke:#000000;stroke-width:1;stroke-linecap:square;stroke-linejoin:bevel;stroke-miterlimit:10;stroke-dasharray:none;stroke-opacity:1"
         id="path638" /></g><g
       id="g640"><path
         d="m 290.829,264 v -3.75"
         style="fill:none;stroke:#000000;stroke-width:1;stroke-linecap:square;stroke-linejoin:bevel;stroke-miterlimit:10;stroke-dasharray:none;stroke-opacity:1"
         id="path642" /></g><g
       id="g644"><path
         d="m 307.886,264 v -3.75"
         style="fill:none;stroke:#000000;stroke-width:1;stroke-linecap:square;stroke-linejoin:bevel;stroke-miterlimit:10;stroke-dasharray:none;stroke-opacity:1"
         id="path646" /></g><g
       id="g648"><path
         d="m 316.414,264 v -3.75"
         style="fill:none;stroke:#000000;stroke-width:1;stroke-linecap:square;stroke-linejoin:bevel;stroke-miterlimit:10;stroke-dasharray:none;stroke-opacity:1"
         id="path650" /></g><g
       id="g652"><path
         d="m 324.943,264 v -3.75"
         style="fill:none;stroke:#000000;stroke-width:1;stroke-linecap:square;stroke-linejoin:bevel;stroke-miterlimit:10;stroke-dasharray:none;stroke-opacity:1"
         id="path654" /></g><g
       id="g656"><path
         d="m 333.471,264 v -3.75"
         style="fill:none;stroke:#000000;stroke-width:1;stroke-linecap:square;stroke-linejoin:bevel;stroke-miterlimit:10;stroke-dasharray:none;stroke-opacity:1"
         id="path658" /></g><g
       id="g660"><path
         d="m 72,256.5 h 88.5 V 192 H 72 Z"
         style="fill:#ffffff;fill-opacity:0.8;fill-rule:nonzero;stroke:none"
         id="path662" /></g><g
       id="g664"><path
         d="m 72,256.5 h 88.5 V 192 H 72 Z"
         style="fill:none;stroke:#000000;stroke-width:1;stroke-linecap:butt;stroke-linejoin:miter;stroke-miterlimit:10;stroke-dasharray:none;stroke-opacity:1"
         id="path666" /></g><g
       id="g668"><path
         d="m 80.25,246.75 h 24"
         style="fill:none;stroke:#000000;stroke-width:2;stroke-linecap:butt;stroke-linejoin:miter;stroke-miterlimit:10;stroke-dasharray:none;stroke-opacity:1"
         id="path670" /></g><g
       id="g672"><path
         d="m 108.059,243 h 0.785 l 2.039,5.719 h -0.082 L 112.734,243 h 0.832 l -2.191,6.246 h -0.973 L 108.059,243 m 1.183,1.852 h 3.117 v 0.644 h -3.117 v -0.644 m 5.59,-1.852 h 0.738 v 5.59 h 1.114 c 0.902,0 1.511,-0.586 1.511,-1.465 0,-0.855 -0.504,-1.301 -1.429,-1.301 h -1.465 v -0.644 h 1.336 c 1.394,0 2.332,0.82 2.332,2.074 0,1.195 -0.891,1.992 -2.203,1.992 h -1.934 V 243"
         style="fill:#000000;fill-opacity:1;fill-rule:nonzero;stroke:none"
         id="path674" /></g><g
       id="g676"><path
         d="m 80.25,235.5 h 24"
         style="fill:none;stroke:#ff0000;stroke-width:2;stroke-linecap:butt;stroke-linejoin:miter;stroke-miterlimit:10;stroke-dasharray:none;stroke-opacity:1"
         id="path678" /></g><g
       id="g680"><path
         d="m 108.832,231.75 h 0.738 v 5.59 h 1.114 c 0.902,0 1.511,-0.586 1.511,-1.465 0,-0.855 -0.504,-1.301 -1.429,-1.301 h -1.465 v -0.644 h 1.336 c 1.394,0 2.332,0.82 2.332,2.074 0,1.195 -0.891,1.992 -2.203,1.992 h -1.934 v -6.246 m 6.141,-0.059 c 0.234,0 0.515,0.059 0.691,0.153 l -0.164,0.504 c -0.105,-0.047 -0.211,-0.071 -0.316,-0.071 -0.305,0 -0.469,0.2 -0.469,0.539 v 5.579 H 114 v -5.672 c 0,-0.621 0.387,-1.032 0.973,-1.032 m 3.949,0.059 h 0.504 v 2.812 c 0,1.043 -0.61,1.618 -1.735,1.618 -0.574,0 -1.183,-0.153 -1.652,-0.422 l 0.176,-0.528 c 0.457,0.2 0.902,0.293 1.324,0.293 0.773,0 1.172,-0.316 1.172,-0.961 v -2.308 l 0.211,-0.504 m -1.535,-0.094 c 1.031,0 1.816,0.656 1.945,1.617 l -0.258,0.118 c -0.14,-0.657 -0.726,-1.102 -1.476,-1.102 -0.575,0 -0.961,0.293 -0.961,0.715 0,0.551 0.644,0.773 2.179,0.773 v 0.504 c -2.015,0 -2.894,-0.41 -2.894,-1.347 0,-0.774 0.574,-1.278 1.465,-1.278 m 5.59,0.047 c 0.304,0 0.597,0.07 0.808,0.164 l -0.164,0.516 c -0.141,-0.059 -0.34,-0.094 -0.492,-0.094 -0.445,0 -0.738,0.293 -0.738,0.715 v 4.348 h -0.727 v -4.442 c 0,-0.715 0.527,-1.207 1.313,-1.207 m -1.899,3.785 h 2.496 v 0.598 h -2.496 v -0.598 m 5.367,-3.832 c 0.493,0 1.043,0.117 1.43,0.328 l -0.164,0.516 c -0.34,-0.152 -0.762,-0.258 -1.137,-0.258 -1.019,0 -1.617,0.68 -1.617,1.805 0,0.973 0.434,1.512 1.231,1.512 0.738,0 1.171,-0.469 1.171,-1.301 h -2.531 v -0.539 h 3.164 c 0.024,0.14 0.035,0.445 0.035,0.621 0,1.09 -0.715,1.84 -1.781,1.84 -1.207,0 -2.027,-0.95 -2.027,-2.285 0,-1.383 0.855,-2.239 2.226,-2.239 m 6.633,-1.511 0.516,0.304 c -0.75,1.313 -1.055,2.414 -1.055,3.996 0,1.336 0.305,2.391 1.055,3.727 l -0.539,0.316 c -0.914,-1.5 -1.243,-2.672 -1.243,-4.113 0,-1.676 0.352,-2.836 1.266,-4.23 m 3.914,1.511 c 1.395,0 2.262,1.231 2.262,3.258 0,1.969 -0.844,3.164 -2.203,3.164 -1.406,0 -2.274,-1.23 -2.274,-3.246 0,-1.98 0.844,-3.176 2.215,-3.176 m 0.059,0.645 c -0.938,0 -1.524,0.972 -1.524,2.613 0,1.582 0.563,2.531 1.477,2.531 0.914,0 1.488,-0.996 1.488,-2.613 0,-1.582 -0.551,-2.531 -1.441,-2.531 m 5.203,-0.598 h 0.715 v 6.293 h -0.434 l -2.226,-1.16 0.269,-0.504 1.91,0.902 -0.234,0.223 v -5.754 m 4.488,-0.047 c 1.395,0 2.262,1.231 2.262,3.258 0,1.969 -0.844,3.164 -2.203,3.164 -1.406,0 -2.274,-1.23 -2.274,-3.246 0,-1.98 0.844,-3.176 2.215,-3.176 m 0.059,0.645 c -0.938,0 -1.524,0.972 -1.524,2.613 0,1.582 0.563,2.531 1.477,2.531 0.914,0 1.488,-0.996 1.488,-2.613 0,-1.582 -0.551,-2.531 -1.441,-2.531 m 4.078,-2.156 c 0.926,1.394 1.266,2.554 1.266,4.23 0,1.441 -0.329,2.613 -1.231,4.113 l -0.551,-0.316 c 0.75,-1.336 1.055,-2.391 1.055,-3.727 0,-1.582 -0.305,-2.683 -1.055,-3.996 l 0.516,-0.304"
         style="fill:#000000;fill-opacity:1;fill-rule:nonzero;stroke:none"
         id="path682" /></g><g
       id="g684"><path
         d="m 80.25,224.25 h 24"
         style="fill:none;stroke:#00ff00;stroke-width:2;stroke-linecap:butt;stroke-linejoin:miter;stroke-miterlimit:10;stroke-dasharray:none;stroke-opacity:1"
         id="path686" /></g><g
       id="g688"><path
         d="m 108.832,220.5 h 0.738 v 5.59 h 1.114 c 0.902,0 1.511,-0.586 1.511,-1.465 0,-0.855 -0.504,-1.301 -1.429,-1.301 h -1.465 v -0.644 h 1.336 c 1.394,0 2.332,0.82 2.332,2.074 0,1.195 -0.891,1.992 -2.203,1.992 h -1.934 V 220.5 m 6.141,-0.059 c 0.234,0 0.515,0.059 0.691,0.153 l -0.164,0.504 c -0.105,-0.047 -0.211,-0.071 -0.316,-0.071 -0.305,0 -0.469,0.2 -0.469,0.539 v 5.579 H 114 v -5.672 c 0,-0.621 0.387,-1.032 0.973,-1.032 m 3.949,0.059 h 0.504 v 2.812 c 0,1.043 -0.61,1.618 -1.735,1.618 -0.574,0 -1.183,-0.153 -1.652,-0.422 l 0.176,-0.528 c 0.457,0.2 0.902,0.293 1.324,0.293 0.773,0 1.172,-0.316 1.172,-0.961 v -2.308 l 0.211,-0.504 m -1.535,-0.094 c 1.031,0 1.816,0.656 1.945,1.617 l -0.258,0.118 c -0.14,-0.657 -0.726,-1.102 -1.476,-1.102 -0.575,0 -0.961,0.293 -0.961,0.715 0,0.551 0.644,0.773 2.179,0.773 v 0.504 c -2.015,0 -2.894,-0.41 -2.894,-1.347 0,-0.774 0.574,-1.278 1.465,-1.278 m 5.59,0.047 c 0.304,0 0.597,0.07 0.808,0.164 l -0.164,0.516 c -0.141,-0.059 -0.34,-0.094 -0.492,-0.094 -0.445,0 -0.738,0.293 -0.738,0.715 v 4.348 h -0.727 v -4.442 c 0,-0.715 0.527,-1.207 1.313,-1.207 m -1.899,3.785 h 2.496 v 0.598 h -2.496 v -0.598 m 5.367,-3.832 c 0.493,0 1.043,0.117 1.43,0.328 l -0.164,0.516 c -0.34,-0.152 -0.762,-0.258 -1.137,-0.258 -1.019,0 -1.617,0.68 -1.617,1.805 0,0.973 0.434,1.512 1.231,1.512 0.738,0 1.171,-0.469 1.171,-1.301 h -2.531 v -0.539 h 3.164 c 0.024,0.14 0.035,0.445 0.035,0.621 0,1.09 -0.715,1.84 -1.781,1.84 -1.207,0 -2.027,-0.95 -2.027,-2.285 0,-1.383 0.855,-2.239 2.226,-2.239 m 6.633,-1.511 0.516,0.304 c -0.75,1.313 -1.055,2.414 -1.055,3.996 0,1.336 0.305,2.391 1.055,3.727 l -0.539,0.316 c -0.914,-1.5 -1.243,-2.672 -1.243,-4.113 0,-1.676 0.352,-2.836 1.266,-4.23 m 3.914,1.511 c 1.395,0 2.262,1.231 2.262,3.258 0,1.969 -0.844,3.164 -2.203,3.164 -1.406,0 -2.274,-1.23 -2.274,-3.246 0,-1.98 0.844,-3.176 2.215,-3.176 m 0.059,0.645 c -0.938,0 -1.524,0.972 -1.524,2.613 0,1.582 0.563,2.531 1.477,2.531 0.914,0 1.488,-0.996 1.488,-2.613 0,-1.582 -0.551,-2.531 -1.441,-2.531 m 5.941,-0.645 c 1.395,0 2.262,1.231 2.262,3.258 0,1.969 -0.844,3.164 -2.203,3.164 -1.406,0 -2.274,-1.23 -2.274,-3.246 0,-1.98 0.844,-3.176 2.215,-3.176 m 0.059,0.645 c -0.938,0 -1.524,0.972 -1.524,2.613 0,1.582 0.563,2.531 1.477,2.531 0.914,0 1.488,-0.996 1.488,-2.613 0,-1.582 -0.551,-2.531 -1.441,-2.531 m 5.203,-0.598 h 0.715 v 6.293 h -0.434 l -2.226,-1.16 0.269,-0.504 1.91,0.902 -0.234,0.223 v -5.754 m 2.625,-1.558 c 0.926,1.394 1.266,2.554 1.266,4.23 0,1.441 -0.329,2.613 -1.231,4.113 l -0.551,-0.316 c 0.75,-1.336 1.055,-2.391 1.055,-3.727 0,-1.582 -0.305,-2.683 -1.055,-3.996 l 0.516,-0.304"
         style="fill:#000000;fill-opacity:1;fill-rule:nonzero;stroke:none"
         id="path690" /></g><g
       id="g692"><path
         d="m 80.25,213 h 24"
         style="fill:none;stroke:#0000ff;stroke-width:2;stroke-linecap:butt;stroke-linejoin:miter;stroke-miterlimit:10;stroke-dasharray:none;stroke-opacity:1"
         id="path694" /></g><g
       id="g696"><path
         d="m 108.832,209.25 h 0.738 v 5.59 h 1.114 c 0.902,0 1.511,-0.586 1.511,-1.465 0,-0.855 -0.504,-1.301 -1.429,-1.301 h -1.465 v -0.644 h 1.336 c 1.394,0 2.332,0.82 2.332,2.074 0,1.195 -0.891,1.992 -2.203,1.992 h -1.934 v -6.246 m 6.141,-0.059 c 0.234,0 0.515,0.059 0.691,0.153 l -0.164,0.504 c -0.105,-0.047 -0.211,-0.071 -0.316,-0.071 -0.305,0 -0.469,0.2 -0.469,0.539 v 5.579 H 114 v -5.672 c 0,-0.621 0.387,-1.032 0.973,-1.032 m 3.949,0.059 h 0.504 v 2.812 c 0,1.043 -0.61,1.618 -1.735,1.618 -0.574,0 -1.183,-0.153 -1.652,-0.422 l 0.176,-0.528 c 0.457,0.2 0.902,0.293 1.324,0.293 0.773,0 1.172,-0.316 1.172,-0.961 v -2.308 l 0.211,-0.504 m -1.535,-0.094 c 1.031,0 1.816,0.656 1.945,1.617 l -0.258,0.118 c -0.14,-0.657 -0.726,-1.102 -1.476,-1.102 -0.575,0 -0.961,0.293 -0.961,0.715 0,0.551 0.644,0.773 2.179,0.773 v 0.504 c -2.015,0 -2.894,-0.41 -2.894,-1.347 0,-0.774 0.574,-1.278 1.465,-1.278 m 5.59,0.047 c 0.304,0 0.597,0.07 0.808,0.164 l -0.164,0.516 c -0.141,-0.059 -0.34,-0.094 -0.492,-0.094 -0.445,0 -0.738,0.293 -0.738,0.715 v 4.348 h -0.727 v -4.442 c 0,-0.715 0.527,-1.207 1.313,-1.207 m -1.899,3.785 h 2.496 v 0.598 h -2.496 v -0.598 m 5.367,-3.832 c 0.493,0 1.043,0.117 1.43,0.328 L 127.711,210 c -0.34,-0.152 -0.762,-0.258 -1.137,-0.258 -1.019,0 -1.617,0.68 -1.617,1.805 0,0.973 0.434,1.512 1.231,1.512 0.738,0 1.171,-0.469 1.171,-1.301 h -2.531 v -0.539 h 3.164 c 0.024,0.14 0.035,0.445 0.035,0.621 0,1.09 -0.715,1.84 -1.781,1.84 -1.207,0 -2.027,-0.95 -2.027,-2.285 0,-1.383 0.855,-2.239 2.226,-2.239 m 6.633,-1.511 0.516,0.304 c -0.75,1.313 -1.055,2.414 -1.055,3.996 0,1.336 0.305,2.391 1.055,3.727 l -0.539,0.316 c -0.914,-1.5 -1.243,-2.672 -1.243,-4.113 0,-1.676 0.352,-2.836 1.266,-4.23 m 3.176,1.558 h 0.715 v 6.293 h -0.434 l -2.226,-1.16 0.269,-0.504 1.91,0.902 -0.234,0.223 v -5.754 m 4.488,-0.047 c 1.395,0 2.262,1.231 2.262,3.258 0,1.969 -0.844,3.164 -2.203,3.164 -1.406,0 -2.274,-1.23 -2.274,-3.246 0,-1.98 0.844,-3.176 2.215,-3.176 m 0.059,0.645 c -0.938,0 -1.524,0.972 -1.524,2.613 0,1.582 0.563,2.531 1.477,2.531 0.914,0 1.488,-0.996 1.488,-2.613 0,-1.582 -0.551,-2.531 -1.441,-2.531 m 5.941,-0.645 c 1.395,0 2.262,1.231 2.262,3.258 0,1.969 -0.844,3.164 -2.203,3.164 -1.406,0 -2.274,-1.23 -2.274,-3.246 0,-1.98 0.844,-3.176 2.215,-3.176 m 0.059,0.645 c -0.938,0 -1.524,0.972 -1.524,2.613 0,1.582 0.563,2.531 1.477,2.531 0.914,0 1.488,-0.996 1.488,-2.613 0,-1.582 -0.551,-2.531 -1.441,-2.531 m 4.078,-2.156 c 0.926,1.394 1.266,2.554 1.266,4.23 0,1.441 -0.329,2.613 -1.231,4.113 l -0.551,-0.316 c 0.75,-1.336 1.055,-2.391 1.055,-3.727 0,-1.582 -0.305,-2.683 -1.055,-3.996 l 0.516,-0.304"
         style="fill:#000000;fill-opacity:1;fill-rule:nonzero;stroke:none"
         id="path698" /></g><g
       id="g700"><path
         d="m 80.25,201.75 h 24"
         style="fill:none;stroke:#00ffff;stroke-width:2;stroke-linecap:butt;stroke-linejoin:miter;stroke-miterlimit:10;stroke-dasharray:none;stroke-opacity:1"
         id="path702" /></g><g
       id="g704"><path
         d="m 110.367,197.906 c 1.395,0 2.297,0.715 2.297,1.817 0,2.203 -3.492,1.324 -3.492,2.941 0,0.656 0.527,1.008 1.476,1.008 0.54,0 1.114,-0.106 1.559,-0.293 l 0.223,0.586 c -0.528,0.234 -1.125,0.363 -1.723,0.363 -1.395,0 -2.297,-0.691 -2.297,-1.781 0,-2.145 3.481,-1.348 3.481,-2.942 0,-0.621 -0.539,-1.031 -1.477,-1.031 -0.574,0 -1.277,0.153 -1.887,0.41 l -0.222,-0.586 c 0.691,-0.316 1.394,-0.492 2.062,-0.492 m 5.531,0 c 1.207,0 2.016,0.938 2.016,2.344 0,1.301 -0.738,2.18 -1.863,2.18 -0.61,0 -1.196,-0.27 -1.571,-0.739 l 0.165,-0.457 c 0.316,0.352 0.761,0.563 1.218,0.563 0.809,0 1.336,-0.645 1.336,-1.641 0,-0.972 -0.48,-1.617 -1.254,-1.617 -0.656,0 -1.195,0.422 -1.347,1.066 l -0.293,-0.503 c 0.199,-0.75 0.82,-1.196 1.593,-1.196 M 114,196.043 h 0.715 v 5.789 l -0.211,0.504 H 114 v -6.293 m 8.203,1.957 h 0.727 v 2.848 c 0,0.961 -0.645,1.582 -1.618,1.582 -0.621,0 -1.242,-0.27 -1.71,-0.809 l 0.175,-0.457 c 0.364,0.422 0.832,0.633 1.336,0.633 0.703,0 1.09,-0.399 1.09,-1.102 V 198 m -2.953,0 h 0.715 v 6.645 H 119.25 V 198 m 7.195,-0.094 c 0.493,0 1.043,0.117 1.43,0.328 l -0.164,0.516 c -0.34,-0.152 -0.762,-0.258 -1.137,-0.258 -1.019,0 -1.617,0.68 -1.617,1.805 0,0.973 0.434,1.512 1.231,1.512 0.738,0 1.171,-0.469 1.171,-1.301 h -2.531 v -0.539 h 3.164 c 0.024,0.14 0.035,0.445 0.035,0.621 0,1.09 -0.715,1.84 -1.781,1.84 -1.207,0 -2.027,-0.95 -2.027,-2.285 0,-1.383 0.855,-2.239 2.226,-2.239 M 129.75,198 h 0.715 v 3.328 l -0.129,1.008 H 129.75 V 198 m 0.551,2.812 c 0.258,0.551 0.773,0.879 1.371,0.879 0.176,0 0.328,-0.023 0.48,-0.07 l 0.176,0.656 c -0.187,0.071 -0.375,0.106 -0.574,0.106 -0.586,0 -1.125,-0.317 -1.453,-0.844 v -0.727 m 5.144,-2.906 c 0.493,0 1.043,0.117 1.43,0.328 l -0.164,0.516 c -0.34,-0.152 -0.762,-0.258 -1.137,-0.258 -1.019,0 -1.617,0.68 -1.617,1.805 0,0.973 0.434,1.512 1.231,1.512 0.738,0 1.171,-0.469 1.171,-1.301 h -2.531 v -0.539 h 3.164 c 0.024,0.14 0.035,0.445 0.035,0.621 0,1.09 -0.715,1.84 -1.781,1.84 -1.207,0 -2.027,-0.95 -2.027,-2.285 0,-1.383 0.855,-2.239 2.226,-2.239"
         style="fill:#000000;fill-opacity:1;fill-rule:nonzero;stroke:none"
         id="path706" /></g></g></svg>
