<?xml version="1.0" encoding="UTF-8" standalone="no"?>
<!-- Created with Inkscape (http://www.inkscape.org/) -->

<svg
   version="1.1"
   id="svg2"
   xml:space="preserve"
   width="470"
   height="358"
   viewBox="0 0 470 358"
   xmlns="http://www.w3.org/2000/svg"
   xmlns:svg="http://www.w3.org/2000/svg"><defs
     id="defs6"><clipPath
       clipPathUnits="userSpaceOnUse"
       id="clipPath20"><path
         d="M 53.25,252.75 H 336 v -213 H 53.25 Z"
         clip-rule="evenodd"
         id="path18" /></clipPath><clipPath
       clipPathUnits="userSpaceOnUse"
       id="clipPath30"><path
         d="M 53.25,252.75 H 336 v -213 H 53.25 Z"
         clip-rule="evenodd"
         id="path28" /></clipPath><clipPath
       clipPathUnits="userSpaceOnUse"
       id="clipPath40"><path
         d="M 53.25,252.75 H 336 v -213 H 53.25 Z"
         clip-rule="evenodd"
         id="path38" /></clipPath></defs><g
     id="g8"
     transform="matrix(1.3333333,0,0,-1.3333333,0,358)"><g
       id="g10"><path
         d="M 0,268.5 H 352.5 V 0 H 0 Z"
         style="fill:#ffffff;fill-opacity:1;fill-rule:nonzero;stroke:none"
         id="path12" /></g><g
       id="g14"><g
         id="g16"
         clip-path="url(#clipPath20)"><path
           d="m 53.25,39.968 0.452,0.003 0.679,0.006 0.905,0.008 0.678,0.007 0.679,0.006 0.905,0.009 0.678,0.008 0.679,0.007 0.905,0.011 0.678,0.008 0.679,0.008 0.905,0.012 0.678,0.01 0.679,0.01 0.905,0.014 0.678,0.011 0.679,0.011 0.452,0.008 0.453,0.009 0.678,0.012 0.679,0.014 0.679,0.014 0.904,0.02 0.679,0.016 0.679,0.017 0.904,0.024 0.679,0.019 0.679,0.02 0.904,0.028 0.679,0.023 0.679,0.024 0.904,0.035 0.679,0.028 0.679,0.03 0.904,0.042 0.679,0.035 0.679,0.036 0.904,0.054 0.679,0.043 0.679,0.046 0.678,0.05 0.905,0.073 0.452,0.039 0.227,0.02 0.678,0.065 0.905,0.095 0.679,0.078 0.678,0.085 0.905,0.127 0.679,0.105 0.678,0.117 0.453,0.084 0.452,0.09 0.679,0.147 0.678,0.163 0.905,0.248 0.452,0.139 0.227,0.074 0.678,0.24 0.905,0.37 0.226,0.103 0.453,0.22 0.678,0.371 0.226,0.136 0.453,0.292 0.678,0.497 0.227,0.183 0.678,0.614 0.679,0.726 0.678,0.866 0.227,0.326 0.226,0.347 0.452,0.766 0.453,0.874 0.226,0.485 0.452,1.08 0.226,0.601 0.227,0.649 0.226,0.7 0.226,0.757 0.226,0.819 0.226,0.889 0.227,0.965 0.226,1.05 0.226,1.144 0.226,1.248 0.226,1.364 0.227,1.493 0.226,1.635 0.226,1.794 0.226,1.971 0.226,2.165 0.227,2.379 0.226,2.616 0.226,2.872 0.226,3.151 0.226,3.447 0.227,3.758 0.226,4.076 0.226,4.389 0.226,4.681 0.226,4.93 0.227,5.105 0.226,5.173 0.226,5.094 0.226,4.831 0.226,4.354 0.227,3.649 0.226,2.729 0.226,1.63 0.226,0.42 0.226,-0.817 0.227,-1.993 0.226,-3.029 0.226,-3.871 0.226,-4.492 0.226,-4.89 0.227,-5.087 0.226,-5.114 0.226,-5.01 0.226,-4.813 0.226,-4.553 0.227,-4.257 0.226,-3.948 0.226,-3.635 0.226,-3.334 0.226,-3.047 0.227,-2.779 0.226,-2.532 0.226,-2.306 0.226,-2.099 0.226,-1.913 0.227,-1.744 0.226,-1.591 0.226,-1.454 0.226,-1.331 0.226,-1.219 0.227,-1.119 0.226,-1.028 0.226,-0.946 0.226,-0.873 0.226,-0.805 0.227,-0.745 0.226,-0.69 0.226,-0.64 0.226,-0.595 0.226,-0.553 0.227,-0.515 0.226,-0.481 0.452,-0.868 0.453,-0.762 0.226,-0.346 0.226,-0.326 0.452,-0.594 0.679,-0.77 0.226,-0.229 0.453,-0.423 0.226,-0.195 0.678,-0.528 0.227,-0.158 0.678,-0.434 0.453,-0.256 0.226,-0.12 0.678,-0.328 0.679,-0.289 0.905,-0.334 0.678,-0.218 0.679,-0.195 0.905,-0.228 0.678,-0.152 0.679,-0.137 0.905,-0.163 0.226,-0.038 0.452,-0.072 0.679,-0.1 0.905,-0.121 0.678,-0.081 0.679,-0.076 0.905,-0.091 0.678,-0.063 0.679,-0.058 0.905,-0.071 0.678,-0.048 0.679,-0.046 0.679,-0.043 0.904,-0.052 0.679,-0.037 0.679,-0.034 0.904,-0.042 0.679,-0.03 0.679,-0.028 0.904,-0.035 0.679,-0.024 0.679,-0.023 0.904,-0.029 0.679,-0.02 0.679,-0.019 0.904,-0.024 0.679,-0.017 0.679,-0.016 0.904,-0.021 0.679,-0.014 0.679,-0.014 0.678,-0.013 0.905,-0.016 0.679,-0.012 0.678,-0.011 0.905,-0.014 0.679,-0.01 0.678,-0.01 0.905,-0.012 0.679,-0.009 0.678,-0.008 0.905,-0.011 0.679,-0.007 0.678,-0.007 0.905,-0.009 0.679,-0.007 0.678,-0.006 0.905,-0.008 0.679,-0.006 0.678,-0.005 0.679,-0.005 0.905,-0.007 0.678,-0.005 0.679,-0.004 0.905,-0.006 0.678,-0.004 0.679,-0.004 0.905,-0.005 0.678,-0.003 0.679,-0.003 0.905,-0.005 0.678,-0.003 0.679,-0.002 0.905,-0.004 0.678,-0.002 0.679,-0.003 0.905,-0.003 0.678,-0.002 0.679,-0.002 0.678,-0.002 0.905,-0.002 0.679,-10e-4 0.678,-0.002 0.905,-10e-4 0.679,-0.002 0.678,-10e-4 0.905,-10e-4 0.679,-0.001 h 0.678 l 0.905,-10e-4 h 0.679 l 0.678,-10e-4 h 0.905 0.679 0.678 l 0.905,10e-4 h 0.679 l 0.678,10e-4 h 0.679 l 0.905,0.002 0.678,10e-4 0.679,0.001 0.905,10e-4 0.678,0.002 0.679,0.002 0.905,0.002 0.678,0.002 0.679,0.002 0.905,0.003 0.678,0.003 0.679,0.003 0.905,0.004 0.678,0.003 0.679,0.004 0.679,0.003 0.904,0.006 0.679,0.004 0.679,0.005 0.904,0.007 0.679,0.005 0.679,0.006 0.904,0.008 0.679,0.006 0.679,0.007 0.904,0.011 0.679,0.008 0.679,0.008 0.904,0.013 0.679,0.01 0.226,0.003 0.453,0.007 0.904,0.015 0.679,0.013 0.679,0.013 0.678,0.014 0.905,0.02 0.679,0.017 0.678,0.017 0.905,0.026 0.679,0.021 0.678,0.022 0.905,0.033 0.679,0.027 0.678,0.029 0.905,0.042 0.679,0.035 0.678,0.038 0.905,0.057 0.679,0.047 0.678,0.051 0.905,0.077 0.679,0.065 0.678,0.072 0.679,0.079 0.905,0.121 0.678,0.103 0.679,0.116 0.905,0.179 0.678,0.156 0.679,0.178 0.905,0.281 0.678,0.25 0.226,0.092 0.453,0.2 0.905,0.472 0.226,0.136 0.452,0.298 0.453,0.336 0.226,0.185 0.678,0.634 0.227,0.241 0.452,0.537 0.226,0.3 0.453,0.669 0.226,0.376 0.226,0.406 0.226,0.44 0.453,0.996 0.226,0.565 0.452,1.289 0.226,0.735 0.227,0.805 0.226,0.883 0.226,0.969 0.226,1.065 0.226,1.17 0.227,1.286 0.226,1.413 0.226,1.551 0.226,1.701 0.226,1.857 0.227,2.021 0.226,2.186 0.226,2.344 0.226,2.488 0.226,2.601 0.227,2.669 0.226,2.67 0.226,2.585 0.226,2.395 0.226,2.085 0.227,1.657 0.226,1.121 0.226,0.506 0.452,-0.929 0.227,-1.366 0.226,-1.854 0.226,-2.227 0.226,-2.479 0.226,-2.62 0.227,-2.663 0.226,-2.63 0.226,-2.54 0.226,-2.413 0.226,-2.263 0.227,-2.102 0.226,-1.939 0.226,-1.779 0.226,-1.628 0.226,-1.484 0.227,-1.352 0.226,-1.232 0.226,-1.12 0.226,-1.021 0.226,-0.93 0.227,-0.848 0.226,-0.775 0.226,-0.708 0.226,-0.648 0.453,-1.141 0.226,-0.503 0.452,-0.89 0.226,-0.395 0.453,-0.704 0.452,-0.606 0.226,-0.272 0.453,-0.491 0.226,-0.221 0.452,-0.402 0.453,-0.353 0.226,-0.161 0.905,-0.556 0.678,-0.342 0.679,-0.292 0.226,-0.087 0.679,-0.238 0.678,-0.206 0.679,-0.18 0.452,-0.107 0.453,-0.098 0.678,-0.134 0.679,-0.118 0.905,-0.138 0.678,-0.091 0.679,-0.082 0.679,-0.073 0.226,-0.023 0.678,-0.065 0.679,-0.059 0.905,-0.071 0.678,-0.048 0.679,-0.043 0.679,-0.041 0.904,-0.049 0.679,-0.033 0.679,-0.031 0.904,-0.038 0.679,-0.026 0.679,-0.025 0.904,-0.03 0.679,-0.021 0.679,-0.019 0.904,-0.025 0.679,-0.016 0.679,-0.016 0.904,-0.02 0.679,-0.014 0.679,-0.013 0.226,-0.005 0.678,-0.012 0.679,-0.011 0.679,-0.011 0.678,-0.011 0.905,-0.013 0.679,-0.009 0.678,-0.009 0.905,-0.011 0.679,-0.008 0.678,-0.007 0.905,-0.01 0.679,-0.007 0.678,-0.006 0.905,-0.009 0.679,-0.005 0.678,-0.006 0.905,-0.007 0.679,-0.005 0.678,-0.005 0.905,-0.007 0.679,-0.004 0.678,-0.005 0.679,-0.004 0.905,-0.005 0.678,-0.004 0.679,-0.004 0.905,-0.004 0.678,-0.004 0.679,-0.003 0.905,-0.004 0.678,-0.004 0.679,-0.002 0.905,-0.004 0.678,-0.003 0.679,-0.003 0.905,-0.003 0.678,-0.003 0.679,-0.002 0.905,-0.003 0.678,-0.002 0.679,-0.003 0.678,-0.002 0.905,-0.003 0.679,-0.002 0.678,-10e-4 0.905,-0.003 0.679,-0.002 0.678,-0.002 0.905,-0.002 0.679,-0.002 0.678,-10e-4 0.905,-0.002 0.679,-0.002 0.678,-0.001 0.905,-0.002 0.679,-0.002 0.678,-10e-4 0.905,-0.002 0.679,-10e-4"
           style="fill:none;stroke:#000000;stroke-width:2;stroke-linecap:butt;stroke-linejoin:miter;stroke-miterlimit:10;stroke-dasharray:none;stroke-opacity:1"
           id="path22" /></g></g><g
       id="g24"><g
         id="g26"
         clip-path="url(#clipPath30)"><path
           d="m 53.25,39.933 0.452,0.003 0.679,0.003 0.905,0.005 0.678,0.004 0.679,0.004 0.905,0.005 0.678,0.004 0.679,0.004 0.905,0.006 0.678,0.005 0.679,0.004 0.905,0.007 0.678,0.005 0.679,0.005 0.905,0.007 0.678,0.005 0.679,0.006 0.905,0.008 0.678,0.006 0.679,0.006 0.679,0.006 0.904,0.009 0.679,0.007 0.679,0.007 0.904,0.01 0.679,0.008 0.679,0.008 0.904,0.011 0.679,0.009 0.679,0.009 0.678,0.009 0.226,0.003 0.679,0.01 0.679,0.01 0.904,0.014 0.679,0.011 0.679,0.011 0.904,0.016 0.679,0.012 0.679,0.013 0.678,0.013 0.905,0.019 0.679,0.015 0.678,0.015 0.905,0.022 0.679,0.016 0.678,0.018 0.905,0.025 0.679,0.019 0.678,0.021 0.905,0.028 0.679,0.023 0.678,0.024 0.905,0.033 0.679,0.027 0.678,0.028 0.905,0.04 0.679,0.031 0.678,0.033 0.679,0.035 0.905,0.05 0.678,0.04 0.679,0.042 0.678,0.045 0.227,0.015 0.678,0.048 0.679,0.051 0.905,0.074 0.678,0.059 0.679,0.063 0.905,0.09 0.678,0.074 0.679,0.079 0.905,0.114 0.678,0.093 0.679,0.1 0.905,0.146 0.678,0.12 0.679,0.131 0.678,0.141 0.453,0.101 0.452,0.107 0.679,0.173 0.678,0.19 0.905,0.282 0.679,0.237 0.678,0.262 0.679,0.29 0.226,0.104 0.679,0.336 0.678,0.375 0.905,0.575 0.226,0.159 0.453,0.338 0.452,0.368 0.226,0.196 0.679,0.645 0.226,0.235 0.453,0.505 0.226,0.272 0.452,0.585 0.226,0.315 0.227,0.332 0.452,0.718 0.226,0.389 0.226,0.412 0.453,0.894 0.226,0.488 0.452,1.065 0.227,0.583 0.226,0.62 0.226,0.66 0.226,0.705 0.226,0.752 0.227,0.803 0.226,0.861 0.226,0.922 0.226,0.989 0.226,1.063 0.227,1.144 0.226,1.233 0.226,1.331 0.226,1.438 0.226,1.557 0.227,1.689 0.226,1.834 0.226,1.994 0.226,2.173 0.226,2.37 0.227,2.59 0.226,2.834 0.226,3.104 0.226,3.405 0.226,3.739 0.227,4.106 0.226,4.513 0.226,4.958 0.226,5.443 0.226,5.967 0.227,6.524 0.226,7.108 0.226,7.702 0.226,8.286 0.226,8.827 0.227,9.283 0.226,9.603 0.226,9.719 0.226,9.566 0.226,9.077 0.227,8.202 0.226,6.925 0.226,5.263 0.226,3.29 0.226,1.115 0.227,-1.119 0.226,-3.267 0.226,-5.194 0.226,-6.805 0.226,-8.043 0.227,-8.894 0.226,-9.381 0.226,-9.548 0.226,-9.457 0.226,-9.168 0.227,-8.743 0.226,-8.229 0.226,-7.669 0.226,-7.094 0.226,-6.526 0.227,-5.979 0.226,-5.463 0.226,-4.982 0.226,-4.541 0.226,-4.137 0.227,-3.77 0.226,-3.436 0.226,-3.136 0.226,-2.865 0.226,-2.62 0.227,-2.399 0.226,-2.201 0.226,-2.021 0.226,-1.86 0.226,-1.713 0.227,-1.582 0.226,-1.461 0.226,-1.353 0.226,-1.254 0.226,-1.164 0.227,-1.083 0.226,-1.007 0.226,-0.94 0.226,-0.878 0.226,-0.82 0.227,-0.767 0.226,-0.72 0.452,-1.309 0.226,-0.597 0.227,-0.561 0.226,-0.53 0.226,-0.499 0.226,-0.472 0.453,-0.868 0.226,-0.399 0.452,-0.739 0.226,-0.341 0.453,-0.633 0.226,-0.294 0.226,-0.28 0.453,-0.522 0.226,-0.243 0.678,-0.666 0.679,-0.584 0.226,-0.179 0.453,-0.336 0.678,-0.457 0.226,-0.14 0.679,-0.391 0.452,-0.238 0.227,-0.112 0.678,-0.315 0.679,-0.283 0.226,-0.088 0.679,-0.249 0.678,-0.225 0.679,-0.206 0.226,-0.064 0.679,-0.183 0.678,-0.167 0.905,-0.202 0.452,-0.093 0.227,-0.045 0.678,-0.127 0.905,-0.156 0.679,-0.106 0.678,-0.1 0.905,-0.122 0.679,-0.084 0.678,-0.079 0.905,-0.097 0.679,-0.068 0.678,-0.064 0.679,-0.06 0.905,-0.074 0.678,-0.052 0.679,-0.05 0.905,-0.061 0.678,-0.043 0.679,-0.041 0.905,-0.052 0.678,-0.036 0.679,-0.035 0.905,-0.043 0.678,-0.031 0.679,-0.029 0.905,-0.037 0.678,-0.026 0.679,-0.025 0.905,-0.032 0.678,-0.023 0.679,-0.021 0.678,-0.021 0.905,-0.026 0.679,-0.019 0.678,-0.018 0.905,-0.023 0.679,-0.017 0.678,-0.015 0.905,-0.021 0.679,-0.014 0.678,-0.014 0.905,-0.018 0.679,-0.012 0.678,-0.013 0.905,-0.015 0.679,-0.012 0.678,-0.011 0.905,-0.014 0.679,-0.01 0.678,-0.01 0.679,-0.009 0.905,-0.012 0.678,-0.009 0.679,-0.008 0.905,-0.011 0.678,-0.008 0.679,-0.007 0.905,-0.01 0.678,-0.007 0.679,-0.007 0.905,-0.009 0.678,-0.006 0.227,-0.002 0.452,-0.004 0.905,-0.008 0.678,-0.006 0.679,-0.006 0.679,-0.005 0.904,-0.007 0.679,-0.005 0.679,-0.005 0.904,-0.006 0.679,-0.005 0.679,-0.004 0.904,-0.006 0.679,-0.004 0.679,-0.004 0.904,-0.005 0.679,-0.004 0.679,-0.003 0.904,-0.005 0.679,-0.003 0.679,-0.003 0.904,-0.005 0.679,-0.003 0.679,-0.003 0.678,-0.002 0.905,-0.004 0.679,-0.002 0.678,-0.003 0.905,-0.003 0.679,-0.002 0.678,-0.002 0.905,-0.003 0.679,-0.002 0.678,-0.002 0.905,-0.002 0.679,-0.002 0.678,-0.001 0.905,-0.002 0.679,-0.002 0.678,-10e-4 0.905,-0.001 0.679,-10e-4 0.678,-10e-4 0.679,-0.001 0.905,-10e-4 h 0.678 l 0.679,-10e-4 h 0.905 0.678 0.679 0.905 l 0.678,10e-4 h 0.679 l 0.905,10e-4 0.678,0.001 0.679,0.002 0.905,0.001 0.678,0.002 0.679,0.002 0.905,0.003 0.678,0.002 0.679,0.003 0.678,0.003 0.905,0.005 0.679,0.004 0.678,0.004 0.905,0.007 0.679,0.005 0.678,0.007 0.905,0.009 0.679,0.007 0.678,0.009 0.905,0.013 0.679,0.011 0.678,0.012 0.905,0.018 0.679,0.015 0.226,0.006 0.452,0.011 0.905,0.027 0.679,0.022 0.678,0.026 0.679,0.029 0.905,0.045 0.678,0.039 0.679,0.046 0.905,0.071 0.678,0.065 0.679,0.075 0.905,0.124 0.678,0.114 0.453,0.089 0.226,0.049 0.905,0.233 0.678,0.225 0.679,0.283 0.905,0.503 0.452,0.325 0.226,0.185 0.453,0.427 0.226,0.245 0.452,0.565 0.453,0.683 0.452,0.822 0.226,0.468 0.227,0.508 0.226,0.548 0.226,0.585 0.226,0.616 0.226,0.64 0.227,0.649 0.226,0.64 0.226,0.607 0.452,1.007 0.453,0.543 0.226,0.047 0.452,-0.374 0.227,-0.393 0.226,-0.498 0.226,-0.574 0.226,-0.621 0.226,-0.643 0.227,-0.644 0.226,-0.628 0.226,-0.602 0.226,-0.567 0.453,-1.019 0.226,-0.45 0.452,-0.789 0.226,-0.344 0.227,-0.313 0.452,-0.543 0.226,-0.237 0.453,-0.411 0.452,-0.344 0.452,-0.289 0.679,-0.352 0.226,-0.099 0.453,-0.178 0.904,-0.285 0.679,-0.167 0.452,-0.094 0.227,-0.043 0.904,-0.148 0.679,-0.091 0.679,-0.077 0.678,-0.065 0.905,-0.074 0.679,-0.047 0.678,-0.041 0.905,-0.048 0.679,-0.031 0.678,-0.027 0.905,-0.032 0.226,-0.008 0.453,-0.014 0.678,-0.019 0.905,-0.023 0.679,-0.015 0.678,-0.014 0.905,-0.017 0.679,-0.012 0.678,-0.01 0.905,-0.013 0.679,-0.009 0.678,-0.008 0.679,-0.008 0.905,-0.009 0.678,-0.007 0.679,-0.006 0.905,-0.008 0.678,-0.005 0.679,-0.005 0.905,-0.006 0.678,-0.004 0.679,-0.005 0.905,-0.005 0.678,-0.003 0.679,-0.004 0.905,-0.004 0.678,-0.003 0.679,-0.003 0.905,-0.004 0.678,-0.003 0.679,-0.002 0.678,-0.002 0.905,-0.004 0.679,-0.002 0.678,-0.002 0.905,-0.003 0.679,-10e-4 0.678,-0.002 0.905,-0.003 0.679,-10e-4 0.678,-0.002 0.905,-0.002 0.679,-0.002 0.678,-0.001 0.905,-0.002 0.679,-0.001 0.678,-0.002 0.905,-10e-4 0.679,-0.002"
           style="fill:none;stroke:#ff0000;stroke-width:2;stroke-linecap:butt;stroke-linejoin:miter;stroke-miterlimit:10;stroke-dasharray:none;stroke-opacity:1"
           id="path32" /></g></g><g
       id="g34"><g
         id="g36"
         clip-path="url(#clipPath40)"><path
           d="m 53.25,39.769 h 0.452 0.679 0.905 0.678 l 0.679,0.001 h 0.905 0.678 0.679 l 0.905,10e-4 h 0.678 0.679 0.905 l 0.678,10e-4 h 0.679 0.905 0.678 l 0.679,0.001 h 0.905 0.678 0.679 l 0.679,10e-4 h 0.904 0.679 l 0.679,10e-4 h 0.904 0.679 l 0.679,0.001 h 0.904 0.679 0.679 l 0.904,10e-4 h 0.679 0.679 l 0.904,10e-4 h 0.679 l 0.679,0.001 h 0.904 0.679 l 0.679,10e-4 h 0.678 0.905 l 0.679,10e-4 h 0.678 l 0.905,10e-4 h 0.679 0.678 l 0.905,0.001 h 0.679 l 0.678,10e-4 h 0.905 l 0.679,10e-4 h 0.678 l 0.905,0.001 h 0.679 l 0.678,10e-4 h 0.905 l 0.679,10e-4 h 0.678 l 0.679,0.001 h 0.905 l 0.678,10e-4 h 0.679 l 0.905,10e-4 0.678,0.001 h 0.679 l 0.905,10e-4 h 0.678 l 0.679,10e-4 0.905,0.001 h 0.678 l 0.679,10e-4 0.905,10e-4 h 0.678 l 0.679,0.001 0.905,10e-4 h 0.678 l 0.679,10e-4 0.678,0.001 0.905,10e-4 0.679,10e-4 h 0.678 l 0.905,0.001 0.679,10e-4 0.678,10e-4 0.905,0.001 0.679,10e-4 0.678,10e-4 0.905,0.001 0.679,10e-4 h 0.678 l 0.905,0.002 0.679,10e-4 0.678,10e-4 0.905,0.001 0.679,10e-4 0.678,10e-4 0.679,0.001 0.905,10e-4 0.678,0.002 0.679,10e-4 0.905,10e-4 0.678,0.001 0.679,0.002 0.905,0.001 0.678,10e-4 0.679,0.002 0.905,0.002 0.678,0.001 0.679,10e-4 0.905,0.002 0.678,0.002 0.679,0.001 0.905,0.002 0.678,0.002 0.679,0.002 0.679,0.001 0.904,0.003 0.679,10e-4 0.679,0.002 0.904,0.003 0.679,0.002 0.679,0.002 0.904,0.002 0.679,0.003 0.679,0.002 0.904,0.003 0.679,0.002 0.679,0.002 0.904,0.004 0.679,0.002 0.679,0.003 0.904,0.003 0.679,0.003 0.679,0.003 0.678,0.003 0.905,0.004 0.679,0.003 0.678,0.004 0.905,0.004 0.679,0.004 0.678,0.003 0.905,0.005 0.679,0.004 0.678,0.004 0.905,0.006 0.679,0.004 0.678,0.005 0.905,0.006 0.679,0.005 0.678,0.005 0.905,0.007 0.679,0.005 0.678,0.006 0.679,0.006 0.905,0.008 0.678,0.007 0.679,0.006 0.905,0.01 0.678,0.007 0.679,0.008 0.905,0.01 0.678,0.009 0.679,0.009 0.905,0.012 0.678,0.01 0.679,0.01 0.905,0.014 0.678,0.011 0.679,0.012 0.905,0.017 0.678,0.013 0.679,0.014 0.678,0.015 0.905,0.021 0.679,0.016 0.678,0.018 0.905,0.025 0.679,0.02 0.678,0.021 0.905,0.03 0.679,0.024 0.678,0.026 0.905,0.037 0.679,0.03 0.678,0.032 0.905,0.046 0.679,0.038 0.678,0.04 0.905,0.059 0.679,0.049 0.678,0.052 0.679,0.057 0.679,0.063 0.226,0.022 0.678,0.07 0.679,0.076 0.905,0.115 0.678,0.096 0.679,0.107 0.905,0.163 0.452,0.091 0.226,0.048 0.679,0.157 0.905,0.242 0.678,0.212 0.453,0.159 0.226,0.086 0.905,0.388 0.452,0.227 0.226,0.123 0.679,0.415 0.452,0.32 0.227,0.176 0.678,0.6 0.226,0.229 0.453,0.507 0.226,0.282 0.452,0.631 0.227,0.354 0.226,0.382 0.452,0.864 0.226,0.488 0.453,1.112 0.226,0.634 0.226,0.693 0.226,0.758 0.227,0.831 0.226,0.911 0.226,1 0.226,1.096 0.226,1.202 0.227,1.315 0.226,1.434 0.226,1.56 0.226,1.685 0.226,1.807 0.227,1.917 0.226,2.005 0.226,2.06 0.226,2.066 0.226,2.006 0.227,1.868 0.226,1.64 0.226,1.322 0.226,0.923 0.226,0.463 0.227,-0.025 0.226,-0.507 0.226,-0.944 0.226,-1.312 0.226,-1.593 0.227,-1.782 0.226,-1.887 0.226,-1.917 0.226,-1.89 0.226,-1.818 0.227,-1.718 0.226,-1.6 0.226,-1.473 0.226,-1.344 0.226,-1.217 0.227,-1.096 0.226,-0.98 0.226,-0.873 0.226,-0.772 0.226,-0.68 0.227,-0.594 0.226,-0.516 0.452,-0.816 0.679,-0.758 0.226,-0.142 0.679,-0.121 0.678,0.315 0.226,0.204 0.679,0.924 0.452,0.905 0.227,0.551 0.226,0.622 0.226,0.701 0.226,0.785 0.226,0.877 0.227,0.979 0.226,1.09 0.226,1.213 0.226,1.347 0.226,1.495 0.227,1.657 0.226,1.834 0.226,2.027 0.226,2.235 0.226,2.456 0.227,2.687 0.226,2.923 0.226,3.156 0.226,3.373 0.226,3.558 0.227,3.688 0.226,3.739 0.226,3.68 0.226,3.483 0.226,3.128 0.227,2.602 0.226,1.914 0.226,1.095 0.452,-0.526 0.227,-1.586 0.226,-2.34 0.226,-2.945 0.226,-3.381 0.226,-3.653 0.227,-3.776 0.226,-3.777 0.226,-3.685 0.226,-3.529 0.226,-3.329 0.227,-3.108 0.226,-2.876 0.226,-2.648 0.226,-2.426 0.226,-2.216 0.227,-2.022 0.226,-1.842 0.226,-1.678 0.226,-1.528 0.226,-1.394 0.227,-1.271 0.226,-1.161 0.226,-1.062 0.226,-0.973 0.226,-0.892 0.227,-0.82 0.226,-0.753 0.226,-0.695 0.226,-0.641 0.226,-0.593 0.227,-0.549 0.226,-0.509 0.226,-0.472 0.226,-0.44 0.226,-0.409 0.453,-0.738 0.452,-0.646 0.453,-0.568 0.226,-0.258 0.452,-0.473 0.226,-0.216 0.453,-0.397 0.452,-0.355 0.453,-0.319 0.678,-0.421 0.679,-0.364 0.678,-0.315 0.227,-0.096 0.678,-0.264 0.679,-0.233 0.678,-0.206 0.227,-0.064 0.678,-0.176 0.679,-0.158 0.678,-0.142 0.905,-0.168 0.679,-0.113 0.678,-0.102 0.905,-0.123 0.679,-0.082 0.678,-0.077 0.905,-0.092 0.679,-0.063 0.678,-0.058 0.453,-0.036 0.452,-0.035 0.679,-0.049 0.678,-0.046 0.905,-0.056 0.679,-0.039 0.678,-0.036 0.905,-0.045 0.679,-0.032 0.678,-0.029 0.679,-0.028 0.905,-0.035 0.678,-0.024 0.679,-0.024 0.905,-0.028 0.678,-0.021 0.679,-0.019 0.905,-0.024 0.678,-0.018 0.679,-0.016 0.905,-0.02 0.678,-0.015 0.679,-0.014 0.905,-0.018 0.678,-0.012 0.679,-0.012 0.905,-0.016 0.678,-0.01 0.679,-0.011 0.679,-0.01 0.226,-0.003 0.678,-0.01 0.679,-0.009 0.679,-0.008 0.904,-0.012 0.679,-0.008 0.679,-0.007 0.904,-0.01 0.679,-0.007 0.679,-0.007 0.904,-0.009 0.679,-0.006 0.679,-0.006 0.904,-0.008 0.679,-0.006 0.679,-0.005 0.904,-0.007 0.679,-0.005 0.679,-0.005 0.678,-0.005 0.905,-0.006 0.679,-0.004 0.678,-0.005 0.905,-0.005 0.679,-0.004 0.678,-0.004 0.905,-0.005 0.679,-0.004 0.678,-0.003 0.905,-0.005 0.679,-0.003 0.678,-0.003 0.905,-0.004 0.679,-0.003 0.678,-0.003 0.905,-0.004 0.679,-0.003 0.678,-0.002 0.679,-0.003 0.905,-0.003 0.678,-0.003 0.679,-0.002 0.905,-0.003 0.678,-0.003 0.679,-0.002 0.905,-0.003 0.678,-0.002 0.679,-0.002 0.905,-0.003 0.678,-0.002 0.679,-0.002 0.905,-0.002 0.678,-0.002 0.679,-0.002 0.905,-0.002 0.678,-0.002 0.679,-0.001 0.678,-0.002 0.905,-0.002 0.679,-10e-4 0.678,-0.002 0.905,-0.002 0.679,-10e-4 0.678,-0.002 0.905,-0.002 0.679,-0.001 0.678,-10e-4 0.905,-0.002 0.679,-10e-4 0.678,-10e-4 0.905,-0.002 0.679,-10e-4 0.678,-0.001 0.905,-0.002 0.679,-10e-4"
           style="fill:none;stroke:#00ff00;stroke-width:2;stroke-linecap:butt;stroke-linejoin:miter;stroke-miterlimit:10;stroke-dasharray:none;stroke-opacity:1"
           id="path42" /></g></g><g
       id="g44"><path
         d="m 11.25,56.391 v 1.371 H 5.566 l 0.153,-0.211 4.347,2.238 v 1.09 L 5.719,63.047 5.59,62.918 h 5.66 v 1.371 H 3.609 v -1.371 l 5.59,-2.848 v 0.668 l -5.59,-2.941 v -1.406 h 7.641 m 0.105,12.726 c 0,1.688 -1.148,2.824 -2.859,2.824 -1.641,0 -2.707,-1.043 -2.707,-2.648 0,-1.699 1.149,-2.824 2.871,-2.824 1.629,0 2.695,1.031 2.695,2.648 m -1.183,0.129 c 0,-0.832 -0.633,-1.359 -1.629,-1.359 -0.961,0 -1.57,0.492 -1.57,1.277 0,0.82 0.656,1.359 1.652,1.359 0.949,0 1.547,-0.492 1.547,-1.277 m 1.16,6.551 c 0,0.34 -0.082,0.726 -0.199,1.019 l -0.938,-0.293 c 0.035,-0.117 0.059,-0.234 0.059,-0.339 0,-0.329 -0.211,-0.504 -0.586,-0.504 H 3.117 v -1.383 h 6.727 c 0.926,0 1.488,0.562 1.488,1.5 M 11.25,81.41 v 0.996 H 8.027 c -1.441,0 -2.238,-0.82 -2.238,-2.402 0,-0.762 0.188,-1.582 0.516,-2.215 l 0.972,0.34 c -0.211,0.551 -0.328,1.09 -0.328,1.582 0,0.855 0.328,1.312 0.973,1.312 h 2.297 l 1.031,0.387 m 0.105,-1.875 c 0,1.184 -0.667,2.027 -1.828,2.297 L 9.316,81.375 c 0.575,-0.187 0.938,-0.727 0.938,-1.371 0,-0.539 -0.27,-0.902 -0.68,-0.902 -0.515,0 -0.726,0.609 -0.726,2.168 H 8.074 c 0,-2.485 0.516,-3.586 1.699,-3.586 0.961,0 1.582,0.726 1.582,1.851 m -0.105,5.262 v 1.406 H 7.57 L 5.895,85.91 v -1.113 h 5.355 m -3.047,1.137 c -0.656,0.293 -1.043,0.878 -1.043,1.535 0,0.222 0.047,0.48 0.117,0.679 l -1.289,0.329 c -0.093,-0.235 -0.14,-0.516 -0.14,-0.797 0,-0.703 0.375,-1.36 1.019,-1.746 h 1.336 m 3.047,6.316 v 1.512 l -6.914,2.25 v -0.317 l 6.914,2.239 v 1.57 L 3.609,96.867 V 95.039 L 11.25,92.25 m -1.91,1.793 v 3.656 L 8.074,97.488 V 94.23 L 9.34,94.043 m 2.015,9.902 c 0,1.5 -1.136,2.508 -2.835,2.508 -1.641,0 -2.731,-0.949 -2.731,-2.355 0,-0.985 0.527,-1.7 1.418,-2.051 l 0.527,0.422 c -0.504,0.199 -0.761,0.644 -0.761,1.172 0,0.867 0.632,1.394 1.64,1.394 0.961,0 1.559,-0.48 1.559,-1.277 0,-0.563 -0.293,-1.02 -0.785,-1.254 l 0.715,-0.481 c 0.82,0.329 1.253,0.985 1.253,1.922 m -0.105,-2.648 v 0.891 l -0.973,0.468 h -7.16 v -1.359 h 8.133 m 0.105,9.258 c 0,1.465 -0.644,2.332 -1.71,2.332 -2.004,0 -1.336,-3.024 -2.239,-3.024 -0.316,0 -0.515,0.375 -0.515,1.032 0,0.445 0.082,0.972 0.222,1.464 l -1.043,0.293 c -0.187,-0.492 -0.281,-1.125 -0.281,-1.722 0,-1.535 0.621,-2.426 1.711,-2.426 1.992,0 1.242,2.988 2.215,2.988 0.34,0 0.551,-0.363 0.551,-0.961 0,-0.515 -0.141,-1.23 -0.364,-1.793 l 1.043,-0.316 c 0.258,0.621 0.41,1.394 0.41,2.133 m 0,6.562 c 0,1.688 -1.148,2.824 -2.859,2.824 -1.641,0 -2.707,-1.043 -2.707,-2.648 0,-1.699 1.149,-2.824 2.871,-2.824 1.629,0 2.695,1.031 2.695,2.648 m -1.183,0.129 c 0,-0.832 -0.633,-1.359 -1.629,-1.359 -0.961,0 -1.57,0.492 -1.57,1.277 0,0.82 0.656,1.359 1.652,1.359 0.949,0 1.547,-0.492 1.547,-1.277 m 1.078,5.051 v 1.406 H 7.57 L 5.895,123.41 v -1.113 h 5.355 m -3.047,1.137 c -0.656,0.293 -1.043,0.878 -1.043,1.535 0,0.222 0.047,0.48 0.117,0.679 l -1.289,0.329 c -0.093,-0.235 -0.14,-0.516 -0.14,-0.797 0,-0.703 0.375,-1.36 1.019,-1.746 h 1.336 m 3.152,6.796 c 0,1.442 -1.183,2.473 -2.859,2.473 -1.594,0 -2.707,-0.961 -2.707,-2.332 0,-0.844 0.434,-1.559 1.16,-1.957 l 0.645,0.352 c -0.387,0.281 -0.621,0.726 -0.621,1.207 0,0.808 0.632,1.312 1.629,1.312 0.96,0 1.57,-0.469 1.57,-1.242 0,-0.586 -0.352,-1.09 -0.902,-1.277 l 0.82,-0.399 c 0.808,0.305 1.265,0.985 1.265,1.863 m 2.286,-2.683 v 1.359 H 6.879 l -0.984,-0.41 v -0.949 h 7.746 m -2.309,9.621 c 0,0.363 -0.07,0.762 -0.187,1.102 l -1.008,-0.282 c 0.07,-0.152 0.105,-0.351 0.105,-0.515 0,-0.504 -0.293,-0.821 -0.762,-0.821 H 4.348 v -1.394 h 5.226 c 1.078,0 1.758,0.715 1.758,1.91 M 7.02,134.52 v 3.468 H 5.895 V 134.52 H 7.02 m 4.23,5.027 v 1.406 H 5.895 v -1.406 h 5.355 m -6.34,0.703 c 0,0.527 -0.34,0.867 -0.855,0.867 -0.539,0 -0.879,-0.34 -0.879,-0.867 0,-0.516 0.34,-0.855 0.879,-0.855 0.515,0 0.855,0.339 0.855,0.855 m 6.445,5.367 c 0,1.688 -1.148,2.824 -2.859,2.824 -1.641,0 -2.707,-1.043 -2.707,-2.648 0,-1.699 1.149,-2.824 2.871,-2.824 1.629,0 2.695,1.031 2.695,2.648 m -1.183,0.129 c 0,-0.832 -0.633,-1.359 -1.629,-1.359 -0.961,0 -1.57,0.492 -1.57,1.277 0,0.82 0.656,1.359 1.652,1.359 0.949,0 1.547,-0.492 1.547,-1.277 m 1.078,8.578 v 1.406 H 7.957 c -1.336,0 -2.145,-0.75 -2.145,-1.957 0,-0.773 0.34,-1.488 0.938,-1.98 l 0.855,0.199 c -0.375,0.363 -0.574,0.809 -0.574,1.301 0,0.68 0.387,1.031 1.114,1.031 h 3.105 m 0,-3.527 v 1.406 H 6.844 l -0.949,-0.398 v -1.008 h 5.355 m 2.086,11.883 -0.598,0.996 c -1.254,-0.821 -2.812,-1.242 -4.617,-1.242 -1.605,0 -3.082,0.398 -4.559,1.23 L 3,162.645 c 1.582,-1.043 3.375,-1.571 5.191,-1.571 1.993,0 3.704,0.539 5.145,1.606 m -2.086,3.211 v 4.711 H 9.996 V 167.32 H 3.609 v -1.429 h 7.641 m 0.105,7.347 c 0,0.574 -0.398,0.95 -0.937,0.95 -0.563,0 -0.961,-0.376 -0.961,-0.95 0,-0.562 0.398,-0.937 0.961,-0.937 0.539,0 0.937,0.375 0.937,0.937 m -0.105,10.805 v 1.406 H 7.957 c -1.336,0 -2.145,-0.738 -2.145,-1.945 0,-0.762 0.34,-1.477 0.938,-1.969 l 0.855,0.211 c -0.375,0.352 -0.574,0.785 -0.574,1.277 0,0.68 0.387,1.02 1.114,1.02 h 3.105 m 0,-6.996 v 1.406 H 6.844 l -0.949,-0.398 v -1.008 h 5.355 m 0,3.504 v 1.394 H 7.957 c -1.336,0 -2.145,-0.738 -2.145,-1.933 0,-0.774 0.34,-1.477 0.938,-1.969 l 0.855,0.199 c -0.375,0.352 -0.574,0.797 -0.574,1.278 0,0.679 0.387,1.031 1.114,1.031 h 3.105 m 0.105,10.066 c 0,1.688 -1.148,2.824 -2.859,2.824 -1.641,0 -2.707,-1.043 -2.707,-2.648 0,-1.699 1.149,-2.824 2.871,-2.824 1.629,0 2.695,1.031 2.695,2.648 m -1.183,0.129 c 0,-0.832 -0.633,-1.359 -1.629,-1.359 -0.961,0 -1.57,0.492 -1.57,1.277 0,0.82 0.656,1.359 1.652,1.359 0.949,0 1.547,-0.492 1.547,-1.277 m 1.16,6.551 c 0,0.34 -0.082,0.726 -0.199,1.019 l -0.938,-0.293 c 0.035,-0.117 0.059,-0.234 0.059,-0.339 0,-0.329 -0.211,-0.504 -0.586,-0.504 H 3.117 v -1.383 h 6.727 c 0.926,0 1.488,0.562 1.488,1.5"
         style="fill:#000000;fill-opacity:1;fill-rule:nonzero;stroke:none"
         id="path46" /></g><g
       id="g48"><path
         d="m 5.32,199.148 v 2.075 H 4.582 v -2.075 H 5.32 m 1.442,4.149 v 0.891 H 1.898 v -0.528 l 0.938,-1.851 0.633,0.339 -0.645,1.43 -0.281,-0.281 h 4.219"
         style="fill:#000000;fill-opacity:1;fill-rule:nonzero;stroke:none"
         id="path50" /></g><g
       id="g52"><path
         d="m 11.355,206.238 c 0,0.574 -0.398,0.95 -0.937,0.95 -0.563,0 -0.961,-0.376 -0.961,-0.95 0,-0.562 0.398,-0.937 0.961,-0.937 0.539,0 0.937,0.375 0.937,0.937 m 0,6.153 c 0,0.656 -0.14,1.265 -0.41,1.769 l -0.972,-0.316 c 0.164,-0.375 0.257,-0.785 0.257,-1.137 0,-0.996 -0.621,-1.559 -1.687,-1.559 -1.008,0 -1.57,0.504 -1.57,1.465 0,0.387 0.093,0.844 0.246,1.231 l -1.102,0.293 c -0.211,-0.457 -0.328,-1.02 -0.328,-1.571 0,-1.722 1.149,-2.847 2.906,-2.847 1.676,0 2.66,0.996 2.66,2.672 m -0.105,10.652 v 1.406 H 7.957 c -1.336,0 -2.145,-0.738 -2.145,-1.945 0,-0.762 0.34,-1.477 0.938,-1.969 l 0.855,0.211 c -0.375,0.352 -0.574,0.785 -0.574,1.277 0,0.68 0.387,1.02 1.114,1.02 h 3.105 m 0,-6.996 v 1.406 H 6.844 l -0.949,-0.398 v -1.008 h 5.355 m 0,3.504 v 1.394 H 7.957 c -1.336,0 -2.145,-0.738 -2.145,-1.933 0,-0.774 0.34,-1.477 0.938,-1.969 l 0.855,0.199 c -0.375,0.352 -0.574,0.797 -0.574,1.278 0,0.679 0.387,1.031 1.114,1.031 h 3.105"
         style="fill:#000000;fill-opacity:1;fill-rule:nonzero;stroke:none"
         id="path54" /></g><g
       id="g56"><path
         d="m 5.32,226.898 v 2.075 H 4.582 v -2.075 H 5.32 m 1.442,4.149 v 0.891 H 1.898 v -0.528 l 0.938,-1.851 0.633,0.339 -0.645,1.43 -0.281,-0.281 h 4.219"
         style="fill:#000000;fill-opacity:1;fill-rule:nonzero;stroke:none"
         id="path58" /></g><g
       id="g60"><path
         d="m 13.336,233.859 c -1.441,1.067 -3.152,1.606 -5.145,1.606 -1.816,0 -3.609,-0.527 -5.191,-1.57 l 0.562,-1.02 c 1.477,0.832 2.954,1.23 4.559,1.23 1.805,0 3.363,-0.421 4.617,-1.242 z"
         style="fill:#000000;fill-opacity:1;fill-rule:nonzero;stroke:none"
         id="path62" /></g><g
       id="g64"><path
         d="m 46.113,35.895 c 1.699,0 2.754,1.488 2.754,3.984 0,2.391 -1.019,3.867 -2.683,3.867 -1.723,0 -2.801,-1.5 -2.801,-3.984 0,-2.403 1.043,-3.867 2.73,-3.867 m 0.059,0.773 c -1.149,0 -1.863,1.207 -1.863,3.211 0,1.922 0.703,3.094 1.804,3.094 1.125,0 1.828,-1.219 1.828,-3.211 0,-1.922 -0.668,-3.094 -1.769,-3.094"
         style="fill:#000000;fill-opacity:1;fill-rule:nonzero;stroke:none"
         id="path66" /></g><g
       id="g68"><path
         d="m 24.949,71.191 h 0.879 v 7.7 h -0.527 l -2.719,-1.407 0.328,-0.632 2.332,1.113 -0.293,0.281 v -7.055 m 2.578,-1.851 h 0.797 c 0.387,0.949 0.598,2.133 0.598,3.222 h -0.949 c 0,-1.113 -0.164,-2.308 -0.446,-3.222 m 5.086,1.805 c 1.699,0 2.754,1.488 2.754,3.984 0,2.391 -1.019,3.867 -2.683,3.867 -1.723,0 -2.801,-1.5 -2.801,-3.984 0,-2.403 1.043,-3.867 2.73,-3.867 m 0.059,0.773 c -1.149,0 -1.863,1.207 -1.863,3.211 0,1.922 0.703,3.094 1.804,3.094 1.125,0 1.828,-1.219 1.828,-3.211 0,-1.922 -0.668,-3.094 -1.769,-3.094 m 6.691,-0.773 c 1.699,0 2.754,1.488 2.754,3.984 0,2.391 -1.019,3.867 -2.683,3.867 -1.723,0 -2.801,-1.5 -2.801,-3.984 0,-2.403 1.043,-3.867 2.73,-3.867 m 0.059,0.773 c -1.149,0 -1.863,1.207 -1.863,3.211 0,1.922 0.703,3.094 1.804,3.094 1.125,0 1.828,-1.219 1.828,-3.211 0,-1.922 -0.668,-3.094 -1.769,-3.094 m 6.691,-0.773 c 1.699,0 2.754,1.488 2.754,3.984 0,2.391 -1.019,3.867 -2.683,3.867 -1.723,0 -2.801,-1.5 -2.801,-3.984 0,-2.403 1.043,-3.867 2.73,-3.867 m 0.059,0.773 c -1.149,0 -1.863,1.207 -1.863,3.211 0,1.922 0.703,3.094 1.804,3.094 1.125,0 1.828,-1.219 1.828,-3.211 0,-1.922 -0.668,-3.094 -1.769,-3.094"
         style="fill:#000000;fill-opacity:1;fill-rule:nonzero;stroke:none"
         id="path70" /></g><g
       id="g72"><path
         d="m 21.504,107.25 h 4.851 v 0.797 h -3.914 l 0.118,-0.27 c 2.613,2.461 3.492,3.739 3.492,5.063 0,1.348 -0.914,2.156 -2.321,2.156 -0.914,0 -1.781,-0.328 -2.343,-0.867 l 0.246,-0.633 c 0.586,0.469 1.312,0.703 1.91,0.703 0.984,0 1.582,-0.586 1.582,-1.5 0,-1.113 -0.891,-2.261 -3.621,-4.84 v -0.609 m 6.023,-1.91 h 0.797 c 0.387,0.949 0.598,2.133 0.598,3.222 h -0.949 c 0,-1.113 -0.164,-2.308 -0.446,-3.222 m 5.086,1.805 c 1.699,0 2.754,1.488 2.754,3.984 0,2.391 -1.019,3.867 -2.683,3.867 -1.723,0 -2.801,-1.5 -2.801,-3.984 0,-2.403 1.043,-3.867 2.73,-3.867 m 0.059,0.773 c -1.149,0 -1.863,1.207 -1.863,3.211 0,1.922 0.703,3.094 1.804,3.094 1.125,0 1.828,-1.219 1.828,-3.211 0,-1.922 -0.668,-3.094 -1.769,-3.094 m 6.691,-0.773 c 1.699,0 2.754,1.488 2.754,3.984 0,2.391 -1.019,3.867 -2.683,3.867 -1.723,0 -2.801,-1.5 -2.801,-3.984 0,-2.403 1.043,-3.867 2.73,-3.867 m 0.059,0.773 c -1.149,0 -1.863,1.207 -1.863,3.211 0,1.922 0.703,3.094 1.804,3.094 1.125,0 1.828,-1.219 1.828,-3.211 0,-1.922 -0.668,-3.094 -1.769,-3.094 m 6.691,-0.773 c 1.699,0 2.754,1.488 2.754,3.984 0,2.391 -1.019,3.867 -2.683,3.867 -1.723,0 -2.801,-1.5 -2.801,-3.984 0,-2.403 1.043,-3.867 2.73,-3.867 m 0.059,0.773 c -1.149,0 -1.863,1.207 -1.863,3.211 0,1.922 0.703,3.094 1.804,3.094 1.125,0 1.828,-1.219 1.828,-3.211 0,-1.922 -0.668,-3.094 -1.769,-3.094"
         style="fill:#000000;fill-opacity:1;fill-rule:nonzero;stroke:none"
         id="path74" /></g><g
       id="g76"><path
         d="m 23.836,142.383 c 1.676,0 2.836,0.879 2.836,2.203 0,1.113 -0.856,1.898 -2.156,1.934 l -0.164,-0.129 c 1.136,0.023 1.921,0.797 1.921,1.851 0,1.219 -0.984,1.992 -2.402,1.992 -0.785,0 -1.676,-0.246 -2.32,-0.621 l 0.211,-0.679 c 0.679,0.339 1.394,0.515 1.957,0.515 0.984,0 1.699,-0.504 1.699,-1.289 0,-0.844 -0.82,-1.394 -1.945,-1.394 h -0.586 v -0.786 h 0.785 c 1.277,0 2.086,-0.55 2.086,-1.453 0,-0.855 -0.75,-1.336 -1.887,-1.336 -0.668,0 -1.559,0.164 -2.273,0.516 l -0.2,-0.738 c 0.739,-0.375 1.641,-0.586 2.438,-0.586 m 3.691,-1.793 h 0.797 c 0.387,0.949 0.598,2.133 0.598,3.222 h -0.949 c 0,-1.113 -0.164,-2.308 -0.446,-3.222 m 5.086,1.805 c 1.699,0 2.754,1.488 2.754,3.984 0,2.391 -1.019,3.867 -2.683,3.867 -1.723,0 -2.801,-1.5 -2.801,-3.984 0,-2.403 1.043,-3.867 2.73,-3.867 m 0.059,0.773 c -1.149,0 -1.863,1.207 -1.863,3.211 0,1.922 0.703,3.094 1.804,3.094 1.125,0 1.828,-1.219 1.828,-3.211 0,-1.922 -0.668,-3.094 -1.769,-3.094 m 6.691,-0.773 c 1.699,0 2.754,1.488 2.754,3.984 0,2.391 -1.019,3.867 -2.683,3.867 -1.723,0 -2.801,-1.5 -2.801,-3.984 0,-2.403 1.043,-3.867 2.73,-3.867 m 0.059,0.773 c -1.149,0 -1.863,1.207 -1.863,3.211 0,1.922 0.703,3.094 1.804,3.094 1.125,0 1.828,-1.219 1.828,-3.211 0,-1.922 -0.668,-3.094 -1.769,-3.094 m 6.691,-0.773 c 1.699,0 2.754,1.488 2.754,3.984 0,2.391 -1.019,3.867 -2.683,3.867 -1.723,0 -2.801,-1.5 -2.801,-3.984 0,-2.403 1.043,-3.867 2.73,-3.867 m 0.059,0.773 c -1.149,0 -1.863,1.207 -1.863,3.211 0,1.922 0.703,3.094 1.804,3.094 1.125,0 1.828,-1.219 1.828,-3.211 0,-1.922 -0.668,-3.094 -1.769,-3.094"
         style="fill:#000000;fill-opacity:1;fill-rule:nonzero;stroke:none"
         id="path78" /></g><g
       id="g80"><path
         d="m 24.316,177.645 h 0.868 v 7.746 H 24.34 l -3.832,-5.368 v -0.468 h 6.047 v 0.75 h -5.18 l 0.07,-0.188 3.047,4.36 -0.164,0.023 -0.012,-6.855 m 3.211,-1.805 h 0.797 c 0.387,0.949 0.598,2.133 0.598,3.222 h -0.949 c 0,-1.113 -0.164,-2.308 -0.446,-3.222 m 5.086,1.805 c 1.699,0 2.754,1.488 2.754,3.984 0,2.391 -1.019,3.867 -2.683,3.867 -1.723,0 -2.801,-1.5 -2.801,-3.984 0,-2.403 1.043,-3.867 2.73,-3.867 m 0.059,0.773 c -1.149,0 -1.863,1.207 -1.863,3.211 0,1.922 0.703,3.094 1.804,3.094 1.125,0 1.828,-1.219 1.828,-3.211 0,-1.922 -0.668,-3.094 -1.769,-3.094 m 6.691,-0.773 c 1.699,0 2.754,1.488 2.754,3.984 0,2.391 -1.019,3.867 -2.683,3.867 -1.723,0 -2.801,-1.5 -2.801,-3.984 0,-2.403 1.043,-3.867 2.73,-3.867 m 0.059,0.773 c -1.149,0 -1.863,1.207 -1.863,3.211 0,1.922 0.703,3.094 1.804,3.094 1.125,0 1.828,-1.219 1.828,-3.211 0,-1.922 -0.668,-3.094 -1.769,-3.094 m 6.691,-0.773 c 1.699,0 2.754,1.488 2.754,3.984 0,2.391 -1.019,3.867 -2.683,3.867 -1.723,0 -2.801,-1.5 -2.801,-3.984 0,-2.403 1.043,-3.867 2.73,-3.867 m 0.059,0.773 c -1.149,0 -1.863,1.207 -1.863,3.211 0,1.922 0.703,3.094 1.804,3.094 1.125,0 1.828,-1.219 1.828,-3.211 0,-1.922 -0.668,-3.094 -1.769,-3.094"
         style="fill:#000000;fill-opacity:1;fill-rule:nonzero;stroke:none"
         id="path82" /></g><g
       id="g84"><path
         d="m 23.684,213.645 c 1.699,0 2.847,0.96 2.847,2.46 0,1.43 -1.043,2.333 -2.754,2.333 -0.422,0 -0.843,-0.047 -1.23,-0.141 l 0.223,-0.281 0.128,2.589 h 3.27 v 0.786 h -4.102 l -0.187,-3.914 c 0.492,0.117 1.137,0.187 1.617,0.187 1.301,0 2.098,-0.598 2.098,-1.641 0,-0.984 -0.727,-1.582 -1.852,-1.582 -0.656,0 -1.383,0.188 -1.957,0.493 l -0.269,-0.727 c 0.679,-0.363 1.394,-0.562 2.168,-0.562 m 3.843,-1.805 h 0.797 c 0.387,0.949 0.598,2.133 0.598,3.222 h -0.949 c 0,-1.113 -0.164,-2.308 -0.446,-3.222 m 5.086,1.805 c 1.699,0 2.754,1.488 2.754,3.984 0,2.391 -1.019,3.867 -2.683,3.867 -1.723,0 -2.801,-1.5 -2.801,-3.984 0,-2.403 1.043,-3.867 2.73,-3.867 m 0.059,0.773 c -1.149,0 -1.863,1.207 -1.863,3.211 0,1.922 0.703,3.094 1.804,3.094 1.125,0 1.828,-1.219 1.828,-3.211 0,-1.922 -0.668,-3.094 -1.769,-3.094 m 6.691,-0.773 c 1.699,0 2.754,1.488 2.754,3.984 0,2.391 -1.019,3.867 -2.683,3.867 -1.723,0 -2.801,-1.5 -2.801,-3.984 0,-2.403 1.043,-3.867 2.73,-3.867 m 0.059,0.773 c -1.149,0 -1.863,1.207 -1.863,3.211 0,1.922 0.703,3.094 1.804,3.094 1.125,0 1.828,-1.219 1.828,-3.211 0,-1.922 -0.668,-3.094 -1.769,-3.094 m 6.691,-0.773 c 1.699,0 2.754,1.488 2.754,3.984 0,2.391 -1.019,3.867 -2.683,3.867 -1.723,0 -2.801,-1.5 -2.801,-3.984 0,-2.403 1.043,-3.867 2.73,-3.867 m 0.059,0.773 c -1.149,0 -1.863,1.207 -1.863,3.211 0,1.922 0.703,3.094 1.804,3.094 1.125,0 1.828,-1.219 1.828,-3.211 0,-1.922 -0.668,-3.094 -1.769,-3.094"
         style="fill:#000000;fill-opacity:1;fill-rule:nonzero;stroke:none"
         id="path86" /></g><g
       id="g88"><path
         d="m 23.59,248.895 c 1.476,0 2.519,1.031 2.519,2.519 0,1.371 -0.902,2.285 -2.226,2.285 -1.149,0 -2.051,-0.668 -2.309,-1.734 l 0.188,-0.469 c 0.234,0.914 0.949,1.442 1.863,1.442 0.996,0 1.617,-0.633 1.617,-1.641 0,-0.961 -0.586,-1.617 -1.547,-1.617 -1.254,0 -1.922,1.054 -1.922,3.047 0,2.144 0.774,3.222 2.391,3.222 0.539,0 1.09,-0.129 1.582,-0.375 l 0.258,0.715 c -0.598,0.316 -1.172,0.457 -1.793,0.457 -2.109,0 -3.328,-1.547 -3.328,-4.148 0,-2.344 0.984,-3.703 2.707,-3.703 m 3.937,-1.805 h 0.797 c 0.387,0.949 0.598,2.133 0.598,3.222 h -0.949 c 0,-1.113 -0.164,-2.308 -0.446,-3.222 m 5.086,1.805 c 1.699,0 2.754,1.488 2.754,3.984 0,2.391 -1.019,3.867 -2.683,3.867 -1.723,0 -2.801,-1.5 -2.801,-3.984 0,-2.403 1.043,-3.867 2.73,-3.867 m 0.059,0.773 c -1.149,0 -1.863,1.207 -1.863,3.211 0,1.922 0.703,3.094 1.804,3.094 1.125,0 1.828,-1.219 1.828,-3.211 0,-1.922 -0.668,-3.094 -1.769,-3.094 m 6.691,-0.773 c 1.699,0 2.754,1.488 2.754,3.984 0,2.391 -1.019,3.867 -2.683,3.867 -1.723,0 -2.801,-1.5 -2.801,-3.984 0,-2.403 1.043,-3.867 2.73,-3.867 m 0.059,0.773 c -1.149,0 -1.863,1.207 -1.863,3.211 0,1.922 0.703,3.094 1.804,3.094 1.125,0 1.828,-1.219 1.828,-3.211 0,-1.922 -0.668,-3.094 -1.769,-3.094 m 6.691,-0.773 c 1.699,0 2.754,1.488 2.754,3.984 0,2.391 -1.019,3.867 -2.683,3.867 -1.723,0 -2.801,-1.5 -2.801,-3.984 0,-2.403 1.043,-3.867 2.73,-3.867 m 0.059,0.773 c -1.149,0 -1.863,1.207 -1.863,3.211 0,1.922 0.703,3.094 1.804,3.094 1.125,0 1.828,-1.219 1.828,-3.211 0,-1.922 -0.668,-3.094 -1.769,-3.094"
         style="fill:#000000;fill-opacity:1;fill-rule:nonzero;stroke:none"
         id="path90" /></g><g
       id="g92"><path
         d="M 53.25,75.25 H 54"
         style="fill:none;stroke:#000000;stroke-width:1;stroke-linecap:square;stroke-linejoin:bevel;stroke-miterlimit:10;stroke-dasharray:none;stroke-opacity:1"
         id="path94" /></g><g
       id="g96"><path
         d="M 53.25,110.75 H 54"
         style="fill:none;stroke:#000000;stroke-width:1;stroke-linecap:square;stroke-linejoin:bevel;stroke-miterlimit:10;stroke-dasharray:none;stroke-opacity:1"
         id="path98" /></g><g
       id="g100"><path
         d="M 53.25,146.25 H 54"
         style="fill:none;stroke:#000000;stroke-width:1;stroke-linecap:square;stroke-linejoin:bevel;stroke-miterlimit:10;stroke-dasharray:none;stroke-opacity:1"
         id="path102" /></g><g
       id="g104"><path
         d="M 53.25,181.75 H 54"
         style="fill:none;stroke:#000000;stroke-width:1;stroke-linecap:square;stroke-linejoin:bevel;stroke-miterlimit:10;stroke-dasharray:none;stroke-opacity:1"
         id="path106" /></g><g
       id="g108"><path
         d="M 53.25,217.25 H 54"
         style="fill:none;stroke:#000000;stroke-width:1;stroke-linecap:square;stroke-linejoin:bevel;stroke-miterlimit:10;stroke-dasharray:none;stroke-opacity:1"
         id="path110" /></g><g
       id="g112"><path
         d="m 53.25,252.75 v -213"
         style="fill:none;stroke:#000000;stroke-width:1;stroke-linecap:square;stroke-linejoin:bevel;stroke-miterlimit:10;stroke-dasharray:none;stroke-opacity:1"
         id="path114" /></g><g
       id="g116"><path
         d="M 53.25,75.25 H 60"
         style="fill:none;stroke:#000000;stroke-width:1;stroke-linecap:square;stroke-linejoin:bevel;stroke-miterlimit:10;stroke-dasharray:none;stroke-opacity:1"
         id="path118" /></g><g
       id="g120"><path
         d="M 53.25,110.75 H 60"
         style="fill:none;stroke:#000000;stroke-width:1;stroke-linecap:square;stroke-linejoin:bevel;stroke-miterlimit:10;stroke-dasharray:none;stroke-opacity:1"
         id="path122" /></g><g
       id="g124"><path
         d="M 53.25,146.25 H 60"
         style="fill:none;stroke:#000000;stroke-width:1;stroke-linecap:square;stroke-linejoin:bevel;stroke-miterlimit:10;stroke-dasharray:none;stroke-opacity:1"
         id="path126" /></g><g
       id="g128"><path
         d="M 53.25,181.75 H 60"
         style="fill:none;stroke:#000000;stroke-width:1;stroke-linecap:square;stroke-linejoin:bevel;stroke-miterlimit:10;stroke-dasharray:none;stroke-opacity:1"
         id="path130" /></g><g
       id="g132"><path
         d="M 53.25,217.25 H 60"
         style="fill:none;stroke:#000000;stroke-width:1;stroke-linecap:square;stroke-linejoin:bevel;stroke-miterlimit:10;stroke-dasharray:none;stroke-opacity:1"
         id="path134" /></g><g
       id="g136"><path
         d="M 53.25,46.85 H 57"
         style="fill:none;stroke:#000000;stroke-width:1;stroke-linecap:square;stroke-linejoin:bevel;stroke-miterlimit:10;stroke-dasharray:none;stroke-opacity:1"
         id="path138" /></g><g
       id="g140"><path
         d="M 53.25,53.95 H 57"
         style="fill:none;stroke:#000000;stroke-width:1;stroke-linecap:square;stroke-linejoin:bevel;stroke-miterlimit:10;stroke-dasharray:none;stroke-opacity:1"
         id="path142" /></g><g
       id="g144"><path
         d="M 53.25,61.05 H 57"
         style="fill:none;stroke:#000000;stroke-width:1;stroke-linecap:square;stroke-linejoin:bevel;stroke-miterlimit:10;stroke-dasharray:none;stroke-opacity:1"
         id="path146" /></g><g
       id="g148"><path
         d="M 53.25,68.15 H 57"
         style="fill:none;stroke:#000000;stroke-width:1;stroke-linecap:square;stroke-linejoin:bevel;stroke-miterlimit:10;stroke-dasharray:none;stroke-opacity:1"
         id="path150" /></g><g
       id="g152"><path
         d="M 53.25,82.35 H 57"
         style="fill:none;stroke:#000000;stroke-width:1;stroke-linecap:square;stroke-linejoin:bevel;stroke-miterlimit:10;stroke-dasharray:none;stroke-opacity:1"
         id="path154" /></g><g
       id="g156"><path
         d="M 53.25,89.45 H 57"
         style="fill:none;stroke:#000000;stroke-width:1;stroke-linecap:square;stroke-linejoin:bevel;stroke-miterlimit:10;stroke-dasharray:none;stroke-opacity:1"
         id="path158" /></g><g
       id="g160"><path
         d="M 53.25,96.55 H 57"
         style="fill:none;stroke:#000000;stroke-width:1;stroke-linecap:square;stroke-linejoin:bevel;stroke-miterlimit:10;stroke-dasharray:none;stroke-opacity:1"
         id="path162" /></g><g
       id="g164"><path
         d="M 53.25,103.65 H 57"
         style="fill:none;stroke:#000000;stroke-width:1;stroke-linecap:square;stroke-linejoin:bevel;stroke-miterlimit:10;stroke-dasharray:none;stroke-opacity:1"
         id="path166" /></g><g
       id="g168"><path
         d="M 53.25,117.85 H 57"
         style="fill:none;stroke:#000000;stroke-width:1;stroke-linecap:square;stroke-linejoin:bevel;stroke-miterlimit:10;stroke-dasharray:none;stroke-opacity:1"
         id="path170" /></g><g
       id="g172"><path
         d="M 53.25,124.95 H 57"
         style="fill:none;stroke:#000000;stroke-width:1;stroke-linecap:square;stroke-linejoin:bevel;stroke-miterlimit:10;stroke-dasharray:none;stroke-opacity:1"
         id="path174" /></g><g
       id="g176"><path
         d="M 53.25,132.05 H 57"
         style="fill:none;stroke:#000000;stroke-width:1;stroke-linecap:square;stroke-linejoin:bevel;stroke-miterlimit:10;stroke-dasharray:none;stroke-opacity:1"
         id="path178" /></g><g
       id="g180"><path
         d="M 53.25,139.15 H 57"
         style="fill:none;stroke:#000000;stroke-width:1;stroke-linecap:square;stroke-linejoin:bevel;stroke-miterlimit:10;stroke-dasharray:none;stroke-opacity:1"
         id="path182" /></g><g
       id="g184"><path
         d="M 53.25,153.35 H 57"
         style="fill:none;stroke:#000000;stroke-width:1;stroke-linecap:square;stroke-linejoin:bevel;stroke-miterlimit:10;stroke-dasharray:none;stroke-opacity:1"
         id="path186" /></g><g
       id="g188"><path
         d="M 53.25,160.45 H 57"
         style="fill:none;stroke:#000000;stroke-width:1;stroke-linecap:square;stroke-linejoin:bevel;stroke-miterlimit:10;stroke-dasharray:none;stroke-opacity:1"
         id="path190" /></g><g
       id="g192"><path
         d="M 53.25,167.55 H 57"
         style="fill:none;stroke:#000000;stroke-width:1;stroke-linecap:square;stroke-linejoin:bevel;stroke-miterlimit:10;stroke-dasharray:none;stroke-opacity:1"
         id="path194" /></g><g
       id="g196"><path
         d="M 53.25,174.65 H 57"
         style="fill:none;stroke:#000000;stroke-width:1;stroke-linecap:square;stroke-linejoin:bevel;stroke-miterlimit:10;stroke-dasharray:none;stroke-opacity:1"
         id="path198" /></g><g
       id="g200"><path
         d="M 53.25,188.85 H 57"
         style="fill:none;stroke:#000000;stroke-width:1;stroke-linecap:square;stroke-linejoin:bevel;stroke-miterlimit:10;stroke-dasharray:none;stroke-opacity:1"
         id="path202" /></g><g
       id="g204"><path
         d="M 53.25,195.95 H 57"
         style="fill:none;stroke:#000000;stroke-width:1;stroke-linecap:square;stroke-linejoin:bevel;stroke-miterlimit:10;stroke-dasharray:none;stroke-opacity:1"
         id="path206" /></g><g
       id="g208"><path
         d="M 53.25,203.05 H 57"
         style="fill:none;stroke:#000000;stroke-width:1;stroke-linecap:square;stroke-linejoin:bevel;stroke-miterlimit:10;stroke-dasharray:none;stroke-opacity:1"
         id="path210" /></g><g
       id="g212"><path
         d="M 53.25,210.15 H 57"
         style="fill:none;stroke:#000000;stroke-width:1;stroke-linecap:square;stroke-linejoin:bevel;stroke-miterlimit:10;stroke-dasharray:none;stroke-opacity:1"
         id="path214" /></g><g
       id="g216"><path
         d="M 53.25,224.35 H 57"
         style="fill:none;stroke:#000000;stroke-width:1;stroke-linecap:square;stroke-linejoin:bevel;stroke-miterlimit:10;stroke-dasharray:none;stroke-opacity:1"
         id="path218" /></g><g
       id="g220"><path
         d="M 53.25,231.45 H 57"
         style="fill:none;stroke:#000000;stroke-width:1;stroke-linecap:square;stroke-linejoin:bevel;stroke-miterlimit:10;stroke-dasharray:none;stroke-opacity:1"
         id="path222" /></g><g
       id="g224"><path
         d="M 53.25,238.55 H 57"
         style="fill:none;stroke:#000000;stroke-width:1;stroke-linecap:square;stroke-linejoin:bevel;stroke-miterlimit:10;stroke-dasharray:none;stroke-opacity:1"
         id="path226" /></g><g
       id="g228"><path
         d="M 53.25,245.65 H 57"
         style="fill:none;stroke:#000000;stroke-width:1;stroke-linecap:square;stroke-linejoin:bevel;stroke-miterlimit:10;stroke-dasharray:none;stroke-opacity:1"
         id="path230" /></g><g
       id="g232"><path
         d="m 336,75.25 h -0.75"
         style="fill:none;stroke:#000000;stroke-width:1;stroke-linecap:square;stroke-linejoin:bevel;stroke-miterlimit:10;stroke-dasharray:none;stroke-opacity:1"
         id="path234" /></g><g
       id="g236"><path
         d="m 336,110.75 h -0.75"
         style="fill:none;stroke:#000000;stroke-width:1;stroke-linecap:square;stroke-linejoin:bevel;stroke-miterlimit:10;stroke-dasharray:none;stroke-opacity:1"
         id="path238" /></g><g
       id="g240"><path
         d="m 336,146.25 h -0.75"
         style="fill:none;stroke:#000000;stroke-width:1;stroke-linecap:square;stroke-linejoin:bevel;stroke-miterlimit:10;stroke-dasharray:none;stroke-opacity:1"
         id="path242" /></g><g
       id="g244"><path
         d="m 336,181.75 h -0.75"
         style="fill:none;stroke:#000000;stroke-width:1;stroke-linecap:square;stroke-linejoin:bevel;stroke-miterlimit:10;stroke-dasharray:none;stroke-opacity:1"
         id="path246" /></g><g
       id="g248"><path
         d="m 336,217.25 h -0.75"
         style="fill:none;stroke:#000000;stroke-width:1;stroke-linecap:square;stroke-linejoin:bevel;stroke-miterlimit:10;stroke-dasharray:none;stroke-opacity:1"
         id="path250" /></g><g
       id="g252"><path
         d="m 336,252.75 v -213"
         style="fill:none;stroke:#000000;stroke-width:1;stroke-linecap:square;stroke-linejoin:bevel;stroke-miterlimit:10;stroke-dasharray:none;stroke-opacity:1"
         id="path254" /></g><g
       id="g256"><path
         d="m 336,75.25 h -6.75"
         style="fill:none;stroke:#000000;stroke-width:1;stroke-linecap:square;stroke-linejoin:bevel;stroke-miterlimit:10;stroke-dasharray:none;stroke-opacity:1"
         id="path258" /></g><g
       id="g260"><path
         d="m 336,110.75 h -6.75"
         style="fill:none;stroke:#000000;stroke-width:1;stroke-linecap:square;stroke-linejoin:bevel;stroke-miterlimit:10;stroke-dasharray:none;stroke-opacity:1"
         id="path262" /></g><g
       id="g264"><path
         d="m 336,146.25 h -6.75"
         style="fill:none;stroke:#000000;stroke-width:1;stroke-linecap:square;stroke-linejoin:bevel;stroke-miterlimit:10;stroke-dasharray:none;stroke-opacity:1"
         id="path266" /></g><g
       id="g268"><path
         d="m 336,181.75 h -6.75"
         style="fill:none;stroke:#000000;stroke-width:1;stroke-linecap:square;stroke-linejoin:bevel;stroke-miterlimit:10;stroke-dasharray:none;stroke-opacity:1"
         id="path270" /></g><g
       id="g272"><path
         d="m 336,217.25 h -6.75"
         style="fill:none;stroke:#000000;stroke-width:1;stroke-linecap:square;stroke-linejoin:bevel;stroke-miterlimit:10;stroke-dasharray:none;stroke-opacity:1"
         id="path274" /></g><g
       id="g276"><path
         d="m 336,46.85 h -3.75"
         style="fill:none;stroke:#000000;stroke-width:1;stroke-linecap:square;stroke-linejoin:bevel;stroke-miterlimit:10;stroke-dasharray:none;stroke-opacity:1"
         id="path278" /></g><g
       id="g280"><path
         d="m 336,53.95 h -3.75"
         style="fill:none;stroke:#000000;stroke-width:1;stroke-linecap:square;stroke-linejoin:bevel;stroke-miterlimit:10;stroke-dasharray:none;stroke-opacity:1"
         id="path282" /></g><g
       id="g284"><path
         d="m 336,61.05 h -3.75"
         style="fill:none;stroke:#000000;stroke-width:1;stroke-linecap:square;stroke-linejoin:bevel;stroke-miterlimit:10;stroke-dasharray:none;stroke-opacity:1"
         id="path286" /></g><g
       id="g288"><path
         d="m 336,68.15 h -3.75"
         style="fill:none;stroke:#000000;stroke-width:1;stroke-linecap:square;stroke-linejoin:bevel;stroke-miterlimit:10;stroke-dasharray:none;stroke-opacity:1"
         id="path290" /></g><g
       id="g292"><path
         d="m 336,82.35 h -3.75"
         style="fill:none;stroke:#000000;stroke-width:1;stroke-linecap:square;stroke-linejoin:bevel;stroke-miterlimit:10;stroke-dasharray:none;stroke-opacity:1"
         id="path294" /></g><g
       id="g296"><path
         d="m 336,89.45 h -3.75"
         style="fill:none;stroke:#000000;stroke-width:1;stroke-linecap:square;stroke-linejoin:bevel;stroke-miterlimit:10;stroke-dasharray:none;stroke-opacity:1"
         id="path298" /></g><g
       id="g300"><path
         d="m 336,96.55 h -3.75"
         style="fill:none;stroke:#000000;stroke-width:1;stroke-linecap:square;stroke-linejoin:bevel;stroke-miterlimit:10;stroke-dasharray:none;stroke-opacity:1"
         id="path302" /></g><g
       id="g304"><path
         d="m 336,103.65 h -3.75"
         style="fill:none;stroke:#000000;stroke-width:1;stroke-linecap:square;stroke-linejoin:bevel;stroke-miterlimit:10;stroke-dasharray:none;stroke-opacity:1"
         id="path306" /></g><g
       id="g308"><path
         d="m 336,117.85 h -3.75"
         style="fill:none;stroke:#000000;stroke-width:1;stroke-linecap:square;stroke-linejoin:bevel;stroke-miterlimit:10;stroke-dasharray:none;stroke-opacity:1"
         id="path310" /></g><g
       id="g312"><path
         d="m 336,124.95 h -3.75"
         style="fill:none;stroke:#000000;stroke-width:1;stroke-linecap:square;stroke-linejoin:bevel;stroke-miterlimit:10;stroke-dasharray:none;stroke-opacity:1"
         id="path314" /></g><g
       id="g316"><path
         d="m 336,132.05 h -3.75"
         style="fill:none;stroke:#000000;stroke-width:1;stroke-linecap:square;stroke-linejoin:bevel;stroke-miterlimit:10;stroke-dasharray:none;stroke-opacity:1"
         id="path318" /></g><g
       id="g320"><path
         d="m 336,139.15 h -3.75"
         style="fill:none;stroke:#000000;stroke-width:1;stroke-linecap:square;stroke-linejoin:bevel;stroke-miterlimit:10;stroke-dasharray:none;stroke-opacity:1"
         id="path322" /></g><g
       id="g324"><path
         d="m 336,153.35 h -3.75"
         style="fill:none;stroke:#000000;stroke-width:1;stroke-linecap:square;stroke-linejoin:bevel;stroke-miterlimit:10;stroke-dasharray:none;stroke-opacity:1"
         id="path326" /></g><g
       id="g328"><path
         d="m 336,160.45 h -3.75"
         style="fill:none;stroke:#000000;stroke-width:1;stroke-linecap:square;stroke-linejoin:bevel;stroke-miterlimit:10;stroke-dasharray:none;stroke-opacity:1"
         id="path330" /></g><g
       id="g332"><path
         d="m 336,167.55 h -3.75"
         style="fill:none;stroke:#000000;stroke-width:1;stroke-linecap:square;stroke-linejoin:bevel;stroke-miterlimit:10;stroke-dasharray:none;stroke-opacity:1"
         id="path334" /></g><g
       id="g336"><path
         d="m 336,174.65 h -3.75"
         style="fill:none;stroke:#000000;stroke-width:1;stroke-linecap:square;stroke-linejoin:bevel;stroke-miterlimit:10;stroke-dasharray:none;stroke-opacity:1"
         id="path338" /></g><g
       id="g340"><path
         d="m 336,188.85 h -3.75"
         style="fill:none;stroke:#000000;stroke-width:1;stroke-linecap:square;stroke-linejoin:bevel;stroke-miterlimit:10;stroke-dasharray:none;stroke-opacity:1"
         id="path342" /></g><g
       id="g344"><path
         d="m 336,195.95 h -3.75"
         style="fill:none;stroke:#000000;stroke-width:1;stroke-linecap:square;stroke-linejoin:bevel;stroke-miterlimit:10;stroke-dasharray:none;stroke-opacity:1"
         id="path346" /></g><g
       id="g348"><path
         d="m 336,203.05 h -3.75"
         style="fill:none;stroke:#000000;stroke-width:1;stroke-linecap:square;stroke-linejoin:bevel;stroke-miterlimit:10;stroke-dasharray:none;stroke-opacity:1"
         id="path350" /></g><g
       id="g352"><path
         d="m 336,210.15 h -3.75"
         style="fill:none;stroke:#000000;stroke-width:1;stroke-linecap:square;stroke-linejoin:bevel;stroke-miterlimit:10;stroke-dasharray:none;stroke-opacity:1"
         id="path354" /></g><g
       id="g356"><path
         d="m 336,224.35 h -3.75"
         style="fill:none;stroke:#000000;stroke-width:1;stroke-linecap:square;stroke-linejoin:bevel;stroke-miterlimit:10;stroke-dasharray:none;stroke-opacity:1"
         id="path358" /></g><g
       id="g360"><path
         d="m 336,231.45 h -3.75"
         style="fill:none;stroke:#000000;stroke-width:1;stroke-linecap:square;stroke-linejoin:bevel;stroke-miterlimit:10;stroke-dasharray:none;stroke-opacity:1"
         id="path362" /></g><g
       id="g364"><path
         d="m 336,238.55 h -3.75"
         style="fill:none;stroke:#000000;stroke-width:1;stroke-linecap:square;stroke-linejoin:bevel;stroke-miterlimit:10;stroke-dasharray:none;stroke-opacity:1"
         id="path366" /></g><g
       id="g368"><path
         d="m 336,245.65 h -3.75"
         style="fill:none;stroke:#000000;stroke-width:1;stroke-linecap:square;stroke-linejoin:bevel;stroke-miterlimit:10;stroke-dasharray:none;stroke-opacity:1"
         id="path370" /></g><g
       id="g372"><path
         d="m 138.047,3 h 1.512 l 1.992,6.902 h -0.68 L 143.016,3 h 1.476 l 2.227,7.641 h -1.43 l -1.805,-6.95 0.621,0.129 -2.027,6.774 h -1.558 l -1.922,-6.797 h 0.504 l -1.688,6.844 h -1.617 L 138.047,3 m 13.863,0 h 0.996 v 3.223 c 0,1.441 -0.82,2.238 -2.402,2.238 -0.762,0 -1.582,-0.188 -2.215,-0.516 l 0.34,-0.972 c 0.551,0.211 1.09,0.328 1.582,0.328 0.855,0 1.312,-0.328 1.312,-0.973 V 4.031 L 151.91,3 m -1.875,-0.105 c 1.184,0 2.027,0.667 2.297,1.828 l -0.457,0.211 c -0.187,-0.575 -0.727,-0.938 -1.371,-0.938 -0.539,0 -0.902,0.27 -0.902,0.68 0,0.515 0.609,0.726 2.168,0.726 v 0.774 c -2.485,0 -3.586,-0.516 -3.586,-1.699 0,-0.961 0.726,-1.582 1.851,-1.582 M 156.621,3 h 1.395 l 2.074,5.355 h -1.406 l -1.524,-4.57 h 0.363 l -1.441,4.57 h -1.547 L 156.621,3 m 8.039,-0.105 c 0.633,0 1.313,0.128 1.887,0.375 l -0.305,0.96 c -0.433,-0.175 -0.902,-0.269 -1.359,-0.269 -1.149,0 -1.77,0.644 -1.77,1.887 0,0.996 0.41,1.535 1.16,1.535 0.704,0 1.102,-0.445 1.102,-1.231 h -2.449 V 5.285 h 3.715 c 0.035,0.223 0.058,0.551 0.058,0.809 0,1.453 -0.89,2.367 -2.32,2.367 -1.594,0 -2.66,-1.137 -2.66,-2.801 0,-1.722 1.113,-2.765 2.941,-2.765 M 173.074,3 h 1.406 v 3.293 c 0,1.336 -0.75,2.145 -1.957,2.145 -0.773,0 -1.488,-0.34 -1.98,-0.938 l 0.199,-0.855 c 0.363,0.375 0.809,0.574 1.301,0.574 0.68,0 1.031,-0.387 1.031,-1.114 V 3 m -3.527,0 h 1.406 v 4.406 l -0.398,0.949 h -1.008 V 3 m 9.269,-0.094 c 0.739,0 1.442,0.34 1.934,0.949 l -0.211,0.856 c -0.328,-0.363 -0.762,-0.574 -1.207,-0.574 -0.762,0 -0.984,0.574 -0.984,1.113 v 3.105 h -1.407 V 4.934 c 0,-1.231 0.762,-2.028 1.875,-2.028 M 180.738,3 h 1.008 V 8.355 H 180.34 V 3.938 L 180.738,3 m 10.055,0 h 1.406 v 3.293 c 0,1.336 -0.738,2.145 -1.945,2.145 -0.762,0 -1.477,-0.34 -1.969,-0.938 l 0.211,-0.855 c 0.352,0.375 0.785,0.574 1.277,0.574 0.68,0 1.02,-0.387 1.02,-1.114 V 3 m -6.996,0 h 1.406 v 4.406 l -0.398,0.949 h -1.008 V 3 m 3.504,0 h 1.394 v 3.293 c 0,1.336 -0.738,2.145 -1.933,2.145 -0.774,0 -1.477,-0.34 -1.969,-0.938 l 0.199,-0.855 c 0.352,0.375 0.797,0.574 1.278,0.574 0.679,0 1.031,-0.387 1.031,-1.114 V 3 m 10.394,-0.105 c 1.5,0 2.508,1.136 2.508,2.835 0,1.641 -0.949,2.731 -2.355,2.731 -0.985,0 -1.7,-0.527 -2.051,-1.418 l 0.422,-0.527 c 0.199,0.504 0.644,0.761 1.172,0.761 0.867,0 1.394,-0.632 1.394,-1.64 0,-0.961 -0.48,-1.559 -1.277,-1.559 -0.563,0 -1.02,0.293 -1.254,0.785 l -0.481,-0.715 c 0.329,-0.82 0.985,-1.253 1.922,-1.253 M 195.047,3 h 0.891 l 0.468,0.973 v 7.16 h -1.359 V 3 M 205.16,2.895 c 0.633,0 1.313,0.128 1.887,0.375 l -0.305,0.96 c -0.433,-0.175 -0.902,-0.269 -1.359,-0.269 -1.149,0 -1.77,0.644 -1.77,1.887 0,0.996 0.41,1.535 1.16,1.535 0.704,0 1.102,-0.445 1.102,-1.231 h -2.449 V 5.285 h 3.715 c 0.035,0.223 0.058,0.551 0.058,0.809 0,1.453 -0.89,2.367 -2.32,2.367 -1.594,0 -2.66,-1.137 -2.66,-2.801 0,-1.722 1.113,-2.765 2.941,-2.765 M 210.047,3 h 1.406 v 3.68 l -0.293,1.675 h -1.113 V 3 m 1.137,3.047 c 0.293,0.656 0.878,1.043 1.535,1.043 0.222,0 0.48,-0.047 0.679,-0.117 l 0.329,1.289 c -0.235,0.093 -0.516,0.14 -0.797,0.14 -0.703,0 -1.36,-0.375 -1.746,-1.019 V 6.047 m 8.496,-5.133 0.996,0.598 c -0.821,1.254 -1.242,2.812 -1.242,4.617 0,1.605 0.398,3.082 1.23,4.559 l -1.019,0.562 c -1.043,-1.582 -1.571,-3.375 -1.571,-5.191 0,-1.993 0.539,-3.704 1.606,-5.145 m 5.461,1.981 c 0.656,0 1.265,0.14 1.769,0.41 l -0.316,0.972 c -0.375,-0.164 -0.785,-0.257 -1.137,-0.257 -0.996,0 -1.559,0.621 -1.559,1.687 0,1.008 0.504,1.57 1.465,1.57 0.387,0 0.844,-0.093 1.231,-0.246 l 0.293,1.102 c -0.457,0.211 -1.02,0.328 -1.571,0.328 -1.722,0 -2.847,-1.149 -2.847,-2.906 0,-1.676 0.996,-2.66 2.672,-2.66 M 235.793,3 h 1.406 v 3.293 c 0,1.336 -0.738,2.145 -1.945,2.145 -0.762,0 -1.477,-0.34 -1.969,-0.938 l 0.211,-0.855 c 0.352,0.375 0.785,0.574 1.277,0.574 0.68,0 1.02,-0.387 1.02,-1.114 V 3 m -6.996,0 h 1.406 v 4.406 l -0.398,0.949 h -1.008 V 3 m 3.504,0 h 1.394 v 3.293 c 0,1.336 -0.738,2.145 -1.933,2.145 -0.774,0 -1.477,-0.34 -1.969,-0.938 l 0.199,-0.855 c 0.352,0.375 0.797,0.574 1.278,0.574 0.679,0 1.031,-0.387 1.031,-1.114 V 3 m 7.582,2.262 h 3.258 V 6.41 h -3.258 V 5.262 m 7.055,-2.285 h 1.394 v 7.664 H 247.5 l -2.906,-1.465 0.527,-1.008 2.262,1.008 -0.445,0.445 V 2.977 m 4.171,-2.063 c 1.067,1.441 1.606,3.152 1.606,5.145 0,1.816 -0.527,3.609 -1.57,5.191 l -1.02,-0.562 c 0.832,-1.477 1.23,-2.954 1.23,-4.559 0,-1.805 -0.421,-3.363 -1.242,-4.617 l 0.996,-0.598"
         style="fill:#000000;fill-opacity:1;fill-rule:nonzero;stroke:none"
         id="path374" /></g><g
       id="g376"><path
         d="m 46.336,23.883 c 1.676,0 2.836,0.879 2.836,2.203 0,1.113 -0.856,1.898 -2.156,1.934 l -0.164,-0.129 c 1.136,0.023 1.921,0.797 1.921,1.851 0,1.219 -0.984,1.992 -2.402,1.992 -0.785,0 -1.676,-0.246 -2.32,-0.621 l 0.211,-0.679 c 0.679,0.339 1.394,0.515 1.957,0.515 0.984,0 1.699,-0.504 1.699,-1.289 0,-0.844 -0.82,-1.394 -1.945,-1.394 H 45.387 V 27.48 h 0.785 c 1.277,0 2.086,-0.55 2.086,-1.453 0,-0.855 -0.75,-1.336 -1.887,-1.336 -0.668,0 -1.559,0.164 -2.273,0.516 l -0.2,-0.738 c 0.739,-0.375 1.641,-0.586 2.438,-0.586 m 6.527,0.012 c 1.699,0 2.754,1.488 2.754,3.984 0,2.391 -1.019,3.867 -2.683,3.867 -1.723,0 -2.801,-1.5 -2.801,-3.984 0,-2.403 1.043,-3.867 2.73,-3.867 m 0.059,0.773 c -1.149,0 -1.863,1.207 -1.863,3.211 0,1.922 0.703,3.094 1.804,3.094 1.125,0 1.828,-1.219 1.828,-3.211 0,-1.922 -0.668,-3.094 -1.769,-3.094 m 6.691,-0.773 c 1.699,0 2.754,1.488 2.754,3.984 0,2.391 -1.019,3.867 -2.683,3.867 -1.723,0 -2.801,-1.5 -2.801,-3.984 0,-2.403 1.043,-3.867 2.73,-3.867 m 0.059,0.773 c -1.149,0 -1.863,1.207 -1.863,3.211 0,1.922 0.703,3.094 1.804,3.094 1.125,0 1.828,-1.219 1.828,-3.211 0,-1.922 -0.668,-3.094 -1.769,-3.094"
         style="fill:#000000;fill-opacity:1;fill-rule:nonzero;stroke:none"
         id="path378" /></g><g
       id="g380"><path
         d="m 103.336,23.883 c 1.676,0 2.836,0.879 2.836,2.203 0,1.113 -0.856,1.898 -2.156,1.934 l -0.164,-0.129 c 1.136,0.023 1.921,0.797 1.921,1.851 0,1.219 -0.984,1.992 -2.402,1.992 -0.785,0 -1.676,-0.246 -2.32,-0.621 l 0.211,-0.679 c 0.679,0.339 1.394,0.515 1.957,0.515 0.984,0 1.699,-0.504 1.699,-1.289 0,-0.844 -0.82,-1.394 -1.945,-1.394 h -0.586 V 27.48 h 0.785 c 1.277,0 2.086,-0.55 2.086,-1.453 0,-0.855 -0.75,-1.336 -1.887,-1.336 -0.668,0 -1.559,0.164 -2.273,0.516 l -0.2,-0.738 c 0.739,-0.375 1.641,-0.586 2.438,-0.586 m 5.848,0.012 c 1.699,0 2.847,0.96 2.847,2.46 0,1.43 -1.043,2.333 -2.754,2.333 -0.422,0 -0.843,-0.047 -1.23,-0.141 l 0.223,-0.281 0.128,2.589 h 3.27 v 0.786 h -4.102 l -0.187,-3.914 c 0.492,0.117 1.137,0.187 1.617,0.187 1.301,0 2.098,-0.598 2.098,-1.641 0,-0.984 -0.727,-1.582 -1.852,-1.582 -0.656,0 -1.383,0.188 -1.957,0.493 l -0.269,-0.727 c 0.679,-0.363 1.394,-0.562 2.168,-0.562 m 6.679,0 c 1.699,0 2.754,1.488 2.754,3.984 0,2.391 -1.019,3.867 -2.683,3.867 -1.723,0 -2.801,-1.5 -2.801,-3.984 0,-2.403 1.043,-3.867 2.73,-3.867 m 0.059,0.773 c -1.149,0 -1.863,1.207 -1.863,3.211 0,1.922 0.703,3.094 1.804,3.094 1.125,0 1.828,-1.219 1.828,-3.211 0,-1.922 -0.668,-3.094 -1.769,-3.094"
         style="fill:#000000;fill-opacity:1;fill-rule:nonzero;stroke:none"
         id="path382" /></g><g
       id="g384"><path
         d="m 160.816,23.895 h 0.868 v 7.746 h -0.844 l -3.832,-5.368 v -0.468 h 6.047 v 0.75 h -5.18 l 0.07,-0.188 3.047,4.36 -0.164,0.023 -0.012,-6.855 m 6.047,0 c 1.699,0 2.754,1.488 2.754,3.984 0,2.391 -1.019,3.867 -2.683,3.867 -1.723,0 -2.801,-1.5 -2.801,-3.984 0,-2.403 1.043,-3.867 2.73,-3.867 m 0.059,0.773 c -1.149,0 -1.863,1.207 -1.863,3.211 0,1.922 0.703,3.094 1.804,3.094 1.125,0 1.828,-1.219 1.828,-3.211 0,-1.922 -0.668,-3.094 -1.769,-3.094 m 6.691,-0.773 c 1.699,0 2.754,1.488 2.754,3.984 0,2.391 -1.019,3.867 -2.683,3.867 -1.723,0 -2.801,-1.5 -2.801,-3.984 0,-2.403 1.043,-3.867 2.73,-3.867 m 0.059,0.773 c -1.149,0 -1.863,1.207 -1.863,3.211 0,1.922 0.703,3.094 1.804,3.094 1.125,0 1.828,-1.219 1.828,-3.211 0,-1.922 -0.668,-3.094 -1.769,-3.094"
         style="fill:#000000;fill-opacity:1;fill-rule:nonzero;stroke:none"
         id="path386" /></g><g
       id="g388"><path
         d="m 217.066,23.895 h 0.868 v 7.746 h -0.844 l -3.832,-5.368 v -0.468 h 6.047 v 0.75 h -5.18 l 0.07,-0.188 3.047,4.36 -0.164,0.023 -0.012,-6.855 m 5.368,0 c 1.699,0 2.847,0.96 2.847,2.46 0,1.43 -1.043,2.333 -2.754,2.333 -0.422,0 -0.843,-0.047 -1.23,-0.141 l 0.223,-0.281 0.128,2.589 h 3.27 v 0.786 h -4.102 l -0.187,-3.914 c 0.492,0.117 1.137,0.187 1.617,0.187 1.301,0 2.098,-0.598 2.098,-1.641 0,-0.984 -0.727,-1.582 -1.852,-1.582 -0.656,0 -1.383,0.188 -1.957,0.493 l -0.269,-0.727 c 0.679,-0.363 1.394,-0.562 2.168,-0.562 m 6.679,0 c 1.699,0 2.754,1.488 2.754,3.984 0,2.391 -1.019,3.867 -2.683,3.867 -1.723,0 -2.801,-1.5 -2.801,-3.984 0,-2.403 1.043,-3.867 2.73,-3.867 m 0.059,0.773 c -1.149,0 -1.863,1.207 -1.863,3.211 0,1.922 0.703,3.094 1.804,3.094 1.125,0 1.828,-1.219 1.828,-3.211 0,-1.922 -0.668,-3.094 -1.769,-3.094"
         style="fill:#000000;fill-opacity:1;fill-rule:nonzero;stroke:none"
         id="path390" /></g><g
       id="g392"><path
         d="m 272.684,23.895 c 1.699,0 2.847,0.96 2.847,2.46 0,1.43 -1.043,2.333 -2.754,2.333 -0.422,0 -0.843,-0.047 -1.23,-0.141 l 0.223,-0.281 0.128,2.589 h 3.27 v 0.786 h -4.102 l -0.187,-3.914 c 0.492,0.117 1.137,0.187 1.617,0.187 1.301,0 2.098,-0.598 2.098,-1.641 0,-0.984 -0.727,-1.582 -1.852,-1.582 -0.656,0 -1.383,0.188 -1.957,0.493 l -0.269,-0.727 c 0.679,-0.363 1.394,-0.562 2.168,-0.562 m 6.679,0 c 1.699,0 2.754,1.488 2.754,3.984 0,2.391 -1.019,3.867 -2.683,3.867 -1.723,0 -2.801,-1.5 -2.801,-3.984 0,-2.403 1.043,-3.867 2.73,-3.867 m 0.059,0.773 c -1.149,0 -1.863,1.207 -1.863,3.211 0,1.922 0.703,3.094 1.804,3.094 1.125,0 1.828,-1.219 1.828,-3.211 0,-1.922 -0.668,-3.094 -1.769,-3.094 m 6.691,-0.773 c 1.699,0 2.754,1.488 2.754,3.984 0,2.391 -1.019,3.867 -2.683,3.867 -1.723,0 -2.801,-1.5 -2.801,-3.984 0,-2.403 1.043,-3.867 2.73,-3.867 m 0.059,0.773 c -1.149,0 -1.863,1.207 -1.863,3.211 0,1.922 0.703,3.094 1.804,3.094 1.125,0 1.828,-1.219 1.828,-3.211 0,-1.922 -0.668,-3.094 -1.769,-3.094"
         style="fill:#000000;fill-opacity:1;fill-rule:nonzero;stroke:none"
         id="path394" /></g><g
       id="g396"><path
         d="m 329.684,23.895 c 1.699,0 2.847,0.96 2.847,2.46 0,1.43 -1.043,2.333 -2.754,2.333 -0.422,0 -0.843,-0.047 -1.23,-0.141 l 0.223,-0.281 0.128,2.589 h 3.27 v 0.786 h -4.102 l -0.187,-3.914 c 0.492,0.117 1.137,0.187 1.617,0.187 1.301,0 2.098,-0.598 2.098,-1.641 0,-0.984 -0.727,-1.582 -1.852,-1.582 -0.656,0 -1.383,0.188 -1.957,0.493 l -0.269,-0.727 c 0.679,-0.363 1.394,-0.562 2.168,-0.562 m 6,0 c 1.699,0 2.847,0.96 2.847,2.46 0,1.43 -1.043,2.333 -2.754,2.333 -0.422,0 -0.843,-0.047 -1.23,-0.141 l 0.223,-0.281 0.128,2.589 h 3.27 v 0.786 h -4.102 l -0.187,-3.914 c 0.492,0.117 1.137,0.187 1.617,0.187 1.301,0 2.098,-0.598 2.098,-1.641 0,-0.984 -0.727,-1.582 -1.852,-1.582 -0.656,0 -1.383,0.188 -1.957,0.493 l -0.269,-0.727 c 0.679,-0.363 1.394,-0.562 2.168,-0.562 m 6.679,0 c 1.699,0 2.754,1.488 2.754,3.984 0,2.391 -1.019,3.867 -2.683,3.867 -1.723,0 -2.801,-1.5 -2.801,-3.984 0,-2.403 1.043,-3.867 2.73,-3.867 m 0.059,0.773 c -1.149,0 -1.863,1.207 -1.863,3.211 0,1.922 0.703,3.094 1.804,3.094 1.125,0 1.828,-1.219 1.828,-3.211 0,-1.922 -0.668,-3.094 -1.769,-3.094"
         style="fill:#000000;fill-opacity:1;fill-rule:nonzero;stroke:none"
         id="path398" /></g><g
       id="g400"><path
         d="M 109.8,39.75 V 40.5"
         style="fill:none;stroke:#000000;stroke-width:1;stroke-linecap:square;stroke-linejoin:bevel;stroke-miterlimit:10;stroke-dasharray:none;stroke-opacity:1"
         id="path402" /></g><g
       id="g404"><path
         d="M 166.35,39.75 V 40.5"
         style="fill:none;stroke:#000000;stroke-width:1;stroke-linecap:square;stroke-linejoin:bevel;stroke-miterlimit:10;stroke-dasharray:none;stroke-opacity:1"
         id="path406" /></g><g
       id="g408"><path
         d="M 222.9,39.75 V 40.5"
         style="fill:none;stroke:#000000;stroke-width:1;stroke-linecap:square;stroke-linejoin:bevel;stroke-miterlimit:10;stroke-dasharray:none;stroke-opacity:1"
         id="path410" /></g><g
       id="g412"><path
         d="M 279.45,39.75 V 40.5"
         style="fill:none;stroke:#000000;stroke-width:1;stroke-linecap:square;stroke-linejoin:bevel;stroke-miterlimit:10;stroke-dasharray:none;stroke-opacity:1"
         id="path414" /></g><g
       id="g416"><path
         d="M 53.25,39.75 H 336"
         style="fill:none;stroke:#000000;stroke-width:1;stroke-linecap:square;stroke-linejoin:bevel;stroke-miterlimit:10;stroke-dasharray:none;stroke-opacity:1"
         id="path418" /></g><g
       id="g420"><path
         d="M 109.8,39.75 V 46.5"
         style="fill:none;stroke:#000000;stroke-width:1;stroke-linecap:square;stroke-linejoin:bevel;stroke-miterlimit:10;stroke-dasharray:none;stroke-opacity:1"
         id="path422" /></g><g
       id="g424"><path
         d="M 166.35,39.75 V 46.5"
         style="fill:none;stroke:#000000;stroke-width:1;stroke-linecap:square;stroke-linejoin:bevel;stroke-miterlimit:10;stroke-dasharray:none;stroke-opacity:1"
         id="path426" /></g><g
       id="g428"><path
         d="M 222.9,39.75 V 46.5"
         style="fill:none;stroke:#000000;stroke-width:1;stroke-linecap:square;stroke-linejoin:bevel;stroke-miterlimit:10;stroke-dasharray:none;stroke-opacity:1"
         id="path430" /></g><g
       id="g432"><path
         d="M 279.45,39.75 V 46.5"
         style="fill:none;stroke:#000000;stroke-width:1;stroke-linecap:square;stroke-linejoin:bevel;stroke-miterlimit:10;stroke-dasharray:none;stroke-opacity:1"
         id="path434" /></g><g
       id="g436"><path
         d="M 64.56,39.75 V 43.5"
         style="fill:none;stroke:#000000;stroke-width:1;stroke-linecap:square;stroke-linejoin:bevel;stroke-miterlimit:10;stroke-dasharray:none;stroke-opacity:1"
         id="path438" /></g><g
       id="g440"><path
         d="M 75.87,39.75 V 43.5"
         style="fill:none;stroke:#000000;stroke-width:1;stroke-linecap:square;stroke-linejoin:bevel;stroke-miterlimit:10;stroke-dasharray:none;stroke-opacity:1"
         id="path442" /></g><g
       id="g444"><path
         d="M 87.18,39.75 V 43.5"
         style="fill:none;stroke:#000000;stroke-width:1;stroke-linecap:square;stroke-linejoin:bevel;stroke-miterlimit:10;stroke-dasharray:none;stroke-opacity:1"
         id="path446" /></g><g
       id="g448"><path
         d="M 98.49,39.75 V 43.5"
         style="fill:none;stroke:#000000;stroke-width:1;stroke-linecap:square;stroke-linejoin:bevel;stroke-miterlimit:10;stroke-dasharray:none;stroke-opacity:1"
         id="path450" /></g><g
       id="g452"><path
         d="M 121.11,39.75 V 43.5"
         style="fill:none;stroke:#000000;stroke-width:1;stroke-linecap:square;stroke-linejoin:bevel;stroke-miterlimit:10;stroke-dasharray:none;stroke-opacity:1"
         id="path454" /></g><g
       id="g456"><path
         d="M 132.42,39.75 V 43.5"
         style="fill:none;stroke:#000000;stroke-width:1;stroke-linecap:square;stroke-linejoin:bevel;stroke-miterlimit:10;stroke-dasharray:none;stroke-opacity:1"
         id="path458" /></g><g
       id="g460"><path
         d="M 143.73,39.75 V 43.5"
         style="fill:none;stroke:#000000;stroke-width:1;stroke-linecap:square;stroke-linejoin:bevel;stroke-miterlimit:10;stroke-dasharray:none;stroke-opacity:1"
         id="path462" /></g><g
       id="g464"><path
         d="M 155.04,39.75 V 43.5"
         style="fill:none;stroke:#000000;stroke-width:1;stroke-linecap:square;stroke-linejoin:bevel;stroke-miterlimit:10;stroke-dasharray:none;stroke-opacity:1"
         id="path466" /></g><g
       id="g468"><path
         d="M 177.66,39.75 V 43.5"
         style="fill:none;stroke:#000000;stroke-width:1;stroke-linecap:square;stroke-linejoin:bevel;stroke-miterlimit:10;stroke-dasharray:none;stroke-opacity:1"
         id="path470" /></g><g
       id="g472"><path
         d="M 188.97,39.75 V 43.5"
         style="fill:none;stroke:#000000;stroke-width:1;stroke-linecap:square;stroke-linejoin:bevel;stroke-miterlimit:10;stroke-dasharray:none;stroke-opacity:1"
         id="path474" /></g><g
       id="g476"><path
         d="M 200.28,39.75 V 43.5"
         style="fill:none;stroke:#000000;stroke-width:1;stroke-linecap:square;stroke-linejoin:bevel;stroke-miterlimit:10;stroke-dasharray:none;stroke-opacity:1"
         id="path478" /></g><g
       id="g480"><path
         d="M 211.59,39.75 V 43.5"
         style="fill:none;stroke:#000000;stroke-width:1;stroke-linecap:square;stroke-linejoin:bevel;stroke-miterlimit:10;stroke-dasharray:none;stroke-opacity:1"
         id="path482" /></g><g
       id="g484"><path
         d="M 234.21,39.75 V 43.5"
         style="fill:none;stroke:#000000;stroke-width:1;stroke-linecap:square;stroke-linejoin:bevel;stroke-miterlimit:10;stroke-dasharray:none;stroke-opacity:1"
         id="path486" /></g><g
       id="g488"><path
         d="M 245.52,39.75 V 43.5"
         style="fill:none;stroke:#000000;stroke-width:1;stroke-linecap:square;stroke-linejoin:bevel;stroke-miterlimit:10;stroke-dasharray:none;stroke-opacity:1"
         id="path490" /></g><g
       id="g492"><path
         d="M 256.83,39.75 V 43.5"
         style="fill:none;stroke:#000000;stroke-width:1;stroke-linecap:square;stroke-linejoin:bevel;stroke-miterlimit:10;stroke-dasharray:none;stroke-opacity:1"
         id="path494" /></g><g
       id="g496"><path
         d="M 268.14,39.75 V 43.5"
         style="fill:none;stroke:#000000;stroke-width:1;stroke-linecap:square;stroke-linejoin:bevel;stroke-miterlimit:10;stroke-dasharray:none;stroke-opacity:1"
         id="path498" /></g><g
       id="g500"><path
         d="M 290.76,39.75 V 43.5"
         style="fill:none;stroke:#000000;stroke-width:1;stroke-linecap:square;stroke-linejoin:bevel;stroke-miterlimit:10;stroke-dasharray:none;stroke-opacity:1"
         id="path502" /></g><g
       id="g504"><path
         d="M 302.07,39.75 V 43.5"
         style="fill:none;stroke:#000000;stroke-width:1;stroke-linecap:square;stroke-linejoin:bevel;stroke-miterlimit:10;stroke-dasharray:none;stroke-opacity:1"
         id="path506" /></g><g
       id="g508"><path
         d="M 313.38,39.75 V 43.5"
         style="fill:none;stroke:#000000;stroke-width:1;stroke-linecap:square;stroke-linejoin:bevel;stroke-miterlimit:10;stroke-dasharray:none;stroke-opacity:1"
         id="path510" /></g><g
       id="g512"><path
         d="M 324.69,39.75 V 43.5"
         style="fill:none;stroke:#000000;stroke-width:1;stroke-linecap:square;stroke-linejoin:bevel;stroke-miterlimit:10;stroke-dasharray:none;stroke-opacity:1"
         id="path514" /></g><g
       id="g516"><path
         d="M 109.8,252.75 V 252"
         style="fill:none;stroke:#000000;stroke-width:1;stroke-linecap:square;stroke-linejoin:bevel;stroke-miterlimit:10;stroke-dasharray:none;stroke-opacity:1"
         id="path518" /></g><g
       id="g520"><path
         d="M 166.35,252.75 V 252"
         style="fill:none;stroke:#000000;stroke-width:1;stroke-linecap:square;stroke-linejoin:bevel;stroke-miterlimit:10;stroke-dasharray:none;stroke-opacity:1"
         id="path522" /></g><g
       id="g524"><path
         d="M 222.9,252.75 V 252"
         style="fill:none;stroke:#000000;stroke-width:1;stroke-linecap:square;stroke-linejoin:bevel;stroke-miterlimit:10;stroke-dasharray:none;stroke-opacity:1"
         id="path526" /></g><g
       id="g528"><path
         d="M 279.45,252.75 V 252"
         style="fill:none;stroke:#000000;stroke-width:1;stroke-linecap:square;stroke-linejoin:bevel;stroke-miterlimit:10;stroke-dasharray:none;stroke-opacity:1"
         id="path530" /></g><g
       id="g532"><path
         d="M 53.25,252.75 H 336"
         style="fill:none;stroke:#000000;stroke-width:1;stroke-linecap:square;stroke-linejoin:bevel;stroke-miterlimit:10;stroke-dasharray:none;stroke-opacity:1"
         id="path534" /></g><g
       id="g536"><path
         d="M 109.8,252.75 V 246"
         style="fill:none;stroke:#000000;stroke-width:1;stroke-linecap:square;stroke-linejoin:bevel;stroke-miterlimit:10;stroke-dasharray:none;stroke-opacity:1"
         id="path538" /></g><g
       id="g540"><path
         d="M 166.35,252.75 V 246"
         style="fill:none;stroke:#000000;stroke-width:1;stroke-linecap:square;stroke-linejoin:bevel;stroke-miterlimit:10;stroke-dasharray:none;stroke-opacity:1"
         id="path542" /></g><g
       id="g544"><path
         d="M 222.9,252.75 V 246"
         style="fill:none;stroke:#000000;stroke-width:1;stroke-linecap:square;stroke-linejoin:bevel;stroke-miterlimit:10;stroke-dasharray:none;stroke-opacity:1"
         id="path546" /></g><g
       id="g548"><path
         d="M 279.45,252.75 V 246"
         style="fill:none;stroke:#000000;stroke-width:1;stroke-linecap:square;stroke-linejoin:bevel;stroke-miterlimit:10;stroke-dasharray:none;stroke-opacity:1"
         id="path550" /></g><g
       id="g552"><path
         d="M 64.56,252.75 V 249"
         style="fill:none;stroke:#000000;stroke-width:1;stroke-linecap:square;stroke-linejoin:bevel;stroke-miterlimit:10;stroke-dasharray:none;stroke-opacity:1"
         id="path554" /></g><g
       id="g556"><path
         d="M 75.87,252.75 V 249"
         style="fill:none;stroke:#000000;stroke-width:1;stroke-linecap:square;stroke-linejoin:bevel;stroke-miterlimit:10;stroke-dasharray:none;stroke-opacity:1"
         id="path558" /></g><g
       id="g560"><path
         d="M 87.18,252.75 V 249"
         style="fill:none;stroke:#000000;stroke-width:1;stroke-linecap:square;stroke-linejoin:bevel;stroke-miterlimit:10;stroke-dasharray:none;stroke-opacity:1"
         id="path562" /></g><g
       id="g564"><path
         d="M 98.49,252.75 V 249"
         style="fill:none;stroke:#000000;stroke-width:1;stroke-linecap:square;stroke-linejoin:bevel;stroke-miterlimit:10;stroke-dasharray:none;stroke-opacity:1"
         id="path566" /></g><g
       id="g568"><path
         d="M 121.11,252.75 V 249"
         style="fill:none;stroke:#000000;stroke-width:1;stroke-linecap:square;stroke-linejoin:bevel;stroke-miterlimit:10;stroke-dasharray:none;stroke-opacity:1"
         id="path570" /></g><g
       id="g572"><path
         d="M 132.42,252.75 V 249"
         style="fill:none;stroke:#000000;stroke-width:1;stroke-linecap:square;stroke-linejoin:bevel;stroke-miterlimit:10;stroke-dasharray:none;stroke-opacity:1"
         id="path574" /></g><g
       id="g576"><path
         d="M 143.73,252.75 V 249"
         style="fill:none;stroke:#000000;stroke-width:1;stroke-linecap:square;stroke-linejoin:bevel;stroke-miterlimit:10;stroke-dasharray:none;stroke-opacity:1"
         id="path578" /></g><g
       id="g580"><path
         d="M 155.04,252.75 V 249"
         style="fill:none;stroke:#000000;stroke-width:1;stroke-linecap:square;stroke-linejoin:bevel;stroke-miterlimit:10;stroke-dasharray:none;stroke-opacity:1"
         id="path582" /></g><g
       id="g584"><path
         d="M 177.66,252.75 V 249"
         style="fill:none;stroke:#000000;stroke-width:1;stroke-linecap:square;stroke-linejoin:bevel;stroke-miterlimit:10;stroke-dasharray:none;stroke-opacity:1"
         id="path586" /></g><g
       id="g588"><path
         d="M 188.97,252.75 V 249"
         style="fill:none;stroke:#000000;stroke-width:1;stroke-linecap:square;stroke-linejoin:bevel;stroke-miterlimit:10;stroke-dasharray:none;stroke-opacity:1"
         id="path590" /></g><g
       id="g592"><path
         d="M 200.28,252.75 V 249"
         style="fill:none;stroke:#000000;stroke-width:1;stroke-linecap:square;stroke-linejoin:bevel;stroke-miterlimit:10;stroke-dasharray:none;stroke-opacity:1"
         id="path594" /></g><g
       id="g596"><path
         d="M 211.59,252.75 V 249"
         style="fill:none;stroke:#000000;stroke-width:1;stroke-linecap:square;stroke-linejoin:bevel;stroke-miterlimit:10;stroke-dasharray:none;stroke-opacity:1"
         id="path598" /></g><g
       id="g600"><path
         d="M 234.21,252.75 V 249"
         style="fill:none;stroke:#000000;stroke-width:1;stroke-linecap:square;stroke-linejoin:bevel;stroke-miterlimit:10;stroke-dasharray:none;stroke-opacity:1"
         id="path602" /></g><g
       id="g604"><path
         d="M 245.52,252.75 V 249"
         style="fill:none;stroke:#000000;stroke-width:1;stroke-linecap:square;stroke-linejoin:bevel;stroke-miterlimit:10;stroke-dasharray:none;stroke-opacity:1"
         id="path606" /></g><g
       id="g608"><path
         d="M 256.83,252.75 V 249"
         style="fill:none;stroke:#000000;stroke-width:1;stroke-linecap:square;stroke-linejoin:bevel;stroke-miterlimit:10;stroke-dasharray:none;stroke-opacity:1"
         id="path610" /></g><g
       id="g612"><path
         d="M 268.14,252.75 V 249"
         style="fill:none;stroke:#000000;stroke-width:1;stroke-linecap:square;stroke-linejoin:bevel;stroke-miterlimit:10;stroke-dasharray:none;stroke-opacity:1"
         id="path614" /></g><g
       id="g616"><path
         d="M 290.76,252.75 V 249"
         style="fill:none;stroke:#000000;stroke-width:1;stroke-linecap:square;stroke-linejoin:bevel;stroke-miterlimit:10;stroke-dasharray:none;stroke-opacity:1"
         id="path618" /></g><g
       id="g620"><path
         d="M 302.07,252.75 V 249"
         style="fill:none;stroke:#000000;stroke-width:1;stroke-linecap:square;stroke-linejoin:bevel;stroke-miterlimit:10;stroke-dasharray:none;stroke-opacity:1"
         id="path622" /></g><g
       id="g624"><path
         d="M 313.38,252.75 V 249"
         style="fill:none;stroke:#000000;stroke-width:1;stroke-linecap:square;stroke-linejoin:bevel;stroke-miterlimit:10;stroke-dasharray:none;stroke-opacity:1"
         id="path626" /></g><g
       id="g628"><path
         d="M 324.69,252.75 V 249"
         style="fill:none;stroke:#000000;stroke-width:1;stroke-linecap:square;stroke-linejoin:bevel;stroke-miterlimit:10;stroke-dasharray:none;stroke-opacity:1"
         id="path630" /></g><g
       id="g632"><path
         d="M 214.5,231 H 312 v -42 h -97.5 z"
         style="fill:#ffffff;fill-opacity:0.8;fill-rule:nonzero;stroke:none"
         id="path634" /></g><g
       id="g636"><path
         d="M 214.5,231 H 312 v -42 h -97.5 z"
         style="fill:none;stroke:#000000;stroke-width:1;stroke-linecap:butt;stroke-linejoin:miter;stroke-miterlimit:10;stroke-dasharray:none;stroke-opacity:1"
         id="path638" /></g><g
       id="g640"><path
         d="m 222.75,221.25 h 24"
         style="fill:none;stroke:#000000;stroke-width:2;stroke-linecap:butt;stroke-linejoin:miter;stroke-miterlimit:10;stroke-dasharray:none;stroke-opacity:1"
         id="path642" /></g><g
       id="g644"><path
         d="m 251.332,217.5 h 0.691 v 5.438 h -0.128 l 3.691,-5.438 h 0.832 v 6.246 h -0.703 v -5.461 h 0.14 l -3.667,5.461 h -0.856 V 217.5 m 8.613,-0.094 c 0.493,0 1.043,0.117 1.43,0.328 l -0.164,0.516 c -0.34,-0.152 -0.762,-0.258 -1.137,-0.258 -1.019,0 -1.617,0.68 -1.617,1.805 0,0.973 0.434,1.512 1.231,1.512 0.738,0 1.171,-0.469 1.171,-1.301 h -2.531 v -0.539 h 3.164 c 0.024,0.14 0.035,0.445 0.035,0.621 0,1.09 -0.715,1.84 -1.781,1.84 -1.207,0 -2.027,-0.95 -2.027,-2.285 0,-1.383 0.855,-2.239 2.226,-2.239 m 5.25,0 c 0.493,0 1.043,0.117 1.43,0.328 l -0.164,0.516 c -0.34,-0.152 -0.762,-0.258 -1.137,-0.258 -1.019,0 -1.617,0.68 -1.617,1.805 0,0.973 0.434,1.512 1.231,1.512 0.738,0 1.171,-0.469 1.171,-1.301 h -2.531 v -0.539 h 3.164 c 0.024,0.14 0.035,0.445 0.035,0.621 0,1.09 -0.715,1.84 -1.781,1.84 -1.207,0 -2.027,-0.95 -2.027,-2.285 0,-1.383 0.855,-2.239 2.226,-2.239 m 4.957,0 c 0.727,0 1.289,0.364 1.629,0.961 l -0.258,0.317 c -0.246,-0.399 -0.656,-0.645 -1.16,-0.645 -0.867,0 -1.429,0.68 -1.429,1.676 0,0.949 0.504,1.582 1.347,1.582 0.551,0 0.973,-0.258 1.231,-0.68 l 0.328,0.387 c -0.317,0.586 -0.867,0.926 -1.594,0.926 -1.219,0 -2.027,-0.926 -2.027,-2.297 0,-1.336 0.773,-2.227 1.933,-2.227 m 1.477,0.094 h 0.504 v 6.645 h -0.727 v -6.141 l 0.223,-0.504 m 3.094,-0.059 c 0.234,0 0.515,0.059 0.691,0.153 l -0.164,0.504 c -0.105,-0.047 -0.211,-0.071 -0.316,-0.071 -0.305,0 -0.469,0.2 -0.469,0.539 v 5.579 h -0.715 v -5.672 c 0,-0.621 0.387,-1.032 0.973,-1.032 m 3.222,-0.035 c 0.493,0 1.043,0.117 1.43,0.328 l -0.164,0.516 c -0.34,-0.152 -0.762,-0.258 -1.137,-0.258 -1.019,0 -1.617,0.68 -1.617,1.805 0,0.973 0.434,1.512 1.231,1.512 0.738,0 1.171,-0.469 1.171,-1.301 h -2.531 v -0.539 h 3.164 c 0.024,0.14 0.035,0.445 0.035,0.621 0,1.09 -0.715,1.84 -1.781,1.84 -1.207,0 -2.027,-0.95 -2.027,-2.285 0,-1.383 0.855,-2.239 2.226,-2.239 m 5.707,-1.523 h 1.887 v 0.597 h -1.219 v 7.067 h 1.219 v 0.598 h -1.887 v -8.262 m 4.84,1.523 c 1.395,0 2.262,1.231 2.262,3.258 0,1.969 -0.844,3.164 -2.203,3.164 -1.406,0 -2.274,-1.23 -2.274,-3.246 0,-1.98 0.844,-3.176 2.215,-3.176 m 0.059,0.645 c -0.938,0 -1.524,0.972 -1.524,2.613 0,1.582 0.563,2.531 1.477,2.531 0.914,0 1.488,-0.996 1.488,-2.613 0,-1.582 -0.551,-2.531 -1.441,-2.531 m 5.941,-0.645 c 1.395,0 2.262,1.231 2.262,3.258 0,1.969 -0.844,3.164 -2.203,3.164 -1.406,0 -2.274,-1.23 -2.274,-3.246 0,-1.98 0.844,-3.176 2.215,-3.176 m 0.059,0.645 c -0.938,0 -1.524,0.972 -1.524,2.613 0,1.582 0.563,2.531 1.477,2.531 0.914,0 1.488,-0.996 1.488,-2.613 0,-1.582 -0.551,-2.531 -1.441,-2.531 m 5.203,-0.598 h 0.715 v 6.293 h -0.434 l -2.226,-1.16 0.269,-0.504 1.91,0.902 -0.234,0.223 v -5.754 m 3.996,-1.57 v 8.262 h -1.887 v -0.598 h 1.207 v -7.067 h -1.207 v -0.597 h 1.887"
         style="fill:#000000;fill-opacity:1;fill-rule:nonzero;stroke:none"
         id="path646" /></g><g
       id="g648"><path
         d="m 222.75,210 h 24"
         style="fill:none;stroke:#ff0000;stroke-width:2;stroke-linecap:butt;stroke-linejoin:miter;stroke-miterlimit:10;stroke-dasharray:none;stroke-opacity:1"
         id="path650" /></g><g
       id="g652"><path
         d="m 251.332,206.25 h 0.738 v 5.59 h 1.114 c 0.902,0 1.511,-0.586 1.511,-1.465 0,-0.855 -0.504,-1.301 -1.429,-1.301 h -1.465 v -0.644 h 1.336 c 1.394,0 2.332,0.82 2.332,2.074 0,1.195 -0.891,1.992 -2.203,1.992 h -1.934 v -6.246 m 6.141,-0.059 c 0.234,0 0.515,0.059 0.691,0.153 L 258,206.848 c -0.105,-0.047 -0.211,-0.071 -0.316,-0.071 -0.305,0 -0.469,0.2 -0.469,0.539 v 5.579 H 256.5 v -5.672 c 0,-0.621 0.387,-1.032 0.973,-1.032 m 3.949,0.059 h 0.504 v 2.812 c 0,1.043 -0.61,1.618 -1.735,1.618 -0.574,0 -1.183,-0.153 -1.652,-0.422 l 0.176,-0.528 c 0.457,0.2 0.902,0.293 1.324,0.293 0.773,0 1.172,-0.316 1.172,-0.961 v -2.308 l 0.211,-0.504 m -1.535,-0.094 c 1.031,0 1.816,0.656 1.945,1.617 l -0.258,0.118 c -0.14,-0.657 -0.726,-1.102 -1.476,-1.102 -0.575,0 -0.961,0.293 -0.961,0.715 0,0.551 0.644,0.773 2.179,0.773 v 0.504 c -2.015,0 -2.894,-0.41 -2.894,-1.347 0,-0.774 0.574,-1.278 1.465,-1.278 m 5.59,0.047 c 0.304,0 0.597,0.07 0.808,0.164 l -0.164,0.516 c -0.141,-0.059 -0.34,-0.094 -0.492,-0.094 -0.445,0 -0.738,0.293 -0.738,0.715 v 4.348 h -0.727 v -4.442 c 0,-0.715 0.527,-1.207 1.313,-1.207 m -1.899,3.785 h 2.496 v 0.598 h -2.496 v -0.598 m 5.367,-3.832 c 0.493,0 1.043,0.117 1.43,0.328 L 270.211,207 c -0.34,-0.152 -0.762,-0.258 -1.137,-0.258 -1.019,0 -1.617,0.68 -1.617,1.805 0,0.973 0.434,1.512 1.231,1.512 0.738,0 1.171,-0.469 1.171,-1.301 h -2.531 v -0.539 h 3.164 c 0.024,0.14 0.035,0.445 0.035,0.621 0,1.09 -0.715,1.84 -1.781,1.84 -1.207,0 -2.027,-0.95 -2.027,-2.285 0,-1.383 0.855,-2.239 2.226,-2.239 m 6.633,-1.511 0.516,0.304 c -0.75,1.313 -1.055,2.414 -1.055,3.996 0,1.336 0.305,2.391 1.055,3.727 l -0.539,0.316 c -0.914,-1.5 -1.243,-2.672 -1.243,-4.113 0,-1.676 0.352,-2.836 1.266,-4.23 m 3.914,1.511 c 1.395,0 2.262,1.231 2.262,3.258 0,1.969 -0.844,3.164 -2.203,3.164 -1.406,0 -2.274,-1.23 -2.274,-3.246 0,-1.98 0.844,-3.176 2.215,-3.176 m 0.059,0.645 c -0.938,0 -1.524,0.972 -1.524,2.613 0,1.582 0.563,2.531 1.477,2.531 0.914,0 1.488,-0.996 1.488,-2.613 0,-1.582 -0.551,-2.531 -1.441,-2.531 m 5.941,-0.645 c 1.395,0 2.262,1.231 2.262,3.258 0,1.969 -0.844,3.164 -2.203,3.164 -1.406,0 -2.274,-1.23 -2.274,-3.246 0,-1.98 0.844,-3.176 2.215,-3.176 m 0.059,0.645 c -0.938,0 -1.524,0.972 -1.524,2.613 0,1.582 0.563,2.531 1.477,2.531 0.914,0 1.488,-0.996 1.488,-2.613 0,-1.582 -0.551,-2.531 -1.441,-2.531 m 5.203,-0.598 h 0.715 v 6.293 h -0.434 l -2.226,-1.16 0.269,-0.504 1.91,0.902 -0.234,0.223 v -5.754 m 2.625,-1.558 c 0.926,1.394 1.266,2.554 1.266,4.23 0,1.441 -0.329,2.613 -1.231,4.113 l -0.551,-0.316 c 0.75,-1.336 1.055,-2.391 1.055,-3.727 0,-1.582 -0.305,-2.683 -1.055,-3.996 l 0.516,-0.304"
         style="fill:#000000;fill-opacity:1;fill-rule:nonzero;stroke:none"
         id="path654" /></g><g
       id="g656"><path
         d="m 222.75,198.75 h 24"
         style="fill:none;stroke:#00ff00;stroke-width:2;stroke-linecap:butt;stroke-linejoin:miter;stroke-miterlimit:10;stroke-dasharray:none;stroke-opacity:1"
         id="path658" /></g><g
       id="g660"><path
         d="m 252.867,194.906 c 1.395,0 2.297,0.715 2.297,1.817 0,2.203 -3.492,1.324 -3.492,2.941 0,0.656 0.527,1.008 1.476,1.008 0.54,0 1.114,-0.106 1.559,-0.293 l 0.223,0.586 c -0.528,0.234 -1.125,0.363 -1.723,0.363 -1.395,0 -2.297,-0.691 -2.297,-1.781 0,-2.145 3.481,-1.348 3.481,-2.942 0,-0.621 -0.539,-1.031 -1.477,-1.031 -0.574,0 -1.277,0.153 -1.887,0.41 l -0.222,-0.586 c 0.691,-0.316 1.394,-0.492 2.062,-0.492 m 5.531,0 c 1.207,0 2.016,0.938 2.016,2.344 0,1.301 -0.738,2.18 -1.863,2.18 -0.61,0 -1.196,-0.27 -1.571,-0.739 l 0.165,-0.457 c 0.316,0.352 0.761,0.563 1.218,0.563 0.809,0 1.336,-0.645 1.336,-1.641 0,-0.972 -0.48,-1.617 -1.254,-1.617 -0.656,0 -1.195,0.422 -1.347,1.066 l -0.293,-0.503 c 0.199,-0.75 0.82,-1.196 1.593,-1.196 m -1.898,-1.863 h 0.715 v 5.789 l -0.211,0.504 H 256.5 v -6.293 m 8.203,1.957 h 0.727 v 2.848 c 0,0.961 -0.645,1.582 -1.618,1.582 -0.621,0 -1.242,-0.27 -1.71,-0.809 l 0.175,-0.457 c 0.364,0.422 0.832,0.633 1.336,0.633 0.703,0 1.09,-0.399 1.09,-1.102 V 195 m -2.953,0 h 0.715 v 6.645 H 261.75 V 195 m 7.195,-0.094 c 0.493,0 1.043,0.117 1.43,0.328 l -0.164,0.516 c -0.34,-0.152 -0.762,-0.258 -1.137,-0.258 -1.019,0 -1.617,0.68 -1.617,1.805 0,0.973 0.434,1.512 1.231,1.512 0.738,0 1.171,-0.469 1.171,-1.301 h -2.531 v -0.539 h 3.164 c 0.024,0.14 0.035,0.445 0.035,0.621 0,1.09 -0.715,1.84 -1.781,1.84 -1.207,0 -2.027,-0.95 -2.027,-2.285 0,-1.383 0.855,-2.239 2.226,-2.239 M 272.25,195 h 0.715 v 3.328 l -0.129,1.008 H 272.25 V 195 m 0.551,2.812 c 0.258,0.551 0.773,0.879 1.371,0.879 0.176,0 0.328,-0.023 0.48,-0.07 l 0.176,0.656 c -0.187,0.071 -0.375,0.106 -0.574,0.106 -0.586,0 -1.125,-0.317 -1.453,-0.844 v -0.727 m 5.144,-2.906 c 0.493,0 1.043,0.117 1.43,0.328 l -0.164,0.516 c -0.34,-0.152 -0.762,-0.258 -1.137,-0.258 -1.019,0 -1.617,0.68 -1.617,1.805 0,0.973 0.434,1.512 1.231,1.512 0.738,0 1.171,-0.469 1.171,-1.301 h -2.531 v -0.539 h 3.164 c 0.024,0.14 0.035,0.445 0.035,0.621 0,1.09 -0.715,1.84 -1.781,1.84 -1.207,0 -2.027,-0.95 -2.027,-2.285 0,-1.383 0.855,-2.239 2.226,-2.239"
         style="fill:#000000;fill-opacity:1;fill-rule:nonzero;stroke:none"
         id="path662" /></g></g></svg>
