<?xml version="1.0" encoding="UTF-8" standalone="no"?>
<!-- Created with Inkscape (http://www.inkscape.org/) -->

<svg
   version="1.1"
   id="svg2"
   xml:space="preserve"
   width="483"
   height="361"
   viewBox="0 0 483 361"
   xmlns="http://www.w3.org/2000/svg"
   xmlns:svg="http://www.w3.org/2000/svg"><defs
     id="defs6"><clipPath
       clipPathUnits="userSpaceOnUse"
       id="clipPath20"><path
         d="M 52.5,264 H 351.75 V 39 H 52.5 Z"
         clip-rule="evenodd"
         id="path18" /></clipPath><clipPath
       clipPathUnits="userSpaceOnUse"
       id="clipPath30"><path
         d="M 52.5,264 H 351.75 V 39 H 52.5 Z"
         clip-rule="evenodd"
         id="path28" /></clipPath><clipPath
       clipPathUnits="userSpaceOnUse"
       id="clipPath40"><path
         d="M 52.5,264 H 351.75 V 39 H 52.5 Z"
         clip-rule="evenodd"
         id="path38" /></clipPath></defs><g
     id="g8"
     transform="matrix(1.3333333,0,0,-1.3333333,0,361)"><g
       id="g10"><path
         d="M 0,270.75 H 362.25 V 0 H 0 Z"
         style="fill:#ffffff;fill-opacity:1;fill-rule:nonzero;stroke:none"
         id="path12" /></g><g
       id="g14"><g
         id="g16"
         clip-path="url(#clipPath20)"><path
           d="m 52.5,39.553 0.598,0.005 0.599,0.004 1.197,0.01 0.598,0.005 0.599,0.005 0.598,0.005 1.198,0.01 0.598,0.005 0.598,0.005 0.599,0.005 1.197,0.011 0.598,0.005 0.599,0.006 0.598,0.005 1.198,0.012 0.598,0.006 0.598,0.006 0.599,0.006 1.197,0.012 0.599,0.006 0.598,0.006 0.598,0.007 1.198,0.013 0.598,0.006 0.598,0.007 0.599,0.007 1.197,0.014 0.599,0.007 0.598,0.007 0.598,0.008 1.198,0.015 0.598,0.007 0.598,0.008 0.599,0.008 1.197,0.016 0.599,0.008 0.598,0.009 0.598,0.008 1.198,0.017 0.598,0.009 0.598,0.009 1.198,0.019 0.598,0.009 0.599,0.01 0.598,0.009 1.197,0.02 0.599,0.01 0.598,0.011 0.598,0.01 1.198,0.022 0.598,0.011 0.599,0.011 0.598,0.012 1.197,0.023 0.599,0.012 0.598,0.012 0.598,0.013 1.198,0.025 0.598,0.013 0.598,0.013 0.599,0.014 1.197,0.028 0.599,0.014 0.598,0.015 0.598,0.014 1.198,0.031 0.598,0.015 0.598,0.016 0.599,0.017 1.197,0.033 0.599,0.017 0.598,0.018 0.598,0.017 1.198,0.037 0.598,0.019 0.599,0.019 0.598,0.02 1.197,0.041 0.599,0.021 0.598,0.021 0.598,0.022 1.198,0.045 0.598,0.023 0.599,0.024 0.598,0.024 1.197,0.05 0.599,0.026 0.598,0.027 0.598,0.027 1.198,0.056 0.598,0.029 0.599,0.029 0.598,0.031 1.197,0.063 0.599,0.033 0.598,0.033 0.598,0.034 1.198,0.072 0.598,0.037 0.598,0.037 0.599,0.039 1.197,0.081 0.599,0.043 0.598,0.043 0.598,0.044 1.198,0.093 0.598,0.048 0.599,0.05 0.598,0.051 1.197,0.107 0.599,0.055 0.598,0.058 0.598,0.059 1.198,0.124 0.598,0.065 0.598,0.067 0.599,0.069 1.197,0.145 0.599,0.077 0.598,0.078 1.197,0.167 0.599,0.087 0.598,0.091 0.598,0.093 1.197,0.199 0.599,0.105 0.599,0.109 0.598,0.113 1.197,0.24 0.599,0.127 0.598,0.133 0.598,0.138 1.197,0.294 0.599,0.157 0.599,0.165 0.598,0.171 1.197,0.368 0.599,0.197 0.598,0.206 0.599,0.217 0.598,0.228 0.598,0.24 0.599,0.253 0.599,0.265 0.598,0.281 0.598,0.296 0.599,0.313 0.599,0.331 0.598,0.35 0.598,0.372 0.599,0.394 0.598,0.419 0.599,0.447 0.599,0.475 0.598,0.507 0.598,0.542 0.599,0.58 0.599,0.621 0.598,0.667 0.599,0.717 0.598,0.771 0.598,0.831 0.599,0.898 0.599,0.971 0.598,1.053 0.598,1.141 0.599,1.241 0.599,1.351 0.598,1.474 0.598,1.608 0.599,1.76 0.598,1.926 0.599,2.11 0.599,2.315 0.598,2.538 0.598,2.785 0.599,3.052 0.599,3.339 0.598,3.643 0.599,3.96 0.598,4.279 0.598,4.588 0.599,4.868 0.599,5.092 0.598,5.23 0.598,5.243 0.599,5.091 0.599,4.738 0.598,4.157 0.599,3.348 0.598,2.329 0.598,1.16 0.599,-0.083 0.599,-1.304 0.598,-2.415 0.598,-3.347 0.599,-4.056 0.599,-4.534 0.598,-4.794 0.598,-4.868 0.599,-4.794 0.598,-4.612 0.599,-4.355 0.599,-4.054 0.598,-3.733 0.598,-3.405 0.599,-3.084 0.599,-2.774 0.598,-2.482 0.598,-2.21 0.599,-1.956 0.598,-1.721 0.599,-1.504 0.599,-1.305 0.598,-1.119 0.599,-0.947 0.598,-0.786 0.599,-0.635 0.598,-0.493 0.599,-0.357 0.598,-0.226 0.598,-0.1 0.599,0.024 0.599,0.146 0.598,0.269 0.598,0.393 0.599,0.518 0.599,0.648 0.598,0.782 0.599,0.924 0.598,1.072 0.598,1.231 0.599,1.4 0.599,1.583 0.598,1.781 0.598,1.997 0.599,2.232 0.599,2.489 0.598,2.773 0.599,3.083 0.598,3.426 0.598,3.801 0.599,4.214 0.599,4.665 0.598,5.155 0.598,5.683 0.599,6.245 0.599,6.833 0.598,7.433 0.598,8.024 0.599,8.574 0.598,9.042 0.599,9.37 0.599,9.494 0.598,9.336 0.598,8.826 0.599,7.906 0.599,6.551 0.598,4.781 0.599,2.679 0.598,0.374 0.598,-1.961 0.599,-4.155 0.599,-6.06 0.598,-7.573 0.598,-8.656 0.599,-9.315 0.599,-9.601 0.598,-9.582 0.598,-9.33 0.599,-8.92 0.598,-8.405 0.599,-7.838 0.599,-7.25 0.598,-6.669 0.598,-6.108 0.599,-5.58 0.599,-5.088 0.598,-4.636 0.599,-4.222 0.598,-3.846 0.598,-3.507 0.599,-3.199 0.599,-2.922 0.598,-2.673 0.598,-2.447 0.599,-2.245 0.599,-2.062 0.598,-1.898 0.599,-1.748 0.598,-1.614 0.598,-1.492 0.599,-1.382 0.599,-1.281 0.598,-1.191 0.598,-1.108 0.599,-1.032 0.599,-0.964 0.598,-0.9 0.599,-0.843 0.598,-0.789 0.598,-0.741 0.599,-0.696 0.599,-0.654 0.598,-0.616 0.599,-0.58 0.598,-0.547 0.599,-0.517 0.598,-0.488 1.197,-0.9 0.598,-0.414 0.599,-0.394 0.599,-0.374 0.598,-0.355 0.598,-0.337 0.599,-0.322 0.599,-0.306 0.598,-0.292 0.599,-0.279 0.598,-0.266 0.598,-0.254 0.599,-0.243 1.197,-0.456 0.598,-0.213 0.599,-0.204 0.599,-0.197 0.598,-0.188 0.599,-0.181 0.598,-0.174 0.598,-0.167 0.599,-0.16 1.197,-0.304 0.598,-0.143 0.599,-0.138 0.599,-0.134 0.598,-0.128 0.599,-0.124 0.598,-0.12 0.598,-0.116 0.599,-0.112 1.197,-0.212 0.598,-0.102 0.599,-0.098 0.599,-0.094 1.197,-0.181 0.598,-0.086 0.598,-0.084 0.599,-0.081 1.197,-0.155 0.598,-0.074 0.599,-0.072 0.599,-0.07 1.197,-0.134 0.598,-0.064 0.598,-0.063 0.599,-0.06 0.599,-0.059 0.598,-0.058 0.598,-0.056 0.599,-0.055 0.599,-0.053 1.196,-0.102 0.599,-0.049 0.598,-0.048 0.599,-0.047 1.197,-0.09 0.598,-0.043 0.599,-0.042 0.599,-0.042 0.598,-0.04 0.598,-0.04 0.599,-0.038 0.598,-0.038 0.599,-0.036 1.197,-0.072 0.598,-0.034 0.599,-0.033 0.599,-0.033 1.197,-0.064 0.598,-0.031 0.598,-0.03 0.599,-0.029 1.197,-0.057 0.598,-0.028 0.599,-0.027 0.599,-0.027 1.196,-0.051 0.599,-0.025 0.598,-0.025 0.599,-0.024 0.599,-0.023 0.598,-0.023 0.598,-0.023 0.599,-0.022 0.599,-0.022 1.196,-0.042 0.599,-0.021 0.598,-0.02 0.599,-0.02 1.197,-0.039 0.598,-0.018 0.599,-0.019 1.197,-0.036 0.598,-0.017 0.599,-0.017 0.598,-0.017 1.198,-0.033 0.598,-0.016 0.599,-0.016 0.598,-0.016 1.197,-0.03 0.599,-0.015 0.598,-0.014 0.598,-0.014 1.198,-0.028 0.598,-0.014 0.598,-0.013 0.599,-0.013 1.197,-0.026 0.599,-0.012 0.598,-0.013 0.598,-0.012 1.198,-0.024 0.598,-0.011 0.598,-0.012 0.599,-0.011 1.197,-0.022 0.599,-0.011 0.598,-0.01 0.598,-0.011 1.198,-0.02 0.598,-0.01 0.598,-0.01 0.599,-0.01 1.197,-0.019 0.599,-0.009 0.598,-0.009 0.598,-0.009 1.198,-0.018 h 0.598"
           style="fill:none;stroke:#000000;stroke-width:2;stroke-linecap:butt;stroke-linejoin:miter;stroke-miterlimit:10;stroke-dasharray:none;stroke-opacity:1"
           id="path22" /></g></g><g
       id="g24"><g
         id="g26"
         clip-path="url(#clipPath30)"><path
           d="m 52.5,39.553 0.598,0.005 0.599,0.004 1.197,0.01 0.598,0.005 0.599,0.005 0.598,0.005 1.198,0.01 0.598,0.005 0.598,0.005 0.599,0.005 1.197,0.011 0.598,0.005 0.599,0.006 0.598,0.005 1.198,0.012 0.598,0.006 0.598,0.006 0.599,0.006 1.197,0.012 0.599,0.006 0.598,0.006 0.598,0.007 1.198,0.013 0.598,0.006 0.598,0.007 0.599,0.007 1.197,0.014 0.599,0.007 0.598,0.007 0.598,0.008 1.198,0.015 0.598,0.007 0.598,0.008 0.599,0.008 1.197,0.016 0.599,0.008 0.598,0.009 0.598,0.008 1.198,0.017 0.598,0.009 0.598,0.009 1.198,0.019 0.598,0.009 0.599,0.01 0.598,0.009 1.197,0.02 0.599,0.01 0.598,0.011 0.598,0.01 1.198,0.022 0.598,0.011 0.599,0.011 0.598,0.012 1.197,0.023 0.599,0.012 0.598,0.012 0.598,0.013 1.198,0.025 0.598,0.013 0.598,0.013 0.599,0.014 1.197,0.028 0.599,0.014 0.598,0.015 0.598,0.014 1.198,0.031 0.598,0.015 0.598,0.016 0.599,0.017 1.197,0.033 0.599,0.017 0.598,0.018 0.598,0.017 1.198,0.037 0.598,0.019 0.599,0.019 0.598,0.02 1.197,0.041 0.599,0.021 0.598,0.021 0.598,0.022 1.198,0.045 0.598,0.023 0.599,0.024 0.598,0.024 1.197,0.05 0.599,0.026 0.598,0.027 0.598,0.027 1.198,0.056 0.598,0.029 0.599,0.029 0.598,0.031 1.197,0.063 0.599,0.033 0.598,0.033 0.598,0.034 1.198,0.072 0.598,0.037 0.598,0.037 0.599,0.039 1.197,0.081 0.599,0.043 0.598,0.043 0.598,0.044 1.198,0.093 0.598,0.048 0.599,0.05 0.598,0.051 1.197,0.107 0.599,0.055 0.598,0.058 0.598,0.059 1.198,0.124 0.598,0.065 0.598,0.067 0.599,0.069 1.197,0.145 0.599,0.077 0.598,0.078 1.197,0.167 0.599,0.087 0.598,0.091 0.598,0.093 1.197,0.199 0.599,0.105 0.599,0.109 0.598,0.113 1.197,0.24 0.599,0.127 0.598,0.133 0.598,0.138 1.197,0.294 0.599,0.157 0.599,0.165 0.598,0.171 1.197,0.368 0.599,0.197 0.598,0.206 0.599,0.217 0.598,0.228 0.598,0.24 0.599,0.253 0.599,0.265 0.598,0.281 0.598,0.296 0.599,0.313 0.599,0.331 0.598,0.35 0.598,0.372 0.599,0.394 0.598,0.419 0.599,0.447 0.599,0.475 0.598,0.507 0.598,0.542 0.599,0.58 0.599,0.621 0.598,0.667 0.599,0.717 0.598,0.771 0.598,0.831 0.599,0.898 0.599,0.971 0.598,1.053 0.598,1.141 0.599,1.241 0.599,1.351 0.598,1.474 0.598,1.608 0.599,1.76 0.598,1.926 0.599,2.11 0.599,2.315 0.598,2.538 0.598,2.785 0.599,3.052 0.599,3.339 0.598,3.643 0.599,3.96 0.598,4.279 0.598,4.588 0.599,4.868 0.599,5.092 0.598,5.23 0.598,5.243 0.599,5.091 0.599,4.738 0.598,4.157 0.599,3.348 0.598,2.329 0.598,1.16 0.599,-0.083 0.599,-1.304 0.598,-2.415 0.598,-3.347 0.599,-4.056 0.599,-4.534 0.598,-4.794 0.598,-4.868 0.599,-4.794 0.598,-4.612 0.599,-4.355 0.599,-4.054 0.598,-3.733 0.598,-3.405 0.599,-3.084 0.599,-2.774 0.598,-2.482 0.598,-2.21 0.599,-1.956 0.598,-1.721 0.599,-1.504 0.599,-1.305 0.598,-1.119 0.599,-0.947 0.598,-0.786 0.599,-0.635 0.598,-0.493 0.599,-0.357 0.598,-0.226 0.598,-0.1 0.599,0.024 0.599,0.146 0.598,0.269 0.598,0.393 0.599,0.518 0.599,0.648 0.598,0.782 0.599,0.924 0.598,1.072 0.598,1.231 0.599,1.4 0.599,1.583 0.598,1.781 0.598,1.997 0.599,2.232 0.599,2.489 0.598,2.773 0.599,3.083 0.598,3.426 0.598,3.801 0.599,4.214 0.599,4.665 0.598,5.155 0.598,5.683 0.599,6.245 0.599,6.833 0.598,7.433 0.598,8.024 0.599,8.574 0.598,9.042 0.599,9.37 0.599,9.494 0.598,9.336 0.598,8.826 0.599,7.906 0.599,6.551 0.598,4.781 0.599,2.679 0.598,0.374 0.598,-1.961 0.599,-4.155 0.599,-6.06 0.598,-7.573 0.598,-8.656 0.599,-9.315 0.599,-9.601 0.598,-9.582 0.598,-9.33 0.599,-8.92 0.598,-8.405 0.599,-7.838 0.599,-7.25 0.598,-6.669 0.598,-6.108 0.599,-5.58 0.599,-5.088 0.598,-4.636 0.599,-4.222 0.598,-3.846 0.598,-3.507 0.599,-3.199 0.599,-2.922 0.598,-2.673 0.598,-2.447 0.599,-2.245 0.599,-2.062 0.598,-1.898 0.599,-1.748 0.598,-1.614 0.598,-1.492 0.599,-1.382 0.599,-1.281 0.598,-1.191 0.598,-1.108 0.599,-1.032 0.599,-0.964 0.598,-0.9 0.599,-0.843 0.598,-0.789 0.598,-0.741 0.599,-0.696 0.599,-0.654 0.598,-0.616 0.599,-0.58 0.598,-0.547 0.599,-0.517 0.598,-0.488 1.197,-0.9 0.598,-0.414 0.599,-0.394 0.599,-0.374 0.598,-0.355 0.598,-0.337 0.599,-0.322 0.599,-0.306 0.598,-0.292 0.599,-0.279 0.598,-0.266 0.598,-0.254 0.599,-0.243 1.197,-0.456 0.598,-0.213 0.599,-0.204 0.599,-0.197 0.598,-0.188 0.599,-0.181 0.598,-0.174 0.598,-0.167 0.599,-0.16 1.197,-0.304 0.598,-0.143 0.599,-0.138 0.599,-0.134 0.598,-0.128 0.599,-0.124 0.598,-0.12 0.598,-0.116 0.599,-0.112 1.197,-0.212 0.598,-0.102 0.599,-0.098 0.599,-0.094 1.197,-0.181 0.598,-0.086 0.598,-0.084 0.599,-0.081 1.197,-0.155 0.598,-0.074 0.599,-0.072 0.599,-0.07 1.197,-0.134 0.598,-0.064 0.598,-0.063 0.599,-0.06 0.599,-0.059 0.598,-0.058 0.598,-0.056 0.599,-0.055 0.599,-0.053 1.196,-0.102 0.599,-0.049 0.598,-0.048 0.599,-0.047 1.197,-0.09 0.598,-0.043 0.599,-0.042 0.599,-0.042 0.598,-0.04 0.598,-0.04 0.599,-0.038 0.598,-0.038 0.599,-0.036 1.197,-0.072 0.598,-0.034 0.599,-0.033 0.599,-0.033 1.197,-0.064 0.598,-0.031 0.598,-0.03 0.599,-0.029 1.197,-0.057 0.598,-0.028 0.599,-0.027 0.599,-0.027 1.196,-0.051 0.599,-0.025 0.598,-0.025 0.599,-0.024 0.599,-0.023 0.598,-0.023 0.598,-0.023 0.599,-0.022 0.599,-0.022 1.196,-0.042 0.599,-0.021 0.598,-0.02 0.599,-0.02 1.197,-0.039 0.598,-0.018 0.599,-0.019 1.197,-0.036 0.598,-0.017 0.599,-0.017 0.598,-0.017 1.198,-0.033 0.598,-0.016 0.599,-0.016 0.598,-0.016 1.197,-0.03 0.599,-0.015 0.598,-0.014 0.598,-0.014 1.198,-0.028 0.598,-0.014 0.598,-0.013 0.599,-0.013 1.197,-0.026 0.599,-0.012 0.598,-0.013 0.598,-0.012 1.198,-0.024 0.598,-0.011 0.598,-0.012 0.599,-0.011 1.197,-0.022 0.599,-0.011 0.598,-0.01 0.598,-0.011 1.198,-0.02 0.598,-0.01 0.598,-0.01 0.599,-0.01 1.197,-0.019 0.599,-0.009 0.598,-0.009 0.598,-0.009 1.198,-0.018 h 0.598"
           style="fill:none;stroke:#ff0000;stroke-width:2;stroke-linecap:butt;stroke-linejoin:miter;stroke-miterlimit:10;stroke-dasharray:none;stroke-opacity:1"
           id="path32" /></g></g><g
       id="g34"><g
         id="g36"
         clip-path="url(#clipPath40)"><path
           d="m 52.5,39.553 0.598,0.005 0.599,0.004 1.197,0.01 0.598,0.005 0.599,0.005 0.598,0.005 1.198,0.01 0.598,0.005 0.598,0.005 0.599,0.005 1.197,0.011 0.598,0.005 0.599,0.006 0.598,0.005 1.198,0.012 0.598,0.006 0.598,0.006 0.599,0.006 1.197,0.012 0.599,0.006 0.598,0.006 0.598,0.007 1.198,0.013 0.598,0.006 0.598,0.007 0.599,0.007 1.197,0.014 0.599,0.007 0.598,0.007 0.598,0.008 1.198,0.015 0.598,0.007 0.598,0.008 0.599,0.008 1.197,0.016 0.599,0.008 0.598,0.009 0.598,0.008 1.198,0.017 0.598,0.009 0.598,0.009 1.198,0.019 0.598,0.009 0.599,0.01 0.598,0.009 1.197,0.02 0.599,0.01 0.598,0.011 0.598,0.01 1.198,0.022 0.598,0.011 0.599,0.011 0.598,0.012 1.197,0.023 0.599,0.012 0.598,0.012 0.598,0.013 1.198,0.025 0.598,0.013 0.598,0.013 0.599,0.014 1.197,0.028 0.599,0.014 0.598,0.015 0.598,0.014 1.198,0.031 0.598,0.015 0.598,0.016 0.599,0.017 1.197,0.033 0.599,0.017 0.598,0.018 0.598,0.017 1.198,0.037 0.598,0.019 0.599,0.019 0.598,0.02 1.197,0.041 0.599,0.021 0.598,0.021 0.598,0.022 1.198,0.045 0.598,0.023 0.599,0.024 0.598,0.024 1.197,0.05 0.599,0.026 0.598,0.027 0.598,0.027 1.198,0.056 0.598,0.029 0.599,0.029 0.598,0.031 1.197,0.063 0.599,0.033 0.598,0.033 0.598,0.034 1.198,0.072 0.598,0.037 0.598,0.037 0.599,0.039 1.197,0.081 0.599,0.043 0.598,0.043 0.598,0.044 1.198,0.093 0.598,0.048 0.599,0.05 0.598,0.051 1.197,0.107 0.599,0.055 0.598,0.058 0.598,0.059 1.198,0.124 0.598,0.065 0.598,0.067 0.599,0.069 1.197,0.145 0.599,0.077 0.598,0.078 1.197,0.167 0.599,0.087 0.598,0.091 0.598,0.093 1.197,0.199 0.599,0.105 0.599,0.109 0.598,0.113 1.197,0.24 0.599,0.127 0.598,0.133 0.598,0.138 1.197,0.294 0.599,0.157 0.599,0.165 0.598,0.171 1.197,0.368 0.599,0.197 0.598,0.206 0.599,0.217 0.598,0.228 0.598,0.24 0.599,0.253 0.599,0.265 0.598,0.281 0.598,0.296 0.599,0.313 0.599,0.331 0.598,0.35 0.598,0.372 0.599,0.394 0.598,0.419 0.599,0.447 0.599,0.475 0.598,0.507 0.598,0.542 0.599,0.58 0.599,0.621 0.598,0.667 0.599,0.717 0.598,0.771 0.598,0.831 0.599,0.898 0.599,0.971 0.598,1.053 0.598,1.141 0.599,1.241 0.599,1.351 0.598,1.474 0.598,1.608 0.599,1.76 0.598,1.926 0.599,2.11 0.599,2.315 0.598,2.538 0.598,2.785 0.599,3.052 0.599,3.339 0.598,3.643 0.599,3.96 0.598,4.279 0.598,4.588 0.599,4.868 0.599,5.092 0.598,5.23 0.598,5.243 0.599,5.091 0.599,4.738 0.598,4.157 0.599,3.348 0.598,2.329 0.598,1.16 0.599,-0.083 0.599,-1.304 0.598,-2.415 0.598,-3.347 0.599,-4.056 0.599,-4.534 0.598,-4.794 0.598,-4.868 0.599,-4.794 0.598,-4.612 0.599,-4.355 0.599,-4.054 0.598,-3.733 0.598,-3.405 0.599,-3.084 0.599,-2.774 0.598,-2.482 0.598,-2.21 0.599,-1.956 0.598,-1.721 0.599,-1.504 0.599,-1.305 0.598,-1.119 0.599,-0.947 0.598,-0.786 0.599,-0.635 0.598,-0.493 0.599,-0.357 0.598,-0.226 0.598,-0.1 0.599,0.024 0.599,0.146 0.598,0.269 0.598,0.393 0.599,0.518 0.599,0.648 0.598,0.782 0.599,0.924 0.598,1.072 0.598,1.231 0.599,1.4 0.599,1.583 0.598,1.781 0.598,1.997 0.599,2.232 0.599,2.489 0.598,2.773 0.599,3.083 0.598,3.426 0.598,3.801 0.599,4.214 0.599,4.665 0.598,5.155 0.598,5.683 0.599,6.245 0.599,6.833 0.598,7.433 0.598,8.024 0.599,8.574 0.598,9.042 0.599,9.37 0.599,9.494 0.598,9.336 0.598,8.826 0.599,7.906 0.599,6.551 0.598,4.781 0.599,2.679 0.598,0.374 0.598,-1.961 0.599,-4.155 0.599,-6.06 0.598,-7.573 0.598,-8.656 0.599,-9.315 0.599,-9.601 0.598,-9.582 0.598,-9.33 0.599,-8.92 0.598,-8.405 0.599,-7.838 0.599,-7.25 0.598,-6.669 0.598,-6.108 0.599,-5.58 0.599,-5.088 0.598,-4.636 0.599,-4.222 0.598,-3.846 0.598,-3.507 0.599,-3.199 0.599,-2.922 0.598,-2.673 0.598,-2.447 0.599,-2.245 0.599,-2.062 0.598,-1.898 0.599,-1.748 0.598,-1.614 0.598,-1.492 0.599,-1.382 0.599,-1.281 0.598,-1.191 0.598,-1.108 0.599,-1.032 0.599,-0.964 0.598,-0.9 0.599,-0.843 0.598,-0.789 0.598,-0.741 0.599,-0.696 0.599,-0.654 0.598,-0.616 0.599,-0.58 0.598,-0.547 0.599,-0.517 0.598,-0.488 1.197,-0.9 0.598,-0.414 0.599,-0.394 0.599,-0.374 0.598,-0.355 0.598,-0.337 0.599,-0.322 0.599,-0.306 0.598,-0.292 0.599,-0.279 0.598,-0.266 0.598,-0.254 0.599,-0.243 1.197,-0.456 0.598,-0.213 0.599,-0.204 0.599,-0.197 0.598,-0.188 0.599,-0.181 0.598,-0.174 0.598,-0.167 0.599,-0.16 1.197,-0.304 0.598,-0.143 0.599,-0.138 0.599,-0.134 0.598,-0.128 0.599,-0.124 0.598,-0.12 0.598,-0.116 0.599,-0.112 1.197,-0.212 0.598,-0.102 0.599,-0.098 0.599,-0.094 1.197,-0.181 0.598,-0.086 0.598,-0.084 0.599,-0.081 1.197,-0.155 0.598,-0.074 0.599,-0.072 0.599,-0.07 1.197,-0.134 0.598,-0.064 0.598,-0.063 0.599,-0.06 0.599,-0.059 0.598,-0.058 0.598,-0.056 0.599,-0.055 0.599,-0.053 1.196,-0.102 0.599,-0.049 0.598,-0.048 0.599,-0.047 1.197,-0.09 0.598,-0.043 0.599,-0.042 0.599,-0.042 0.598,-0.04 0.598,-0.04 0.599,-0.038 0.598,-0.038 0.599,-0.036 1.197,-0.072 0.598,-0.034 0.599,-0.033 0.599,-0.033 1.197,-0.064 0.598,-0.031 0.598,-0.03 0.599,-0.029 1.197,-0.057 0.598,-0.028 0.599,-0.027 0.599,-0.027 1.196,-0.051 0.599,-0.025 0.598,-0.025 0.599,-0.024 0.599,-0.023 0.598,-0.023 0.598,-0.023 0.599,-0.022 0.599,-0.022 1.196,-0.042 0.599,-0.021 0.598,-0.02 0.599,-0.02 1.197,-0.039 0.598,-0.018 0.599,-0.019 1.197,-0.036 0.598,-0.017 0.599,-0.017 0.598,-0.017 1.198,-0.033 0.598,-0.016 0.599,-0.016 0.598,-0.016 1.197,-0.03 0.599,-0.015 0.598,-0.014 0.598,-0.014 1.198,-0.028 0.598,-0.014 0.598,-0.013 0.599,-0.013 1.197,-0.026 0.599,-0.012 0.598,-0.013 0.598,-0.012 1.198,-0.024 0.598,-0.011 0.598,-0.012 0.599,-0.011 1.197,-0.022 0.599,-0.011 0.598,-0.01 0.598,-0.011 1.198,-0.02 0.598,-0.01 0.598,-0.01 0.599,-0.01 1.197,-0.019 0.599,-0.009 0.598,-0.009 0.598,-0.009 1.198,-0.018 h 0.598"
           style="fill:none;stroke:#00ff00;stroke-width:2;stroke-linecap:butt;stroke-linejoin:miter;stroke-miterlimit:10;stroke-dasharray:none;stroke-opacity:1"
           id="path42" /></g></g><g
       id="g44"><path
         d="m 11.25,61.641 v 1.371 H 5.566 l 0.153,-0.211 4.347,2.238 v 1.09 L 5.719,68.297 5.59,68.168 h 5.66 v 1.371 H 3.609 v -1.371 l 5.59,-2.848 v 0.668 l -5.59,-2.941 v -1.406 h 7.641 m 0.105,12.726 c 0,1.688 -1.148,2.824 -2.859,2.824 -1.641,0 -2.707,-1.043 -2.707,-2.648 0,-1.699 1.149,-2.824 2.871,-2.824 1.629,0 2.695,1.031 2.695,2.648 m -1.183,0.129 c 0,-0.832 -0.633,-1.359 -1.629,-1.359 -0.961,0 -1.57,0.492 -1.57,1.277 0,0.82 0.656,1.359 1.652,1.359 0.949,0 1.547,-0.492 1.547,-1.277 m 1.16,6.551 c 0,0.34 -0.082,0.726 -0.199,1.019 l -0.938,-0.293 c 0.035,-0.117 0.059,-0.234 0.059,-0.339 0,-0.329 -0.211,-0.504 -0.586,-0.504 H 3.117 v -1.383 h 6.727 c 0.926,0 1.488,0.562 1.488,1.5 M 11.25,86.66 v 0.996 H 8.027 c -1.441,0 -2.238,-0.82 -2.238,-2.402 0,-0.762 0.188,-1.582 0.516,-2.215 l 0.972,0.34 c -0.211,0.551 -0.328,1.09 -0.328,1.582 0,0.855 0.328,1.312 0.973,1.312 h 2.297 l 1.031,0.387 m 0.105,-1.875 c 0,1.184 -0.667,2.027 -1.828,2.297 L 9.316,86.625 c 0.575,-0.187 0.938,-0.727 0.938,-1.371 0,-0.539 -0.27,-0.902 -0.68,-0.902 -0.515,0 -0.726,0.609 -0.726,2.168 H 8.074 c 0,-2.485 0.516,-3.586 1.699,-3.586 0.961,0 1.582,0.726 1.582,1.851 m -0.105,5.262 v 1.406 H 7.57 L 5.895,91.16 v -1.113 h 5.355 m -3.047,1.137 c -0.656,0.293 -1.043,0.878 -1.043,1.535 0,0.222 0.047,0.48 0.117,0.679 l -1.289,0.329 c -0.093,-0.235 -0.14,-0.516 -0.14,-0.797 0,-0.703 0.375,-1.36 1.019,-1.746 H 8.203 M 11.25,97.5 v 1.512 l -6.914,2.25 v -0.317 l 6.914,2.239 v 1.57 l -7.641,-2.637 v -1.828 L 11.25,97.5 m -1.91,1.793 v 3.656 L 8.074,102.738 V 99.48 L 9.34,99.293 m 2.015,9.902 c 0,1.5 -1.136,2.508 -2.835,2.508 -1.641,0 -2.731,-0.949 -2.731,-2.355 0,-0.985 0.527,-1.7 1.418,-2.051 l 0.527,0.422 c -0.504,0.199 -0.761,0.644 -0.761,1.172 0,0.867 0.632,1.394 1.64,1.394 0.961,0 1.559,-0.48 1.559,-1.277 0,-0.563 -0.293,-1.02 -0.785,-1.254 l 0.715,-0.481 c 0.82,0.329 1.253,0.985 1.253,1.922 m -0.105,-2.648 v 0.891 l -0.973,0.468 h -7.16 v -1.359 h 8.133 m 0.105,9.258 c 0,1.465 -0.644,2.332 -1.71,2.332 -2.004,0 -1.336,-3.024 -2.239,-3.024 -0.316,0 -0.515,0.375 -0.515,1.032 0,0.445 0.082,0.972 0.222,1.464 l -1.043,0.293 c -0.187,-0.492 -0.281,-1.125 -0.281,-1.722 0,-1.535 0.621,-2.426 1.711,-2.426 1.992,0 1.242,2.988 2.215,2.988 0.34,0 0.551,-0.363 0.551,-0.961 0,-0.515 -0.141,-1.23 -0.364,-1.793 l 1.043,-0.316 c 0.258,0.621 0.41,1.394 0.41,2.133 m 0,6.562 c 0,1.688 -1.148,2.824 -2.859,2.824 -1.641,0 -2.707,-1.043 -2.707,-2.648 0,-1.699 1.149,-2.824 2.871,-2.824 1.629,0 2.695,1.031 2.695,2.648 m -1.183,0.129 c 0,-0.832 -0.633,-1.359 -1.629,-1.359 -0.961,0 -1.57,0.492 -1.57,1.277 0,0.82 0.656,1.359 1.652,1.359 0.949,0 1.547,-0.492 1.547,-1.277 m 1.078,5.051 v 1.406 H 7.57 L 5.895,128.66 v -1.113 h 5.355 m -3.047,1.137 c -0.656,0.293 -1.043,0.878 -1.043,1.535 0,0.222 0.047,0.48 0.117,0.679 l -1.289,0.329 c -0.093,-0.235 -0.14,-0.516 -0.14,-0.797 0,-0.703 0.375,-1.36 1.019,-1.746 h 1.336 m 3.152,6.796 c 0,1.442 -1.183,2.473 -2.859,2.473 -1.594,0 -2.707,-0.961 -2.707,-2.332 0,-0.844 0.434,-1.559 1.16,-1.957 l 0.645,0.352 c -0.387,0.281 -0.621,0.726 -0.621,1.207 0,0.808 0.632,1.312 1.629,1.312 0.96,0 1.57,-0.469 1.57,-1.242 0,-0.586 -0.352,-1.09 -0.902,-1.277 l 0.82,-0.399 c 0.808,0.305 1.265,0.985 1.265,1.863 m 2.286,-2.683 v 1.359 H 6.879 l -0.984,-0.41 v -0.949 h 7.746 m -2.309,9.621 c 0,0.363 -0.07,0.762 -0.187,1.102 l -1.008,-0.282 c 0.07,-0.152 0.105,-0.351 0.105,-0.515 0,-0.504 -0.293,-0.821 -0.762,-0.821 H 4.348 v -1.394 h 5.226 c 1.078,0 1.758,0.715 1.758,1.91 M 7.02,139.77 v 3.468 H 5.895 V 139.77 H 7.02 m 4.23,5.027 v 1.406 H 5.895 v -1.406 H 11.25 M 4.91,145.5 c 0,0.527 -0.34,0.867 -0.855,0.867 -0.539,0 -0.879,-0.34 -0.879,-0.867 0,-0.516 0.34,-0.855 0.879,-0.855 0.515,0 0.855,0.339 0.855,0.855 m 6.445,5.367 c 0,1.688 -1.148,2.824 -2.859,2.824 -1.641,0 -2.707,-1.043 -2.707,-2.648 0,-1.699 1.149,-2.824 2.871,-2.824 1.629,0 2.695,1.031 2.695,2.648 m -1.183,0.129 c 0,-0.832 -0.633,-1.359 -1.629,-1.359 -0.961,0 -1.57,0.492 -1.57,1.277 0,0.82 0.656,1.359 1.652,1.359 0.949,0 1.547,-0.492 1.547,-1.277 m 1.078,8.578 v 1.406 H 7.957 c -1.336,0 -2.145,-0.75 -2.145,-1.957 0,-0.773 0.34,-1.488 0.938,-1.98 l 0.855,0.199 c -0.375,0.363 -0.574,0.809 -0.574,1.301 0,0.68 0.387,1.031 1.114,1.031 h 3.105 m 0,-3.527 v 1.406 H 6.844 l -0.949,-0.398 v -1.008 h 5.355 m 2.086,11.883 -0.598,0.996 c -1.254,-0.821 -2.812,-1.242 -4.617,-1.242 -1.605,0 -3.082,0.398 -4.559,1.23 L 3,167.895 c 1.582,-1.043 3.375,-1.571 5.191,-1.571 1.993,0 3.704,0.539 5.145,1.606 m -2.086,3.211 v 4.711 H 9.996 V 172.57 H 3.609 v -1.429 h 7.641 m 0.105,7.347 c 0,0.574 -0.398,0.95 -0.937,0.95 -0.563,0 -0.961,-0.376 -0.961,-0.95 0,-0.562 0.398,-0.937 0.961,-0.937 0.539,0 0.937,0.375 0.937,0.937 m -0.105,10.805 v 1.406 H 7.957 c -1.336,0 -2.145,-0.738 -2.145,-1.945 0,-0.762 0.34,-1.477 0.938,-1.969 l 0.855,0.211 c -0.375,0.352 -0.574,0.785 -0.574,1.277 0,0.68 0.387,1.02 1.114,1.02 h 3.105 m 0,-6.996 v 1.406 H 6.844 l -0.949,-0.398 v -1.008 h 5.355 m 0,3.504 v 1.394 H 7.957 c -1.336,0 -2.145,-0.738 -2.145,-1.933 0,-0.774 0.34,-1.477 0.938,-1.969 l 0.855,0.199 c -0.375,0.352 -0.574,0.797 -0.574,1.278 0,0.679 0.387,1.031 1.114,1.031 h 3.105 m 0.105,10.066 c 0,1.688 -1.148,2.824 -2.859,2.824 -1.641,0 -2.707,-1.043 -2.707,-2.648 0,-1.699 1.149,-2.824 2.871,-2.824 1.629,0 2.695,1.031 2.695,2.648 m -1.183,0.129 c 0,-0.832 -0.633,-1.359 -1.629,-1.359 -0.961,0 -1.57,0.492 -1.57,1.277 0,0.82 0.656,1.359 1.652,1.359 0.949,0 1.547,-0.492 1.547,-1.277 m 1.16,6.551 c 0,0.34 -0.082,0.726 -0.199,1.019 l -0.938,-0.293 c 0.035,-0.117 0.059,-0.234 0.059,-0.339 0,-0.329 -0.211,-0.504 -0.586,-0.504 H 3.117 v -1.383 h 6.727 c 0.926,0 1.488,0.562 1.488,1.5"
         style="fill:#000000;fill-opacity:1;fill-rule:nonzero;stroke:none"
         id="path46" /></g><g
       id="g48"><path
         d="m 5.32,204.398 v 2.075 H 4.582 v -2.075 H 5.32 m 1.442,4.149 v 0.891 H 1.898 v -0.528 l 0.938,-1.851 0.633,0.339 -0.645,1.43 -0.281,-0.281 h 4.219"
         style="fill:#000000;fill-opacity:1;fill-rule:nonzero;stroke:none"
         id="path50" /></g><g
       id="g52"><path
         d="m 11.355,211.488 c 0,0.574 -0.398,0.95 -0.937,0.95 -0.563,0 -0.961,-0.376 -0.961,-0.95 0,-0.562 0.398,-0.937 0.961,-0.937 0.539,0 0.937,0.375 0.937,0.937 m 0,6.153 c 0,0.656 -0.14,1.265 -0.41,1.769 l -0.972,-0.316 c 0.164,-0.375 0.257,-0.785 0.257,-1.137 0,-0.996 -0.621,-1.559 -1.687,-1.559 -1.008,0 -1.57,0.504 -1.57,1.465 0,0.387 0.093,0.844 0.246,1.231 l -1.102,0.293 c -0.211,-0.457 -0.328,-1.02 -0.328,-1.571 0,-1.722 1.149,-2.847 2.906,-2.847 1.676,0 2.66,0.996 2.66,2.672 m -0.105,10.652 v 1.406 H 7.957 c -1.336,0 -2.145,-0.738 -2.145,-1.945 0,-0.762 0.34,-1.477 0.938,-1.969 l 0.855,0.211 c -0.375,0.352 -0.574,0.785 -0.574,1.277 0,0.68 0.387,1.02 1.114,1.02 h 3.105 m 0,-6.996 v 1.406 H 6.844 l -0.949,-0.398 v -1.008 h 5.355 m 0,3.504 v 1.394 H 7.957 c -1.336,0 -2.145,-0.738 -2.145,-1.933 0,-0.774 0.34,-1.477 0.938,-1.969 l 0.855,0.199 c -0.375,0.352 -0.574,0.797 -0.574,1.278 0,0.679 0.387,1.031 1.114,1.031 h 3.105"
         style="fill:#000000;fill-opacity:1;fill-rule:nonzero;stroke:none"
         id="path54" /></g><g
       id="g56"><path
         d="m 5.32,232.148 v 2.075 H 4.582 v -2.075 H 5.32 m 1.442,4.149 v 0.891 H 1.898 v -0.528 l 0.938,-1.851 0.633,0.339 -0.645,1.43 -0.281,-0.281 h 4.219"
         style="fill:#000000;fill-opacity:1;fill-rule:nonzero;stroke:none"
         id="path58" /></g><g
       id="g60"><path
         d="m 13.336,239.109 c -1.441,1.067 -3.152,1.606 -5.145,1.606 -1.816,0 -3.609,-0.527 -5.191,-1.57 l 0.562,-1.02 c 1.477,0.832 2.954,1.23 4.559,1.23 1.805,0 3.363,-0.421 4.617,-1.242 z"
         style="fill:#000000;fill-opacity:1;fill-rule:nonzero;stroke:none"
         id="path62" /></g><g
       id="g64"><path
         d="m 45.363,35.145 c 1.699,0 2.754,1.488 2.754,3.984 0,2.391 -1.019,3.867 -2.683,3.867 -1.723,0 -2.801,-1.5 -2.801,-3.984 0,-2.403 1.043,-3.867 2.73,-3.867 m 0.059,0.773 c -1.149,0 -1.863,1.207 -1.863,3.211 0,1.922 0.703,3.094 1.804,3.094 1.125,0 1.828,-1.219 1.828,-3.211 0,-1.922 -0.668,-3.094 -1.769,-3.094"
         style="fill:#000000;fill-opacity:1;fill-rule:nonzero;stroke:none"
         id="path66" /></g><g
       id="g68"><path
         d="m 31.934,80.145 c 1.699,0 2.847,0.96 2.847,2.46 0,1.43 -1.043,2.333 -2.754,2.333 -0.422,0 -0.843,-0.047 -1.23,-0.141 l 0.223,-0.281 0.128,2.589 h 3.27 v 0.786 h -4.102 l -0.187,-3.914 c 0.492,0.117 1.137,0.187 1.617,0.187 1.301,0 2.098,-0.598 2.098,-1.641 0,-0.984 -0.727,-1.582 -1.852,-1.582 -0.656,0 -1.383,0.188 -1.957,0.493 l -0.269,-0.727 c 0.679,-0.363 1.394,-0.562 2.168,-0.562 m 6.679,0 c 1.699,0 2.754,1.488 2.754,3.984 0,2.391 -1.019,3.867 -2.683,3.867 -1.723,0 -2.801,-1.5 -2.801,-3.984 0,-2.403 1.043,-3.867 2.73,-3.867 m 0.059,0.773 c -1.149,0 -1.863,1.207 -1.863,3.211 0,1.922 0.703,3.094 1.804,3.094 1.125,0 1.828,-1.219 1.828,-3.211 0,-1.922 -0.668,-3.094 -1.769,-3.094 m 6.691,-0.773 c 1.699,0 2.754,1.488 2.754,3.984 0,2.391 -1.019,3.867 -2.683,3.867 -1.723,0 -2.801,-1.5 -2.801,-3.984 0,-2.403 1.043,-3.867 2.73,-3.867 m 0.059,0.773 c -1.149,0 -1.863,1.207 -1.863,3.211 0,1.922 0.703,3.094 1.804,3.094 1.125,0 1.828,-1.219 1.828,-3.211 0,-1.922 -0.668,-3.094 -1.769,-3.094"
         style="fill:#000000;fill-opacity:1;fill-rule:nonzero;stroke:none"
         id="path70" /></g><g
       id="g72"><path
         d="m 24.199,125.191 h 0.879 v 7.7 h -0.527 l -2.719,-1.407 0.328,-0.632 2.332,1.113 -0.293,0.281 v -7.055 m 2.578,-1.851 h 0.797 c 0.387,0.949 0.598,2.133 0.598,3.222 h -0.949 c 0,-1.113 -0.164,-2.308 -0.446,-3.222 m 5.086,1.805 c 1.699,0 2.754,1.488 2.754,3.984 0,2.391 -1.019,3.867 -2.683,3.867 -1.723,0 -2.801,-1.5 -2.801,-3.984 0,-2.403 1.043,-3.867 2.73,-3.867 m 0.059,0.773 c -1.149,0 -1.863,1.207 -1.863,3.211 0,1.922 0.703,3.094 1.804,3.094 1.125,0 1.828,-1.219 1.828,-3.211 0,-1.922 -0.668,-3.094 -1.769,-3.094 m 6.691,-0.773 c 1.699,0 2.754,1.488 2.754,3.984 0,2.391 -1.019,3.867 -2.683,3.867 -1.723,0 -2.801,-1.5 -2.801,-3.984 0,-2.403 1.043,-3.867 2.73,-3.867 m 0.059,0.773 c -1.149,0 -1.863,1.207 -1.863,3.211 0,1.922 0.703,3.094 1.804,3.094 1.125,0 1.828,-1.219 1.828,-3.211 0,-1.922 -0.668,-3.094 -1.769,-3.094 m 6.691,-0.773 c 1.699,0 2.754,1.488 2.754,3.984 0,2.391 -1.019,3.867 -2.683,3.867 -1.723,0 -2.801,-1.5 -2.801,-3.984 0,-2.403 1.043,-3.867 2.73,-3.867 m 0.059,0.773 c -1.149,0 -1.863,1.207 -1.863,3.211 0,1.922 0.703,3.094 1.804,3.094 1.125,0 1.828,-1.219 1.828,-3.211 0,-1.922 -0.668,-3.094 -1.769,-3.094"
         style="fill:#000000;fill-opacity:1;fill-rule:nonzero;stroke:none"
         id="path74" /></g><g
       id="g76"><path
         d="m 24.949,170.191 h 0.879 v 7.7 h -0.527 l -2.719,-1.407 0.328,-0.632 2.332,1.113 -0.293,0.281 v -7.055 m 2.578,-1.851 h 0.797 c 0.387,0.949 0.598,2.133 0.598,3.222 h -0.949 c 0,-1.113 -0.164,-2.308 -0.446,-3.222 m 4.407,1.805 c 1.699,0 2.847,0.96 2.847,2.46 0,1.43 -1.043,2.333 -2.754,2.333 -0.422,0 -0.843,-0.047 -1.23,-0.141 l 0.223,-0.281 0.128,2.589 h 3.27 v 0.786 h -4.102 l -0.187,-3.914 c 0.492,0.117 1.137,0.187 1.617,0.187 1.301,0 2.098,-0.598 2.098,-1.641 0,-0.984 -0.727,-1.582 -1.852,-1.582 -0.656,0 -1.383,0.188 -1.957,0.493 l -0.269,-0.727 c 0.679,-0.363 1.394,-0.562 2.168,-0.562 m 6.679,0 c 1.699,0 2.754,1.488 2.754,3.984 0,2.391 -1.019,3.867 -2.683,3.867 -1.723,0 -2.801,-1.5 -2.801,-3.984 0,-2.403 1.043,-3.867 2.73,-3.867 m 0.059,0.773 c -1.149,0 -1.863,1.207 -1.863,3.211 0,1.922 0.703,3.094 1.804,3.094 1.125,0 1.828,-1.219 1.828,-3.211 0,-1.922 -0.668,-3.094 -1.769,-3.094 m 6.691,-0.773 c 1.699,0 2.754,1.488 2.754,3.984 0,2.391 -1.019,3.867 -2.683,3.867 -1.723,0 -2.801,-1.5 -2.801,-3.984 0,-2.403 1.043,-3.867 2.73,-3.867 m 0.059,0.773 c -1.149,0 -1.863,1.207 -1.863,3.211 0,1.922 0.703,3.094 1.804,3.094 1.125,0 1.828,-1.219 1.828,-3.211 0,-1.922 -0.668,-3.094 -1.769,-3.094"
         style="fill:#000000;fill-opacity:1;fill-rule:nonzero;stroke:none"
         id="path78" /></g><g
       id="g80"><path
         d="m 20.754,215.25 h 4.851 v 0.797 h -3.914 l 0.118,-0.27 c 2.613,2.461 3.492,3.739 3.492,5.063 0,1.348 -0.914,2.156 -2.321,2.156 -0.914,0 -1.781,-0.328 -2.343,-0.867 l 0.246,-0.633 c 0.586,0.469 1.312,0.703 1.91,0.703 0.984,0 1.582,-0.586 1.582,-1.5 0,-1.113 -0.891,-2.261 -3.621,-4.84 v -0.609 m 6.023,-1.91 h 0.797 c 0.387,0.949 0.598,2.133 0.598,3.222 h -0.949 c 0,-1.113 -0.164,-2.308 -0.446,-3.222 m 5.086,1.805 c 1.699,0 2.754,1.488 2.754,3.984 0,2.391 -1.019,3.867 -2.683,3.867 -1.723,0 -2.801,-1.5 -2.801,-3.984 0,-2.403 1.043,-3.867 2.73,-3.867 m 0.059,0.773 c -1.149,0 -1.863,1.207 -1.863,3.211 0,1.922 0.703,3.094 1.804,3.094 1.125,0 1.828,-1.219 1.828,-3.211 0,-1.922 -0.668,-3.094 -1.769,-3.094 m 6.691,-0.773 c 1.699,0 2.754,1.488 2.754,3.984 0,2.391 -1.019,3.867 -2.683,3.867 -1.723,0 -2.801,-1.5 -2.801,-3.984 0,-2.403 1.043,-3.867 2.73,-3.867 m 0.059,0.773 c -1.149,0 -1.863,1.207 -1.863,3.211 0,1.922 0.703,3.094 1.804,3.094 1.125,0 1.828,-1.219 1.828,-3.211 0,-1.922 -0.668,-3.094 -1.769,-3.094 m 6.691,-0.773 c 1.699,0 2.754,1.488 2.754,3.984 0,2.391 -1.019,3.867 -2.683,3.867 -1.723,0 -2.801,-1.5 -2.801,-3.984 0,-2.403 1.043,-3.867 2.73,-3.867 m 0.059,0.773 c -1.149,0 -1.863,1.207 -1.863,3.211 0,1.922 0.703,3.094 1.804,3.094 1.125,0 1.828,-1.219 1.828,-3.211 0,-1.922 -0.668,-3.094 -1.769,-3.094"
         style="fill:#000000;fill-opacity:1;fill-rule:nonzero;stroke:none"
         id="path82" /></g><g
       id="g84"><path
         d="m 21.504,260.25 h 4.851 v 0.797 h -3.914 l 0.118,-0.27 c 2.613,2.461 3.492,3.739 3.492,5.063 0,1.348 -0.914,2.156 -2.321,2.156 -0.914,0 -1.781,-0.328 -2.343,-0.867 l 0.246,-0.633 c 0.586,0.469 1.312,0.703 1.91,0.703 0.984,0 1.582,-0.586 1.582,-1.5 0,-1.113 -0.891,-2.261 -3.621,-4.84 v -0.609 m 6.023,-1.91 h 0.797 c 0.387,0.949 0.598,2.133 0.598,3.222 h -0.949 c 0,-1.113 -0.164,-2.308 -0.446,-3.222 m 4.407,1.805 c 1.699,0 2.847,0.96 2.847,2.46 0,1.43 -1.043,2.333 -2.754,2.333 -0.422,0 -0.843,-0.047 -1.23,-0.141 l 0.223,-0.281 0.128,2.589 h 3.27 v 0.786 h -4.102 l -0.187,-3.914 c 0.492,0.117 1.137,0.187 1.617,0.187 1.301,0 2.098,-0.598 2.098,-1.641 0,-0.984 -0.727,-1.582 -1.852,-1.582 -0.656,0 -1.383,0.188 -1.957,0.493 l -0.269,-0.727 c 0.679,-0.363 1.394,-0.562 2.168,-0.562 m 6.679,0 c 1.699,0 2.754,1.488 2.754,3.984 0,2.391 -1.019,3.867 -2.683,3.867 -1.723,0 -2.801,-1.5 -2.801,-3.984 0,-2.403 1.043,-3.867 2.73,-3.867 m 0.059,0.773 c -1.149,0 -1.863,1.207 -1.863,3.211 0,1.922 0.703,3.094 1.804,3.094 1.125,0 1.828,-1.219 1.828,-3.211 0,-1.922 -0.668,-3.094 -1.769,-3.094 m 6.691,-0.773 c 1.699,0 2.754,1.488 2.754,3.984 0,2.391 -1.019,3.867 -2.683,3.867 -1.723,0 -2.801,-1.5 -2.801,-3.984 0,-2.403 1.043,-3.867 2.73,-3.867 m 0.059,0.773 c -1.149,0 -1.863,1.207 -1.863,3.211 0,1.922 0.703,3.094 1.804,3.094 1.125,0 1.828,-1.219 1.828,-3.211 0,-1.922 -0.668,-3.094 -1.769,-3.094"
         style="fill:#000000;fill-opacity:1;fill-rule:nonzero;stroke:none"
         id="path86" /></g><g
       id="g88"><path
         d="m 52.5,84 h 0.75"
         style="fill:none;stroke:#000000;stroke-width:1;stroke-linecap:square;stroke-linejoin:bevel;stroke-miterlimit:10;stroke-dasharray:none;stroke-opacity:1"
         id="path90" /></g><g
       id="g92"><path
         d="m 52.5,129 h 0.75"
         style="fill:none;stroke:#000000;stroke-width:1;stroke-linecap:square;stroke-linejoin:bevel;stroke-miterlimit:10;stroke-dasharray:none;stroke-opacity:1"
         id="path94" /></g><g
       id="g96"><path
         d="m 52.5,174 h 0.75"
         style="fill:none;stroke:#000000;stroke-width:1;stroke-linecap:square;stroke-linejoin:bevel;stroke-miterlimit:10;stroke-dasharray:none;stroke-opacity:1"
         id="path98" /></g><g
       id="g100"><path
         d="m 52.5,219 h 0.75"
         style="fill:none;stroke:#000000;stroke-width:1;stroke-linecap:square;stroke-linejoin:bevel;stroke-miterlimit:10;stroke-dasharray:none;stroke-opacity:1"
         id="path102" /></g><g
       id="g104"><path
         d="M 52.5,264 V 39"
         style="fill:none;stroke:#000000;stroke-width:1;stroke-linecap:square;stroke-linejoin:bevel;stroke-miterlimit:10;stroke-dasharray:none;stroke-opacity:1"
         id="path106" /></g><g
       id="g108"><path
         d="m 52.5,84 h 6.75"
         style="fill:none;stroke:#000000;stroke-width:1;stroke-linecap:square;stroke-linejoin:bevel;stroke-miterlimit:10;stroke-dasharray:none;stroke-opacity:1"
         id="path110" /></g><g
       id="g112"><path
         d="m 52.5,129 h 6.75"
         style="fill:none;stroke:#000000;stroke-width:1;stroke-linecap:square;stroke-linejoin:bevel;stroke-miterlimit:10;stroke-dasharray:none;stroke-opacity:1"
         id="path114" /></g><g
       id="g116"><path
         d="m 52.5,174 h 6.75"
         style="fill:none;stroke:#000000;stroke-width:1;stroke-linecap:square;stroke-linejoin:bevel;stroke-miterlimit:10;stroke-dasharray:none;stroke-opacity:1"
         id="path118" /></g><g
       id="g120"><path
         d="m 52.5,219 h 6.75"
         style="fill:none;stroke:#000000;stroke-width:1;stroke-linecap:square;stroke-linejoin:bevel;stroke-miterlimit:10;stroke-dasharray:none;stroke-opacity:1"
         id="path122" /></g><g
       id="g124"><path
         d="m 52.5,48 h 3.75"
         style="fill:none;stroke:#000000;stroke-width:1;stroke-linecap:square;stroke-linejoin:bevel;stroke-miterlimit:10;stroke-dasharray:none;stroke-opacity:1"
         id="path126" /></g><g
       id="g128"><path
         d="m 52.5,57 h 3.75"
         style="fill:none;stroke:#000000;stroke-width:1;stroke-linecap:square;stroke-linejoin:bevel;stroke-miterlimit:10;stroke-dasharray:none;stroke-opacity:1"
         id="path130" /></g><g
       id="g132"><path
         d="m 52.5,66 h 3.75"
         style="fill:none;stroke:#000000;stroke-width:1;stroke-linecap:square;stroke-linejoin:bevel;stroke-miterlimit:10;stroke-dasharray:none;stroke-opacity:1"
         id="path134" /></g><g
       id="g136"><path
         d="m 52.5,75 h 3.75"
         style="fill:none;stroke:#000000;stroke-width:1;stroke-linecap:square;stroke-linejoin:bevel;stroke-miterlimit:10;stroke-dasharray:none;stroke-opacity:1"
         id="path138" /></g><g
       id="g140"><path
         d="m 52.5,93 h 3.75"
         style="fill:none;stroke:#000000;stroke-width:1;stroke-linecap:square;stroke-linejoin:bevel;stroke-miterlimit:10;stroke-dasharray:none;stroke-opacity:1"
         id="path142" /></g><g
       id="g144"><path
         d="m 52.5,102 h 3.75"
         style="fill:none;stroke:#000000;stroke-width:1;stroke-linecap:square;stroke-linejoin:bevel;stroke-miterlimit:10;stroke-dasharray:none;stroke-opacity:1"
         id="path146" /></g><g
       id="g148"><path
         d="m 52.5,111 h 3.75"
         style="fill:none;stroke:#000000;stroke-width:1;stroke-linecap:square;stroke-linejoin:bevel;stroke-miterlimit:10;stroke-dasharray:none;stroke-opacity:1"
         id="path150" /></g><g
       id="g152"><path
         d="m 52.5,120 h 3.75"
         style="fill:none;stroke:#000000;stroke-width:1;stroke-linecap:square;stroke-linejoin:bevel;stroke-miterlimit:10;stroke-dasharray:none;stroke-opacity:1"
         id="path154" /></g><g
       id="g156"><path
         d="m 52.5,138 h 3.75"
         style="fill:none;stroke:#000000;stroke-width:1;stroke-linecap:square;stroke-linejoin:bevel;stroke-miterlimit:10;stroke-dasharray:none;stroke-opacity:1"
         id="path158" /></g><g
       id="g160"><path
         d="m 52.5,147 h 3.75"
         style="fill:none;stroke:#000000;stroke-width:1;stroke-linecap:square;stroke-linejoin:bevel;stroke-miterlimit:10;stroke-dasharray:none;stroke-opacity:1"
         id="path162" /></g><g
       id="g164"><path
         d="m 52.5,156 h 3.75"
         style="fill:none;stroke:#000000;stroke-width:1;stroke-linecap:square;stroke-linejoin:bevel;stroke-miterlimit:10;stroke-dasharray:none;stroke-opacity:1"
         id="path166" /></g><g
       id="g168"><path
         d="m 52.5,165 h 3.75"
         style="fill:none;stroke:#000000;stroke-width:1;stroke-linecap:square;stroke-linejoin:bevel;stroke-miterlimit:10;stroke-dasharray:none;stroke-opacity:1"
         id="path170" /></g><g
       id="g172"><path
         d="m 52.5,183 h 3.75"
         style="fill:none;stroke:#000000;stroke-width:1;stroke-linecap:square;stroke-linejoin:bevel;stroke-miterlimit:10;stroke-dasharray:none;stroke-opacity:1"
         id="path174" /></g><g
       id="g176"><path
         d="m 52.5,192 h 3.75"
         style="fill:none;stroke:#000000;stroke-width:1;stroke-linecap:square;stroke-linejoin:bevel;stroke-miterlimit:10;stroke-dasharray:none;stroke-opacity:1"
         id="path178" /></g><g
       id="g180"><path
         d="m 52.5,201 h 3.75"
         style="fill:none;stroke:#000000;stroke-width:1;stroke-linecap:square;stroke-linejoin:bevel;stroke-miterlimit:10;stroke-dasharray:none;stroke-opacity:1"
         id="path182" /></g><g
       id="g184"><path
         d="m 52.5,210 h 3.75"
         style="fill:none;stroke:#000000;stroke-width:1;stroke-linecap:square;stroke-linejoin:bevel;stroke-miterlimit:10;stroke-dasharray:none;stroke-opacity:1"
         id="path186" /></g><g
       id="g188"><path
         d="m 52.5,228 h 3.75"
         style="fill:none;stroke:#000000;stroke-width:1;stroke-linecap:square;stroke-linejoin:bevel;stroke-miterlimit:10;stroke-dasharray:none;stroke-opacity:1"
         id="path190" /></g><g
       id="g192"><path
         d="m 52.5,237 h 3.75"
         style="fill:none;stroke:#000000;stroke-width:1;stroke-linecap:square;stroke-linejoin:bevel;stroke-miterlimit:10;stroke-dasharray:none;stroke-opacity:1"
         id="path194" /></g><g
       id="g196"><path
         d="m 52.5,246 h 3.75"
         style="fill:none;stroke:#000000;stroke-width:1;stroke-linecap:square;stroke-linejoin:bevel;stroke-miterlimit:10;stroke-dasharray:none;stroke-opacity:1"
         id="path198" /></g><g
       id="g200"><path
         d="m 52.5,255 h 3.75"
         style="fill:none;stroke:#000000;stroke-width:1;stroke-linecap:square;stroke-linejoin:bevel;stroke-miterlimit:10;stroke-dasharray:none;stroke-opacity:1"
         id="path202" /></g><g
       id="g204"><path
         d="M 351.75,84 H 351"
         style="fill:none;stroke:#000000;stroke-width:1;stroke-linecap:square;stroke-linejoin:bevel;stroke-miterlimit:10;stroke-dasharray:none;stroke-opacity:1"
         id="path206" /></g><g
       id="g208"><path
         d="M 351.75,129 H 351"
         style="fill:none;stroke:#000000;stroke-width:1;stroke-linecap:square;stroke-linejoin:bevel;stroke-miterlimit:10;stroke-dasharray:none;stroke-opacity:1"
         id="path210" /></g><g
       id="g212"><path
         d="M 351.75,174 H 351"
         style="fill:none;stroke:#000000;stroke-width:1;stroke-linecap:square;stroke-linejoin:bevel;stroke-miterlimit:10;stroke-dasharray:none;stroke-opacity:1"
         id="path214" /></g><g
       id="g216"><path
         d="M 351.75,219 H 351"
         style="fill:none;stroke:#000000;stroke-width:1;stroke-linecap:square;stroke-linejoin:bevel;stroke-miterlimit:10;stroke-dasharray:none;stroke-opacity:1"
         id="path218" /></g><g
       id="g220"><path
         d="M 351.75,264 V 39"
         style="fill:none;stroke:#000000;stroke-width:1;stroke-linecap:square;stroke-linejoin:bevel;stroke-miterlimit:10;stroke-dasharray:none;stroke-opacity:1"
         id="path222" /></g><g
       id="g224"><path
         d="M 351.75,84 H 345"
         style="fill:none;stroke:#000000;stroke-width:1;stroke-linecap:square;stroke-linejoin:bevel;stroke-miterlimit:10;stroke-dasharray:none;stroke-opacity:1"
         id="path226" /></g><g
       id="g228"><path
         d="M 351.75,129 H 345"
         style="fill:none;stroke:#000000;stroke-width:1;stroke-linecap:square;stroke-linejoin:bevel;stroke-miterlimit:10;stroke-dasharray:none;stroke-opacity:1"
         id="path230" /></g><g
       id="g232"><path
         d="M 351.75,174 H 345"
         style="fill:none;stroke:#000000;stroke-width:1;stroke-linecap:square;stroke-linejoin:bevel;stroke-miterlimit:10;stroke-dasharray:none;stroke-opacity:1"
         id="path234" /></g><g
       id="g236"><path
         d="M 351.75,219 H 345"
         style="fill:none;stroke:#000000;stroke-width:1;stroke-linecap:square;stroke-linejoin:bevel;stroke-miterlimit:10;stroke-dasharray:none;stroke-opacity:1"
         id="path238" /></g><g
       id="g240"><path
         d="M 351.75,48 H 348"
         style="fill:none;stroke:#000000;stroke-width:1;stroke-linecap:square;stroke-linejoin:bevel;stroke-miterlimit:10;stroke-dasharray:none;stroke-opacity:1"
         id="path242" /></g><g
       id="g244"><path
         d="M 351.75,57 H 348"
         style="fill:none;stroke:#000000;stroke-width:1;stroke-linecap:square;stroke-linejoin:bevel;stroke-miterlimit:10;stroke-dasharray:none;stroke-opacity:1"
         id="path246" /></g><g
       id="g248"><path
         d="M 351.75,66 H 348"
         style="fill:none;stroke:#000000;stroke-width:1;stroke-linecap:square;stroke-linejoin:bevel;stroke-miterlimit:10;stroke-dasharray:none;stroke-opacity:1"
         id="path250" /></g><g
       id="g252"><path
         d="M 351.75,75 H 348"
         style="fill:none;stroke:#000000;stroke-width:1;stroke-linecap:square;stroke-linejoin:bevel;stroke-miterlimit:10;stroke-dasharray:none;stroke-opacity:1"
         id="path254" /></g><g
       id="g256"><path
         d="M 351.75,93 H 348"
         style="fill:none;stroke:#000000;stroke-width:1;stroke-linecap:square;stroke-linejoin:bevel;stroke-miterlimit:10;stroke-dasharray:none;stroke-opacity:1"
         id="path258" /></g><g
       id="g260"><path
         d="M 351.75,102 H 348"
         style="fill:none;stroke:#000000;stroke-width:1;stroke-linecap:square;stroke-linejoin:bevel;stroke-miterlimit:10;stroke-dasharray:none;stroke-opacity:1"
         id="path262" /></g><g
       id="g264"><path
         d="M 351.75,111 H 348"
         style="fill:none;stroke:#000000;stroke-width:1;stroke-linecap:square;stroke-linejoin:bevel;stroke-miterlimit:10;stroke-dasharray:none;stroke-opacity:1"
         id="path266" /></g><g
       id="g268"><path
         d="M 351.75,120 H 348"
         style="fill:none;stroke:#000000;stroke-width:1;stroke-linecap:square;stroke-linejoin:bevel;stroke-miterlimit:10;stroke-dasharray:none;stroke-opacity:1"
         id="path270" /></g><g
       id="g272"><path
         d="M 351.75,138 H 348"
         style="fill:none;stroke:#000000;stroke-width:1;stroke-linecap:square;stroke-linejoin:bevel;stroke-miterlimit:10;stroke-dasharray:none;stroke-opacity:1"
         id="path274" /></g><g
       id="g276"><path
         d="M 351.75,147 H 348"
         style="fill:none;stroke:#000000;stroke-width:1;stroke-linecap:square;stroke-linejoin:bevel;stroke-miterlimit:10;stroke-dasharray:none;stroke-opacity:1"
         id="path278" /></g><g
       id="g280"><path
         d="M 351.75,156 H 348"
         style="fill:none;stroke:#000000;stroke-width:1;stroke-linecap:square;stroke-linejoin:bevel;stroke-miterlimit:10;stroke-dasharray:none;stroke-opacity:1"
         id="path282" /></g><g
       id="g284"><path
         d="M 351.75,165 H 348"
         style="fill:none;stroke:#000000;stroke-width:1;stroke-linecap:square;stroke-linejoin:bevel;stroke-miterlimit:10;stroke-dasharray:none;stroke-opacity:1"
         id="path286" /></g><g
       id="g288"><path
         d="M 351.75,183 H 348"
         style="fill:none;stroke:#000000;stroke-width:1;stroke-linecap:square;stroke-linejoin:bevel;stroke-miterlimit:10;stroke-dasharray:none;stroke-opacity:1"
         id="path290" /></g><g
       id="g292"><path
         d="M 351.75,192 H 348"
         style="fill:none;stroke:#000000;stroke-width:1;stroke-linecap:square;stroke-linejoin:bevel;stroke-miterlimit:10;stroke-dasharray:none;stroke-opacity:1"
         id="path294" /></g><g
       id="g296"><path
         d="M 351.75,201 H 348"
         style="fill:none;stroke:#000000;stroke-width:1;stroke-linecap:square;stroke-linejoin:bevel;stroke-miterlimit:10;stroke-dasharray:none;stroke-opacity:1"
         id="path298" /></g><g
       id="g300"><path
         d="M 351.75,210 H 348"
         style="fill:none;stroke:#000000;stroke-width:1;stroke-linecap:square;stroke-linejoin:bevel;stroke-miterlimit:10;stroke-dasharray:none;stroke-opacity:1"
         id="path302" /></g><g
       id="g304"><path
         d="M 351.75,228 H 348"
         style="fill:none;stroke:#000000;stroke-width:1;stroke-linecap:square;stroke-linejoin:bevel;stroke-miterlimit:10;stroke-dasharray:none;stroke-opacity:1"
         id="path306" /></g><g
       id="g308"><path
         d="M 351.75,237 H 348"
         style="fill:none;stroke:#000000;stroke-width:1;stroke-linecap:square;stroke-linejoin:bevel;stroke-miterlimit:10;stroke-dasharray:none;stroke-opacity:1"
         id="path310" /></g><g
       id="g312"><path
         d="M 351.75,246 H 348"
         style="fill:none;stroke:#000000;stroke-width:1;stroke-linecap:square;stroke-linejoin:bevel;stroke-miterlimit:10;stroke-dasharray:none;stroke-opacity:1"
         id="path314" /></g><g
       id="g316"><path
         d="M 351.75,255 H 348"
         style="fill:none;stroke:#000000;stroke-width:1;stroke-linecap:square;stroke-linejoin:bevel;stroke-miterlimit:10;stroke-dasharray:none;stroke-opacity:1"
         id="path318" /></g><g
       id="g320"><path
         d="m 147.797,3 h 1.512 l 1.992,6.902 h -0.68 L 152.766,3 h 1.476 l 2.227,7.641 h -1.43 l -1.805,-6.95 0.621,0.129 -2.027,6.774 h -1.558 l -1.922,-6.797 h 0.504 l -1.688,6.844 h -1.617 L 147.797,3 m 13.863,0 h 0.996 v 3.223 c 0,1.441 -0.82,2.238 -2.402,2.238 -0.762,0 -1.582,-0.188 -2.215,-0.516 l 0.34,-0.972 c 0.551,0.211 1.09,0.328 1.582,0.328 0.855,0 1.312,-0.328 1.312,-0.973 V 4.031 L 161.66,3 m -1.875,-0.105 c 1.184,0 2.027,0.667 2.297,1.828 l -0.457,0.211 c -0.187,-0.575 -0.727,-0.938 -1.371,-0.938 -0.539,0 -0.902,0.27 -0.902,0.68 0,0.515 0.609,0.726 2.168,0.726 v 0.774 c -2.485,0 -3.586,-0.516 -3.586,-1.699 0,-0.961 0.726,-1.582 1.851,-1.582 M 166.371,3 h 1.395 l 2.074,5.355 h -1.406 l -1.524,-4.57 h 0.363 l -1.441,4.57 h -1.547 L 166.371,3 m 8.039,-0.105 c 0.633,0 1.313,0.128 1.887,0.375 l -0.305,0.96 c -0.433,-0.175 -0.902,-0.269 -1.359,-0.269 -1.149,0 -1.77,0.644 -1.77,1.887 0,0.996 0.41,1.535 1.16,1.535 0.704,0 1.102,-0.445 1.102,-1.231 h -2.449 V 5.285 h 3.715 c 0.035,0.223 0.058,0.551 0.058,0.809 0,1.453 -0.89,2.367 -2.32,2.367 -1.594,0 -2.66,-1.137 -2.66,-2.801 0,-1.722 1.113,-2.765 2.941,-2.765 M 182.824,3 h 1.406 v 3.293 c 0,1.336 -0.75,2.145 -1.957,2.145 -0.773,0 -1.488,-0.34 -1.98,-0.938 l 0.199,-0.855 c 0.363,0.375 0.809,0.574 1.301,0.574 0.68,0 1.031,-0.387 1.031,-1.114 V 3 m -3.527,0 h 1.406 v 4.406 l -0.398,0.949 h -1.008 V 3 m 9.269,-0.094 c 0.739,0 1.442,0.34 1.934,0.949 l -0.211,0.856 c -0.328,-0.363 -0.762,-0.574 -1.207,-0.574 -0.762,0 -0.984,0.574 -0.984,1.113 v 3.105 h -1.407 V 4.934 c 0,-1.231 0.762,-2.028 1.875,-2.028 M 190.488,3 h 1.008 V 8.355 H 190.09 V 3.938 L 190.488,3 m 10.055,0 h 1.406 v 3.293 c 0,1.336 -0.738,2.145 -1.945,2.145 -0.762,0 -1.477,-0.34 -1.969,-0.938 l 0.211,-0.855 c 0.352,0.375 0.785,0.574 1.277,0.574 0.68,0 1.02,-0.387 1.02,-1.114 V 3 m -6.996,0 h 1.406 v 4.406 l -0.398,0.949 h -1.008 V 3 m 3.504,0 h 1.394 v 3.293 c 0,1.336 -0.738,2.145 -1.933,2.145 -0.774,0 -1.477,-0.34 -1.969,-0.938 l 0.199,-0.855 c 0.352,0.375 0.797,0.574 1.278,0.574 0.679,0 1.031,-0.387 1.031,-1.114 V 3 m 10.394,-0.105 c 1.5,0 2.508,1.136 2.508,2.835 0,1.641 -0.949,2.731 -2.355,2.731 -0.985,0 -1.7,-0.527 -2.051,-1.418 l 0.422,-0.527 c 0.199,0.504 0.644,0.761 1.172,0.761 0.867,0 1.394,-0.632 1.394,-1.64 0,-0.961 -0.48,-1.559 -1.277,-1.559 -0.563,0 -1.02,0.293 -1.254,0.785 l -0.481,-0.715 c 0.329,-0.82 0.985,-1.253 1.922,-1.253 M 204.797,3 h 0.891 l 0.468,0.973 v 7.16 h -1.359 V 3 M 214.91,2.895 c 0.633,0 1.313,0.128 1.887,0.375 l -0.305,0.96 c -0.433,-0.175 -0.902,-0.269 -1.359,-0.269 -1.149,0 -1.77,0.644 -1.77,1.887 0,0.996 0.41,1.535 1.16,1.535 0.704,0 1.102,-0.445 1.102,-1.231 h -2.449 V 5.285 h 3.715 c 0.035,0.223 0.058,0.551 0.058,0.809 0,1.453 -0.89,2.367 -2.32,2.367 -1.594,0 -2.66,-1.137 -2.66,-2.801 0,-1.722 1.113,-2.765 2.941,-2.765 M 219.797,3 h 1.406 v 3.68 l -0.293,1.675 h -1.113 V 3 m 1.137,3.047 c 0.293,0.656 0.878,1.043 1.535,1.043 0.222,0 0.48,-0.047 0.679,-0.117 l 0.329,1.289 c -0.235,0.093 -0.516,0.14 -0.797,0.14 -0.703,0 -1.36,-0.375 -1.746,-1.019 V 6.047 m 8.496,-5.133 0.996,0.598 c -0.821,1.254 -1.242,2.812 -1.242,4.617 0,1.605 0.398,3.082 1.23,4.559 l -1.019,0.562 c -1.043,-1.582 -1.571,-3.375 -1.571,-5.191 0,-1.993 0.539,-3.704 1.606,-5.145 m 5.461,1.981 c 0.656,0 1.265,0.14 1.769,0.41 l -0.316,0.972 c -0.375,-0.164 -0.785,-0.257 -1.137,-0.257 -0.996,0 -1.559,0.621 -1.559,1.687 0,1.008 0.504,1.57 1.465,1.57 0.387,0 0.844,-0.093 1.231,-0.246 l 0.293,1.102 c -0.457,0.211 -1.02,0.328 -1.571,0.328 -1.722,0 -2.847,-1.149 -2.847,-2.906 0,-1.676 0.996,-2.66 2.672,-2.66 M 245.543,3 h 1.406 v 3.293 c 0,1.336 -0.738,2.145 -1.945,2.145 -0.762,0 -1.477,-0.34 -1.969,-0.938 l 0.211,-0.855 c 0.352,0.375 0.785,0.574 1.277,0.574 0.68,0 1.02,-0.387 1.02,-1.114 V 3 m -6.996,0 h 1.406 v 4.406 l -0.398,0.949 h -1.008 V 3 m 3.504,0 h 1.394 v 3.293 c 0,1.336 -0.738,2.145 -1.933,2.145 -0.774,0 -1.477,-0.34 -1.969,-0.938 l 0.199,-0.855 c 0.352,0.375 0.797,0.574 1.278,0.574 0.679,0 1.031,-0.387 1.031,-1.114 V 3"
         style="fill:#000000;fill-opacity:1;fill-rule:nonzero;stroke:none"
         id="path322" /></g><g
       id="g324"><path
         d="m 249.398,8.93 h 2.075 v 0.738 h -2.075 V 8.93 m 4.149,-1.442 h 0.891 v 4.864 h -0.528 l -1.851,-0.938 0.339,-0.633 1.43,0.645 -0.281,0.281 V 7.488"
         style="fill:#000000;fill-opacity:1;fill-rule:nonzero;stroke:none"
         id="path326" /></g><g
       id="g328"><path
         d="m 256.359,0.914 c 1.067,1.441 1.606,3.152 1.606,5.145 0,1.816 -0.527,3.609 -1.57,5.191 l -1.02,-0.562 c 0.832,-1.477 1.23,-2.954 1.23,-4.559 0,-1.805 -0.421,-3.363 -1.242,-4.617 z"
         style="fill:#000000;fill-opacity:1;fill-rule:nonzero;stroke:none"
         id="path330" /></g><g
       id="g332"><path
         d="m 46.816,23.145 h 0.868 v 7.746 H 46.84 l -3.832,-5.368 v -0.468 h 6.047 v 0.75 h -5.18 l 0.07,-0.188 3.047,4.36 L 46.828,30 46.816,23.145 m 6.047,0 c 1.699,0 2.754,1.488 2.754,3.984 0,2.391 -1.019,3.867 -2.683,3.867 -1.723,0 -2.801,-1.5 -2.801,-3.984 0,-2.403 1.043,-3.867 2.73,-3.867 m 0.059,0.773 c -1.149,0 -1.863,1.207 -1.863,3.211 0,1.922 0.703,3.094 1.804,3.094 1.125,0 1.828,-1.219 1.828,-3.211 0,-1.922 -0.668,-3.094 -1.769,-3.094 m 6.691,-0.773 c 1.699,0 2.754,1.488 2.754,3.984 0,2.391 -1.019,3.867 -2.683,3.867 -1.723,0 -2.801,-1.5 -2.801,-3.984 0,-2.403 1.043,-3.867 2.73,-3.867 m 0.059,0.773 c -1.149,0 -1.863,1.207 -1.863,3.211 0,1.922 0.703,3.094 1.804,3.094 1.125,0 1.828,-1.219 1.828,-3.211 0,-1.922 -0.668,-3.094 -1.769,-3.094"
         style="fill:#000000;fill-opacity:1;fill-rule:nonzero;stroke:none"
         id="path334" /></g><g
       id="g336"><path
         d="m 106.816,23.145 h 0.868 v 7.746 h -0.844 l -3.832,-5.368 v -0.468 h 6.047 v 0.75 h -5.18 l 0.07,-0.188 3.047,4.36 -0.164,0.023 -0.012,-6.855 m 3.188,0.105 h 4.851 v 0.797 h -3.914 l 0.118,-0.27 c 2.613,2.461 3.492,3.739 3.492,5.063 0,1.348 -0.914,2.156 -2.321,2.156 -0.914,0 -1.781,-0.328 -2.343,-0.867 l 0.246,-0.633 c 0.586,0.469 1.312,0.703 1.91,0.703 0.984,0 1.582,-0.586 1.582,-1.5 0,-1.113 -0.891,-2.261 -3.621,-4.84 V 23.25 m 8.859,-0.105 c 1.699,0 2.754,1.488 2.754,3.984 0,2.391 -1.019,3.867 -2.683,3.867 -1.723,0 -2.801,-1.5 -2.801,-3.984 0,-2.403 1.043,-3.867 2.73,-3.867 m 0.059,0.773 c -1.149,0 -1.863,1.207 -1.863,3.211 0,1.922 0.703,3.094 1.804,3.094 1.125,0 1.828,-1.219 1.828,-3.211 0,-1.922 -0.668,-3.094 -1.769,-3.094"
         style="fill:#000000;fill-opacity:1;fill-rule:nonzero;stroke:none"
         id="path338" /></g><g
       id="g340"><path
         d="m 166.816,23.145 h 0.868 v 7.746 h -0.844 l -3.832,-5.368 v -0.468 h 6.047 v 0.75 h -5.18 l 0.07,-0.188 3.047,4.36 -0.164,0.023 -0.012,-6.855 m 6.75,0 h 0.868 v 7.746 h -0.844 l -3.832,-5.368 v -0.468 h 6.047 v 0.75 h -5.18 l 0.07,-0.188 3.047,4.36 -0.164,0.023 -0.012,-6.855 m 6.047,0 c 1.699,0 2.754,1.488 2.754,3.984 0,2.391 -1.019,3.867 -2.683,3.867 -1.723,0 -2.801,-1.5 -2.801,-3.984 0,-2.403 1.043,-3.867 2.73,-3.867 m 0.059,0.773 c -1.149,0 -1.863,1.207 -1.863,3.211 0,1.922 0.703,3.094 1.804,3.094 1.125,0 1.828,-1.219 1.828,-3.211 0,-1.922 -0.668,-3.094 -1.769,-3.094"
         style="fill:#000000;fill-opacity:1;fill-rule:nonzero;stroke:none"
         id="path342" /></g><g
       id="g344"><path
         d="m 226.066,23.145 h 0.868 v 7.746 h -0.844 l -3.832,-5.368 v -0.468 h 6.047 v 0.75 h -5.18 l 0.07,-0.188 3.047,4.36 -0.164,0.023 -0.012,-6.855 m 6.024,0 c 1.476,0 2.519,1.031 2.519,2.519 0,1.371 -0.902,2.285 -2.226,2.285 -1.149,0 -2.051,-0.668 -2.309,-1.734 l 0.188,-0.469 c 0.234,0.914 0.949,1.442 1.863,1.442 0.996,0 1.617,-0.633 1.617,-1.641 0,-0.961 -0.586,-1.617 -1.547,-1.617 -1.254,0 -1.922,1.054 -1.922,3.047 0,2.144 0.774,3.222 2.391,3.222 0.539,0 1.09,-0.129 1.582,-0.375 l 0.258,0.715 c -0.598,0.316 -1.172,0.457 -1.793,0.457 -2.109,0 -3.328,-1.547 -3.328,-4.148 0,-2.344 0.984,-3.703 2.707,-3.703 m 6.773,0 c 1.699,0 2.754,1.488 2.754,3.984 0,2.391 -1.019,3.867 -2.683,3.867 -1.723,0 -2.801,-1.5 -2.801,-3.984 0,-2.403 1.043,-3.867 2.73,-3.867 m 0.059,0.773 c -1.149,0 -1.863,1.207 -1.863,3.211 0,1.922 0.703,3.094 1.804,3.094 1.125,0 1.828,-1.219 1.828,-3.211 0,-1.922 -0.668,-3.094 -1.769,-3.094"
         style="fill:#000000;fill-opacity:1;fill-rule:nonzero;stroke:none"
         id="path346" /></g><g
       id="g348"><path
         d="m 286.066,23.145 h 0.868 v 7.746 h -0.844 l -3.832,-5.368 v -0.468 h 6.047 v 0.75 h -5.18 l 0.07,-0.188 3.047,4.36 -0.164,0.023 -0.012,-6.855 m 5.883,0 c 1.606,0 2.672,0.82 2.672,2.027 0,2.449 -4.148,1.98 -4.148,3.914 0,0.691 0.539,1.148 1.382,1.148 0.903,0 1.547,-0.504 1.547,-1.23 0,-0.703 -0.609,-1.301 -1.511,-1.488 l 0.679,-0.352 c 1.055,0.316 1.711,1.102 1.711,1.992 0,1.102 -0.961,1.84 -2.32,1.84 -1.418,0 -2.379,-0.808 -2.379,-1.992 0,-2.508 4.102,-1.922 4.102,-3.867 0,-0.739 -0.586,-1.207 -1.582,-1.207 -1.09,0 -1.864,0.539 -1.864,1.359 0,0.785 0.668,1.418 1.7,1.559 l -0.586,0.375 c -1.231,-0.164 -2.051,-1.02 -2.051,-2.063 0,-1.207 1.078,-2.015 2.648,-2.015 m 6.914,0 c 1.699,0 2.754,1.488 2.754,3.984 0,2.391 -1.019,3.867 -2.683,3.867 -1.723,0 -2.801,-1.5 -2.801,-3.984 0,-2.403 1.043,-3.867 2.73,-3.867 m 0.059,0.773 c -1.149,0 -1.863,1.207 -1.863,3.211 0,1.922 0.703,3.094 1.804,3.094 1.125,0 1.828,-1.219 1.828,-3.211 0,-1.922 -0.668,-3.094 -1.769,-3.094"
         style="fill:#000000;fill-opacity:1;fill-rule:nonzero;stroke:none"
         id="path350" /></g><g
       id="g352"><path
         d="m 344.684,23.145 c 1.699,0 2.847,0.96 2.847,2.46 0,1.43 -1.043,2.333 -2.754,2.333 -0.422,0 -0.843,-0.047 -1.23,-0.141 l 0.223,-0.281 0.128,2.589 h 3.27 v 0.786 h -4.102 l -0.187,-3.914 c 0.492,0.117 1.137,0.187 1.617,0.187 1.301,0 2.098,-0.598 2.098,-1.641 0,-0.984 -0.727,-1.582 -1.852,-1.582 -0.656,0 -1.383,0.188 -1.957,0.493 l -0.269,-0.727 c 0.679,-0.363 1.394,-0.562 2.168,-0.562 m 6.679,0 c 1.699,0 2.754,1.488 2.754,3.984 0,2.391 -1.019,3.867 -2.683,3.867 -1.723,0 -2.801,-1.5 -2.801,-3.984 0,-2.403 1.043,-3.867 2.73,-3.867 m 0.059,0.773 c -1.149,0 -1.863,1.207 -1.863,3.211 0,1.922 0.703,3.094 1.804,3.094 1.125,0 1.828,-1.219 1.828,-3.211 0,-1.922 -0.668,-3.094 -1.769,-3.094 m 6.691,-0.773 c 1.699,0 2.754,1.488 2.754,3.984 0,2.391 -1.019,3.867 -2.683,3.867 -1.723,0 -2.801,-1.5 -2.801,-3.984 0,-2.403 1.043,-3.867 2.73,-3.867 m 0.059,0.773 c -1.149,0 -1.863,1.207 -1.863,3.211 0,1.922 0.703,3.094 1.804,3.094 1.125,0 1.828,-1.219 1.828,-3.211 0,-1.922 -0.668,-3.094 -1.769,-3.094"
         style="fill:#000000;fill-opacity:1;fill-rule:nonzero;stroke:none"
         id="path354" /></g><g
       id="g356"><path
         d="m 112.35,39 v 0.75"
         style="fill:none;stroke:#000000;stroke-width:1;stroke-linecap:square;stroke-linejoin:bevel;stroke-miterlimit:10;stroke-dasharray:none;stroke-opacity:1"
         id="path358" /></g><g
       id="g360"><path
         d="m 172.2,39 v 0.75"
         style="fill:none;stroke:#000000;stroke-width:1;stroke-linecap:square;stroke-linejoin:bevel;stroke-miterlimit:10;stroke-dasharray:none;stroke-opacity:1"
         id="path362" /></g><g
       id="g364"><path
         d="m 232.05,39 v 0.75"
         style="fill:none;stroke:#000000;stroke-width:1;stroke-linecap:square;stroke-linejoin:bevel;stroke-miterlimit:10;stroke-dasharray:none;stroke-opacity:1"
         id="path366" /></g><g
       id="g368"><path
         d="m 291.9,39 v 0.75"
         style="fill:none;stroke:#000000;stroke-width:1;stroke-linecap:square;stroke-linejoin:bevel;stroke-miterlimit:10;stroke-dasharray:none;stroke-opacity:1"
         id="path370" /></g><g
       id="g372"><path
         d="M 52.5,39 H 351.75"
         style="fill:none;stroke:#000000;stroke-width:1;stroke-linecap:square;stroke-linejoin:bevel;stroke-miterlimit:10;stroke-dasharray:none;stroke-opacity:1"
         id="path374" /></g><g
       id="g376"><path
         d="m 112.35,39 v 6.75"
         style="fill:none;stroke:#000000;stroke-width:1;stroke-linecap:square;stroke-linejoin:bevel;stroke-miterlimit:10;stroke-dasharray:none;stroke-opacity:1"
         id="path378" /></g><g
       id="g380"><path
         d="m 172.2,39 v 6.75"
         style="fill:none;stroke:#000000;stroke-width:1;stroke-linecap:square;stroke-linejoin:bevel;stroke-miterlimit:10;stroke-dasharray:none;stroke-opacity:1"
         id="path382" /></g><g
       id="g384"><path
         d="m 232.05,39 v 6.75"
         style="fill:none;stroke:#000000;stroke-width:1;stroke-linecap:square;stroke-linejoin:bevel;stroke-miterlimit:10;stroke-dasharray:none;stroke-opacity:1"
         id="path386" /></g><g
       id="g388"><path
         d="m 291.9,39 v 6.75"
         style="fill:none;stroke:#000000;stroke-width:1;stroke-linecap:square;stroke-linejoin:bevel;stroke-miterlimit:10;stroke-dasharray:none;stroke-opacity:1"
         id="path390" /></g><g
       id="g392"><path
         d="m 64.47,39 v 3.75"
         style="fill:none;stroke:#000000;stroke-width:1;stroke-linecap:square;stroke-linejoin:bevel;stroke-miterlimit:10;stroke-dasharray:none;stroke-opacity:1"
         id="path394" /></g><g
       id="g396"><path
         d="m 76.44,39 v 3.75"
         style="fill:none;stroke:#000000;stroke-width:1;stroke-linecap:square;stroke-linejoin:bevel;stroke-miterlimit:10;stroke-dasharray:none;stroke-opacity:1"
         id="path398" /></g><g
       id="g400"><path
         d="m 88.41,39 v 3.75"
         style="fill:none;stroke:#000000;stroke-width:1;stroke-linecap:square;stroke-linejoin:bevel;stroke-miterlimit:10;stroke-dasharray:none;stroke-opacity:1"
         id="path402" /></g><g
       id="g404"><path
         d="m 100.38,39 v 3.75"
         style="fill:none;stroke:#000000;stroke-width:1;stroke-linecap:square;stroke-linejoin:bevel;stroke-miterlimit:10;stroke-dasharray:none;stroke-opacity:1"
         id="path406" /></g><g
       id="g408"><path
         d="m 124.32,39 v 3.75"
         style="fill:none;stroke:#000000;stroke-width:1;stroke-linecap:square;stroke-linejoin:bevel;stroke-miterlimit:10;stroke-dasharray:none;stroke-opacity:1"
         id="path410" /></g><g
       id="g412"><path
         d="m 136.29,39 v 3.75"
         style="fill:none;stroke:#000000;stroke-width:1;stroke-linecap:square;stroke-linejoin:bevel;stroke-miterlimit:10;stroke-dasharray:none;stroke-opacity:1"
         id="path414" /></g><g
       id="g416"><path
         d="m 148.26,39 v 3.75"
         style="fill:none;stroke:#000000;stroke-width:1;stroke-linecap:square;stroke-linejoin:bevel;stroke-miterlimit:10;stroke-dasharray:none;stroke-opacity:1"
         id="path418" /></g><g
       id="g420"><path
         d="m 160.23,39 v 3.75"
         style="fill:none;stroke:#000000;stroke-width:1;stroke-linecap:square;stroke-linejoin:bevel;stroke-miterlimit:10;stroke-dasharray:none;stroke-opacity:1"
         id="path422" /></g><g
       id="g424"><path
         d="m 184.17,39 v 3.75"
         style="fill:none;stroke:#000000;stroke-width:1;stroke-linecap:square;stroke-linejoin:bevel;stroke-miterlimit:10;stroke-dasharray:none;stroke-opacity:1"
         id="path426" /></g><g
       id="g428"><path
         d="m 196.14,39 v 3.75"
         style="fill:none;stroke:#000000;stroke-width:1;stroke-linecap:square;stroke-linejoin:bevel;stroke-miterlimit:10;stroke-dasharray:none;stroke-opacity:1"
         id="path430" /></g><g
       id="g432"><path
         d="m 208.11,39 v 3.75"
         style="fill:none;stroke:#000000;stroke-width:1;stroke-linecap:square;stroke-linejoin:bevel;stroke-miterlimit:10;stroke-dasharray:none;stroke-opacity:1"
         id="path434" /></g><g
       id="g436"><path
         d="m 220.08,39 v 3.75"
         style="fill:none;stroke:#000000;stroke-width:1;stroke-linecap:square;stroke-linejoin:bevel;stroke-miterlimit:10;stroke-dasharray:none;stroke-opacity:1"
         id="path438" /></g><g
       id="g440"><path
         d="m 244.02,39 v 3.75"
         style="fill:none;stroke:#000000;stroke-width:1;stroke-linecap:square;stroke-linejoin:bevel;stroke-miterlimit:10;stroke-dasharray:none;stroke-opacity:1"
         id="path442" /></g><g
       id="g444"><path
         d="m 255.99,39 v 3.75"
         style="fill:none;stroke:#000000;stroke-width:1;stroke-linecap:square;stroke-linejoin:bevel;stroke-miterlimit:10;stroke-dasharray:none;stroke-opacity:1"
         id="path446" /></g><g
       id="g448"><path
         d="m 267.96,39 v 3.75"
         style="fill:none;stroke:#000000;stroke-width:1;stroke-linecap:square;stroke-linejoin:bevel;stroke-miterlimit:10;stroke-dasharray:none;stroke-opacity:1"
         id="path450" /></g><g
       id="g452"><path
         d="m 279.93,39 v 3.75"
         style="fill:none;stroke:#000000;stroke-width:1;stroke-linecap:square;stroke-linejoin:bevel;stroke-miterlimit:10;stroke-dasharray:none;stroke-opacity:1"
         id="path454" /></g><g
       id="g456"><path
         d="m 303.87,39 v 3.75"
         style="fill:none;stroke:#000000;stroke-width:1;stroke-linecap:square;stroke-linejoin:bevel;stroke-miterlimit:10;stroke-dasharray:none;stroke-opacity:1"
         id="path458" /></g><g
       id="g460"><path
         d="m 315.84,39 v 3.75"
         style="fill:none;stroke:#000000;stroke-width:1;stroke-linecap:square;stroke-linejoin:bevel;stroke-miterlimit:10;stroke-dasharray:none;stroke-opacity:1"
         id="path462" /></g><g
       id="g464"><path
         d="m 327.81,39 v 3.75"
         style="fill:none;stroke:#000000;stroke-width:1;stroke-linecap:square;stroke-linejoin:bevel;stroke-miterlimit:10;stroke-dasharray:none;stroke-opacity:1"
         id="path466" /></g><g
       id="g468"><path
         d="m 339.78,39 v 3.75"
         style="fill:none;stroke:#000000;stroke-width:1;stroke-linecap:square;stroke-linejoin:bevel;stroke-miterlimit:10;stroke-dasharray:none;stroke-opacity:1"
         id="path470" /></g><g
       id="g472"><path
         d="m 112.35,264 v -0.75"
         style="fill:none;stroke:#000000;stroke-width:1;stroke-linecap:square;stroke-linejoin:bevel;stroke-miterlimit:10;stroke-dasharray:none;stroke-opacity:1"
         id="path474" /></g><g
       id="g476"><path
         d="m 172.2,264 v -0.75"
         style="fill:none;stroke:#000000;stroke-width:1;stroke-linecap:square;stroke-linejoin:bevel;stroke-miterlimit:10;stroke-dasharray:none;stroke-opacity:1"
         id="path478" /></g><g
       id="g480"><path
         d="m 232.05,264 v -0.75"
         style="fill:none;stroke:#000000;stroke-width:1;stroke-linecap:square;stroke-linejoin:bevel;stroke-miterlimit:10;stroke-dasharray:none;stroke-opacity:1"
         id="path482" /></g><g
       id="g484"><path
         d="m 291.9,264 v -0.75"
         style="fill:none;stroke:#000000;stroke-width:1;stroke-linecap:square;stroke-linejoin:bevel;stroke-miterlimit:10;stroke-dasharray:none;stroke-opacity:1"
         id="path486" /></g><g
       id="g488"><path
         d="M 52.5,264 H 351.75"
         style="fill:none;stroke:#000000;stroke-width:1;stroke-linecap:square;stroke-linejoin:bevel;stroke-miterlimit:10;stroke-dasharray:none;stroke-opacity:1"
         id="path490" /></g><g
       id="g492"><path
         d="m 112.35,264 v -6.75"
         style="fill:none;stroke:#000000;stroke-width:1;stroke-linecap:square;stroke-linejoin:bevel;stroke-miterlimit:10;stroke-dasharray:none;stroke-opacity:1"
         id="path494" /></g><g
       id="g496"><path
         d="m 172.2,264 v -6.75"
         style="fill:none;stroke:#000000;stroke-width:1;stroke-linecap:square;stroke-linejoin:bevel;stroke-miterlimit:10;stroke-dasharray:none;stroke-opacity:1"
         id="path498" /></g><g
       id="g500"><path
         d="m 232.05,264 v -6.75"
         style="fill:none;stroke:#000000;stroke-width:1;stroke-linecap:square;stroke-linejoin:bevel;stroke-miterlimit:10;stroke-dasharray:none;stroke-opacity:1"
         id="path502" /></g><g
       id="g504"><path
         d="m 291.9,264 v -6.75"
         style="fill:none;stroke:#000000;stroke-width:1;stroke-linecap:square;stroke-linejoin:bevel;stroke-miterlimit:10;stroke-dasharray:none;stroke-opacity:1"
         id="path506" /></g><g
       id="g508"><path
         d="m 64.47,264 v -3.75"
         style="fill:none;stroke:#000000;stroke-width:1;stroke-linecap:square;stroke-linejoin:bevel;stroke-miterlimit:10;stroke-dasharray:none;stroke-opacity:1"
         id="path510" /></g><g
       id="g512"><path
         d="m 76.44,264 v -3.75"
         style="fill:none;stroke:#000000;stroke-width:1;stroke-linecap:square;stroke-linejoin:bevel;stroke-miterlimit:10;stroke-dasharray:none;stroke-opacity:1"
         id="path514" /></g><g
       id="g516"><path
         d="m 88.41,264 v -3.75"
         style="fill:none;stroke:#000000;stroke-width:1;stroke-linecap:square;stroke-linejoin:bevel;stroke-miterlimit:10;stroke-dasharray:none;stroke-opacity:1"
         id="path518" /></g><g
       id="g520"><path
         d="m 100.38,264 v -3.75"
         style="fill:none;stroke:#000000;stroke-width:1;stroke-linecap:square;stroke-linejoin:bevel;stroke-miterlimit:10;stroke-dasharray:none;stroke-opacity:1"
         id="path522" /></g><g
       id="g524"><path
         d="m 124.32,264 v -3.75"
         style="fill:none;stroke:#000000;stroke-width:1;stroke-linecap:square;stroke-linejoin:bevel;stroke-miterlimit:10;stroke-dasharray:none;stroke-opacity:1"
         id="path526" /></g><g
       id="g528"><path
         d="m 136.29,264 v -3.75"
         style="fill:none;stroke:#000000;stroke-width:1;stroke-linecap:square;stroke-linejoin:bevel;stroke-miterlimit:10;stroke-dasharray:none;stroke-opacity:1"
         id="path530" /></g><g
       id="g532"><path
         d="m 148.26,264 v -3.75"
         style="fill:none;stroke:#000000;stroke-width:1;stroke-linecap:square;stroke-linejoin:bevel;stroke-miterlimit:10;stroke-dasharray:none;stroke-opacity:1"
         id="path534" /></g><g
       id="g536"><path
         d="m 160.23,264 v -3.75"
         style="fill:none;stroke:#000000;stroke-width:1;stroke-linecap:square;stroke-linejoin:bevel;stroke-miterlimit:10;stroke-dasharray:none;stroke-opacity:1"
         id="path538" /></g><g
       id="g540"><path
         d="m 184.17,264 v -3.75"
         style="fill:none;stroke:#000000;stroke-width:1;stroke-linecap:square;stroke-linejoin:bevel;stroke-miterlimit:10;stroke-dasharray:none;stroke-opacity:1"
         id="path542" /></g><g
       id="g544"><path
         d="m 196.14,264 v -3.75"
         style="fill:none;stroke:#000000;stroke-width:1;stroke-linecap:square;stroke-linejoin:bevel;stroke-miterlimit:10;stroke-dasharray:none;stroke-opacity:1"
         id="path546" /></g><g
       id="g548"><path
         d="m 208.11,264 v -3.75"
         style="fill:none;stroke:#000000;stroke-width:1;stroke-linecap:square;stroke-linejoin:bevel;stroke-miterlimit:10;stroke-dasharray:none;stroke-opacity:1"
         id="path550" /></g><g
       id="g552"><path
         d="m 220.08,264 v -3.75"
         style="fill:none;stroke:#000000;stroke-width:1;stroke-linecap:square;stroke-linejoin:bevel;stroke-miterlimit:10;stroke-dasharray:none;stroke-opacity:1"
         id="path554" /></g><g
       id="g556"><path
         d="m 244.02,264 v -3.75"
         style="fill:none;stroke:#000000;stroke-width:1;stroke-linecap:square;stroke-linejoin:bevel;stroke-miterlimit:10;stroke-dasharray:none;stroke-opacity:1"
         id="path558" /></g><g
       id="g560"><path
         d="m 255.99,264 v -3.75"
         style="fill:none;stroke:#000000;stroke-width:1;stroke-linecap:square;stroke-linejoin:bevel;stroke-miterlimit:10;stroke-dasharray:none;stroke-opacity:1"
         id="path562" /></g><g
       id="g564"><path
         d="m 267.96,264 v -3.75"
         style="fill:none;stroke:#000000;stroke-width:1;stroke-linecap:square;stroke-linejoin:bevel;stroke-miterlimit:10;stroke-dasharray:none;stroke-opacity:1"
         id="path566" /></g><g
       id="g568"><path
         d="m 279.93,264 v -3.75"
         style="fill:none;stroke:#000000;stroke-width:1;stroke-linecap:square;stroke-linejoin:bevel;stroke-miterlimit:10;stroke-dasharray:none;stroke-opacity:1"
         id="path570" /></g><g
       id="g572"><path
         d="m 303.87,264 v -3.75"
         style="fill:none;stroke:#000000;stroke-width:1;stroke-linecap:square;stroke-linejoin:bevel;stroke-miterlimit:10;stroke-dasharray:none;stroke-opacity:1"
         id="path574" /></g><g
       id="g576"><path
         d="m 315.84,264 v -3.75"
         style="fill:none;stroke:#000000;stroke-width:1;stroke-linecap:square;stroke-linejoin:bevel;stroke-miterlimit:10;stroke-dasharray:none;stroke-opacity:1"
         id="path578" /></g><g
       id="g580"><path
         d="m 327.81,264 v -3.75"
         style="fill:none;stroke:#000000;stroke-width:1;stroke-linecap:square;stroke-linejoin:bevel;stroke-miterlimit:10;stroke-dasharray:none;stroke-opacity:1"
         id="path582" /></g><g
       id="g584"><path
         d="m 339.78,264 v -3.75"
         style="fill:none;stroke:#000000;stroke-width:1;stroke-linecap:square;stroke-linejoin:bevel;stroke-miterlimit:10;stroke-dasharray:none;stroke-opacity:1"
         id="path586" /></g><g
       id="g588"><path
         d="m 60,256.5 h 122.25 v -42 H 60 Z"
         style="fill:#ffffff;fill-opacity:0.8;fill-rule:nonzero;stroke:none"
         id="path590" /></g><g
       id="g592"><path
         d="m 60,256.5 h 122.25 v -42 H 60 Z"
         style="fill:none;stroke:#000000;stroke-width:1;stroke-linecap:square;stroke-linejoin:miter;stroke-miterlimit:10;stroke-dasharray:none;stroke-opacity:1"
         id="path594" /></g><g
       id="g596"><path
         d="m 68.25,246.75 h 24"
         style="fill:none;stroke:#000000;stroke-width:2;stroke-linecap:butt;stroke-linejoin:miter;stroke-miterlimit:10;stroke-dasharray:none;stroke-opacity:1"
         id="path598" /></g><g
       id="g600"><path
         d="m 96.832,243 h 0.703 v 5.203 h -0.152 l 2.179,-4.23 h 0.586 l 2.145,4.23 h -0.105 V 243 h 0.714 v 6.246 h -0.738 l -2.508,-4.91 h 0.446 l -2.508,4.91 H 96.832 V 243 m 7.418,0 h 0.715 v 4.336 H 104.25 V 243 m 0.363,5.355 c 0.328,0 0.516,0.188 0.516,0.504 0,0.329 -0.188,0.516 -0.516,0.516 -0.316,0 -0.515,-0.187 -0.515,-0.516 0,-0.316 0.199,-0.504 0.515,-0.504 m 3.832,-5.449 c 0.493,0 1.043,0.117 1.43,0.328 l -0.164,0.516 c -0.34,-0.152 -0.762,-0.258 -1.137,-0.258 -1.019,0 -1.617,0.68 -1.617,1.805 0,0.973 0.434,1.512 1.231,1.512 0.738,0 1.171,-0.469 1.171,-1.301 h -2.531 v -0.539 h 3.164 c 0.024,0.14 0.035,0.445 0.035,0.621 0,1.09 -0.715,1.84 -1.781,1.84 -1.207,0 -2.027,-0.95 -2.027,-2.285 0,-1.383 0.855,-2.239 2.226,-2.239 m 6.621,0.094 h 0.704 l 1.687,4.336 h -0.715 l -1.5,-4.195 h 0.387 l -1.465,4.195 h -0.809 L 115.066,243 m 3.575,0 h 0.714 v 5.285 c 0,0.551 0.27,0.844 0.762,0.844 0.235,0 0.539,-0.047 0.762,-0.152 l 0.152,0.539 c -0.281,0.129 -0.551,0.222 -0.867,0.222 -0.914,0 -1.523,-0.621 -1.523,-1.547 V 243 m -0.645,3.738 h 2.719 v 0.598 h -2.719 v -0.598 m 3.246,-0.047 h 4.231 v 0.668 h -4.231 v -0.668 m 0,-2.179 h 4.231 v 0.668 h -4.231 v -0.668 m 6.762,-1.559 h 0.715 v 6.293 h -0.434 l -2.226,-1.16 0.269,-0.504 1.91,0.902 -0.234,0.223 v -5.754 m 4.488,-0.047 c 1.395,0 2.262,1.231 2.262,3.258 0,1.969 -0.844,3.164 -2.203,3.164 -1.406,0 -2.274,-1.23 -2.274,-3.246 0,-1.98 0.844,-3.176 2.215,-3.176 m 0.059,0.645 c -0.938,0 -1.524,0.972 -1.524,2.613 0,1.582 0.563,2.531 1.477,2.531 0.914,0 1.488,-0.996 1.488,-2.613 0,-1.582 -0.551,-2.531 -1.441,-2.531 M 138.117,243 h 0.692 l 3.433,6.246 h -0.75 L 138.117,243 m -0.187,2.355 c 0.902,0 1.5,0.786 1.5,2.004 0,1.196 -0.575,1.969 -1.477,1.969 -0.926,0 -1.523,-0.773 -1.523,-2.004 0,-1.207 0.586,-1.969 1.5,-1.969 m 0.011,0.598 c -0.48,0 -0.796,0.551 -0.796,1.406 0,0.844 0.304,1.383 0.785,1.383 0.48,0 0.797,-0.551 0.797,-1.43 0,-0.832 -0.305,-1.359 -0.786,-1.359 m 4.5,-3.012 c 0.914,0 1.5,0.786 1.5,2.016 0,1.195 -0.574,1.969 -1.476,1.969 -0.926,0 -1.512,-0.785 -1.512,-2.016 0,-1.195 0.586,-1.969 1.488,-1.969 m 0.024,0.598 c -0.492,0 -0.809,0.551 -0.809,1.418 0,0.844 0.305,1.371 0.785,1.371 0.493,0 0.797,-0.551 0.797,-1.418 0,-0.844 -0.304,-1.371 -0.773,-1.371 m 2.719,-2.109 h 0.644 c 0.317,0.785 0.492,1.746 0.492,2.636 h -0.773 c 0,-0.902 -0.141,-1.886 -0.363,-2.636 m 6.808,1.476 c 1.395,0 2.262,1.231 2.262,3.258 0,1.969 -0.844,3.164 -2.203,3.164 -1.406,0 -2.274,-1.23 -2.274,-3.246 0,-1.98 0.844,-3.176 2.215,-3.176 m 0.059,0.645 c -0.938,0 -1.524,0.972 -1.524,2.613 0,1.582 0.563,2.531 1.477,2.531 0.914,0 1.488,-0.996 1.488,-2.613 0,-1.582 -0.551,-2.531 -1.441,-2.531 m 4.347,-0.645 c 0.34,0 0.575,0.246 0.575,0.574 0,0.34 -0.235,0.586 -0.575,0.586 -0.339,0 -0.574,-0.246 -0.574,-0.586 0,-0.328 0.235,-0.574 0.574,-0.574 m 3.106,0.047 h 0.715 v 6.293 h -0.434 l -2.226,-1.16 0.269,-0.504 1.91,0.902 -0.234,0.223 v -5.754 m 8.32,0.047 h 0.727 v 2.848 c 0,0.961 -0.633,1.582 -1.594,1.582 -0.621,0 -1.242,-0.27 -1.687,-0.75 l 0.175,-0.457 c 0.352,0.363 0.821,0.574 1.313,0.574 0.691,0 1.066,-0.399 1.066,-1.102 V 243 M 162,243 h 0.715 v 3.832 l -0.211,0.504 H 162 V 243 m 2.906,0 h 0.727 v 2.848 c 0,0.961 -0.633,1.582 -1.582,1.582 -0.633,0 -1.242,-0.27 -1.699,-0.75 l 0.175,-0.457 c 0.352,0.363 0.821,0.574 1.313,0.574 0.691,0 1.066,-0.399 1.066,-1.102 V 243 m 6.832,-0.094 c 0.61,0 1.231,0.27 1.676,0.75 l -0.176,0.457 c -0.34,-0.363 -0.82,-0.574 -1.277,-0.574 -0.68,0 -1.066,0.399 -1.066,1.102 v 2.695 h -0.715 v -2.848 c 0,-0.961 0.632,-1.582 1.558,-1.582 m 1.535,0.094 h 0.504 v 4.336 h -0.726 v -3.832 L 173.273,243"
         style="fill:#000000;fill-opacity:1;fill-rule:nonzero;stroke:none"
         id="path602" /></g><g
       id="g604"><path
         d="m 68.25,235.5 h 24"
         style="fill:none;stroke:#ff0000;stroke-width:2;stroke-linecap:butt;stroke-linejoin:miter;stroke-miterlimit:10;stroke-dasharray:none;stroke-opacity:1"
         id="path606" /></g><g
       id="g608"><path
         d="m 96.832,231.75 h 0.703 v 5.203 h -0.152 l 2.179,-4.23 h 0.586 l 2.145,4.23 h -0.105 v -5.203 h 0.714 v 6.246 h -0.738 l -2.508,-4.91 h 0.446 l -2.508,4.91 h -0.762 v -6.246 m 7.418,0 h 0.715 v 4.336 h -0.715 v -4.336 m 0.363,5.355 c 0.328,0 0.516,0.188 0.516,0.504 0,0.329 -0.188,0.516 -0.516,0.516 -0.316,0 -0.515,-0.187 -0.515,-0.516 0,-0.316 0.199,-0.504 0.515,-0.504 m 3.832,-5.449 c 0.493,0 1.043,0.117 1.43,0.328 l -0.164,0.516 c -0.34,-0.152 -0.762,-0.258 -1.137,-0.258 -1.019,0 -1.617,0.68 -1.617,1.805 0,0.973 0.434,1.512 1.231,1.512 0.738,0 1.171,-0.469 1.171,-1.301 h -2.531 v -0.539 h 3.164 c 0.024,0.14 0.035,0.445 0.035,0.621 0,1.09 -0.715,1.84 -1.781,1.84 -1.207,0 -2.027,-0.95 -2.027,-2.285 0,-1.383 0.855,-2.239 2.226,-2.239 m 6.621,0.094 h 0.704 l 1.687,4.336 h -0.715 l -1.5,-4.195 h 0.387 l -1.465,4.195 h -0.809 l 1.711,-4.336 m 3.575,0 h 0.714 v 5.285 c 0,0.551 0.27,0.844 0.762,0.844 0.235,0 0.539,-0.047 0.762,-0.152 l 0.152,0.539 c -0.281,0.129 -0.551,0.222 -0.867,0.222 -0.914,0 -1.523,-0.621 -1.523,-1.547 v -5.191 m -0.645,3.738 h 2.719 v 0.598 h -2.719 v -0.598 m 3.246,-0.047 h 4.231 v 0.668 h -4.231 v -0.668 m 0,-2.179 h 4.231 v 0.668 h -4.231 v -0.668 m 6.949,-1.606 c 1.383,0 2.321,0.797 2.321,2.016 0,1.172 -0.844,1.91 -2.25,1.91 -0.34,0 -0.68,-0.047 -0.996,-0.117 l 0.187,-0.235 0.094,2.122 h 2.672 v 0.644 h -3.352 l -0.152,-3.199 c 0.41,0.094 0.926,0.152 1.324,0.152 1.066,0 1.711,-0.492 1.711,-1.336 0,-0.808 -0.598,-1.301 -1.512,-1.301 -0.539,0 -1.136,0.153 -1.605,0.411 l -0.211,-0.598 c 0.562,-0.293 1.148,-0.469 1.769,-0.469 m 5.426,0.094 h 0.692 l 3.433,6.246 h -0.75 l -3.375,-6.246 m -0.187,2.355 c 0.902,0 1.5,0.786 1.5,2.004 0,1.196 -0.575,1.969 -1.477,1.969 -0.926,0 -1.523,-0.773 -1.523,-2.004 0,-1.207 0.586,-1.969 1.5,-1.969 m 0.011,0.598 c -0.48,0 -0.796,0.551 -0.796,1.406 0,0.844 0.304,1.383 0.785,1.383 0.48,0 0.797,-0.551 0.797,-1.43 0,-0.832 -0.305,-1.359 -0.786,-1.359 m 4.5,-3.012 c 0.914,0 1.5,0.786 1.5,2.016 0,1.195 -0.574,1.969 -1.476,1.969 -0.926,0 -1.512,-0.785 -1.512,-2.016 0,-1.195 0.586,-1.969 1.488,-1.969 m 0.024,0.598 c -0.492,0 -0.809,0.551 -0.809,1.418 0,0.844 0.305,1.371 0.785,1.371 0.493,0 0.797,-0.551 0.797,-1.418 0,-0.844 -0.304,-1.371 -0.773,-1.371 m 2.719,-2.109 h 0.644 c 0.317,0.785 0.492,1.746 0.492,2.636 h -0.773 c 0,-0.902 -0.141,-1.886 -0.363,-2.636 m 6.808,1.476 c 1.395,0 2.262,1.231 2.262,3.258 0,1.969 -0.844,3.164 -2.203,3.164 -1.406,0 -2.274,-1.23 -2.274,-3.246 0,-1.98 0.844,-3.176 2.215,-3.176 m 0.059,0.645 c -0.938,0 -1.524,0.972 -1.524,2.613 0,1.582 0.563,2.531 1.477,2.531 0.914,0 1.488,-0.996 1.488,-2.613 0,-1.582 -0.551,-2.531 -1.441,-2.531 m 4.347,-0.645 c 0.34,0 0.575,0.246 0.575,0.574 0,0.34 -0.235,0.586 -0.575,0.586 -0.339,0 -0.574,-0.246 -0.574,-0.586 0,-0.328 0.235,-0.574 0.574,-0.574 m 3.106,0.047 h 0.715 v 6.293 h -0.434 l -2.226,-1.16 0.269,-0.504 1.91,0.902 -0.234,0.223 v -5.754 m 8.32,0.047 h 0.727 v 2.848 c 0,0.961 -0.633,1.582 -1.594,1.582 -0.621,0 -1.242,-0.27 -1.687,-0.75 l 0.175,-0.457 c 0.352,0.363 0.821,0.574 1.313,0.574 0.691,0 1.066,-0.399 1.066,-1.102 v -2.695 m -5.824,0 h 0.715 v 3.832 l -0.211,0.504 H 157.5 v -4.336 m 2.906,0 h 0.727 v 2.848 c 0,0.961 -0.633,1.582 -1.582,1.582 -0.633,0 -1.242,-0.27 -1.699,-0.75 l 0.175,-0.457 c 0.352,0.363 0.821,0.574 1.313,0.574 0.691,0 1.066,-0.399 1.066,-1.102 v -2.695 m 6.832,-0.094 c 0.61,0 1.231,0.27 1.676,0.75 l -0.176,0.457 c -0.34,-0.363 -0.82,-0.574 -1.277,-0.574 -0.68,0 -1.066,0.399 -1.066,1.102 v 2.695 h -0.715 v -2.848 c 0,-0.961 0.632,-1.582 1.558,-1.582 m 1.535,0.094 h 0.504 v 4.336 h -0.726 v -3.832 l 0.222,-0.504"
         style="fill:#000000;fill-opacity:1;fill-rule:nonzero;stroke:none"
         id="path610" /></g><g
       id="g612"><path
         d="m 68.25,224.25 h 24"
         style="fill:none;stroke:#00ff00;stroke-width:2;stroke-linecap:butt;stroke-linejoin:miter;stroke-miterlimit:10;stroke-dasharray:none;stroke-opacity:1"
         id="path614" /></g><g
       id="g616"><path
         d="m 96.832,220.5 h 0.703 v 5.203 h -0.152 l 2.179,-4.23 h 0.586 l 2.145,4.23 h -0.105 V 220.5 h 0.714 v 6.246 h -0.738 l -2.508,-4.91 h 0.446 l -2.508,4.91 H 96.832 V 220.5 m 7.418,0 h 0.715 v 4.336 H 104.25 V 220.5 m 0.363,5.355 c 0.328,0 0.516,0.188 0.516,0.504 0,0.329 -0.188,0.516 -0.516,0.516 -0.316,0 -0.515,-0.187 -0.515,-0.516 0,-0.316 0.199,-0.504 0.515,-0.504 m 3.832,-5.449 c 0.493,0 1.043,0.117 1.43,0.328 l -0.164,0.516 c -0.34,-0.152 -0.762,-0.258 -1.137,-0.258 -1.019,0 -1.617,0.68 -1.617,1.805 0,0.973 0.434,1.512 1.231,1.512 0.738,0 1.171,-0.469 1.171,-1.301 h -2.531 v -0.539 h 3.164 c 0.024,0.14 0.035,0.445 0.035,0.621 0,1.09 -0.715,1.84 -1.781,1.84 -1.207,0 -2.027,-0.95 -2.027,-2.285 0,-1.383 0.855,-2.239 2.226,-2.239 m 6.621,0.094 h 0.704 l 1.687,4.336 h -0.715 l -1.5,-4.195 h 0.387 l -1.465,4.195 h -0.809 l 1.711,-4.336 m 3.575,0 h 0.714 v 5.285 c 0,0.551 0.27,0.844 0.762,0.844 0.235,0 0.539,-0.047 0.762,-0.152 l 0.152,0.539 c -0.281,0.129 -0.551,0.222 -0.867,0.222 -0.914,0 -1.523,-0.621 -1.523,-1.547 V 220.5 m -0.645,3.738 h 2.719 v 0.598 h -2.719 v -0.598 m 3.246,-0.047 h 4.231 v 0.668 h -4.231 v -0.668 m 0,-2.179 h 4.231 v 0.668 h -4.231 v -0.668 m 6.762,-1.559 h 0.715 v 6.293 h -0.434 l -2.226,-1.16 0.269,-0.504 1.91,0.902 -0.234,0.223 v -5.754 m 4.113,0.047 h 0.692 l 3.433,6.246 h -0.75 l -3.375,-6.246 m -0.187,2.355 c 0.902,0 1.5,0.786 1.5,2.004 0,1.196 -0.575,1.969 -1.477,1.969 -0.926,0 -1.523,-0.773 -1.523,-2.004 0,-1.207 0.586,-1.969 1.5,-1.969 m 0.011,0.598 c -0.48,0 -0.796,0.551 -0.796,1.406 0,0.844 0.304,1.383 0.785,1.383 0.48,0 0.797,-0.551 0.797,-1.43 0,-0.832 -0.305,-1.359 -0.786,-1.359 m 4.5,-3.012 c 0.914,0 1.5,0.786 1.5,2.016 0,1.195 -0.574,1.969 -1.476,1.969 -0.926,0 -1.512,-0.785 -1.512,-2.016 0,-1.195 0.586,-1.969 1.488,-1.969 m 0.024,0.598 c -0.492,0 -0.809,0.551 -0.809,1.418 0,0.844 0.305,1.371 0.785,1.371 0.493,0 0.797,-0.551 0.797,-1.418 0,-0.844 -0.304,-1.371 -0.773,-1.371 m 2.719,-2.109 h 0.644 c 0.317,0.785 0.492,1.746 0.492,2.636 h -0.773 c 0,-0.902 -0.141,-1.886 -0.363,-2.636 m 6.808,1.476 c 1.395,0 2.262,1.231 2.262,3.258 0,1.969 -0.844,3.164 -2.203,3.164 -1.406,0 -2.274,-1.23 -2.274,-3.246 0,-1.98 0.844,-3.176 2.215,-3.176 m 0.059,0.645 c -0.938,0 -1.524,0.972 -1.524,2.613 0,1.582 0.563,2.531 1.477,2.531 0.914,0 1.488,-0.996 1.488,-2.613 0,-1.582 -0.551,-2.531 -1.441,-2.531 m 4.347,-0.645 c 0.34,0 0.575,0.246 0.575,0.574 0,0.34 -0.235,0.586 -0.575,0.586 -0.339,0 -0.574,-0.246 -0.574,-0.586 0,-0.328 0.235,-0.574 0.574,-0.574 m 3.106,0.047 h 0.715 v 6.293 h -0.434 l -2.226,-1.16 0.269,-0.504 1.91,0.902 -0.234,0.223 v -5.754 m 8.32,0.047 h 0.727 v 2.848 c 0,0.961 -0.633,1.582 -1.594,1.582 -0.621,0 -1.242,-0.27 -1.687,-0.75 l 0.175,-0.457 c 0.352,0.363 0.821,0.574 1.313,0.574 0.691,0 1.066,-0.399 1.066,-1.102 V 220.5 m -5.824,0 h 0.715 v 3.832 l -0.211,0.504 H 156 V 220.5 m 2.906,0 h 0.727 v 2.848 c 0,0.961 -0.633,1.582 -1.582,1.582 -0.633,0 -1.242,-0.27 -1.699,-0.75 l 0.175,-0.457 c 0.352,0.363 0.821,0.574 1.313,0.574 0.691,0 1.066,-0.399 1.066,-1.102 V 220.5 m 6.832,-0.094 c 0.61,0 1.231,0.27 1.676,0.75 l -0.176,0.457 c -0.34,-0.363 -0.82,-0.574 -1.277,-0.574 -0.68,0 -1.066,0.399 -1.066,1.102 v 2.695 h -0.715 v -2.848 c 0,-0.961 0.632,-1.582 1.558,-1.582 m 1.535,0.094 h 0.504 v 4.336 h -0.726 v -3.832 l 0.222,-0.504"
         style="fill:#000000;fill-opacity:1;fill-rule:nonzero;stroke:none"
         id="path618" /></g></g></svg>
